<svg xmlns="http://www.w3.org/2000/svg" width="640" height="480" xmlns:xlink="http://www.w3.org/1999/xlink"><path fill="#d0103a" d="M0 0h640v480H0z"/><path fill="#fedf00" d="M0 0h435.2v480H0z"/><path fill="#0018a8" d="M0 0h204.8v480H0z"/><path fill="#c7b37f" d="M300.4 136.63c7.7 0 10.86 6.6 18.58 6.6 4.75 0 7.53-1.54 11.68-3.88 2.9-1.64 4.74-2.52 8.07-2.52 3.4 0 5.5 1.03 7.23 3.95 1 1.65 1.8 4.88 1.37 6.74-.82 3.5-1.32 5.04-2.73 8.3-.67 1.55-1.3 2.48-1.3 4.2 0 4.08 5.57 5.5 9.36 5.55.83 0 7.77.12 12.04-4.2-2.32-.1-4.9-1.9-4.9-4.22 0-2.62 1.84-4.4 4.33-5.15.48-.14 1.3.28 1.72.05.6-.3.32-1 .86-1.43 1.26-1 2.07-1.6 3.66-1.6 1.04 0 1.65.13 2.5.73.43.32.6.7 1.13.7 1.14 0 1.7-.7 2.85-.7.92 0 1.5.1 2.3.53.68.35.67 1.5 1.43 1.5.4 0 2.42-.83 3.48-.83 2.2 0 3.4.8 4.8 2.48.4.45.64 1.36 1.03 1.36.78 0 2.6.5 3.73 1.63.48.5.7.72 1.07 1.3.26.43.66 1.45 1.12 1.62.54.2 1 .17 1.7.63 1.62 1.03 2.86 2.98 2.8 4.87-.02.63-.3 1.5-.48 2.12-1.88 6.58-6.36 8.67-10.88 14.32-1.93 2.4-3.44 4.32-3.44 7.4 0 .76.92 2.12 1.32 2.74-.24-1.45.42-3.23 1.95-3.3 2.1-.13 3.7 1.47 4 3.55.05.48-.13 1.32-.33 1.82 1.13-.75 2.62-1.25 3.97-1.4.74-.1 1.16-.1 1.9-.1 3.37.1 7.07 1.97 9.32 3.88 6.88 5.85 7.7 14.4 7.34 16.77-.84 5.28-.3 14.83-13.8 18.64 2.5 1.06 4.2 2.94 4.2 5.24 0 2.5-1.93 4.66-4.44 4.66-1.44 0-2.44-.35-3.44-1.35-2.8 2.8-3.35 5.66-3.35 9.63 0 2.38.45 3.78 1.45 5.93 1.05 2.28 1.8 3.6 3.7 5.25 1-1.5 2.08-2.62 3.9-2.62 1.76 0 3.26.56 3.98 2.17.2.5.02.88.27 1.36.32.6.85.74 1.18 1.35.5.95 0 1.76.45 2.73.28.63.9.72 1.17 1.36.43.96.55 1.63.55 2.7 0 3-2.74 5.16-5.75 5.16-.9 0-1.4-.36-2.3-.27 1.72 1.7 3.03 2.45 4.34 4.5 1.9 2.98 2.38 5.1 2.8 8.6.1.66.1 1.05.1 1.72 0 4.5-.7 7.2-2.7 11.22-1.93 3.86-3.57 6-7.07 8.5-5.45 3.93-9.42 5.06-16 6.34-4.24.8-6.66 1.17-10.96 1.44-5.5.35-8.63.37-14.1.73-7.2.48-12.2 1.5-17.3 6.6 2.42 1.77 4.08 3.5 4.08 6.47 0 3.05-1.9 5.24-4.8 6.2-.68.22-1.17.02-1.8.36-.76.4-.73 1.27-1.45 1.72-1.28.8-2.28 1-3.8 1-2.7 0-4.53-.64-6.43-2.54-2.2 1.83-2.95 3.48-5.43 4.9-.8.44-1.23 1.07-2.17 1.07-1.48 0-2.16-.94-3.34-1.8-1.9-1.4-2.9-2.3-4.44-4.08-2.26 1.35-3.64 2.44-6.25 2.44-1.6 0-2.62-.23-3.98-1.1-.7-.43-.83-1.1-1.54-1.53-.75-.46-1.37-.3-2.17-.63-3.02-1.3-4.98-3.54-4.98-6.83 0-2.88 1.82-4.7 4.44-5.92-5-5-9.94-5.88-17-6.33-5.47-.35-8.58-.36-14.04-.73-4.33-.3-6.74-.73-11.04-1.44-3.24-.53-5.16-.7-8.14-2.08-10.23-4.78-16.76-11.32-18.1-22.53-.1-.96-.08-1.52-.08-2.5 0-5.82 2.3-9.4 6.42-13.5-1.06-.26-1.77.1-2.8-.28-2.58-.95-4.44-2.74-4.44-5.5 0-1 .05-1.68.55-2.57.35-.62 1.02-.74 1.17-1.44.2-.94-.07-1.6.36-2.46.3-.58.82-.7 1.1-1.27.88-1.85 2-3.34 4.06-3.34 1.77 0 2.9.92 3.8 2.44 1.72-.8 2.2-2.08 3.17-3.7 1.62-2.7 2.36-4.6 2.36-7.74 0-2.2-.22-3.5-.9-5.57-.5-1.5-.7-2.5-1.8-3.62-1.02 1-2.02 1.36-3.45 1.36-2.86 0-5.06-2.46-5.06-5.34 0-2.13 1.05-3.72 3-4.6-1.56-1.35-2.9-1.46-4.63-2.54-2.6-1.65-3.52-3.4-5.23-5.97-1.12-1.7-1.42-2.87-2-4.8-.68-2.33-1.08-3.72-1.08-6.15 0-.63 0-1 .08-1.63.64-4.9 1.53-7.98 4.6-11.85 1.85-2.3 3.1-3.7 5.8-4.9 2.3-.98 3.7-1.7 6.2-1.7.76 0 1.2 0 1.95.1 1.15.13 1.9.24 2.9.8.38.2 1.08.86 1.08.4 0-.5-.26-.78-.26-1.3 0-2.1 1.5-4 3.57-4 1.5 0 2.13 1.34 2.86 2.64.48-.8.72-1.34.72-2.26 0-3.44-1.84-5.2-3.98-7.87-4.66-5.83-10.5-8.55-10.5-16.02 0-2.2 1.08-3.73 3-4.87.55-.33 1.3 0 1.84-.35.46-.3.4-.9.7-1.37.46-.72.87-1.04 1.52-1.6 1.06-.93 2-.65 3.17-1.47.6-.4.73-.94 1.18-1.48 1.32-1.58 2.5-2.35 4.57-2.35 1.04 0 1.62 0 2.58.4.33.12.94.6 1.02.52.2-.25.77-.85 1.44-1.16.88-.42 1.24-.58 2.2-.58 1.12 0 1.84.62 2.95.62.4 0 .5-.4.83-.62.98-.67 1.55-1.05 2.75-1.05 1.15 0 1.8.38 2.76 1 .9.58 1.04 1.36 1.98 1.9.52.3.96.17 1.54.36 2.58.85 4.52 2.57 4.52 5.28 0 1.47-.35 2.52-1.45 3.48-.88.77-1.7.64-2.8 1 3.58 2.87 6.7 3.58 11.3 3.58 4.2 0 9.35-1.72 9.35-5.92 0-1.96-1.08-3-1.85-4.8-1.38-3.2-2.12-5.1-2.12-8.57 0-2.76.3-4.44 1.9-6.68 1.65-2.3 3.67-2.84 6.5-2.84z"/><g fill="none" stroke="#703d29"><path d="M272.38 159c.27 1.06 1.12 2.04 2.44 2.45.8.25 2.64.15 3.83-1.4.97-1.24.9-2.8.54-4.02-.25-.8-.9-1.57-1.74-2.22l-5.08 5.17v.05zM401.03 236.12c-1.2-2.88-4.28-1.6-4.47 0-.44 3.67 2.78 4.78 5.07 4.18 1.13-.3 1.96-1 2.5-1.94.6-1.05.77-2.42.38-3.73a4.9 4.9 0 0 0-.84-1.65 4.97 4.97 0 0 0-1.28-1.2c-.88-.57-1.84-.62-3.34-.62-5.57 0-10.45 6.58-12.1 13.42-.53 2.25-1.27 7.28-.24 12.04 1.1 5.08 3.3 8.6 5.86 11.26 1.4 1.44 3.3 2.72 5.76 4.12.76.42 2.76 1.3 4.15 1.7 1.43.42 2.76.36 3.95.1 3.3-.7 4.83-3.78 3.17-6.93-1.37-2.57-5.4-3.98-7.28-.7-.16.28-.4.9-.4 1.55 0 .87.38 1.93 1 2.33 1.44.9 3.74.65 3.63-1.88M383.8 273.96c1.12-1.3 3.7-3.3 6.62-3.65 2.98-.35 5.57.5 8.2 1.94 5.17 2.77 8.05 5.75 9.96 11.3.5 1.4.9 3.5.84 5.76-.1 3.6-1 7.5-1.98 9.4-.86 1.66-3.1 8.96-15.33 14-7.13 2.94-18.1 3.62-25.66 3.92-10.4.4-20 .8-25.58 7.66M386.4 285.73c-.3-1.1-.02-2.15.85-3.34 1.16-1.6 3.63-2.15 5.87-.9.75.4 1.7.96 2.53 2.1.32.4.87 1.1 1.15 1.58.68 1.16.96 2.1 1.1 2.5 2.45 6.98-1.46 14.56-6.57 17.6-3.98 2.37-8.7 3.42-14.38 4.08-2.55.3-4 .28-6.57.4-2.07.1-3.85.06-5.53.04-1.38 0-2.7 0-4.03-.04-2.18-.05-4.44-.1-7.2.1-2.92.2-5.1.3-7.58.7-1.6.27-3.5.53-5.46.97-.6.13-1.2.24-1.8.42l-1.2.37c-3.57 1.1-7.04 2.4-9.77 4.17-.83.54-1.8 1.08-2.47 1.73-.43.4-.94.8-1.36 1.2-1.9 1.9-3.87 3.93-4.33 6.7-.08.5-.08 1.03-.08 1.6 0 1.78 1.45 4.22 5.4 5.02m5.52-170.12c.82 1.5 1.27 2.4.8 3.93-.55 1.74-1.8 2.8-3.54 2.8-3.98 0-6.32-4.72-4.53-7.72 3.2-5.33 9.32-2.34 15 .3-.3-1.37-.76-1.8-.7-3.5.1-4.2 3.23-6.1 4.47-10 .74-2.3 1.04-4.3-.66-5.95-1.46-1.45-3.17-1.42-5.1-.67-3.85 1.5-8.48 5.85-16.62 5.97-8.15-.12-12.8-4.46-16.66-5.97-1.93-.75-3.64-.78-5.12.66-1.7 1.63-1.4 3.64-.65 5.95 1.24 3.88 4.36 5.8 4.48 10 .05 1.68-.43 2.12-.7 3.5 5.67-2.65 12.03-5.9 14.97-.3 1.65 3.1-.54 7.7-4.52 7.7-1.76 0-3-1.12-3.54-2.8-.48-1.47 0-2.77.8-3.92M314.56 159.87c1.54 1.17 2.62 2.62 2.44 4.97-.2 2.55-.8 3.17-2.8 4.53m2.4-3.8c-.1 1.54-.73 2.53-2.27 3.16"/><path fill="#c7b37f" stroke="none" d="M276.74 153.27l.7.5.74.8.5 1 .24.84.05 1.1-.05.75-.25.84-.5.6-.6.64-.84.45-1.1.24-.94.14-1-.44-.9-.65-.54-.8-.4-1v-.4l4.88-4.63z"/><path d="M275.2 157.16c-.3-1.65-2.23-2-2.98-1-1.15 1.5-.3 4 2.03 4.73.8.24 2.64.14 3.83-1.4.97-1.26.9-2.8.54-4.04-.24-.8-.88-1.5-1.73-2.14-2.73-2.07-7.12-1.6-8.57 1.9-1.86 4.5 2.2 7.86 5.92 10.4 4.7 3.2 10.06 3.77 14.1 3.73 9.14-.1 16.1-4.48 20.64-6.97 1.04-.58 2.13-.46 2.67.2.62.74.6 1.95-.25 2.73M248.06 281.18l-2.04.75-2.1 1.6-.88 1.24-1.15 2-.5 1.48-.4 1.84-.2 1.38m19-10.1l-.14 1.8-.3 1.24-.9 2.14-1.4 1.84-1.48 1.2-1.1.54-1.54.35M319.74 329.1c-.37 1.66-1.92 3.56-5.3 4.24l-.65.14M404.22 276.2c2.13 2 3.64 4.42 4.8 7.75.48 1.4.88 3.53.82 5.78-.1 3.58-1 7.5-1.98 9.4-.85 1.66-3.08 8.96-15.32 14-7.14 2.94-18.1 3.62-25.68 3.92-10.25.4-19.72.78-25.33 7.37M387.5 282.85c.75-1.04 3.52-2.35 5.76-1.1.73.4 1.6.92 2.37 2.07M401.6 273.8c.5.18 1 .35 1.44.48 1.43.4 2.78.44 3.94.1 2.83-.86 4.65-3.5 3.18-6.94-.34-.8-1-1.56-1.74-2.14M240.28 199.76c-1.9 1.18-3.3 1.46-4.8 3.17-1.46 2.9-2.04 4.48-2.62 6.82m46.1-51.7c0 1.72-1.26 2.8-2.98 3.17M397.1 192.02c4.74-.1 18.48 3.6 18.58 19.76.1 15.95-9.84 18.56-13.83 19.62M398.36 192.02c8.15-.35 16.57 5.65 16.94 20.63.3 11.7-8 17-12 18.08M393.8 248.42l.14-1.6.53-2.54.75-1.98.85-1.63 1.1-1.32m7.78-3.4l-.12 1.57-.45 1.07-.7 1-.8.6-1.2.45-1.08.08-.8-.13m-14.3-52.8l.34-1.7.75-1.57.96-1.57 1.66-2.14 1.32-1.47 2.14-2.16 1.84-1.88 1.17-1.34 1.53-1.86 1.37-2.07.82-1.7.45-2.18.14-2.72-.24-.78m-12.28 128.17l1.62-.32 1.22-.65.67-.67.46-.77.33-1.25v-.87m-158.24-12.14l1.2.1 1.54-.12 1.54-.55m5-36.56l-.2 1.4-.32.62-.47.6-.65.5-.72.32-.95.15-.65.05m9.9-15.62l-.34 2.16-.42.95-.87 1.2-1.17.9-1.2.58-2.3.57m15.3-39.75l-.46 1.3-.55.94-.75 1.05-1.04.95-1.24.6-1.05.24-.66-.05m.38-6.2l.03 1M254.28 224.06a6.86 6.86 0 0 1-2.1 1.3m150.53 44.82c.1.1.4.14.5.2 1.4.85 4.2-.2 3.38-2.4M397.8 239.6c1 1.32 2.9 1.66 4.4 1.27 1.12-.3 1.95-1 2.48-1.94.6-1.05.78-2.42.4-3.73a4.9 4.9 0 0 0-.85-1.65c-.43-.56-.96-1.16-1.37-1.43-.1-.07-.2-.16-.33-.24m6.42 34a3.94 3.94 0 0 0 .07-.7c0-1.16-.48-2.23-1.3-2.94-.26-.25-.53-.62-.86-.8m.48.48c-.05-1.86-1.57-3.2-3.46-3.53m-4.17 2.83c-.43-.36-.9-.66-1.3-1.08-2.45-2.57-4.3-6.35-4.32-10.68-.02-4.14 1.64-8.36 3.58-10m-56.5 84.65l1.8-1.64 1.24-.95 2.34-1.44 2.2-1.05 1.53-.4 3.1-.7 3.57-.55m-29.5 19.37c-1.3 2-4.4 4.97-7.62 6.17-3.24-1.2-6.32-4.18-7.62-6.17M314.42 332.63c-.4 1.5-1.14 2.96-2.22 4.13M314.74 330.54l-.45 2.2m-2.34 4.17l-.95.95-1.68.95-1.94.6m-5.65-177.83c.25-.76.5-1.33.46-2.57-.14-4.2-3.25-6.1-4.5-10-.73-2.3-1.03-4.3.66-5.95 1.48-1.43 3.2-1.4 5.12-.66 3.85 1.5 8.5 5.84 16.66 5.96-8.15-.12-12.8-4.46-16.66-5.97-1.93-.76-3.8-.98-5.28.45-1.7 1.64-1.24 3.85-.5 6.16 1.25 3.9 4.2 5.8 4.33 10 .03 1.24-.3 1.8-.54 2.57m18.62-13.5c8-.42 14.87-5.8 17.1-6.24 1.96-.4 3.06-.2 4.5 1.1-1.44-1.3-3.1-1.27-4.96-.54-3.85 1.5-8.48 5.84-16.62 5.96m79.6 112.9c-3.34-2.4-6.2-6.96-6.22-12.35-.03-4.13 1.64-8.35 3.58-10m-69.95 97.6c-1.3 1.98-4.38 4.96-7.6 6.16-3.25-1.2-6.33-4.18-7.63-6.17M306.67 163.67c.83-.46 1.6-.9 2.32-1.3 1.04-.57 2.3-.45 2.86.2.6.76.7 2.05-.15 2.84M294.7 169.27c5.5-1.14 9.98-3.6 13.37-5.5m32.27 164.18c.45.3.75.96.75.96.1.3.27.6.32.86.26 1.52-.74 2.47-1.97 2.6-1.7.2-2.97-.8-3.5-2.02M294.42 169c5.5-1.16 9.97-3.62 13.36-5.5m97.56 106.9c-1.04.4-1.6.34-2.9-.24-.55-.23-1.16-.6-1.87-1-2.56-1.45-5.6-3.73-8.42-9.06a18.8 18.8 0 0 1-1.7-4.47c-.28-1.1-.47-2.2-.5-3.34-.08-1.93.13-3.93.6-6.23.8-3.8 1.75-5.85 4.1-9.05 1.14-1.58 2.13-2.54 4.27-2.6m-143.7-39.3c1.78 1.5 2.64 3.4 2.64 5.72 0 3.1-2.6 8.16-8.97 9.96-2.44.68-4.86.13-6.32-.76M256.3 205.62c1.14.8 1.6 1.7 1.6 3.24 0 1.07-.7 2.45-1.87 3.76-1.92 2.14-5.18 3.96-8.78 4-1.96.03-4-.38-6.03-1.75-2.2-1.46-3.34-3.43-3.83-5.37M256.2 212.3c1.3 1.2 1.7 2.68 1.7 4.56 0 2.74-1.13 4.86-3.7 7.1-.57.5-1.2.98-1.93 1.4m129.43-22.08v3.54m-.3-4.4v4.97m.3-15.76v6.52m-.3-7.96v8.9m-1.9 81.97c-1.22 2.45-2.2 3.74-4.17 5.67-1.97 1.95-3.34 2.84-5.82 4.08-2.4 1.2-3.92 1.6-6.56 2.2-2.63.6-4.17.72-6.86.84-2.47.1-3.88 0-6.34-.17-2.64-.2-4.1-.56-6.75-.8-2.2-.18-3.42-.35-5.6-.35-2.25 0-3.54.02-5.75.4-2.07.38-3.24.67-5.18 1.46-2.68 1.1-5.72 3-6.37 3.84-.64-.85-3.68-2.75-6.37-3.83-1.94-.78-3.1-1.07-5.17-1.44-2.2-.4-3.5-.4-5.75-.4-2.18 0-3.4.16-5.58.35-2.64.25-4.1.6-6.75.8-2.47.17-3.87.27-6.34.16-2.7-.12-4.24-.25-6.87-.85-2.63-.58-4.15-.97-6.57-2.18-2.5-1.23-3.85-2.13-5.83-4.08-.2-.2-.4-.4-.6-.6m42.16 53.36l1.8-.22m30.27-2.36l1.8-.17 1.73-.7 1.2-.72 1.64-1.94.34-.74.27-1.68.1-.78m46.9-136.7c.77-2.63-.17-5.42-2.73-5.34M257.8 234.72c-.66 2.2-2.06 3.7-3.6 4.67m3.63-46.73c-.64 1.85-1.8 3.17-3.66 4-1.85.84-4 .06-5.13-.82M243.8 202.37c1.54.8 3.1-.38 2.77-2.37-.15-.93-1.15-2.1-2.5-2.2M250.16 286.63c.33.3.4.7.84.8.67.12 1.2.37 1.87-.53.83-1.1.38-2.82-.48-3.9-.93-1.15-3.6-2.18-5.84-.93-.75.4-1.7.96-2.54 2.1-.32.4-.86 1.1-1.14 1.58-.68 1.16-.96 2.1-1.1 2.5-2.04 5.8.4 11.93 4.16 15.66M340.22 327.83c.4.42.64.8.64.8.13.3.23.58.28.84.26 1.52-.74 2.47-1.97 2.62-1.7.18-2.83-.82-3.37-2.03M389.44 154.76c3.35.4 6.26 3.6 6.26 7.03 0 4.42-1.5 6.07-3.82 9.24-2.5 3.4-10.65 9.6-10.65 16.67 0 4.3 1.2 7.02 4.28 8.42 2 .9 4.32-.08 5.38-1.03 2.6-2.35 1.56-6.45-1.14-6.94-3.3-.6-3.9 4.57-.7 4.23m17.83 69.05c-.3-1.78-1.8-3.13-3.62-3.13-2.02 0-3.66 1.68-3.66 3.76 0 1.02.38 1.94 1.02 2.62M383.87 195.12c-1.78 1.5-2.64 3.4-2.64 5.72 0 3.1 2.6 8.16 8.96 9.96 2.43.68 4.76.62 6.22-.27M240.4 200.2c-1.53.5-3.43 1.45-4.84 3.45-1.2 1.68-1.88 4.02-2.3 6.07-.2.9-.42 3.73.15 6.66.43 2.16 1.33 4.18 2.32 5.63a7.94 7.94 0 0 0 1.03 1.25c.33.33.8.62 1.14.88m64 92.04c4.85 2.15 8.4 3.76 11.42 8.52.94 1.5 1.2 3.63 1.2 4.87 0 2.7-1.1 5.72-3.34 7.6-2.08 1.77-4.13 2.3-6.67 2.05-1.9-.2-3.72-1.6-4.02-2.6M254 224.13c2.74 2.15 3.88 4.22 3.88 7.52 0 3.78-1.84 6.12-3.98 7.47M251.5 236.42c4.1 5.08 6.26 8.1 6.38 14.13.12 5.68-1.7 9.56-5.07 13.64M329.75 169.32c.74-.48 1.28-1.26 1.6-2.23.48-1.5.5-2.76-.3-3.9.97 1.28 1.06 2.36.8 3.92-.2 1-.82 1.52-1.6 2.23m51.45 86.16v16.17h.04s0 1.53-.14 2.5a34.4 34.4 0 0 1-.27 1.72M381.4 253.96v17.42h.06s0 1.53-.14 2.5c-.13 1-.28 1.84-.46 2.63m.55-42.94v14.53m.3-13.4v11.82m0-26.84v8.86m-.3-9.9v10.92m.3-18.94v3.44m-.3-4.13v4.97m-1.83 65.2c-.1.22-.22.45-.34.7-1.23 2.44-2.22 3.73-4.18 5.66-1.97 1.95-3.34 2.84-5.82 4.08-2.4 1.2-3.93 1.6-6.57 2.2-2.63.6-4.17.72-6.86.84-2.48.1-3.88 0-6.35-.16-2.64-.2-4.1-.55-6.74-.8-2.17-.18-3.4-.35-5.6-.35-2.23 0-3.52.02-5.74.4-2.06.38-3.23.67-5.17 1.45-2.7 1.1-5.73 3-6.38 3.83-.65-.84-3.68-2.74-6.37-3.83-1.94-.78-3.1-1.07-5.17-1.44-2.22-.4-3.5-.4-5.75-.4-2.2-.02-3.42.16-5.6.35-2.64.23-4.1.6-6.74.8-2.48.16-3.88.26-6.35.15-2.7-.12-4.24-.25-6.87-.85-2.64-.6-4.15-.98-6.57-2.2-2.47-1.23-3.84-2.12-5.8-4.07-1.05-1.02-1.8-1.86-2.48-2.78m-2-3.2c.42 3.17-.9 6.28-2.27 7.7-.84.9-2.68 2.62-4.97 2.65-3.78.05-4.9-2.55-5.14-3.2M255.62 278.85c.7.7 1.32 1.54 1.85 2.54.94 1.78.65 4.77-.1 6.16a4.43 4.43 0 0 1-.3.47m-20.24 18.02c2.24 2.36 5.65 4.92 10.87 7.07 7.14 2.94 18.1 3.62 25.67 3.92 10.06.4 19.33.8 24.97 7.04M315.7 320c1.67 1.64 3.36 3.4 4.08 5.64m-7.34 11.45a8.22 8.22 0 0 1-.7.65c-2.08 1.75-4.13 2.3-6.67 2.04-1.92-.2-3.78-1.64-4.27-2.6m-5.36-2.9c.1.13.2.25.3.37 1.2 1.4 3.1 2.3 5.1 2.46m26.87-.08c-1.28 2-4.37 4.98-7.6 6.17-3.24-1.2-6.32-4.18-7.62-6.17l-.3-.46m15.58.44c.23.25.48.5.74.7 2.08 1.76 4.13 2.3 6.67 2.05 1.93-.2 3.45-1.5 4.07-2.6 0 0 .35-.37.44-.73M339.04 336.63l-.74 1.2-1.13.94-1.7.7-1.56.07M343.06 325.26c.92.7 1.8 1.77 2.3 2.9.32.73.46 1.54.5 2.37a5.85 5.85 0 0 1-1.42 4.14c-1.27 1.5-3.27 2.4-5.4 2.48a5.48 5.48 0 0 1-.46 0m.2-.3c-2.04.1-3.86-.77-5.2-2.15m63.68-67.86c-1.58-1.46-3.22-3.48-4.8-6.45a18.8 18.8 0 0 1-1.7-4.5c-.28-1.1-.47-2.2-.5-3.32-.08-1.92.13-3.93.6-6.22.8-3.8 2.2-6.73 4.08-9.06.64-.8 1.38-1.8 2.08-2.23m-1.37-75.82c2.54.2 4.9 2.93 4.86 5.6-.04 3.9-1.34 5.5-4.4 9.32-2.64 3.28-10.55 9.06-10.35 14.58.03.98.56 2 1.15 2.8m-3.16 3.47c.56.56 1.24 1 2.05 1.38 1.44.65 3.06.32 4.25-.28m-21.17-43.22c.85.58 1.7 1.46 2.18 2.6 1.86 4.5-2.2 7.86-5.92 10.4-2.67 1.8-5.56 2.8-8.3 3.28M364.6 161.56c-.9 0-1.98-.27-3.15-1.5-.27-.3-.58-.66-.7-1m-14.86 4.9c-.48-.23-1-.57-1.33-.95-.9-1-1.48-2.33-.8-4.38.64-1.9 3.68-7.22 3.83-10.9.23-5.62-1.94-8.94-5.32-10.24M347.3 146.46l-.12 2.12-.57 2.16-1.1 2.95-.83 1.9-.88 1.88-.45 1.32-.18.97.14.93m38.02 126.28c.17.42.6.83.6.83.64 1.1 3.16 3 5.44 3.02 3.78.05 4.68-2.6 4.78-3.18.48-2.9-.5-3.68-2-4.5 0 0-.86-.44-1.9-.27M236.95 274.35c-1.34.34-2.6.35-3.7.02-2.82-.85-5.1-3.56-3.94-6.93m13.4-31.82c.28.28.37.7.4 1.07.45 3.65-2.76 4.72-5.05 4.13-1.14-.3-2.5-1.35-3.02-2.28a4.7 4.7 0 0 1-.6-2.3m22.04-23.67c.58.52.97 1.1 1.24 1.76m-1.12-8.52c.53.37.9.84 1.16 1.3M257.86 210.52c-.3.76-.84 1.6-1.55 2.38-1.9 2.14-5.17 3.96-8.77 4-1.96.03-4-.38-6.03-1.74-2.2-1.46-3.6-3.54-4.08-5.58M255.43 195.28c1.1.94 1.96 2.14 2.37 3.4M257.83 203.24c-.89 2.93-3.53 6.55-8.62 7.84-2.43.6-5.56-.16-6.63-1.07M240.04 202.55c.27 2.64 2.03 4.62 5.38 4.68 4.7.1 7.56-6.77 3.38-11.58M229.45 225.53c.7.86 1.5 1.64 2.33 2.33 1.67 1.4 3.65 2.62 5.93 3.3m5.3.5c4.2-.52 6.56-3.65 6.1-7.3-.36-2.8-2.93-4.95-4.67-5.08M249.85 188.1c1.82-.06 2.86 1.6 2.84 3M249.42 163.08c1 2.6 2.95 4.65 5.03 5.82m144.18 30.97c1.72 2.35.6 7-4.08 7.08-1.83.04-3.48-.98-4.44-2.5M381.7 169.12v15.8M243.76 202.33c1.44 1.04 3.3-.72 2.58-2.6-.5-1.26-2.28-2.62-4.77-.93-2.75 1.87-2 7.76 3.28 7.86 4.7.1 7.57-6.76 3.4-11.58-4.03-4.63-11.36-3.54-16.13.26-2.04 1.6-5.88 5.85-7.07 11.62-.37 1.8-.6 3.27-.6 5.08.03 1.2.14 2.52.5 4.18.72 3.35 1.9 5.8 3.07 7.5.45.67.87 1.2 1.3 1.65.83.82 1.07 1.26 1.9 1.94 2.7 2.26 6.18 4.03 10.45 3.84 4.67-.2 7.36-3.48 6.86-7.36-.48-3.76-4.28-5.64-6.76-3.88-1.7 1.2-2.3 4.9.7 5.77 1.68.5 3.18-1.64 1.98-2.88m129.57-71.97c2.7-1.46 4.78-1.2 6.32.94 1.67 2.33 1.9 5.4 1.54 7.22-.55 2.68-1.33 3.8-3.46 5.75M380.53 152.03c3.1-2.04 6.43-1.17 8.26 1.55 1.33 2 1.68 3.65 1.58 6.12-.16 4.22-2.8 7.57-5.72 9.2M395.06 159.15c2.54.2 4.58 2.5 4.58 5.17 0 3.83-1.07 5.5-4.13 9.3-2.63 3.3-10.54 9.06-10.34 14.6.07 2.08 1.83 4.04 3.35 4.15M395.36 202.33c-1.44 1.04-3.28-.64-2.5-2.43.56-1.24 2.2-2.8 4.7-1.1 2.74 1.87 1.98 7.77-3.3 7.86-4.7.1-7.88-6.6-3.38-11.58 4.1-4.55 11.72-3.66 16.5.14 2.03 1.62 6.12 6.06 7 11.9 1.06 7.04.92 15.72-6.36 21.06-2.93 2.15-7 3.12-10.57 2.97-4.68-.2-7.37-3.5-6.87-7.37.48-3.76 4.1-5.35 6.77-3.88 2.76 1.53 2.28 5.42-.7 5.77-1.75.2-3.18-1.64-2-2.88M392.87 199.9c.78-3.5 3.77-3.82 6.18-3.78 6.6.1 11.15 7.9 11.22 15.47.1 9.54-4.05 15.17-11.03 15.47-1.8.07-4.92-.8-4.97-3M396.93 198.34c6.95 1.54 9.4 7.8 9.4 13.78 0 4.87-.5 11.53-9.98 13.87M408.4 265.33a3.9 3.9 0 1 0-6.27 2.34M394.45 259.4c1.3 1.95 2.9 4.1 6.24 5.92m-1.27 10.55c-3.28-2.15-9.5-4.96-15.12-2.2-2.08 1.04-3.47 2.3-4.26 4.4-1.42 3.72.17 7.84 1.78 9.55.85.9 2.7 2.6 4.98 2.64 3.78.05 4.68-2.6 4.78-3.18.44-2.74-1.15-3.84-2-4.13-.64-.23-2.75-.17-3.2 1.32-.15.5-.18 1.36.22 2M340.47 328.42c1.05 2.14-.14 3.22-1.6 3.4-2.13.24-3.27-1.46-3.42-3-.24-2.5 1.86-4.77 4.38-4.73 2.26.03 4.1 1.5 4.97 3.5.3.73.46 1.53.5 2.37a5.85 5.85 0 0 1-1.42 4.14c-1.28 1.5-3.27 2.4-5.4 2.48-4.22.17-7.5-3.78-7.5-7.8 0-7.72 11.43-11.93 15.96-13 5.58-1.34 8.97-1.84 17.92-2.33 3.58-.2 6.2-.1 10.15-.5 3.54-.38 5.38-.55 9-1.4 4.55-1.05 8.77-2.93 12.55-6.36 2.9-2.66 4.58-4.54 5.93-8.17 1.16-3.14 1.7-9.34-1.25-13.93-2.6-4.06-6.22-6.17-10.35-6.77-3.73-.54-7 1.07-8.96 4.78-.94 1.8-.65 4.8.1 6.18.64 1.2 2.5 2.95 4.78 2.98 3.78.05 4.68-2.6 4.77-3.18.45-2.74-1.14-3.84-2-4.13-.64-.23-2.75-.17-3.2 1.32-.14.5-.17 1.36.23 2M337.22 316.17c-4.85 2.15-8.4 3.76-11.42 8.52-.95 1.5-1.2 3.63-1.2 4.87 0 2.7 1.1 5.72 3.34 7.6 2.07 1.77 4.13 2.3 6.66 2.05 1.93-.2 3.74-1.6 4.03-2.6M385.1 224.13c-2.26.75-3.87 4.2-3.87 7.5 0 3.8 1.84 6.13 3.98 7.48M387.6 236.42c-4.08 5.08-6.25 8.1-6.37 14.13-.12 5.68 1.7 9.56 5.07 13.64M365.85 152.05c.1-.15.22-.33.35-.52 1.7-2.48 4.68-3.14 6.87-1.5 2.63 2 3.3 5.4 2.58 8.97-.44 2.24-1.96 4.1-4.04 5.45M265.1 150.84c-2.6-1.2-4.72-.97-6.32.94-1.84 2.2-1.9 5.4-1.54 7.22.55 2.68 1.32 3.8 3.46 5.75M258.58 152.03c-3.1-2.04-6.43-1.17-8.26 1.55-1.34 2-1.7 3.65-1.6 6.12.17 4.22 2.8 7.57 5.73 9.2M249.68 154.76c-3.35.4-6.02 3.24-6.02 6.68 0 4.42 1.1 6.22 3.58 9.6 2.5 3.4 10.65 9.6 10.65 16.67 0 4.3-1.2 7.02-4.3 8.42-1.98.9-4.3-.08-5.36-1.03-2.6-2.35-1.56-6.45 1.14-6.94 3.28-.6 3.9 4.57.7 4.23M244.05 159.15c-2.54.2-5.03 2.38-5.03 5.06 0 3.84 1.52 5.62 4.58 9.43 2.64 3.28 10.1 8.94 9.9 14.46-.08 2.08-1.5 4.64-2.88 4.34M238.08 236.12c1.2-2.88 4.28-1.6 4.47 0 .44 3.67-2.78 4.78-5.07 4.18-1.13-.3-1.96-1-2.5-1.94-.6-1.05-.77-2.42-.38-3.73a4.9 4.9 0 0 1 .85-1.65 4.97 4.97 0 0 1 1.28-1.2c.88-.57 1.84-.62 3.34-.62 5.57 0 10.45 6.58 12.1 13.42.53 2.25 1.27 7.28.24 12.04-1.08 5.08-3.28 8.6-5.85 11.26-1.4 1.44-3.3 2.72-5.75 4.12-.76.42-2.77 1.3-4.16 1.7-1.43.42-2.78.45-3.94.1-2.83-.85-4.65-3.5-3.18-6.93 1.15-2.67 5.38-3.98 7.27-.7.15.28.4.9.4 1.55-.02.87-.38 1.93-1 2.33-1.45.9-3.75.65-3.64-1.88M233.75 270.4c1.05.4 1.62.34 2.92-.24.53-.23 1.15-.6 1.86-1 2.55-1.45 5.57-3.73 8.4-9.06a18.8 18.8 0 0 0 1.72-4.47c.27-1.1.46-2.2.5-3.34.07-1.93-.14-3.93-.62-6.23-.8-3.8-1.74-5.85-4.08-9.05-1.15-1.58-2.14-2.54-4.28-2.6m-9.44 30.9a3.9 3.9 0 1 1 6.26 2.35M232.24 261.45c.3-1.78 1.8-3.13 3.62-3.13 2.02 0 3.66 1.68 3.66 3.76a3.8 3.8 0 0 1-1.03 2.62M239.37 261.25c3.34-2.4 6.2-6.95 6.22-12.34 0-4.13-1.65-8.35-3.6-10M244.67 259.4c-1.3 1.95-2.9 4.1-6.24 5.92M254.6 273.68c-.93-2.18-2.77-3.2-5.77-3.5-3-.33-5.57.5-8.2 1.9-5.17 2.8-8.05 5.77-9.97 11.3-.48 1.4-.9 3.53-.83 5.78.1 3.6 1 7.5 1.98 9.4.86 1.66 3.1 8.96 15.33 14 7.15 2.94 18.12 3.62 25.68 3.9 10.4.42 20 .8 25.6 7.68M239.68 275.87c3.28-2.15 9.5-4.96 15.12-2.2 2.08 1.04 3.48 2.3 4.27 4.4 1.42 3.72-.17 7.84-1.78 9.55-.86.9-2.7 2.6-5 2.64-3.77.05-4.67-2.6-4.76-3.18-.45-2.74 1.14-3.84 2-4.13.64-.23 2.75-.17 3.2 1.32.14.5.17 1.36-.23 2M252.7 285.73c.3-1.1.16-2.25-.83-3.34-1-1.1-3.64-2.15-5.88-.9-.76.4-1.7.96-2.55 2.1-.32.4-.86 1.1-1.14 1.58-.67 1.16-.94 2.1-1.08 2.5-2.46 6.98 1.55 14.4 6.57 17.6 4.36 2.8 8.84 3.6 14.37 4.08 2.55.23 4 .28 6.56.4 2.07.1 3.85.06 5.53.04 1.38 0 2.7 0 4.03-.04 2.17-.05 4.43-.1 7.2.1 2.9.2 5.1.3 7.57.7 1.6.27 3.5.53 5.46.97.6.13 1.2.24 1.8.42.4.12.8.25 1.2.37 3.57 1.1 7.03 2.4 9.77 4.17.84.54 1.82 1.06 2.48 1.73.5.5.94.8 1.36 1.2 1.9 1.9 3.87 3.93 4.33 6.7.08.5.08 1.03.08 1.6 0 1.78-1.45 4.22-5.38 5.02M298.64 328.42c-1.05 2.14.14 3.22 1.6 3.4 2.13.24 3.27-1.46 3.42-3 .24-2.5-1.87-4.77-4.38-4.73-2.26.03-4.1 1.5-4.97 3.5-.3.73-.45 1.53-.5 2.37a5.85 5.85 0 0 0 1.43 4.14c1.28 1.5 3.27 2.4 5.4 2.48 4.22.17 7.5-3.78 7.5-7.8 0-7.72-11.43-11.93-15.96-13-5.58-1.34-8.97-1.84-17.92-2.33-3.58-.2-6.2-.1-10.15-.5-3.53-.38-5.37-.55-9-1.4-4.53-1.05-8.76-2.93-12.54-6.36-2.9-2.66-4.58-4.54-5.93-8.17-1.16-3.14-1.7-9.34 1.25-13.93 2.6-4.06 6.22-6.17 10.35-6.77 3.73-.54 7 1.07 8.96 4.78.93 1.8.64 4.8-.1 6.18-.65 1.2-2.5 2.95-4.8 2.98-3.77.05-4.67-2.6-4.77-3.18-.44-2.74 1.15-3.84 2-4.13.64-.23 2.75-.17 3.2 1.32.15.5.18 1.36-.22 2M273.26 152.05c-.1-.15-.22-.33-.35-.52-1.68-2.48-4.67-3.14-6.86-1.5-2.63 2-3.3 5.4-2.58 8.97.44 2.24 1.96 4.1 4.04 5.45M366.75 159.6c-4.03 4.38-8.06 5.77-14.1 5.97-1.87.06-5.46-.6-7.55-2.1-1.34-.94-2.84-2.58-1.9-5.42.64-1.9 3.7-7.2 3.84-10.9.22-5.62-1.94-8.7-5.32-9.9-6.26-2.2-12.97 3.98-17.02 5.33-2.12.7-3.2.8-5.13.8-1.93 0-3.04-.1-5.16-.8-4.03-1.35-10.75-7.54-17-5.33-3.4 1.2-5.55 4.28-5.33 9.9.15 3.7 3.2 9 3.83 10.9.95 2.84-.55 4.47-1.9 5.43-2.08 1.5-5.67 2.15-7.55 2.1-6.02-.2-10.05-1.6-14.08-5.98M297.33 314.4c.8.32.2-.18 5.25 2.06 4.85 2.15 8.3 4.04 11.3 8.8.95 1.5 1.2 3.63 1.2 4.87 0 .8-.1 1.64-.3 2.46M297.66 336.04a7.98 7.98 0 0 0 3.25.82c4.23.17 7.52-3.78 7.52-7.8 0-2.8-1.52-5.16-3.65-7.05M298.57 328.42c-1.02 2.27.44 3.5 1.88 3.67 2.14.24 3.35-1.46 3.5-3 .16-1.68-.74-3.3-2.1-4.15M390.1 154.8c3.2 0 6 3.57 6 7.24 0 4.23-2.24 6.8-3.88 8.77-1.33 1.6-2.77 3-4.47 4.7M386.3 151.4c1.08.52 2.04 1.37 2.77 2.45 1.35 2 1.7 3.66 1.6 6.12-.16 4.23-3.2 7.15-5.92 8.94m-4.78-17.5c.23.2.44.42.64.66 1.86 2.2 2 5.43 1.56 7.22-.67 2.7-1.56 3.86-3.75 5.47m-5.05-14.45c2.64 2 3.42 5.44 2.55 8.98-.63 2.53-2.22 4.05-4.2 5.26m11.12 41.08c.32.93.84 1.25 1.5 1.93 1.42 1.5 3.5 2.78 6.15 3.53 2.44.68 4.64.17 6.32-.88m-163 54.04c1.23-.03 2.46.8 3.27 2.22.16.28.4.88.4 1.54 0 .87-.4 1.8-1.02 2.2-1.43.92-4 .53-3.88-2M241.5 231.3c4.92.92 9.67 6.86 11.22 13.35.54 2.25 1.28 7.28.25 12.04-1.1 5.07-3.28 8.58-5.86 11.25a16.5 16.5 0 0 1-2.1 1.82l-1.07.72M236 258.34c2.03 0 3.8 1.94 3.8 4a3.8 3.8 0 0 1-1.03 2.63M234.64 260.7c2.1 0 4.1 2.04 4.1 4.2a3.9 3.9 0 0 1-1.47 3.06M253.98 239.5c1.94 2.6 3.2 4.83 3.8 7.7m-.06 8.5a17.27 17.27 0 0 1-1.45 4.04c-.8 1.62-2.23 3.43-3.55 4.65M254.28 224.33c1.87 1.46 3 2.97 3.52 4.78M257.86 219.47c-.5 1.7-1.6 3-3.37 4.6m-9.17-17.18l2.16-.58 1.26-.96.83-1.16.7-1.82.28-1.47M240.97 199.3c-.68.17-1.55.42-2.45.85-1.2.58-2.5 1.48-3.53 2.93-1.2 1.7-1.9 4.03-2.32 6.07-.18.9-.4 3.74.17 6.67.42 2.16 1.3 4.17 2.3 5.63.36.53.68.98 1.04 1.34 1.28 1.28 2.48 2.08 4.47 1.68M253.04 189.8c-.35 1.3-1.04 2.9-3.05 2.7M245.68 198.53c-1.94-1.9-6.04-2.4-10.1.2-.54.32-1.06.75-1.58 1.18-.56.48-1 1.02-1.44 1.6-.47.64-1.05 1.72-1.4 2.43-.48 1-.68 1.64-.94 2.65-.75 2.85-.74 5.5-.66 6.26.12.97.2 1.86.37 2.67.54 2.8 1.37 4.78 2.22 6.2.9 1.5 3.14 4.92 7.72 5.37 1.8.18 4.87-.65 4.97-3M363.76 157.07c.3-1.65 2.3-1.97 3.05-1 1.16 1.5.4 4.1-1.95 4.82-.8.24-2.63.14-3.83-1.4-.96-1.25-.9-2.8-.53-4.03.23-.8.87-1.5 1.72-2.14 2.72-2.07 7.1-1.6 8.56 1.9 1.86 4.48-2.2 7.85-5.92 10.4-4.7 3.18-10.06 3.76-14.1 3.72-9.14-.1-16.1-4.48-20.64-6.97-1.05-.58-2.14-.46-2.68.2-.62.75-.6 1.95.25 2.74M365.6 155.52c.98.04 1.24.42 1.53.8 1.16 1.5.3 4.1-2.03 4.83m17.84 51.54c-3.5 3.8-.28 10.3 2.32 11.78.9.7 1.3.33 2 .75"/><path d="M383.12 205.43c-1.14.8-1.55 1.7-1.6 3.25-.02 1.3.2 2.74 1.42 4 1.9 2 5.63 3.7 9.23 3.76 1.96.02 4-.4 6.03-1.75 2.2-1.47 3.34-3.45 3.83-5.4m-20.86 61.8c0 .02 0 1.53-.13 2.5-.38 2.78-.83 4.4-2.1 6.9-1.23 2.46-2.22 3.75-4.17 5.68-1.98 1.95-3.35 2.84-5.83 4.08-2.4 1.2-3.93 1.6-6.56 2.2-2.64.6-4.17.7-6.87.84-2.46.1-3.86 0-6.33-.17-2.64-.18-4.1-.55-6.75-.78-2.18-.2-3.4-.37-5.6-.36-2.24 0-3.53 0-5.74.4-2.07.37-3.24.66-5.18 1.45-2.68 1.08-5.72 2.98-6.37 3.83-.64-.85-3.68-2.75-6.37-3.83-1.94-.8-3.1-1.08-5.17-1.45-2.22-.4-3.5-.4-5.76-.4-2.2-.02-3.42.16-5.6.35-2.63.23-4.1.6-6.74.8-2.47.16-3.87.26-6.34.15-2.7-.12-4.24-.25-6.87-.85-2.64-.6-4.16-.98-6.58-2.2-2.48-1.23-3.84-2.12-5.82-4.07-1.95-1.92-2.94-3.2-4.18-5.67-1.26-2.5-1.7-4.1-2.1-6.9-.12-.96-.12-2.48-.12-2.5V169.34h123.23V271.1h.04z"/><g fill="#c7b37f" stroke="#c7b37f"><path d="M247.94 285.64a2.5 2.5 0 1 1 5 0 2.5 2.5 0 0 1-5 0zm-15.35-17.67c0-1.23.78-2.24 1.76-2.24.97 0 1.76 1 1.76 2.24 0 1.24-.8 2.24-1.77 2.24s-1.76-1-1.76-2.23z"/><path stroke="none" d="M241.3 223.6c0-1.02.78-1.85 1.72-1.85s1.7.82 1.7 1.84c0 1-.76 1.83-1.7 1.83s-1.7-.82-1.7-1.84zm30.64-65.64c-.1-1.02.5-1.92 1.37-2 .87-.1 1.66.65 1.76 1.67.1 1.02-.5 1.92-1.36 2-.87.1-1.65-.65-1.76-1.67z"/></g><g stroke="#c7b37f" stroke-width=".632" stroke-linecap="round"><path d="M239.3 233.95c-.36.16-.56.3-.84.58-.26.27-.32.38-.52.83-.15.33-.2.7-.24 1.2m4.7 26.74c.36-.42.57-.65.9-1.08.28-.36.45-.56.7-.94.2-.35.3-.56.5-.92.28-.5.4-.8.67-1.32m-1.26 13.94c-.58.27-.93.4-1.5.7-.45.23-.68.38-1.1.64a17.4 17.4 0 0 0-1.25.83c-.5.36-.74.6-1.22.98m14.97-37.9c-.32-.32-.5-.5-.82-.84-.34-.34-.53-.54-.9-.85-.35-.3-.58-.44-.95-.72M254.2 224.94c-.5.2-.74.38-1.23.54-.57.2-.95.3-1.5.3M237.44 208.44c.16.58.2.92.42 1.48.27.7.5 1.08.92 1.7.44.67.7 1.03 1.28 1.58.5.5.8.73 1.4 1.1.54.37.9.5 1.47.8m-.98-5.85c.48.26.73.45 1.24.66.45.2.72.28 1.2.4.67.15 1.05.2 1.72.2.73.02.95 0 1.87-.15m7.16-40.65c-.8-.47-1.28-.67-2.04-1.2-.78-.53-1.2-.86-1.87-1.52-.5-.47-.76-.75-1.16-1.3-.37-.48-.5-.8-.83-1.3m7.5-4.56c.25.67.32 1.08.64 1.72.44.87.78 1.32 1.43 2.04.9 1 1.67 1.27 2.74 2.1m1.46-5.93c.25.6.32.97.63 1.54.28.5.47.77.83 1.2.46.58.76.88 1.34 1.33.67.53 1.15.68 1.88 1.12"/></g><path fill="#703d29" d="M333.3 151.62c-.05-1.7-1.72-1.87-2.36-1.87-1.85 0-2.35 1.15-4.65 2.4-2.9 1.54-4.14 1.9-6.7 1.9-2.58 0-3.85-.36-6.74-1.9-2.3-1.25-2.7-2.36-4.54-2.36a2.33 2.33 0 0 0-2.25 2.44s-.02.52.06.86c.03.13.2.1.24.2-.02-.76.13-1.16.5-1.68.5-.66 1.3-.84 1.64-.84 1.85 0 2.54 1.2 4.84 2.43 2.9 1.56 4.13 1.9 6.7 1.92 2.57-.02 3.84-.36 6.73-1.9 2.3-1.25 2.97-2.53 4.8-2.53.65 0 1.1.4 1.3 1.05.14.4.07.67.1.83.02.08.12.07.14.15.07-.3.22-.4.2-1.1z"/></g><g fill="#703d29"><path d="M264.4 294.03c.52-.56.9-.35 1-.6.07-.2-.08-.22-.3-.3-.27-.1-.57-.16-.85-.27-.3-.1-.56-.26-.85-.37-.12-.05-.4-.2-.48.02-.15.4 1.02.36.63 1.4-.07.2-.23.57-.82 1.2l-2.65 2.9c-.06.06-.15.2-.22.18-.06-.02-.05-.2-.05-.3l.05-4.08c0-.78.07-1.35.2-1.7.17-.46.7-.06.83-.37.07-.2 0-.2-.3-.3-.17-.07-.48-.14-1.12-.38-.35-.13-.67-.3-1-.42-.15-.06-.43-.27-.53 0-.03.08.07.2.1.22.37.27.46.44.47.94l.07 7.46c0 .54.07.68.17.72.1.04.18 0 .4-.25l5.25-5.7zM267.5 295.18c.33-1.08.97-.43 1.1-.82.03-.13 0-.17-.32-.27-.58-.2-.96-.26-1.33-.38-.36-.1-.75-.28-1.15-.4-.1-.04-.34-.15-.4.04-.12.4 1.14.44.8 1.48l-1.7 5.47c-.35 1.1-1 .56-1.12.96-.02.06-.03.14.06.17.27.08.73.18 1.17.32.8.25 1.17.4 1.55.53.24.08.34.06.38-.06.12-.37-1.2-.2-.75-1.6l1.7-5.44zm3.7 1.1c.2-.7.5-.6.9-.48 1.03.3 1.36 1.32 1.03 2.45-.2.67-.45 1.3-2.02.83-.3-.1-.68-.2-.6-.5l.7-2.3zm-2.85 4.92c-.43 1.44-1.15.82-1.26 1.2-.08.22.15.24.26.28.52.15 1.05.26 1.6.42.44.13.7.26.88.3.23.08.34.04.37-.07.13-.4-1.03-.24-.67-1.47l.6-1.98c.1-.4.07-.5.62-.33.5.15.67.3.75.88l.33 2.06c.13.75.24 1.57 1.06 1.8.4.13 1.15.08 1.26-.27.02-.1-.02-.18-.1-.2-.1-.04-.23 0-.34-.03-.08-.02-.28-.08-.32-.3-.3-1.65-.7-3.57-.67-3.64.03-.12.36-.13.74-.3.38-.2.8-.53 1.02-1.26.14-.53.42-2.2-1.84-2.87-.7-.2-1.4-.37-2.1-.57-.64-.2-.7-.26-1.2-.4-.1-.04-.23 0-.26.1-.13.4 1.12.32.74 1.6l-1.5 5.04zm8.42 2.47c-.33 1.38-1.37.54-1.48 1-.07.25.1.28.3.32.4.1.77.13 1.47.3.7.17 1.03.3 1.45.4.3.07.5.15.57-.12.07-.33-1.35-.3-1-1.74l1.25-5.25c.14-.57.25-.6.68-.5l.9.22c1.2.24.56 1.45.98 1.55.28.06.27-.42.3-.56l.13-1.1c0-.1.05-.27-.1-.3-.98-.24-1.7-.36-3.2-.73-1.54-.36-2.23-.58-3.2-.8-.16-.05-.2.1-.23.23l-.54 1.5c-.06.13-.18.37.04.43.47.1.52-1.5 1.7-1.2l.88.2c.43.1.52.2.38.75l-1.3 5.4zm12.7-3.24c.42-.64.84-.5.9-.77.02-.2-.13-.2-.35-.24-.3-.05-.6-.06-.9-.1-.3-.07-.6-.17-.9-.23-.12-.03-.42-.12-.47.1-.07.4 1.08.17.87 1.28-.03.2-.13.6-.6 1.32l-2.1 3.3c-.05.08-.12.23-.2.22-.05 0-.07-.18-.1-.27l-.66-4.04c-.13-.75-.17-1.33-.1-1.68.1-.5.7-.2.75-.52.05-.2 0-.2-.35-.26-.17-.03-.48-.04-1.16-.17-.37-.06-.72-.18-1.07-.24-.15-.03-.46-.18-.52.1 0 .08.12.18.15.2.4.2.54.35.63.84l1.37 7.32c.1.52.18.66.3.67.1.03.17-.04.34-.32l4.17-6.52zm.6 6.72c0 .3-.02.4.23.5.6.26 1.08.63 1.73.74 1.4.23 2.54-.66 2.8-2.2.25-1.5-.37-2.12-1.4-2.86-1.3-.94-1.87-1.2-1.74-1.98.12-.8.67-1.15 1.37-1.04 1.83.3 1.62 2.53 1.86 2.57.24.03.3-.1.3-.37l.16-1.6c.02-.28.08-.45-.08-.47-.14-.03-.44.12-.57.1-.32-.06-.7-.6-1.56-.74-1.25-.2-2.26.64-2.5 2-.2 1.23.35 1.8 1.2 2.4 1.56 1.12 2.2 1.38 2.03 2.4-.16.93-.9 1.4-1.72 1.25-1.16-.2-1.64-1.38-1.8-2.57 0-.16 0-.27-.18-.3-.26-.04-.22.32-.2.5l.05 1.66zm15.82-4.46c.33-.7.77-.6.8-.87 0-.2-.15-.17-.37-.2-.3-.02-.6 0-.9 0-.32-.04-.6-.1-.92-.13-.12 0-.43-.07-.45.15-.03.42 1.1.06 1 1.18-.02.2-.07.6-.45 1.38l-1.76 3.5c-.04.1-.1.26-.16.25-.06 0-.1-.17-.13-.26l-1.1-3.95c-.2-.75-.3-1.32-.27-1.68.04-.5.67-.27.7-.6 0-.2-.04-.18-.38-.2-.17-.02-.5 0-1.17-.05-.37-.04-.73-.1-1.08-.14-.16 0-.5-.13-.5.15-.02.1.12.17.15.18.43.17.57.3.7.8l2.14 7.12c.15.52.25.65.36.65.1 0 .17-.05.3-.35l3.5-6.93zM307.58 308.48c0 1.22-1.04 1-1.04 1.47 0 .2.2.15.33.15.3 0 .58-.05.92-.04.37 0 .73.05 1.26.06.14 0 .4 0 .4-.16.02-.56-1.37.24-1.35-2.05l.05-4.05c0-.1.02-.2.1-.2.04 0 .1.07.18.17l5.12 6.25c.07.1.12.17.27.17.13 0 .13-.1.14-.36l.05-6.7c.02-1.25.94-.95.94-1.3 0-.05 0-.17-.2-.17-.1 0-.48.06-1.15.05-.76 0-1.07-.06-1.24-.06-.14 0-.17.1-.17.2-.02.4 1.3.18 1.3 1.27l-.05 3.98c0 .3-.02.44-.1.44-.05 0-.18-.16-.32-.33l-4.27-5.3c-.2-.23-.06-.3-.4-.3-.58-.02-.86.03-1.14.03-.2 0-.4-.05-.6-.06-.13 0-.18.1-.18.2 0 .58 1.2-.2 1.18 2.1l-.04 4.54zm10.4-5.38c.02-1.13.82-.7.83-1.1 0-.14-.05-.17-.37-.17-.6 0-1 .04-1.38.04-.38 0-.8-.06-1.22-.06-.1 0-.36-.03-.36.17 0 .42 1.15.1 1.14 1.18l.02 5.74c0 1.12-.78.8-.78 1.22 0 .06.02.14.1.14.3 0 .76-.04 1.22-.03.84 0 1.23.05 1.63.06.24 0 .33-.06.34-.2 0-.37-1.2.17-1.2-1.3l.05-5.7zm4.52 5.55c0 1.42-1.2.86-1.2 1.33 0 .26.18.25.37.24.43 0 .78-.05 1.5-.06.73 0 1.08.04 1.5.04.32 0 .54.03.53-.26 0-.33-1.37.03-1.38-1.44l-.05-5.4c0-.57.1-.63.54-.64h.92c1.24-.06.9 1.27 1.34 1.26.28 0 .15-.46.13-.6l-.14-1.1c0-.12 0-.3-.17-.3-1 .02-1.73.07-3.3.1-1.57 0-2.3-.04-3.3-.03-.15 0-.15.16-.16.28l-.15 1.57c-.03.16-.1.42.13.42.48 0 .15-1.57 1.36-1.58l.9-.02c.43 0 .54.06.55.63l.05 5.55zm6.25-2.26c-.2 0-.34.03-.35-.1 0-.15.04-.3.1-.44l.65-2.17c.04-.14.08-.16.1-.16.06 0 .02 0 .1.1l1.04 2.07c.06.15.13.28.15.44 0 .12-.14.12-.34.14l-1.44.1zm1.84.5c.27-.03.33.1.76 1 .15.3.24.5.26.77.05.73-.72.66-.7 1 .02.17.16.13.35.12.3-.04.7-.12 1.18-.15.7-.06 1-.03 1.38-.06.3-.04.4-.02.38-.22-.02-.4-.57.1-.98-.7l-3.46-7.06c-.17-.35-.2-.37-.3-.36-.13 0-.17.24-.23.43l-2.33 7.42c-.22.7-.77.66-.75.94.02.15.18.1.33.1.3-.02.62-.1.94-.12.35-.03.67 0 1-.03.24 0 .58.05.56-.2-.03-.32-1.17-.04-1.24-.9-.02-.28.1-.7.15-.96.18-.8.4-.87.58-.88l2.1-.17zm8.3-4.95c-.1-.82-.07-.84 1.22-1 2.06-.28 1.4 1.22 1.9 1.15.25-.03.15-.42.12-.57l-.2-1.17c0-.1-.1-.2-.24-.2-.94.13-1.67.27-2.42.37-1.63.22-2.4.27-2.84.33-.15.02-.22.13-.2.23.05.47 1.2-.07 1.34 1l.73 5.53c.2 1.45-.7.92-.62 1.46 0 .06.08.1.22.1.6-.08 1.03-.2 1.36-.23.47-.06.87-.07 1.27-.12.27-.04.5-.02.47-.25-.04-.32-1.2.13-1.38-1.18l-.23-1.75c-.1-.7-.16-.83.33-.9l.78-.1c1.12-.14 1 1.15 1.33 1.1.26-.03.14-.44.1-.6l-.35-2.1c-.05-.3-.16-.27-.24-.26-.2.03-.1 1.13-1.02 1.25l-.67.1c-.46.05-.47-.04-.53-.54l-.22-1.65zm3.93 2.7c.44 2.4 2.16 3.7 4.3 3.32 3.36-.63 3.47-3.62 3.16-5.26-.47-2.48-2.32-3.7-4.38-3.3-2.52.5-3.57 2.7-3.1 5.26zm1.17-.9c-.3-1.7-.08-3.42 1.7-3.8 1.36-.26 2.9.86 3.38 3.45.36 1.95.06 3.64-1.75 4-1.9.4-3-1.94-3.33-3.65zm8.34-4.16c-.17-.7.16-.78.54-.88 1.06-.25 1.85.47 2.12 1.6.17.7.26 1.36-1.33 1.74-.3.07-.7.17-.77-.12l-.56-2.35zm0 5.67c.35 1.47-.58 1.3-.5 1.66.06.23.27.14.4.1.5-.1 1.02-.28 1.6-.42.43-.1.72-.1.9-.16.24-.05.3-.14.28-.25-.1-.43-1.02.3-1.32-.95l-.48-2c-.1-.4-.18-.48.37-.6.5-.13.72-.08 1.1.38l1.3 1.62c.5.6 1 1.25 1.83 1.05.42-.1 1.04-.52.96-.88-.03-.1-.1-.15-.2-.13-.1.02-.2.1-.3.14-.1.02-.3.07-.43-.1-1.1-1.28-2.4-2.75-2.4-2.82-.04-.1.24-.3.48-.63.24-.36.44-.87.26-1.6-.12-.54-.72-2.13-3-1.58-.7.17-1.4.38-2.1.55-.67.16-.76.13-1.24.25-.13.03-.22.1-.2.23.1.42 1.14-.28 1.46 1.02l1.22 5.1zm8.63-1.92c.35 1.37-.97 1.12-.85 1.57.06.26.24.2.43.15.4-.1.74-.24 1.44-.42s1.04-.22 1.46-.33c.3-.08.52-.1.45-.38-.08-.32-1.32.36-1.7-1.06l-1.34-5.23c-.14-.55-.06-.64.37-.75l.9-.23c1.17-.35 1.17 1.02 1.6.9.26-.06.03-.48-.03-.62l-.4-1.03c-.03-.1-.07-.27-.23-.23-.97.24-1.65.46-3.17.86-1.52.4-2.23.52-3.2.77-.15.04-.1.2-.1.32l.24 1.57c.02.16.02.43.24.37.47-.13-.24-1.56.94-1.87l.87-.22c.42-.1.54-.07.68.48l1.4 5.37zm5.5-7.34c-.3-1.08.58-.88.47-1.27-.03-.14-.1-.15-.4-.06-.6.16-.95.3-1.33.4-.35.1-.77.18-1.17.3-.1.02-.36.05-.3.25.1.4 1.2-.24 1.48.8l1.54 5.53c.3 1.1-.53 1-.42 1.4.02.06.06.13.16.1.27-.07.7-.24 1.14-.36.8-.24 1.2-.3 1.6-.4.23-.07.3-.14.27-.27-.1-.36-1.12.5-1.5-.93l-1.54-5.5zm2.28 2.68c.77 2.3 2.66 3.37 4.7 2.68 3.26-1.08 2.95-4.07 2.42-5.65-.8-2.4-2.8-3.35-4.8-2.66-2.4.84-3.14 3.16-2.32 5.64zm1.04-1.06c-.56-1.65-.57-3.38 1.14-4 1.3-.45 3 .45 3.83 2.95.63 1.88.56 3.6-1.18 4.2-1.82.65-3.25-1.5-3.8-3.15zm7.62-5.42c-.26-.67.05-.8.42-.94 1-.4 1.9.2 2.32 1.3.26.65.44 1.3-1.08 1.9-.3.12-.67.26-.78-.02l-.88-2.24zm.8 5.63c.55 1.4-.4 1.35-.27 1.7.1.23.3.1.4.07.5-.2.98-.44 1.52-.65.42-.17.7-.23.88-.3.23-.1.28-.2.24-.3-.17-.4-.98.46-1.44-.73l-.76-1.92c-.16-.4-.25-.45.28-.65.5-.2.72-.17 1.14.23l1.54 1.42c.56.52 1.16 1.1 1.95.8.4-.17.97-.68.83-1.02-.03-.1-.12-.13-.2-.1-.1.04-.18.15-.28.2-.08.02-.27.1-.43-.05-1.27-1.1-2.76-2.4-2.78-2.46-.05-.1.2-.32.4-.7.18-.37.3-.9.03-1.6-.2-.52-1.02-2-3.2-1.14-.68.26-1.34.57-2 .84-.64.24-.74.23-1.2.4-.12.06-.2.16-.16.27.17.4 1.1-.44 1.6.8l1.92 4.9z"/></g><g fill="#fedf00" transform="matrix(.64 0 0 .64 0 16)"><path fill="#d52b1e" d="M412.66 249.25h82.18v82.02h-82.18z"/><path id="a" fill="#fff" d="M451.2 313.83s-.05 2.93-.85 5.3c-.94 2.7-.95 2.7-1.8 4.03-1.15 1.78-2.56 3.08-3.8 3.9-1.97 1.24-3.96 1.87-5.96 1.7-5.5-.5-8.05-6.44-9.3-11.28-1.3-5.13-5.07-7.92-7.46-6.06-1.4 1.1-1.48 2.9-.3 4.66 1.24 1.87 4.1 2.8 4.1 2.8l-2.94 3.73s-6.3-.8-7.54-7.38c-.46-2.5.75-7.13 4.9-8.52 5.3-1.77 8.68 2 10.3 5.2 2.26 4.38 3.22 12.43 9.44 11.18 3.4-.67 4.98-5.6 4.98-7.85l2.47-2.64 3.65 1.15.1.08z"/><use width="100%" height="100%" xlink:href="#a" transform="matrix(-1 0 0 1 907.52 0)"/><path d="M461.12 278.95l10.76-11.64s1.62-1.3 1.6-3.4l-2.2.35-.5-1.14-.12-1.14 2.98-.63c.05-.48 0-.85.1-1.38.08-.5.2-.76.3-1.24l-3.26.22c.17-.57.13-.87.3-1.4.17-.45.2-.62.52-1.1.6-.1 1.16-.23 1.9-.3.73-.08 1.15-.05 1.88-.1 1.78-3.32 9.2-6.37 14.45-.9 3.8 3.96 3 11.22-1.95 13.14-2.8 1.1-5.05.44-6.86-1.1l1.97-3.88c2.7 1.63 4.97-.4 4.8-2.5-.2-2.65-1.9-4.3-4.34-4.5-2.26-.2-3.87 1.1-4.9 3.1-.63 1.24-.34 2.14-.54 3.5-.23 1.5-.1 2.32-.54 3.82-.32 1.08-1.16 2.43-2.37 3.6L464.1 282.2l-42.94 46.45-3.23-3 43.22-46.72z"/><path fill="#fff" d="M429.5 283.04s2.7 13.37 11.88 33.43c4.67-1.7 7.42-2.8 12.37-2.8 4.94 0 7.7.94 12.36 2.8C475.3 296.4 478 283.04 478 283.04l-24.23-31.18-24.24 31.18z"/><path d="M456.12 262.4l16.82 21.65s-2.24 10.52-9.08 26.35c-2.64-.6-4.9-1.13-7.73-1.32V262.4zm-4.74 0l-16.82 21.65s2.24 10.52 9.08 26.35c2.64-.6 4.9-1.13 7.73-1.32V262.4z"/></g><g fill="#d52b1e"><path fill="#fedf00" d="M322.3 175.52h52.6v52.5h-52.6z"/><path d="M329.67 175.52h7.84v52.5h-7.83zm15.03 0h7.84v52.5h-7.84zm15.03 0h7.84v52.5h-7.84z"/></g><g fill="#d52b1e" stroke="#d52b1e" stroke-width=".513"><path fill="#fedf00" stroke="none" d="M264.3 273.54c.15.95.5 2.57 1.4 4.23.93 1.5.58 1.45 2.72 3.84 1.06 1.2 2.7 2.2 4 2.9 1.28.68 2.24 1.03 4.37 1.58 4.16 1.1 7.08 1.17 10.6 1.03 2.73-.1 4.82-.44 6.55-.67 2.47-.33 4.3-.53 7.12-.65 1.36-.06 2.65-.07 3.93 0 1.54.1 3.06.32 4.68.65 3.48.7 7 2.04 7 2.04l.02-54.82-52.6-.02v37.47s.1 1.83.2 2.44z"/><path d="M270.4 283.15l2.47 1.44 3.38 1.2v-52.17h-5.84zm29.23 2.38v-51.9h-5.85v52.73s4-.5 5.85-.63zm11.67-51.9h-5.83v52.1c1.9.2 3.85.53 5.84 1.06v-53.17zm-23.35 0v53.33c-.06 0-3.9.2-5.87 0v-53.32z"/></g><g transform="matrix(.64 0 0 .64 0 16)"><path fill="#fedf00" d="M585.48 402.4c-.23 1.47-.76 4-2.16 6.6-1.48 2.33-.94 2.27-4.28 6-1.64 1.84-4.2 3.4-6.23 4.5-2 1.08-3.5 1.62-6.83 2.5-6.52 1.7-11.1 1.8-16.57 1.6-4.28-.18-7.55-.7-10.25-1.08-3.86-.5-6.73-.82-11.12-1-2.13-.1-4.15-.1-6.14 0-2.42.13-4.8.5-7.32 1-5.44 1.1-11.03 3.2-11.03 3.2l.05-85.66 82.2-.03v58.55s-.17 2.86-.32 3.8z"/><g id="b"><path fill="#d52b1e" d="M524.62 346.9s-.37.2-.6.3c-.3.32-.44.5-.77.8-.45.4-.77.5-1.25.85-.23.16-.42.2-.6.44-.25.3-.08.62-.25 1-.18.4-.37.58-.65.92-.37.44-.65.6-1.07 1-.4.4-.58.73-1.1 1-.13.07-.2.14-.34.2-.22.06-.35-.02-.57.05-.4.14-.5.57-.78.72.1.2.1.36.22.6.16.3.7 1.2.8 1.42.22.3.28.7.54.78.55.17.87.16 1.33.13.8.18 1.28.16 2.03.47.6.25.86.57 1.47.84.47.2.77.34 1.28.44.4.07.62.13 1 .1.26-.03.38-.13.63-.16.05 0 .08 0 .13 0l-.03.37s0 .02 0 .02v.07h.06l2.05.9a1.72 1.72 0 0 0-.2.37c-.1.32-.1.7-.05.84.63 1.9 1.16 3.08 1.47 3.2.61.23.8.86 1.16 1.5-.13.13-.23.2-.35.3-.6.6-1.15 1.02-1.65 1.82-.75 1.2-1.25 1.2-.32 2.78.56.93.83 1.1 1.54 2.4.37.67.57 1.18.8 1.98.2.75.26 1.2.3 1.97l.97.37.66-.66.63-1.18.02-.9c-.24-.2-.3-.48-.25-.8.07-.36.5-.28.72-.62.27-.46-.35-.73-.67-1.1-.6-.66-1.43-.82-1.63-1.83-.05-.28.08-.43.38-.72.86-.83 1.13-.96 1.97-1.8.24.14.6.2.97.12.28-.05.53.13 1.4.38.6.17.88.08 1.22.03l.38-.1c.05.2.1.42.12.7.06 1.05-.15 3 .16 3.5.13.2.2.32.28.55.1.24.2.4.22.66 0 .7.05 1.14 0 1.88-.04.7-.1 1.04-.22 1.75-.07.45-.16.7-.44 1.06-.28.36-.6.42-.97.7l-.1 1 1.14.46 1.3.3.67-.28c0-.26.04-.4.16-.63.13-.26.23-.45.47-.54.36-.14.76.13.9-.1.17-.24.07-.33.04-.74-.05-.67-.2-1-.3-1.66-.15-1.1-.2-1.7-.14-2.75.03-.6.04-.95.16-1.55.17-.9.48-1.3.68-2.2.23-.97.27-1.6.38-2.46 3.17.44 5.8.4 9.34-.38.17-.04.75-.25.75-.25.8.7 1.72 1.26 2.73 1.62 0 .1 0 .84 0 .96.04.3-.04.48.13.72.1.15.2.24.37.28.26.06.46.02.66-.16.2-.2.17-.45.24-.75.03-.14 0-.56 0-.68.36.05.5.06.87.06s.54 0 .9-.03c0 .08 0 .37.02.46.02.25-.08.44.03.66.1.23.25.36.5.4a.66.66 0 0 0 .53-.1c.3-.17.26-.48.3-.83.03-.12.02-.7 0-.8.22-.06.84-.28 1.04-.37a5.12 5.12 0 0 1-.1.82c-.06.37-.1.58-.24.93-.2.57-.44.86-.75 1.38-.38.63-.57.98-1.03 1.56-.2.27-.36.4-.56.66-.26.33-.35.56-.6.9-.32.44-.5.73-.94 1.07-.7.55-1.15.1-2.1.84l-.2 1.02 1.43.53 1.28.25.45-.25c0-.3.03-.5.22-.75.2-.27.44-.35.78-.4.36-.07.75.03 1.03-.22.35-.3.35-.92.62-1.47.86-1.72 1.62-2.56 3-3.9.62-.6 1.14-.76 1.66-1.44.25-.32.52-.47.53-.87 0-.3-.15-.43-.23-.7-.1-.38-.18-1-.18-1 1.5.74.96.65 1.24 1.4.22.62-.04 1.05.06 1.7.1.75.46 1.1.53 1.87.08.9-.14 1.42-.3 2.3-.16.8-.14 1.3-.48 2-.32.7-.57 1.1-1.16 1.57-.22.18-.38.25-.6.4l-.13 1.04 1.13.38 1.62.43.38-.35c.16-.65-.05-1.62.4-1.7.4-.05.7 0 .8-.3.02-.13.05-.33.08-.62.22-1.9.42-3.65.63-4.5.24-.97.22-1.18.4-1.9.2-.68-.07-.3.42-1.7.73-2.1-.2-2.37-1.06-3.65-.47-.7-.63-.95-.7-1.5-.1-.82.17-1.5.13-2.75-.05-1.32-.03-2.16 0-2.88.1-.05.22-.12.34-.2 1.17-.63 1.63-.82 2.37-2.46a3.43 3.43 0 0 0 .32-1.47c0-.34-.06-.66-.1-1.04-.02-.4-.18-.64-.3-.94-.13-.32-.33-.56-.57-.85-.77-.9-1.78-1.12-2.7-1.46-1.5-.53-2.52-.43-4.14-.56-1.66-.13-2.6-.16-4.27-.06-2 .1-3.13.52-5.13.75-1.9.22-2.97.37-4.9.4-2.26.05-4.42-.45-5.78-.34-2.45.2-2.5.76-6.2 1.07a66.92 66.92 0 0 1-3.83.18l-2.17-.68c.86-.3 1.07-.5 1.47-1.03.27-.37.23-.68.56-1.07.27-.3.44-.62.78-.97a2.2 2.2 0 0 0-.94-.43c-.36-.08-.57-.05-.93 0-.5.05-.78.12-1.22.34-.36.18-.63.36-.85.6 0 0-1.28-.84-2.18-1.23-1.12-.47-1.6-.7-3-.9zm1.97 11.92h.05s-.02.02-.03.03l-.03-.03z"/><g fill="none" stroke="#fedf00" stroke-width=".987" stroke-linecap="round"><path d="M568.77 359.52l-.76.24c-.86.4-1.57.42-2.6.5-2.64.2-4.27-1.06-7-.85-1.4.12-2.02 1.2-3.45 1.56a9.25 9.25 0 0 1-1.7.28l.5-1.03s-1.28.27-2.1.27a7.55 7.55 0 0 1-1.53-.13l1.02-.95s-.82-.14-1.3-.34a3.92 3.92 0 0 1-1.06-.63 20.48 20.48 0 0 0 1.7-.36c1.55-.38 2.03-1.14 3.88-1.32 1.15-.1 3.04-.05 7.65.72 3.04.5 4.4.26 5.54-.26.76-.34 1-1 1.1-1.78.1-.78-.4-1.4-.87-1.8-.12-.12-.44-.35-1.1-.37"/><path fill="#fcd900" d="M524.8 350.6c-.53-.06-.88.02-1.34.3-.48.3-.54.7-.9 1.15.46.1.7.36 1.15.25.36-.1.54-.24.77-.5.32-.37.44-.7.43-1.17l-.1-.02z"/><path d="M536.04 363.8s.26.47.4.8c.25.54.38.87.53 1.46.2.8.12 1.28.24 2.1.03.14.06.26.1.37l-.06 1.13m6.8-6.95s-.22.82-.35 1.34c-.37 1.36-.7 2.1-.96 3.46-.04.23-.08.44-.1.65m-10.86-3.98c.8.18.54 3.36 1.8 4.1M560.12 369.78l.38-.25a8.15 8.15 0 0 0 2.7-1.8M552.38 368.02c3.54-.88 5.9-2.65 7.6-2.87M555.97 363.6c.3 0 .58-.02.83-.06 1.47-.2 1.7.7 2.73 1.26 1.85 1.04 2.1 2.3 4.3 3.36.1.05.22.1.32.15l.84.44"/><path fill="#fcd900" d="M517.7 354.53c.27.07.43.08.7.05.34-.03.5-.23.82-.25.27 0 .47-.03.7.13.13.1.2.2.27.34.07.17.15.28.1.47-.05.28-.3.42-.6.42-.24 0-.44-.07-.55-.28a.47.47 0 0 1-.04-.4c-.27.1-.48.12-.76.02a1.04 1.04 0 0 1-.64-.5z"/></g><path fill="#0065bd" d="M525.13 364.17c-.8-.24-1.97-.83-1.97-.83.33-.25.6-.26.87-.55.4-.42.37-.8.6-1.33.2-.52.17-.96.66-1.34.28-.23.75-.27 1.1-.17.36.1.77.4.86.77.13.56-.16.88-.25 1.45-.07.57-.28.9-.18 1.46.06.38.22.52.35.9 0 0-1.26-.14-2.04-.37zm-1 .95a.63.63 0 1 1 .65.62.63.63 0 0 1-.64-.62zm-1.75-16.5s-.1-.07-.14-.1c-.4-.32-.42-.67-.6-1.12-.18-.44-.26-.7-.32-1.16-.05-.4 0-.64 0-1.05 0-.38.04-.58 0-.95-.04-.38-.03-.6-.2-.94-.1-.17-.4-.33-.32-.4.1-.1.25-.03.42 0 .4.04.63.15.94.4.37.3.52.58.67 1.06.17.54.25.9.4 1.46.1.3.14.47.3.74.15.27.3.38.5.63-.3.33-.44.55-.77.84-.3.27-.56.4-.85.57h-.02zm3.6 10.63l2.23 1.03c1.16-.63 2.48-1.92 3.5-3.92.9-1.72 1.03-2.65 1.37-4.3l-1.8-.6-.34.08c-.56 1.72-.7 2.7-1.62 4.2-.8 1.28-1.7 2.3-2.64 3.03l-.68.48zm4.94 18.12c.36-.5.5-.8.92-1.26.46-.5.8-.7 1.3-1.14.17 0 .35-.02.5.07-.03.54-.06.95-.2 1.54-.1.48-.17.74-.33 1.2-.13.4-.15.65-.38 1-.16.2-.3.3-.48.5-.5-.74-1.33-1.3-1.32-1.9zm33 1.85c.58.2.93.27 1.48.54.6.3.9.57 1.47.94.02.16.1.32.06.5-.53.1-.93.2-1.53.24a8.4 8.4 0 0 1-1.26 0c-.4-.03-.66.02-1.05-.1-.27-.1-.4-.2-.64-.32.57-.7.88-1.64 1.47-1.8zm-9.75-2.04c.57.2.92.27 1.47.54.6.3.9.57 1.47.94.03.16.1.32.07.48-.53.13-.93.2-1.53.26-.5.03-.77.02-1.26 0-.4-.03-.66.02-1.05-.1-.26-.1-.38-.2-.63-.32.57-.7.88-1.64 1.47-1.8zm-17.34 2.13c.57.22.92.28 1.47.55.6.3.9.57 1.47.94.02.15.1.3.06.48-.53.12-.93.2-1.53.25-.5.03-.77.02-1.26 0-.4-.02-.66.02-1.05-.1-.27-.1-.4-.2-.64-.32.58-.7.88-1.63 1.47-1.8zm-8.98-29.8c-.6-.27-1.05-1.04-.66-1.58.15-.22.4-.18.56-.4.2-.27.14-.5.13-.84 0-.37-.15-.57-.22-.94-.07-.4-.14-.64-.13-1.05 0-.64-.04-1.1.34-1.58.24-.32.65-.6.82-.6.15.12-.06.5-.03.8.02.47.12.72.27 1.16.2.56.48.8.7 1.36.22.52.4.8.43 1.37 0 .46-.03.74-.2 1.16-.18.37-.3.58-.62.84-.27.22-.46.32-.8.42a1.15 1.15 0 0 1-.63-.1z"/></g><use width="100%" height="100%" y="36.591" xlink:href="#b"/></g><path fill="none" stroke="#703d29" stroke-width=".51" d="M264.1 175.52h52.6v52.5h-52.6zm58.2 0h52.6v52.5h-52.6zm-58 98.02c.15.95.5 2.57 1.4 4.23.93 1.5.58 1.45 2.72 3.84 1.06 1.2 2.7 2.2 4 2.9 1.28.68 2.24 1.03 4.37 1.58 4.16 1.1 7.08 1.17 10.6 1.03 2.73-.1 4.82-.44 6.55-.67 2.47-.33 4.3-.53 7.12-.65 1.36-.06 2.65-.07 3.93 0 1.54.1 3.06.32 4.68.65 3.48.7 7 2.04 7 2.04l.02-54.82-52.6-.02v37.47s.1 1.83.2 2.44zm110.4 0c-.14.93-.48 2.56-1.38 4.22-.94 1.5-.6 1.45-2.73 3.84-1.07 1.17-2.7 2.18-4 2.88-1.3.7-2.25 1.04-4.38 1.6-4.17 1.1-7.1 1.16-10.6 1.02-2.74-.1-4.83-.45-6.56-.68-2.47-.33-4.3-.53-7.12-.65-1.36-.06-2.65-.07-3.93 0-1.53.08-3.05.32-4.67.65-3.48.7-7.06 2.04-7.06 2.04l.04-54.82 52.6-.02v37.47s-.1 1.82-.2 2.43z"/></svg>