<svg xmlns="http://www.w3.org/2000/svg" width="640" height="480" xmlns:xlink="http://www.w3.org/1999/xlink"><g fill-rule="evenodd"><path d="M0 0h640v480H0z"/><path fill="#090" d="M426.66 0H640v480H426.66z"/><path fill="#bf0000" d="M213.34 0h213.34v480H213.34z"/></g><g fill="#fff" fill-rule="evenodd" stroke="#bd6b00" stroke-width=".5" transform="translate(.961 27.311) scale(1.063)"><path d="M319.5 225.84h8.35c.03 3.16 1.88 6.55 4.48 8.5h-16c2.5-2.28 3.2-4.97 3.17-8.5z"/><path stroke="none" d="M266.7 178.53l4.58 5.04 56.94.1 4.67-5.05-14.57-.18-7.1-4.95-22.87-.1-6.62 5.13H266.7z"/><path d="M290.02 172.74l19.66-.02c2.66-1.4 3.5-5.9 3.48-8.42-.04-7.43-5.23-11-10.45-11.18-.77-.04-1.68-.64-1.88-1.36-.52-1.6-.38-2.64-.95-2.58-.5 0-.35.94-.8 2.45-.24.75-1.1 1.5-1.93 1.54-6.5.32-10.68 5.06-10.5 11.13.1 4.02.56 6.42 3.38 8.44z"/><path stroke="none" d="M257.66 242.83h84.47l-7.56-6.16h-69.35l-7.56 6.16z"/><path d="M296.4 219.7l1.53 4.6h3.5l-2.8-4.6h-2.24zm-1.97 4.6l.9 4.58 4.1.05-1.5-4.62h-3.5zm6.95.06l2.85 4.52h5.83l-4.57-4.57-4.12.06zm-34.44 10.36c3.1-2.88 5.07-5.34 5.1-8.87h7.55c0 1.98.72 3.16 1.8 3.08l7.66-.05-.04-4.52h-5.56v-24.7c-.2-8.72 10.6-13.8 15.03-13.76l-26.28-.04v-.8h55.25l.05.8-26.65.04c7.9.02 15.52 7.5 15.6 13.82v7h-1.04l-.05-6.9c0-6.92-8.7-13.37-15.68-13.17-6.03.17-15.4 5.93-15.3 13.1v2.16l14.32.1-.14 2.48 2.25 1.43 4.5 1.44-.08 3.7 3.22.96.02 3.7 3.85 1.66v3.84l2.44 1.5-.12 3.9 3.32 2.33h-7.84l4.9 5.46h-7.24l-3.6-5.47h-4.75l2.15 5.4-5.1-.03-1.2-5.37h-6.2l.04 5.8h-22.22zm22.17-14.98v4.57h5.33l-1.07-4.56h-4.25z"/><path fill="none" d="M289.4 211.66h3.3v7.6h-3.3zM284.7 219.8h3.24l-.02-5.6c-.04-2.43 2.15-4.88 3.2-4.96 1.15-.05 2.86 2.3 2.9 4.77l.06 5.82h3.43V205.4l-12.8.07v14.33zm25.6 3.34h4v3.13h-4zm-2.38-5.37h4v3.13h-4zm-3.87-5.37h4v3.13h-4zm-3.3-4.52h4V211h-4zM298.08 219.82l4.1.14 7.33 6.5v-3.84l-2.46-1.77v-3.04l-3.6-2.04v-3.27l-3.5-1.17v-4.44l-1.77-1.45-.1 14.37z"/><path d="M315.43 210.35h.98v7.05h-.97z"/><g id="a"><path d="M257.32 186.53c-1.23-1.98-2.7 2.75-7.8 6.27-2.35 1.6-4 5.9-4 8.7-.1 1.95.2 3.88 0 5.75-.15 1.2-1.4 3.82-.54 4.5 2.23 1.65 5.13 5.42 6.47 6.72 1.16 1.02 2.16-5.24 3.03-8.05.94-3 .52-6.6 3.1-9.37 1.84-1.87 6.46-3.72 5.94-4.55l-6.2-9.97z"/><path fill="#bf0000" d="M257.06 201.88a10.1 10.1 0 0 0-1.66-2.6c-.7-.8-1.52-1.45-2.43-1.77-.88-.32-1.78-.75-2.4-1.53a3.65 3.65 0 0 1-.73-1.47c-.12-.54-.12-1.2-.03-1.96-.1.08-.16.17-.27.25-2.36 1.6-4.02 5.9-4.03 8.7a28.5 28.5 0 0 0 0 2.32c.17.48.34.95.6 1.25.32.38.7.63 1.12.8.82.36 1.77.43 2.65.76.9.32 1.85 1.06 2.66 1.94a10.5 10.5 0 0 1 1.75 2.65c.06-.24.15-.6.22-.8.84-2.73.7-5.9 2.56-8.54z"/><path fill="none" d="M249.82 192.4c-.48 3.35 1.4 4.46 3.15 5.1 1.82.66 3.32 2.62 4.1 4.4m-11.77 1.54c.77 2.9 2.8 2.53 4.56 3.18 1.83.65 3.75 2.96 4.52 4.73"/><path d="M255.6 184.48l.94-.6 17.75 29.9-.94.6-17.75-29.9zM257.52 183.3a2.05 2.05 0 1 1-4.1 0 2.05 2.05 0 1 1 4.1 0zm15.18-24.03h7.2v1.65h-7.2zm0 3.13h7.2v13.78h-7.2zm-.44-5l7.98.04c.3-2.7-2.4-5.63-3.97-5.6-1.56.07-4.07 2.95-4 5.55z"/><path fill="#bd6b00" stroke="none" d="M292.62 155.76c-1.52.64-2.7 2.38-3.4 4.38-.73 2-1 4.26-.66 6.1v.02c.12.63.3 1.08.5 1.4.2.33.42.52.68.57.27.05.52-.1.66-.3.14-.23.2-.52.2-.86-.16-1.88-.15-3.73.3-5.4.45-1.68 1.34-3.17 2.97-4.38.3-.23.46-.47.5-.73.04-.25-.1-.47-.28-.62-.37-.3-.95-.4-1.48-.2zm.16.44c.37-.16.84-.07 1.03.1.1.07.1.12.1.2 0 .1-.08.24-.3.42-1.72 1.27-2.67 2.87-3.14 4.62-.47 1.75-.45 3.66-.3 5.56a.93.93 0 0 1-.13.57c-.07.1-.1.14-.2.12-.07-.02-.24-.13-.4-.38-.16-.26-.3-.66-.43-1.25-.32-1.72-.04-3.95.65-5.88.7-1.94 1.8-3.55 3.13-4.1zM295.2 157.73c-1.53.64-2.5 2.3-3.04 4.2-.53 1.88-.62 4.05-.28 5.86.26 1.28.93 1.95 1.6 2.05.32.05.64-.08.83-.34.2-.25.27-.6.17-1.05-.37-1.5-.5-3.37-.25-5.06.27-1.7.94-3.23 2.22-4.14.3-.2.46-.46.5-.72.04-.25-.1-.5-.28-.65-.36-.32-.94-.4-1.47-.17zm.18.44c.37-.16.8-.07 1 .1.1.07.13.12.12.2 0 .1-.1.24-.34.42-1.4 1-2.13 2.65-2.4 4.42-.3 1.78-.1 3.67.27 5.22.1.36 0 .6-.1.72-.08.13-.2.2-.4.16-.38-.06-.98-.56-1.22-1.72-.3-1.73-.2-3.87.3-5.7.5-1.8 1.45-3.28 2.78-3.83z"/><path d="M272.3 187.4h8.04v11.1h-8.03zm.48 17.45h7.75v2.33h-7.75zm-.2 4.1h7.94v8.68h-7.93zm-.55 10.46h8.68v4.86h-8.67zm1.07-16.64h7l1.38-2.3h-9.63l1.25 2.3zm9.43-8.5l.07-6.08h4.8c-1.88 1.56-3.64 3.45-4.87 6.07z"/><path fill="none" d="M273.56 196.74c.05 1.3 1.52.72 1.52.07 0-2 .02-4.16-.06-5.58 0-1.05 2.5-.78 2.48-.14 0 1.7.03 4 .04 6-.02.95 1.6.87 1.6 0-.02-2.22-.02-5.43 0-7.06 0-2.1-5.5-2.05-5.55-.05 0 1.65-.04 4.6-.04 6.77zm0 13.24h5.7v7.1h-5.7z"/><path d="M277.2 212.92h2.02v1.17h-2zm-3.5 0h1.97v1.17h-1.96zM275.67 210.07h1.54v2.9h-1.53zm0 3.97h1.54v3.08h-1.53zM244 138.97c.35 5.57-1.38 8.62-4.33 8.16-.8-3.1 1.04-5.16 4.32-8.16zm-6.48 12.34c-2.62-1.32-.73-11.5.28-15.77.74 5.5 2 13.3-.28 15.78zM238.45 151.8c4.4 1.52 7.9-3.22 9.07-8.72-3.63 5.02-9.55 5.03-9.07 8.7zm-3.34 5.13c-3.44-.9-1.36-11.7-.73-16.03.75 4.46 3.13 14.55.74 16.03zm1.2-.34c.18-3.74 3.9-2.66 6.46-4.65-.42 1.86-2 5.16-6.47 4.64zm-4.23 4.98c-3.4-.92-1.36-12.54-1.55-17.33 1 4.14 4.16 16.2 1.55 17.33zm1.6-.5c2.8.9 6.5-.9 6.78-4.24-2.4 1.64-6.25.4-6.8 4.24zM229.52 166.7c-3.27.27-1.8-9.63-1.8-18.85 1.2 8.62 4.47 16.5 1.8 18.86zM230.65 166.26c2.2 1.1 6.16-.66 7.28-4.4-3.98 1.75-6.64.05-7.28 4.4zm25.63-22.13c-.58 4.83-2.55 7.64-5.5 7.17-.8-3.08 1.58-5.06 5.5-7.17zm-7.8 12.4c4.9.68 6.66-3.07 9.96-7.88-4.62 3.34-10.15 4.04-9.96 7.87zM247.1 155.97c-2.68-3.2-.1-7.23 1.94-10.66-.44 5.1 1.3 7.95-1.95 10.67zm-1.2 5.3c-.3-3.14 5.05-3.84 7.46-5.58-.8 1.8-2.04 6.67-7.45 5.56zM244.8 161.33c-3.7-.42-2.17-6.7.48-10.17-1.12 4.8 1.95 8.15-.5 10.17zM242 166.55c-4.2-1.86-1.5-7.13.08-10.24-.67 4.1 2.7 7.2-.07 10.25zM242.84 166.06c2.2 2.88 6.5-.86 7.38-5.22-3.73 3.1-6.5 2.6-7.38 5.22zm-9.6 20.26c-.43-4.3 2.8-12.08.5-16.24-.3-.57.7-2.1 1.33-1.17 1 1.48 2.04 5.66 2.48 4.12.46-1.68.53-4.65 2-5.23.96-.35 2.3-.57 1.94.93-.37 1.43-1.2 3.42-.3 3.54.54.08 2.04-1.95 3.3-2.9 1.04-.83 2.56.48 1.07 1.74-4.86 4.04-9.57 5.86-12.33 15.22zm-8.73 64.53c-.56-.1-1.34-.3-.63.58 5.68 7 7.32 8.93 15.6 7.94 8.37-1.1 10.36-3.36 16.22-6.65 3.12-1.83 7.7-2.24 11.16-1.1 1.6.53 2.6.56 1.43-.6-1.17-1.16-2.53-2.73-3.96-3.82-3.12-2.4-8.4-3.43-12.72-2.66-6.1.96-11.15 4.85-17.18 6.32-3.16.72-6.64.6-9.93 0zm47.8 12.5c1.06.13 1.73 2.18 2.25.8.88-2.25.26-4.03-.73-3.84-1.17.32-3.15 2.95-1.52 3.05z"/><path stroke="none" d="M220.6 182.92c-1.22-1.27-.86-1.75.93-1.77 1.43-.1 4.25.87 5.32.1 1-.72.6-3.75 1.03-5.14.2-.77.74-2 1.96-.1 3.62 5.82 8.15 12.8 10.08 19.6 1.06 3.84.06 9.8-3.45 13.83.12-3.43-1.16-5.73-2.7-8.6-1.93-3.75-9.07-13.94-13.17-17.9z"/><path d="M235.53 213.44c3.98.02 4.67-5.32 4.67-6.8-1.96.36-5.42 3.63-4.67 6.8zm34.42 51.82c2.83.65 2.8-6.18-.1-9.07 1.27 4.37-2.13 8.38.1 9.06zm-1.1-.06c.2 3.24-7.96-.42-10.05-2.95 4.8 2.05 9.8.36 10.05 2.95zm-3.57-4.63c.3 3.14-7.06.38-9.24-2.07 4.83 1.56 8.92-.52 9.24 2.07zm1.35.44c2.83.65 2.37-6.4-.38-8.83 1.32 4.7-1.85 8.16.38 8.84zm-2.98-4.28c2.83.64 1.2-5.43-.9-7.86.35 4.43-1.05 7.5.9 7.86zm-1.5-.02c.3 3.23-5.43.75-7.65-2.3 4.78 1.55 7.33-.3 7.65 2.3zm-1.56-2.46c1.85-1.33-.12-4.86-3.66-4.65.35 2.13 1.57 5.87 3.65 4.64zm13.94 14.63c.2 3.24-7.96 1.63-10.52-1.82 5.14.97 10.28-.77 10.52 1.82zm-32.36-5.8c.3 3.23-8.6-.32-10.82-3.38 4.78 1.55 10.5.8 10.82 3.37zm5.45 1.38c1.86-1.33-1.93-4.77-4.95-5.58.34 2.13 2.87 6.82 4.95 5.58zm.57 2.24c.2 2.9-9.54 1.3-12.08-1.38 8.37 1.5 11.8-1.12 12.08 1.37zM252.76 268.63c1.08 2.7-8.26 2.04-11.54.47 5.3-.05 10.8-2.35 11.54-.47zM257.13 270.6c1.03 2.42-7.6 2.37-11.82 1.03 5.6-.04 10.8-3.43 11.83-1.03zm6.3 1.3c1.52 2.87-7.6 3.14-10.56 1.73 5.28-.72 9.25-3.98 10.55-1.73zm-10.7-4.9c-2.9 1.83-2.74-3.56-5.04-7.3 3.6 3.3 7 5.56 5.04 7.3zM257.88 268.94c-2.43 2.16-4.38-5.25-6.6-9.4 3.6 3.95 8.85 7.6 6.6 9.4zm6.8 2.06c-2.06 2.4-8.02-7.02-10.2-11.92 3.3 3.82 11.84 9.9 10.2 11.92zm-5.8 7.18c-1.03 3.63-16.2-3.42-17.9-7.08 8.7 4.6 18.1 3.64 17.9 7.08zm-48.73-73.8c-.35-.46-1.37 0-1.12 1.12.24 1.5 2.45 9.2 6.25 11.85 2.7 1.96 16.97 5.1 23.43 6.44 3.57.7 6.54 2.48 8.88 5.3-.97-3.7-1.74-6.43-3-9.8-1.2-2.93-4.4-6.16-7.74-6.33-6.17-.23-14.16-.75-19.97-3.27-3-1.25-4.8-2.94-6.72-5.32zM245.54 234.87c1.95 1.43 4.1-3.7 1.62-8.6-.08 4.7-3.8 6.3-1.62 8.6zM247.4 239.58c2.7.83 3.55-3.94 1.77-7.75.3 4.1-4.23 6.56-1.76 7.75zM249.46 243.36c2.6 1.3 3.58-3.52 1.72-7.1.2 4.57-3.72 5.9-1.72 7.1zM248.4 243.65c-1.04 3.08-7.02-2.65-8.02-5.78 3.7 3.7 8.75 3.28 8 5.78zM245.68 238.94c-1.17 3.08-8.7-4.85-10.35-8.67 3.7 3.7 11.2 6.5 10.35 8.67zM244.2 234.32c-1.18 3.5-9.35-5.83-11.66-9.13 3.9 3.62 12.53 6.58 11.65 9.12zm-.27-3.46c2.88-.56-.16-2.96-3.7-6.85-.15 4.1.52 6.98 3.7 6.86zM239.08 228.53c1.24-1.35-1.2-1.93-4.2-5.3-.45 2.27 2.8 6.44 4.2 5.3zm13.92 15.2c1.57.92 2.65-2.3.7-5.22-.46 3.16-2.14 4.04-.7 5.23zm-34.2-20.35c-3.33 2-8.64-6-10.06-9.28 2.93 3.77 10.7 7.22 10.07 9.28zM221.65 228.04c-1.85 2.05-7.67-3.52-9.7-6.34 3.13 2.7 10.52 3.02 9.7 6.34zM224.82 232.22c-.6 2.8-9.1-3.5-11.1-6.48 3.67 3.46 11.66 3.14 11.1 6.48zM223.52 235.25c-1.3 2.52-8.22-3.73-9.88-7 4.22 3.7 10.95 4.5 9.88 7zm-3.55-12.28c2.18-2.3 1.25-3.38-.34-7-.87 3.72-2.18 5.2.34 7zm2.9 4.34c3.94.18.03-4.63-.9-8.67.34 4.6-1.02 8.24.9 8.68zM225.38 231.13c2.74-.62 1.95-4.5-.15-9.2.44 5.08-2.32 8 .15 9.2zm-.93 7.67c-1.03 3.08-8.83-4.06-10.07-6.76 3.95 3.32 10.77 4.45 10.07 6.76zM229.12 243.6c-1.17 3.1-9.34-3.16-11.84-6.56 4.92 3.87 12.44 3.52 11.84 6.57zM233.88 248.46c-1.3 4.3-9.85-2.56-12.4-5.9 5.44 4.14 13.1 2.85 12.4 5.9zm-8.03-11.03c2.32 1.2 3.26-5.38 1.95-10.03.02 5.07-4.66 8.84-1.95 10.03zM229.8 242.66c2.8.83 1.9-6.27-.47-10.87-.3 4.55-2.36 8.88.48 10.86zm4.96 4.9c3.1.17.97-6.08-1.6-9.6.44 4.6-1 9.07 1.6 9.6zm-5.46 2.67c-.94 1.6-3.23-1.35-7-3.5 3.4.9 7.42 2.03 7 3.5zm-1.78-52.74c2.9-2.16.7-6.18 0-10-.94 3.62-3.4 8.38 0 10zm-.1 5.35c-4.37-.52-3.7-6.17-3.84-9.75 1.3 4.86 4.9 5.68 3.84 9.75zm.7-.73c3.68-.2 3.5-4.42 3.68-8.67-1.87 3.9-4.1 4.52-3.7 8.67zM227.96 207.34c-2.87.23-4.37-2.6-5.02-7 2.72 4.06 5.2 2.8 5.02 7zM229 207c3.68.47 3.1-3.83 2.95-7-1.14 3.02-4.14 3.97-2.96 7zM223.23 205.17c.3 2.8 2.07 7.63 4.93 6.55 1.18-3.45-2.52-4.14-4.93-6.55zM229.04 212.02c-1.28-2.46 2.9-3.7 3.8-6.9.5 4.58.07 7.6-3.8 6.9zm-11.9-29.18c2.3-2.48.26-6.4-.43-10.23-.93 3.64-2.55 8.44.43 10.24zm-.08 4.6c-4.04.42-5.02-7.8-5.43-11.33 1.32 4.87 5.97 7.1 5.43 11.35zm.83-.07c2.84-1.47 2.18-4.65 3.08-7.04-1.92 2.93-3.67 3.35-3.1 7.04zM217.1 192.75c-4.23.36-6.75-8.74-6.88-12.32 1.3 4.86 7.36 7.5 6.87 12.32zm.8-.14c3.97-.9 3.5-3.47 2.9-7.63-1.26 4.2-3.48 3.3-2.9 7.64zM217.04 198c-4.65.8-4.32-6.56-8-11.9 3.18 3.97 8.93 8.96 8 11.9zm1.05-.25c3.5.1 3.84-5.18 3.65-7.32-.8 2.13-4.93 4.16-3.66 7.32zM209.78 192.34c1.74 5.65 4.22 11.32 7.26 10.9 1.46-3.22-2.9-3.63-7.26-10.9zM218.14 202.4c-1.28-2.46 2.9-3.7 3.8-6.9.5 4.58.07 7.6-3.8 6.9zm-7.16-3.6c2.5 5.1 3.6 10.95 7.02 10.1 1.28-3.96-3.77-4.8-7.02-10.1zM218.7 207.93c-1.46-2.7 2.73-3.65 3.76-7.36.55 4.86.03 8.33-3.75 7.36zm7.17-34.48c2.45.66 5.02-2.1 4.13-6.2-2.8.7-4.1 3.23-4.13 6.2zm-7.84-2.06c.2 1.15 1.62 1.25 1.2-.38-.33-1.33-.4-2.33 0-3.4.56-1.36.38-3.67-.03-4.63-.42-1.02-1.8-.43-1.22.37.64.92.68 2.83.24 3.73-.58 1.32-.42 3.07-.2 4.3zm22.87 15.9c-.95 1.4-2.88.55-1.4-1.36 1.2-1.55 2.92-2.82 3.05-4.42.1-2.03 1.3-5.1 2.37-6.14 1.12-1.1 2.4.45 1.2 1.2-1.33.86-2.2 4.44-2.17 5.82-.05 2-2.04 3.45-3.05 4.9zm-2.98-2.23c-.95 1.4-2.46.58-1.6-1.65.72-1.55.8-3.47 1.6-4.6 1.13-1.72 3.03-3.15 4.12-4.2 1.1-1.1 2.04-.03 1.02.92-1.25 1.25-2.6 2.8-3.35 3.97-1.4 2.3-.77 4.1-1.78 5.57zm-15.74-7.2c-.1 1.96 1.47 2.43 1.4-.42-.07-2.98-2.18-5.7-.9-10.23.7-2.22.7-6.28.3-8.44-.37-2.15-1.9-.75-1.3.92.62 1.94-.13 5.65-.62 7.5-1.46 5.45 1.2 8.1 1.12 10.66zm4.32-10.9c-.23 1.82-1.76 1.98-1.32-.57.37-2.08.44-3.64 0-5.32-.6-2.12-.4-5.72.05-7.22.45-1.58 1.95-.66 1.32.58-.7 1.44-.73 4.44-.25 5.83.62 2.07.45 4.8.2 6.7zM210.94 204c.76.9 2.04.3.87-.92-.94-1-.63-1.3-1.2-2.5-.58-1.35-.55-2.1-1.25-3.05-.6-.9-1.53.02-.9.8.76.9.55 1.56 1.02 2.44.88 1.5.67 2.3 1.47 3.23zm20.4 24.6c2.44 1.2 4.3 4.2 4.4 6.65.22 2.8.63 5.18 1.9 7.17-2.02-.56-2.98-3.76-3.27-6.82-.3-3.18-2-4.55-3.03-7zm5.08 5.9c1.7 3.1 4.05 4.3 4.17 6.6.2 2.67.4 2.8 1.12 5.42-2-.53-2.5-.7-3.03-4.68-.34-2.8-2.58-4.78-2.28-7.35z"/><path stroke="none" d="M288.97 263.32c.95 1.8 2.04 4.5 4 4 .04-1.36-2.12-2.3-4-4zm2.94.6c3.85 1.58 7.16 1.2 7.57 3.6-3.6.4-4.9-1.08-7.56-3.6zm-16.05-12.68c2.58 2.12 4.26 4.53 5.04 7.65.8 2.9 1.95 5.22 3.63 7.83-2.74-1.86-4.46-4.4-5.32-7.46-.75-3-1.64-5.26-3.35-8.03zm3.18 0c2.77 2.2 5.38 4.7 6.16 7.83.8 2.9 1.3 5.13 3.17 8.03-2.93-1.87-4.1-4.7-4.95-7.75-.76-3-2.5-5.26-4.4-8.12zm9.14 7.23c-.08-.55.3-1.02.75-1.17a33.43 33.43 0 0 1 2.6-.84c1-.23 1.55.47 1.55.94 0 .77.04 1.42 0 2-.05.73-.2.78-.65.9-.74.1-1.7.24-2.43.74-.6.36-1.16.07-1.46-.56-.2-.5-.3-1.44-.37-2zm10.63 0c.07-.55-.22-1.07-.62-1.2-.78-.34-1.56-.42-2.38-.4-.9 0-1.14.2-1.14.67 0 .77-.04 1.5 0 2.1.04.72.03.78.44.88.66.13 1.78.16 2.45.66.52.36 1.12.07 1.15-.6 0-.52.03-1.54.1-2.1z"/></g><use width="100%" height="100%" x="-600" transform="scale(-1 1)" xlink:href="#a"/><g stroke="none"><path d="M328.54 286.65c.05 1.18.2 2.13.9 3.08-4.1-1.63-9.84-.76-13.78 1.07-1.76.84-3.88-.95-1.82-2.66 2.93-2.37 9.7-1.02 14.7-1.5zm-57.5-.06c.05 1.1-.08 2.12-.5 3.1 4.44-1.84 9.2-.32 13.68 1.5 3.07 1.26 3.32-.94 2.78-1.7-.93-1.36-2.74-2.84-5.03-2.87-1.52-.03-7.38-.08-10.94-.04zm3.74-21.65c-1.24-.54-2.68-.02-3.96 1.33-4.33 4.24-9.4 8.37-13.5 11.58-1.54 1.33-3.1 3.72 3.42 6.1.24.1 5 1.85 8 1.96 1.24-.03 1.24 1.8 1 2.3-.5.97-.14 1.35-1.2 2.3-1.08.9.13 2.1 1 1.3 3.66-3.2 9.62-1.15 15.36.7 1.35.4 3.83.28 3.8-1.6.04-2.02 1.5-3.47 2.42-3.52 2.34.4 13.92.54 17.48.1 2.08-.27 2.2 2.85 3.32 4.08.76.82 3.72 1.03 5.74.14 4-1.86 10.1-1.86 12.58-.08 1.02.77 1.83.14 1.25-.65-.76-1.1-.74-1.6-1.1-2.44-.95-1.9-.2-2.36.78-2.5 11.05-1.43 14.58-5.2 11.2-8.27-4.37-3.84-9.22-7.7-13.4-12.2-1.14-1.2-1.9-1.7-4.26-.7-7.22 3.28-16.4 5.68-25.36 5.85-8.34.08-19.82-3.8-24.58-5.8z"/><path fill="#bd6b00" d="M326.62 265.54c-.58.06-1.2.24-1.66.4-8.92 3.14-17.1 5.33-25.65 5.32-8.33-.02-17.06-2.3-24.9-5.53-.44-.2-.96-.16-1.47-.03-.5.13-1 .36-1.34.68-3.65 3.63-7.6 7.15-11.82 10.35-.64.5-.54 1.73.5 2.15h.03c8.3 2.98 16.42 8.54 39.63 8.32 23.44-.22 31.75-5.64 39.2-8.13.52-.2 1.06-.5 1.3-.97a1.03 1.03 0 0 0 .07-.8c-.1-.3-.3-.56-.63-.85h-.03c-4.22-3.46-8.75-6.2-11.72-10.4-.33-.5-.92-.57-1.5-.5zm.03.44c.5-.05.9.02 1.1.3 3.04 4.3 7.62 7.08 11.8 10.5.3.26.45.5.5.67a.5.5 0 0 1-.02.43c-.15.3-.6.57-1.07.75-7.53 2.52-15.66 7.9-39.03 8.13-23.1.22-31.1-5.3-39.47-8.3-.75-.32-.68-1.17-.4-1.4 4.24-3.2 8.22-6.73 11.87-10.36.25-.25.65-.45 1.1-.57.44-.1.9-.13 1.2 0 7.9 3.24 16.63 5.58 25.04 5.6 8.62 0 16.9-2.2 25.85-5.35.45-.16 1.02-.35 1.53-.4z"/><path d="M269.7 114.56c-.06-1.38 2.08-1.48 1.83.4-.3 2.37 4.46 8.35 4.86 12.04.25 2.47-1.47 4.64-3.17 6-2.08 1.6-5.3 1.38-6.8.45-.9-.73-1.73-3.23-1.05-4.22.24-.34 1.33 3.67 3.73 3.66 3.26-.03 5.9-2.48 6-4.66.17-3.8-5.33-9.8-5.4-13.68zm9.54 9.4c.54-.4 1.4 1.3.8 1.7-.5.34-1.5-1.24-.8-1.7zm1.45-3.42c-.28.13-.82-.06-.66-.3.76-1.08 2.38-2.7 3.56-3.3.36-.16 1 .48.78.8-.7 1-2.42 2.18-3.7 2.8zm12.58-10c.3-.62 2.12-1.33 2.58-1.76.43-.44.63.37.45.75-.3.63-1.86 1.7-2.55 1.73-.37 0-.65-.33-.47-.7zm4.3.2c.4-1.1 1.67-2.78 2.54-3.33.45-.27 1.25-.05 1.1.38-.33.94-1.88 2.58-2.92 3.35-.32.28-.8-.12-.7-.38zm-3.68 2.78c-.26.13-.12.7.13.78.54.18 1.52.2 1.97-.03.64-.4.35-2.85-.52-1.54-.58.8-1 .55-1.58.8zm-7.3 5.62c-1.3-1.03.36-2.46 1.74-1.46 2.68 2.02-4 9.78-7.64 13.4-.66.7-1.25-1.07-.4-1.84 2.6-2.22 5.05-4.86 6.75-7.6.33-.52.64-1.65-.44-2.5zm15.28-6.67c.16-.98-1.6.02-1.62-1.28-.02-.7 1.9-1.18 2.72-.4 1.37 1.4.35 3.73-1.92 3.87-1.9.1-5.05 2.7-4.57 3.24.54.68 5.44 1.13 8.3.68 1.76-.25 1.4 1.33-.42 1.55-1.75.2-3.17 0-4.8.52-1.93.55-2.77 3.13-3.83 4.1-.24.16-.88-.85-.64-1.23.78-1.2 2-3.05 3.36-3.57.85-.35-2.35-.46-3.37-.75-.82-.24-.6-1.27-.28-1.85.4-.9 3.43-3.9 4.65-3.86 1.14.04 2.3-.3 2.4-1.03zm5.08.26c.57-.5.86-1.34 1.45-1.85.34-.32.86.07.77.86-.07.62-.9 1.15-1.47 1.62-.45.34-.98-.4-.74-.63zm6.47-2.3c.84-.1 1.05 1.54.13 1.8-.56.2-1.05-1.7-.13-1.8zm-2.13 5.04c0 1.4.68 1.28 2 1.23 1.28-.05 2.4.03 2.4-1.24 0-1.3-.72-2.46-.93-1.57-.2.83-.33 2.2-.82 1.6-.46-.5-.28-.62-1.07.23-.44.46-.5-.23-.76-.66-.18-.26-.82.2-.82.4zm-9.22 7.16c-.32 1.86-.03 4.46.92 4.5 1.18.03 3.6-4.07 4.76-6.2.7-1.2 1.88-1.4 1.4-.16-.76 1.9-.7 6-.04 7.2.36.65 2.97-.6 3.4-1.5.75-1.7.13-4.77.4-6.66.13-1.23 1.26-1.48 1.2-.34-.1 2.05-.3 5.82-.16 7.53.1.97 2.9 2.42 3.35-.56.24-1.87 1.2-3.72-.04-5.8-.77-1.3 1.14-1.12 2.17.65.72 1.2-.6 3.2-.56 4.73.12 2.37-1.73 3.72-3.07 3.75-1.2.03-1.98-1.44-2.96-1.47-1.1-.06-2.2 1.7-3.1 1.64-3.5-.23-1.64-5.33-2.7-5.4-1.2-.06-2.58 5-4.04 4.82-1.43-.17-2.92-4.13-2.32-5.8.54-1.56 1.56-1.92 1.4-.93zM318.96 114.6c-1.7-1.04.1-3.74.94-2.8 1.6 1.94 3.22 6.5 4.36 6.88.7.24.68-3.38 1.18-5.02.33-1.2 1.8-.82 1.52.74-.1.52-1.92 6.42-1.78 6.65 1.26 2.52 2.5 5.08 3.3 7.8.32 1.16-1.08.37-1.24.13-.9-1.34-2.46-6.45-2.46-6.22-.72 3.6-.9 4.66-1.66 7.72-.23.98-1.67.8-1.35-.93.3-1.4 2.38-8.4 2.26-8.6-1.62-2.85-3.1-5.12-5.07-6.35zM322.03 131.2c-.47-.05-1.2 1.05 1.15 1.5 3.16.56 6.6-.5 7.67-3.6 1.2-3.68 2-7.17 2.65-8.5.8-1.52 1.8-1.4 1.05-3.64-.52-1.6-1.5-1.13-1.7-.26-.56 2.35-2.66 9.95-3.3 11.35-1.25 2.55-3.73 3.56-7.52 3.15zM328.35 119.07c-.34-.72-1.13-.16-1 .63a1.2 1.2 0 0 0 1.26 1.1c.7-.04 2.17 0 2.17-1.14 0-.8-.63-1.48-1.1-.6-.45.82-1.03.73-1.32 0zm.8-3.04c-.25.17-.03 1.07.25 1.06 1.04-.05 2.5-.38 3.28-.92.23-.16.13-.7-.2-.7-1 .04-2.57 0-3.34.55zm8.75 2.26c.75-1.18 2.8-1.3 2.07.37-.53 1.15-5.66 11.05-6.36 12.3-.75 1.43-1.37.73-.83-.37.73-1.42 4.9-11.97 5.13-12.3zM330.18 133.04c-.22-.8-1.44-1.95-1.3.15.24 3.82 5.5 2.6 7.1 1.25 1.44-1.28.18 4.33 2.1 4.92 1.06.34 3.05-1.1 4.03-2.37 2.73-3.53 4.46-8.58 7.07-12.06 1-1.36-.54-2.33-1.15-1.25-2.28 3.8-5.1 11.58-8.18 13.6-2.5 1.6-1.77-2.08-1.86-3.18-.1-.8-1.1-2-2.4-.9-.93.7-2.36 1.3-3.66 1.18-.75-.04-1.4-.03-1.74-1.36zM339.57 125.93c.03-.22-1.1-.3-1.06.8.05.8 1.03 1.03 1.2.92 1.54-1.12-.33-.57-.13-1.72zm-2.24 4.5c-.3.06-.58 1.03.13 1.1.66.03 3.22-.24 3.92-.2.46-.02.63-.9-.35-.85-1.2.06-2.75-.24-3.7-.06zm-61.96-16.67c.4.02 1.52 1.46 1.45 1.9-.05.23-1.2-.02-1.54-.3-.26-.23-.16-1.6.1-1.6zM270 124.2c-1.02.57.16 1.66.92 1.2 2.86-1.85 7.16-3.8 8.06-7.47.28-1.24 1.44-3.15 2.54-3.57 1.06-.4 2.6 1.92 3.6.08.6-1.04 2.65.7 3.15-.43.6-1.34.32-2.1.34-3.38-.03-.85-.68-1.1-1.15.27-.24.6.04 1.24-.16 1.56-.16.25-.63.5-.9.28-.26-.2-.08-.72-.7-.95-.23-.13-.6-.23-.77.08-.72 1.28-1.12 2.48-2.13 1.1-.9-1.16-1.35-3.2-2-.4-.24.97-1.74 2.4-2.62 2.4-1.1 0-.82-2.9-3.23-2.46-1.24.26-1.16 2.64-.97 3.52.3 1.22 3.93.34 3.75 1.14-.62 2.77-4.47 5.4-7.73 7.03zm-22.7 13.22c-.15.46.46 1.72 1.1 1.82.63.04.95-1.36.75-1.82-.15-.34-1.74-.33-1.85 0zm3.33 4.88c-.4-.43-1.6.73-.63 1.55.54.44 2.5 1.07 3.05.15.73-1.18-.72-5.5-.07-6.06.5-.44 2.82 2.88 3.97 3.12 2.7.37 2.05-4.62 4.96-4.28 2 .26 2.2-2.2 1.93-3.76-.22-1.48-2.62-3.62-3.73-4.58-1.45-1.2-2.1.9-1.18 1.58 1.17.94 3.23 2.84 3.56 4.1.16.6-1.43 1.77-2.02 1.45-1.35-.74-2.6-3.9-3.8-4.62-.4-.25-1.38.3-.9 1.3.53 1.05 2.9 2.7 3.04 3.8.12 1.04-1.06 3.27-1.83 3.27-.85 0-3.03-2.7-3.7-3.96-.35-.6-1.52-.54-1.65.3-.2 1.25.2 3.9.5 5.55.22 1.57-.9 1.65-1.5 1.1zm-4.07-8.57c-.34.38.8 1.13 1.02.94.43-.38 2.13-2.3 1.8-2.98-.3-.6-2.62-1.93-3-1.28-.7 1.13 2.2 1.64 1.74 1.97-.22.1-1.02.66-1.56 1.33zm4.17-8.46s.73 2.5 1.32 1.45c.48-.72-1.32-1.45-1.32-1.45zm1.2 3.96c-.28.15-1.03.74-.54 1.06.77.44 2.87.8 2.4-.7-.26-.87 3.18.04 2.34-2.35-.22-.66-1.25-1.6-1.77-1.75-.32-.08-1.43.52-.73.86.5.26 2.02 1.15 1.46 1.74-.65.6-1.1-.28-1.9-.13-.4.07-.13 1.2-.36 1.53-.12.17-.7-.4-.92-.27zm5.47-9.46c-.43.22-1.2 1.4-1.24 1.94-.02.3.3.7.55.58.47-.23 1.17-1.35 1.2-1.86 0-.32-.23-.8-.5-.65zm2.84-.3c-.84-1.04.9-2.56 1.67-.5.48 1.28 5.5 7.9 6.52 10.13.73 1.5-.02 2.14-.92 1.05-2.54-3.24-4.63-7.28-7.26-10.7zm5.15.13c.9-.97 2.7-2.95 2.22-4.05-.38-.95-1.5-.86-1.68-.64-1.08 1.3.77.98.5 1.42-.55 1.04-1.1 1.6-1.38 2.6-.07.25.17.85.33.68zm77.77 3.24c-.64-.52.63-3.04 1.5-2.05 2.36 2.73 3.46 11.62 4.15 18.28 0 0-1.07.9-1.08.75 0-3.55-1.42-14.4-4.57-17zm-53.1-8.66c-.77-1.76 1.15-2.4 1.44-1.16 1.34 5.8 4.52 10.16 6.95 14.1.73 1.23.14 1.96-1.63.83-1.23-.85-2.48-3.92-3.1-4.04-1.08-.2-3.7 5-9.06 3.52-1.38-.4-1.3-4.5-1.32-6.33-.05-.86.9-1.1.92.08.05 1.67 0 5.16 2.15 5.28 1.76.1 5.63-2.38 6.45-4.3.73-2-1.95-5.96-2.78-7.98zM344.6 138.38c.44-1.2 6.12-10.73 6.87-12.84.38-1 2.02 1.74.42 3.22-1.4 1.26-5.54 8.04-6.3 10.4-.36 1.08-1.44.57-1-.78zM354.28 129.28c1.05-3.94 3.6.6 1.35 2.85-3.46 3.38-4.5 9.85-9.98 10.82-1.48.32-4.1-.66-4.86-1.2-.3-.22.2-1.63 1.1-.94 1.35 1.05 4.1 1.3 5.57.1 3.1-3.06 5.65-7.1 6.8-11.62zm-57 12.74c-.26.28-1 .24-1.08.64-.3 1.48 0 2.23-.33 3.65-.3 1.38-1.26 1.43-1.2.32.1-1.45 1.28-3.48.44-3.62-.55-.13-.98-.88-.4-1.25 1.1-.76 1.68-.64 2.43-.4.26.07.33.45.14.67zM296.5 140.1c-1.45 1.26-2.8 1.77-4.12 3.37-.55.66-.53 1.57-.86 2.4-.32.9-1.37 1.07-1.7.9-.54-.37-.46-2.02-1.07-1.13-.5.82-.84 1.94-1.6 1.93-.7-.02-2-1.43-1.33-1.5 2.25-.22 2.22-2.03 3.06-2.14.95-.13 1 1.48 1.6 1.16.45-.25.67-2.13 1.17-2.64 1.52-1.56 2.73-2.38 4.3-3.53.78-.63 1.34.5.55 1.16zm5.28 4.84c-1.16.23-.96 1.72-.62 1.9.56.27 1.43.38 1.75-1.33.17-.7.3 3.5 1.85 1.9.88-1 3.08.16 4-1.07.66-.82.87-1.4.35-2.6-.15-.38-1.05-.2-1 .7.05.75-.53 1.7-1.3 1.53-.36-.07.22-1.85-.15-2.33-.2-.27-.5-.24-.7.04-.3.38.27 2.1-.66 2.3-1.18.28-.57-1.13-1.07-1.4-1.6-.8-1.75.22-2.45.37zm9.05-2.86c.85-.24.58-.24 1.92-1.33.52-.4.62.76.57 1.2-.1.8-1.02.24-1.3.92-.42.9-.25 2.95-.4 3.8-.1.42-.78.38-.84.04-.2-1 .14-2 .1-3.3 0-.43-.63-1.1-.05-1.32zm-5-2.62c-.2.93-.2 1.7-.2 2.32.06.52 1 .2 1 .12-.05-.8.13-1.94-.1-2.25-.14-.17-.65-.37-.7-.2zM299.54 130.2l-1.46 5.58-2.03-3.75v3.85l-4.37-5.2 1.52 5.57-3.93-3.34 2.1 3.8-6.98-4.5 4.42 5.18-5.58-2.75 4 3.37-9.13-3.44 8.82 4.35c3.22-1.58 7.64-2.55 12.56-2.55 4.9 0 9.33.98 12.55 2.56 0 0 .05 0 .06 0l8.74-4.34-9 3.47 3.93-3.4-5.52 2.72 4.38-5.16-6.98 4.5 2.1-3.8-3.93 3.35 1.52-5.56-4.38 5.2.07-3.87-2.03 3.75-1.46-5.6z"/></g></g><path fill="#fff" d="M311.3 294.9c0 .64-.1 1.55-.28 2.74h-.44c0-.8-.04-1.43-.12-1.87a9.26 9.26 0 0 0-.42-1.56 7.26 7.26 0 0 0-.58-1.28c-.2-.36-.54-.84-1-1.44l.88-2.17c.4.53.7.93.87 1.2.2.33.38.74.55 1.22a9.36 9.36 0 0 1 .55 3.2m6.9-4.22c0 .66-.1 1.16-.36 1.5-.25.32-.68.56-1.3.7.2.62.3 1.1.36 1.45.06.34.1.73.1 1.16 0 .28-.03.58-.06.9a22.48 22.48 0 0 1-.16 1.25h-.4a8.24 8.24 0 0 0-.08-1.22 5.53 5.53 0 0 0-.22-.97c-.02-.08-.15-.4-.38-1a10.53 10.53 0 0 0-.67-1.5c-.2-.4-.57-.94-1.07-1.63l.68-2.05c.36.5.68.87.95 1.07.26.2.58.3.95.3.8 0 1.2-.44 1.2-1.32h.42c0 .3 0 .53.02.7 0 .2 0 .42 0 .67m6.36 4.8l-.5 2.14c-.33-.1-.6-.34-.8-.76-.17-.35-.3-.8-.37-1.32a12.42 12.42 0 0 1-.12-1.65c-.43.13-.77.18-1.02.18-.5 0-.9-.13-1.24-.4a1.25 1.25 0 0 1-.48-1c0-.86.22-1.64.67-2.33.46-.7.96-1.04 1.53-1.05.44 0 .74.13.9.37a2 2 0 0 1 .36.93c.03.35.05 1 .05 2 0 .9.07 1.52.22 1.88.1.3.37.63.8 1.03m-1.93-3.54c-.08-.54-.37-.8-.85-.8-.22 0-.4.05-.6.16-.16.12-.25.22-.25.3 0 .3.34.43 1.02.43.22 0 .44-.03.67-.1m8.64 3.02l-.25 2.6c-.5-.36-.98-1-1.4-1.93-.46-.98-.92-2.35-1.38-4.14-.4 1.72-.72 2.98-.97 3.78-.25.8-.5 1.36-.75 1.7-.16.22-.43.44-.8.67l.06-2.48c.46-.64.8-1.12.98-1.46a7.63 7.63 0 0 0 .7-1.73c.18-.67.34-1.57.5-2.68h.46c.3 1.1.57 2 .84 2.67.25.62.54 1.18.88 1.65.24.34.6.8 1.12 1.35"/><path fill="#bf0000" d="M350.82 319.4c.34.4.6.8.73 1.18.13.4.23.94.3 1.65l-.78.07c-.33-.65-.65-1.15-.96-1.5-.22-.3-.6-.7-1.14-1.2a46.04 46.04 0 0 0-1.62-1.5 34.38 34.38 0 0 0-2.12-1.7c-.3-.22-.5-.38-.57-.47-.12-.15-.22-.42-.3-.84a11.2 11.2 0 0 1-.13-1.57l2.7 2.2a44.32 44.32 0 0 1 2.52 2.2c.5.5.97.98 1.38 1.46m-9.55-5.77l-.16 1.98-3.17-.07.24-2.02 3.1.14m8.34 8.86l-7.55 2.3-1.4-1.92 6.54-2c-.3-.4-.53-.7-.7-.85a2.83 2.83 0 0 0-.86-.6 1.42 1.42 0 0 1-.45.97c-.3.27-.65.48-1.1.6a3.38 3.38 0 0 1-1.73.1c-.58-.14-1-.4-1.28-.77-.4-.56-.63-1.3-.66-2.22-.03-1 .24-1.6.83-1.78.76-.23 1.8-.02 3.1.64s2.3 1.46 2.98 2.42l2.26 3.12m-5.8-4.03c-.35-.17-.63-.27-.85-.3a1.14 1.14 0 0 0-.58 0 .7.7 0 0 0-.45.38.5.5 0 0 0 .07.52c.06.1.2.18.38.22.2.02.4 0 .6-.07.17-.05.3-.13.43-.24.14-.13.27-.3.4-.53m-8.1-1.55l-.45 1.96-3.14-.3.48-1.97 3.13.32m7.46 7.65l-1.68.4a5.3 5.3 0 0 1-1.7.1 3.56 3.56 0 0 1-1.52-.5c-.27.5-.76.94-1.46 1.28a7.4 7.4 0 0 1-1.6.55l-1.2.27-1.1-2 1.2-.27c.62-.14 1.05-.26 1.28-.36.23-.1.53-.28.88-.52-.4-.24-.7-.4-.93-.5-.3-.1-.54-.13-.76-.08a.4.4 0 0 0-.2.12.6.6 0 0 0-.14.26l-.52.07c-.47-.9-.58-1.6-.32-2.07.27-.5.9-.86 1.93-1.1 1.06-.23 1.96-.3 2.7-.15.75.12 1.26.42 1.5.88.15.25.2.5.16.78-.03.26-.16.64-.4 1.13.17.07.35.1.56.12a2 2 0 0 0 .57-.04l1.67-.4 1.1 2m-8.03 1.88l-1.64.26c-.9.14-1.66 0-2.25-.42-.65-.47-1.2-1.34-1.68-2.6l-.8-2.17c-.2-.48-.44-.84-.75-1.08-.15-.12-.46-.27-.9-.46l.54-2.1c.6.34 1.07.7 1.4 1.05.38.44.7 1 .97 1.72l.55 1.5c.4 1.06.78 1.77 1.15 2.15.3.3.63.42 1 .36l1.64-.25.77 2.06m-7-7.5l-1.05 1.85-3-.7 1.06-1.88 2.98.7m1.74 8.43l-7.46.67-.45-2.1 6.27-.57a2.32 2.32 0 0 0-.67-.84c-.15-.1-.47-.32-.98-.6l.54-1.94c.7.4 1.2.8 1.52 1.27.32.46.6 1.16.8 2.1l.42 2.02m-5.98.95c-.9-.03-1.64-.1-2.23-.2a10.5 10.5 0 0 1-1.72-.45 5.6 5.6 0 0 1-1.28.38c-.37.05-.92.07-1.65.05l-1.95-.07c-.54 0-.96-.1-1.26-.3-.28-.2-.54-.5-.76-.94a4.12 4.12 0 0 1-1.55.9c-.48.13-1.05.2-1.7.18l-1.7-.06.15-2.12 1.72.06c.84.02 1.56-.1 2.14-.4.77-.37 1.18-.97 1.25-1.78l.78.1c-.02.17-.06.36-.1.57-.02.22-.05.46-.07.72-.02.26.1.5.37.67.27.18.58.28.94.3l1.48.04c.97.03 1.68-.03 2.1-.2.53-.2.8-.58.86-1.16.02-.13.1-.24.22-.33.07-.06.23-.14.46-.24l.48-.2c0 .1 0 .22 0 .4a8.87 8.87 0 0 1 0 .32c-.04.3-.13.66-.3 1.13.3.1.62.2.98.28.37.08.75.14 1.15.2 0-.18-.07-.42-.25-.7s-.26-.48-.26-.58a.52.52 0 0 1 .1-.3c.02-.04.1-.1.3-.24l1.08-.86c.2.34.32.64.38.92.08.26.1.6.07 1l-.23 2.94m-11.32-8.7l-1.9 1.33-1.4-.88-1.4 1.04-1.88-1.13 1.8-1.27 1.5.84 1.45-1.07 1.83 1.12m-2.97 8.1l-7.3-1.18.8-2.06 6.15 1c.05-.35 0-.67-.13-.94-.07-.15-.25-.43-.55-.82l1.63-1.65c.42.53.64 1.04.67 1.55.03.5-.13 1.2-.5 2.14l-.76 1.97m-6.13-.94l-1.58-.38c-.9-.2-1.4-.6-1.52-1.16-.14-.62.14-1.55.84-2.77l1.2-2.1c.26-.46.37-.85.32-1.16-.02-.16-.14-.4-.36-.73l2.26-1.53c.22.5.3.95.26 1.37-.06.5-.28 1.1-.67 1.78l-.82 1.45c-.58 1.02-.88 1.75-.9 2.2 0 .35.17.57.53.66l1.58.37-1.13 2m-3.74-7.9l-2.56 1.07-1.76-1.7 2.6-1.1 1.73 1.72m-1.1 6.62c-.52.63-1.05 1.1-1.56 1.42a4.24 4.24 0 0 1-1.72.58c-.62.08-1.4.04-2.37-.1a14.84 14.84 0 0 1-2.77-.7c-1.7-.6-2.84-1.28-3.43-2.02-.58-.73-.55-1.47.08-2.2a7.02 7.02 0 0 1 1.9-1.6c.82-.45 2.1-.98 3.82-1.57l.4.5c-1.36.52-2.3.92-2.8 1.2-.5.26-.9.58-1.23.95-.4.48-.34 1 .2 1.6.53.58 1.44 1.1 2.73 1.56 1.26.46 2.46.7 3.6.68 1.12 0 1.88-.24 2.27-.7.24-.28.4-.6.48-.92.08-.33.14-.9.16-1.68l2.5-1.5c0 .74-.05 1.25-.12 1.5-.12.48-.45 1.02-.96 1.63l-1.16 1.38"/></svg>