<svg xmlns="http://www.w3.org/2000/svg" width="640" height="480"><defs><clipPath id="a"><path fill-opacity=".67" d="M-79.7 0h682.67v512H-79.7z"/></clipPath></defs><g fill-rule="evenodd" clip-path="url(#a)" transform="translate(74.717) scale(.938)"><path fill="#fff" d="M-120 0h763.27v511.5H-120z"/><path d="M-118.3.62h760.87v216.1H-118.3z"/><path fill="#0061ff" d="M21.3 203.23h505v113.82h-505z"/><path fill="#e20000" d="M642.75 1.75V512H262.03L642.75 1.75zM-118.7 1.75V512h380.73L-118.7 1.75z"/><path fill="#ffd600" d="M440.37 203.34l-76.3-19.36 64.9-48.98-79.72 11.4 41-69.5-70.6 41.02 12.52-80.87-47.84 63.78-19.36-74.03-21.64 76.3-47.84-64.9 13.66 83.13-70.6-43.28 41 69.48L102.1 135l63.78 47.84-79.73 20.5h354.22z"/></g></svg>