<svg xmlns="http://www.w3.org/2000/svg" width="640" height="480" xmlns:xlink="http://www.w3.org/1999/xlink"><path fill="#e41e20" d="M0 0h640v480H0z"/><path id="a" d="M272.1 93.32c-4.68-.08-12.42 1.48-12.25 5.07-13-2.24-14.35 3.13-13.6 7.9 1.25-1.9 2.75-2.92 3.9-3.1 1.74-.3 3.56.26 5.4 1.4 1.86 1.13 3.9 2.97 4.8 4.1-4.58 1.1-8.12.4-11.72-.23-1.77-.3-4.25-1.3-5.73-2.34-1.48-1.04-1.94-2-4.26-4.38-2.73-2.8-5.65-2.02-4.74 2.34 2.1 4.03 5.6 5.83 10.02 6.56 2.13.35 5.3 1.1 8.88 1.1 3.6 0 7.62-.5 9.8-.05-1.3.83-2.8 2.26-5.75 2.83-3 .57-7.57-1.8-10.35-2.43.35 2.34 3.3 4.53 9.12 5.67 9.55 2.08 17.5 3.66 22.74 6.5 5.25 2.86 8.56 6.42 10.92 9.22 4.7 5.55 4.95 9.82 5.25 10.76.97 8.88-2.13 13.88-7.9 15.42-2.87.76-7.98-.68-9.86-2.88-1.88-2.2-3.7-6-3.18-11.9.5-2.34 3.15-8.4.9-9.64-10.44-5.77-23.1-11.6-32.26-15.06-2.5-.95-4.57 2.45-5.37 3.78-15.56-1.9-29.6-12.43-35.9-23.64-4.3-7.64-11.4 0-10.2 7.23 1.9 8.05 8.05 13.87 15.4 18 7.56 4.16 17 8.25 26.56 8.04 5.15.98 5.1 7.64-1.08 8.9-12.08.06-21.7-.24-30.8-9-6.9-6.3-10.8 1.2-8.8 5.45 3.38 13.1 22.1 16.78 41 12.54 7.34-1.23 2.95 6.63.88 6.7-7.9 5.68-22.06 11.22-34.53-.05-5.7-4.37-9.56-.7-7.44 5.6 5.53 16.45 26.7 13 41.22 4.9 3.74-2.1 7.13 2.76 2.58 6.45-18.07 12.62-27.1 12.76-35.25 7.92-10.2-4.03-11.1 7.3-5.03 11 6.74 4.14 23.88 1.04 36.45-6.86 5.4-4 5.63 2.26 2.22 4.74-14.92 12.9-20.8 16.3-36.36 14.2-7.7-.6-7.6 8.9-1.53 12.62 8.28 5.08 24.46-3.36 37.02-13.77 5.28-2.83 6.15 1.8 3.54 7.3-7.66 9.67-14.86 15.37-21.8 18.02-6.94 2.64-13.6 2.22-18.33.6-5.76-1.98-6.48 4-3.3 9.45 1.92 3.28 9.87 4.33 18.45 1.3 8.58-3.06 17.8-10.2 24.12-18.55 5.5-4.82 4.82 1.65 2.3 6.2-12.66 20.03-24.24 27.46-39.5 26.2-6.77-1.15-8.3 4.1-4 8.97 7.58 6.28 17.05 6.08 25.33-.12 7.36-7.1 21.44-22.38 28.83-30.57 5.2-4.15 6.87-.06 5.34 8.37-1.4 4.82-4.87 9.9-14.34 13.62-6.47 3.7-1.6 8.78 3.24 8.88 2.67.05 8.1-3.07 12.24-7.74 5.46-6.15 5.78-10.27 8.8-19.83 2.83-4.66 7.9-2.5 7.9 2.4-2.43 9.57-4.52 11.3-9.44 15.2-4.7 4.43 3.28 5.9 5.97 4.1 7.8-5.26 10.64-12.05 13.24-18.22 1.88-4.46 7.33-2.3 4.8 4.98-6.03 17.4-15.95 24.24-33.3 27.76-1.76.3-2.83 1.35-2.22 3.4 2.33 2.4 4.66 4.6 7 7-10.74 3.13-19.45 4.88-30.2 8.02-5.26-3.46-9.5-6.4-14.78-9.84-1.4-3.25-2.04-8.2-9.8-4.7-5.28-2.45-7.7-1.55-10.63.9 4.23.14 6.07 1.27 7.72 3.2 2.16 5.7 7.14 6.24 12.24 4.62 3.32 2.8 5.08 4.93 8.4 7.74-6.2-.22-10.5-.33-16.68-.5-5.9-6.34-10.6-6-14.82-1.03-3.22.5-4.58.56-6.78 4.47 3.46-1.42 5.64-1.85 7.14-.3 6.27 3.63 10.36 2.82 13.47 0 6.04.37 11.5.68 17.54 1.08-2.22 1.9-5.28 2.9-7.5 4.8-9.08-2.6-13.82.9-15.42 8.3-1.22 3-1.8 6.08-1.26 9.28.88-2.93 2.3-5.45 4.9-7.02 8.1 2.05 11.13-1.25 11.57-6.1 3.9-3.18 9.8-3.88 13.68-7.1 4.56 1.45 6.77 2.36 11.35 3.8 1.63 4.96 5.32 6.92 11.3 5.65 7.14.22 5.88 3.15 6.46 5.5 1.9-3.37 1.85-6.64-2.54-9.6-1.6-4.35-5.14-6.33-9.78-3.82-4.37-1.23-5.52-3.02-9.87-4.25 11.02-3.5 18.83-4.3 29.83-7.8 2.75 2.6 4.94 4.46 7.7 6.78 1.47.87 2.87 1.1 3.73 0 6.9-9.98 9.97-18.77 16.38-25.35 2.45-2.73 5.54-6.4 8.97-7.3 1.73-.44 3.83-.17 5.17 1.3 1.34 1.46 2.4 4.16 1.95 8.2-.64 5.77-2.04 7.6-3.66 11.06-1.62 3.46-3.6 5.6-5.64 8.25-4.07 5.3-9.45 8.38-12.63 10.46-6.37 4.15-9.06 2.33-14 2.07-6.36.7-8.05 3.8-2.84 8.1 4.87 2.53 9.25 2.84 12.8 2.2 3.07-.58 6.64-4.52 9.2-6.64 2.86-3.33 7.6.6 4.37 4.46-5.9 7-11.78 11.62-19.05 11.52-7.64 1.02-6.2 5.32-1.14 7.4 9.12 3.77 17.36-3.28 21.54-7.9 3.23-3.54 5.52-3.68 4.95 1.8-3.2 9.9-7.58 13.7-14.73 14.2-5.8-.53-5.86 3.94-1.62 6.97 9.66 6.68 16.65-4.7 19.92-11.58 2.33-6.2 5.9-3.26 6.27 1.86.05 6.83-3.04 12.4-11.3 19.4 6.32 10.1 13.7 20.34 20.03 30.46l19.2-213.9L320 139c-2-1.85-8.76-9.82-10.52-10.92-.65-.7-1.04-1.18-.1-1.53.92-.35 3.07-.73 4.5-1-4.07-4.07-7.55-5.38-15.26-7.6 1.88-.8 3.7-.35 9.24-.6-2.2-3.13-7.1-7.9-13.44-10.2 4.18-3 5-3.2 9.15-6.67-7.2-.5-13.33-1.88-19.5-3.75-3.9-1.83-9.33-3.38-11.97-3.42zm.68 8.37c3.8 0 6.15 1.3 6.15 2.87 0 1.6-2.35 2.9-6.15 2.9-3.78 0-6.18-1.42-6.18-3.02 0-1.58 2.4-2.76 6.18-2.76z"/><use width="100%" height="100%" xlink:href="#a" transform="matrix(-1 0 0 1 640 0)"/></svg>