<svg xmlns="http://www.w3.org/2000/svg" width="640" height="480"><g fill-rule="evenodd"><path fill="#f00" d="M0 0h640v243.57H0z"/><path d="M0 236.43h640V480H0z"/></g><path fill="#ffec00" fill-rule="evenodd" d="M228.67 148.17c165.22 43.3 59 255.64-71.22 167.26l-8.8 13.55c76.61 54.66 152.56 10.66 173.9-46.36 22.28-58.8-7.53-141.48-92.52-150.03l-1.36 15.57zM169.96 330.83l21.73 10.12-10.16 21.7-21.73-10.13zm148.98-99.48h23.98v23.94h-23.98zm-11.68-38.9l22.34-8.7 8.7 22.32-22.34 8.7zm-25.9-29.18l17.04-16.85 16.87 17-17.03 16.86zm-26.28-39.8l22.43 8.46-8.46 22.4-22.43-8.45zm61.02 146.54l22.27 8.9-8.9 22.23-22.27-8.9zm-69.88 70.06l22.06-9.4 9.4 22.04-22.05 9.4zm-39.5 2.77h23.98v23.94h-23.98zm41.3-115.94l-20.36-15-20.24 14.46 8.03-22.92-20.35-14.96 24.45-.17 8.56-22.54 7.8 22.7 24.7-.24-19.6 15.23 7 23.44z"/><path fill="#fe0" fill-rule="evenodd" d="M336.03 346.38c-1.2.4-6.23 12.4-9.68 18.24 1.8.5 2.56.6 3.63 1.03 13.65 4.8 20.38 9.18 26.2 17.5 2.87 2.8 7.02 2.93 10.18.7 0 0 2.8-1.1 6.43-5.02 2.96-4.52 2.2-8.1-1.4-11.16-10.93-7.95-22.9-13.9-35.37-21.3z"/><path fill-rule="evenodd" d="M365.25 372.84c0 2.4-1.94 4.33-4.33 4.33s-4.34-1.94-4.34-4.33 1.94-4.32 4.34-4.32 4.33 1.93 4.33 4.32zm-21.38-13.67c0 2.4-1.94 4.32-4.33 4.32s-4.33-1.94-4.33-4.33 1.95-4.33 4.34-4.33 4.33 1.94 4.33 4.33zm10.9 6.97c0 2.4-1.94 4.33-4.33 4.33s-4.33-1.94-4.33-4.33 1.94-4.32 4.34-4.32 4.33 1.94 4.33 4.33z"/><path fill="#fe0" fill-rule="evenodd" d="M324.47 363.67c-42.57-24.28-87.3-50.52-129.88-74.8-18.76-11.63-19.7-33.38-7.18-49.87 1.3-2.34 2.84-1.76 3.5-.53 1.48 8.03 5.98 16.33 11.38 21.5 44.7 28.38 87.74 55.8 131.7 85.6-3.43 5.78-6.1 12.33-9.54 18.1z"/><path fill="#ffec00" fill-rule="evenodd" d="M297.17 305.46l17.85 15.98-16 17.83-17.86-16z"/><path fill="none" stroke="#000" stroke-width="3.05" d="M331.54 348.82L206.58 273.3m109.53 58.1l-42.23-27.3m18.2 42.7l-42.74-24.75"/></svg>