<svg xmlns="http://www.w3.org/2000/svg" width="640" height="480"><path fill="#3a7dce" fill-rule="evenodd" d="M0 0h640v480H0z"/><path fill="#fff" d="M184.83 225.33c-2.9-5.9-2.9-5.9-2.9-11.8-1.43 0-1.7.27-2.54.03-.84-.23-1.16 5.45-3.86 4.34-.45-.55 1.94-4.66-.66-6.36-.83-.56.2-3.93-.16-5.4 0 0-3.3 1.75-5.77-4.43-1.22-1.6-2.9 1.5-2.9 1.5s.73 1.88-.58 2.34c-1.85-1.4-3.2-.66-5.55-2.56-2.34-1.9.5-4.08-3.97-5.7 2.9-7.38 2.9-5.9 10.1-8.86-4.32-2.95-4.32-2.95-7.2-7.38-4.34-1.47-5.78-2.95-10.1-5.9-5.8-7.38-8.67-22.14-8.67-32.48 3.65-3.46 8.66 11.8 15.88 16.24l10.1 4.43c5.78 2.95 7.22 5.9 11.55 8.86l13 4.4c5.78 4.44 8.67 10.35 13 11.82 4.7 0 5.6-2.76 7.1-2.93 8.5-.46 12.82-1.58 14.5-4.18 1.72-2.08 5.83 1.2 17.38-3.23l-1.44-5.92s3.07-2.58 7.22-1.47c-.12-2.7-.4-9.88 3.7-13.13-2.48-2.66-.82-4.57-.82-4.57s2.3-2.26 2.57-3.46c-1.2-6.5 1.07-6.6 1.58-8.52.5-1.92-1.96-1.26-1.26-3.9.7-2.64 4.87-3.26 5.43-5.44.57-2.17-1.2-3.26-1.1-3.78.92-2.08.15-6.96 0-8.86 7.77-2.12 10.3-8.58 13-5.9 1.45-8.86 2.9-11.8 11.56-11.8 1.23-2.73-3.15-5.04-1.44-5.9 2.9-.38 5.1-.2 8.5 4.28 1.06 1.4 1.25-2.08 2.33-2.45 1.07-.37 3.67-.37 4.05-2.12.4-1.8 1-4.15 2.44-7.1 1.2-2.4 2.15.92 3.24 5.62 6.1.23 19.85 1.62 25.62 3.23 4.33 1.15 7.22-1.15 11.37-1.6 3.07 3.12 5.95.77 7.58 7.46 2.3 3.6 6.06.32 6.87 1.38 4.83 13.6 21.43 4.43 22.7 4.66 2.1 0 4.7 6.1 6.37 5.94 2.7-.47 1.94-2.36 4.3-1.6-.62 5.12 4.66 11.02 4.66 14.85 0 0 1.3.64 2.48-.5 1.2-1.13 2.28-4.05 3.34-3.98 2.53.37 3.55.7 6.46 1.22 7.83 2.73 11.82 3.35 14.86 4.75 1.4 2.64 2.78 4 5.65 3.5 2.36 1.63.63 3.76 2.03 3.9 2.9-1.48 3.83-3.1 6.72-1.62 2.9 1.48 5.78 4.43 7.22 7.38 0 1.48-1.44 7.38 0 16.24.72 2.95 1.07 5.3 4.17 10.35-.82 5.2 3.9 13.96 3.9 16.17 0 2.95-2.3 4.48-3.74 7.43 5.78 4.43 0 11.8-2.9 16.24 21.67 4.42 11.56 13.27 28.9 8.84-4.34 10.34-2.8 9.5 1.52 19.84-8.66 5.9-.18 7.7-5.95 15.08-.36.47 3.43 6.42 8.75 6.42-1.44 11.8-5.78 7.38-4.33 25.1-11.38-.24-6.78 13.23-14.45 11.8.45 8.44 4.38 9.18 2.9 17.7-5.8 1.5-5.8 1.5-8.67 5.92l-4.34-1.48c-1.44 7.38-4.33 8.86 0 16.24 0 0-5.6.18-7.2 0-.15 2.54 2.47 3.23 2.87 5.9-.2 1.07-8.2 5.72-14.42 5.9-1.63 3.65 4.33 7.53 3.97 9.37-6.77 1.34-9.75 9.83-9.75 9.83s3.47 1.43 2.9 2.95c-1.86-1.37-2.9-1.46-5.8-1.46-1.43.37-4.95-.1-8.32 5.73-3.7 1.24-5.45.8-8.26 4.6-1.25-3.63-3.03.03-5.22 1.43-2.2 1.4-5.13 4.9-5.53 4.75.1-1 1.36-4.7 1.36-4.7l-7.22 1.47-.88.1c-.57.05-.42-4.32-1.78-4.16-1.37.16-5.3 5.5-6.62 5.66-1.33.17-1.75-1.7-2.9-1.53-1.15.15-3.4 5.6-4.2 5.75-.8.15-4.04-3.3-6.8-2.83-14.2 5.12-16.47-10.1-18.68-1.52-2.98-1.62-2.46-.68-5.48.13-1.94.5-2.1-2.6-3.83-2.56-3.43.1-3.25 3.42-5.13 2.43-1.53-6.92-10.78-5.68-11.68-8.63-.73-3.08 4-3.06 5.54-5.15 1.17-3-1.22-4.15 3.53-7.05 6.2-4.3 2.63-5.9 3.72-9.13 1.94-4.66 1.95-5.8.33-9.9 0 0-4.83-13.28-5.78-13.28-2.88-.83-2.88 4.9-7.13 6.46-8.66 2.95-23.95-7.48-26.6-7.48-2.45.05-13.73 2.73-13.3-3.02-1.7 5.6-7.9 1.32-8.28 1.32-5.77 0-3.56 4.56-7.44 4.38-1.76-.6-19.54-1.66-19.54-1.66v2.95l-11.55-5.9-10.1-2.95c-8.66-2.95-4.33-10.33-18.77-5.9V308h-7.22c2.9-17.72 0-8.87-1.44-25.1l-5.78 1.47c-5.77-7.98 8.03-6.45-4.33-11.8 0 0 .22-8.82-2.9-5.9-.63.36 1.45 4.42 1.45 4.42-11.55-1.5-14.44-4.44-14.44-16.25 0 0 9.53 1.4 8.67 0-1.35-2.2-3.1-16.6-2.8-17.57-.13-1.94 8.85-6.83 7.1-11.5 1.12-.4 4.36-.45 4.36-.45"/><path fill="none" stroke="#fff" stroke-width="2.108" d="M574.58 284.3c-.47 1.04-.38 2.08.1 2.82.85-1.28.13-1.87-.1-2.8z" stroke-linecap="round" stroke-linejoin="round"/><path fill="none" stroke="#fff" stroke-width="1.976" d="M203.3 167.76s-2.43-.3-1.9 1.82c.8-1.63 1.84-1.72 1.9-1.82zm.53-4.94c-1.33.05-2.96-.2-2.42 1.92.8-1.63 2.38-1.83 2.43-1.92zm9.12 28.3s2.07-.14 1.53 1.98c-.8-1.63-1.48-1.87-1.53-1.97z" stroke-linejoin="round"/></svg>