<svg xmlns="http://www.w3.org/2000/svg" width="640" height="480"><defs><clipPath id="a"><path fill-opacity=".67" d="M0 0h640v480H0z"/></clipPath></defs><g clip-path="url(#a)"><path fill="#006" d="M-374-16H650v512H-374z"/><path fill="#bd1021" fill-rule="evenodd" d="M-374 240L650 496V-16L-374 240z"/><path fill="#fff" fill-rule="evenodd" d="M650 11.43v457.14L-264.3 240 650 11.43z"/><g stroke="#000"><path fill="#9c3900" fill-rule="evenodd" d="M478 297.4s-6.4-5.23 1.16-13.66c-4.07-3.48-.3-10.17-.3-10.17s-6.96-2.6.3-13.36c-5.23-3.48-2.9-11.33-2.9-11.33s-17.15-6.4-.87-12.5c-13.38 5.82-25.88-7.84-25.88-7.84l-19.46.58c-3.3-16.16-28.97-2.1-9.9-48.5-4.93-.88-10.45-2.33-15.97 1.74-5.54 4.06-21.23 12.78-30.52 4.06s6.1-21.2 6.4-21.5c.28-.3 20.62-10.75 23.52-17.72-.3-5.23-6.68-9.3-.87-20.63 6.7-10.76 47.65-20.93 66.26-24.4 9-4.08 13.07-11.93 13.07-11.93l2.03 7.56s41.26-12.2 43.3-18.02.87 5.23.87 5.23c16.27-1.46 36.9-15.4 39.8-9.02 13.67-2.6 39.82-14.23 39.82-14.23s9-.3 2.6 9.6c4.07 6.38-1.16 11.9-1.45 11.9-.3 0 1.74 6.4-3.5 9.88 1.76 5.52-3.18 9.88-3.18 9.88s2.32 6.7-6.98 10.18c.87 5.8-5.24 6.97-5.24 6.97s.88 6.1-3.2 8.72c0 4.65-4.64 6.97-4.64 6.97s2.9 1.75-1.17 4.65c-4.06 2.9-46.2 28.76-46.2 28.47 0-.3 30.8 5.52 32.84 6.68s25.27 16.57 25.27 16.57l-23.54 29.05s-26.15-2.9-27.3-1.45 5.5 2.04 6.96 4.36c1.45 2.32 3.77 7.85 8.42 7.26 4.65-.58-8.72 8.43-17.43 9.3 0 3.2 11.03 3.5 13.93.87 2.9-2.6-6.97 7.57-8.13 9.02s13.07-2.03 13.07-2.03-2.32 9.58-14.8 12.48c4.93 8.14 2.9 13.37 2.6 13.37s-8.14-8.13-15.7-6.68c2.04 7.84 8.15 15.1 9.9 16.27 1.73 1.16-13.67.87-15.7-3.5s-3.78 10.47 1.74 15.12c-6.38.3-11.9-3.5-11.9-3.5s-3.78 8.73-1.16 13.1c2.6 4.35-9-8.73-9-8.73l-22.1 9.3-4.93-8.42z"/><path fill="#ffc221" fill-rule="evenodd" d="M307.32 280.1c.52 0 32.1-.52 46.58-8.8 7.24 11.4 17.07 19.15 17.07 19.15l4.66-16.56s11.4.5 12.42 3.1c-1.55 3.1-2.07 7.24-2.07 7.24s7.76.52 8.28 1.55c.52 1.03-2.07 9.82-2.07 9.82l33.1 7.76s2.6-12.93 5.18-11.38c2.6 1.55 13.97 17.6 30.02 18.63s17.07-13.46 17.07-13.46l3.62 2.07s6.72-14.48 7.75-14.48 2.6 2.07 11.4 2.07c2.57 3.1 3.6 10.34 3.6 10.34s-9.82 9.84-6.72 17.6 3.63 5.7 3.63 5.7l71.4 17.07s3.63 5.7-2.58 8.8c0 .5-71.93-16.57-71.93-16.57s-6.73 7.77-11.9 6.2-1.55 3.12-1.55 3.12l77.6 6.2s5.7 7.24 1.57 9.3c-5.18.53-83.83-5.16-83.83-5.16s-4.66 9.83-9.83 1.55c-3.6 5.68-7.76-1.56-7.76-1.56s-6.72 5.17-7.76-.52c-5.7 4.14-9.3-2.6-9.3-2.6l-33.13-2.06-2.07 3.1s5.7 1.56-3.1 5.18c-8.8 3.62 52.78 2.07 54.33 2.6 1.56.5-4.13 5.16-4.13 5.16s31.56 2.07 37.26-4.65c5.7-6.73-2.07 8.8-2.07 8.8s24.84-1.04 24.84-2.08-.52 7.77-17.6 6.73c10.35 6.73 23.3 10.87 23.3 10.87s-12.95 3.1-27.96-.52c2.6 6.73 13.98 12.93 13.98 12.93s-8.28 7.25-26.9-10.35c5.16 9.32 1.02 12.94.5 11.9-.5-1.03-9.3-13.96-30-18.62 12.93 8.3 7.24 11.9 7.24 11.9s-6.73-11.9-17.6 0c-4.14-10.86-20.18-17.07-39.84-18.1-6.2-7.24-9.83-5.18-24.32-9.32-8.28-9.3-20.18-19.66-20.18-19.66s.52-13.97 14.5-12.42c1.54 4.66 1.54 3.1 1.54 3.1s15.52-5.68 20.18 2.08c6.73-11.9 16.04-1.78 17.6 2.36 4.45.65 26.9 1.26 26.9 1.26s-2.6-4.66-1.03-4.14c1.56.52 13.98-4.66 13.46-6.2-.52-1.56-1.03-6.74 1.03-6.22 2.06.52-17.6-2.6-28.47 5.7-3.62-3.63-1.03-13.46-1.03-13.46l-32.08-6.73-1.55 8.28s-9.32 1.55-8.8-.5c.52-2.08-2.07 7.23-2.07 7.23s-12.42-3.1-12.42-3.62 3.62-18.63 3.62-18.1c0 .5-10.35 1.02-24.84 11.9-4.14-12.95-36.74-30.02-36.74-30.54z"/><path fill="none" d="M385.98 284.76l-6.73 30.02m12.94-18.63l-2.08 9.83m35.2-2.07l-3.12 9.32m60.55 53.8c-.52 0-16.56 2.08-18.63 1.56-2.07-.5 25.36 8.28 25.36 11.9m-35.7-9.8s-16.05-10.36-18.64-9.33c-2.58 1.04 16.04-.52 17.6-2.07m-32.1-.52s-16.55.52-18.1-1.03 16.04 11.38 19.14 10.35m-33.1-16.57c-.53 0-11.4-4.13-16.05-5.17 4.14 4.14 7.24 9.83 17.6 11.9m2.58-13.44c-.5-1.05-20.7-7.26-20.7-10.36 4.67 1.55 11.4 3.62 17.6 2.07M499.82 321l-2.07 9.3"/><path fill="#ffc221" fill-rule="evenodd" d="M347.7 237.67s-21.75 18.63 0 29.5c1.02-7.25 2.57-8.28 2.57-8.28s18.1 6.7 28.98-9.33c-4.66-6.72-12.94-4.14-12.94-4.14s-17.06 0-18.6-7.76z"/><path fill="none" d="M365.8 245.95l-15 12.94M412 335.8s3.46 3.8.35 8.47m72.45-4.65l-5.7.52m-40.87-3.64l10.35 1.56m17.48-28.16s.3 10.46-8.42 10.17c-8.72-.3-5.82.3-5.82.3M472.77 308.15s3.5 1.16 2.62 3.78c-.88 2.6.86 10.17-9.3 17.43-10.76 2.32-9.6-9-9.6-9M476.55 311.35s6.4-3.78 7.26 2.32c.88 6.1-5.22 17.44-9.58 19.18-4.35 1.74-9.3-.3-8.7-3.2m18.88-15.68s5.8-4.65 7.55 1.45c1.75 6.1-4.65 19.76-7.26 20.05m7.82-20.05s2.9-1.46 4.94.3m-14.23 20.62c-1.16.3-6.1.58-7.85-3.2m-18.3-6.97c-.3 0-6.1.3-6.1.3m28.47 22.66l-.58-9.6-2.32-3.2-4.07 4.08s-.58 9.6-2.33 10.47m2.33-10.76c-.3-.57-3.2-6.1-3.2-6.1l-4.94 6.1s-.58 8.73-2.32 9.6m2.32-9.88c0-.3-2.04-5.8-2.04-5.8s-5.8 3.18-6.4 5.5c-.57 2.33-.86 8.72-2.3 9.3m2.3-10.46s.6-5.23-1.15-5.23c-1.74 0-9.6 7.27-9.88 13.66"/><path fill="#fff" fill-rule="evenodd" d="M348.4 237.82s2.9-2.9 3.78-6.4c.87-3.47-1.16-7.25 2.32-10.45 3.5-3.2 49.4-22.66 53.18-26.44 3.78-3.78 10.75-11.92 11.62-13.66.87-1.74 3.5 8.72-4.36 13.37 8.43-2.33 13.95-4.94 17.44-3.78-3.5 4.94-12.8 13.08-17.15 13.08 10.17-3.78 19.47-6.98 22.1-4.94 2.6 2.03-12.5 12.2-18.6 12.78 10.16-2.6 23.82-6.68 25.56-2.32-5.53 1.74-3.8 3.2-15.12 9.6-1.45 1.15-8.72 1.44-8.72 1.44 8.72-.87 20.63-4.36 21.8 2.03-6.98 2.62-9.6 6.1-15.4 7.56-5.8 1.44-19.18 4.05-27.32 7.25-8.13 3.2-20.05 12.5-20.05 12.5s-25.87.87-25.87.58c0-.3-4.94-11.92-5.23-12.2z"/><path fill="none" d="M360.6 235.8s.3-5.8 2.9-7.85c2.63-2.03 15.7-6.97 18.6-11.33 2.92-4.36-4.35 7.55-3.2 10.75m-13.06-.3s6.4 2.33 4.94 7.27"/><path fill="none" d="M373.4 230.42a4.8 4.8 0 1 1-9.6 0 4.8 4.8 0 0 1 9.6 0z"/><path fill="#fff" fill-rule="evenodd" d="M570.12 220.1l50.27 9.6s5.5-6.4 2.6-9.9c7.56-1.73 5.52-11.6 5.52-11.6s8.72-3.78 1.46-12.5c4.94-4.94-1.17-8.72-1.17-8.72s2.05-8.72-4.35-9.6c1.75-6.96-11.04-9.3-11.04-9.3s-26.43 7.28-45.03 7.86c6.1 6.1-2.32 9.88-2.32 9.88s4.94 3.5 3.5 6.4c-1.47 2.9.86 6.1-5.53 8.13 8.42 3.78-.88 10.17-.88 10.17s9.3 6.4 6.98 9.58z"/><path fill="none" d="M565.17 209.36s44.46 5.23 46.5 5.23 9.87 2.6 11.33 5.22m-55.5-13.1l61.9 1.47m-61.6-2.92s58.7-3.48 62.76-9.6m-61.04-3.18s59-6.4 59.57-5.52m-61.6-1.75s57.24-9 57.82-7.55M404.2 148.33s18 19.76 16.27 33.13M419.3 171s5.8 8.42 8.14 9.3 22.66 2.03 23.83 10.75c1.16 5.52-4.36 3.77-3.5 7.84 1.46 5.22 15.12 11.9 29.94 4.06m-13.64 4.07s12.2 18.02 30.22-1.45m-9.3 7.85s14.8 7.84 27.02-12.5m-15.7 14.23s7.26 6.1 22.38-2.03M539.6 205s22.38 4.64 23.83 6.1m-15.4-11.04c.3 0 15.7.58 15.7.58m-25.3-9.3s26.74-1.75 30.22 3.77m-41.84-12.2s37.5 1.46 39.24 3.5m-30.8 34.86s6.4-1.74 7.26-.87m-21.8 16.55s8.44 7.27 19.2 4.07m-14.54 8.15s9.6 4.35 20.92 1.74m-17.72 5.52s9.6 6.4 15.98 5.23m-20.33-1.44s6.7 4.95 6.98 7.56M514.9 266s2.04 10.47 9.3 14.25m-14.24-9.6s-3.2 13.67 4.94 22.1m-13.36-11.34c0 .3-.58 6.4-.3 7m-52-59.87l15.7-.87s5.8-2.33 1.73-6.1m2.03 3.5c.3 0 14.82 1.15 18.6 5.5 3.78 4.37 8.43 13.1 11.04 14.54 2.62 1.45 3.2-.58 3.2-.58m-6.4-2.33s-7.84 13.36-1.74 17.43m-2.62-2.62s-6.97 9.3-1.45 13.96m-1.45-1.17s-5.52 9 1.16 15.1m-3.6-39c-.38.37-6.75 4.87-9 3.75m2.25 10.5s2.62 2.6 4.87 2.24M479 273.77l4.2 2.87m-3.64 7.56l3.63 2.2m-69.27-144.7s7.64 3.97 13.75 0c6.12-3.97 35.45-18.94 43.1-21.4 7.63-2.43 11.9-16.5 13.43-22.6m-5.8 16.5l42.8-12.53s7.02-5.8 7.32-16.5m-3.06 11.6s42.78-4.26 42.78-20.15m-6.72 11s44.92-12.23 49.2-16.8M436.23 151.48s27.2-14.06 31.48-15.58c4.28-1.53 14.06-13.75-.6-13.75M449.38 156.98c.3 0 22.3-14.36 29.64-16.2 3.97-5.5 1.83-11.3-4.9-10.08M480.85 137.12c.6-.3 11.9-.6 7.94 8.25-5.8 4.28-30.87 16.8-30.87 16.8m17.1-34.52l47.68-15.9s3.98-8.24-1.82-9.47m39.73-14.36c0 .3 6.12 3.67 2.45 9.17-6.72 3.96-38.5 11.6-38.5 11.6m84.33-25.67l-44.9 12.53m41.54-2.44l-39.1 11.9m35.74-2.12l-34.53 10.4m28.1-.63c-.9 0-25.66 7.64-25.66 7.64m20.18 0l-15.9 6.43m11.92 2.14c-.6 0-13.75 5.8-13.75 5.8m9.78 1.23l-12.22 5.8m-8.87 7.34s1.54.6 1.24 2.44m-32.1 14.36s5.2 1.83.3 6.72c-2.43 3.36-9.46 2.45-13.74 8.56m46.76-83.72s6.42 1.52 1.53 9.77c-12.84 4.9-38.8 12.84-38.8 12.84s-1.23 2.15-4.6 3.98c-3.36 1.83-40.33 12.22-40.33 12.22m84.34-29.33s7.03 3.05 0 8.25c-7.94 4.58-35.74 13.14-35.74 13.14s-.3 2.44-1.53 3.36c-1.23.9-37.9 13.14-37.9 13.14M567.64 115.12s7.33 2.14.9 8.25c-7.63 4.58-32.07 12.83-32.07 12.83s-2.45 3.06-6.42 4.28c-3.97 1.22-29.33 11.6-29.33 11.6m68.75-28.7c2.14.9 7.94 1.82.92 7.32-8.26 3.67-28.43 11.6-28.43 11.6l-1.84 3.37-32.08 13.75m63.25-27.8s3.05 3.66-3.67 7.94c-7.33 3.97-23.22 10.1-23.22 10.1m23.24-9.5s3.36 2.15-.92 5.2c-4.9 2.45-24.14 12.54-24.14 12.54l-12.53 8.25M523.63 112.06c0 .3 5.2 4.58 3.36 9.47 4.57 3.37 3.66 7.03 3.66 7.03s6.4 3.67 5.5 8.86c6.4 1.53 6.1 5.2 6.1 5.2l-2.13 3.36s6.4-.3.92 7.94c3.36 1.84 1.83 3.98 1.83 3.98m-1.84-3.67c-.92 0-22.3 7.94-27.8 12.83M489.4 144.76s6.43-.3 5.5 6.72c7.35-2.45 5.82 4.58 5.82 4.58s8.55-3.36 7.03 7.34c5.5-1.23 4.58 4.27 4.58 4.27s4.9-.3 4.9 2.45c3.35-3.06 7.02-1.53 7.02-1.53s2.44-3.37 5.8-2.45m-34.83-14.98c0 .6-28.73 16.5-28.73 16.5m34.2-11.3L479 169.8m29.05-6.7c0 .3-18.95 11.3-18.95 11.3m23.23-7.03s-13.44 11-16.5 10.4m21.08-7.04s-7.63 5.8-14.05 8.56m22-11s2.45 3.04-12.83 11"/></g></g></svg>