<svg xmlns="http://www.w3.org/2000/svg" width="640" height="480"><path fill="#006" d="M0 0h640v480H0z"/><path fill="#fff" d="M0 0v27.95L307.04 250h38.64v-27.95L38.65 0H0zm345.68 0v27.95L38.65 250H0v-27.95L307.04 0h38.64zM144.03 0v250h57.62V0h-57.62zM0 83.33v83.34h345.68V83.33H0z"/><path fill="#c00" d="M0 100v50h345.68v-50H0zM155.56 0v250h34.57V0h-34.57zM0 250l115.23-83.33H141L25.76 250H0zM0 0l115.23 83.33H89.46L0 18.63V0zm204.7 83.33L319.9 0h25.76L230.46 83.33H204.7zM345.7 250l-115.24-83.33h25.76l89.47 64.7V250z"/><path fill="#fff" fill-rule="evenodd" d="M299.76 392.52l-43.65 3.8 6.02 43.4-30.2-31.76-30.17 31.76 6-43.4-43.64-3.8 37.7-22.36-24.25-36.5 40.97 15.52 13.42-41.7 13.42 41.7 40.97-15.52-24.25 36.5m224.45 62.37L476 416.67l17.8 6.75 5.82-18.13 5.83 18.12 17.8-6.74-10.53 15.85 16.37 9.72-18.98 1.65 2.62 18.85-13.12-13.8-13.1 13.8 2.6-18.85-18.96-1.65m16.37-291.82L476 134.58l17.8 6.74 5.82-18.12 5.83 18.12 17.8-6.74-10.53 15.85 16.37 9.72-18.98 1.65 2.62 18.85-13.12-13.8-13.1 13.8 2.6-18.85-18.96-1.65m-89.42 104.88l-10.54-15.85 17.8 6.74 5.84-18.12 5.82 18.12 17.8-6.74-10.53 15.85 16.37 9.72-18.96 1.65 2.62 18.85-13.12-13.8-13.12 13.8 2.62-18.85-18.97-1.65m216.22-37.93l-10.57-15.85 17.82 6.74 5.78-18.1 5.86 18.1 17.76-6.73-10.5 15.85 16.35 9.72-18.96 1.65 2.6 18.84-13.1-13.8-13.13 13.8 2.62-18.85-18.93-1.66m-22.26 73.4l-10.37 6.42 2.9-11.84-9.3-7.86 12.16-.9 4.6-11.3 4.62 11.3 12.16.9-9.3 7.86 2.9 11.84"/></svg>