<svg xmlns="http://www.w3.org/2000/svg" width="640" height="480"><defs><clipPath id="a"><path fill-opacity=".67" d="M-85.33 0h682.67v512H-85.33z"/></clipPath></defs><g fill-rule="evenodd" clip-path="url(#a)" transform="translate(80) scale(.938)"><path fill="#009" d="M-85.33 0h682.67v512H-85.33V0z"/><path fill="#FC0" d="M56.5 0l510.97 512.27V.27L56.5 0z"/><path fill="#FFF" d="M439.88 481.53l-27.86-20.36-28.64 20.26 10.83-33.24-28.17-20.54 34.9.07 10.87-33.2 10.72 33.25 34.92.1-27.94 20.65 10.38 33zm81.3 10.35l-34.93-.1-10.72-33.24-10.86 33.2-34.9-.08 28.17 20.53-10.83 33.23 28.65-20.26 27.87 20.36-10.38-33 27.94-20.65zm-155.54-107.2L393.58 364l-34.92-.1-10.73-33.22-10.86 33.2-34.9-.08 28.17 20.53-10.83 33.24 28.65-20.26 27.87 20.37-10.38-33zm-64.36-64.46l27.94-20.66-34.92-.1-10.72-33.23-10.86 33.2-34.9-.08 28.17 20.53-10.84 33.24 28.64-20.26 27.86 20.36-10.38-33zm-63.64-63.64l27.94-20.66-34.92-.1-10.73-33.23-10.86 33.18-34.9-.07 28.17 20.54-10.83 33.24 28.65-20.26 27.87 20.36-10.38-33zM173.2 192.3l27.93-20.65-34.92-.1-10.7-33.23-10.87 33.2-34.9-.08 28.17 20.53-10.83 33.24 28.64-20.25 27.87 20.36-10.38-33zm-63.65-63.9l27.94-20.66-34.93-.1L91.84 74.4l-10.86 33.2-34.9-.07 28.17 20.53-10.83 33.24 28.64-20.26 27.87 20.36-10.38-33zm-64-64L73.5 43.74l-34.93-.1L27.84 10.4 16.98 43.6l-34.9-.07 28.17 20.53L-.58 97.3l28.64-20.26L55.93 97.4l-10.38-33zm-64-64L9.5-20.26l-34.93-.1-10.73-33.23-10.86 33.2-34.9-.07L-53.76.06-64.58 33.3l28.64-20.26L-8.07 33.4-18.45.4z"/></g></svg>