<svg xmlns="http://www.w3.org/2000/svg" width="640" height="480" xmlns:xlink="http://www.w3.org/1999/xlink"><path fill="#00267f" d="M0 0h640v480H0z"/><path fill="#ffc726" d="M213.33 0h213.34v480H213.33z"/><path id="a" d="M319.77 135.53c-6.93 18.9-14 38.58-29.12 53.65 4.7-1.55 12.9-2.93 18.2-2.8v79.52l-22.47 3.33c-.8-.08-1.06-1.33-1.06-3.04-2.16-24.7-8-45.45-14.72-66.9-.48-2.95-9-14.15-2.43-12.17.8.1 9.57 3.68 8.2 1.97-11.96-12.37-29.43-21.28-46.4-23.92-1.48-.37-2.36.38-1.03 2.1 22.5 34.65 41.34 75.53 41.18 124.04 8.74 0 29.94-5.18 38.72-5.18v56.1h11.06l2.54-156.68z"/><use width="100%" height="100%" xlink:href="#a" transform="matrix(-1 0 0 1 639.54 0)"/></svg>