<svg xmlns="http://www.w3.org/2000/svg" width="640" height="480"><path fill="#cf142b" d="M0 0h640v480H0z"/><path fill="#00247d" d="M0 0h320v160H0z"/><path fill="#fff" d="M0 0v17.9L284.22 160H320v-17.9L35.78 0H0zm320 0v17.9L35.78 160H0v-17.9L284.22 0H320zM133.33 0v160h53.34V0h-53.34zM0 53.33v53.34h320V53.33H0z"/><path fill="#cf142b" d="M0 64v32h320V64H0zM144 0v160h32V0h-32zM0 160l106.67-53.33h23.85L23.85 160H0zM0 0l106.67 53.33H82.82L0 11.93V0zm189.48 53.33L296.15 0H320L213.33 53.33h-23.85zM320 160l-106.67-53.33h23.85l82.82 41.4V160z"/><path fill="#fff" d="M553.83 148.26v135.5c0 36.2-72.36 47.97-72.36 47.97s-72.36-11.76-72.36-47.96v-135.5h144.73z"/><path fill="#2f8f22" d="M553.83 283.77c0 36.2-72.36 47.96-72.36 47.96s-72.36-11.76-72.36-47.96c0 0 0-2.9 1.48-4.57 0 0-.8 6.02 3.83 10.57 0 0-3.62-6.42-.07-12.73 0 0-1.3 8.12 3.75 12.78 0 0-2.8-6.63.36-14.03 0 0-1.56 12.1 3.95 14.5 0 0 1.5-6.95-.7-11.4 0 0 3.8 1.52 3.6 11.6 0 0 1.2-1.48 1.5-8.76 0 0 .17 8.33 3.04 10.26 0 0 .88-.85-.32-4.63s.52-5.1.8-5.02c0 0-.63 4.18 2.88 7.32 0 0-1.52-6.56.6-7.44 0 0-.45 5.55 3.94 6.8 0 0 .32-1.62-.64-3.43 0 0-.84-2.14-.2-3.78 0 0 1.4 5.03 3.3 5.88 0 0-1.15-2.95-.07-5.88 0 0 .24 4.2 4 5.92 0 0-2.48-3.25-1.5-6.8l24.1 1.17 12.48.6 37.45-2.65 6.46-5.55s2.56 3.54-1.47 9.13c0 0 4-.72 5.27-6.95 0 0 1.63 3.45-.6 7.28 0 0 4.43-4.43 5.06-9.45 0 0 1.72 4.87-2.47 10.1 0 0 3.74-1.25 5.33-6.8 0 0 1.28 3.35-2.35 8.07 0 0 6.78-3.6 6.58-11.04 0 0 2.83 4.1-.4 9.73 0 0 3.47-3.1 3.8-7.72 0 0 1.9 2.1-.17 7.84 0 0 4.22-3.98 4.86-8.3 0 0 .9 4-2.7 9.02 0 0 2.46-.6 4.8-5.5 0 0 .65 1.92-1.5 5.46 0 0 2.3-.4 3.86-4.82 0 0 .28 2.65-.4 5.02 0 0 1.8-1.16 2.2-6.2 0 0 1 1.66 1.02 3.7 0 2.06 0 .7 0 .7z"/><path fill="#d40000" stroke="#000" stroke-width=".532" d="M516.57 205.44s-2.52.42-5.75-.56c-3.22-1-4.53-.6-5.53 0 0 0 1.3-2.6-1.9-4.65 0 0 1.05 2.62-.4 3.85 0 0-.63.6-1.4-.3 0 0-1.1-1.15-2.28-2.04 0 0 2.7-.94 2.22-3.7-.5-2.75-1.98-3.1-2.77-3.45 0 0 .27 1.23 0 2.08 0 0-2.96-1.65 1.05-3.98 4-2.34 3.27-3.7 2.55-4.9-.72-1.17-2.25-2.48-3-2.94 0 0 .8 1.24.65 2.3-.14 1.07-1.96 1.76-1.6-.1.36-1.88-.02-1.56-.06-3.55 0 0 3.57 1.22 4.97-2.26 0 0 1.37-3.6-3.13-5.4 0 0 1.1 1.48.55 2.58 0 0-.95 1.8-2.1.34s-1.84-1.75-1.72-3.48c0 0 4.08.57 2.97-3.88 0 0-.66 2.96-5.96-1.02 0 0 3.44-3.54 2.1-6.4 0 0-.4-1.3-4.16-.54 0 0 3.25-2.05 1.88-3.8 0 0-.7-1.16-3.73.37 0 0 1.17-2.02-1.8-4.22 0 0-2 1.05-3.05 2 0 0-2.03-2.56-3.33-3.58 0 0-2.35.9-2.95 3.6 0 0-1.1-1.3-3.6-1.92 0 0-1.18 2.2.37 4.14 0 0-1.15-.04-3.27-.96 0 0-2.4-1.15-2.05.92.36 2.07.54 2.54 1.02 3.5 0 0-5.42-1.25-5.2 1.67.17 2.03.93 3.78 2.6 5.25 0 0-3.03 3.96-5.62.98 0 0-.9.97 1.04 3.5 0 0 1.92 2.13.33 3.48 0 0-2.14 1.7-3.17-1.6 0 0-3.45 3.43.62 6.06 0 0 2.6 1.5 5.28-.8 0 0-.82 6.6-3.37 5.32 0 0-1.54-1.12 1.2-2.47 0 0-3.96-.5-4.6 3.34 0 0-.5 3.06 2.97 4.17 0 0 2.67.97-.1 3.04 0 0-1.95 1.5-.68 3.7 0 0 1.53 2.44-2.36 2.68 0 0-2.1-.02-2.87-.3 0 0-.85 1.58-.26 3.4 0 0-1.92-1.45-6.33.15-4.4 1.6-4.07.47-4.42.95-.36.5-1.22 2.1-1.22 2.1s2.3 2.83 2.35 2.77c.04-.06-.44 3.22-.44 3.22l1.14.54 9.07-4.03 9.2-4.8 7.42.45 4.7 1.12 6.16.45 4.42-2.37h6.4l7.04 3.5 8.02 4.8 4.2.74 3.2-.17v-6.5l-1.56-2.36zM443.5 213.04s3.5 1.8 4.98-.38c0 0 1.9-3.65-2.3-4.9 0 0 2.3-2.76-.16-5.3 0 0-1.28-1.35-3.53-.35 0 0-.93-1.92-3.12-1.86 0 0-1.9-.03-2.57 2.08 0 0-2.62-1.1-4.08.48 0 0-2.43 2.72.95 4.86l2.43.22 2.4-1.1 2.67.76s-.7 2.7 2.33 5.5z" stroke-linejoin="round"/><path fill="#64b4d1" stroke="#000" stroke-width=".399" d="M521.83 206.63c4.23-.4 5.72 3.17 5.72 3.17 2.22 5.2-2.5 7.97-2.5 7.97.37 1.16.4 2.7.4 2.7 6.63.8 5.47 8.24 5.47 8.24l-2.2-1.8c-3.82-1.5-7.77 1.77-10.6 7.23-2.83 5.47-1.47 8.05-1 14.52.5 6.47 11 10.33 11 10.33s-4.97 12.83-8.2 21.07c-3.23 8.25-9.97 4.83-11.93 3.1-1.96-1.75-2.45-.78-3.44 0-.98.76 4.43 4.98-5.42 8.97-9.85 3.98-11.56 7.03-13.2 8.04-1.63 1-8.45.32-9.13-.53-.66-.84-.27-.84-2.82-2.4-2.55-1.58-6.86-2.94-11.56-5.24-4.7-2.3-4.6-5.23-4.55-5.84.04-.6 1.64-5.5-3.87-1.6-5.5 3.9-10.2-1.86-10.2-1.86-1.08-1.42-5.66-13.7-5.66-13.7-1.24-4.6-3.67-9.94-3.67-9.94.12-.04-.24.56 3.83-1.77 4.06-2.34 5.88-6.22 7.3-10.06 1.4-3.84.03-10.4-.5-11.74-.5-1.33-3.54-7.4-7.3-8.7-3.74-1.26-6.26 1.9-6.26 1.9s-1.15-7.44 5.46-8.24c0 0 .04-1.53.4-2.7 0 0-4.7-2.77-2.5-7.97 0 0 1.5-3.57 5.73-3.18l-1.02 1.94s-1.05 10.6 14.5 3.5c15.52-7.12 15.06-8.45 23.9-3.98l6.47-.12s9.33-4.32 12.32-2.46c2.98 1.85 13.74 7.88 13.74 7.88s10.4 3.9 12.44-3.3l-1.15-3.46z"/><path fill="#fff" stroke="#00247d" stroke-width=".532" stroke-miterlimit="10" d="M475.08 252.65s-.54-3.26-1.1-5.37c0 0-1.16-3.3.8-5.63l2.45-2.8s1.5-2.05 3.4-2.33c0 0 1.87-.05 2.04-.44.18-.38 2.24-3.76 7.12 0 0 0 1.55-2.5 3.94-2.9 0 0 2.58-.8 3.83 1.13 0 0 2.9-2.2 5.4 1.36 0 0 3.45-1.94 5.96 1.9 0 0 3.4-1.65 5.5 1.9 2.1 3.54 1.68 5 1.68 5l1.56 5.62 5.5 6.8-12.8 4.82h-5.73l-11.5 3.07-20.38 1.57-5.68-6.7 8-7z"/><path fill="#d40000" stroke="#000" stroke-width=".532" d="M457.84 286.55s-3.05.18-4.6.96c-1.56.8-2.76 1.64-4.55 2.8 0 0-.85 1.1-4.38.42 0 0-6.1-1.46-6.1 3.3 0 0-7.3.6-4.3 7 0 0 2.03 5 6.2 1.45 0 0-2.68 3.86 2.53 5.37 0 0 3.7.9 4.78-2.9 0 0 .6-1.5-.84-3.37 0 0 1.8-.36 3.04-2.3 0 0-3.82 4.84.36 6.6 0 0 5.26 1.3 5.56-4.18 0 0-.42-2.55 1.6-3.45 0 0 4.2-.97 6.12-5.64 0 0-6.03-3.2-5.44-6.05zm-12.32-48.1s-4.7-2.18-6.94 0c0 0-3.1-1.94-6.38 0 0 0-3.1 2.02-5.26 4.26 0 0-1.5 1.3-.96 5.4 0 0 .8 2.88.32 4.33 0 0-1.04-.2-3.1 2.25 0 0-2.64 3.05-4.95.36 0 0 .7 3.74 5.06 3.14 0 0-2.1 1.65-.27 5.9 0 0 1.36 3.03-.8 6.8 0 0 3.8-1.52 3.63-5.98 0 0-.32-3.02.8-5.15 0 0-1.12 1.94 1.48 6.07 0 0 2 2.98.36 6.07 0 0 3.74-1.38 3.38-5.92-.35-4.54-2.63-2.65-1.15-6.84 0 0 .36 2.15 1.47 3.23 1.12 1.08 2.56 2.9 1.96 5.9 0 0 2.23-2.77 1.7-5.63-.5-2.85-1.06-3.72-1.06-3.72l7.05-4 3.5-6.35.17-10.13z" stroke-linejoin="round"/><path fill="none" stroke="#000" stroke-width=".532" stroke-miterlimit="10" d="M434.8 256.37s-2.9-.2-3.4-2.45m-5.1-1.5s1.02-.03 1.93.9c0 0 .7 1.04 1.7.92"/><path d="M439.1 247.8s-1.5 0-2.35-.72c0 0-.88-.6-1.4.36 0 0-.8 1.37.68 1.97 0 0 1.84.94-1.07 2.8 0 0 3.47-1.26 2.07-2.95 0 0-1.52-1.08-.96-1.48 0 0 .16-.33.76.08.6.4 1.8.24 2.27-.04z"/><path fill="#784421" stroke="#000" stroke-width=".399" d="M484.88 256.1l1.78-.6L475 215.2l-.42.12z"/><path d="M446.06 300.66s-2.75-1.55-5.03.26c0 0 .24-1 1.97-1.45 0 0 .94-2.65 3.58-2.4 0 0-1.08 1.28-2.52 2.37 0 0 1.52.15 2 1.22z"/><path fill="#64b4d1" stroke="#00247d" stroke-width=".399" stroke-miterlimit="2.613" d="M436.37 307.05s-4.37-2.74-2-7.35c0 0 .68-1.33 2-1.06 0 0 2.72.84.6 4.62 0 0-1.08 2.44-.6 3.8zm8.85 4.35s-6.22-2.84-4.3-7.66c0 0 .58-1.63 1.96-1.5 0 0 2.4.1 1.92 3.3 0 0-.72 3.14.42 5.86z"/><path d="M443.9 293.4s-1.87 1.37-2.63 2.3c0 0-.76-.95-1.75-1.52 0 0 1.15-.15 1.76.36 0 0 .95-.92 2.63-1.15z"/><path fill="#64b4d1" stroke="#00247d" stroke-width=".399" stroke-miterlimit="2.613" d="M449.44 310.2s4.87-1.24 3.97-6.28c0 0-.47-2.2-2.53-1.9 0 0-2.48.63-.87 3.83 0 0 .96 2.3-.56 4.34z"/><path fill="#f5ce00" stroke="#000" stroke-width=".532" stroke-miterlimit="2.613" d="M471.46 203.65s3.14.96 4.84 1.65c0 0 4.55 2.05 10.32 0 0 0 3.9-1.54 4.43-1.66l-3 4.56-.14 2.35 1.88 2.74s-1.12.45-4.47-1.6c0 0-3.7-2.87-8.13 0 0 0-2.42 1.64-4.45 1.6l2.87-3.2-1.12-2.9-3.02-3.56z"/><path fill="#fff" d="M451.32 304.17s.18-.24-.03-.34c0 0-.22-.1-.37.2 0 0-.5.8-.08 1.9 0 0 .4.78.2 1.58 0 0-.02.23.16.26 0 0 .2-.06.22-.22 0 0 .24-.78-.17-1.55 0 0-.5-1.2.07-1.83z"/><path fill="#d40000" stroke="#000" stroke-width=".532" d="M518.84 213.04s-3.5 1.8-4.97-.38c0 0-1.92-3.65 2.28-4.9 0 0-2.28-2.76.17-5.3 0 0 1.28-1.35 3.53-.35 0 0 .92-1.92 3.1-1.86 0 0 1.92-.03 2.58 2.08 0 0 2.63-1.1 4.1.48 0 0 2.42 2.72-.96 4.86l-2.43.22-2.4-1.1-2.67.76s.7 2.7-2.33 5.5z" stroke-linejoin="round"/><path fill="#f5ce00" stroke="#000" stroke-width=".532" stroke-miterlimit="2.613" d="M491.05 210.2s-.1.73-.8.8c0 0-.76.26-1.2-.68 0 0-.04-.2-.06-.3-.06-.45-.2-1.7 1.15-2.73 0 0 2.2-1.82 6.44.38 0 0 3.34 1.6 5.65 2.97 0 0 5.98 3.22 6.7 3.46 0 0 2.63 1.34 6.66 1.5 0 0 5.5.4 7.84-3.46 0 0 1.78-2.94 0-4.8 0 0-.7-.85-1.9-.7-.5.07-1.04.3-1.56.9 0 0-.86 1.26.14 2.2 0 0 1.3.78 1.75-.9 0 0 .02-.12.06.03.02.1.32 1.38-.37 2.47 0 0-3.32 5.02-12.45-.2l-12.03-6.74s-6.04-3.1-9.65 1.75c0 0-2.9 4.02.84 6.65 0 0 2.8 1.67 4.54-.98 0 0 1.46-2.62-.84-3.76 0 0-2-.95-2.8 1.06-.8 2 1.55 2.54 1.77 1.1 0 0 .06-.33.12 0z"/><path fill="#e4cb5e" stroke="#000" stroke-width=".399" stroke-miterlimit="2.613" d="M443.3 230.94v-7.54c0-.6.02-1.1.9-1.8.9-.74 1.87-1.88 3.24 1.38 0 0 2.7-2.84 3.6-3.26 0 0 1.55-1.33 2.62.6 0 0 1.44-2.17 2.58-2.7 0 0 2.7-1.76 2.8 3.5l2.1-1.95s1.62-1.32 3.4.5c0 0 3.06 2.94 3.48 3.8 0 0 .67.9.73 2.34 0 0 0 1.64.83 2.54 0 0 .95.85 1.88 1.03 0 0 2.18.06 2.96 2.1 0 0 .36-.35 1.43 9.48v17.9l-12.08 14.43-19.38-5.55-7.72-3.2-1.74-5.67 7.48-4.82 4.07-10.98-1.33-7.72-1.85-4.4z"/><path fill="#784421" stroke="#000" stroke-width=".399" d="M496.7 240.45l.93-1.37 2.2-1.7s3.34 8.8 3.5 10.72v2.73s5.02 1.28 5.9 9l-4.15 7.64-6.5-3.62-1.87-1.37v-22.04z"/><path fill="#fff" d="M435.16 300.8s.24-.32.07-.45c0 0-.1-.15-.4.2 0 0-1.3 1.48-.26 3.75 0 0 .12.33.33.22 0 0 .18-.1.02-.36 0 0-.94-1.87.24-3.36z"/><path fill="none" stroke="#000" stroke-width=".532" stroke-miterlimit="10" d="M454.75 299.3s.2-.67-.28-1.4c0 0-.32-.52-.2-1.2"/><path fill="none" stroke="#000" stroke-width=".399" stroke-miterlimit="10" d="M459.05 221.1s.02 1.9.56 3.28 2.36 3.78 2.48 5.08"/><path fill="#d40000" stroke="#000" stroke-width=".532" d="M504.63 286.55s3.05.18 4.6.96c1.55.8 2.75 1.64 4.54 2.8 0 0 .84 1.1 4.37.42 0 0 6.1-1.46 6.1 3.3 0 0 7.3.6 4.3 7 0 0-2.02 5-6.2 1.45 0 0 2.68 3.86-2.52 5.37 0 0-3.7.9-4.8-2.9 0 0-.6-1.5.85-3.37 0 0-1.8-.36-3.05-2.3 0 0 3.83 4.84-.36 6.6 0 0-5.26 1.3-5.56-4.18 0 0 .43-2.55-1.6-3.45 0 0-4.2-.97-6.12-5.64 0 0 6.03-3.2 5.45-6.05z" stroke-linejoin="round"/><path fill="none" stroke="#000" stroke-width=".399" stroke-miterlimit="10" d="M456.64 229.46l4.98 40.18m-3.83-40.27l5.58 37.45m-4.54-37.62l6.43 37.14"/><path fill="#784421" stroke="#000" stroke-width=".399" d="M469 263.14l1.8-.6-11.67-40.26-.43.1z"/><path fill="none" stroke="#000" stroke-width=".399" stroke-miterlimit="10" d="M462.4 227.72l11.78 29.76m-12.56-29.28l11.36 31.08"/><path fill="#fff" d="M442.97 308.54s-1.37-1.3-1.18-3.66c0 0 .07-.5-.18-.57 0 0-.27-.1-.3.48 0 0-.4 2.46 1.27 3.86 0 0 .1.14.28.1 0 0 .2-.04.1-.2z"/><path fill="none" stroke="#000" stroke-width=".399" stroke-miterlimit="10" d="M462.94 227.32l12.14 27.14M459.62 229l7.44 36.56"/><path fill="#f5ce00" stroke="#000" stroke-width=".532" stroke-miterlimit="2.613" d="M520.53 256.1c-5.32-3.03-6.5-9.72-6.5-9.72-1.27-6.67 1.33-11.95 1.33-11.95 3.44-7.26 9.33-8.62 9.33-8.62s-5.78 4.02-7.4 9.42c0 0-1.25 4.55-.53 9.04.7 4.5.45 3.35 1.55 6.82l2.2 5z"/><path fill="#784421" stroke="#000" stroke-width=".243" d="M497.63 239.08l-22.35 7.05-1.22 9.96c-5.3 7.67-16.08 9.04-16.08 9.04l8.4 8.92 16.1 3.38 8.45-6.5 7.65-7.1c-.8-3.77-.36-9.38-.36-9.38 0-.95.36-3.16.36-3.16s-1.3-9.08-.95-12.22z"/><path fill="none" stroke="#000" stroke-width=".399" stroke-miterlimit="10" d="M474.37 253.6s14.72-4.6 23.5-8.3m-30.57 16.68s18.36-3.32 31.28-10.68l4.75-3.2M503.33 250.83l-5.1 3.63s-20.54 9.47-36.18 9.72m36.17-3s-15.8 8.14-24.84 8.26"/><path fill="#d40000" stroke="#000" stroke-width=".532" d="M517.04 238.44s4.7-2.17 6.94 0c0 0 3.1-1.93 6.38 0 0 0 3.1 2.03 5.27 4.27 0 0 1.5 1.3.95 5.4 0 0-.8 2.88-.32 4.33 0 0 1.04-.2 3.1 2.25 0 0 2.64 3.05 4.96.36 0 0-.72 3.74-5.07 3.14 0 0 2.12 1.65.28 5.9 0 0-1.35 3.03.8 6.8 0 0-3.8-1.52-3.63-5.98 0 0 .32-3.02-.8-5.15 0 0 1.12 1.94-1.47 6.07 0 0-2 2.98-.36 6.07 0 0-3.75-1.38-3.4-5.92.37-4.54 2.64-2.65 1.17-6.84 0 0-.36 2.14-1.48 3.23-1.1 1.08-2.55 2.9-1.95 5.9 0 0-2.22-2.77-1.7-5.63s1.07-3.72 1.07-3.72l-7.06-4-3.5-6.35-.16-10.13z" stroke-linejoin="round"/><path fill="#fff" stroke="#00247d" stroke-width=".532" stroke-miterlimit="10" d="M437.1 263.87s.66-3.12 3.65-1.9c0 0 1.02-5.1 6.46-5.28 5.45-.2 5.75 5.3 5.75 5.66 0 0 1.6-2.35 4.27-2.08 0 0 4.6-.27 2.9 7.12l.86.92s3.5-8.25 10.75-6.08c0 0 7.06 2.15 2.45 9 0 0 3.48 4.5 6.44 4.1 2.95-.43 5.58-1.34 8.5-6.53 2.94-5.17 9.76-5.96 11.5-5.66 1.73.3 3.1 1.43 3.38 2.66 0 0 3.6-12.05 16.6-10.16l5.2 2.62 1.97.9-2.94 8.3-7.17 16.2-5.44 1.68-5.68-3.26-1.98 1.06-.16 4.85-7.5 5.4-5.2 2.13-5.74 3.92-1.33 3.5s-3.17-1.33-6.75 0l-1.2-2.9-3.34-3.2-13-6.13-2.36-7.58-2.37-1.06-2.65 3.05-3.9.45-5.8-3.92-6.15-17.8z"/><path fill="none" stroke="#000" stroke-width=".532" stroke-miterlimit="2.613" d="M493.76 204.88s-4.97-.22-4.8 4.93"/><path fill="#f5ce00" stroke="#000" stroke-width=".532" stroke-miterlimit="2.613" d="M526.43 259.56c-8.65-2.66-11-11.95-11-11.95-1.77-6.95 1.07-13.04 1.07-13.04 3.95-9.27 10.63-9.27 10.63-9.27 3.35-.1 3.75 2.76 3.75 2.76.3 2.03-1.1 2.77-1.1 2.77-2.3 1.24-3.75-.45-3.75-.45-.96-1.24-.22-2.35-.22-2.35.6-.82 1.72-.46 1.72-.46.9.27.8 1.4.8 1.4 0 .02.03.02.03.02.04-.02.02-.04.02-.04s.2-1.36-1.14-1.5c0 0-2.6-.57-5.65 3.23 0 0-4 5.12-4 11.76 0 0-.5 12.45 12.47 15.68 0 0-1.4 2.02-3.9 9.3 0 0-2.8 9.4-5.5 14.46 0 0-3.55 7.24-11.5 4.28 0 0-4.74-2.08-4.73-5.52 0 0-.33-3.13 2.5-3.37 0 0 2.8-.22 2.76 2.16 0 0 .08 2.58-2.96 2 0 0-1.06-.24-.87-1.28 0 0 .17-.93 1.45-.53 0 0 .04 0 .05 0 0 0 0-.03-.03-.05 0 0-.5-.22-1.02-.04 0 0-.47.16-.5.9 0 0-.04.58.6.9 0 0 .76.28 1.35.22 0 0 .8 1.63 2.63 2.18 2.53.76 4.62.02 5.9-1 1.4-1.1 2.28-3.04 2.55-3.52.27-.47 2.6-5.7 4.36-11.32 0 0 1.52-4.84 2.75-7.37l.48-1zM502.04 283.17s1.6-.22 1.6 1.22c0 0-.1 2.1-2.65 1.63 0 0-2.54-.55-1.64-3.37 0 0 .6-2 3-1.7 0 0 2.3.1 3.33 3.27 0 0 .76 2.67-.57 4.96-1.48 2.54-5.24 4.22-7.05 4.97 0 0-7.27 2.85-9.44 4.5 0 0-3.32 2.45-1.85 4.75 0 0 .56.88 1.4.88 0 0 .98.04 1.14-.95 0 0 0-.02 0-.05 0 0-.02 0-.02.03 0 0-.07.6-.6.83 0 0-.7.36-1.45-.27 0 0-.8-.77-.13-1.94 0 0 .86-1.44 2.87-.6 0 0 1.78.9 1.05 2.77 0 0-.65 1.73-2.78 1.72 0 0-1.6-.05-2.64-1.13-1.6-1.68-1.7-4.95-.27-6.64 0 0 1.33-1.8 4-2.9 1.57-.63 4.5-1.9 7.55-3.1 2.15-.85 4.12-1.85 5.4-3.36 0 0 1.13-1.27 1.46-3.44 0 0 .3-1.63-.68-2 0 0-.5-.2-1.06-.14 0 0-.04.04.02.03z"/><path fill="none" stroke="#000" stroke-width=".532" stroke-miterlimit="2.613" d="M502.17 283.16s1.8-.32 2.9 1.8c0 0 .66 1.37.77 2.16m.58-7.6s-1.8.32-.87 2.85c.87 2.4 2.48 3.17 2.96 3.5"/><path fill="#f5ce00" stroke="#000" stroke-width=".532" stroke-miterlimit="2.613" d="M471.46 210.2s.1.73.8.8c0 0 .75.25 1.2-.68 0 0 .04-.2.05-.3.06-.45.2-1.7-1.14-2.73 0 0-2.22-1.82-6.44.37 0 0-3.35 1.6-5.67 2.98 0 0-5.98 3.22-6.7 3.46 0 0-2.63 1.34-6.65 1.5 0 0-5.5.4-7.84-3.46 0 0-1.77-2.94 0-4.8 0 0 .72-.85 1.9-.7.5.07 1.04.3 1.57.92 0 0 .86 1.24-.14 2.17 0 0-1.3.8-1.76-.9 0 0-.02-.1-.06.04-.03.1-.32 1.38.37 2.47 0 0 3.32 5.02 12.45-.2l12.04-6.74s6.04-3.1 9.65 1.75c0 0 2.9 4.02-.85 6.65 0 0-2.8 1.67-4.55-.98 0 0-1.45-2.62.84-3.76 0 0 2-.95 2.8 1.06.8 2-1.54 2.54-1.76 1.1 0 0-.06-.33-.12 0zm-29.48 45.9c5.32-3.03 6.48-9.72 6.48-9.72 1.3-6.67-1.3-11.95-1.3-11.95-3.45-7.26-9.35-8.62-9.35-8.62s5.8 4.02 7.4 9.42c0 0 1.26 4.55.54 9.04-.72 4.5-.45 3.35-1.56 6.82l-2.2 5z"/><path fill="none" stroke="#000" stroke-width=".532" stroke-miterlimit="2.613" d="M468.75 204.88s4.96-.22 4.78 4.93"/><path fill="#f5ce00" stroke="#000" stroke-width=".532" stroke-miterlimit="2.613" d="M436.08 259.56c8.64-2.66 11-11.95 11-11.95 1.77-6.95-1.07-13.04-1.07-13.04-3.94-9.27-10.62-9.27-10.62-9.27-3.35-.1-3.75 2.76-3.75 2.76-.3 2.03 1.1 2.77 1.1 2.77 2.3 1.24 3.75-.45 3.75-.45.95-1.24.22-2.35.22-2.35-.6-.82-1.72-.46-1.72-.46-.9.27-.8 1.4-.8 1.4 0 .02-.02.02-.02.02-.04-.02-.02-.04-.02-.04s-.2-1.36 1.13-1.5c0 0 2.6-.57 5.66 3.23 0 0 4 5.12 4 11.76 0 0 .5 12.45-12.47 15.68 0 0 1.4 2.02 3.9 9.3 0 0 2.8 9.4 5.48 14.46 0 0 3.57 7.24 11.53 4.28 0 0 4.73-2.08 4.72-5.52 0 0 .32-3.13-2.52-3.37 0 0-2.78-.22-2.75 2.16 0 0-.08 2.58 2.96 2 0 0 1.05-.24.86-1.28 0 0-.17-.93-1.45-.53 0 0-.03 0-.04 0 0 0-.02-.03.03-.05 0 0 .48-.22 1-.04 0 0 .48.16.5.9 0 0 .04.58-.58.9 0 0-.77.28-1.36.22 0 0-.8 1.63-2.63 2.18-2.53.76-4.62.02-5.9-1-1.4-1.1-2.28-3.04-2.55-3.52-.27-.47-2.6-5.7-4.36-11.32 0 0-1.53-4.84-2.76-7.37l-.48-1zM460.47 283.17s-1.62-.22-1.62 1.22c0 0 .1 2.1 2.66 1.63 0 0 2.54-.55 1.64-3.37 0 0-.6-2-3-1.7 0 0-2.3.1-3.32 3.27 0 0-.78 2.67.55 4.96 1.5 2.54 5.25 4.22 7.06 4.97 0 0 7.27 2.85 9.44 4.5 0 0 3.32 2.45 1.85 4.75 0 0-.57.88-1.42.88 0 0-.98.04-1.14-.95 0 0 0-.02 0-.05 0 0 .03 0 .03.03 0 0 .06.6.6.83 0 0 .7.36 1.44-.27 0 0 .8-.77.13-1.94 0 0-.86-1.44-2.87-.6 0 0-1.77.9-1.04 2.77 0 0 .64 1.73 2.78 1.72 0 0 1.6-.05 2.63-1.13 1.6-1.68 1.7-4.95.28-6.64 0 0-1.34-1.8-4.02-2.9-1.55-.63-4.5-1.9-7.54-3.1-2.15-.85-4.1-1.85-5.4-3.36 0 0-1.13-1.27-1.46-3.44 0 0-.3-1.63.68-2 0 0 .5-.2 1.06-.14 0 0 0 0 .02 0 0 0 .02.04-.03.03z"/><path fill="none" stroke="#000" stroke-width=".532" stroke-miterlimit="2.613" d="M460.33 283.16s-1.78-.32-2.9 1.8c0 0-.66 1.37-.76 2.16m-.58-7.6s1.77.32.85 2.85c-.86 2.38-2.47 3.16-2.95 3.5m22.93-76.35s4.32-2.7 8.74.3"/><path fill="none" stroke="#000" stroke-width=".399" stroke-miterlimit="2.613" d="M452.35 235.94s.6-2.4-2.15-6.63c0 0-1.8-3.85-2.75-6.32m6.22-2.66s1.55 3.8 2.1 5.5c0 0 1.92 4.76 2.33 5.72"/><path fill="none" stroke="#000" stroke-width=".399" stroke-miterlimit="10" d="M454.44 238.6s1.63 1.75 1.44 4.7m-6.82-6.57s1.8.86 1.68 5.63c0 0-.18 3.47 2.5 5.22m-4.42 1.23s5.6-.6 5.92 2.85c0 0 .12 3.32 2.04 3.68 0 0 2.86.27 3.43 2.93m-9.6-5.6s.97 1.47 1.93 2.1m5.26-5.76s1.42 2.16 1.7 3.43m4.47-29.45s1.32 1.8 2.6 2.63m2.67 7.97s2.8 1.37 2.3 8.4c0 0-.35 4.13.8 6.4"/><path fill="#784421" stroke="#000" stroke-width=".399" d="M456.1 228.8l.17.66s5 .2 7.7-3.2l-.3-.65s-4.35-.2-7.58 3.2z"/><path fill="none" stroke="#000" stroke-width=".399" stroke-miterlimit="10" d="M474.12 255.64s17.3-5.16 23.97-8.16"/><path fill="#784421" stroke="#000" stroke-width=".243" d="M472.26 223.72l-.2-.56 8.56-3.26.2.57z"/><path fill="none" stroke="#000" stroke-width=".399" stroke-miterlimit="10" d="M473 223.45l5.67 27.85m-4.7-28.23l6.5 27.73m-5.4-28.15l7.13 27.53m-4.33-28.6l9.7 20.67m-8.42-21.14l10.35 20.55m-9.4-20.9l11.2 20.33m-13.02 10.44l4.4-1.44m-7.72-1.3s12.87-3.77 22.6-7.7m-22.77 9.1s16.3-4.32 22.77-7.47m-17.8 20.75l.85 2.6 2.33-.74-.8-2.58m4.2-1.15l.86 2.6 2.34-.73-.8-2.6m-13.46-14.7l-.2-3.54 21.4-6.5 1.15 2.98m-13.48.76l1.17 3.13m6.3-5.4l1.37 2.97m.4-3.5l1.28 2.8m.42-3.32l1.34 2.94M496.47 236.1l2.35-1.32 1 2.6m-2.2-1.93l1.2 2.7"/><path fill="none" stroke="#00247d" stroke-width=".532" stroke-miterlimit="10" d="M444.57 276.17s-4.18-4.24 0-8.4c0 0-4.54-2.2-3.82-5.8m11.3 17.56s-4.33.6-3.05-7.85c0 0-1.8 3.35-2.4 5.07-.48 1.3-.17 3.36 1.67 4.5.73.44 4.62 1.45 5.87-1.13m-6.93-13.5s-1.76 1.62-.5 4.6m2.33-4.22s.2 2.9 1.65 4.53m-.4-5.67s-.02 3.4 2.43 5.52m-1.2-6.7s0 3.83 2.85 6.2m11.25-.6s1.43-3.12 4.45-2.97c0 0-1.46.67-1.43 2.14 0 0-.18 2.42 2.42 2.66 0 0 2.1.27 3.14-.87M472.75 284.62s-7.45-3.5-6.67-8.54c0 0 .3-3.07 3.3-4.52m-1.57 3.2s-.65 2.17.82 3.68m.87-5.16s-.9 2.38.58 4.16m1.2-5.32s-1.08 1.97.2 3.75m-7 9.26s4.08 3.53 7.25 3.56m-8.52-2.45s3.8 3.07 6.18 3.53m-7.6-2.66s4.7 4.13 7.6 4.43m11.5 3.8s-4.62 2.5-1.04 5.12m-1.9-7.86s5.24-2.73 7.5-3.76m-5.6 5.2s7.56-4.63 9.8-5.62m-5.92 5.9s6.46-4.3 9.93-6.17m-5.65 6.03s4.45-3.5 8.76-6.03m1.52-4.38s-2.18-3.2-9.36 0c0 0 2.63-2.38 7.84-4.24M504 265.8s.6 2.6-.04 4.16M492.36 278.38s1.5-2.2 5.3-3.3c0 0 1.02 2.57 3.97 2 0 0 4.46-.88 3.1-5.76 0 0-.9-3.65-6-4m15.14-6.13s5.17.92 5.08 5.14c0 0 .42 6.34-6.25 7.57m5.5-10.1s1.43-3.1 4.6-4.36m-3.85-1.8s1.42 2.25 2.38 2.58m-3.12-.78s1.35 1.62 1.8 1.9m-2.22-.34s.7 1.04 1.33 1.37m-27.93-25.85s1-1.63 3.5-.94m10.22 13.2s1.58-6.62 7.1-4.18m-2.23-.54s.57-3.05-.8-4.6m-2.97 4.38s.7 1.26.1 2.3"/><path fill="#64b4d1" stroke="#00247d" stroke-width=".399" stroke-miterlimit="2.613" d="M517.25 311.4s6.22-2.84 4.3-7.66c0 0-.6-1.63-1.97-1.5 0 0-2.4.1-1.92 3.3 0 0 .72 3.14-.4 5.85z"/><path fill="#fff" d="M519.5 308.54s1.37-1.3 1.17-3.66c0 0-.08-.5.17-.57 0 0 .27-.1.3.48 0 0 .4 2.46-1.26 3.86 0 0-.12.14-.3.1 0 0-.2-.04-.08-.2z"/><path fill="#64b4d1" stroke="#00247d" stroke-width=".399" stroke-miterlimit="2.613" d="M526.1 307.05s4.36-2.74 2-7.35c0 0-.7-1.33-2-1.06 0 0-2.73.84-.6 4.62 0 0 1.07 2.44.6 3.8z"/><path fill="#fff" d="M527.2 300.8s-.25-.32-.1-.46c0 0 .12-.15.4.2 0 0 1.32 1.5.27 3.76 0 0-.12.33-.33.22 0 0-.18-.1 0-.36 0 0 .93-1.87-.25-3.37z"/><path fill="#64b4d1" stroke="#00247d" stroke-width=".399" stroke-miterlimit="2.613" d="M513.03 310.2s-4.88-1.24-3.98-6.28c0 0 .48-2.2 2.54-1.9 0 0 2.48.63.86 3.83 0 0-.96 2.3.57 4.34z"/><path fill="#fff" d="M511.14 304.17s-.18-.24.03-.34c0 0 .2-.1.36.2 0 0 .5.8.08 1.9 0 0-.4.78-.2 1.58 0 0 .03.23-.15.26 0 0-.17-.06-.2-.22 0 0-.25-.78.17-1.55 0 0 .5-1.2-.08-1.83z"/><path d="M516.53 300.66s2.75-1.55 5.02.26c0 0-.23-1-1.97-1.45 0 0-.94-2.65-3.57-2.4 0 0 1.1 1.28 2.52 2.37 0 0-1.5.15-2 1.22zm2.03-7.27s1.87 1.37 2.63 2.3c0 0 .75-.95 1.75-1.52 0 0-1.15-.15-1.76.36 0 0-.96-.92-2.64-1.15z"/><path fill="none" stroke="#000" stroke-width=".532" stroke-miterlimit="10" d="M507.7 299.3s-.2-.67.3-1.4c0 0 .3-.52.2-1.2m19.57-40.33s2.9-.2 3.4-2.45m5.1-1.5s-1.02-.03-1.94.9c0 0-.7 1.04-1.7.92"/><path d="M523.47 247.8s1.5 0 2.35-.72c0 0 .87-.6 1.4.36 0 0 .8 1.37-.68 1.97 0 0-1.84.94 1.07 2.8 0 0-3.46-1.26-2.06-2.95 0 0 1.5-1.08.95-1.48 0 0-.17-.33-.76.08-.6.4-1.8.24-2.28-.04z"/><path fill="#64b4d1" stroke="#00247d" stroke-width=".399" stroke-miterlimit="2.613" d="M525.53 211.2s.68-.94.4-3.74 2.15-3.1 3.08-2.3c0 0 .97.83.1 2.6-.53 1.02-1.34 2.35-3.57 3.43z"/><path fill="#fff" d="M526.44 209.1s.9-.98.47-3.1c0 0 0-.2.13-.22 0 0 .22-.06.26.15 0 0 .48 2.27-.55 3.5 0 0-.2.18-.3 0 0 0-.15-.13 0-.33z"/><path fill="#64b4d1" stroke="#00247d" stroke-width=".399" stroke-miterlimit="2.613" d="M524.75 210.17s-.07-1.12-2.02-3.04c-1.95-1.9-.34-3.68.85-3.66 0 0 1.23.02 1.68 1.9.25 1.1.47 2.6-.5 4.8z"/><path fill="#fff" d="M524.45 207.72s.03-1.38-1.73-2.82c0 0-.14-.16-.06-.25 0 0 .13-.2.3-.05 0 0 1.9 1.52 1.94 3.18 0 0-.02.27-.24.2 0 0-.2 0-.2-.25z"/><path fill="#64b4d1" stroke="#00247d" stroke-width=".399" stroke-miterlimit="2.613" d="M522.1 209.32s-.5-.9-2.9-1.77c-2.4-.85-1.76-2.95-.75-3.4 0 0 1.05-.46 2.18.95.65.8 1.43 2 1.48 4.23z"/><path fill="#fff" d="M521.05 207.64s-.54-1.27-2.74-1.82c0 0-.2-.1-.16-.2 0 0 .04-.23.26-.17 0 0 2.35.56 3.1 2.05 0 0 .08.25-.14.28 0 0-.18.07-.3-.14z"/><path fill="#64b4d1" stroke="#00247d" stroke-width=".399" stroke-miterlimit="2.613" d="M523.6 210.24s-1.1.32-3.68-.92-3.7.92-3.25 2.07c0 0 .47 1.2 2.46.98 1.15-.12 2.7-.42 4.48-2.14z"/><path fill="#fff" d="M517.63 211.06s1.16.72 3.28-.1c0 0 .23-.04.26.08 0 0 .1.2-.1.28 0 0-2.27.9-3.7.1 0 0-.23-.14-.07-.3 0 0 .1-.16.32-.06z"/><path fill="none" stroke="#000" stroke-width=".532" stroke-miterlimit="2.613" d="M519.85 202.1s1.28.63.98 2.14"/><path fill="none" stroke="#000" stroke-width=".532" stroke-miterlimit="10" d="M525.53 202.32s.5 1.6-.05 2.45"/><path fill="#64b4d1" stroke="#00247d" stroke-width=".399" stroke-miterlimit="2.613" d="M436.82 211.2s-.7-.94-.4-3.74c.27-2.8-2.15-3.1-3.1-2.3 0 0-.95.83-.06 2.6.5 1.02 1.33 2.35 3.56 3.43z"/><path fill="#fff" d="M435.9 209.1s-.9-.98-.47-3.1c0 0 0-.2-.12-.22 0 0-.2-.06-.25.15 0 0-.5 2.27.54 3.5 0 0 .18.18.3 0 0 0 .14-.13 0-.33z"/><path fill="#64b4d1" stroke="#00247d" stroke-width=".399" stroke-miterlimit="2.613" d="M437.6 210.17s.06-1.12 2-3.04c1.96-1.9.36-3.68-.84-3.66 0 0-1.23.02-1.68 1.9-.25 1.1-.47 2.6.5 4.8z"/><path fill="#fff" d="M437.9 207.72s-.04-1.38 1.72-2.82c0 0 .15-.16.06-.25 0 0-.13-.2-.3-.05 0 0-1.9 1.52-1.94 3.18 0 0 .02.27.24.2 0 0 .2 0 .22-.25z"/><path fill="#64b4d1" stroke="#00247d" stroke-width=".399" stroke-miterlimit="2.613" d="M440.24 209.32s.5-.9 2.9-1.77c2.4-.85 1.76-2.95.75-3.4 0 0-1.06-.46-2.18.95-.65.8-1.43 2-1.48 4.23z"/><path fill="#fff" d="M441.3 207.64s.54-1.27 2.74-1.82c0 0 .2-.1.16-.2 0 0-.04-.23-.25-.17 0 0-2.36.56-3.1 2.05 0 0-.1.25.13.28 0 0 .2.07.3-.14z"/><path fill="#64b4d1" stroke="#00247d" stroke-width=".399" stroke-miterlimit="2.613" d="M438.73 210.24s1.12.32 3.7-.92c2.57-1.24 3.7.92 3.25 2.07 0 0-.47 1.2-2.47.98-1.14-.12-2.68-.42-4.47-2.14z"/><path fill="#fff" d="M444.72 211.06s-1.17.72-3.3-.1c0 0-.2-.04-.24.08 0 0-.1.2.1.28 0 0 2.27.9 3.7.1 0 0 .23-.14.07-.3 0 0-.1-.16-.33-.06z"/><path fill="none" stroke="#000" stroke-width=".532" stroke-miterlimit="2.613" d="M442.5 202.1s-1.3.63-1 2.14"/><path fill="none" stroke="#000" stroke-width=".532" stroke-miterlimit="10" d="M436.8 202.32s-.5 1.6.07 2.45"/><path d="M492.63 187.7s.82 2.32.47 4.42c-.32 1.9.1 2.38.8 2.75.58.32 1.95-.24 2.1-1.72 0 0 1.63 3.15-1.5 5.28 0 0-2.27 1.38-4.18-.47-.68-.65-.98-2.46-.65-4.13 0 0 .5-2.27-.33-4.6 0 0 1.3 1.37.96 4.1 0 0-.66 4.9 2.98 4.67 0 0 2.5-.03 2.58-3.07 0 0-.94 1.08-2.1.72-.83-.25-1.6-1.05-1.46-2.3.14-1.33.5-3.64.33-5.66zm-4.1 8.05s-.2 3.88-3.76 4.83c0 0 .5-.7-.3-2.64 0 0-.78-1.12-.72-2.87 0 0-1.13.88.16 3.22.8 1.4.1 3.08-.13 3.14-.24.06 5.86-.8 4.75-5.7zm-4.62-3.86s-.85-.97-.9-3.2c-.07-2.24-.5-2.78-.78-3.04 0 0 .43 1.93.3 3.12-.1 1.18.1 1.87.25 2.43 0 0-1.93.3-3.15-2.5-1.16-2.7-2.33-2.48-2.9-2.46 0 0 .67.08 2.03 2.53 1.35 2.46 1.73 2.96 5.16 3.12zm-9.04-5.84s1.12 2.68 1.16 4.08c0 0-2.6-.86-3.3-3.1 0 0-2.76.93-1.75 4.13 0 0-2.4-.85-3.47-2.8 0 0 1.34 1 2.57 1.45 0 0-.14-2.57 3.1-3.54 0 0 .47 2.3 2.1 2.86 0 0-.13-1.45-.4-3.08zm4.27-4.58s.9 1.3 2.73 1.37c.87.03 1.82-.17 2.73-1.37 0 0-.13 2.27-2.74 2.3 0 0-2.73.1-2.73-2.3zM467.83 197s1.36 1.25 1.64 1.65c0 0 .96.94 1.78-.27 0 0 1.05-1.94 2.33-1.88 0 0-.9.63-1.93 2.46 0 0-.28.67-1.04.75-.35.04-.8.16-1.48-.55 0 0-.6-.72-1.3-2.14zm14.03-24.63c-2.73 0-.43 2.1-.43 2.1.06 3.36-2.63 4.4-4.46 3.42-1.83-.98-.4-3.42-.4-3.42s-2.06 1.36-.74 3.32c1.3 1.96 4.76 1.08 6.03-.73 1.26 1.8 4.7 2.7 6.03.73 1.3-1.96-.76-3.32-.76-3.32s1.43 2.44-.4 3.4c-1.83.98-4.5-.05-4.45-3.4 0 0 2.3-2.1-.44-2.1zm1.65-3.62s.97 1.63.76 4.1c0 0 .86-2.47-.75-4.1zm-8.36 3.83s-.2-1.78-1.95-1.93c0 0 1.46 1.06 1.94 1.93zm13.46 0s.2-1.78 1.94-1.93c0 0-1.47 1.06-1.94 1.93zm-16.2 2.72s1.36.42 2.2-.6c0 0-1.6.42-2.2.6zm-4.47-10.92s1.6-.18 3.2 2.2c0 0-1.58.84-1.97 1.36 0 0 0-.8.77-1.48 0 0-.3-1.2-2-2.08zm26.8 0s-1.6-.18-3.2 2.2c0 0 1.58.84 1.97 1.36 0 0 0-.8-.78-1.48 0 0 .3-1.2 2-2.08zm-12.35 1.78s1.43.4 3.23-.6c0 0 2.22-1.18 3.62 0 0 0-1.22-.55-3.6.6 0 0-2.35 1.3-3.24 0z"/><path fill="#fff" d="M483.87 167.6s1.23-2.14 4.96-1.72c0 0-1 3-4.96 1.73z"/><ellipse cx="486.449" cy="166.939" fill="#784421" rx=".739" ry=".937"/><ellipse cx="486.449" cy="166.939" rx=".439" ry=".575"/><path d="M475.86 163.02s2.36.15 3.8 1.06c0 0 1.52.9 3.25-.4 0 0 1.9-1.08 3.1-2.6 0 0-2.88 2-3.95 2.3 0 0-1-.75-1.38-1.84 0 0 .15-.8 1.7-2.32 0 0-2.1.64-2.5 2.4 0 0 .38 1.1 1.2 1.95 0 0-.4.18-1.42-.46 0 0-2.2-.74-3.8-.08zm6 14.2c-2.05 1.76 0 1.57 0 1.57s2.04.17 0-1.6zm-1.2-11.06s-1.42.4-3.22-.6c0 0-2.2-1.18-3.62 0 0 0 1.23-.55 3.6.6 0 0 2.36 1.3 3.25 0z"/><path fill="#fff" d="M479.18 167.6s-1.23-2.14-4.96-1.72c0 0 1 3 4.96 1.73z"/><ellipse cx="476.601" cy="166.939" fill="#784421" rx=".739" ry=".937"/><ellipse cx="476.601" cy="166.939" rx=".439" ry=".575"/><path fill="none" stroke="#000" stroke-width="1.28" d="M554.06 148.26v135.5c0 36.2-72.36 47.97-72.36 47.97s-72.36-11.76-72.36-47.96v-135.5h144.72z"/></svg>