<svg xmlns="http://www.w3.org/2000/svg" width="640" height="480" xmlns:xlink="http://www.w3.org/1999/xlink"><path fill="#f7e017" d="M0 0h640v480H0z"/><path fill="#fff" d="M0 33.33v213.34l640 100V233.33z"/><path d="M0 146.67v100l640 200v-100z"/><g fill="#cf1126" transform="translate(-160) scale(.667)"><path d="M695.74 569.72c-19.36-2.57-37.1-8.73-49.44-17.17-2.4-1.64-4.64-2.98-5-2.98-.35 0-.64 1.82-.64 4.07 0 6.37-2.56 9.58-9 11.25-6.16 1.6-15.56-1.64-23.18-7.96-7.9-6.55-17-11.55-24.7-13.55-6.36-1.67-14.8-1.4-20.88.64-2.83.95-6.05 2.3-7.17 2.98-1.1.7-2.36 1.25-2.76 1.25-1.08 0-.93-6.85.2-9.04 1.5-2.87 5.16-5.7 9.44-7.26 2.17-.8 3.94-1.8 3.94-2.25 0-.45-.73-2.1-1.62-3.65-2.9-5.08-1.7-10 3.35-13.87 5.18-3.96 13.95-4.64 21.7-1.7 1.95.75 3.77 1.36 4.04 1.36 1.03 0 .4-1.43-2.4-5.52-3.24-4.74-3.88-7.08-3.48-12.72.52-7.14 6.34-12.98 13.47-13.5 5.8-.42 9.43 1.54 18.02 9.72 25.65 24.46 53.54 37.94 86.07 41.6 8.2.9 24.72.42 34.4-1.04 29.28-4.4 58.77-19.13 81.8-40.82 6.38-6 9.45-7.6 14.68-7.62 4.55-.02 7.74 1.45 11 5.05 2.97 3.3 3.98 6.44 3.66 11.45-.2 3.2-.73 4.8-2.64 7.9-2.82 4.6-2.34 5 3.24 2.85 7.54-2.94 16.83-1.58 21.84 3.18 4.4 4.2 4.83 8.38 1.4 14.06-1.25 2.08-2.27 4.03-2.27 4.34 0 .57.96.84 5.54 1.58 6 .96 9.42 5.4 9.42 12.2 0 2.05-.25 3.7-.56 3.7-.3 0-2.57-.82-5.04-1.84-6.98-2.88-10.95-3.62-19.1-3.57-6.22.04-8.36.33-12.7 1.74-6.62 2.16-13.7 6.34-19.5 11.5-6.36 5.67-10.37 7.46-16.57 7.4-5.77-.05-9.7-1.72-11.8-5-1.1-1.77-1.26-2.84-1-6.82.2-2.6.15-4.7-.06-4.7-.22 0-2.46 1.4-5 3.16-6.63 4.56-10.86 6.82-18.46 9.83-23.18 9.17-56.63 13.14-82.24 9.75zM706.34 525.17c-38.58-3.7-75.5-23.8-97.94-55.66-24.37-33.22-32.05-77.1-24.6-117.23 3.94-18.26 11.92-36.54 25.53-49.55-10.85 23-14.5 49.37-8.73 74.3 9 49.74 51.04 91.86 101.34 99.14 19.9 5.77 40.5-.32 59.5-6.5 41.94-14.77 73.88-54.57 77.78-99.07 3.33-24.1-.36-49.12-11.2-70.92 6.17 3.27 13.98 16.08 18.58 24.7 16 31 16.73 68.16 7.3 101.24-12.77 42.1-44.95 78.98-87.5 92.4-19.3 6.3-39.84 8.22-60.06 7.15z"/><g id="a"><path d="M512.02 469.9c-2.53-.4-5.32 2.1-4.36 4.7 1.82 2.63 4.96 3.92 7.8 5.18 6.8 2.72 14.17 3.78 21.47 3.6-2.52 0 .86.03 1.8 0 5.77.02 11.5-1.02 16.94-2.98 3.02-1.06 6.87-2.02 8.1-5.36 1.2-2.18-.98-4.35-3.18-3.9-3.1.66-5.96 2.05-9 2.84-6.58 1.86-13.5 2.57-20.3 2.02-5-.6-9.8-2.2-14.42-4.15-1.6-.7-3.1-1.73-4.86-1.95zM514.83 459.52c-2.56-.38-4.76 2.56-3.7 4.9 1.97 2.86 5.28 4.37 8.36 5.7 5.36 2.16 11.2 3.05 16.97 2.88-2.2 0 .75.03 1.56 0a37.6 37.6 0 0 0 14.33-2.83c2.77-1.08 6.17-2.12 7.32-5.18.9-1.68.22-4.12-1.9-4.25-1.92-.1-3.6 1.13-5.37 1.68-6.48 2.68-13.62 3.82-20.6 3.2-4.36-.55-8.53-2.16-12.48-4.02-1.48-.7-2.82-1.82-4.5-2.08zM518.28 449.57c-2.2-.26-3.7 2.2-3.33 4.18.33 1.74 1.88 2.9 3.17 3.96 5.33 3.9 12.08 5.57 18.63 5.35-2.55 0 3.4.04 1.6 0 4.13-.02 8.23-1.04 11.96-2.83 2.5-1.08 5.42-2.34 6.26-5.18.4-1.32.65-3.22-.84-3.97-1.57-.87-3.12.47-4.54 1.02-4.8 2.43-10.13 3.78-15.5 3.76-4.66.15-9.04-1.8-13.08-3.9-1.46-.76-2.67-2.05-4.32-2.4zM481.53 302.7c-3.26 3.26-.77 9.27-.95 13.54 1.7 13.16 3.8 26.5 8.7 38.87 6.02 12.1 18.8 18.6 26.53 29.28 2.78 5.16 1.8 11.36 2.38 17 .46 15.36.32 30.74.05 46.1 6.94 3.5 14.47 7 22.46 5.65 4.72-1.13 13.5-1.83 14.48-6.54-.38-26.5-.63-53.02-.98-79.52-2.7-8.12-10.95-12.32-17.13-17.5a155.47 155.47 0 0 1-14.2-16.1c-2.6-4.43-12.86-6.02-9.15 1.67 2.17 6.65 7.72 11.6 9.1 18.6.3 3.83 4.9 10.88.98 13.1-2.48-4.2-6.08-7.8-10.68-9.95-4.43-3.3-11.76-4.68-13.36-10.5-1.17-8.3-5.4-15.8-10.9-22 1.42-7.43.02-16.74-6.4-21.5l-.93-.2zM491.44 304.2c-2.96.47-2.86 4.24-1.5 6.23 1.47 4.3 1.86 8.94 1.08 13.4 5.26 6.17 9.34 13.55 10.57 21.65.02 3.04 3.22 4.05 5.3 5.55 4.87 3.1 10.35 5.35 14.7 9.24.9.97 1.6 2.02.94.03-.67-2.55-1.02-5.36-3.02-7.28-2.73-2.94-6.15-5.57-10.13-6.46-.34-4.12-2.3-7.9-4.1-11.54-2.02-3.47-4.1-7.2-7.55-9.46.14-6.1.04-12.5-2.6-18.12-.76-1.45-1.9-3.16-3.7-3.25zM499.73 306.62c-2.06.6-1.67 3.16-1.02 4.72 1 4.3 1.16 8.77 1.08 13.18 3.8 3 6.16 7.35 8.32 11.6 1.35 2.82 2.63 5.74 3.15 8.85 3.08 1.02 5.77 2.95 8.17 5.08-.95-2.88-3.07-5.1-4.5-7.74-1.55-2.73-3.03-5.6-3.7-8.7-2.95-3.14-4.58-7.62-3.93-11.94.12-4.78-1.42-9.7-4.62-13.3-.8-.8-1.76-1.68-2.95-1.74zM509.16 307.97c-1.12.2-1.8 1.27-2.4 2.14-.24.88.83 1.82 1 2.77a21.77 21.77 0 0 1 1.42 10.42c-.1 2.5.8 4.94 2.08 7.06.37-1.57 1.82-2.7 3.4-2.84.56-.1 1.4.2 1.07-.68-.4-4.8-1.13-9.6-2.8-14.12-.65-1.62-1.4-3.32-2.8-4.42-.27-.2-.6-.38-.97-.33z"/></g><use width="100%" height="100%" xlink:href="#a" transform="matrix(-1 0 0 1 1440 0)"/><path d="M715.67 475.98c-13.5-1.28-25.67-11.12-29.83-24 .22-2.22 3 1.24 4.3 1.47 2.44 1.36 5.1 2.48 7.9 2.66 3.57 1.54 5.77 5.04 9.17 6.87 1.58 1.23 7.16 3.64 6.12-.26-1.3-2.03-2.2-4.62-1.08-6.95 1.9-4.15 4.8-7.77 7.73-11.23 2.16-.72 3.6 3.53 5.14 4.96 2.14 3.27 4.7 7.28 3.45 11.35-1.22 1.5-2.02 6.04 1.25 4.52 4.02-1.77 7.3-4.74 10.65-7.52 2.9-2.04 6.65-2.18 9.7-3.97 1.43-.36 4.38-3.2 5-1.62-1.68 4.5-4.5 8.5-7.5 12.2-4.85 5.56-11.42 9.74-18.77 10.9-4.35.8-8.8.98-13.2.64zM731.53 460.22c.3-2.7-.32-5.47-1.7-7.93-2.13-4.34-5.12-8.18-8.05-11.97-2.76-1.62-4.3 3.65-6.12 5.17-2.86 4.27-6.44 8.65-6.62 14.03-1.6 2.5-4.6-2.04-5.9-3.53-2.46-3.5-4.33-7.62-4.02-12-.3-7.03 1.06-14.03 3.62-20.57 1.93-5.6 5.07-11 4.76-17.1.22-4.6-.7-9.67-4.43-12.75-3.54-2.78 2.3-3.37 4.14-1.93 3.18.2 4.9 5.45 7.8 4.15 1.14-2.73 1.37-6 3.75-8.13 2.33-3.2 4.77 1.36 5.57 3.5 1.65 1.86-.1 6.5 2.58 6.62 3.2-2.26 5.5-6.03 9.6-6.86 1.66-.95 4.5-.12 2.3 1.8-3.03 2.83-5.62 6.4-6.17 10.62-.93 5.3.4 10.7 2.7 15.47 4.46 9.4 7.9 20 5.65 30.44-1.05 4.65-4.2 8.65-8.04 11.34-.48.3-1.25.3-1.4-.38zM726.73 389.63c-1.46-2.62-3.22-5.2-5.67-7-2.38 0-3.85 3-5.47 4.58-1.14 2.12-2.52 5.65-5.32 2.9-4.44-2.6-5.23-8.3-5.2-12.97-.28-7.6 2.78-14.68 5.5-21.6 1.72-4.32 1.3-9.2.24-13.62-1.32-5.08-5.4-8.62-8.56-12.6.22-1.52 4.24-.68 5.75-.4 3.37.86 5.38 3.83 7.88 5.93 1.78-.54 1.06-4.14 1.88-5.83.07-2.38 3.24-5.52 4.55-2.1 1.96 2.16-.06 6.45 2.47 7.8 2.42-.9 3.6-3.53 5.87-4.72 2.23-1.52 5.38-1.7 7.78-.5.84 2.22-2.64 4.06-3.65 5.98-4.05 5-5.48 11.9-3.74 18.12 1.38 4.86 3.8 9.4 4.65 14.43 1.02 5.66.98 11.6-.48 17.17-.87 3.38-3.8 5.64-6.83 7.04-.74-.68-1.14-1.7-1.64-2.57zM711.6 326.9c-3.35-2.47-4.46-4.82-4.46-9.47 0-2.38.44-3.67 2-5.83 2.32-3.2 1.9-4.2-1.37-3.27-5.26 1.5-7.77.13-7.95-4.35-.08-2.2.38-3.12 3.33-6.66 2.36-2.84 3.22-4.33 2.75-4.8-.46-.46-3.25 1.96-8.98 7.8-4.57 4.64-9.7 9.4-11.42 10.55-9.84 6.64-19.24 7.67-23.53 2.56-2.2-2.6-2.08-4.08.46-5.66 1.17-.72 3.14-2.38 4.4-3.7 2.94-3.06 11.73-9.4 16.1-11.6 3.53-1.8 4.37-3 2.07-3-2.98 0-12.54 6.22-19.8 12.88-2.12 1.97-5.2 4.16-6.8 4.87-3.62 1.6-10.73 2.2-13.9 1.15-2.22-.74-6.3-4.58-6.3-5.95 0-.36.94-1.16 2.07-1.77 1.13-.6 3.16-2.07 4.5-3.24 5.8-5.08 16.8-10.32 25.5-12.15 2.78-.58 1.76-1.98-1.33-1.84-6 .27-17.88 5.84-24.98 11.7-8.32 6.86-20.87 6.2-24.9-1.3-.7-1.28-1.12-2.5-.92-2.68.2-.2 2.66-.93 5.5-1.65 3.05-.77 9.1-3.28 14.9-6.17 9.1-4.54 11.8-5.5 18.08-6.52 2.82-.45 2.97-1.83.23-2.15-3.53-.42-8.94 1.35-18.5 6.05-12.28 6.04-15.72 7.08-22.2 6.7-5.9-.36-9.22-1.87-14-6.4-3.14-2.97-7.58-10.5-6.7-11.38.2-.2 1.64 0 3.2.45 1.7.5 6.64.85 12.58.86 8.3.03 10.52-.2 14.95-1.47 7.4-2.14 17.26-7.15 24-12.18 12.9-9.64 23.4-13.5 36.8-13.57 12.37-.05 20.24 2.8 27.2 9.88 2.37 2.4 4.38 3.94 4.7 3.6.32-.3.66-4.48.76-9.28 0 0 3.64-.35 4.4.67 0 7.8.1 8.4 1.23 8.4.74 0 1.53-.76 2.02-1.94 1.05-2.54 4.97-6.03 9.16-8.15 9.05-4.6 24.7-4.73 37.3-.34 5.3 1.87 11.17 5.2 16.77 9.5 5.62 4.33 17.1 10.1 23.9 12.04 6.87 1.95 18.98 2.44 25.2 1.03 2.55-.58 4.95-1.06 5.33-1.06 2.3 0-1.6 7.64-6.2 12.1-8.36 8.2-19.25 8.15-34.57-.1-9.56-5.15-20.98-7.96-20.98-5.16 0 .58.6.97 1.5.97 3.3 0 9.72 2.24 18.66 6.48 9.67 4.6 15.1 6.54 18.32 6.54 2.34 0 2.4 1.45.23 4.65-2.3 3.4-6.23 5.1-11.77 5.1-5.3-.03-8.23-1.2-12.96-5.12-7.9-6.58-27.62-13.92-26.86-10 .15.78 1.1 1.26 3.13 1.57 6.86 1.05 14.9 4.9 23.15 11.06 2.54 1.9 5.18 3.8 5.85 4.2 1.13.65 1.15.85.26 2.52-1.48 2.76-5.2 4.9-9.25 5.32-5.23.54-9.78-1.02-14.5-4.96-9.93-8.32-19.3-14.34-22.3-14.34-2.45 0-1.35 1.35 2.97 3.64 5.68 3 11.52 7.08 15.82 11.03 2.03 1.87 4.32 3.73 5.08 4.14 1.8.96 1.73 2.37-.25 4.96-2.02 2.64-5.36 3.8-9.7 3.34-8.63-.9-15.37-5.08-25.96-16.07-4.14-4.3-7.83-7.8-8.2-7.8-1.42 0-.6 1.9 2.14 4.97 3.38 3.78 4.03 5.9 2.75 8.98-1.13 2.72-3 3.35-6.87 2.3-3.95-1.06-4.57-.1-1.98 3.13 3.86 4.8 3.3 10.7-1.44 14.75-1.47 1.25-3 2.28-3.43 2.28-.4 0-1.44-1.07-2.3-2.38-3.05-4.62-5.72-4.6-8.68.08-1.03 1.63-1.9 2.95-1.93 2.94-.05 0-1.44-1-3.1-2.23zM726.67 233.03l-5.13 4.06-4.6-3.48v27.74l9.73.12zM694.9 204.25c-1.03 13.1-4.36 22.26-9 32.35l11.1-10.3 7.73 9.18 8.36-9.33 8.52 7.88 8.2-8.2 8.52 9.97 7.4-8.2 12.54 9c-4.55-10.1-10.7-18.64-9.94-32.84-12.15 9.03-41.02 10.66-53.45.5zM716.95 197.56c-4.46.08-9.16.14-13.4.97-2.92.58-5.58 1.53-7.8 3.1.36 8.53 41 12.1 51.9.16-2.3-1.68-5.1-2.67-8.17-3.27-4.07-.8-8.57-.87-12.84-.94 0 2.33.02 4.68.02 7.03l-9.7-.03v-7.04zM724.9 153.97l-6.3.05v49.38l6.43.03zM724.9 155.24l-2.42 23.64 24.32 11.88-12.3-16.46 16.8-5.45zm-2.72-6.16c-3.7 0-6.42 1.38-6.42 3.02 0 1.64 2.73 3.03 6.42 3.03s6.4-1.4 6.4-3.03-2.7-3.02-6.4-3.02z"/></g><g fill="#f7e017"><path d="M314.03 375.88c2.66-.88 4.18-2.5 5.26-5.6.53-1.55.9-3.15.8-3.57-.22-1-1.37-.93-2.63.12-.87.73-.98 1.1-.73 2.57.63 3.73-.7 4.65-7.76 5.4-.7.1-2.73-.03-4.5-.25-3.37-.42-4.57-.1-3.35.92.36.3 1.3.72 2.07.92 1.9.47 8.8.15 10.83-.52zm14.65-.62c.4-.37 1.77-1 3.05-1.4 1.7-.56 2.6-1.15 3.3-2.22 2.08-3.1 1.7-5.75-1.35-9.33-1.65-1.94-2.4-1.9-3.7.27-1.15 1.87-1.12 2 .52 2.42.86.2 1.7.84 2.14 1.62 1.8 3.1 1.26 5-1.4 5.03-2.4.02-3.05.36-3.7 1.9-.33.82-.6 1.68-.6 1.92 0 .66.9.54 1.74-.2zm-4.8-3.5c.45-1.22.6-3.43.55-7.93-.03-3.42-.16-6.33-.3-6.46-.4-.4-2.37.87-2.63 1.7-.13.42.1 1.4.5 2.18.6 1.2.68 2.3.5 6.98-.25 5.9.14 6.9 1.37 3.54zM312.6 368.95c.23-1.1.54-3.35.68-5 .14-1.64.48-3.72.75-4.62.68-2.3 0-2.92-1.83-1.62l-1.35.97.28 3.32c.26 2.97-.22 8.54-.9 10.7-.2.57.08.43.83-.45.6-.7 1.3-2.2 1.53-3.3zm-10 1.6c2.42-2.03 2.14-5.5 2.68-8.34-.06-1.87 1.2-4.13.4-5.77-2.28.4-3.7 2.57-2.52 4.7.1 2.5 0 5.22-1.27 7.42-1.06 1.44-4.38 1.08-4.22-.96.83-3.08-2.85-1.6-4.3-.78-1.1.77-3.44.83-2.63-1.1-.54-2.58-3.85-.97-5.65-.98-1.7-.03-.14-3.45-2.58-2.85-4.54-.37-9.55.03-13.48-2.7-2.3-1.12-1.96-3.88-.76-5.67 1.43-2.44 1.84-5.5 4.1-7.4 2.25-2.15-2.1-1.24-3.1-.5-2.18 1.18-.15 4.27-1.94 5.98-1.05 1.78-2.42 4.23-4.85 3.9-3.5-.67-5.5-3.92-8.02-6.1-2.14-.42-.94 3.5.17 4.3 2.2 1.65 4.75 2.85 7.4 3.56 2.62-.42 2.7 3.02 4.96 3.56 4.13 1.92 8.73 2.5 13.23 2.73 1.77.15.77 3.3 3.1 2.67 1.3.34 4.23-.48 4.38 1.03-1.96 2.34 1.9 2.28 3.32 1.86 1.83-.27 4.17-.96 4.65 1.54 1.53 1.6 4.33 1.37 6.2.45.25-.16.5-.34.72-.54zM262.75 350.38c.74-.94 1.84-2.84 2.46-4.23.6-1.4 1.53-2.97 2.03-3.5 1.17-1.28.52-2.06-1.38-1.64-1 .23-1.4.6-1.57 1.47-.57 2.82-1.6 5.72-2.5 7.06-1.66 2.44-1.7 2.54-1.02 2.54.35 0 1.25-.76 2-1.7zm-24.98-15.65c-1.86 0-1.94 1.18-.12 1.8.88.32 1.62 1.06 2.22 2.26 1.78 3.52 2.82 4.15 7.52 4.55l3 .28.16 1.83c.07 1 .3 1.85.55 1.85.24 0 1.4-.5 2.6-1.1 2.2-1.1 4.3-3.73 4.3-5.35 0-1.06-1.77-2.2-3.37-2.2-.72 0-2.08.57-3.15 1.35-3.36 2.43-6.95 1.94-8.92-1.23-1.6-2.6-3.3-4.04-4.8-4.04zm16.3 6.5c.9 0 1.12.66.64 1.92-.33.86-1.4.9-1.74.04-.4-1.02.15-1.97 1.12-1.97zm126.5-4.1c-1.23.04-1.6.3-2.36 1.46-1.26 1.87-1.4 5.94-.22 7.38.73.9.83.9 2.37.27 2.15-.9 2.5-.86 2.5.3 0 2.94-4.24 8.62-8.66 11.64-1.2.8-2.27 1.7-2.4 2-.3.85 1.33.66 3.35-.37 2.74-1.4 6.35-5.08 7.83-7.98 1.17-2.3 1.34-3.1 1.48-7.14.13-3.72.03-4.8-.6-6.05-.7-1.4-.94-1.52-2.7-1.52-.23 0-.42 0-.6 0zm.14 2.6c.93 0 1.1.2 1.2 1.52.1 1.1-.1 1.76-.7 2.3-.84.76-.9.75-1.64-.36-1.03-1.6-.4-3.47 1.15-3.47zm-20.23 28.45c3.9-1.92 6.2-4.08 7.68-7.2.7-1.5 1.27-2.9 1.27-3.13 0-.54-1.92-1.44-3.07-1.44s-1.38-.78-.9-2.97c.5-2.14-.1-4.82-1.03-4.82-.34 0-.94.5-1.34 1.1-.6.95-.65 1.35-.2 2.72.67 2.03.15 3.54-1.67 4.83-.85.62-1.32 1.32-1.32 2 0 .6.07 1.06.16 1.06.1 0 1.04-.48 2.1-1.07l1.95-1.1 1.14.9c.63.5 1.15 1.3 1.15 1.8 0 2.38-6.78 6.36-11.43 6.74-2.47.2-2.9.1-3.75-.74-.7-.7-.9-1.3-.73-2.12.13-.62.37-1.77.53-2.55.42-2.06-.46-1.78-2 .63-1.26 2-1.63 4.12-.92 5.24.6.9 4.44 1.8 7.17 1.62 1.7-.1 3.4-.58 5.2-1.46zm26.02-14.52c2.45-2.45 3.5-5.43 3.5-10.03v-3.46l2.03-.96c2.64-1.25 5.13-3.74 5.13-5.13 0-1.42-.63-1.35-1.78.2-.83 1.13-1.95 1.8-6.02 3.68-1.03.48-1.1.73-1.33 5.04-.27 4.95-.94 6.8-3.72 10.2-1.7 2.07-1.75 2.35-.57 2.35.5 0 1.73-.85 2.76-1.9zm-26.73-2.77c.24-.73-1.12-1.23-1.7-.65-.25.24-.32.67-.15.94.4.6 1.6.4 1.85-.3zm36.85-9.55c.24-.72-1.12-1.22-1.7-.64-.25.26-.32.7-.15.96.38.62 1.6.4 1.85-.3zm-44.35-25.83c-.95.45-1.44 1.48-2.1 2.27-.48.3-.1.62.17.92 1.7 1.8 2.4 4.26 3.2 6.54.78 2.7 1.77 5.6.95 8.4-.34 1.07-1.18 2.18-2.44 1.82-2.02-.12-4-.66-6.04-.64-1.8.1-3.2 1.74-5.04 1.56-1.18.08-1.13-2.4-2.22-1.75-.54 1.3-.28 2.75-.34 4.12.2.2.78.03 1.12.08h3.63c.26 1.26.22 2.7 1.12 3.7 1.25.44 2.67.05 3.87-.44 1.28-.58 1.45-2.13 1.82-3.33.37-1.3 2.06-.95 3.06-1.46 2.45-.7 4.05-3.25 3.9-5.74-.15-3.82-1.6-7.4-2.7-11.02-.57-1.6-.95-3.25-1.6-4.8-.07-.13-.23-.25-.4-.22zm-6.04 21.8c1.35-.08 1.94 1.6 1.66 2.7-.52 1.5-2.37.54-2.74-.54-.7-.97-.27-2.27 1.07-2.15zM295.96 324.8c-.6 0-1.3.23-1.96.7-3.54 2.48-4.45 5.4-2.04 6.56 1.77.85 1.32 1.84-1.46 3.23-3.98 1.98-7.5 1.73-14.17-1.03-1.64-.68-2.06-.42-1.68 1.08.36 1.48 1.7 2.28 5.06 3.04 3.6.82 7.96.55 10.76-.65 1.37-.6 3-1.82 4.35-3.3l2.18-2.4 2.52.32c3.1.38 3.17.42 3.17 1.9 0 1.18.06 1.2 2.92 1.48 1.6.15 3.7.3 4.7.3 1.25 0 1.97.22 2.4.8.55.78.88.82 5.57.4 4.4-.4 5.25-.36 7.23.3 1.4.5 2.95.68 4.13.56 3.36-.37 8-3.12 8.66-5.14.07-.25 1.3-.68 2.7-.96 3.4-.68 3.54-1.42.37-1.8-1.37-.2-3.43-.7-4.58-1.14-1.16-.45-2.73-.83-3.5-.83-1.7 0-3.32 1.06-3.32 2.16 0 .7.25.8 2.27.58 1.9-.2 2.46-.1 3.46.7.67.53 1.1 1.14.97 1.36-.45.73-4.42 2.53-6.17 2.8-1.17.2-2.12.07-3.04-.4-1.54-.8-3.8-.92-4.23-.23-.18.3-.67.1-1.34-.5l-1.05-1-2.35 1c-2.4.98-3.27.94-3.27-.2 0-.52-.7-.58-4.23-.35-3.9.25-4.3.18-5.02-.63-.67-.75-.7-1-.2-1.77.43-.7.43-1.02 0-1.44-.4-.4-.95-.4-2.5 0-3.85 1.05-4.95.47-4.95-2.55 0-1.82-1.04-2.92-2.37-2.94zm-.96 2.8c.2 0 .38.1.65.38.34.34.52.93.37 1.3-.35.9-2 .88-2.33-.03-.18-.44.03-.93.53-1.3.34-.24.56-.37.77-.36zM288.07 330.4c2.35-1.5 2.3-1.38 2.64-5.53.24-2.92.2-3.14-.6-3.14-1.15 0-1.75 1.26-1.75 3.68 0 1.55-.24 2.25-1.06 3.07-1.97 1.96-6.84 1.06-7.45-1.37-.2-.83.06-1.6 1.08-3.03 2.12-3.02 1.64-3.76-.96-1.47-1.8 1.57-2.12 1.6-1.78.26.3-1.25-.35-1.74-1.8-1.37-.75.17-1.16.64-1.34 1.55-.17.88-.58 1.38-1.3 1.55-1.17.3-3.18-.82-3.18-1.77 0-.7 3-4.4 6.88-8.4 1.46-1.52 2.65-2.94 2.65-3.15 0-.2-.77-.4-1.72-.4-1.4 0-1.73.17-1.73.8 0 .45-1.95 3-4.34 5.7-4.96 5.6-5.37 6.76-2.9 8.25 1.97 1.22 4.5 1.12 6.5-.23l1.6-1.1v2c0 2.54.52 3.45 2.52 4.5 2.5 1.34 5.55 1.18 8.05-.4zm104.37-34.6c-1.84 1.1-.4 3.4-.12 4.95-.76 2.1-3.45 2.66-5.4 3.05-2.8.46-4.77 2.8-5.83 5.26-.58 1.6-1.96 4.1-3.47 1.65-1.3-1.32-3.72-2.37-5.27-.82-1.18 1.12-1.48 2.77-1.92 4.27-.7-1.15-1-2.87-2.48-3.23-2.35.33-1.5 3.3-.4 4.52 1 1.42 1.97 3.3 1 5-.88 2.03-3.88 3.4-5.65 1.66-1.64-.87-.53-3.97-2.16-4.15-.8.58-.87 3.83-2.15 2.07-.94-1.5-.45-3.57-1.58-4.92-1.34.17-2.42 2.47-1.97 3.7 1.78 2.43 2.52 5.45 3.22 8.32.43 1.16-.07 3.5 1 3.94.76-1.85.06-3.95.65-5.82 1.75-.22 3.7.58 5.52.16 2.62-.34 4.64-2.55 5.56-4.9.28-1.78-.05-3.57-.1-5.35 2.07.32 4.22.3 6.2.98 1 1.52-.3 3.64-.58 5.3-1.04 3.36-3.68 5.8-6.24 8.05-1.08.64-1.22 2.32.36 1.42 3.45-1.48 6.02-4.6 7.5-7.98 1.08-2.6.2-5.5.92-8.16 1.04-2 3.55-1.58 5.4-1.57 1.92-.1 3.56-2.32 2.92-4.2-.6-2.15 1.68-3.2 3.24-3.97 2.08-1.04 3.67-3.17 3.5-5.57-.08-1.23-.02-3.55-1.68-3.67zm-7.35 12.5c2.2.58-.42 4.83-1.6 2.14-.36-1.03.5-2.18 1.6-2.15zm-10.33 3.03c2.9-.17 1.86 4.06-.6 2.14-1.25-.64-.83-2.2.6-2.14zm-104.7 16.32c.08-.42-.14-.72-.52-.72-.8 0-1.3.7-.9 1.32.38.64 1.25.28 1.42-.6zm33.9-3.78c0-.62-.24-.86-.76-.76-1.13.23-1.25 1.67-.14 1.67.62 0 .9-.28.9-.9zM262 303.52c-1.35-.28-2.2.87-2.67 1.96-1 1.7-2.24 3.44-4.06 4.34-1.3.36-2.74-.14-3.86-.8-1.35-.68-1.04-2.3-1.62-3.4-.97-.77-2.7.32-2.65 1.5-.1 1.6 1.38 2.52 2.6 3.13 1.06.64 2.6 1 3 2.3-.02 1.1.42 2.37 1.77 1.95 1.5-.03 1.9 1.8 1.3 2.9-.63 1.25-1.05 2.7-.75 4.08.7.6 1.44-1.02 1.96-1.48l1.06-1.42c2.67.15 5.33.5 8 .4 1.9-.04 3.52-1.2 4.73-2.6 1.7-1.78 3.12-3.88 5.07-5.42 1.4-.34.64-2.95-.8-2.2-1.32.5-1.73 1.97-2.64 2.9-1.54 1.88-3.1 3.77-5.06 5.24-1.42.6-3.05.33-4.5 0-.6-.53 1.2-.96 1.46-1.55.83-.84 1.82-1.63 2.3-2.72-.46-1-1.87-1.1-2.87-1.12-2.44.3-4.32 2.37-6.8 2.56-1.9.07-.9-1.97-.06-2.67 1.66-1.98 3.46-3.84 5.2-5.74.5-.6 2.27-1.16 1.13-2-.4-.13-.83-.13-1.25-.14zm1.2 9.98c1.25.7-.78 1.84-1.64 1.68-1.12.34-1.14-.8-.14-1.03.56-.3 1.15-.6 1.8-.65zm-3.8 2.6c.7 0 2.18.67.8 1.1-.97.75-2.07-.76-.8-1.1zM289.43 317.83c0-.94-1.68-.8-1.87.14-.12.62.07.76.86.65.56-.08 1-.43 1-.8zm74.7-6.62c.18-.9-1.08-1.5-1.74-.83-.67.66-.06 1.92.83 1.74.42-.07.82-.47.9-.9zm-116.25-9.14c1.17-1 1.2-1.07.68-3.3-.72-3.1-.67-3.42.5-3.7 1.5-.4 5.3 1.64 6.13 3.27.65 1.26.63 1.34-.48 2.37-1.2 1.1-1.2 2.4 0 2.4 1 0 3.72-2.6 3.72-3.52 0-1.3-3.03-4.33-5.42-5.44-1.48-.7-2.96-1-4.67-1.02-3.07 0-3.48.66-2.66 4.23.97 4.18-.35 4.74-3.72 1.6-2.5-2.35-3.5-4.78-3.47-8.62 0-4.1 1.6-6.14 5.13-6.62 2.36-.3 2.3-.86-.12-1.22-3.53-.53-6.5 1.83-7.65 6.04-1.26 4.67 1.63 10.37 6.74 13.3 2.66 1.53 3.73 1.58 5.28.24zm139.23-5.13c.3-.28.53-.93.53-1.43s.48-1.57 1.08-2.38c.6-.8 1.1-1.63 1.1-1.83 0-.83-1.36-.8-2.43.04-1.1.85-1.9.87-1.9.04 0-.2.5-.63 1.15-.95 1.6-.77 1.72-1.54.38-2.15-1.72-.78-3.45.65-3.63 3-.1 1.57.02 1.85 1.23 2.56 1.1.65 1.3 1 1.13 1.93-.32 1.62.35 2.2 1.38 1.16zm13.1-1.48c.95-.86 1.73-1.84 1.73-2.16 0-.34.83-1.2 1.84-1.93 2.88-2.07 3.5-4.16 2.22-7.36-.5-1.25-2.08-3-5.5-6.07-2.63-2.38-5.05-4.32-5.36-4.32-.93 0-.77 3.45.18 3.75 1.7.54 2.74 1.24 5.43 3.66 3.12 2.83 4.56 5.47 3.77 6.93-.75 1.42-1.75.98-4.5-1.97-1.45-1.55-2.9-2.82-3.18-2.82-.32 0-.55.57-.55 1.35 0 .98.52 1.92 1.95 3.5 2.32 2.6 2.55 4.15.8 5.52-.62.5-1.27.9-1.43.9-.15 0-.67-.77-1.13-1.7-1-2-6.94-8.27-7.83-8.27-.4 0-.6.5-.6 1.5 0 1.2.23 1.64 1.2 2.13 1.17.6 4.1 3.55 7.02 7.1.83 1 1.66 1.83 1.84 1.84.17 0 1.1-.7 2.05-1.57zm5.83-16.7c-.38-1.26-8.37-9.48-9.2-9.48-.42 0-.55.5-.45 1.82.1 1.57.3 1.85 1.38 2.13.68.18 2.8 1.84 4.67 3.67 1.88 1.83 3.54 3.23 3.67 3.1.13-.15.1-.7-.07-1.26zm-47.7 92.5a1.2 1.1 0 1 1-2.37 0 1.2 1.1 0 1 1 2.37 0zm4.2-1.4a1.2 1.1 0 1 1-2.38 0 1.2 1.1 0 1 1 2.38 0z"/></g></svg>