<svg xmlns="http://www.w3.org/2000/svg" width="640" height="480"><path fill="#229e45" fill-rule="evenodd" d="M0 0h640v480H0z"/><path fill="#f8e509" fill-rule="evenodd" d="M321.4 435.94l301.5-195.67-303.32-196.2L17.1 240.73l304.3 195.2z"/><path fill="#2b49a3" fill-rule="evenodd" d="M452.77 240c0 70.33-57.1 127.34-127.54 127.34-70.45 0-127.55-57-127.55-127.33s57.1-127.33 127.55-127.33c70.44 0 127.54 57 127.54 127.34z"/><path fill="#ffffef" fill-rule="evenodd" d="M283.3 316.27l-3.94-2.27-4.1 2.02.92-4.55-3.16-3.33 4.52-.53 2.12-4.07 1.9 4.22 4.46.8-3.35 3.14m86.1 26.22l-3.94-2.28-4.1 2.03.92-4.55-3.16-3.33 4.5-.54 2.14-4.08 1.9 4.22 4.45.8-3.36 3.14m-36.2-30l-3.4-1.96-3.55 1.75.78-3.93-2.73-2.88 3.9-.46 1.84-3.52 1.63 3.64 3.85.7-2.9 2.7m86.87-8.47L414.9 289l-3.46 1.72.78-3.86-2.68-2.82 3.83-.45 1.8-3.46 1.6 3.6 3.8.67-2.85 2.66m-87.35-22l-3.94-2.27-4.1 2.02.92-4.55-3.16-3.33 4.5-.53 2.14-4.08 1.9 4.2 4.45.82-3.36 3.13m-104.6-34.93l-3.95-2.27-4.1 2.02.9-4.55-3.15-3.33 4.52-.54 2.12-4.08 1.9 4.22 4.45.8-3.35 3.14m13.3 57.14l-3.95-2.27-4.1 2.03.92-4.55-3.16-3.33 4.53-.53 2.12-4.08 1.9 4.22 4.46.8-3.34 3.14m131.95-67.33l-3.47-2-3.6 1.78.8-4.02-2.8-2.94 4-.48 1.87-3.6 1.68 3.73 3.94.7-2.96 2.78m-6.66 38.24l-2.74-1.6-2.85 1.42.65-3.17-2.2-2.32 3.14-.36 1.47-2.84 1.32 2.94 3.1.56-2.34 2.18m-142.2 50.42l-2.63-1.5-2.73 1.34.6-3.04-2.1-2.22 3.02-.36 1.4-2.72 1.28 2.82 2.98.54-2.24 2.1m200.14 15.15l-2.14-1.12-2.23 1 .5-2.26-1.7-1.67 2.45-.27 1.16-2.03 1.04 2.1 2.42.4-1.82 1.57M219.26 287.6l-2.63-1.52-2.73 1.36.6-3.04-2.1-2.22 3.02-.36 1.42-2.72 1.26 2.82 2.98.54-2.24 2.1M219.26 287.6l-2.63-1.52-2.73 1.36.6-3.04-2.1-2.22 3.02-.36 1.42-2.72 1.26 2.82 2.98.54-2.24 2.1m42.3 3.03l-2.63-1.53-2.72 1.36.6-3.04-2.1-2.23 3.02-.36 1.42-2.7 1.26 2.8 2.98.55-2.23 2.1m-4.8 16.98l-2.62-1.52-2.72 1.36.6-3.04-2.1-2.22 3-.36 1.43-2.72 1.28 2.82 2.97.54-2.23 2.1m87.38-22.32l-2.63-1.52-2.73 1.36.6-3.04-2.1-2.22 3.02-.36 1.4-2.72 1.28 2.82 2.98.54-2.24 2.1m-25.1 3.03l-2.63-1.5-2.73 1.34.6-3.05-2.1-2.22 3.02-.36 1.42-2.72 1.26 2.82 2.98.54-2.23 2.1m-68.8-5.84l-1.65-.95-1.72.85.4-1.9-1.33-1.4 1.9-.2.88-1.72.8 1.76 1.85.33-1.4 1.3m167.84 45.4l-2.63-1.52-2.72 1.36.6-3.03-2.1-2.23 3.02-.35 1.4-2.73 1.28 2.82 2.97.54-2.23 2.1m-20.83 5.83l-2.2-1.25-2.25 1.12.5-2.52-1.74-1.85 2.5-.3 1.18-2.25 1.05 2.34 2.46.44-1.86 1.73m10.38 2.3l-2.03-1.17-2.12 1.04.47-2.34-1.63-1.72 2.33-.27 1.1-2.1.97 2.18 2.3.42-1.73 1.6m29.1-22.75l-1.95-1.13-2.03 1 .45-2.25-1.57-1.66 2.25-.25 1.05-2.02.94 2.1 2.2.4-1.65 1.55m-38.76 41.8l-2.55-1.4-2.67 1.26.6-2.8-2.05-2.03 2.93-.32 1.38-2.5 1.23 2.6 2.9.48-2.17 1.92m.55 14.25l-2.33-1.4-2.42 1.25.55-2.8-1.87-2.03 2.68-.33 1.25-2.5 1.12 2.6 2.64.48-2 1.92m-18.92-23.05l-1.95-1.13-2.03 1 .45-2.25-1.57-1.67 2.25-.26 1.05-2.03.94 2.1 2.2.4-1.65 1.55M357 313.26l-1.96-1.13-2.03 1 .46-2.25-1.57-1.67 2.24-.26 1.05-2.03.93 2.1 2.2.4-1.65 1.55m-30.4-24.6l-1.96-1.12-2.03 1 .44-2.26-1.57-1.65 2.25-.27 1.05-2.02.94 2.1 2.22.4-1.66 1.55m3.74 57.02l-1.66-.95-1.72.85.4-1.9-1.34-1.4 1.9-.24.9-1.7.78 1.77 1.88.34-1.4 1.33M283.3 252.6l-3.94-2.28-4.1 2.03.92-4.55-3.16-3.33 4.52-.53 2.12-4.08 1.9 4.22 4.46.8-3.35 3.14"/><path fill="#fff" fill-rule="evenodd" d="M444.37 285.82c1.94-5.1 4.45-12.75 5.78-19.8-67.74-59.5-143.26-89.98-238.68-83.7-3.42 6.55-6.16 13.4-8.47 20.84 113.06-10.78 195.94 39.27 241.37 82.66z"/><path fill="#309e3a" d="M413.9 252.36l2.43 1.32c-.38.86-.48 1.6-.3 2.25.17.65.62 1.2 1.33 1.7.75.5 1.42.73 2 .67.6-.06 1.06-.3 1.35-.73a1.27 1.27 0 0 0 .23-.87c-.02-.3-.2-.66-.5-1.07-.2-.28-.7-.87-1.52-1.78-1.03-1.16-1.65-2.14-1.85-2.93-.28-1.13-.1-2.14.5-3.06.4-.6.95-1.03 1.62-1.32.7-.3 1.44-.36 2.24-.2.82.16 1.68.54 2.56 1.14 1.46 1 2.33 2.05 2.63 3.2.3 1.13.1 2.24-.57 3.33l-2.4-1.47c.3-.67.37-1.24.2-1.72-.14-.48-.54-.94-1.2-1.4-.67-.45-1.3-.67-1.87-.65a1 1 0 0 0-.86.46c-.18.3-.23.6-.13.96.13.45.67 1.2 1.63 2.23.95 1.03 1.6 1.88 1.95 2.54.35.65.5 1.34.48 2.05-.02.7-.3 1.4-.78 2.15a4.1 4.1 0 0 1-1.8 1.5c-.77.32-1.58.4-2.45.23-.86-.18-1.8-.6-2.8-1.3-1.46-.98-2.36-2.08-2.68-3.3-.33-1.2-.13-2.5.6-3.9zm-11.46-7.53l2.47 1.22c-.34.87-.4 1.63-.2 2.26.2.64.66 1.2 1.4 1.64.76.48 1.44.68 2.03.6.6-.1 1.04-.35 1.3-.8a1.25 1.25 0 0 0 .2-.86c-.04-.3-.22-.65-.54-1.06-.23-.27-.76-.84-1.6-1.7-1.1-1.13-1.76-2.08-2-2.87-.3-1.1-.18-2.13.4-3.08a3.62 3.62 0 0 1 1.56-1.38c.67-.32 1.42-.42 2.23-.3.8.13 1.67.48 2.58 1.04 1.5.93 2.4 1.96 2.75 3.08.35 1.12.2 2.25-.42 3.36l-2.46-1.38c.28-.68.33-1.25.15-1.73-.17-.48-.6-.93-1.27-1.35-.7-.43-1.33-.63-1.9-.6-.37.04-.65.2-.84.52-.18.28-.2.6-.1.94.15.45.72 1.17 1.7 2.17 1 1 1.7 1.82 2.06 2.46.38.66.57 1.33.57 2.04 0 .7-.23 1.44-.7 2.2a4.16 4.16 0 0 1-1.74 1.56c-.76.36-1.57.47-2.44.34-.87-.14-1.82-.54-2.85-1.18-1.5-.93-2.43-2-2.8-3.2-.38-1.2-.23-2.5.43-3.93zm-14.2-3.8l7.27-11.98 8.84 5.42-1.23 2.03-6.42-3.95-1.6 2.66 5.97 3.67-1.22 2.02-6-3.68-1.97 3.26 6.66 4.08-1.23 2.02-9.07-5.56zm-20.7-17l1.08-2.1 5.4 2.8-2.55 4.96c-.8.22-1.78.28-2.98.16a9.36 9.36 0 0 1-3.33-1c-1.3-.66-2.3-1.52-2.97-2.56a5.9 5.9 0 0 1-.98-3.47 8.6 8.6 0 0 1 .98-3.7c.66-1.3 1.53-2.32 2.6-3.05 1.05-.72 2.24-1.1 3.56-1.1 1 0 2.1.32 3.3.93 1.53.8 2.57 1.76 3.1 2.86.53 1.1.63 2.28.3 3.55l-2.74-.8c.14-.7.06-1.36-.25-1.97-.3-.6-.8-1.1-1.52-1.47-1.1-.56-2.15-.67-3.16-.3-1 .36-1.86 1.23-2.56 2.6-.76 1.48-1 2.76-.73 3.84.28 1.07.95 1.9 2.02 2.44.52.27 1.1.44 1.73.5.64.07 1.22.06 1.75-.04l.8-1.6-2.86-1.47zm-90.24-22.38l2.03-13.87 4.17.62 1.12 9.83 3.86-9.1 4.2.62-2.04 13.87-2.6-.38 1.6-10.92-4.33 10.5-2.68-.38-1.13-11.32-1.6 10.9-2.6-.37zM263.2 200l1.3-13.95 10.3.97-.22 2.36-7.5-.7-.3 3.1 7 .65-.23 2.35-6.98-.66-.36 3.8 7.78.73-.22 2.36-10.57-1zM216.5 191.28c.04-1.43.28-2.62.74-3.58a6.65 6.65 0 0 1 1.34-1.88c.57-.56 1.18-.96 1.85-1.2.88-.36 1.88-.52 3.02-.5 2.05.07 3.68.75 4.88 2.07 1.2 1.3 1.77 3.1 1.7 5.38-.05 2.26-.7 4.02-1.97 5.27-1.26 1.24-2.92 1.83-4.97 1.77-2.08-.05-3.7-.73-4.9-2.03-1.2-1.32-1.76-3.1-1.7-5.32z"/><path fill="#f7ffff" d="M219.4 191.25c-.03 1.6.3 2.8 1 3.65.72.83 1.64 1.27 2.76 1.3 1.12.03 2.05-.35 2.8-1.14.74-.8 1.13-2 1.18-3.64.04-1.6-.28-2.8-.96-3.62-.68-.8-1.6-1.23-2.76-1.26-1.16-.03-2.1.35-2.84 1.13-.74.78-1.12 1.97-1.17 3.58z"/><path fill="#309e3a" d="M233.05 198.5l.16-14 5.95.06c1.5.02 2.57.16 3.24.42.67.26 1.2.7 1.6 1.36s.6 1.4.6 2.22c-.02 1.05-.34 1.92-.97 2.6-.62.67-1.55 1.1-2.77 1.26.6.36 1.1.76 1.5 1.2.38.42.9 1.18 1.57 2.28l1.67 2.76-3.37-.04-2-3.08c-.7-1.1-1.2-1.8-1.46-2.07-.27-.3-.55-.5-.84-.6-.3-.1-.77-.16-1.42-.17h-.56l-.07 5.84-2.82-.03z"/><path fill="#fff" d="M235.98 190.46l2.08.02c1.36.02 2.2-.03 2.54-.14.34-.1.6-.3.8-.6s.3-.6.3-1.03c0-.47-.12-.85-.38-1.14-.24-.3-.6-.48-1.05-.56-.23-.04-.9-.06-2.05-.08l-2.2-.02-.04 3.55z"/><path fill="#309e3a" d="M249 185.2l5.15.25c1.16.06 2.04.2 2.64.4a4.68 4.68 0 0 1 2.03 1.4c.55.64.95 1.42 1.2 2.34.27.9.37 2 .3 3.3-.05 1.17-.25 2.15-.58 2.97-.4 1-.93 1.8-1.6 2.4-.52.45-1.2.8-2.05 1.02-.63.15-1.47.2-2.5.16l-5.3-.27.7-14z"/><path fill="#fff" d="M251.7 187.7l-.46 9.26 2.1.1c.8.05 1.36.03 1.7-.04.47-.1.86-.27 1.17-.53.33-.27.6-.7.82-1.32.22-.62.36-1.47.42-2.55s0-1.92-.16-2.5c-.16-.6-.4-1.06-.73-1.4-.33-.35-.75-.6-1.27-.73-.4-.1-1.16-.2-2.3-.25l-1.27-.07z"/><path fill="#309e3a" d="M317.63 210.22l3.26-13.63 4.4 1.05c1.66.4 2.73.73 3.2 1 .73.38 1.27 1 1.63 1.8.36.8.4 1.76.16 2.84-.2.83-.53 1.5-.97 2-.44.5-.93.84-1.48 1.06-.54.2-1.07.3-1.57.3-.7-.03-1.65-.2-2.9-.5l-1.78-.42-1.23 5.14-2.74-.66z"/><path fill="#fff" d="M323.1 199.55l-.94 3.87 1.5.36c1.08.26 1.82.37 2.22.3a1.85 1.85 0 0 0 1.58-1.44c.12-.5.07-.94-.14-1.33a1.94 1.94 0 0 0-.96-.86c-.3-.14-.96-.33-1.95-.57l-1.3-.32z"/><path fill="#309e3a" d="M330.6 214.1l4.65-13.2 5.6 1.97c1.4.5 2.38.98 2.93 1.44.56.47.92 1.07 1.1 1.82s.1 1.5-.16 2.28c-.35 1-.93 1.7-1.74 2.16-.8.43-1.8.53-3.03.3.46.53.8 1.07 1.03 1.6.24.54.5 1.43.77 2.7l.7 3.14-3.18-1.13-.9-3.55c-.34-1.27-.58-2.08-.73-2.44-.16-.36-.36-.64-.6-.83-.26-.2-.68-.4-1.3-.63l-.53-.2-1.93 5.53-2.66-.94z"/><path fill="#fff" d="M335.94 207.43l1.96.7c1.28.44 2.1.67 2.45.67.35 0 .67-.1.94-.3.26-.2.47-.5.6-.9.16-.43.17-.83.03-1.2-.14-.35-.4-.64-.82-.86-.2-.1-.83-.35-1.9-.73l-2.1-.73-1.16 3.36z"/><path fill="#309e3a" d="M347 213.6c.43-1.36 1-2.44 1.68-3.24a6.58 6.58 0 0 1 1.8-1.45c.7-.37 1.4-.6 2.1-.66.95-.1 1.97.03 3.05.37 1.97.63 3.34 1.73 4.14 3.32.8 1.6.87 3.48.2 5.66-.68 2.16-1.8 3.67-3.34 4.53-1.55.86-3.3.98-5.26.37-1.98-.62-3.37-1.72-4.16-3.3-.8-1.58-.85-3.44-.2-5.57z"/><path fill="#fff" d="M349.83 214.38c-.47 1.52-.48 2.78-.03 3.78.46 1 1.22 1.67 2.3 2 1.07.34 2.06.23 3-.33.92-.57 1.63-1.62 2.1-3.18.5-1.53.5-2.78.07-3.75-.43-.96-1.2-1.6-2.32-1.96-1.1-.35-2.12-.24-3.04.3-.9.56-1.6 1.6-2.08 3.15z"/><path fill="#309e3a" d="M374.3 233.12l6.42-12.45 5.27 2.74c1.32.7 2.22 1.3 2.7 1.85.5.53.77 1.18.83 1.94s-.1 1.5-.47 2.23c-.48.93-1.15 1.56-2 1.9-.87.3-1.88.27-3.06-.14.38.6.65 1.17.8 1.73.16.57.3 1.5.4 2.77l.25 3.2-3-1.54-.4-3.65c-.15-1.3-.27-2.13-.38-2.5-.1-.38-.27-.7-.5-.9-.2-.25-.6-.5-1.18-.8l-.5-.28-2.7 5.2-2.5-1.3z"/><path fill="#fff" d="M380.5 227.23l1.86.96c1.2.6 1.97.95 2.33 1 .34.06.66 0 .96-.16.3-.16.54-.43.73-.8.2-.42.27-.82.18-1.2-.1-.36-.32-.7-.7-.97-.18-.13-.78-.46-1.8-1l-1.95-1-1.63 3.16z"/><path fill="#309e3a" d="M426.1 258.7c.8-1.18 1.65-2.05 2.54-2.62a6.6 6.6 0 0 1 2.15-.86 5.45 5.45 0 0 1 2.2-.03c.92.18 1.85.6 2.8 1.23 1.7 1.16 2.7 2.6 3 4.37.32 1.75-.16 3.58-1.44 5.47-1.26 1.87-2.76 3-4.5 3.37-1.72.36-3.43-.03-5.13-1.18-1.72-1.17-2.73-2.63-3.04-4.37-.3-1.75.16-3.55 1.4-5.4z"/><path fill="#fff" d="M428.58 260.25c-.9 1.32-1.26 2.52-1.1 3.6.14 1.1.68 1.96 1.6 2.6.94.62 1.93.8 2.97.54 1.06-.28 2.04-1.08 2.95-2.43.9-1.33 1.27-2.52 1.13-3.57-.14-1.05-.7-1.9-1.65-2.56s-1.97-.85-3-.58c-1.04.26-2 1.06-2.9 2.4z"/><path fill="#309e3a" d="M301.82 204.52l2.25-9.84 7.27 1.68-.38 1.66-5.28-1.22-.5 2.18 4.92 1.14-.4 1.65-4.9-1.13-.62 2.68 5.48 1.26-.38 1.66-7.46-1.72z"/></svg>