<svg xmlns="http://www.w3.org/2000/svg" width="640" height="480"><path fill="#ffd520" d="M.1 0h640.1v480H.1z"/><path fill="#ff4e12" d="M.1 480h640.1V0z"/><g stroke="#000" stroke-width=".521"><g fill="#fff"><path d="M345.4 150.07c-4-1.4-6.57.65-6.44 5.8.12 5.15 2.83 8.1 6.82 6.18l-.4-11.98zM348.9 140.42c-3.33-2.62-6.43-1.5-7.96 3.42-1.53 4.92.08 8.6 4.48 8.05l3.48-11.48zM354.43 131.1c-2.86-3.14-6.1-2.52-8.4 2.1-2.3 4.6-1.3 8.48 3.13 8.65l5.27-10.76zm-3.63 45.37c-4.9 1.8-5.4 8.5-2.32 12.62 3.1 4.1 8.76 4.9 11.85 0l-9.53-12.63zM345.14 162.3c-4.64-1.54-8.82 4.7-9.53 10.3-.9 7.1-10.94 9.4-5.4 20.1 1.16-6.83 5.67-10.56 9.27-10.82 3.6-.26 9.02-1.03 11.33-5.4l-5.66-14.18zm14.68 27.56c-5.4 1.3-6.2 8.5-2.32 13.65 3.3 4.43 13.65 3.36 13.4-1l-11.08-12.63zm15.32 43.4c.26-4.63-7.2-6.43-10.8-5.53-3.62.9-10.5-.13-12.12-4-1.3 3.1.58 6.44 5.8 8.12 3.94 1.27 3.86 4.12 2.7 5.4 2.96.52 11.72.52 14.42-4zM370.9 203.65c-5.28-2.32-8.4 1.2-10.43 4.63-2.97 5.03-12.1-1.4-15.2 5.28 4.2-1.8 8.45 2.05 10.43 3.35 5.67 3.75 16.6 2.6 18.16-6.17l-2.96-7.08zM373.98 209.82c-5.28 4-7.34 8.76-7.2 11.98.12 3.22 4.63 10.3 9.52 10.7 2.84-5.8 4.25-18.04-2.32-22.68zm-21.88 24.86c0-1.93 2.83-2.7 4.76-2.06 1.93.64 4.9 2.58 3.86 4.64l-8.62-2.58zm-29.12-10.56c-.5-2.32 3.22-6.3 8.25-4.12 5.02 2.2 5.66 6.44 3.6 8.1l-11.85-3.98zM335.22 228.37c-.4-1.3 3.23-3.86 9.4-2.32 6.18 1.54 7.7 5.52 7.47 8.63l-16.88-6.3zm-12.88-4.25c3.22-2.45 2-7.08-.9-8.5-5.28-2.58-3.35-9.27-6.7-10.56-3.34-1.3-6.56-3.6-6.7-5.92-1.67 3.22-.64 6.18 1.68 8.24 2.32 2.06-1.8 10.43 1.16 12.62l11.46 4.12zm-69.03-1.8c-2.7-4.25-9.13-3.48-11.84-.52-2.7 2.97-2.3 7.34.26 9.28l11.6-8.76zm15.47-6.3c-1.03-5.68-7.86-6.32-11.6-4.9-3.73 1.4-6.3 7.08-3.86 11.2l15.47-6.3zM279.07 215.23c2.45-4.76-2.32-11.85-7.72-12.88-4.52-.86-9.86-.83-11.6-5.28-1.1 3.87 1.8 6.3 5.16 8.5 3.35 2.2-.64 7.86 4.77 11.08l9.4-1.42zM278.56 215.4c-1.13-3.4 1.16-7.96 5.8-7.64 4.6.32 7.25 3.68 5.2 7.9l-11-.26zM288.86 215.66c-.64-3.54 2.26-7.72 6.8-6.75 4.53.97 6.67 4.67 4.06 8.55l-10.86-1.8zM299.1 217.28c-.47-3.57 2.63-7.6 7.12-6.4 4.48 1.2 6.43 5 3.63 8.73l-10.76-2.32zm-77.72 59c-8.63 0-10.74 2.05-11.98 10.95-1.55 11.07 13.52 12.36 11.98-10.95zM225.24 264.7c-13.27-5.04-20.48 15.96-33.6 12.22 4.7 7.47 16.08.02 20.34.77 7.2 1.28 22.8-1.42 13.26-13zm-8.63 28.7c-6.56-2.95-13.64 7.1-12.35 11.47 1.63 5.56 16.6 1.03 12.36-11.46zm-30.64 43.28c3.6 1.03 7.98 3.1 7.2 10.04-.76 6.96-13.9 21.12-25.74 21.9-11.85.77-16.1 15.06-26.28 11.07 9.53-1.8 9.53-12.63 17-15.98-5.4-1.93-8.24 10.3-15.2 10.3-6.95 0-10.3 11.08-18.8 10.3-8.5-.76-9.4 13.5-26.4 13.66-13 .13-29.1 15.32-34.9 8.76 12.62-1.8 17.72-8.8 25.25-16.5 12.1-12.35 25.74-6.8 30.38-17.76a31.65 31.65 0 0 1-18.3 5.4c-7.9-.15-16.6 12.63-25.5 6.96 5.16-.64 8.5-2.83 13.92-8.5 5.54-5.8 13.67-2.05 20.1-7.98 10.04-9.27 18.67-1.55 28.32-13.14-2.7-1.28-8.5-.38-13.9 2.45s-12.37-1.93-18.55 1.42c.77-7.6 15.2-3.26 24.2-8.5 10.2-5.94 18.62-4.2 26.67-3.5-11.2-.05-15.58-10.68-31.04-7.6-6.74 1.36-12.1-9.26-18.8-3.85.2-4 7.2-7.2 14.43-3.35 7.2 3.86 10.1-3.38 24.47 5.67 5.92 3.73 16.1-2.32 22.53 1.67-.84-2.45-4.5-4-8.82-3.67 2.7-5.54 20.16-4.83 27.76.7zM197.42 328.3c-5.66-4.38-13.52.9-18.93-1.16 0 3.6 1.8 9.02 7.72 11.08 1.8-1.3 9.92-8.37 11.2-9.92zM206.3 315.82c-8.87-4.5-10.42 6.7-17.37 4.37.25 3.22 2.83 7.2 8.5 8.1l8.88-12.48zM211.6 305.64c-13.14-5.15-14.82 7.47-22.54 5.02 1.8 4.38 12.87 6.7 18.54 5.15l4-10.16zm18.02-55.25c-3.48-4.9-10.82-.9-11.98 4.9-1.16 5.78 1.67 13.9 6.57 12.1l5.42-17zM238.5 234.94c-6.05-1.42-13-.78-12.23 5.15-2.32 1.02-2.96 8.62 3.35 10.3l8.88-15.46zM242.5 230.94c-5.93-6.95-12.53-6.8-16.23-3.86-6.83 5.4-13.46 2.32-13.65 7.73 4.12-3.15 7.73.65 11.07-.5 3.34-1.17 5.8 5.27 15.06 2.57l3.74-5.93zm-14.3 103.94c.9 1.67 6.44 2.45 9.14-.4 3.6-3.74-.38-14.15-6.05-14.93-5.68-.77-6.2 11.72-3.1 15.33zM221.76 335.14c8.1 2.96 11.6-3.74 7.2-8-1.15 1.43-5.4 6.58-7.2 8zM191.37 346.2c-1.55 4.65-9.53 5.42-18.55 19.84-9 14.43-17.64 8.37-19.83 18.3 10.8-8.77 19.3-2.95 25.75-11.6 9.78-13.14 17.84-11.25 21.63-20.1 5.4-12.6 29.1-12.36 30.4-32.2-8-1.53-33.23 19.84-39.4 25.77zM394.6 151.5c10.3 3.34 10.55 16.73 22.4 21.1 11.85 4.4 13 14.95 22.66 12.37-9-2.45-8.37-12.88-17.77-15.45-11.03-3.02-15.2-19.84-23.96-22.4m43.92 74.3c1.8 4.12 1.54 11.46-4.9 13.4 3.48 2.18 8.63.12 11.46-4.65-4.25 9.4-1.4 17.9 5.28 19.58-3.22-6.57 4-9.66 1.68-13.9 4.25 1.8 7.98 7.6 7.85 11.2 5.54-6.2-4.12-14.43-2.3-20.22l-19.07-5.4zm-66.72 66.2c-6.3-5.55-9 1.44-12.1-.98-2.9-2.25-6.76-2.57-8.24-.32 5.4.2 2.76 4.38 13.26 5.4-10.5.72-8.56 12.44-15.58 11.86 7.47 7.08 11.33-6.3 17.38-4.12-1.8.5 2.84 4.76-.38 10.43 5.2-.14 7.34-7.35 7.98-11.1l-2.32-11.2zm-138.96 60.13c-2.3-1.93-9-2.83-11.6-1.28-2.56 1.54-1.66 1.93 1.43 2.2 3.1.24 7.1 5.24.4 5.52-3.1.12-2.06 7.6-8.5 8.1 2.64 3.23 10.17 1.1 12.87-2.44-.5 2.9 3.35 5.54 1.8 9 4.77.53 2-9.64 9.54-9.13-3.08.4-1.8 7.34 3.6 5.54-3.2 1.54-1.53 5.28 2.07 4.38-2.3.77-3.1 3.73.13 5.4 3.1-4.24-.38-19.44-11.72-27.3zm280.5-142.1c9.86 0 17.85-8 17.85-17.84 0-9.85-8-17.84-17.85-17.84-9.86 0-17.85 8-17.85 17.85 0 9.86 8 17.86 17.85 17.86zM423.44 227.22c5.4-5.15 13.65-7.73 19.32-3.87 5.66 3.87 24.47 8.5 33.74 2.06 9.27-6.43 13.65-9.77 17.77-9 3.1 4.63 6.83 6.82 11.46 7.2 1.42 1.56 6.44 2.84 9.28 2.46 4.13 1.03 9.15-.26 13.14-4.64 6.18.9 11.98-3.73 14.17-10.7 6.57-.76 6.96-8.1 2.84-13-3.86-.77-.9-13.78-14.94-11.2 5.93 3.6 1.42 10.82 6.3 14.17-3.34 0-7.65 1.4-8.68 6.43 1.3-3.48-.2-5.8-1.1-6.57.13-2.96-6.43-10.24-12.62-7.6 4.45.97 1.94 8.1 5.16 10.82-2.32.13-4.77 1.28-6.2 3.35-1.66-2.97-7.58-6.06-11.2-6.3 0-1.04-.18-3.1-.63-4.14-1.6-3.1-2.97-6.77-2.32-11.47-3.08 3.35-5.66 8-7.2 11.34-4.9-3.35-17 1.54-22.67 2.83-5.67 1.3-24.73-1.8-29.1-6.44-4.38-4.64-12.88-7.47-20.87-9.8C408.08 180 408 168 395.88 159.74c-.26 14.94 22.4 62.33 27.56 67.5zm-126.2 113.84c9.52 0 17.25-7.73 17.25-17.26 0-9.53-7.74-17.26-17.27-17.26s-17.26 7.73-17.26 17.26c0 9.53 7.73 17.26 17.26 17.26zM256.02 327.8c3.47 4.5 9.4 4.24 11.84 3.86 2.06 5.4 8.63 5.28 11.47 8.24 2.83 2.96 12.5 2.7 15.32 1.03-2.57-.26-5.92-1.8-9.14-4.5-3.88-3.27-2.05-9.8-5.14-12.12 2.3-2.56 2.7-6.8 2.2-8.5 2.43-1.4 4.24-3.72 4.5-4.88 4.24-.26 7.98-2.45 9.52-4.12 2.2 2.06 7.73-.64 10.7 2.83.64-8.5-7.48-13-12.9-10.17-2.18-1.16-7.97-.4-9 1.16-1.8-.77-6.83 1.8-9.14 3.48 2.57-1.42 2.96-5.67 1.93-7.22 2.2-.9 4.63-3.86 4.9-6.05 3.08.52 7.72-1.54 9.78-1.03-3.35-4.38-8.9-5.92-14.55-5.54-5.86.33-8.37 4.45-9.15 8.9-3.47 2.05-4.63 9-3.35 11.45-2-.05-3.86 1.88-4.63 2.97-2.7-1.16-6.57-2-9.34-2m1.23-7c-1.16-3.36.37-6.37 1.15-9.02 2-6.77.8-8.5-5.27-7.6-.5 3.22 2.58 13.78 4.13 16.6zM248.62 282.33c1.54 1.54 7.02 2.25 7.6-2.64.66-5.63-1.62-7.8-6.5-5.6-.4 1.27-.85 6.55-1.1 8.23zM249.78 273.9c2.06.83 6.5 2.5 8.95-2.26 2.05-4-.65-7.08-4.9-6.82-1.03 1.16-3.1 5.28-4.05 9.08zM253.58 264.43c.5 1.55 5.8 6.7 9.65 2.96 3.87-3.74 3.87-9.28-1.93-11.34-1.54.26-6.18 5.67-7.72 8.37zM261.3 256.06c1.15 3.22 4.76 8.76 11.46 6.2 6.7-2.6 3.86-10.96.77-12.63-1.8.12-9.14 3.47-12.23 6.43zM273.54 249.62c-.52 2.84 0 10.56 9.14 10.43 9.14-.12 6.57-10.8 4.25-12.36-3.74 0-10.05.12-13.4 1.92zM287.3 248.07c-1.02 2.2-3.34 16.6 14.57 12.62 2.3-.52 8.37-13.8-14.56-12.63zM297.1 249.36c-1.8 1.8 2.83 16.36 14.94 13.9 12.1-2.44 1.93-16.22-14.94-13.9zM307.4 251.55c-1.93 4 .97 15.84 15.9 15.84 13.54 0-.7-15.6-15.9-15.85zM319.12 255.03c-.97 2.22-2.16 14.78 15.45 15.84 12.75.78 9.66-17.25-15.45-15.84zM338.06 260.3c-2.2 3.88-4.5 13.53 14.8 14.3 12.38.5 4.77-14.03-14.8-14.3zM354.15 263.27c-2.83 3.87-.74 11.44 6.44 12.88 9 1.8 10.3-6.7 4.1-10.82-6.17-4.12-10.55-2.06-10.55-2.06zM362.9 265.07c-2.05 3.6-.77 12.37 12.9 12.37 2.82 0 13.64-11.08-12.9-12.37zM257.2 433.02c11.07 0 20.04-8.97 20.04-20.04 0-11.06-8.97-20.03-20.04-20.03-11.06 0-20.03 8.97-20.03 20.03 0 11.07 8.97 20.04 20.03 20.04zM404.12 141.7c-1.55 1.55-4.76 6.2-5.4 8-6.7 20.08 11.17 35.1 21.63 56.65 8.24 17 7.2 43.8-5.67 60.8-4.4 5.8-3.1 7.46-8.76 13.38-2.17 2.27-4.63 5.15-3.86 13.4 3.6-1.3 8.76 2.06 9.8 4.9 2.56-1.3 6.17-.78 7.46.76 4.37-2.07 7.98-1.04 11.84 3.08 3.35-.5 6.96 0 10.3 3.6 1.8-3.6 5.42-4.88 8-4.1-.27-4.65 4.37-8 8.5-6.2-1.3-6.18 4.37-10.8 9.78-9 4.63-3.6 13.9-3.87 18.54 1.54-8.24-2.32-7.98 6.44-14.94 5.66 1.8 5.15-2.83 8.12-7.46 9.8 2.96-1.43 6.18-3.1 7.2-1.3 2.58-2.25 7.73-1.4 9.02-.25 3.4-1.1 6.7-.26 8.24 3.86 4.64 2.82 7.73 10.03 4.38 15.44-1.03-5.66-4.9-5.4-6.44-7.72-3.6 1.28-7.2 1.28-8.24-1.03-2.06 2.05-9 3.85-12.1.76-1.16 4.63-5.16 8.5-9.8 8.5 1.3 3.6-2.3 9.8-5.14 12.88 4.38 2.3 3.1 7.47 2.06 10.56 6.7 1.03 1.03 6.95 12.62 10.8-5.67 1.82-16.74 0-18.3-6.94-5.66-.26-9.52-5.92-9.26-11.85-4.38-4.1-5.02-10.03 1.03-14.15-5.15 1.54-8-6.7-15.46-3.35-3.72 1.66-13.53-1.16-13.4-4.64-1.54 2.58-10.94 1.55-12.23-2.83-3.1 1.67-10.3-1.16-10.18-5.4-4 1.8-9.4-1.43-9.15-5.55-3.73-.5-4.12-3.86-3.86-6.7-3.36-1.54-2.46-4.76-1.17-8.62-2.32-2.58-1.3-6.2.5-9.53-2.56-2.58-2.05-5.67-1.28-9.28-12.36-1.03-27.85-4-63.36-14.93-53.58-16.5-68 22.15-56.16 46.36 13.67 27.93-1.54 34 3.1 54.86 4.9 1.03 7.46 5.15 7.2 9.53 2.9.13 4.96 2.83 3.93 7.98 2.45-.45 5.6.26 7.66 2.32 1.8-3.35 7.73-4.12 10.82-.26 6.7-.5 10.05 4.9 9.8 11.6 3.6 6.44 2.3 14.3-1.55 19.32.38-2.7 0-6.57-.13-8.88-.24-4.27-6.18-5.16-5.54-8.63-3.1.26-6.05-1.4-7.08-3.73-1.8 1.55-4.38 2.06-6.57 1.3 3.47 1.54 6.18 7.72 5.15 11.84 1.8 3.1 1.42 8.77-.77 11.2-1.03 5.03-4.9 6.84-9.92 4.65 2.83-1.8 3.86-5.02 3.73-7.73-1.8-1.54-2.7-4.5-2.83-6.3-5.02.76-11.98-3.5-13.26-5.17-11.06 0-20.03 8.97-20.03 20.04-.52-4.13-5.73-8.2-5.1-11.67-3.08-9.53 1.3-18.42 13.92-20.22-1.54-3.6 3.87-7.33 1.8-11.45-2.63-5.26-7.46-12.1-14.67-20.1 4.37-7.46 3.1-17.5.5-23.7-3.7-8.86-7.2-6.68-20.34 7.74-21.4 23.5-49.97 17-75.2 32.44-6.7 4.1-13.4 5.67-6.2-1.54 7.22-7.2 26.28-14.42 38.65-20.6 23.16-11.58 42.76-30.9 50.5-68.52 18.15-88.37 84.98-59.24 127.22-42.75 39.66 15.47 32.45-19.58 12.36-40.7-24.14-25.38-19.3-45.33-7.98-61.3 20.35-2.83 59.37 4.25 51.5 11.08zM475.86 358.78c12.17 0 22.04-9.86 22.04-22.04s-9.87-22.04-22.04-22.04c-12.18 0-22.05 9.87-22.05 22.04s9.88 22.04 22.06 22.04z"/></g><g fill="none"><path d="M391.76 142.73c-4.9 21.63-.77 31.42 6.44 40.95 14.9 19.7 26.8 64.65 9.8 94M417.5 252.33c2.07-.78 5.94-3.22 6.84-7.47m-5.28-1.93c.64-3.74 6.43-5.35 6.56-9.34m-6.44-5.23c-.38-3.87 5.8-7.34 4.9-11.2m-8.24-2.7c-.52-2.2 5.15-6.32 3.6-9.8m-7.85-3.73c-1.17-2.44 2.7-5.28 1.02-7.85m-7.2-2.98c-.4-1.67 1.98-5.34.7-7.53m-6.9-5.22c.52-.65 2.58-2.2 1.74-4.12m-5.98-5.22c.83-.45 3.34-1.22 3.02-3.1M266.06 410.86c-5.15-1.8-11.6.77-12.87 5.15m3.85 4c.64-4.38 7.34-6.3 9.4-4.25-4.25-2.32-6.3 5.92-2.58 6.18m34.65-103.8c-3.1 1.55-4 7.22 0 11.47m4.63-10.18c-2.18 1.8-2.06 7.22 1.16 8.5-2.7-1.93 0-5.28 1.95-5.4 1.93-.13 3.2 2.2.9 4.5m176.95 5.15c-7.2-1.93-13 6.44-6.44 13.9-.13-7.2 5.02-11.97 11.33-10.68m-2.9 4.98c-1.8 0-2.78 1.38-2.78 2.73 0 1.43 1.22 2.78 3.22 2.78 1.3 0 2.32-1.48 2.32-2.64m22.66-160.98c1.16 4.38 7.2 6.2 11.98 5.16m0-2.84c-3.74.13-6.83-3.34-6.57-6.3 0 2.18 5.02 3.2 6.57 1.8M267.86 331.66c-1.03-2.58 3.1-5.16 3.22-7.6.13-2.45 4.64-4.38 9.28.25m-2.2-27.4c-.9.37-1.67.9-2.44 1.15m11.34 12.87c-1.1.06-3.35-.06-4.58-.9m.07 5.8c-.9.45-2.9 1.22-4.06 1.48m-40.12 76.3c-.13 2.32 2.2 5.67 3.47 6.7m6.57-12.24c-1.28 1.93-2.06 5.28-1.28 7.6m20.47.13c-2.3-1.56-.77-5.55-1.02-8.12-.26-2.58 2.7-6.7 8.5-3.22m-29.1-3.35c2.3-.38 4.76-.25 6.3.4m23.06-7.73c-1.03 1.4-1.3 2.96-1.42 4m12.23-4.26c-1.8 0-3.35 1.3-4.12 2.6m-20.86-68.52c2.06.7 7.4 4 7.6 7.4m14.3-24.15c-6.32-.13-8.76-6.57-4-6.57m15.33 15.2c-2.45 1.03-1.3 5.28 2.2 7.34m-17.27 33.1c-1.23-1.55.38-6.05 4.38-4.7m5.03 51.7c.25-3.92 5.2-6.24 7.2-1.8m-25.5 13c-.3-4.3 1.88-5.73 3.8-5.98 1.94-.26 4.7 1.35 6 4.18m-48.17 5.03c.26-2.58 2.45-5.28 4.77-4.9m230.9-109.46c-1.67 1.22-2.76 6.7 3.6 7.2m-13.38 1.8c0 .66.84 1.56 1.36 1.95m29.04 8.37c-1.67-1.3-6 3.92-2.06 7.7m-38.9 35.56c-.95-3.67 2.46-4.64 5.68-3.86m-13.9-22.16c1.92-1.28 3.86-2.7 6.3-3.34m-7.34 17.5c0-3.1 1.54-5.66 2.96-6.43m8.37-29.1c-.26 3.73 1.3 7.34 2.45 9.27m28.2-9.02c-1.87.58-3.54 1.3-4.25 2.84m2.2 7.72c.9-.77 1.92-1.67 2.37-2.3m46.3-110.13c0 3.6-4.5 5.54-7.47 3.22m17.26-3.1c2 1.55 8.9.07 7.3-3.92m-15.66 24.67c-1.42-.26-3.87-1.8-4.9-3.1m19.06-7.6c-2.3.52-3.86 0-5.02-.5m-31.55 13.4c1.3 0 4.38-.53 6.5-1.62m-10.37-21.18c-1.67-.2-2.9.12-3.86.77m29.82 5.52c-.45 1.6-1.6 4.12-3.03 5.22M497.5 212.8c3.2-1.43 7.2 9.52 14.93 5.66m.64-11.34c-1.03 1.42-1.67 3.6-1.8 5.54M359.05 190.38c1.03-.13 2.83-.5 3.22-1.8m-135.74 121.7c3.86 2.2 6.57 5.92 4.9 11.46m172.17-143.2c1.16.77 5.54.77 8-.13m3.08 2.7c-.13 1.82.4 8.64-3.1 10.06m1.3-.9c3.22 1.03 9.66.64 11.72-5.28m-4.5 5c1.66 2.6 2.18 7.6-2.84 10.3m4.12-6.03c3.73 1.3 12.36 1.4 11.46-5.93m-2.96 5.93c2.58 3.6 13.9 7.85 12.1.38m-22.53 10.04c4.38 1.03 10.56-1.93 7.98-9.66m12.36 3.88c.64 2.96 15.06 6.05 13.13-.64m-2.7 3.86c2.7 6.2 17 5.67 12.5-2.57m-2.33 6.43c2.83 3.48 15.46 1.42 10.43-6.95m-.13 6.83c7.85 5.93 17-2.57 7.08-8.76m4.5 6.83c6.97 5.54 15.47-4.5 9.4-7.34m-64.38 5.02c2.2.65 6.82.4 7.85-3.6m-1.73 2.7c-.26 5.86 9.6 8.1 12.1 1.35m-3.28 3.67c1.8 3.87 10.43 5.4 11.85-.12m-1.43 2.57c1.42 3.87 8.9 3.48 10.95-.5m-2.7 2.57c2.3 5.02 11.84 5.02 14.03-2.32m-1.67 3.2c3.73 2.33 11.72 1.43 11.07-5.78m-1.54 5.15c5.55 4.5 13.4.13 9.54-7.47m-.4 13.4c2.98-.52 4.52-6.45 1.43-8m-70.06 9.02c6.2-3.34 7.35-9 3.1-14.55m2.2 8.9c3.86 2.3 11.2-.14 12.48-5.8m-7.2 6.43c2.18 2.83 2.57 6.3-.27 9.53m2.07-5.92c6.83-4.24 15.33 3.6 9.02 8.38m-1.17-8.76c1.55-.38 4.25-3.22 4.5-6.43m-1.4 9.38c2.82-2.96 22.14 3.1 9.9 9.28m-.9-17.4c3.74 1.43 5.67 6.7 0 8.5m4.9 4.4c4.12-4.26 17-1.55 12.36 3.86m-3.1-5.55c2.32-7.85 16.1-2.96 11.6.26m-14.43-8.1c.4 1.53.5 5.4-2.06 7.46m13.66-9.03c.5 1.3.4 3.74-.77 5.28m9.5-5.15c.8 1.42 2.07 4.12-.76 6.3m-109.46-65.54c.13 7.34 2.7 12.23 12.62 7.6m-9.53 1.16c-4.9 6.57.64 13.65 10.3 6.57m-25.37-3.36c6.7 7.2 18.67 1.93 10.94-9.02m8.12 15.2c-1.3 7.08 4.5 8.5 9.27 5.28m-34.25-10.3c1.22 7.12 8.5 12.75 15.58 8.37m-6.82 1.42c0 10.16 14.03 11.32 17.25.76m-5.03 6.44c4.5 9.27 14.3 5.53 17.5-.13m-27.42-14.68c1.8 4.5 5.4 9.52 13.78 5.78m-39.53-7.98c1.16 3.73 7.85 8.24 15.58 3.1m-10.82 1.66c-4.13 6.06 4.12 11.72 14.03 2.7m-9.15 4.78c1.68 8.5 5.02 15.32 17.13 4.38m-6.06 4.37c4.38 5.4 11.08 8.75 17.4-.4M387.25 188.83c-.4 6.44.9 9.66 5.92 9.4 3.96-.2 7.73-3.35 9.92-6.7m-10.83 6.7c-.13 7.35 5.67 13.15 16.5 5.68m-12 2.96c-2.05 5.54 4.13 14.56 16.23 9.92m-41.85-24.6c-.77 7.1 5.8 11.85 16.36 2.7m-11.2 5.16c.4 5.8 6.96 12.75 16.62 2.7m-11.98 4.64c-.78 9.92 8.37 12.75 16.1 5.15m-29.88-12.5c2.06.14 3.73-1.66 4.76-2.95m-.38 10.17c1.8.38 4.9-1.3 5.92-3.35m-1.4 15.07c2.05 2.2 9 .64 9.9-2.32m-2.18 2.2c3.86 9 14.16 8.62 18.4-1.56m-1.92 3.6c1.93 5.28 6.82 8.63 14.8 6.83m-10.94-1.42c-4.5 7.35 1.42 15.98 11.46 7.48m-9 3.48c-.53 4.63 3.72 9.9 9.52 10.56m-28.6-24.08c-1.54 10.43 5.93 15.45 15.33 9.9m-26.27-4.88c2.45 1.93 6.83 2.2 10.95.64m5.03 6.06c-2.32 8.75 6.7 15.06 14.42 5.28m-26.9-10.56c.12 4.5 4.5 9.4 12.1 7.98m21.24 9.02c-5.16 3.47-6.2 9.65 1.02 13.65m-13.65-15.46c.26 5.28 2.7 8.24 8.5 8.75m-16.1-11.46c-7.72 7.1-.12 15.33 9.02 8.37m-3.62 2.2c-2.57 8.1 7.1 13 12.24 4.76m-28.2-22.03c-2.84 7.98.77 13.26 7.34 12.75m-17.52-14.3c.4 4.77 4.5 6.44 9.14 5.4m-6.18-.37c-3.48 6.7 1.8 10.3 8.76 7.72m21.12 14.94c-1.16 4.26-.52 7.35 5.8 8.77m-5.42-2.7c-7.6 3.47-8.24 10.82-2.32 15.58m-3.8-23.76c-4 3.6-3.22 9.84 1.16 12.3m-34.96-35.8c-4.38 4.3-.2 16.2 9.47 9.7m15.66 5.35c-5.93 4.9-3.22 13.78 6.56 11.33m-16.36-15.06c-3.1 8.75-.12 11.84 6.83 11.97M359.3 236.1c-5.28 4-3.86 9.65-1.54 12.23s6.7 1.42 8.1-1.93m-17.64-13.78c-5.92 7.6 0 16.62 8.38 13.9m23.3 8.64c-6.04 2.2-10.66 7.7-6.94 12.5 2.2 2.82 11.72 3.2 14.42-7.74m-18.42-11.85c-3.48 5.03-2.32 9.8 4.12 12.24m-4.5-2.82c-3.74 2.06-6.2 4.5-5.28 9m-3.1-16.86c-1.4 6.06.27 9.8 4 11.6m-4.12-4.4c-5.8-.37-8.76 2.07-6.83 7.74m.52-6.3c-5.67-2.07-6.57-6.97-4.12-12.12m-.78 7.6c-6.18.26-8.88 3.35-8.88 7.6M340.5 229.66c-4.5 1.93-5.93 7.98-4.25 11.33 1.67 3.34 6.95 3.6 10.17 1.4m-18.54-17.5c-4.12 4.63.64 13.65 8 11.46M317.3 221.3c-3.86 5.4.4 14.4 10.3 11.84m.52 25.1c-1.03-6.43 5.66-10.68 13.9-2.3m-3.98-13c-2.45 2.18-3.6 5.65-3.22 8.5m-28.08-33.24c-4.25 7.2.9 13.78 10.05 11.2m13.78 6.7c-6.05 6.05-4 12.1.52 15.58m-4.38-8.5c-9.14.13-9.66 10.7-2.2 14.04m-4.75-24.6c-3.74 2.58-4.9 9.66 1.54 12.5m-1.8 3.34c-3.85-1.8-8.5.4-8.1 4.9m2.3-4.77c-3.46-8.25-13.64-6.83-12.73 1.67m15.57-11.85c-2.18.38-6.56 1.67-8.24 5.02m.65-14.3c-4.12 4.64-.9 10.18 2.45 11.34m-14.68-24.34c-.77 5.53 1.42 8.24 8.37 7.72m-5.94-.64c-2.7 6.7.9 9.66 7.85 9.28m-6.3-1.04c-4.12 4.9-1.28 10.18 2.7 12.37m-4.62-6.18c-7.34-.9-8.5 7.6-6.06 11.6M292.85 215.5c-4.5 1.93-7.08 7.6-4.64 11.07 2.46 3.48 7.36 2.32 10.06.52m-8.5 1c-3.73 5.68-.4 9.93 3.6 11.6M275.34 214.85c-2.97 3.1-1.16 9.4 6.05 9.53 5.8.1 8.75-5.4 6.94-9.27m-7.98 9.28c-2.32 5.15-.9 10.7 7.86 9.78m3.73 8.12c-5.4-2.45-12.62 0-9.53 6.44m-.77-15.58c-2.2 3.1-1.42 7.47 1.03 10.17m-1.42-1.92c-3.6.64-7.08 2.57-4.9 8.24m-.5-4.64c-4.65-1.4-10.57 1.94-6.97 6.7m-.77-4.5c-4-.65-8.76 3.6-4.9 7.85m-1.54-3.48c-3.62.9-7.87 5.03-4.13 8.24m22.28-28.46c-5.15 2.3-5.67 8.1-3.22 12.36m-2.2-23.05c-7.73 2.96-7.6 13.26.9 16.48m-3.6-2.32c-4.64 2.7-5.54 7.86-2.45 11.2m-5.66-29.22c-3.1 1.03-2.84 10.56 5.4 10.3m-13.9-7.08c-6.18 4.12 1.3 14.55 11.33 7.08m-5.54 2.58c-.9 4.25.27 8.88 7.1 9.4m-6.7-3.73c-4.9 1.8-5.8 11.85 3.1 12.62m-18.68-21.77c-6.3 5.8 5.15 10.82 9.4 2.45m-18.16 7.2c-3.1 3.74 7.73 13.53 12.5-2.82m1.15-.25c.27 3.87 2.58 6.18 7.35 6.44m-.13 3.73c-7.6 1.16-10.04 10.7-1.54 12.75m-12.5-14.04c-.25 3.6 3.48 6.57 7.73 5.92m3.88 7.86c-6.96 1.54-7.86 10.56-1.68 10.04m-3.22 8.37c-5.8-1.74-5.92-8.63-.77-11.2M245.72 267.78c-4.9 2.96-2.96 10.04-.4 11.07 2.6 1.03 4.65-.26 4.9-2.45m-.38 9.92c.52 3.35-11.9 2.06-5.54-8.37m-.07 8.95c-4.18 6.57 2.64 11.92 6.96 6.3m-6.38 1.62c-1.68 5.28 4.7 9.08 8.82 4.96m-22.74-54.4c-2.3 4.75 9.28 6.56 10.05-3.23m-13.26 10.3c-2.33 9.28 15.18 7.35 10.68-4.63m.38 6.18c2.45 1.42 9.8 1.55 11.6-6.3m-5.3 6.56c.53 2.44 2.72 5.4 4.78 6.3m-13.14-3.86c-.77 5.03 4.25 9.15 10.05 8.76m-9.15-3.86c-2.83 3.86-3.73 11.33 5.15 11.85m-18.67-10.56c-1.42 3.98 6.95 8.1 11.85 1.53m-14.43 8.63c-.7 3.02 6.83 7.08 11.08-5.8m-3.35 6.57c1.8 3.22 7.86 5.8 11.6-.5m-6.06 3.85c-1.55 4.5 2.7 8.76 7.85 7.47m-17.5-8.5c-1.04 6.44 6.43 10.18 11.07 6.83m-15.98-4c-2.2 8.25 8.37 11.34 12.36 5.16m-2.7 2.44c.4 4.64 7.6 8.63 13.26 4.77m-26.14-.9c-.52 2.06 8.1 4.12 9.4-3.1m-4.38 4.9c2.06 5.28 9.02 6.57 13 .13m-2.3 2.57c.9 4.9 7.2 7.6 12.74 4.25m2.32 1.94c-1.42 6.56 5.4 11.84 9.65 8.24m-20.6-9.4c-2.06 7.2 6.96 11.33 11.98 7.34m-22.78-10.95c-.52 6.7 4.76 10.7 10.8 7.73m-22.27-7.08c-1.8 4.38 7.73 7.98 12.24 4.25M208.6 309c2.45 2.83 10.95 0 11.72-6.32m-2.3 4.63c3.08 3.62 10.42 5.55 13.4-2.18m-2.6 4c-.12 5.54 9.8 9.53 13.02-.64m11.64 2c-.9 2.7 1.23 7 5.67 7.52m-13.84-9.2c-.65 3.1 3.86 7.4 8.63 5.67m.9 1.28c-1.28 3.35-.2 8.18 4.32 8.12M255.3 322c-3.34 2.83-1.92 7.86 2.9 8.05m-4.62-3.3c-4.77 3.23-3.1 10.3 3.22 9.93m-17.65-23.57c0 6.97 8.63 8 10.3 1.56m-3.35 4.12c-1.28 4.12 2.06 8.1 7.34 6.95m-6.3 42.76c1.16 1.67 5.92-1.17 4.63-4-1.28-2.83-6.33-1.3-5.8 1.67m4.64-2.83c.65-5.67-6.04-6.57-7.72-1.68m2.45-2.83c1.67-2.83-4-6.7-6.3-2.57m2.05-1.68c1.55-4.13-4.9-5.93-5.4-2.2m-1.42-5.4c.77-2.06 7.98-.78 4.9 3.47m5.53 5.16c2.82-2.57-1.94-7.85-4.9-5.92m23.94 13.78c-2.25.26-4.57 1.74-2.9 6.5 1.17 3.3 6.12 3.48 6.83 1.5M260.46 365.85c-2.2-1.42-6.95.96-4.76 5.6 1.65 3.5 5.8 2.06 6.44.26m-13.98.78c1.1 1.93 6.57 1.1 7.53-1.03m-3.8-5.35c1.16-.77 3.28.2 3.73 1.16m-4.12-32.9c-3.72 2.45-1.4 9.92 4.4 7.98m-5.55-1.92c-2.96 2.3-.26 9.53 5.28 6.82m-4.37 0c-2.06 2.06-.07 7.8 5.28 6.7m-6.06-3.87c-1.16-.5-4.2-.13-5.47 1.8m2.14-27.88c-2.84 2.7-1.48 8.24 3.8 8.7m-4.84-3.04c-4.05 2-4.05 10.04 4.06 10.36m-4.38-1.28c-2.25 1.8-1.15 8.75 4.64 7.85m-2.77-.26c-.84.83-.97 2.96-.26 3.86m-2.33-6.5c-2.06.06-4.76 1.54-5.47 3.67m-3.74-7.47c.78-2.06 7.15-1.93 7.6 4.12m.64-7.2c-.9.18-2.64 1.02-3.1 2.76m.34-21.64c-2.77 2.5-4.12 10.44 4.3 11.98m-9.9 4.38c0-2.13 5.73-3.93 7.72-.78m-11.4-10.75c.84 1.6 4.83 3.8 7.28 2m-28-14.62c-.14 3.74 2.95 7.08 7.2 6.57 4.25-.52 5.15-4.25 3.86-6.7m-3.22 6.83c-2.83 3.47.65 8.37 3.87 6.95m-.64-9.4c1.68-.64 7.22-1.42 8.9 1.16m-26.8-.13c-1.28 1.93 6.7 3.87 9.4.13m-2.7 1.93c-.26 2.56 1.03 6.94 7.6 5.14M219.83 326.63c1.03-2.2-3.86-5.8-7.6-1.8-3.73 4 .52 8.5 2.84 6.95M202.7 318c-1.93 3.36 5.54 9.47 9.8 3.8M197.74 323.8c-2.7 2.77.65 7.86 4.7 6.3 4.06-1.54 3.67-5.8 2.7-6.88M192.53 328.95c-2.2 2-.07 6.7 2.96 6.7 3.02 0 4.88-2.38 4.3-5.4m5.02-1.68c-.38 2.96 4 5.02 6.83 2.25m.13-5.4c.4-.66.07-1.75-.58-2.27m-23.37 9.8c-2.5 2 2.9 7.53 6.3 2.44m13.08-3.55c-1.6 1.54.97 5.6 3.55 4.37m-12.36-1.54c.38 2.77 5.8 4.83 9.2.58m-6.25 2.2c-.84 1.73.84 4.5 2.9 4.1m48.36 11.8c-2 3.93 4.4 8.5 9.02 3.73m-4.38 2.12c-.96 2.12.2 5.08 1.93 6.18m-7.98-1.74c.44-1.94 3.2-3.74 5.72-2.84m-9.08-2.25c.4-1.74 2.7-3.48 4.44-3.03m147.2-77.33c-9.14.14-5.28 14.82 2.58 11.86m-5.54-1.03c-1.8 2.96 1.67 7.66 5.54 4.9m-1.03.57c-2.7 4.5 6.96 11.4 10.82 4.32m-3.1 2.7c.14 4.25 12.5 6.95 10.7-1.55m-1.16 4.64c2.95 5.03 14.03 5.55 12.87-1.92m-2.45 5.15c2.32 3.35 13.14 5.4 12.75-1.54m-56.67-40.84c1.54 4 6.82 5.4 12.62 3.1m-15.96-.26c3.6 2.3-1.68 12.87-7.2 8.62m7.2-2.06c4 1.94 8.88.52 10.3-5.15m-2.45 4.4c.4 2.95 4.65 5.27 10.2 4.1m-20.1-1.02c5.15 4.38-2.32 13.4-5.67 9.28m7.6-5.93c2.45 1.8 8.76.77 9.4-4m-2.83 4c.5 3.1 2.96 4.25 6.44 4.38m-14.43-.12c2.6 3.6 9.03 4.63 11.86-.13m-2.84 2.7c-.26 3.48 3.6 6.3 7.6 5.54m-21.63 2.18c3.34 1.67 6.94-4.64 4.1-9m-.25 15.7c4 .25 4.5-5.8.78-9.15m8.37 14.68c3.35-.76 2.3-8.1-5.8-8.75m15.96 14.18c3.22-.9.65-9.02-8.24-8.5m20.48 11.33c2.2-3.35-5.02-9-10.94-6.05m17 10.7c4 1.15 6.7-9.4-5.93-7.74m13.27 7.73c3.48-.9 5.92-7.22-4.25-5.16m11.97 5.67c3.1 1.56 4.5-7.46-4.9-5m-47-23.07c3.86 2.2 9.92-.38 9.4-5.28m-1.54 4.26c1.3 2.33.77 6.83-1.68 8m2.06-2.58c2.58 1.03 6.05.12 8.1-4m-3.6 4c.78 1.8 1.04 5.4-.63 7.2m1.3-4.12c2.82 1.55 6.17-.5 7.6-3.47m-1.82 2.57c2.07 1.3 3.88 7.34.4 9.8m1.93-2.84c2.45.13 6.06.13 8.37-2.96m-1.67 1.67c2.2.65 4.76 4.25 3.86 7.47m.12-1.16c2.45-.26 6.7-1.94 7.86-4.9m-1.16 1.94c2.06 1.15 3.48 3.6 3.22 6.43m0-2.06c2.44-.14 4.63-1.42 5.27-4.13m-.63 1.8c1.8.65 4 2.7 4.13 5.16m-.26-1.55c1.8-.26 3.1-1.42 4.25-3.22m4.88-.25c2.32 2.33-.77 10.05-5.54 8.64m-43.92-164.72c-4.76 2.83-18.3 1.93-11.6-9.27m12.9 1.67c-9.4 3.73-21-3.48-8.9-11.33m-3.2-2.58c-7.87 0-13.15 12.62-2.6 17M348.5 138.1c-2.07 4 5.27 8.37 10.3 4.38 3.88-3.1 3.6-11.47 1.28-14.7m-15.58 19.84c-2.58 8.5 16.35 9.02 13.4-4.5m-14.44 17.13c.65 6.44 18.16 4.38 12.5-8.63m2.06-3.6c1.4 1.92 5.28 5.27 11.84 4.62m-8.76-13.78c.58 2.32 4.5 4.12 9.53 2.4M185.38 334.8c-4.44 3.16 2.4 8.12 4.9 2.65m-8.38-.2c-4.44 3.16 2.4 8.12 4.9 2.64m-8.57-.26c-4.44 3.16 2.38 8.1 4.9 2.64m-8.76-.45c-4.25 2.26.7 7.8 5.02 2.9m-9.22-.77c-4.25 2.25.7 7.8 5.03 2.9m16.56-9.54c-.06 3.28 6.18 4.64 8.43-.26m-4.5 3.3c-1.94 2.44 1.6 5.46 3.53 4.37m-11.85-4.83c-.2 2.77 5.2 4.38 7.85 1.35m-4.9 1.55c-1.72 2.25 1.7 5.28 3.88 4.38m-10.42-4.77c.2 2.2 3.28 4.7 6.63 3.3m-4.63-.33c-1.3 1.16-.65 3.86 1.16 4.7m-7.86-4.9c-.5 2 2.9 5.55 6.38 3.23m-5.67-.9c-2.06 1.6-1.8 4.05.83 4.37m-5.78-4.63c-.25 1.35 1.5 3.54 3.68 3.28m-14.7-3.4c-2.05 1.1 3.23 6.7 6.5 1.47m-11.58.82c-2.58 1.23 3.8 7.4 6.63 1.1m10.05-1.35c-2 .45-3.28 3.35-1.6 4.5m-4.9-3.47c-.26 1.16 2.2 3.1 4.18 2.38m-5.86-1.86c-1.93 1.22-.9 4.63 1.36 4.12m-8.24-1.87c-1.8 1.35-.58 4.05 1.93 3.4m1.35-3.6c.06.7 1.67 1.8 3.02 1.36m-12.55-2.5c-2.27.95-2.14 6.62 5.46 3.53m-10.56-1.3c-3.16 1.56-2.13 5.8 4.76 1.75m.58.34c-.83.64-1.73 3.47 1.42 2.38m-7.2-1.04c-1.3 1.16-.46 3.54 2.37 2.64m-9-2.25c-2.33 1.36 2.76 3.16 6.17-.45m-4.64 2.12c-1.03 1.03-1.03 4.06 1.68 2.97m-8.24-1.73c-1.55 1.16 1.1 2.7 5.92.58m-4 1.1c-1.8 1.47-1.6 3.34 1.03 2.76m-6.37-1.92c-2 1.8.9 3.03 4.38 1.54m-4.32.46c-3.4 1.54-1.93 4.38.2 3.28m113.78 6.57c-.8 1.7 1.8 3.1 4.25 2.7 2.35-.37 4.6-2.3 2.83-5.02m.13 3.36c2.32 1.8 6.44-.26 6.44-2.96"/></g><g fill="#fff"><path d="M396.78 103.06c-10.3-5.15-31.68-14.68-37.74-6.95 5.54-2.3 21.77.14 35.16 12.5l2.58-5.54zM403.02 102.52c-11.9-13.88-18.93-10.77-27.5-15.55-8.04-4.5-20.86-5.4-23.34 1.73 11.76-5.72 22.55 3.08 29.18 4.15 9.1 1.46 14.25 8.5 16.9 11.74l4.77-2.08zm44.88-1.78c-6.18-14.16-19.4-10.46-25.24-16.48-8.5-8.76-30-16.87-38.9-10.82 19.58-1.03 27.92 13.5 38.4 18.55 7.46 3.6 15.44 11.32 25.74 8.74zM424.73 99.2c-10.56-13.14-26.8-24.73-34.26-20.35 9.8.52 12.88 7.34 19.83 11.72 6.96 4.38 3.87 10.7 14.43 8.63zm-50.23 23.18c-11.08-4.12-32.7-6.18-42.76 6.44 16.74 2.84 41.98 1.3 42.76-6.44zM372.44 127.28c-11.08-5.15-19.73 2.04-30.14 1.03-19.83-1.92-34-.76-35.8 8.77 11.34-10.18 30.4-1.8 38.12-3.87 7.73-2.06 36.32-.25 45.33 3.6-4.63-5.66-11.84-7.2-17.5-9.52zm34.77-29.5c-2.57-8.5-2.44-17.5 10.3-16.87-3.2-3.98-15.06-6.04-17 8.9-14.03-10.3-29.35-12.1-32.18-3.22 7.2-6.18 18.4-1.67 31.8 13.52 1.16-.64 4.25-1.93 7.1-2.31zM387.9 109.5c-8-5.15-18.8-13.52.13-16.87-8.12-4.37-19.97-2.44-18.68 12.5-21.63-8.76-37.17-5.8-40.44 2.83-3.6 9.53 9.8 14.8 12.12 8.76-2.45 1.03-10.82-1.8-6.44-7.22 4.38-5.4 26.82-1.34 48.17 9.8 5.92 3.08 26.27 2.57 5.15-9.8zM382.22 123.67c-6.16-12.58-26.14-1.16-30.17-13.34-5.5 17.85 28.42 7.97 30.17 13.34zm127.12 13.65c4.2 2.08 7.8-1.2 1.4-3.76 4.2 2.08 7.85-1.1 1.44-3.68 4.2 2.08 7.85-1.1 1.44-3.68-1.7 1.72-4.16 8.03-4.28 11.12zm2.18-24.2c9.27-9.8-.77-13.14 10.56-23.2 9.27-8.2 1.77-13.7 10.56-20.08 2.84-2.06 9.02-6.18 9.53-10.3 3.74 9.27-11.6 10.56-10.56 25.5.67 9.5-5.76 8.68-8.23 24.72-.52 3.35-2.83 10.82-11.85 3.35zM515.65 117.5c5.15-11.1 11.06-10.87 13.9-15.2 5.4-8.25 16.87 1.4 26.53-5.93-1.67 10.43-14.68 6.7-20.34 13.4-5.67 6.7-10.3 9.78-20.1 7.72zM516.94 121.1c9-7.22 15.66-2.4 21.9-6.2 15.7-9.52 22 1.95 36.05-2.56-3.75 9-24.48 1.3-33.5 7.98-9 6.7-40.7 13.14-24.46.78zm-26.28 51.38c-.13-4.12-4-9.4-9.4-10.04-5.4-.65-7.73-6.3-11.85-6.57-4.1-.26-6.8-8.5-12.48-8.37-5.67.13-7.98 7.47 5.28 14.16 13.27 6.7 27.95 14.43 28.46 10.82zm-16.74 3.48c-5.67.26-6.44 8.5-11.85 8.76 7.47 4 12.88-1.8 16.74-6.96l-4.88-1.8zM478.56 176.98c-4.9 4.13-6.3 12.75.77 15.2-4.25-5.86 7.47-8.5 3.87-13.9l-4.64-1.3zM483.45 177.25c-3.87 7.47 6.05 8.37 3.47 14.04 5.67-1.3 6.57-12 1.42-14.82l-4.9.77zM445.58 161.27c9.28-.5 17.76 4.5 23.44 12.62 3.6 5.14 15.7 7.2 19.84 3.08 4.12-4.12 1.8-12.87-8.5-10.04-2.58-4.38-10.05-2.84-13.65-6.44-3.6-3.6-17.5-13.9-21.12.77zM480.36 166.94c-2.45.52-3.22 4.77-1.68 6.96m6.96-4.38c.77 1.3.26 3.1-.13 4m-25.23-11.86c4.77.26 5.67 3.74 10.82 5.03"/><path d="M457.12 149.94c16.46 4.12 29.5 7.73 37.6 12.37 8.1 4.64 20.64 5.93 31.6 2.84 10.98-3.1 32.14-5.92 31.1 7.73 5.74-6.83-1.57-14.17-16.2-15.46.26-6.68-6.9-12.74-12.06-8.74 4.77-.65 8.88 8.24-.52 11.84 1.83-6.7-4.83-12.75-11.75-9.78 4.43 1.28 8.92 8.73-1 11.6-6.28 1.8-15.42-.53-22.2-4.65-6.8-4.12-44.94-19.06-36.58-7.73zM498.65 143.25c-5.15 2.32-1.8 7.72-9.8 10.82-7.97 3.1-13.5 10.17-11.7 16.22 5.4-11.86 14.93-11.34 18.28-15.98 3.35-4.63 8.24-11.46 3.22-11.07zM500.06 144.02c-.25 9.4-7.65 5.97-4.76 19.18.9 4.12 2.57 10.82-.26 17.52 8.3-6.05 2.96-18.77 6.7-23.57 1.8-2.32 4.12-5.92 5.02-9-1.93 5.4-1.8 15.44 3.48 18.02-4.25-10.05 11.46-18.3.64-29.88-1.54 2.82-6.44 7.84-10.82 7.72zm-26.27-9.4c1.28 1.93 2.57 6.82 1.4 9.53 2.6-1.55 6.32-5.54 7.48-8.25 5.28.78 7.34 7.34 2.32 10.18 3.1 0 8.37 0 11.33-3.48-3.6-4-14.8-10.17-22.54-7.98zM393.7 116.14c-.85-.76-2.25-1.48-4.78-2-7.8-1.6-3.77-8.62 2.87-8.56 14.15-15.45 22.1-3.54 39.36-8.43 6.04-1.72 10.2-1.2 13.48.2 7.73-5.14 16.8-3.7 23.36 2.35.73-1.16 1.7-2.04 3.1-2.43 6.04-1.68 10.93 3.48 12.6 10.18 4.72-.88 10.1 1.46 13.65 4.68 4.9-2.52 8.3-2.63 9.53-.04 4.38-2.07 10.06-3.36 12.9 3.6 2.82 6.94-6.7 4.88-8.25 19.56-.96 9.06-11.08 12.63-19.06 7.22-12.78-8.66-25.24-10.05-31.43 3.1-6.18 13.12-11.02 20.76-26 16.47-5.42-1.54-12.38.52-16.75 6.44-4.4 5.9-11.1.38-19.07 1.02 10.04-1.54 6.2-4.07 14.94-4.64 7.98-.5 5.92-7.98 11.07-9-20.1 5.14-19.3-2.33-35.8 2.82 7.2-9.27 18.55-4.12 24.2-9.53-14.93-.25-21.6-10-28.32-5.92-10.56 6.44-5.93 24.77-33.48 23.18-13.4-.77-21.9 1.03-29.88 9.02 13.9-28.85 32.83-13 41.98-22.15 5.4-5.4 9.53-9.54 12.36-14.7 1-1.8 2.35-2.84 4.04-3.24-22.93-7.2-9.06-18.44 13.35-19.22zM506.87 112.1c.35.7.53 1.65.53 2.8 0 5.68-8.5 5.94-9 14.3-.28 4.4-.8 6.83-3.75 6.32-2.96-.52-5.53-5.15-2.7-10.56"/><path d="M397.94 107.7c-2.14-1.5-4.27-2.1-6.18-2.12m52.83-8.26c6.8 2.95 10.14 10.04 20.05 10.38 9.53.34 15.45 14.17 31.42 5.15a38.05 38.05 0 0 1 1.26-.68M468 99.7c-1.42 2.27-1.75 5.43-1.36 8.2m-29.8 20.92c-12.1 0-15.2 6.2-15.2 12.1 0 5.93 5.66 13.66 15.7 13.66 10.05 0 15.46-6.18 15.46-12.88 0-6.7-6.18-12.88-15.97-12.88zM439.02 154.32c-.26-3.35-6.3-2.83-6.06-5.4.26-2.58 3.35-3.6 3.35-7.22s5.42-3.86 7.22-1.03c1.8 2.83 7.22 8.37 8.38 5.54m-8.37-5.53c-2.83 2.84-4.12 8.63-.4 13.14m4.26-8.75c-.9 1.93-1.16 4.9-.13 6.7"/><path fill="none" d="M495.5 135.58c9.45.78 11.06-9.66 3.98-10.3m-15.64-17.83c-3.28-4.2-10.82-5.6-10.95 3.28"/><path d="M472 120.84c-3.23-8-11.47-9.14-15.85-5.15-3.64 3.3-3.73 11.97 4.12 13.77 2.7-3.22 8-7.47 11.72-8.63zm-3.55-5.02c-4.64-4.12-11.46 3.67-5.28 10.8m-82.92 8.7c3.1-.73 7.64.8 14.6 4.06 4.38 2.06 17.5 6.44 25.75 2.06-8.5 3.1-14.93-9.78-21.37-8.24-6.44 1.55-18.23 3.93-23.18-.77 12.1.77 18.6-8.82 32.45-.52 3.86 2.33 8.76 3.88 13.13 3.62-11.33-13.65-26.27-4.9-27.8-15.97 6.8 7.34 23.5-1.67 32 12.1m-29.57-10.04c-1.6-1.97-.87-3.95-2.58-5.52"/></g><path stroke="none" d="M483.84 107.45c-2.83-3.03-9-.65-7.28 5.47 1.36-2.83 4.25-5.2 7.28-5.47zm-17.5 16.5c1.94-1.42 3.95-2.6 5.65-3.1-.94-2.3-2.28-4.03-3.82-5.24-1.47-1-5.7 4.7-1.85 8.34z"/><path fill="none" d="M458.72 113.5c-4.64-3.1-8.9-2.84-10.3-.26-3.35-.13-6.12 2.32-6.25 7.2m7.15 2.07c-5.54-3.8-13.14-2.37-12.62 6.13m-3.35 4.83c2.7-2.2 6.57-3.74 9.53.12m31.82-8.5c-1.03 1.42-1.8 3.6-.13 6.96-2.06-2.7-7.2-2.7-12.75 4.5m25.1-11.84c-6.7.78-6.56 5.15-1.15 7.1m-46.5-23.46c-5.66-1.16-9.78 2.2-1.92 5.03m12.75-8.9c-8-1.92-11.2.14-7.6 1.94m-15.46 30.15c-.26 2.83 1.3 6.57 5.92 2.32m-4.37 6.18c0 .77-.14 1.67-.66 2.32m-17.9-40.06c-4.9-1.4-5.8-5.9-.13-5.53m-1.53 15.97c-5.4-1.8-5.4-7.08-.9-6.56m10.95 3.86c-6.3-1.55-6.57-5.92-1.8-5.28m2.56-8.1c-3.34-.27-8.5 3.46.13 5.65m9.3 1.82c-7.87-1.16-7.74 2.06-3.1 4.12m9-11.6c-6.04-1.15-8.1 2.45-3.98 4m-15.06 18.3c-1.5-1.24-2.7-7.1 4.37-5.36m10.3 3.55c-4.76-1.3-9.26 3.35-4.9 6.05m11.2-11.6c-5-.9-9.26.53-6.56 2.33"/><path fill="#fff" d="M483.57 107.45c-2.83.52-5.37 2.18-7 5.47"/></g></svg>