<svg xmlns="http://www.w3.org/2000/svg" width="640" height="480" xmlns:xlink="http://www.w3.org/1999/xlink"><defs><radialGradient id="a"><stop offset="0" stop-color="#ffef5d"/><stop offset="1" stop-color="#ea5700"/></radialGradient><radialGradient id="b"><stop offset="0" stop-color="#952d1a"/><stop offset="1" stop-color="#570a00"/></radialGradient><radialGradient id="c" cx="247.075" cy="238.328" r="35.95" xlink:href="#a" gradientTransform="scale(1.226 .816)" fx="247.075" fy="238.328" gradientUnits="userSpaceOnUse"/><radialGradient id="d" cx="321.991" cy="152.954" r="10.578" xlink:href="#a" gradientTransform="scale(.936 1.068)" fx="321.991" fy="152.954" gradientUnits="userSpaceOnUse"/><radialGradient id="e" cx="364.21" cy="237.789" r="36.034" xlink:href="#b" gradientTransform="scale(1.224 .817)" fx="364.21" fy="237.789" gradientUnits="userSpaceOnUse"/><radialGradient id="f" cx="468.154" cy="156.129" r="10.739" xlink:href="#b" gradientTransform="scale(.956 1.046)" fx="468.154" fy="156.129" gradientUnits="userSpaceOnUse"/></defs><path fill="#ce1126" d="M0 0h640v480H0z"/><path fill="#003f87" d="M0 34.28h640v411.43H0z"/><circle cx="320" cy="240" r="188.572" fill="#fff"/><circle cx="320" cy="239.04" r="156.3" fill="none" stroke="#552300" stroke-width="3.939"/><path fill="#007f00" d="M301.94 73.2c14.14-15.18 26.92 2.34 26.58 10.55-.34 8.2-14.6 26.32-27.5 11.75 13.36 3.42 17.36-11.52 24.12-11.67-6.76.15-9.52-14.65-23.2-10.64zM154.8 192.1c-7.43-19.3 14.06-22.9 21.32-18.96 7.27 3.94 17.3 24.65-1.58 29.67 9.02-10.38-2.7-20.56.15-26.64-2.87 6.07-17.46 1.97-19.9 15.92zm317.15-19.1c19.36 7.6 7.53 25.76-.3 28.42-7.84 2.66-30-3.98-21-21.2 1.63 13.6 17.12 11.9 19.7 18.1-2.58-6.2 10.32-14.1 1.6-25.3zM218.8 377.43c-20.72-2.07-14.33-22.74-7.52-27.42 6.8-4.68 29.96-4.3 26 14.7-5.3-12.64-19.7-6.8-23.9-12.07 4.18 5.27-6.05 16.37 5.42 24.78zm209.33-14.97c.3 20.65-21.13 16.7-26.6 10.53-5.44-6.18-7.7-29.05 11.78-27.32-12.05 6.66-4.56 20.22-9.36 24.96 4.8-4.74 17.08 4.1 24.2-8.17zM169.9 152.87c-1.9-20.57 19.78-18.27 25.7-12.52 5.9 5.74 9.92 28.38-9.63 28.14 11.5-7.58 3-20.53 7.42-25.6-4.43 5.07-17.35-2.8-23.5 9.97zm22.2 193c-20.54-3.43-12.75-23.64-5.65-27.85 7.1-4.2 30.2-2.28 24.96 16.42-4.42-12.98-19.2-8.12-23.03-13.65 3.82 5.52-7.15 15.92 3.72 25.08zM354.3 74.05c18.63-9.2 24.3 11.7 21.05 19.24-3.25 7.56-23.06 19.46-29.9 1.3 11.26 7.9 20.35-4.66 26.72-2.42-6.37-2.24-3.66-17.05-17.88-18.12zm39.66 314.27c-9.24 18.52-26.5 5.3-28.5-2.67s6.5-29.34 23.03-18.98c-13.8.47-13.38 15.93-19.82 17.96 6.44-2.02 13.3 11.4 25.28 3.7zm90.52-178.66c15.66 13.62-1.64 26.77-9.92 26.66-8.27-.12-26.9-13.77-12.58-26.96-3.08 13.35 12.08 16.9 12.42 23.6-.34-6.7 14.5-9.84 10.08-23.3zM221.5 100.85c4.68-20.13 24.54-11.23 28.36-3.94 3.8 7.3.5 30.04-18 23.75 13.32-3.62 9.3-18.56 15.1-22.02-5.8 3.46-15.6-8.02-25.45 2.2zm-61.56 172.5c-18.24-9.96-4.2-26.5 3.92-28.14 8.1-1.66 29.26 7.7 18.1 23.65.14-13.7-15.44-13.94-17.22-20.42 1.78 6.48-12.02 12.7-4.8 24.9zm263.55-159.6c20.6-2.96 19.42 18.64 13.95 24.8-5.47 6.17-28.03 11.35-28.82-8.04 8.22 11 20.8 1.9 26.15 6-5.35-4.1 1.88-17.34-11.3-22.76zM306.3 408.12c-19 8.42-23.82-12.67-20.25-20.1 3.57-7.4 23.85-18.5 29.94-.05-10.94-8.36-20.54 3.82-26.8 1.32 6.26 2.5 2.94 17.17 17.1 18.82zm170.53-115.24c8.6 18.82-12.65 23.7-20.13 20.2-7.5-3.5-18.76-23.6-.2-29.72-8.4 10.9 3.93 20.35 1.44 26.6 2.5-6.25 17.3-3.02 18.9-17.08zm-325.16-60.63c-11.94-16.92 8.02-25.6 16.04-23.53 8.02 2.06 22.83 19.73 5.74 29.16 6.2-12.24-7.66-19.28-6.38-25.87-1.28 6.6-16.44 6.14-15.4 20.25zm112.3 163.35c-19.54 7.13-22.9-14.24-18.84-21.4 4.06-7.16 25.05-16.86 29.87 1.95-10.34-9.08-20.74 2.43-26.83-.5 6.1 2.93 1.78 17.35 15.8 19.95zm-5.64-314.06c11.57-17.17 26.96-1.85 27.9 6.3.97 8.17-10.26 28.27-25.3 15.88 13.74 1.3 15.33-14.07 21.98-15.27-6.64 1.2-11.7-13-24.57-6.9zM458.5 333.7c1.25 20.64-20.34 17.67-26.07 11.74-5.74-5.92-9.05-28.67 10.5-27.83-11.75 7.22-3.65 20.43-8.22 25.37 4.58-4.94 17.26 3.32 23.8-9.26zm-5.3-194.42c20.4 4.08 11.97 24.03 4.73 28.02-7.24 3.98-30.24 1.32-24.42-17.2 4.02 13.1 18.96 8.72 22.6 14.37-3.64-5.65 7.66-15.7-2.9-25.2zm-258.44-14.54c.2-20.66 21.52-16.2 26.83-9.9 5.3 6.3 7 29.22-12.42 27.04 12.2-6.38 5.05-20.12 9.96-24.73-4.9 4.6-16.97-4.5-24.38 7.6zm-25.8 186.2c-18.58-9.32-5.1-26.32 2.94-28.25 8.05-1.93 29.5 6.7 18.92 23.02-.35-13.7-15.92-13.4-17.92-19.82 2 6.4-11.58 13.1-3.95 25.05zM392 91.02c19.48-7.28 23.02 14.06 19.02 21.25-4 7.2-24.92 17.07-29.9-1.7 10.42 9 20.73-2.6 26.84.27-6.1-2.87-1.92-17.33-15.96-19.8zm-41.34 314.8c-15.14 14.2-26.7-4.12-25.8-12.3.92-8.16 16.4-25.3 28.26-9.9-13.1-4.3-18.1 10.36-24.87 10.06 6.76.3 8.5 15.24 22.4 12.14zm132.7-158c14.22 15.1-4.32 26.47-12.54 25.54-8.22-.94-25.38-16.37-9.8-28.08-4.4 12.98 10.32 18.03 9.97 24.73.34-6.7 15.4-8.37 12.37-22.2z"/><path fill="#005800" d="M301.02 95.5c13.36 3.42 16.7-11.34 23.47-11.5-3.95 4.72-14.24 16.73-23.48 11.5zm.92-22.3c14.14-15.18 26.92 2.34 26.58 10.55-11.47-20-15.06-16.9-26.57-10.56zM174.54 202.8c9.02-10.38-2.83-19.9.03-25.98 2.5 5.6 8.8 20.08-.03 25.98zm-19.74-10.7c-7.43-19.3 14.06-22.9 21.32-18.97-23.15 1.35-21.95 5.9-21.32 18.96zm295.87-11.87c1.62 13.6 16.7 11.36 19.3 17.56-5.87-1.94-20.88-7.1-19.3-17.55zm21.28-7.22c19.36 7.6 7.53 25.75-.3 28.4 14.63-17.85 10.43-20.05.3-28.4zM237.3 364.7c-5.3-12.63-19.2-6.4-23.4-11.66 6.18.3 22.04 1.2 23.4 11.67zm-18.5 12.7c-20.72-2.04-14.33-22.72-7.52-27.4-9.17 21.14-4.53 22.12 7.52 27.4zm194.5-31.74c-12.05 6.66-4.23 19.65-9.02 24.38-.4-6.1-1.3-21.85 9.02-24.38zm14.83 16.8c.3 20.64-21.13 16.7-26.6 10.52 22.22 6.64 22.68 1.95 26.6-10.53zM185.97 168.47c11.5-7.56 2.7-19.92 7.12-25 .88 6.07 2.97 21.7-7.13 25zm-16.08-15.6c-1.9-20.58 19.78-18.28 25.7-12.53-22.66-4.93-22.75-.22-25.7 12.52zm41.5 181.56c-4.42-12.98-18.7-7.68-22.53-13.22 6.13.7 21.9 2.68 22.53 13.2zm-19.3 11.44c-20.54-3.45-12.75-23.65-5.65-27.86-10.58 20.48-6.02 21.77 5.64 27.86zm153.35-251.3c11.27 7.9 19.7-4.72 26.06-2.48-5.37 3.02-19.3 10.6-26.05 2.47zm8.84-20.54c18.63-9.2 24.3 11.7 21.05 19.24-3.57-22.74-8.03-21.12-21.06-19.24zm34.2 292.6c-13.8.48-12.8 15.58-19.25 17.62 2.44-5.63 8.9-20.04 19.25-17.6zm5.46 21.67c-9.24 18.52-26.5 5.3-28.5-2.67 16.7 15.97 19.27 12 28.5 2.68zm68.02-178.96c-3.08 13.35 11.88 16.27 12.22 22.97-4.86-3.77-17.24-13.66-12.22-22.96zm22.5.3c15.66 13.6-1.64 26.77-9.9 26.66 19.82-11.93 16.6-15.4 9.9-26.66zm-252.6-89c13.3-3.6 8.82-18.07 14.6-21.53-1.05 6.04-3.97 21.54-14.6 21.55zm-10.38-19.8c4.68-20.13 24.54-11.23 28.36-3.94-19.98-11.7-21.55-7.25-28.36 3.94zm-39.53 168c.13-13.7-15.12-13.36-16.9-19.83 5.57 2.67 19.8 9.7 16.9 19.85zm-22.03 4.5c-18.24-9.96-4.2-26.5 3.92-28.14-16.8 15.87-12.9 18.6-3.92 28.14zm248.7-142.84c8.2 11 20.17 1.62 25.52 5.73-6.06 1.2-21.67 4.1-25.53-5.73zm14.85-16.76c20.6-2.96 19.42 18.64 13.95 24.8 3.76-22.7-1-22.55-13.96-24.8zM316 387.97c-10.94-8.36-19.88 3.9-26.15 1.4 5.5-2.8 19.72-9.8 26.14-1.4zm-9.7 20.14c-19 8.44-23.82-12.65-20.25-20.07 2.63 22.87 7.15 21.43 20.25 20.08zm150.18-124.74c-8.37 10.9 4.03 19.7 1.54 25.94-2.84-5.44-10-19.53-1.54-25.94zm20.35 9.52c8.6 18.82-12.65 23.7-20.14 20.2 23.03-2.73 21.56-7.2 20.14-20.2zm-303.38-55c6.2-12.24-7.63-18.62-6.34-25.2 3.8 4.82 13.46 17.35 6.35 25.2zm-21.78-5.63c-11.94-16.92 8.02-25.6 16.04-23.54-22.12 6.9-19.84 11.04-16.03 23.55zM275 376.15c-10.34-9.08-20.1 2.56-26.18-.36 5.68-2.42 20.35-8.48 26.18.35zm-11.03 19.45c-19.54 7.13-22.9-14.24-18.84-21.4 1.06 23 5.67 21.86 18.84 21.4zm-3.04-291.88c13.74 1.3 14.73-13.8 21.38-15-3.15 5.28-11.42 18.74-21.37 15zm-2.6-22.18c11.58-17.17 26.96-1.85 27.9 6.3-14.47-17.96-17.53-14.36-27.9-6.3zM442.9 317.62c-11.73 7.2-3.3 19.82-7.88 24.76-.7-6.08-2.3-21.77 7.9-24.76zm15.6 16.1c1.25 20.62-20.34 17.65-26.07 11.72 22.5 5.62 22.73.92 26.07-11.73zm-25-183.62c4.02 13.1 18.47 8.26 22.1 13.9-6.1-.88-21.8-3.35-22.1-13.9zm19.7-10.82c20.4 4.08 11.97 24.03 4.73 28.02 11.24-20.14 6.72-21.57-4.74-28.02zm-244 2.6c12.2-6.4 4.7-19.56 9.6-24.18.26 6.12.77 21.9-9.6 24.17zm-14.44-17.14c.2-20.66 21.52-16.2 26.83-9.9-22.05-7.16-22.62-2.48-26.84 9.9zm-3.94 180.98c-.35-13.7-15.57-12.84-17.57-19.25 5.65 2.47 20.1 9 17.57 19.25zm-21.87 5.23c-18.57-9.33-5.1-26.33 2.95-28.26-16.23 16.43-12.26 19-2.95 28.25zm212.17-200.4c10.42 9 20.06-2.73 26.18.14-5.65 2.46-20.28 8.63-26.18-.15zM392 91c19.48-7.28 23.02 14.06 19.02 21.25-1.26-22.98-5.86-21.8-19.02-21.24zm-38.88 292.6c-13.1-4.3-17.45 10.22-24.2 9.92 4.25-4.44 15.35-15.75 24.2-9.9zm-2.46 22.2c-15.14 14.2-26.7-4.12-25.8-12.3 10.1 20.72 13.88 17.88 25.8 12.3zm110.36-160.54c-4.4 12.98 10.18 17.38 9.84 24.08-4.45-4.25-15.77-15.32-9.84-24.08zm22.35 2.54c14.2 15.1-4.33 26.47-12.55 25.54 20.94-9.9 18.1-13.68 12.55-25.53z"/><g fill="#730000" stroke="#000" stroke-width=".489"><path d="M349.05 120.33s.58-1.37 1.66-.6c1 .8 1.28 4.2 1.28 4.2l-1.56.8s.88-1.28-1.37-4.4zM340.17 151s.78-1.08-.3-3.42l1.57-.5s.58 1.86-.2 3.92h-1.07m27.05-5.38l-3.7 2.25 1.85.88 4.5-2.64-2.65-.48m-49.72 14.56c-.97.78-1.07 2.15-1.66 2.93-.48.8-1.95 1.86-2.05 3.03-.2 1.17-.3 1.96.2 3.52.57 1.56 3 8.5 2.04 13.77-1.08 5.28-.68 7.52-.3 8.3.4.8 1.57 2.94 2.25 2.94 1.56-.2.87-.7 1.46-1.66 1.46-2.54 0-22.18-.7-27.65-.47-4.2-2.43-8-2.62-8.4-.2-.5-.6-1.76-.88-2.54-1.46-3.5-3.22-6.53-3.22-13.86 0 0-4.8 1.07-8.9-8.2-2.14-4.7-5.27-4.2-8.98-5.77l1.66-1.08s3.13 1.56 4.7 1.56c1.56 0 1.07-3.13 1.07-3.13l1.55-1.56v6.84c0 3.13 4.3 7.43 6.84 8.7 1.55.78 3.6-2.44 3.1-5.57-.47-3.12 0-7.32 0-7.32l2.16 1.28s-.78 1.36-.58 2.15c.3.78 1.36-.78 2.14-1.57 0 0 .2.2.98.2 0 0-1.56 2.63-2.34 4-.78 1.27-.78 6.26-.78 8.1 0 1.87.68 6.17.68 7.53 0 .97 1.86 4.97 3.33 7.42.47.97 1.64 3.5 1.64 3.5 1.18 1.87 1.27 3.14 1.96 4.7.4.78 1.07 3.03 1.56 6.94.2.98.4 4.7.7 7.13.28 2.33 2.23.48 4.57-1.18 2.35-1.76 2.35-5.96 2.35-5.96s1.85-1.56 1.56-.68c-.2.97.98 1.95.98 1.95-1.46 3.32-.6 2.93.88 2.83 1.46-.2 6.54-4 6.54-4 .68-.2 3.7-.2 3.22 0-.58.3-1.36 1.76-1.36 1.76l3.32-.4c-1.17.88-5.57 3.42-6.54 4-1.08.7-6.35 3.23-8.6 4.1-2.25 1-6.64 3.14-6.84 5.38-.1 2.25.3 8.3 0 10.26-.2 1.95-.97 10.65-.97 10.65h-10.45s2.05-7.6-.1-9.66c-2.05-2.15-6.84-8.4-9.97-10.55-3.12-2.06 2.05-.5 2.05-.5v-2.15l4.8 5.77s8.3-7.33 0-17.3c-2.65-3.12-5.3-7.9-7.34-8.4-2.14-.58-3.22-1.07-6.83 0-3.7 1.08-12.6 1.08-16.3-4.78l3.1-.5 2.65-1.07s-1.08 3.72 6.35 3.72c7.32 0 8.4 0 7.8-6.85l2.16-1.08 1.55 1.57s-1.07 3.7-.5 5.27c.5 1.57 3.14 2.65 5.2 4.2.87.7 1.55.8 2.14.8.87-.1 1.06-.1 2.23-1.28 1.76-1.95 1.37-1.85 3.13-3.4 0 0 .88-1.38 1.08-1.58l1.07 2.84zM319.07 155c.4-.4 1.17-1.85 1.85-3.12 1.18-1.96 2.54-3.13 4.1-5.57 1.47-2.24 2.06-5.56 1.47-7.9l1.36.78.1 3.7s1.85-1.55 2.64-1.94l.78.4s-5.86 6.04-11.33 15.8l-.98-2.14zm-51.37-20.3c.78 1.35 1.56 4 3.9 6.04l1.57-.5s-3.6-4.2-3.6-6.04l-1.87.5m9.18-2.36s.48 4.98-.78 6.83l1.56-.77s1.07-3.42.78-5.28l-1.56-.78zm51.47-15.73s-.3 7.04 1.08 11.34l1.85-.58s-.3-1.28 1.27-1.86c1.56-.5 5.27-2.05 7.13-3.62l-.6-1.56s-2.82 2.25-4.2 2.83c-1.25.5-2.04 1.08-3.1.8-1.1-.3-2.35-2.07-1.57-6.07l-1.85-1.27m20.7 32.83s-.5 4.98-.2 7.13l1.67.4s-.4-5.96.68-6.45l-2.15-1.07m7.43 3.72s-1.86 3.22-4 3.52l3.4-.7s1-.48 2.46-2.04l-1.86-.78"/></g><g fill="#289400" stroke="#030" stroke-width=".489"><path d="M326.6 138.4l1.26.77 1.37.2s1.46 1.37 3.13 2.63c1.26 1.08 1.26-.2 1.26-.2l.78 3.14h1.08s-.3 2.05-.3 3.12l1.86-1.56 2.15 1.86s1.55-1.37 2.33-1.37 1.08-.8 1.08-.8h.1c-5.17-2.43-7.4-4.97-5.85-7.6 2.54-4.4 6.74-1.57 8.1-1l18.95 10.17s1.27-.78.4-1.56c-1-.77-1.38-2.73-1.1-3.5.3-.8 2.46 2.43 3.53 2.73 1.07.3 3.5.68 3.5.68l-.08-.97s3.12 2.15 3.12 3.23c0 0 2.25-1.18 1.47-1.86-.78-.68 3.42 1.66 3.7 2.93l.9-.98c-.1 0 .28-3.12 1.35-4.6.97-1.45 2.04-1.84 2.04-1.84s.98-1.66 1.96-1.66c0 0-.98-.68-1.37-1.46-.5-.78-1.66-1.17-1.66-1.17s1.46-1.06 1.86-1.55c.4-.6.78-.7.78-.7s-2.24-1.84-3.8-2.14c0 0-.1-2.53-2.05-2.72h.88s-1.47-2.74-2.84-2.83c0 0 .87-.98 1.65-1.08 0 0-1.66-2.15-3.9-1.36l1.46-.58s-1.06-1.17-4.38-.58c0 0 .3-1.37-1.17-2.45 0 0-1.27.1-1.27 1.07 0 0-1.17-1.08-2.64-1.08-1.46 0 .5 1.56.5 1.56s-1.96-1.27-3.14-.88c0 0 .5-2.25-.78-3.42 0 0-1.46.78-1.85 1.76l-.4-.98s-1.95 2.34-2.34 1.66c-.3-.4-.58-2.05-.58-2.05l-1.17 1.76.2-2.43s-1.37.78-2.45 3.32c0 0-1.37 1.26-1.37 2.43 0 0-1.07-1.27-2.05 0-.87 1.36 0 1.07 0 1.07s-.38.5-1.36.68l.2.78s-1.27-.68-2.24-.38l.48 1.17s-2.54.2-2.63-1.86c0 0-2.15-1.08-2.45.1l-1.56.97s-.5-.98-1.37-1.17c-.97-.3-.2 1.26-.2 1.26s-.28-1.17-1.46-1.76c-1.16-.48-.18 1.08-.18 1.08s-1.56-1.27-.78-2.24c0 0-1.47 1.36-.78 2.63l-.98.7s-.5-.5-.4-.9c.1-.4-1.65 1.18-1.65 1.18s-1.08-2.54 0-2.54c.1 0-1.86-.1-2.15 2.16 0 0-1.27.1-2.44.48-1.27.4.88 1.28.88 1.28s-1.86-.4-2.93.2l.67.87s-.68-.7-2.34-.1c-1.76.48.4.77.4.77s-1.77-.4-2.65 0c-.88.4.3 1.08.3 1.08s-3.23-.98-3.72-.68c-.48.3 1.08 1.85 1.08 1.85s-1.96.5-2.35 1.96l1.75.68s-.78.4-1.17 1.17c-.4.78 1.17.4 1.17.4s-2.15 1.55-2.15 2.72c0 0 1.57.5 2.74-.68 1.17-1.17.4-.78.4-.78l.1.77s2.23-.97 2.23-1.56c0-.48-.4.8-.4.8l2.26-1.18 1.46.98zM324.73 107.92l-.5-2.15 5 .6.87-2.06s2.35 1.08 3.13 1.86c0 0 4.6-1.17 5.96-.68l-.6 2.15s4.2.3 5.57.78c1.27.5-.6 1.57-.6 1.57s4.8.6 6.85 1.86c2.15 1.27 2.15 2.34 1.08 2.63l2.63 4.2s-4.2.5-4.98 1.56c-.78 1.08-1.56-1.07-1.56-1.07l-.8 2.93s-2.63-1.37-3.7-2.34c0 0-1.27 1.56-.5 2.34l-4.78-3.12s-2.05-.3-2.05 1.56c0 0-2.34-2.64-2.93-3.42l-2.64.78s-.78-1.07-1.75-1.37c-1.08-.18-.3 1.38-.3 1.38l-1.56-1.85-1.57-1.86s-1.37 1.86-2.44 1.86c-1 0-1-1.27-.8-2.15.3-.78-3.12-.98-3.4 0 0 0-1-3.9 2.62-4.98l3.7-.98zm-18.94 13.4l-1.67 1.55-.98-.5-1.95 2.16-.4-1.17-1.06 1.75-1.66-.57-.78 1.27-1.47-.3s-1.27 1.18-2.05 1.47c-.78.2 0-1.76 0-1.76s-1.17 1.97-2.05 1.97c-.78 0-.5-.88-.5-.88s-.48 1.25-1.45 1.45c-.88.1-.5-.97-.5-.97l-1.56 1.17v-.98l-.68-.3s.4-1.75 1.08-2.14c.68-.4-.7-1.56-.7-1.56l.7-.78s-1.96-.5-1.96-.1c0 0 .98-2.65 2.34-3.14l.1-2.93s1.37-1.17 2.64-1.27c1.37-.2-.4-2.25-.4-2.25l3.14-1.84.4-2.24 4.77.38.98-2.05 3.8.98 3.23-1.66 2.34 2.73 3.52.3s-.1 2.44-.1 3.12c0 0 4.2 1.27 4.7 1.66 0 0-.8 2.54-.8 3.03 0 0 2.94-.77 3.82-.57 0 0 .3 2.73.4 3.4 0 0 4.97 1.58 5.26 2.46 0 0-1.07.67-1.66 1.55 0 0 .58 3.03.58 4l-.4.6s-1.45-1.38-2.62-1.57l-.98 2.15-1.76-1.18-1.07.1s-.9-1.07-1.58-1.07l-.1-.98-1.36.88s-2.15-1.08-2.15-1.76c0-.58.1-1.56.1-1.56l-2.24 1.56s-.48-1.17-.4-1.66c.1-.5-.86 1.17-.86 1.17s-1.18-2.05-1.08-2.44l-.3 1.65s-2.34-.78-2.63-2.34zM274.53 130.88s4.1 2.05 4.1 3.03c0 0 1.08-2.14.5-2.92l1.56 1.07s.48-1.95-.1-2.54c-.5-.48 3.5-2.13 4.38.5 0 0 2.45-2.54-2.24-4.7 0 0-.4-1.55 2.44-1.16 0 0-.2-.98-.88-1.37h2.74s-1.66-1.37-4.1-1.75c-2.35-.4-.9-.7-.98-1.18-.2-.5 0-2.25 0-2.25s-1.37-.5-2.45.1l.4-.5s-2.54-.68-3.5-.1c0 0-1.48-.58-1.28-2.14 0 0-1.47-.1-2.15 1.46 0 0-1.37 1.56-3.22 1.56-.4 0-1.76-.78-1.76-.78l-1.18 2.74-1.86-.1.6 1.07s-2.84-.77-3.72 0c0 0 1.07 1.68.78 2.85 0 0-2.25.4-2.74.78-.58.38.78.68.78.68s-2.54.8-3.12 1.57l.98.78-1.18 1.57.98.2s-1.66.48-2.54.77c-.88.28 1.56.48 1.56.48l-1.17 1.07 1.86.3s-1.46 3.9-1.56 5.76c0 0 2.24-2.72 2.83-2.92l-1.76 2.93s3.32-1.06 3.62-1.55c.3-.6.58-1.08.58-1.08l.1 1.66s1.27-1.75 1.46-2.44c.1-.7 2.05.68 2.05.68V134s1.76.58 2.35.68c.68.1.78-.3.78-.3l1.66-.2-.3 1.38s1.18-.78 1.47-1.56c.2-.8.8 0 .8 0l.77-3.13h1.66zm-13.38 13.87l1.57 3.22c-1.28.1-3.13 1.56-3.13 1.56.28 5.38-1.08 5.08-1.08 5.08.38 1-.25 2.8-.25 2.8l7.77-4.64.1-.5 9.17-4.3.3.5 2.64-1.47 1.86 4.88-1.86 1.07c.1 1.66 2.06 4.6 2.06 4.6l2.44-.6 2.63-.97s.1 1.46.1.98c0-.4 2.83-1.37 2.83-1.37l1.27 1.26c.98-.1 2.74-2.44 2.74-2.44l2.06.78s.68-1.17.68-2.05c0-.78 2.54-.78 2.54-.78l1.76 1.27 2.25-1.86s.67 1.37 1.55 1.56c.98.1 3.42 1.96 3.42 1.57 0-.38 1.07-2.53 1.07-2.53l4.1 1.66c-.58-1.86-1.95-4.1-1.95-4.1s1.94-1.56 1.55-1.96c-.38-.4-1.56 0-1.56 0l1.16-2.34h-1.56l.5-.58-2.55-1.08 1.36-2.73c-.57-.7-7.3-2.05-7.3-2.05l1.55-1.48s-.78-1.17-1.56-1.17c-.8 0-4.9.1-5.1-.3-.1-.38-1.75-1.85-1.75-1.85l-2.54 1.86-1.26-.4-2.24.9s0 1.25-.3.38c-.3-.8-2.34-2.84-2.34-2.84-.4.68-3.03 3.8-3.03 3.8s-.4 1.67-1.27.5c-.97-1.17-3.02-2.44-3.32-1.46-.3 1.07-2.14 2.05-2.54 1.75-.4-.3-2.54-.1-2.73.48-.1.68-2.45 2.44-2.45 2.44-1.46-.68-3.8-.3-3.8-.3s-.7 1.1-.8 1.96l-4.77 1.27zm44.15 39.56v-2.04l2.34 1.56 1.37-1.56 1.77 1.76 1.08-1.76v2.83l2.63-2.35 1.56.68v-2.24s1.86-3.14 1.08-3.73l1.56-.48s-2.64-2.65-3.42-3.14c-.78-.6-1.85-.6-1.85-.6s-2.04-2.04-3.4-2.62c-1.28-.5-2.06.58-2.06.58s-.78-1.56-2.15-1.86c-1.28-.3-1.28 1.08-1.28 1.08s-.98-.98-2.24-1.47c-1.27-.58-.4 1.18-.4 1.18l-4.5-1.37.6 1.37-4.2-1.07.48 1.56-2.93-.5-.2 1.28-4.2.78.8 1.36-2.65-1.07v1.85l-2.93 1.07 1.08.98s-3.9 1.86-4.7 2.44c-.77.5 1.57 1.56 1.57 1.56l-4.2-.58 1.57 1.37-3.7 3.4 2.62 1.86-1.57 2.34 3.9.78 1.57 2.64 3.22-.58v2.93l4.7-3.72s3.4 3.03 3.7 2.15c.2-.78.2-3.42.2-3.42h1.66v-2.63l1.26 1.07 2.15-3.13 2.82 3.9 2.15-4.98 3.13.5zm19.14-11.8l-.48-4.5-1.37 1.37.57-4.2-2.14-.4.78-4.1-1.55-.78.38-1.96 1.57-1.17 2.83-2.74 6.54.1.78-2.15 4.7.8c.77.87 3.2-1.77 3.2-1.77h1l1.06 2.06s3.43-.5 5 .58l-1.86 2.54 3.42.3 2.34.48 2.44-.78 3.13-.2.78 1.27h2.93l-.98 1.17 3.8 1.76-.77.8s2.15.77 3.7.77h.8s.77 1.85-.3 2.63c0 0 1.07 2.64 3.42 3.13 2.34.5 2.34.5 2.63 1.08.3.5 0 3.13-2.63 3.13v2.65s-2.05 1.85-2.35 2.63l-1.56-1.07s-1.37 1.57-1.37 2.65c0 0-3.42-4.5-4.7-4.7-1.35-.28-1.06 2.55-1.06 2.55l-3.7-3.13-.5 2.15-3.1-2.64-1.87 1.27-3.32-3.42-3.2.4 1.25-1.67h-3.9l-.78-3.4-.6 2.82-2.33-1.56-3.03 3.32s-.38-.4-.87-1.96c-.48-1.56-1.85 1.86-1.85 1.86L330.2 168l-1.27 2.44s-1.07-1.86-2.15-2.44c-.97-.5-2.05 2.92-2.34 4.5zm.6 10.25l.18-1.56 5.57-2.16 4.68-1.76 2.34-1.08 1.08 1.86 1.36-2.64 2.15 2.74 1.18-1.47 1.86 1.36H347l.3 2.05s3.9.3 4.2-.48c.3-.78.78 2.64.78 2.64l3.7.5.8 4.2s1.84 3.9 1.26 5.46c-.5 1.66-2.06-2.05-2.06-2.05s-.3 2.93-.58 3.7c-.2.8-4.98-.77-4.98-.77l-2.05 3.9s-2.15-3.12-3.13-3.12c-1.07 0-1.07 3.12-1.07 3.12s-3.13-3.7-4.5-5.27c-1.27-1.56-1.56 1.56-1.56 1.56s-2.04-3.43-2.04-4.4c0-1.08-1.86-2.15-1.86-2.15s-3.22 3.7-5.57 4.7c0 0 .3-2.36-.48-3.14-.78-.77-3.13 1.57-3.13 1.57s-1.66-3.6 0-7.32z"/></g><g fill="none" stroke="#004b00" stroke-width=".489"><path d="M350.82 124.52l.48 1.96s1.76-.4 2.93-.3c0 0-.3 1.56-.68 2.25 0 0 2.34-.4 3.42.3l-.5 1.16 2.75 1.16-2.54 2.05s4.1 1.48 4.88 2.65c0 0-2.64 1.86-3.03 1.76-.4-.2-.1.8.6 1.67l-2.26-.1s.88 2.06.78 2.83c-.1.8-3.7.6-3.7.6M368 137.2s.68-3.9-.4-4.88c0 0 2.55 2.15 4.2 2.24 1.77.1-.1-3.22-.1-3.22s2.45 1.27 3.63 1.56c1.17.2-.88-2.44-.88-2.44s.68-1.27 2.63-.1m-45.4-15.53s.1-.87-.3-1.36c-2.34-3.24 2.44 2.43 3.42 2.63m4.5 0s1.55 1.16 2.33 1.16-.5-3.13-.88-3.52c-.4-.4 2.83 1.27 4 1.46 1.18.3 1.37-1.95 1.37-1.95s3.62.57 4.4 1.06m-25.1-.68s-.3-2.05-.4-2.93m-24.2 12.7c-.2-.4.97-2.14.48-2.93 0 0 .68.6 1.37.7.58.1.38-2.26.38-2.26l.8.3s2.04-.98 1.65-1.77c-.4-.8 1.36 1.16 1.36 1.16s1.18-1.17 1.18-1.65c0-.5 1.36 1.18 1.36 1.18s1.46-.3 1.46-1.17c0-.87 1.86.3 1.86.3s.78-1.08.68-1.76m-19.72 9.77s.87-2.04-.1-3.4m-23.63 9.85c.1-.97.58-3.6.1-4-.5-.4.97.4 2.14.68m9.27-.38c-1.18-1.18-1.86-1.76-3.7-1.76m-16.13 8.28c.3-.68.78-2.34.5-3.32m25 51.77l1.26-2.63 1.56 3.7 1.08-2.34.4.8 2.33-2.55 2.54 3.82m40.74-16.5l1.66-3.33 2.25 1.16 1.07-3.22 2.35 1.46 1.36-3.02 2.64.68.2-2.15s1.85 1.08 2.34 1.87c.6.78 0-2.64 0-2.64l2.16.98s1.56-1.56-.6-2.44M343.6 163.1l2.33 3.43 1.95-2.24 1.76 3.8 2.25-1.37 3.2 1.85 1.47-1.17 3.52 2.55 1.45-3.02 3.13.97 2.05-3.5m-84.38-9.2s1.37-2.34.88-3.42c-.6-1.07 2.83 1.86 2.83 1.86s.78-2.35.3-3.42c-.6-1.07 3.9 3.13 3.9 3.13s.78-3.62 0-4.4c-.78-.78 4.3 1.08 4.3 1.08s2.05-.6 1.27-1.67c-.8-1.07 3.4 1.57 3.4 1.57s1-2.64 0-3.62c-1.06-1.06 3.14 1.28 3.14 1.28l-1.56-2.83 3.42.2-.3-3.13m30.3 45.12l2.23-1.07 1.96 1.95 2.16-3.42 2.63 2.54.38-2.54 2.83 1.18.6-1.57 3.13 1.67.3-2.34 1.55.5.3-1.58"/></g><path fill="#9dd7ff" d="M283.13 298.1a69.84 69.84 0 0 1-5.96-12.98l42.3-37.22 42.28 37.12c-1.47 4.3-3.42 8.9-6.15 13.3l-.34.53c-.78-.3-3.18-1.23-3.18-1.23s-1.37 1.27-2.44 1.37c-1.46.18-2.73-1.28-2.73-1.28s-1.85 1.56-3.7 1.27c-1.86-.2-2.64-1.38-2.64-1.38s-1.96 1.56-3.32 1.27c-1.27-.3-2.15-1.18-2.15-1.18s-1.18 1.46-2.85 1.17c-1.56-.3-3.02-1.18-3.02-1.18s-2.44 1.07-4 1.27c-1.57.28-2.94-1.38-2.94-1.38s-2.06 1.36-2.84 1.36c-.78 0-3.7-1.36-3.7-1.36s-3.04.98-4.1.98c-1 0-4-1.27-4-1.27s-2.85.78-4.1.78c-1.38 0-3.33-.77-3.33-.77s-2.34 1.07-3.62.78c-1.36-.28-2.43-.77-2.43-.77s-2.54 1.07-4.2.78c-1.56-.28-3.42-1.36-3.42-1.36s-.3.78-3.32 1.37h-.1"/><path fill="#fff" stroke="#000" stroke-width=".684" d="M319.46 205.1v42.8l-42.3 37.4c-4.1-11.9-4.38-22.55-4.38-27.14V205.1h46.68"/><path fill="#ffd83c" stroke="#000" stroke-width=".684" d="M319.46 205.1v42.8l42.2 37.4c4.1-11.9 4.4-22.55 4.4-27.14V205.1h-46.6"/><g stroke="#000" stroke-width=".509"><path fill="#730000" d="M292.18 289.22c3.18 1.72 2.1 1.18 8.7 3.5 5.37 1.87 11.6 2.75 20.7 2.75 7.94 0 12.42-.63 14.93-1.33 2.62-.75 3.24-1.8 3.24-1.8l-6.54 6.64s-26.3 1.42-31.06-1.66c-1.85-.97-5.86-4.2-9.96-8.1z"/><path fill="none" d="M330.76 276.82s8.4 4.78 0 13.96m-37.8-1.07l12.12-11.52-1.37 15.43m6.35 1.38v-25.8m20.7 25.8v-27.35m-10.44 27.84v-29.4"/><path fill="#ff0018" d="M310.05 270.57l-5.47 1.76 5.47.58v-2.33m10.26-4.02l-5.75 2.15 5.76.2v-2.35m10.46 1.57l-5.76 2.15 5.76.3v-2.45zm3.42 12.4c-.3-1.16 3.42-1.06 3.42-1.06s1.07 3.9 0 6.34l-3.13-.58s.3-2.64-.3-4.7z"/><g fill="#fff"><path d="M294.82 288.14l10.26-9.96-.5 5.96s-5.27 3.42-5.27 5.86l-4.48-1.86m5.46 2.06s1.08-3.13 4-4.7l-.3 6.26-3.7-1.56zm14.76-17.3s4.2-.58 7.32 0c0 0-.5 4.2 0 5 0 0-5.76-1.38-8.1.77 0 0-.8-3.9.78-5.76zm-8.9 1.08s4.2-.58 7.33 0c0 0-.78 4.7-.3 5.47 0 0-4.68-2.63-7.02-.5 0 0-1.57-3.2 0-4.97zM305.85 279.45s4.2-.5 7.33 0c0 0-.5 4.2 0 4.98 0 0-5.47-1.27-7.82.78 0 0-1.07-3.9.5-5.75zm8.4-.78s6.05-.78 9.18-.3c0 0-1.27 3.43.3 5.77 0 0-6.55-1.76-9 .3 0 0-2.04-3.92-.48-5.77zm-8.88 6.55l8.1.58s-.78 5.96-.3 6.74c0 0-6.53-1.56-7.8.58 0 0-2.15-5.46 0-7.9zm9.18 0s7.03-.5 10.25 0c0 0-1.86 4.5.2 8.4 0 0-9.18-2.64-10.46-.5 0 0-2.14-5.46 0-7.9zm10.74-12.3s4.2-.6 7.3 0c0 0-.47 4.2 0 4.97 0 0-5.75-1.38-8.1.77 0 0-.77-3.9.8-5.76zm0 5.75s4.2-.5 7.3 0c0 0-.47 4.2 0 4.98 0 0-5.75-1.27-8.1.78 0 0-.77-3.9.8-5.76zm.48 6.06s4.2-.6 7.42 0c0 0-1.07 6.54-.58 7.32 0 0-4.8-2.24-7.03-.3 0 0-1.38-5.16.18-7.02zM334.47 285.22s1.36 4.98 3.12 5.56l-2.35 2.84s-2.83-2.06-3.13-4.4c0 0 1.86-2.15 2.35-4z"/></g></g><g stroke="#000" stroke-width=".61"><path fill="#006ac8" stroke="none" d="M355.4 298.7c-6.73 11.23-17.77 21.78-35.94 28.32-18.46-6.64-29.7-17.68-36.33-28.8l.1-.1c3.03-.6 3.32-1.38 3.32-1.38s1.86 1.07 3.42 1.37c1.66.3 4.2-.77 4.2-.77s1.07.5 2.44.78c1.28.3 3.62-.77 3.62-.77s1.96.78 3.32.78c1.27 0 4.1-.77 4.1-.77s3.03 1.26 4 1.26c1.08 0 4.1-1 4.1-1s2.94 1.38 3.72 1.38c.78 0 2.83-1.37 2.83-1.37s1.36 1.67 2.92 1.38c1.56-.2 4-1.26 4-1.26s1.47.88 3.03 1.17c1.66.28 2.84-1.18 2.84-1.18s.87.88 2.13 1.17c1.37.28 3.32-1.28 3.32-1.28s.78 1.17 2.64 1.36c1.85.3 3.7-1.26 3.7-1.26s1.27 1.46 2.74 1.26c1.07-.1 2.44-1.36 2.44-1.36s2.44.78 3.32 1.07"/><path fill="none" d="M353.74 301.24c-1.46.1-1.66-.88-1.66-.88s-1.95 1.66-3.8 1.37c-1.96-.3-2.84-1.57-2.84-1.57s-2.05 1.66-3.42 1.37c-1.36-.2-2.34-1.17-2.34-1.17s-1.27 1.47-2.93 1.17c-1.66-.2-3.12-1.17-3.12-1.17s-2.64 1.08-4.3 1.37c-1.66.3-3.03-1.57-3.03-1.57s-3.8 1.28-4.6 1.28c-.87 0-3.6-1.27-3.6-1.27s-1.86 1.17-2.93 1.17c-1.17 0-4.3-1.37-4.3-1.37s-2.93.78-4.3.78c-1.37 0-3.42-.78-3.42-.78s-2.54 1.07-3.9.78c-1.37-.3-2.45-.78-2.45-.78s-2.73 1.07-4.4.78c-1.65-.3-3.6-1.36-3.6-1.36s-.3.67-3.52 1.35h-.1"/><path fill="#5ac800" d="M293.1 305.22s-.28.64-2.83 1.2c-.05 0-.7.15-.7.15.25-.04.44-.07.64-.12-.08.04-.28.1-.7.24 2.87 4.15 7.18 7.93 11.68 10.96 4.5 3.03 9.66 6.64 18.46 9.22 9.25-3.6 11.72-4.98 17.76-9.03 6.05-4.42 9.2-7.17 12.57-11.7-2.64 1.5-2.26 1.52-3.63 1.32-1.37-.3-2.37-1.3-2.37-1.3s-1.25 1.5-2.9 1.3c-1.67-.3-3.13-1.3-3.13-1.3s-2.17 1.5-4.32 1.4c-1.66-.1-3.03-1.57-3.03-1.57s-3.82 1.26-4.6 1.26c-.88 0-3.6-1.26-3.6-1.26s-1.87 1.17-2.94 1.17c-1.17 0-4.3-1.38-4.3-1.38s-2.9.77-4.28.77c-1.37 0-3.42-.78-3.42-.78s-2.44 1.06-3.9.77c-1.37-.3-2.46-.78-2.46-.78s-2.72 1.06-4.38.77c-1.66-.3-3.63-1.35-3.63-1.35z"/><path fill="#ffd800" d="M319.64 326.9c9.56-4 11.28-5.07 17.06-8.6-1 .02-3.94-.92-2.88-1.22 0 0-1.17 1.05-2.34 1.05-1.08 0-4.2-1.36-4.2-1.36s-2.93.78-4.3.78c-1.37 0-3.42-.78-3.42-.78s-2.54 1.07-3.9.78c-1.37-.3-2.45-.78-2.45-.78s-2.82 1.07-4.38.78c-1.66-.3-3.6-1.37-3.6-1.37s-2.42 1.28-3.93 1.42c4.6 3.4 9.47 6.7 18.34 9.3z"/></g><g stroke="#000" stroke-width=".509"><path fill="#b34b00" d="M313.17 248.97c1.9-1.55 2.98-3.04 2.35-4.2-.7-.98-1.83.63-3.1.25 0 0-1.88-1.17-2.4-2-1.1-1.24-2.53-2.35-3.35-3.4-.87-1-4.14-5.3-9.1-10.28-1.44-.94-1.12-4.47-2.14-5.56-.1-.77-9.95-10.53-13.46-14.06-1.43-1.04-2.18-1.72-4.67.54-1.98 1.78-2.7 3.62-.1 5.84l12.82 11.66c1.88 1.82 4.5 2.15 5.6 3.1l13.02 13.32c1.64 1.42 2.43 2.42 1.5 3.63-1.03 2 .08 2.28.3 2.34.16.08 1.08.08 1.7-.4l1.03-.77z"/><path fill="none" d="M280.66 214l13.4 13.24"/><path fill="#fff" d="M298.8 220.05c.2-.4.66-1.4 1.14-2.52.2-.44 3.8-6.2 5.6-6.36 0 0 11.2 8.16 11.2 8.27.05.44-4.85 7.77-5.28 7.2 0 0-13.13-5.5-12.66-6.6z"/><path fill="#ccb8c8" stroke="none" d="M305.95 221.97c-1.54-1.2-4.08-2.35-6.12-3.72l-.92 1.92c.75.83 10.07 5.17 11.6 6 0 0-1.77-2.04-4.55-4.2z"/><path fill="none" d="M299.82 218c1.2.85 3.48 2.3 4.92 3.13 2.76 1.92 4.5 4.03 6.48 5.16"/><path fill="#782121" d="M277.1 252.94l25.53-31.6c.48-.42 2.85-.45 3.17 2l-24.18 32.94s-2.75-.27-4.5-3.34z"/><path fill="#730000" d="M362.66 253.3c-.88.67-2.37.85-2.37.85-1.67-1.95-3.04-4-5.4-6.54l-25.48-31.35 2.64-2.54L355 240.58c.7.7 4.7 4.9 8.5 9.87 0 0 .34 1.95-.84 2.85z"/><path fill="#fff" d="M338.1 220.25l-4.1-4.88s-3.1.4-3.7 2.05c0 0-2.24 3.7-8.2 4.1 0 0 1.66 6.94 8.6 10.65 0 0 2.53-7.13 4.97-8.4 0 0 2.54-1.86 2.44-3.52z"/><path fill="#730000" d="M327.86 241.94c-.58-.2-1.17 0-2.05.5-.77.48-1.75.28-1.65-.7.1-.88 0-.78 1.08-1.46 1.56-.88 3.6-.98 4.88-.5l-2.24 2.16m27.83-27.75c-.2-.7-.4-1.37.3-2.25.67-.78.67-2.15-1-1.46-1.65.67-2.24 2.52-.87 5.36l1.56-1.67z"/><path fill="#fff" d="M327.28 242.53l28.9-28.72 7.13 7.63s-1.45-.6-2.04-.2c-.48.4.6 1.86.6 1.86s-1.38-.5-1.96-.1c-.7.38 0 2.04 0 2.04s-1.18-.88-1.76-.5c-.5.4 0 2.25 0 2.25s-1.56-.5-1.95-.1c-.4.4 0 2.05 0 2.05s-1.58-.78-2.36 0c-.78.78.4 1.85.4 1.85s-1.96-.78-2.74.4c-.78 1.17.1 2.24.1 2.24s-1.57-.78-1.96-.4c-.4.4 0 2.25 0 2.25s-1.36-.8-2.24.2c-.88 1.07.1 1.95.1 1.95s-1.27-.8-1.96-.4c-.68.4.2 2.25.2 2.25s-1.27-.88-2.15 0c-.9.98 0 1.95 0 1.95s-1.1-.98-2.16 0c-.98 1.08 0 2.15 0 2.15s-1.56-.78-2.15 0c-.7.78.2 1.86.2 1.86s-1.18-.7-1.96-.3c-.78.4 0 2.15 0 2.15s-1.17-1.26-1.66-.57c-.6.68.1 2.34.1 2.34s-1.08-1.27-1.67-.58c-.67.57.4 2.04.4 2.04s-1.95-.88-1.46-.88z"/><path fill="#7e4b7e" stroke="none" d="M354.52 216.15l-2.24 2.25.48 7.72s.5-2.25 1.17-.7c0 0 .2-1.84.7-1.55-.4-.2-.1-7.72-.1-7.72m-4.2 4.2l-1.66 1.56.58 7.73s.5-2.93 1.17-.6c0 0-.1-1.94-.1-2.63 0 .5 0-6.05 0-6.05m-17.48 17.3l-1.56 1.66.4 4.7s.48-3.03 1.16-.7c0 0-.2-1.94-.2-2.63 0 .5.2-3.02.2-3.02"/><g fill="none" stroke="#7e4b7e" stroke-width=".879"><path d="M330.9 218.3c1.06 1.08 4.1 4.98 4.1 4.98m-2.74-2.83c-.2.6-.58 2.25-1.46 3.13m1.94-2.74c-.1.4-.1 1.66-1.46 2.93m1.95-2.34c-.2.68-.3 1.17-.78 1.66m1.08-1.08c0 .5-.3.58-.4.88m-3.2-2.74c-.4.4-3.24 2.24-4.8 2.83m4-1.77c-.4.4-2.15 1.76-3.13 2.15m2.84-.98c-.58.4-1.56 1.37-2.34 1.66m1.76-.5c-.4.5-.98.9-1.47 1.2M311.3 224.65c.32-.6.88-1.74 1.6-2.8.92-1.34 1.32-1.57 1.8-2.04"/></g></g><path fill="#289400" stroke="#060" stroke-width=".488" d="M217 303.4c1.48.67 0-4.8.5-6.85.58-2.15 4.78 5.27 6.84 6.25 2.14 1.08 15.23-5.18 15.23-5.18l3.13-5.86 1.66 4.8s3.6-4.2 4.68-5.77c1.08-1.57 0 3.12-1.07 4.68-1.08 1.56 3.13 2.15 2.64 5.27-.48 3.13 4.2-2.15 4.2-2.15l12.12 1.08s2.05-7.33 5.27-11.53l.97 4.7 4.98-5.1c5.56 14.67 17.3 30.6 41.3 39.28 22.57-8.2 34.2-22.76 40.25-36.63l6.74 6.94s5.27-1.57 6.25-2.15c1.06-.5 12.4 4 12.4 4s2.04.78 3.12 1.56c1.07.78.3-3.42.3-3.42s5.75 1.07 5.26 4.2c0 0 1.27-2.93 2.35-3.42 1.07-.5 3.6 2.64 4.2 3.7.48 1 12.9 2.55 14.65 3.63 0 0 1.36 1.56 1.36 2.63 0 0 2.64-.3 4.7-.3 0 0-1.57.8-1.57 2.45 0 1.57-.78 2.84-2.34 3.62-1.57.78 0 1.36 2.05 1.56 2.15.3 0 2.94-4.2 4.5 0 0-.98 2.35.78 3.13 0 0-3.62.3-4.2-.78 0 0-1.27 2.44-1.27 3.7 0 0-3.9-1.26-5-1.84 0 0-1.55 1.56-.48 2.35 0 0-7.13-.78-8.5-3.42 0 0-2.53.78-2.05 1.66 0 0-4.98-3.43-6.54-3.43l-1.07 1.76s-3.42-2.05-4.5-2.05c-.98 0-.2 1.56-.2 1.56l-4.78-2.93-1.85 2.94s-3.9-1.86-4.98-2.64c-.98-.78-1.27 1.57-2.05 1.86 0 0-1.57-2.15-3.7-1.86 0 0-.8 2.64-.5 3.42 0 0-6.06-1.27-7.13-1.56-1.08-.3-.5 1.27 0 2.34 0 0-4.5-1.27-5.47-2.05l-.3 2.05s-3.7-.3-4.5-1.07l-2.33 3.22h-3.42l-.78 2.83s-6.54-1.85-7.13-.78c-.5 1.07.3 2.64.3 2.64l-5.77-.78-.48 2.34s-6.66-2.05-8.22-1.08c0 0-2.05 2.15-3.42 2.64-1.26.6 0-.78 0-.78l-2.05-2.83s-2.33 1.27-3.7.78c-1.27-.6-5.47 2.05-6.84 1.27 0 0 0-1.86-1.07-2.35-1-.48-2.84-.48-3.62.8 0 0-.78-1.1-2.15-3.14-1.27-2.14-3.13.2-3.13.2l-.3-2.54-3.6-.3c-2.15-.28-2.64-2.14-2.64-2.14s-5.57.6-6.35.3l1.38-1.28s-7.62 1.57-9.18.98c-1.66-.48 1.76-2.63 1.76-2.63s-7.04-1.77-8.4-2.06c-1.27-.3-8.9 1.26-9.97 1.26-1.08 0-1.57-1.76-1.57-1.76s-1.86 1.57-3.42 2.06c0 0-1.26-3.13-.48-3.42 0 0-4.98 1.36-5.27 2.64 0 0-1.27-2.06-1.08-2.93 0 0-2.34 3.7-3.42 4.48-1.07.78-.2-1.86-.2-1.86s-2.92 3.7-4 4v-2.63s-8.4 4.48-10.74 3.9c0 0 0-1.86.8-2.35l-5.28-.3c-1.27-.2-2.83-.77-4.2-1.06-1.27-.2 1.86-1.58 4-1 0 0-5.86-2.14-7.62-1.07 0 0-.78-2.14 2.35-2.93 0 0-4-3.9-6.35-3.6 0 0 2.64-1.57 4.78-.8 0 0-2.44-6.64-4-7.42 0 0 5.57-.97 7.13-.2z"/><path fill="#730000" stroke="#000" stroke-width=".489" d="M208.9 188.8l71.1-36.82c.34-1.9-.74-3.4-1.85-4.9-20.34 9.98-38.84 22.08-61.44 29.41-1.26.5-12.5 5.17-18.25 12.1-1.83 1.84-1.96 4.54-1.96 4.54s.13 3.1.78 3.94c0 0 .17.86 1.23 1.54 0 0 .67.32 1.13.16.52.1 1.36.1 2.53-1.96 1.17-1.96 4.98-6.45 6.74-8.02z"/><path fill="#fff" stroke="#000" stroke-width=".489" d="M266.13 152.37l9.18-4.4s3.14 2.35 2.85 5c0 0 .68 6.04 8.2 10.24 0 0-6.35 7.92-17.48 8.6 0 0 1.28-10.43-1.07-13.46 0 0-.4.37-.22-.15.34-1.02-.22-4.5-1.65-5.27-.17-.1.12-.38.2-.56z"/><path fill="none" stroke="#7e4b7e" stroke-width=".781" d="M276.88 153.64c-1.96.78-8.3 4.1-8.3 4.1m5.27-2.15c-.1.96-.68 3.3 0 4.97m-.88-4.68c0 .47-.78 2.23.1 4.58m-1.07-4.1c-.2.97-.4 1.56 0 2.63m-.8-2.04c-.18.58 0 .88 0 1.27m5.77-1.57c.3.78 2.93 4.88 4.5 6.55m-4.1-4.68c.3.78 1.76 3.6 2.83 4.68m-3.03-3.02c.4.97 1.18 2.73 1.96 3.7m-1.96-1.75c.2.8.6 1.76 1.18 2.45"/><g stroke="#000" stroke-width=".489"><path fill="#b34b00" d="M342.3 148.28l26.1 12.8c5.24 2.53 7.12.18 10.08 1.47l51.54 26.25c4.43 1.94 6.9 2.55 6.27 4.84-.12 3.64 1.7 3.7 2.2 3.73.36.1 2.1-.16 2.83-1.13.55-.63.57-.7.57-.7.58-.57.48-.63.66-.9 2.17-3.1 3.37-5.8 1.1-7.57-2.6-1.22-2.9 1.54-5.62 1.25 0 0-4.9-1.86-6.65-3.13-3.25-1.77-7.77-3.86-8.8-5-3.3-.63-28.06-14.56-42.1-21.56-1.5-1.26-2.32-5.92-5.28-7.47-.86-1.26-19.86-9.94-29.8-14.9-3.66-1.37-5.7-2.3-8.35 2.2-2.3 4.4-1.74 6.8 5.22 9.8z"/><path fill="none" d="M344.5 142.8l29.24 14.6"/></g><g fill="#ffa54b" stroke="#000" stroke-width=".509"><path fill="url(#c)" d="M309.73 165.12c-.2.6-.7.2-.7.4-.42 2.14-.32 3.26-.82 4.48-.7 1.43-3.25 2.75-3.15 2.65-2.03.6-4.47 3.05-8.44.8-.2-.1-.4-.3-.6-.5 0 0 1.12 4.17-2.95 6.2-1.42.72-15.77 8.25-15.77 8.25s-1.53 2.75-.5 6.5c.1.62.3 1.13-.3 1.54-.93.7-2.66 2.75-3.68 6 0 0-3.05-1.32-3.05-3.25 0-1.95 1.22-2.96 1.53-4.4.3-1.3 1.1-4.67.7-5.7-.4-1.1-2.23-1.5-2.94-1.92-.6-.4-1.43.4-1.32 1.32.1 1.02.8.8 1.62 1.02 0 0-.9 1.93-.8 3.35l-9.27 4.8s1.22 1.6 1.63 2.33c.4.7 1.32 10.17 4.07 14.65s3.66 3.26 4.27 3.87c.5.5 1.32 1.32 2.04 1.93.7.5 3.86.8 4.47-.9.72-1.65 1.22-2.66 3.16-4.2 1.94-1.5 5.9-5.38 5.9-7.1 0 0 2.35 6.7 2.04 12.3 0 0 8.55 1.73 16.18 1.93 7.63.1 11.5-1.52 11.5-1.52s1-6.4.6-7.63c0 0 1.22 4.17 2.14 5.6 1.02 1.72 2.14 5.28 4.37 5.5 2.14.1 3.97-2.15 4.17-3.06v-6.72h8.65c0-.1 3.87 1.42 5.1 1.22 1.2-.1 1.92-1.22.8-1.63l-.4-.3c1.1 0 2.54.7 2.54.7h4.26c.1-.1 0-.4-.1-.5-.3-1.22-2.55-2.24-4.17-2.95-1.64-.62-3.47-1.33-4.7-1.43-1.93-.2-3.25-.1-6.2.4-.8.1-3.87.4-5.8 1.33-.5.3-1.02.4-.8-.92.3-1.43.2-7.84-1.33-10.58-1.12-1.94-1.02-3.57-.82-5.2.1-1.62.2-7.22 0-8.85-.3-1.62-2.54-3.86-6.6-4.37-3.87-.5-7.13-3.66-7.33-6.2-.3-2.55.4-7.23.8-9.26" transform="translate(-40) scale(.96)"/><g fill="none"><path fill="url(#d)" d="M292.44 153.63c-.7 3.25-.7 6.1-.6 9.26.1 2.12 1.1 4.56 2.03 6.7.6 1.43 1.42 3.05 2.74 3.87 3.57 2.34 6.93-.2 8.86-1.02.92-.3 2.34-1.62 2.75-2.44.52-1.2.3-2.13.82-4.47-.1.1.82-.4.7-.4.93-1.53.73-2.04 1.23-3.06.5-1-.6-2.13-1.83-1.93.6-1.93 1.02-4.07.4-5.9-.2-.6.52-2.24-.6-1.83-4.58 1.84-9.97 1.43-14.85 1.43-.4 0-.72-.8-1.33-.7-.1 0-.2.3-.3.5" transform="translate(-40) scale(.96)"/><path fill="#000" d="M240.35 149.14c-.5-.4-.6-1.27 0-3.13.68-1.84 0-1.94 1.07-3.02 1.08-1.07.78-1.56 1.47-1.85.67-.2 2.72-.2 3.4-.5.6-.28 1.47-.67 2.84-.87 1.46-.3 4.4-.2 5.76.6 1.46.76 2.44 2.72 3.32 3.4.98.7 1.57 3.52 1.37 7.62-.3 4.1-1.1 3.32-1.1 3.32s-1.16-1.95-2.13-.3c0 0 0-1.55.2-2.73.1-1.17-.6-3.32.1-4.78 0 0-5.58 1.75-8.4 1.65-2.94-.2-7.04-.88-7.24-1.56l-.68 2.14"/><path fill="#fff" stroke="#fff" stroke-width="0.96" d="M243.18 145.73c-.3-.6-1.76-2.74-.58-3.42 1.07-.58.4 2.64 1.85 3.33 0 0-.48 1.46-1.26.1h-.02z"/><path d="M246.4 153.73c-.48 1.67-.68 2.06-.87 3.03m10.16 1.56c.2.6.38.3.87.4m.4-3.8c.48-.6 1.16-.3.77 1.16M240.74 151.4c.88.28 1.76.58 2.64.97 1.47.6.6 2.73.2 4.1-.2.7-.98 1.86-.6 2.45.5.77 1.1.3 1.97.38 0-.3.58-.5.78-.5.68-.08 1.07.5 1.56.3.57-.3.48-1.16.28-1.65m-.1-4.3c.1-.4.98-.78 1.47-.88 2.05-.4 3.5-.68 5.17.5m-5.47 10.63c-1.66.4-3.42.68-4.98-.2m0-.77c.78-.4 1.08-.78 2.05-.3 0-.1 1.08-.38 1.08-.38.78 0 1.27.3 2.05.78m-5.28.3c.88-.3 3.23-.3 5.18.08"/><path fill="#fff" d="M240.65 153.73c.68-.1 1.46-.87 3.02.3 1.08.68-1.75 1.37-1.26 1.27-1.26.2-1.65-.5-1.75-1.08 0-.2-.2-.5 0-.5zm8 .78c.7-1.36 1.76-1.06 2.74-.77.97.3.67.1 1.55.6-1.07.18-.78.28-1.56.67-.9.4-1.67.58-2.26.2-.2-.2-.68-.5-.68-.88 0 .1.1.2.2.2z"/><path fill="#000" d="M242 154.9c.4 0 .7-.38.7-.78 0-.48-.3-.88-.7-.88-.48 0-.77.4-.77.88 0 .4.3.8.78.8zm8.3.2c.4 0 .7-.4.7-.88 0-.5-.4-.78-.78-.78-.4 0-.7.3-.7.78 0 .5.4.88.8.88z"/></g><g id="g"><g fill="none"><path d="M292.02 205.1c-.6-.67-.98-.97-1.76-1.26l-1.96-.97c-.68-.4-1.66-.5-2.24-.88m.4 2.53c-.3-.2-.5-.3-.8-.5-.3-.1-.68-.1-.97-.2-.1 0-.1-.18-.2-.18-.88-.1-1.76-.5-2.35-1.27m-60.26-9c.87.7 3 2.16 3.2 5 .2 1.46 1 2.92 1 2.92m-12.6-7.5c.48 1.64.57 7.1 5.75 12.88m-4.78-20.52c-.4 1.08-.88 2.05.2 2.84m13.86 10.26c1.08-2.45 4.4-2.25 4.4-4.6M233.42 198.96c-.3-2.74-.88-4.3-.4-8.3.2-1.18.4-5.67 0-7.82 0 0 1.57 7.52-3.5 9m33 12c0-3.8.88-5.95.88-5.95 1.18-5.38-1.07-7.44-.2-8.8.8-1.18 1.96-3.62.4-8.5 0 0 2.73 10.06-4.3 10.06-7.13 0-6.84-2.64-6.84-2.64M233.02 182.84c0 2.05 0 8.1 8.7 8.1 2.63 0 5.47-1.84 7.03-3.12m2.15-2.64c-.3-1.85-.3-4.2-.3-6.64m-13.08-3.3c2.34-.3 4.2-.6 8.6-.6m.3-6.06c.48 2.15-.3 5.56 3.7 6.05m4.2-6.83c-.6 1.56-.6 3.12-.78 4.2m.2 2.64c1.65 0 4.78-1.07 8.68-.3m1.37 21.88c.77 1.57.97 3.62 3.4 5.96m-30.46-10.94c.2 1.27-1.66 5.47-.3 8.9 1.27 3.4 1.08 7.32-1.07 10.64m6.35-18.26c-.78 1.56-2.15 3.12-2.44 4.5m6.34-1.57c0 .97-2.64 8.4-4.5 10.45 0 0 3.42 1.36 2.94 6.35m7.03-20.22c0 1.27-.2 1.56.87 2.34m2.35 0c1.26 1.56 5.27 6.25 4.4 8.9m-7.04-6.26c.3 1 .3 6.07-.6 8.6m-2.03-.2c-1.08 0-2.64.8-2.93 2.65m8.4-2.94c1.06-.28 3.2 1.57 3.2 6.85m15.06-9.86c-2.05.58-2.93 1.65-2.34 1.06-1.08.88-2.06 1.47-2.06 1.47"/></g><path fill="#000" d="M238.2 190.07c.58 0 1.07-.4 1.07-.88 0-.4-.5-.8-1.07-.8-.5 0-.98.4-.98.8 0 .48.5.87.98.87zm22.17.3c.5 0 .98-.4.98-.88 0-.5-.48-.8-.98-.8-.58 0-1.07.3-1.07.8 0 .48.5.87 1.07.87z"/><path fill="#fff" d="M229.32 230.22c1.17-7.62 4.78-13.97 4.88-14.56 0 0 3.7.8 10.16 1.37 6.35.68 8.1.4 11.03.2 2.82-.3 6.54-.8 6.54-.8s1.17 2.36 1.27 4.7c.3 4.98 2.15 26.57 2.35 32.33 0 0 .78 3.42.78 11.82 0 9.2 2.54 27.84 2.54 37.8l-2.54.5s-13.87 1.07-13.87-.78c0-2.05-.78-26 1.27-40.44 0 0-.5-2.84-1.27-5.28-.78-2.34-4.2-9.67-4.2-11.23 0 0-5.47 15.43-5.76 18.07-.3 2.44-1.08 36.82-1.56 39.66 0 0-7.92 6.06-9 6.64-1.06.5-8.68-3.22-8.88-4.2-.3-1.07.78-12.7 4.4-31.84 1.37-6.84.58-8.1.58-9.96 0-1.86.1-26.38 1.27-34h.02z"/><path fill="none" d="M242.5 263.92c-.6 2.15-1.56 4.2-3.42 5.57m-2.64-51.5c-.3 1.28-2.15 7.04-6.84 10.46m13.68-9.38c-1.08 3.42-5.28 21.8-6.06 43.57m-.3 6.84c-.18 2.04-1.26 17.28-1.55 19.92m-.78 2.93c-.5 1.07-2.65 9.96-2.65 17.87m30.96-34.48c-.2 1.86-.97 15.04 3.43 26.86m-17.77-82.54c-.3 2.15-.78 16.02-.78 17.1 0 1.07 1.56 2.63 2.34 2.93 0 0-1.56.48-1.86 5.75m-3.9-12.4c-.3 1.65-1.86 8.2-2.94 10.84m12.6-24.43s4.7.98 4.98 0c0 0 1.56 28.33 3.7 44.05m-10.73-40.44c0 1.86-.58 15.82-.58 15.82m2.33 2.05s1.85 2.64 1.37 3.9M238 218.3c1.57.5 2.94.78 2.94.78m4.98 1.57c-.3.78-.6 4.4-.6 4.4m8.4 37.3c.6.8 1.38 1.87.8 4.2"/><path fill="#9b5f00" d="M233.5 215.47s0-3.12 1.18-4.7c0 0 3.32.7 8 1.18 4.8.5 8.6.88 12.12.5 3.52-.4 7.13-1.28 7.13-1.28s.98 4.6.5 5.28c0 0-3.82.78-8.02.97-4.3.3-11.4-.4-13.85-.77-3.23-.4-6.06-.98-7.04-1.18z"/><path fill="#fff" d="M236.54 215.86l.58-4.7.98.1-.2 4.9-1.36-.3m21.2-3.9l.1 5.26 1.17-.2-.1-5.37-1.17.3m-15.04 0l-.4 5.08h.7l.67-5.08h-.98"/><path d="M225.7 307.98c-.3 1.27-.78 3.03-.98 5.27 0 .5-.48 3.13.98 3.23 1.07.1 1.37-2.74 1.37-2.74s-.98 3.13.3 3.52c1.75.38 1.94-3.42 1.94-3.42-.18 1.07-1.36 3.8.3 4.1 1.76.3 2.25-3.7 2.25-3.7s-1.46 4 .3 4.1c1.65.1 1.65-3.92 1.65-3.92s-.87 4.8 1.47 4.4c1.27-.2 1.56-1.86 1.86-2.84.38-1.46 1.26-3.3.2-6.34-.8-2.25-.5-2.84-.5-2.84s-2.73 2.06-4.88 3.42c-.98.6-6.25-2.24-6.25-2.24zm28.52-4.2c-.5-.3-.4 1.75-.58 2.72-.1 1 .2 3.13 3.5 2.94 3.23-.3 6.46-.98 8.5-.5 2.06.6 5.1.7 6.75.7 1.65 0 2.72-.2 3.5-.5.7-.3 2.15.4 2.84.4.68 0 1.75-1.08 1.66-1.76-.1-1.28-1.27-1.28-2.93-1.37-1.57-.2-3.72-.48-4.8-.87-1.06-.4-3.02-1.47-5.46-1.95 0 0-4.68.2-5.65.2-.98 0-6.74.28-7.33 0z"/></g><g fill="none"><path fill="#ffb366" d="M205.48 182.26c-.5.3-1.07-1.96.4-2.84 0 0 .38-1.85 1.94-2.05 0 0 1.27-1.76 3.13-1.56 0 0 2.15-1.45 2.93-1.26.78.1 2.74 2.05 2.83 2.74.2.68 0 1.85-.48 2.34-.58.58-.98-.1-1.07-.88 0 0 .4 1.46-.78 2.05-1.17.68-1.08.2-1.17-.6 0 0-.3 1.57-1.08 1.76-.78.3-1.27-.4-1.86-.4 0 0 .98.8.3 1.38-.7.5-1.47.3-1.96-.1-.48-.48-1.07-1.76-3.12-.58z"/><path d="M215.05 178.65c-.5-1.57-2.05-2.94-3.9-2.74m2.15 4.2c-.3-.4-.4-.78-.7-1.17-.87-1.46-2.72-1.36-4.3-1.75m2.36 4.4c-.6-.4-.78-1.18-1.37-1.47-1-.38-1.96-.87-3.14-.67"/></g></g><g stroke="#000" stroke-width=".509" transform="translate(-40) scale(.96)"><path fill="url(#e)" d="M439.14 165.12c.7-.3.5.6.6.92.32 1.32.32 2.74.82 3.96.6 1.12.8 1.53 1.83 2.04 1.62.9 6.4 3.56 9.76 1.42a3.1 3.1 0 0 0 .7-.5s-1.2 4.17 2.96 6.2c1.32.7 15.67 8.24 15.67 8.24s1.5 2.75.6 6.5c-.2.62-.4 1.13.2 1.54 1.02.7 2.65 2.75 3.77 6 0 0 2.95-1.32 2.95-3.25 0-1.95-1.22-2.96-1.53-4.4-.2-1.3-1.03-4.67-.62-5.7.4-1.1 2.14-1.5 2.85-1.92.7-.4 1.53.4 1.32 1.32-.1 1.02-.8.82-1.63 1.02 0 0 1.02 1.93.82 3.35l9.36 4.8s-1.23 1.62-1.63 2.33c-.5.7-1.43 10.17-4.17 14.65-2.75 4.48-3.67 3.26-4.17 3.87-.6.5-1.43 1.32-2.14 1.93-.62.5-3.77.8-4.5-.92-.7-1.62-1.2-2.64-3.14-4.17-1.93-1.52-5.9-5.4-5.9-7.12 0 0-2.34 6.72-2.03 12.3 0 0-8.45 1.74-16.18 1.95-7.63.1-11.5-1.54-11.5-1.54s-1.02-6.4-.6-7.63c0 0-1.23 4.17-2.04 5.6-1.1 1.72-2.23 5.28-4.37 5.5-2.23.1-3.96-2.15-4.27-3.06v-6.72h-8.64c0-.1-3.77 1.42-5.1 1.22-1.2-.1-1.82-1.22-.8-1.63l.4-.3c-1.12 0-2.54.7-2.54.7H402c0-.1.1-.4.1-.5.32-1.22 2.56-2.24 4.28-2.95 1.63-.62 3.36-1.33 4.58-1.43 1.93-.2 3.26-.1 6.2.4.82.1 3.97.4 5.8 1.33.5.3 1.12.4.82-.92-.3-1.42-1.22-5.6.3-8.34 1.02-1.94.92-3.56.82-5.2-.2-1.72-1.12-5.6-1.12-7.32 0-5.7 4.38-8.04 8.24-9.26 4.27-1.32 7.12-2.75 6.92-5.3-.1-2.63.6-7 .2-9.05"/><g fill="none"><path fill="url(#f)" d="M456.34 153.63c.92 3.36 1.12 4.17 1.12 5.3 0 1.2-.5 1.4-.1 2.74.7 2.44-.72 5.1-2.45 7.94-.8 1.33-1.4 3.06-2.73 3.87-3.36 2.14-7.43-.4-9.56-1.32-1.1-.5-1.72-1.32-2.03-2.14-.4-1.2-.5-2.33-.8-3.96 0-.3.1-1.22-.62-.9-1.22-1.44-1.02-2.05-1.52-3.06-.5-1.02.9-2.14 2.03-1.94-.6-1.93-.9-4.07-.3-5.9.2-.6-.5-2.24.5-1.83 4.58 1.84 9.97 1.43 14.86 1.43.4 0 .7-.8 1.32-.7.1 0 .2.3.3.5"/><path fill="#000" d="M456.75 155.35c.5-.4.2-2.34-.3-4.38-.2-1-1.02-1.42-2.14-2.54-1.1-1.12-1.52-1.12-2.23-1.42-.6-.2-2.03-.2-2.74-.5-.6-.3-2.24-.1-3.77.1-2.04.3-3.15.2-4.68 1.02-1.52.8-2.74 1.73-3.25 3.26-.4 1.1-1.12 2.54-.82 6.8.22 4.28 1.03 3.47 1.03 3.47s1.12-1.63 1.83-.6c0 0-.1-2.25-.3-3.57-.1-1.22 0-2.75.5-4.58 0 0 4.7 1.73 9.06 1.73 3.05 0 7.02-.3 7.12-1.02l.7 2.25z"/><path d="M450.44 160.14c.6 1.73.1 1.22.4 2.34m-10.27 2.03c0 .82-.6.62-1.02.62M456.85 158.82c-.92-.7-2.65-.2-3.46.1-1.53.7-.72 2.24-.2 3.67.2.7 1 1.7.5 2.43-.4.8-.72.4-1.63.5.1-.3-.8 0-1.12 0-.6-.1-.9.4-1.42.2-.6-.3-.5-1.2-.3-1.72m.1-4.47c0-.4-1.33-.8-2.75-.92-2.24-.1-2.45.12-4.18 1.34m11.5 8.95c-.4-.62-1.02-.93-2.14-.42 0-.2-1.52-.4-1.52-.4-.8 0-1.32.3-2.14.7m5.6.62c-.93-.6-3.27-.2-5.6-.2m.2.8c1.73.52 3.46.83 5.2 0"/><path fill="#fff" d="M456.44 160.14c-.7-.1-1.02-.92-3.15.3-1.13.62 1.82 1.43 1.4 1.33 1.23.2 1.64-.5 1.74-1.12 0-.2.2-.5 0-.5zm-8.34.8c0-.8-1.83-1.1-2.85-.8-1.02.3-.6.1-1.52.6 1.02.2.7.3 1.52.72.92.4 1.12.8 2.34.2.3-.1.7-.5.8-.9-.1.1-.2.2-.3.2z"/><path fill="#000" d="M455.12 161.36a.8.8 0 0 1-.8-.8c0-.52.3-.93.8-.93.4 0 .7.4.7.92 0 .4-.3.8-.7.8zm-8.75.2c-.4 0-.7-.4-.7-.92 0-.5.4-.8.8-.8s.7.3.7.8c0 .52-.3.92-.8.92z"/></g><use width="100%" height="100%" fill="#730000" xlink:href="#g" transform="matrix(-1 0 0 1 748.816 0)"/><g fill="none"><path fill="#730000" d="M491.64 193.5c.5.22 1.93-2.02.5-3.04 0 0-.5-1.93-2.13-2.04 0 0-1.3-1.93-3.25-1.62 0 0-2.13-1.53-2.94-1.43-.9.2-2.94 2.24-3.05 2.95-.1.6 0 1.84.5 2.45.62.5 1.03-.1 1.13-1.02 0 0-.4 1.52.8 2.24 1.23.7 1.13.1 1.23-.72 0 0 .32 1.62 1.13 1.93.82.3 1.33-.4 1.94-.4 0 0-1.02.8-.3 1.32.7.6 1.52.3 2.03-.1.6-.4.3-1.73 2.44-.5z"/><path d="M482.5 189.75c.5-1.73 2.23-3.15 4.06-2.85m-2.14 4.38c.2-.4.3-.82.6-1.22.93-1.53 2.96-1.53 4.6-1.84m-2.56 4.48c.6-.4.8-1.12 1.43-1.42 1-.5 2.12-.92 3.24-.7"/><path fill="#730000" stroke="none" d="M482.3 186.77c-.9.72-1.83 1.8-1.9 2.28-.1.6 0 1.83.5 2.44.56.45.95-.03 1.1-.8-.06.47-.07 1.47.84 2 1.22.72 1.12.1 1.22-.7 0 0 .3 1.62 1.13 1.93.8.3 1.3-.4 1.93-.4 0 0-1.03.8-.32 1.3.72.6 1.53.3 2.04-.1.6-.4.3-1.7 2.44-.5.27.12.8-.44 1.03-1.15l-7.68-5.53-2.3-.78z"/><path d="M480.68 188.2c-1.5 2.57.5 4.12 1.16 2.6-.2 2.4 1.6 2.3 2.3 1.55.65 2.5 1.82 1.4 2.9 1.16-1.23 2.3 1.48 1.62 2.12 1.1.92-1.37 1.35-.3 2.03-.42l1.16-1.25m-7.98-5.7c-1.7.9-2.5 2.14-2.54 3.7m4.87-2.2c-1.68.9-2.5 2.14-2.53 3.7m5.4-1.75c-1.68.9-1.76 1.72-2.48 2.83"/></g></g><path fill="#5ac800" d="M238.5 310.7l-.2-4.48 1.86 1.56.48-3.4c.8-.2 2.06 1.36 2.06 1.36l-.2-3.43 2.83 3.14s-.2-2.64.78-4.2c0 0 2.16 1.85 2.16 4 0 1.86 1.86-2.64 1.86-2.64a3116.23 3116.23 0 0 0 1.56 5l1.27-1.87 1.07 3.9 2.35-3.4 1.85 4 4.2-.3.5 2.34 1.84-2.05 2.45 1.56s2.06-.58 3.13-.58c1.08 0 2.35 1.37 2.35 1.37s.78-1.37 1.56-1.86c.78-.48 1.86.8 2.15 1.57l1.55-2.83s2.05 2.05 2.34 2.83c0 0 .28-2.34.77-3.12.5-.78 1.27.3 1.86 1.27l1.27-4.2s1.37.3 2.34 1.85c1.07 1.56 1.07-2.34 1.07-2.34s2.36 3.13 2.94 5.27c0 0-16.17 5.56-27.57 4.04-13.43-1.8-24.48-4.33-24.48-4.33m110.85-.48s.78-2.15 1.86-3.22c0 0 2.06 2.44 2.06 3.22 0 0 .58-.3 1.66-1.07l1.56 1.56 1.86-1.26 1.75 1.56 3.22-1.36 1.27 1.36 4.97-.58 1.85.78 1.76-2.25 1.66 1.76 2.64-2.63s1.27 1.08 1.56 1.86c0 0 2.15-1.07 2.64-1.86 0 0 2.05-.78 2.34.5 0 0 1.27-.98 1.17-2.06-.1-1.06 1.46-.28 1.95 1.1 0 0 .58-2.16 2.14-2.36 0 0 1.07 1.27.77 3.62 0 0 2.35-1.86 3.42-2.06 0 0 .48 2.64-.3 5 0 0 2.44-4.02 2.93-2.65.2.78.78 3.42.2 5.27l2.14-1.36.78 2.63 2.35-.5s-13.87 2.13-26.93.88c-13.07-1.24-25.32-5.86-25.32-5.86m-9.66 9.7c.62-.4-4.37 10.28-16.5 10.85-16.85.8-31.27-7.63-31.27-7.63s1.76-2.93 2.83-3.7c0 0 2.35 1.85 3.13 4.2 0 0 .28-1.57 1.06-2.94 0 0 2.93 1.37 3.42 3.23 0 0 1.08-1.86 1.86-2.35.78-.6 1.56 2.05 1.56 3.62 0 0 1.86-1.96 2.93-2.06 0 0 2.05.98 2.64 4.4 0 0 1.95-1.85 2.64-1.56 0 0 2.35 1.56 1.76 3.7-.3 1.18 2.35-1.36 5.57-2.14l2.83 2.15s2.64-3.53 3.42-4.7c0 0 2.15.78 2.15 2.05 0 0 .98-3.7 1.76-4.1.77-.5 1.84 1.17 1.84 2.25 0 0 .3-2.84 1.86-3.42 0 0 1.56 1.07 1.56 2.15 0 0 1.66-3.23 2.93-4z"/><path fill="none" stroke="#060" stroke-width=".489" d="M238.5 310.7l-.2-4.48 1.86 1.56.48-3.4c.8-.2 2.06 1.36 2.06 1.36l-.2-3.42 2.83 3.12s-.2-2.64.78-4.2c0 0 2.16 1.86 2.16 4 0 1.86 1.86-2.63 1.86-2.63.48 1.57 1.56 5 1.56 5l1.27-1.87 1.07 3.9 2.34-3.4 1.86 4 4.2-.3.5 2.35 1.84-2.05 2.45 1.56s2.06-.6 3.13-.6c1.08 0 2.35 1.37 2.35 1.37s.78-1.36 1.56-1.85c.78-.5 1.85.78 2.14 1.56l1.57-2.83s2.05 2.05 2.34 2.83c0 0 .28-2.34.77-3.13.5-.78 1.27.3 1.86 1.27l1.27-4.2s1.36.3 2.34 1.86c1.07 1.56 1.07-2.35 1.07-2.35s2.36 3.13 2.95 5.28m58.8-.78s.78-2.14 1.85-3.22c0 0 2.05 2.45 2.05 3.22 0 0 .6-.3 1.66-1.07l1.58 1.56 1.85-1.25 1.76 1.56 3.2-1.36 1.28 1.37 4.98-.58 1.86.78 1.76-2.24 1.66 1.75 2.63-2.62s1.27 1.07 1.57 1.85c0 0 2.14-1.07 2.63-1.85 0 0 2.05-.78 2.34.48 0 0 1.28-.97 1.2-2.05-.1-1.06 1.45-.28 1.94 1.1 0 0 .58-2.16 2.15-2.36 0 0 1.06 1.27.77 3.62 0 0 2.34-1.85 3.42-2.05 0 0 .47 2.64-.3 5 0 0 2.44-4 2.92-2.65.2.78.8 3.42.2 5.28l2.15-1.37.78 2.64 2.34-.5m-109.75 7.96s1.76-2.93 2.83-3.7c0 0 2.35 1.85 3.13 4.2 0 0 .3-1.57 1.08-2.94 0 0 2.93 1.37 3.42 3.23 0 0 1.08-1.86 1.86-2.35.78-.6 1.56 2.05 1.56 3.62 0 0 1.86-1.96 2.93-2.06 0 0 2.05.98 2.64 4.4 0 0 1.94-1.85 2.63-1.56 0 0 2.34 1.56 1.75 3.7-.3 1.18 2.35-1.36 5.57-2.14l2.83 2.15s2.64-3.5 3.42-4.68c0 0 2.15.78 2.15 2.05 0 0 .98-3.7 1.76-4.1.8-.5 1.86 1.17 1.86 2.25 0 0 .3-2.84 1.86-3.42 0 0 1.56 1.07 1.56 2.15 0 0 1.66-3.23 2.93-4"/><g fill="#fff"><path d="M319.46 361.9c21.98.2 34.97-7.82 42.1-12.6 16.7-11.23 20.22-11.62 22.95-11.43 3.14.3 7.72 1.37 7.92 4.1.3 4.2-6.54 6.06-10.45 6.06-4 0-14.46-2.64-14.46-2.64l-2.72 1.85c1.86.88 23.25 8 27.35 1.27 4.2-6.84 8.4-17.88 8.4-17.88s-4.7-8.4-15.14-8.4c-10.56 0-20.82 6.65-27.65 11.62-6.84 5-15.43 11.82-38.3 11.82-22.84 0-31.54-6.83-38.37-11.82-6.84-4.98-17.1-11.62-27.54-11.62-10.55 0-15.24 8.4-15.24 8.4s4.2 11.04 8.4 17.88c4.1 6.74 25.5-.4 27.34-1.27l-2.63-1.86s-10.54 2.63-14.45 2.63c-4 0-10.84-1.85-10.55-6.05.2-2.74 4.8-3.82 7.92-4.1 2.73-.2 6.25.2 22.95 11.42 7.13 4.78 20.12 12.5 42.2 12.6M284.1 336s0-1.85-.3-4.58c-.38-3.52-2.43-4.4-4.1-3.9-1.06.38-3.2 3.02-3.2 3.02v.1a31.07 31.07 0 0 0-3.04-1.86c.78-.88 5.27-3.6 6.35-3.6 1 0 14.46 5.46 18.76 9.17 1.07.98 1.86 7.03 1.27 8.98-7.23-1.85-11.92-4.6-15.73-7.22v-.1m-6.45 13.7s-2.93 2.92-3.02 8.3c-.1 6.34 4.5 6.64 7.52 6.54 3.6-.1 6.54-2.15 6.44-8.9 0 0-5.97-2.53-10.95-5.95m77.07-13.7s.1-1.85.4-4.58c.38-3.52 2.34-4.4 4-3.9 1.07.38 3.22 3.02 3.22 3.02v.1c.98-.7 1.95-1.27 3.03-1.86-.78-.88-5.28-3.6-6.25-3.6-1.08 0-14.55 5.46-18.85 9.17-.98.98-1.76 7.03-1.27 8.98 7.32-1.85 11.9-4.6 15.72-7.22v-.1m6.44 13.7s2.93 2.92 3.03 8.3c.2 6.34-4.5 6.64-7.53 6.54-3.6-.1-6.44-2.15-6.44-8.9 0 0 5.95-2.53 10.94-5.95"/></g><path fill="#69f" d="M271.3 345.4s-10.44 2.63-14.35 2.63c-4 0-10.84-1.86-10.55-6.06.2-2.74 4.8-3.8 7.9-4.1 2.36-.2 5.4.1 17 7.52m96.22 0s10.45 2.63 14.46 2.63c3.9 0 10.74-1.86 10.45-6.06-.2-2.74-4.8-3.8-7.9-4.1-2.36-.2-5.4.1-17 7.52m-83.42-9.3c-1.07-.78-2.14-1.56-3.12-2.34-1.47-1.07-2.93-2.05-4.5-3.12 0 0 2.15-2.74 3.23-3.03 1.67-.58 3.72.3 4.1 3.8.3 2.75.3 4.7.3 4.7m-7.13 27.56c1.86 1.07 3.9.98 5.18.88 3.62-.1 6.54-2.15 6.45-8.9 0 0 4.5 2.26 11.8 4 0 0 1.2 1.48 1.38 4.4.3 2.45-1.37 5.1-3.32 4.9 0 0-10.25-1.86-16.5-2.94-3.62-.68-4.98-2.34-4.98-2.34m77.74-27.55c1.08-.78 2.15-1.56 3.22-2.34 1.37-1.07 2.84-2.05 4.4-3.12 0 0-2.15-2.74-3.22-3.03-1.66-.58-3.62.3-4 3.82-.3 2.73-.4 4.7-.4 4.7m7.13 27.54c-1.86 1.07-3.9.98-5.18.88-3.6-.1-6.45-2.15-6.45-8.9 0 0-4.5 2.26-11.72 4 0 0-1.27 1.48-1.46 4.4-.2 2.45 1.46 5.1 3.32 4.9 0 0 10.35-1.86 16.5-2.94 3.62-.68 4.98-2.34 4.98-2.34"/><g fill="none" stroke="#000" stroke-width=".684"><path d="M319.46 361.9c21.98.2 34.97-7.82 42.1-12.6 16.7-11.23 20.22-11.62 22.95-11.43 3.14.3 7.73 1.37 7.92 4.1.3 4.2-6.54 6.06-10.45 6.06-4 0-14.46-2.64-14.46-2.64l-2.72 1.85c1.86.88 23.24 8 27.35 1.27 4.2-6.84 8.4-17.88 8.4-17.88s-4.7-8.4-15.15-8.4c-10.54 0-20.8 6.64-27.64 11.63-6.83 4.98-15.42 11.82-38.28 11.82s-31.55-6.85-38.38-11.83c-6.84-4.98-17.1-11.63-27.55-11.63-10.54 0-15.23 8.4-15.23 8.4s4.2 11.04 8.4 17.88c4.1 6.74 25.5-.4 27.35-1.27l-2.64-1.86s-10.54 2.63-14.44 2.63c-4 0-10.85-1.85-10.55-6.06.2-2.73 4.8-3.8 7.92-4.1 2.73-.2 6.25.2 22.95 11.43 7.13 4.8 20.12 12.5 42.2 12.6zM271.3 345.4s-10.44 2.63-14.35 2.63c-4 0-10.84-1.86-10.55-6.06.2-2.74 4.8-3.8 7.92-4.1 2.34-.2 5.37.1 17 7.52zm96.2 0s10.46 2.63 14.47 2.63c3.9 0 10.74-1.86 10.45-6.06-.2-2.74-4.8-3.8-7.9-4.1-2.36-.2-5.4.1-17 7.52zm-83.4-9.3c-1.07-.78-2.14-1.56-3.12-2.34-1.46-1.07-2.93-2.05-4.5-3.12 0 0 2.15-2.74 3.23-3.03 1.67-.58 3.72.3 4.1 3.82.3 2.73.3 4.7.3 4.7zM284.1 336s0-1.85-.3-4.58c-.38-3.52-2.43-4.4-4.1-3.9-1.07.38-3.2 3.02-3.2 3.02v.1a31.88 31.88 0 0 0-3.04-1.86c.78-.88 5.27-3.6 6.35-3.6 1 0 14.46 5.46 18.76 9.17 1.07.98 1.85 7.03 1.27 9-7.23-1.87-11.92-4.6-15.73-7.24m-6.45 13.6s-2.93 2.92-3.02 8.3c-.1 6.34 4.5 6.63 7.52 6.54 3.6-.1 6.54-2.15 6.45-8.9 0 0-5.96-2.54-10.94-5.96zM280.1 351.15s-2.34 2.44-2.73 6.45c-.2 3.12 1.85 4.88 4.5 4.68 3.7-.2 5.17-5.27 3.4-8.1l-5.17-3.03"/><path d="M276.97 363.66c1.86 1.07 3.9.97 5.18.88 3.6-.1 6.54-2.15 6.45-8.9 0 0 4.5 2.25 11.8 4 0 0 1.2 1.48 1.38 4.4.3 2.45-1.37 5.1-3.32 4.9 0 0-10.25-1.86-16.5-2.94-3.62-.68-5-2.34-5-2.34zm77.75-27.55c1.08-.78 2.15-1.56 3.23-2.34 1.36-1.07 2.83-2.05 4.4-3.12 0 0-2.16-2.74-3.23-3.03-1.66-.58-3.62.3-4 3.82-.3 2.73-.4 4.7-.4 4.7zM354.72 336s.1-1.85.4-4.58c.38-3.52 2.34-4.4 4-3.9 1.07.38 3.22 3.02 3.22 3.02v.1a31.88 31.88 0 0 1 3.03-1.86c-.78-.88-5.28-3.6-6.25-3.6-1.08 0-14.55 5.46-18.85 9.17-.98.98-1.76 7.03-1.27 9 7.32-1.87 11.9-4.6 15.72-7.24m6.44 13.6s2.93 2.92 3.03 8.3c.2 6.34-4.5 6.63-7.53 6.54-3.6-.1-6.44-2.15-6.44-8.9 0 0 5.95-2.54 10.94-5.96zM358.73 351.15s2.34 2.44 2.73 6.45c.3 3.12-1.86 4.88-4.5 4.68-3.7-.2-5.07-5.27-3.4-8.1l5.17-3.03"/><path d="M361.85 363.66c-1.86 1.07-3.9.97-5.18.88-3.6-.1-6.45-2.15-6.45-8.9 0 0-4.5 2.25-11.72 4 0 0-1.27 1.48-1.46 4.4-.2 2.45 1.46 5.1 3.32 4.9 0 0 10.35-1.86 16.5-2.94 3.62-.68 5-2.34 5-2.34z"/></g><path fill="none" stroke="#fff" stroke-width=".684" d="M299.64 361.4s3.22 2.36-.7 5.3m-8.97-6.85l9.86 4.3m-8.2-2.06l7.22 3.12m-4.68-4.98l5.47 2.45m39.65-1.3s-3.34 2.36.57 5.3m9-6.85l-9.88 4.3m8.3-2.06l-7.23 3.12m4.6-4.98l-5.38 2.45"/><path stroke="#000" stroke-width=".672" d="M261.02 331.36c.14.23.23.47.27.7a2.5 2.5 0 0 1-.04.84 2.35 2.35 0 0 1-1.15 1.64c-.63.38-1.36.48-2.16.32a3.68 3.68 0 0 1-1.1-.38 4.35 4.35 0 0 1-.87-.6c-.1.13-.22.25-.34.38-.15-.03-.3-.06-.47-.1.16-.93.3-1.88.46-2.82l.48.1c.03.35.1.7.16 1 .08.3.2.6.37.88.16.27.36.5.62.68.24.2.54.32.9.38.27.06.52.07.74.03.2-.02.38-.08.53-.2.15-.1.27-.23.37-.4a1.76 1.76 0 0 0 .2-.56 1.7 1.7 0 0 0-.1-.98c-.14-.32-.4-.6-.73-.8a48.25 48.25 0 0 0-.8-.5c-.32-.2-.58-.35-.8-.5-.42-.3-.74-.65-.93-1.04-.2-.4-.25-.85-.15-1.4.05-.3.17-.6.36-.84.18-.25.4-.45.7-.62.25-.16.55-.26.88-.32a2.9 2.9 0 0 1 1 .02c.4.07.73.2 1 .37.28.17.54.35.76.56.1-.12.2-.24.32-.36l.47.1-.5 2.73-.46-.1a11.22 11.22 0 0 0-.12-.94 3.56 3.56 0 0 0-.28-.86c-.12-.26-.3-.48-.5-.66-.22-.17-.5-.3-.87-.36a1.38 1.38 0 0 0-1.02.18c-.3.2-.5.45-.56.8-.07.34-.04.65.08.92s.33.5.63.72c.27.2.53.36.8.5.24.16.5.32.73.48.2.14.42.3.6.47.2.18.36.36.5.56m11.97 1.68c-.1-.05-.26-.1-.47-.17a1.4 1.4 0 0 0-.55-.1c-.16.03-.34.15-.52.37a5.67 5.67 0 0 0-.57.87c-.6 1.08-1.18 2.14-1.77 3.2-.22.4-.5.7-.84.92-.35.2-.7.33-1.1.37-.38.03-.74 0-1.1-.1a4.16 4.16 0 0 1-.94-.36c-.44-.24-.8-.52-1.1-.83-.28-.3-.5-.62-.62-.94a2.23 2.23 0 0 1-.15-.97 2.08 2.08 0 0 1 .25-.9l2.4-4.34a.9.9 0 0 0 .1-.34c0-.1-.04-.22-.12-.36a1.5 1.5 0 0 0-.27-.3c-.13-.1-.22-.18-.3-.24.06-.12.12-.24.2-.37 1.03.58 2.06 1.14 3.1 1.7l-.2.38c-.1-.05-.24-.1-.4-.16a1.93 1.93 0 0 0-.38-.1c-.14-.02-.26 0-.35.08a.88.88 0 0 0-.23.28c-.75 1.35-1.5 2.7-2.24 4.05a3.3 3.3 0 0 0-.27.66 1.8 1.8 0 0 0-.1.74c.04.27.14.52.3.77.18.25.47.5.88.7.38.22.74.34 1.06.37.33.02.62-.02.88-.14.24-.1.46-.24.62-.4.17-.18.32-.37.43-.58l1.66-3c.2-.4.36-.72.44-1 .08-.27.08-.47 0-.6-.06-.16-.2-.32-.37-.48a3.57 3.57 0 0 0-.44-.36l.2-.36 3.04 1.68a19.2 19.2 0 0 1-.2.36m4.3 7.46c.14.27.2.56.22.87 0 .32-.08.64-.28.97a1.93 1.93 0 0 1-.73.75 2.17 2.17 0 0 1-.92.27c-.33.03-.65 0-1-.1a4.03 4.03 0 0 1-.97-.4l-3.48-2 .2-.36c.1.05.23.1.4.17.18.07.3.1.4.12a.54.54 0 0 0 .33-.07.7.7 0 0 0 .24-.27c1-1.74 2-3.48 3-5.22a.94.94 0 0 0 .12-.34.56.56 0 0 0-.12-.35 1.68 1.68 0 0 0-.28-.32c-.1-.1-.2-.18-.3-.24.08-.13.15-.25.22-.37 1.13.65 2.26 1.3 3.4 1.96.26.14.5.3.7.5.22.2.4.4.54.66a1.6 1.6 0 0 1 0 1.64 1.8 1.8 0 0 1-.54.6c-.2.15-.44.24-.7.3a2.48 2.48 0 0 1-.74.02 3.33 3.33 0 0 1-.8-.17c0 .02 0 .03-.02.05a5 5 0 0 1 .62.56c.22.24.4.48.5.74zm-.62-1.82c.22-.07.4-.18.55-.32a2.74 2.74 0 0 0 .43-.58c.23-.4.3-.77.2-1.13-.08-.36-.37-.67-.84-.95-.1-.06-.25-.14-.42-.23-.18-.1-.32-.17-.43-.23-.54.94-1.07 1.87-1.6 2.8l.65.37c.28.18.54.28.8.33.23.04.46.03.66-.05zm-.6 2.74c.24-.43.3-.86.16-1.3-.13-.46-.47-.83-1.02-1.15a28.92 28.92 0 0 0-.56-.32l-.34-.18-1.48 2.56a.62.62 0 0 0-.02.64c.12.2.33.4.65.58.5.3 1 .38 1.44.24.45-.15.84-.5 1.17-1.08zm18.9 4.3a3.46 3.46 0 0 0-.48-.1 1.43 1.43 0 0 0-.56-.04c-.16.03-.32.17-.48.4a5.88 5.88 0 0 0-.48.93l-1.43 3.36c-.2.43-.43.76-.75 1a2.57 2.57 0 0 1-1.04.47 3.22 3.22 0 0 1-1.1.03 4.3 4.3 0 0 1-2.15-1c-.3-.27-.55-.56-.7-.88a2.23 2.23 0 0 1-.26-.95 2.1 2.1 0 0 1 .17-.9l1.96-4.56a.9.9 0 0 0 .08-.35.7.7 0 0 0-.16-.34 1.6 1.6 0 0 0-.3-.28c-.13-.08-.23-.16-.33-.2.06-.13.1-.26.17-.38l3.25 1.4c-.06.12-.1.25-.17.37a3.45 3.45 0 0 0-.4-.12 2.3 2.3 0 0 0-.38-.07c-.15 0-.26.03-.34.12a.94.94 0 0 0-.2.3c-.62 1.42-1.23 2.84-1.83 4.26-.1.2-.16.43-.2.67-.06.25-.06.5 0 .76.04.27.17.5.37.74.2.23.5.44.93.62.4.17.77.26 1.1.25.32 0 .6-.07.85-.2.23-.14.43-.3.58-.5a2.54 2.54 0 0 0 .37-.6l1.36-3.15c.18-.4.3-.75.34-1.03.05-.28.04-.47-.04-.6-.1-.16-.23-.3-.43-.44a3.72 3.72 0 0 0-.48-.3l.16-.4c1.06.46 2.13.92 3.2 1.37-.07.13-.12.26-.18.38m9.2 10.8l-3.6-1.05.1-.4c.14.03.3.07.52.1.2.04.36.05.45.03a.8.8 0 0 0 .33-.16.7.7 0 0 0 .18-.33l1.7-5.85a1.38 1.38 0 0 0-.1-.02c-1.57 2.03-3.18 4.03-4.76 6.06-.1-.04-.2-.07-.28-.1-.2-2.58-.44-5.17-.63-7.76a.7.7 0 0 0-.1-.02c-.45 1.6-.9 3.2-1.37 4.8-.14.47-.2.82-.22 1.1 0 .25.04.45.13.6.06.1.2.22.46.37a3.2 3.2 0 0 0 .47.25l-.12.4c-1.1-.3-2.2-.63-3.3-.95l.13-.4c.17.03.37.06.57.07.2.02.36 0 .5-.06.15-.06.3-.2.4-.4.12-.2.25-.56.4-1.07l1.2-4.13a1.73 1.73 0 0 0 .07-.6.95.95 0 0 0-.14-.45 1.23 1.23 0 0 0-.37-.35 2.04 2.04 0 0 0-.48-.23l.12-.4 2.78.8c.18 2.24.4 4.48.6 6.73 1.13-1.5 2.3-2.98 3.45-4.48.13-.17.25-.34.36-.54a2.83 2.83 0 0 0 .2-.38c.88.26 1.77.5 2.66.77l-.13.4a3.86 3.86 0 0 0-.42-.06 2.4 2.4 0 0 0-.4-.02.44.44 0 0 0-.32.16.94.94 0 0 0-.17.32c-.56 1.94-1.12 3.87-1.68 5.8a.8.8 0 0 0-.03.36c.02.1.1.2.2.32.06.06.17.13.34.2.15.1.3.15.4.2l-.13.4m8.73-2.66c.22.2.4.43.53.72.12.28.17.62.12 1-.05.38-.18.7-.38.97s-.46.47-.76.62c-.28.15-.6.24-.93.3-.35.04-.7.05-1.06 0-1.32-.16-2.65-.33-3.98-.5l.05-.42c.1 0 .23 0 .42 0a1.73 1.73 0 0 0 .4-.04.52.52 0 0 0 .3-.2.72.72 0 0 0 .1-.33c.26-1.98.5-3.97.76-5.96a.97.97 0 0 0-.02-.36.57.57 0 0 0-.24-.3 1.66 1.66 0 0 0-.38-.17c-.15-.04-.26-.08-.36-.1 0-.13.03-.27.05-.4 1.3.15 2.6.32 3.9.48.3.04.58.1.86.2.26.1.5.22.74.4.2.17.4.38.5.64.12.25.16.54.12.88-.04.3-.12.54-.26.76a1.74 1.74 0 0 1-.52.53 2.64 2.64 0 0 1-.67.3 3.4 3.4 0 0 1-.8.16v.06c.23.06.5.15.78.27.28.12.54.28.75.48zm-1.28-1.44c.17-.15.3-.32.38-.5.07-.2.13-.43.17-.7.06-.47-.03-.84-.25-1.14-.22-.3-.6-.47-1.15-.54a27.26 27.26 0 0 0-.96-.1c-.12 1.07-.25 2.14-.4 3.2.26.03.5.07.76.1.32.04.6.03.85-.02a1.28 1.28 0 0 0 .62-.3zm.5 2.76c.05-.5-.07-.9-.36-1.28-.3-.36-.75-.57-1.38-.65-.25-.03-.46-.06-.64-.07-.17-.02-.3-.03-.4-.04l-.36 2.93a.63.63 0 0 0 .23.6c.2.14.47.24.83.28.6.08 1.06-.03 1.42-.34.35-.3.58-.78.66-1.44zm11.42 2.64h-2.3c-.5-.8-.95-1.46-1.35-2.03-.42-.57-.87-1.14-1.35-1.76h-.87v2.66c0 .14.03.26.07.36.04.1.14.2.28.24.07.03.2.05.37.08.2.02.34.04.46.04v.42h-3.6v-.42c.1 0 .24-.02.43-.04.17-.02.3-.05.37-.08a.5.5 0 0 0 .26-.22.74.74 0 0 0 .08-.38v-6.06c0-.13 0-.26-.05-.37-.04-.1-.14-.18-.28-.24a2.23 2.23 0 0 0-.4-.1c-.15-.02-.3-.05-.4-.05v-.42h3.92c.35 0 .7.03 1 .1a2.8 2.8 0 0 1 .86.36c.24.16.45.36.6.6.14.27.2.57.2.93 0 .33-.04.6-.14.86s-.25.47-.44.66a2.53 2.53 0 0 1-.65.43 5.27 5.27 0 0 1-.83.3c.42.56.77 1.02 1.05 1.4.27.37.62.82 1.02 1.36a2.53 2.53 0 0 0 .9.8c.1.05.23.1.4.1.14.04.27.06.37.06 0 .14 0 .28 0 .42zm-3.15-6.25c0-.5-.16-.9-.45-1.22-.3-.3-.7-.44-1.25-.44h-1.02v3.6h.8c.54 0 1-.17 1.36-.53.36-.34.55-.8.55-1.4zm12.93 5.62l-3.53.26c0-.14-.02-.28-.03-.42.3-.04.57-.1.77-.17.2-.1.3-.17.3-.25 0-.04-.03-.08-.03-.13a.46.46 0 0 0-.04-.14c-.28-.6-.57-1.2-.85-1.82l-2.96.23a9.56 9.56 0 0 0-.2.73c-.07.2-.12.4-.16.58a3.4 3.4 0 0 0-.08.43c0 .1 0 .2 0 .26 0 .15.14.25.4.33.25.07.54.1.86.1l.03.4-3.2.25c0-.14-.02-.28-.03-.42a1.95 1.95 0 0 0 .38-.1c.15-.05.27-.1.37-.18.15-.12.26-.24.34-.37.1-.1.16-.27.22-.48.34-1.08.74-2.3 1.14-3.64.4-1.35.8-2.55 1.1-3.6l.5-.03c1.1 2.34 2.25 4.65 3.36 7 .07.14.15.25.23.34a1.17 1.17 0 0 0 .72.35c.15.03.27.04.37.04 0 .14.02.28.03.42zm-3.67-3.16c-.5-1.05-1.03-2.1-1.53-3.14-.33 1.1-.7 2.22-1.02 3.33.86-.07 1.7-.13 2.56-.2zm15.7-6.62a27.85 27.85 0 0 0-.4.12c-.18-.28-.44-.55-.78-.83-.35-.27-.65-.4-.9-.36-.12.02-.26.04-.43.08-.16.04-.35.08-.56.14-.47.1-.93.24-1.4.36l.9 3.25.93-.25c.3-.07.5-.16.65-.27.13-.1.25-.22.33-.37.06-.1.1-.25.1-.45.03-.2.02-.4 0-.6l.42-.1c.3 1.05.58 2.1.86 3.17-.14.04-.28.08-.43.12a2.87 2.87 0 0 0-.27-.54c-.13-.2-.25-.33-.35-.4a.87.87 0 0 0-.5-.18 2.3 2.3 0 0 0-.67.1l-.94.26c.26.93.5 1.85.76 2.78.03.13.1.24.17.32a.55.55 0 0 0 .33.17c.06 0 .2 0 .4 0 .2-.02.35-.05.45-.07.04.13.08.27.1.4-1.17.32-2.36.65-3.54.97-.05-.14-.08-.27-.12-.4a9.53 9.53 0 0 0 .45-.17c.2-.08.3-.13.36-.17.1-.07.16-.17.18-.28a.8.8 0 0 0 0-.37l-1.6-5.84a1.1 1.1 0 0 0-.15-.3c-.07-.1-.18-.14-.33-.17a2.43 2.43 0 0 0-.45-.02 2.36 2.36 0 0 0-.44.06l-.1-.4 6.42-1.75c.2.7.37 1.37.55 2.04m9.47-.72c.3.78.6 1.55.92 2.33l-5.98 2.88-.18-.38c.08-.04.2-.12.36-.2a1.45 1.45 0 0 0 .3-.25.5.5 0 0 0 .15-.32.78.78 0 0 0-.1-.37l-2.6-5.4a.94.94 0 0 0-.2-.28.5.5 0 0 0-.37-.1c-.1 0-.24 0-.4.03a1.93 1.93 0 0 0-.4.1l-.2-.37 3.23-1.56.2.38a2.8 2.8 0 0 0-.38.24 2.2 2.2 0 0 0-.3.26.4.4 0 0 0-.15.34.8.8 0 0 0 .1.36l2.44 5.07c.1.23.2.4.3.52.1.12.2.2.3.22.12.03.26 0 .44-.06s.4-.16.7-.3c.14-.06.27-.14.42-.2.14-.08.27-.17.4-.25.1-.07.2-.16.3-.25a.6.6 0 0 0 .16-.25c.06-.24.12-.56.16-1 .03-.42.04-.75 0-1 .14-.05.27-.1.4-.18m4.47-8.3a4.18 4.18 0 0 1 1.48.75c.46.38.86.84 1.2 1.4a4.94 4.94 0 0 1 .64 1.73 4.14 4.14 0 0 1-.07 1.65 3.9 3.9 0 0 1-.67 1.4c-.3.44-.7.8-1.2 1.08-.5.3-1.02.5-1.57.55-.54.06-1.06.02-1.56-.14a4.05 4.05 0 0 1-1.44-.76 5.03 5.03 0 0 1-1.16-1.35 4.97 4.97 0 0 1-.65-1.74 4.35 4.35 0 0 1 .05-1.66c.13-.52.37-1 .68-1.42.32-.43.72-.78 1.2-1.06a4 4 0 0 1 1.52-.54 3.85 3.85 0 0 1 1.56.1zm2.26 5.57a3.93 3.93 0 0 0-.2-1.3c-.14-.45-.35-.9-.63-1.4a7.2 7.2 0 0 0-.95-1.27 3.95 3.95 0 0 0-1.06-.8 2.4 2.4 0 0 0-1.1-.25c-.4 0-.77.12-1.14.34-.4.24-.7.54-.88.9a2.57 2.57 0 0 0-.26 1.16c0 .4.08.82.23 1.27.16.46.36.9.62 1.34.28.48.6.9.9 1.24.32.34.68.6 1.04.8a2.4 2.4 0 0 0 1.12.28c.38 0 .77-.1 1.16-.34.37-.22.65-.5.84-.85.2-.34.3-.72.3-1.14zm10.54-5.72c-.62.44-1.25.88-1.87 1.32-.86-.36-1.63-.63-2.3-.87-.66-.23-1.36-.44-2.1-.66l-.7.5 1.53 2.17c.08.1.17.2.26.25.1.05.22.06.37.03a1.8 1.8 0 0 0 .34-.16c.17-.08.3-.16.4-.23l.24.34c-.98.7-1.95 1.4-2.93 2.08l-.24-.34c.08-.06.2-.15.33-.28.13-.12.22-.2.26-.28a.5.5 0 0 0 .07-.33.74.74 0 0 0-.15-.35c-1.17-1.65-2.34-3.3-3.5-4.95a1.05 1.05 0 0 0-.27-.26c-.1-.07-.2-.08-.36-.04a3.07 3.07 0 0 0-.75.34l-.25-.35 3.2-2.26a4.56 4.56 0 0 1 .9-.5 2.72 2.72 0 0 1 .9-.2c.3-.02.56.03.83.15.27.13.5.34.7.63.2.27.33.53.38.8.08.25.08.5.03.77a2.52 2.52 0 0 1-.28.73 4.86 4.86 0 0 1-.5.74c.67.2 1.22.37 1.66.52.45.14 1 .3 1.63.5a2.5 2.5 0 0 0 1.2.15c.1-.02.24-.07.38-.13a2.65 2.65 0 0 0 .36-.2c.08.13.16.24.24.36zm-6.18-3.28c-.3-.4-.65-.65-1.06-.73-.4-.07-.84.05-1.28.36-.28.2-.55.4-.83.6l2.08 2.92c.2-.15.43-.3.64-.45.45-.32.73-.73.82-1.22.08-.5-.03-1-.38-1.48zm13.18-2c.23.8.46 1.58.7 2.37-2.2.82-4.4 1.63-6.6 2.45-.06-.13-.1-.26-.16-.4.1-.04.26-.1.43-.2.18-.1.3-.17.34-.22a.6.6 0 0 0 .18-.3.74.74 0 0 0-.05-.37c-.7-1.88-1.4-3.77-2.1-5.65a.97.97 0 0 0-.18-.3c-.08-.08-.2-.12-.34-.13-.1-.02-.26 0-.44.02a2.18 2.18 0 0 0-.44.08c-.05-.13-.1-.26-.15-.4l6.17-2.28.7 1.9c-.14.05-.28.1-.42.16-.18-.26-.45-.5-.8-.72-.4-.22-.68-.3-.92-.25a4.27 4.27 0 0 0-.42.12c-.17.06-.35.12-.56.2l-1.25.46c.38 1.04.77 2.1 1.15 3.12.3-.1.6-.22.9-.33.3-.1.5-.2.6-.32a.88.88 0 0 0 .26-.4c.04-.13.06-.3.05-.5 0-.2-.03-.38-.07-.55.14-.05.28-.1.42-.15l1.14 3.08c-.14.05-.28.1-.42.16a3.17 3.17 0 0 0-.33-.53c-.14-.16-.26-.28-.37-.34a.87.87 0 0 0-.5-.13c-.16 0-.36.06-.6.15l-.9.33c.3.8.57 1.6.87 2.37.1.24.17.4.26.54a.54.54 0 0 0 .3.25c.13.04.28.03.45 0 .18-.06.43-.14.73-.25.14-.05.3-.1.5-.18a3.88 3.88 0 0 0 .92-.46c.14-.1.23-.2.26-.28.1-.24.2-.58.24-1 .06-.44.1-.75.07-.93.13-.05.26-.1.4-.15m7.1-5.82c.42.34.78.75 1.06 1.27.27.52.46 1.1.55 1.75a4.86 4.86 0 0 1-.08 1.84 4.14 4.14 0 0 1-.7 1.5c-.3.42-.7.76-1.17 1.03-.46.27-.96.44-1.5.5-.6.1-1.16.06-1.68-.1s-1-.4-1.4-.74a4.1 4.1 0 0 1-1.02-1.26 4.87 4.87 0 0 1-.54-1.7 4.94 4.94 0 0 1 .1-1.85c.13-.56.38-1.05.7-1.5a3.98 3.98 0 0 1 2.7-1.55 4.06 4.06 0 0 1 1.6.1c.52.15 1 .38 1.4.7zm-.1 6c.17-.38.28-.8.32-1.26.04-.46.02-.97-.05-1.52a6.98 6.98 0 0 0-.37-1.55 3.88 3.88 0 0 0-.66-1.15 2.42 2.42 0 0 0-.92-.67 2.25 2.25 0 0 0-1.17-.13c-.47.06-.86.2-1.17.48-.3.26-.54.58-.7.97-.14.37-.25.8-.27 1.26-.03.5-.02.98.05 1.5.07.54.2 1.05.35 1.5.16.42.38.8.65 1.13.25.32.56.54.9.7.36.14.76.2 1.2.13a2.3 2.3 0 0 0 1.12-.44 2.38 2.38 0 0 0 .72-.93z"/><path fill="none" stroke="#000" stroke-width=".977" d="M366.05 205.1v53.05c0 10.55-1.46 52.56-46.6 68.87-45.2-16.3-46.67-58.3-46.67-68.87V205.1h93.27"/></svg>