<svg xmlns="http://www.w3.org/2000/svg" width="640" height="480"><path fill="#fff" d="M150.22 0h339.82v480.26H150.22z"/><path fill="#bf0a30" d="M-19.68 0h169.9v480.26h-169.9zm509.72 0h169.9v480.26h-169.9zm-289 232.07l-13.2 4.5 61.4 53.9c4.64 13.84-1.6 17.93-5.6 25.2l66.66-8.47-1.74 67.08 13.8-.4-3-66.52 66.72 7.9c-4.13-8.7-7.8-13.34-4-27.3l61.37-51.04-10.74-3.88c-8.77-6.78 3.8-32.63 5.7-48.95 0 0-35.82 12.3-38.17 5.87l-9.13-17.53-32.6 35.8c-3.55.86-5.07-.56-5.9-3.57l15.06-74.82-23.85 13.4c-1.98.87-3.98.13-5.3-2.2l-22.93-46.02-23.65 47.8c-1.78 1.7-3.56 1.9-5.04.74l-22.7-12.73 13.62 74.23c-1.08 2.95-3.68 3.78-6.73 2.18l-31.16-35.4c-4.07 6.54-6.83 17.2-12.22 19.6-5.38 2.23-23.43-4.53-35.52-7.17 4.13 14.9 17.05 39.68 8.87 47.8z"/></svg>