<svg xmlns="http://www.w3.org/2000/svg" width="640" height="480" xmlns:xlink="http://www.w3.org/1999/xlink"><defs><path id="a" d="M0-360l69.42 215.84 212.04-80.3L156-35.6 350.96 80.1 125.1 99.77l31.1 224.6L0 160l-156.2 164.35 31.1-224.6-225.87-19.64L-156-35.6l-125.46-188.86 212.04 80.3z"/><path id="b" d="M0-210L54.86-75.5l144.86 10.6L88.77 28.85l34.67 141.05L0 93.32l-123.44 76.56 34.67-141.06-110.95-93.73 144.86-10.6z"/></defs><path fill="#008000" d="M0 0h640v480H0z"/><circle cx="320" cy="240" r="66.667" fill="#ffe000"/><circle cx="340.787" cy="240" r="54.857" fill="#008000"/><circle cx="109.841" cy="173.333" r="69.841" fill="#ffe000"/><path fill="#802000" stroke="#7b3100" stroke-width="1.481" d="M105.02 226h17.44s.8-1.6-.17-2.4c-.98-.8-4.73-.98-3.7-3.8 2.07-5.82 2.36-4.03 3.67-17.83 1.3-13.8 1.94-35.46 1.94-35.46h-2.52s.5 6.74-.96 15.5c-1.46 8.78-1.9 9.55-3.5 16.3-1.6 6.72-1.83 7.3-3.28 11.22-1.46 3.93-1.6 4.12-3.88 7.75-2.28 3.64-1.45 2.28-2.7 4.46-.64 1.1-1.42.8-1.84 1.6-.42.8-.5 2.66-.5 2.66z"/><path fill="#008000" d="M118.33 122.45c.14 2.7-.13 6.3-1.25 9.2-1.14 3.27-2.38 6.5-2.31 9.87-1.8.62-3.68-3.9-5.42-1.25 1.3 3.7 4.33 6.6 6.4 9.92.35 1.02 3.33 3.7 1.6 4.33-4.35-1.5-5.4-7-8.1-10.35-3.13-5.63-8.98-9.62-15.5-9.9-2.44.07-10.4-.6-8.32 3.6 3.05 2.06 6.8 3.4 9.8 5.74 2.25.2 6.32 3.95 6.08 5.37-3.93-1.6-5.78-3.53-10.03-5.2-5.75-2.23-13.72-.9-16.9 4.82-.6 1.5-1.47 5.82.4 6.24 2.18-3.4 5.3-7.22 9.93-6.2 3.63.3-4.06 6.77-1.12 5.47.94-.42 3.1-1.83 4.58-1.98 1.5-.14 2.33.97 3.46 1.13 2.27.3 2.9 1.26 2.68 1.8-.25.66-.97.1-3.27.84-1.15.36-1.75 1.37-3.1 1.84-1.34.46-4.13.5-5.18.08-3.65-1.58-9.64-1.3-10.78 3.27 0 2.02-1.8-.2-2.62.66-.62 2.2-.78 4.45-4.04 4.25-1.97 2.1-4 4.23-6.5 5.7 1.47 3.4 7.3-3.4 7.03-.53-2.55 3.48 1.32 4.22 3 1.54 2.87-3.02 6.42-6.7 10.7-3.65 2.02 1.9 3.2-1 4.68-.86.94 2.37 2.1.1 3.16-.56 1.72-.22 1.24 2.15 3.28.7 4.1-2.7 9.1-.44 13.1-3.07 4.24-1.93.6 1.56-.58 2.92-1.86 3.6-.25 8.36-4.3 10.6-1.62 4.32 1.93 10-1.7 13.2-.5 2 4.66 1.76 6.12 2.58 2.54.1-.1-5.82 2.4-6.62 3.4 2.1 3.24-3.75 2.54-5.55.33-4.1.56-8.57 2.6-12.28 2.16-4.55 4.17 1.85 1.74 3.65-1.37 4.18-3.38 9.42-.25 13.3.92.2 1.66 2.4 2.82 3.07 1.17.68 2.77-.17 3.06-2.16 1.5-6 .74-12.43 2.88-18.26 1.5-1.8 3.6-.3 4.53 1.37 3 3.47 5.1 7.82 8.73 10.7 3.3 1.54 6.23 3.88 7.75 7.28-.02 2.63 7.46 3.03 5.23.1-2.14-2.83-.73-5.67 1.45-7.56 1.16.3.82-1.8-.1-.97-1.46-.35-1.55-3.02.48-1.75 3.42 1.1-.27-2.47-1.5-2.58-2.9-1.8-6.2-3.86-7.63-6.97 3.76.04 7.66 2.07 11.5.8 3.1-1.57 6.22.14 7.3 2.86 2.37-.37 1.36-2.76 0-3.56 1.74-.72 2.94-2.2.83-3.52-1.12-1.46 1.5-3.94-1.72-3.84.12-2.45-.85-4.7-3.52-5.54-2.68-2.27-10.54 3.34-10.3-1.77-.8-2.78 3.18-.37 4.3-1.76 1.15-2.92-5.5-2.64-3.3-4.9 1.43-.93 8.14-2.25 2.88-3.24-2.63.72-4.88.2-6.95-1.1-1.87 3.14-7.25-1.72-6.3 3.88-.72 2.1-5.53 7.6-6.83 3.4 1.1-3.3 6.8-4.38 5.04-8.82-.26-2.77-2.56.5-3.64.28-.55-1.73 1.65-3.76 3.2-4.17 3.04 2.35 3.13-2.96 6.03-2.53 2.1-.47-.7-1.38-1.28-1.77.58-1.55 3.83-2.35.64-3.7-2.8-2.08-4.9 2.1-7.22 2.3-2.22-2.5 2.03-3.7 3.2-5.04.06-1-2.48-.3-1.7-1.17.65-1.18 5.15-1.27 3.04-3.05-3.17-1.1-7.26-.82-10.3.6-1.92.6-2.5 4.95-4.14 4.77-.78-1.93.25-5.74-2.4-6.3zm15 42.36c2.42-.4.05 3.68-1.1 3.62.1-1.46-3.5-1.32-1.27-2.6a7.28 7.28 0 0 1 2.37-1z"/><g fill="#ffe000" transform="translate(0 80) scale(.064)"><use width="100%" height="100%" x="7560" y="4200" xlink:href="#a"/><use width="100%" height="100%" x="6300" y="2205" xlink:href="#a"/><use width="100%" height="100%" x="7560" y="840" xlink:href="#a"/><use width="100%" height="100%" x="8680" y="1869" xlink:href="#a"/><use width="100%" height="100%" x="8064" y="2730" xlink:href="#b"/></g></svg>