<svg xmlns="http://www.w3.org/2000/svg" width="640" height="480"><path fill="#006" d="M0 0h640v480H0z"/><path fill="#fff" d="M0 0v24.8l319.75 197.12H360v-24.8L40.25 0H0zm360 0v24.8L40.25 221.93H0V197.1L319.75 0H360zM150 0v221.92h60V0h-60zM0 73.97v73.98h360V73.97H0z"/><path fill="#c00" d="M0 88.77v44.38h360V88.77H0zM162 0v221.92h36V0h-36zM0 221.92l120-73.97h26.84l-120 73.97H0zM0 0l120 73.97H93.17L0 16.54V0zm213.17 73.97L333.17 0H360L240 73.97h-26.84zM360 221.92l-120-73.97h26.83L360 205.38v16.54z"/><path fill="#fff" fill-rule="evenodd" d="M471.6 213l5.2-16.67-14-10.65 17.64-.22 5.9-16.44 5.7 16.53 17.65.48-14.14 10.44 5.03 16.75-14.45-10.08m27.05 13.13l10.4-13.93-9.67-14.8 16.7 5.8 10.98-13.5-.07 17.52 16.47 6.47-16.76 5.02-.8 17.5-10.27-14.42m-98.4 14.98l-.7-17.46-16.74-5.2 16.53-6.28.03-17.5 10.9 13.6 16.76-5.64-9.8 14.68 10.35 14.02-16.95-4.5m-39.7 40.86l-7.32-15.82-17.42 1.83 12.83-12.33-6.67-16.12 15.25 8.2 13.3-11.8-3.4 17.4 14.9 8.84-17.35 2.52m-17.47 55.6l-13.3-11.12-14.98 9.22 6.38-16.7-12.85-11.66 17.25.78 7.02-16.44 4.3 17.2 17.18 1.5-14.6 9.84m3.27 60.4l-16.57-4.8-10.1 14.5-.7-17.9-16.37-5.52 16.14-6.24v-17.9L371.8 311l16.37-5.55-9.54 14.92m29.53 50.85l-17.07 2.4-3.48 17.4-7.78-16.07-17.16 1.67 12.27-12.33-7.15-16.4 15.36 8.47 12.74-11.8-2.77 17.56m45.04 37.95l-15.2 8.23 2.67 17.56-12.78-12.36-15.53 7.58 7.3-15.87-12.28-12.86 17.3 2.56 7.95-15.53 3.37 17.44m53.83 8.98l-8.3 15.32 11.7 13.2-17.36-3.26-8.92 14.97-2.43-17.33-17.23-3.96 15.86-7.44-1.72-17.42 12.24 12.74m57.33-13.12l-.5 17.47 16.33 6.37-16.92 5.1-1.24 17.44-9.94-14.32-17.12 4.42 10.8-13.95-9.36-14.72 16.6 5.7m54.4-203.22l11.95 12.6 15.92-7.4-8.26 15.84 11.42 13.1-17.04-2.8-8.86 15.48-2.28-17.57-16.9-3.52 15.63-8.05m34.25 21.1l5.42 16.6 17.5.3-14.16 10.67 4.74 16.82-14.18-10-14.58 10.1 5.4-16.84-13.74-10.58 17.52-.42m19.52 33.2l-2 17.37 15.73 7.77-17.28 3.6L602 344.4l-8.68-15.15-17.43 2.9 11.92-12.95-8.05-15.48 16.05 7.13m2.94 39.8l-7.77 15.6 12.14 12.8-17.47-2.66-8.4 15.26-3.02-17.24-17.35-3.35 15.6-8-2.32-17.35 12.66 12.3m-9.84 39.1l-14.67 9.17 3.75 17.34-13.5-11.53-15.06 8.55 6.33-16.3-13.05-12.06 17.42 1.45 6.98-16 4.44 17.2"/></svg>