<svg xmlns="http://www.w3.org/2000/svg" width="640" height="480"><defs><clipPath id="a"><path fill-opacity=".67" d="M-123.43 0h682.67v512h-682.67z"/></clipPath></defs><g fill-rule="evenodd" clip-path="url(#a)" transform="translate(115.72) scale(.94)"><path fill="#fff" d="M-123.43 233.05H723.1v205.97h-846.53z"/><path fill="#081873" d="M-122.76 0H723.2v256.64h-845.96zm.24 385.87H729.6V512h-852.12z"/><path fill="#de3929" d="M-122.52 302.55h845.95v39.65h-845.95z"/><path fill="#ffce08" d="M130.92 399.17l6.65 20.47h21.52l-17.42 12.65 6.65 20.46-17.4-12.65-17.42 12.66 6.66-20.47-17.4-12.66h21.5M316.92 250.5l6.66 20.47h21.52l-17.4 12.65 6.64 20.47-17.4-12.66-17.42 12.65 6.65-20.48-17.4-12.65h21.5M88.28 335.45l6.65 20.47h21.52l-17.4 12.65 6.64 20.47-17.4-12.65-17.42 12.64 6.65-20.47-17.4-12.65h21.52m235.3-26.46l6.64 20.47h21.52l-17.4 12.65 6.64 20.47-17.4-12.65-17.42 12.65 6.65-20.47-17.4-12.65h21.5m-40.43-161.75l6.65 20.47H298l-17.42 12.65 6.65 20.47-17.4-12.65-17.42 12.65 6.66-20.47-17.4-12.65h21.5m-64.42-45.22l6.65 20.47h21.5l-17.4 12.65 6.65 20.47-17.4-12.65-17.42 12.65 6.65-20.47-17.4-12.65h21.5m-64.43 2.9l6.65 20.46h21.52l-17.4 12.65 6.64 20.48-17.4-12.65-17.42 12.65 6.65-20.47-17.42-12.64H121M86.18 250.5l6.65 20.47h21.53l-17.42 12.65 6.65 20.47-17.42-12.66-17.4 12.65 6.64-20.48-17.4-12.65h21.5M198.75 420.4l6.65 20.48h21.5l-17.4 12.65 6.65 20.47-17.4-12.65L181.32 474l6.65-20.47-17.4-12.65h21.5m82.18-41.7l6.65 20.46h21.53l-17.4 12.65 6.64 20.46-17.4-12.65-17.42 12.66 6.65-20.47-17.4-12.66h21.5"/></g></svg>