<svg xmlns="http://www.w3.org/2000/svg" width="640" height="480" xmlns:xlink="http://www.w3.org/1999/xlink"><path fill="#0021ad" d="M0 0h640v480H0z"/><path fill="#1c8a42" d="M0 0h640v480z"/><circle cx="320" cy="240" r="57.805" fill="#ffc639"/><path fill="#1c8a42" d="M284.7 214.03c3.95 5.43 9.94 14.52 14.76 12.15 3.76 0 5.7.28 6.22 2.78 8.87 1.5 23.77-2.23 33.05-14.3 0 0 .78.1.5-4.5.06-2 2.74-1.6 2.8-.95.38 1 .32 1.74.82 1.77 1.14-.38 2.7-2.94 4-4.57.37-.7.18-1.47.26-2.37.7-1.7 2.42-1.33 2.78-.44.33.56.34 1 .66 1.58 1.75 1.17 4.9.07 5.15.07.3-1.42 1.22-1.3 1.22-1.3 1.16-.24.7-.14 1.47.26-.68 7.7 1.5 8.03 1.32 11.98.08 4.4-1.33 5.65-1.33 7.32.44 2.06 6.93 2.13 4.64 3.86-2 1.07 0 3.08-3 3.86-8.8 4.46-10.48 8.28-10.48 8.28s-2.2 4.17-2.45 4.17c-1.46 2.78-3.33 1.26-4.36 2.62-.52 1.7-1.1 5.47-.07 7.43.52 2.7-.06 4.16-.7 6.86-.6 5.62-2.82 6.47-3.08 8.44-1.04 2.1.2 12.02-.77 12.02-6.54.13-11.55-1.25-14.14-1.77 2.5-10.88 1.53-20.42 1.53-21.4-.64-7.78-11.64-5.9-13.32-6.92-1.4-.3-2.27-1.43-2.76-1.92-1.55-.17-2.13-.53-3.7-.7-.76.4-.3.8-2.03 1.33-4.37.52-6.3-3.83-6.3-3.83.2-1.46-9.87.3-15.34-.97-2.25 1.25-3.23 4.95-5.07 5.4-.06 1.14-3.04-.95-3.64-2.08-.12-3.3 2.87-4.74 2.87-4.74 2.37-1.67 3.78-1.94 4.92-3.1.57-2.85.28-4.97 1.5-7.12 1.04-1.64 2.56-.87 3.6-1.6 1.1-.74 1.57-5.55.54-6.87 0 0-4.45-4-4.7-4.26-1.43-4.14 1.7-6.8 2.6-6.5z"/><path fill="#ffc639" d="M561.88 142.44c-2.62-10.37-26.06-32.7-43.68-46.9-4.2-2.86-6.95-1.15-6.4 2.93 2.2 3.66 3.84 7.68 6.03 11.34.6 2.45 1.77 4.16 2.38 6.6 0 0 .2 4.2.56 4.57 5.48 6.03 6.22 11.15 6.22 11.15 3.16 6.1 5.97 10.55 11.52 15.55 6.22 3.9 1.64 16.03 1.82 22.5 0 4.08-2.92 3.6-5.48 3.1-20.18-18.53-40.18-18.6-57.8-23.96-6.88-.72-7 2.57-4.75 4.4 12.3 13.17 23.9 22.13 39.13 29.63l7.68 4.76c2.94 2.43 5.86 4.86 8.8 7.3 6.75 4.4 7.3 8.4 7.3 8.78.2 8.23-4.2 14.63-5.48 17.2-2.3 8.7-6.95 10.23-6.95 10.23-37.68 25.43-57.43 32-118.5 24.15-.93-.48-6.78.5 0 2.93 15.53 5.18 53.72 13.5 90.67-4 8.87-6.23 14.8-4.2 21.23-7.9 10.55-6.52 25.62-14.62 28.36-15.53 8.23-4.4 31.28-9.33 36.6-13.72 6.08-.5 12.4-1.3 12.82-6.53 2-1.3 4.93-.35 7.1-4.62 4.84-.84 4.03-2.57 4.03-2.57-1.22-3.4-5.74-4.8-8.96-7.3-4.77-1.6-8.06-2.08-11.53-.37-1.1.5-2.2.98-3.3 1.47 0 0-5.12-.74-5.12-1.1-11.38-.63-10.27-38.34-14.3-54.07z"/><path fill="#1c8a42" d="M588.56 204.17a2.82 1.76 15.95 1 1-5.37-1.7 2.82 1.76 15.95 0 1 5.36 1.7z"/><g fill="#fff" transform="matrix(.64 0 0 .64 0 80)"><path id="a" d="M188.16 190.94L175.4 179l-12.9 11.77 1.4-17.4-17.26-2.76 14.47-9.76-8.6-15.2 16.68 5.22 6.5-16.2 6.32 16.3 16.74-5.02-8.8 15.08L204.3 171l-17.3 2.54 1.16 17.42z"/><path d="M233.4 335.53l-13.76-9.17-13.4 9.67 4.72-15.57-13.58-9.42 16.66-.44 5-15.5 5.6 15.3 16.65-.15-13.22 9.9 5.3 15.38z"/><use width="100%" height="100%" x="2.522" y="269.061" xlink:href="#a"/><use width="100%" height="100%" x="-112.066" y="123.223" xlink:href="#a"/><use width="100%" height="100%" x="108.427" y="85.027" xlink:href="#a"/></g></svg>