<svg xmlns="http://www.w3.org/2000/svg" width="640" height="480" xmlns:xlink="http://www.w3.org/1999/xlink"><path fill="#fff" d="M0 0h640v480H0z"/><path id="a" fill="#435125" d="M307.84 398.6a.8.8 0 0 1-.28-.2l-.1-.1c-.26-.23-.7-.65-1.26-1.3-1.07-1.2-2.5-3-3.76-4.55-2.5-3.1-4.55-5.78-4.94-6.3l-.63-.8-6.2-1.93-4.55-2.12 2.43-2.72 8.32 3.56 6.22 1.28 11.48 8.45c-.03.03-1.68 1.4-3.32 2.9-.73.65-1.65 1.5-2.3 2.2-.3.34-.56.66-.74.93-.12.16-.18.3-.2.37l.7-.44.78.6-1.57.15h-.08zm-42.67-12.82c-5.42 0-10.78-1.5-15.92-4.45s.67-1.3 2.3-2.48c1.55-1.14 4.35-2.5 8.88-2.52h.1c5.35 0 11.9 1.82 19.5 5.4-.26.18-6.2 4.06-14.86 4.06zm-23.5-5.2c-1 0-1.9-.38-2.53-1.07-.52-.55-.9-1.3-1.14-2.3-.4-1.6-.3-3.2-.28-3.37a3.48 3.48 0 0 1 1.25-.28h.1c2 0 3.58 1.74 4.26 3.47.38.98.46 1.8.22 2.45-.24.65-1 1.1-1.88 1.1zm41.35-4.8c-13.9-1.98-19.78-7-22.27-10.86-2.66-4.12-2.1-7.93-2.1-7.97 0 0 .85-.24 2.13-.25 3.7 0 13.15 1.86 22.24 19.08zm-28.47-2.75c-5.93 0-10.45-1.02-13.42-3.04-1.7-1.17-2.55-2.45-2.95-3.3a5.4 5.4 0 0 1-.48-1.63c.16-.07 2.6-1.15 6.2-1.32.32 0 .63-.02.95-.02 4.6 0 11.56 1.5 18.92 8.62-3.36.45-6.47.68-9.23.68zm-28.73-1.1c-6.25 0-14.85-1.9-20.2-7.27.06-.03 5.88-1.5 12.42-1.66.4 0 .8-.02 1.18-.02 5.87 0 10.36 1.14 13.35 3.38 1.04.8 1.6 1.52 1.74 2.23.12.6-.2 1.23-.84 1.7-1.34 1.03-3.75 1.57-7.15 1.62l-.47.02zm-20.27-10.4a2.56 2.56 0 0 1-1.98-.94c-.4-.5-.7-1.14-.9-2.02-.32-1.48-.22-2.93-.22-2.94v-.02a2.43 2.43 0 0 1 .97-.22c.93 0 1.64.5 2.08.93a5.57 5.57 0 0 1 1.35 2.12c.3.82.34 1.5.14 2.1-.17.48-.7.97-1.45.97zm46.83-1.06c-1 0-1.9-.38-2.54-1.06-.52-.56-.9-1.3-1.14-2.3-.4-1.6-.3-3.22-.28-3.37a3.48 3.48 0 0 1 1.25-.28h.1c2 0 3.58 1.74 4.26 3.46.4 1 .46 1.82.22 2.47-.24.65-1 1.1-1.87 1.1zm-22.8-.94c-12.6-.44-19.13-4.02-22.4-6.95-1.84-1.64-2.86-3.28-3.4-4.36-.5-1.02-.68-1.8-.72-1.95h.02s1.2-.43 3.1-.47h.3c4.25 0 12.9 1.78 23.08 13.72zm13.66-1.27c-10.13-1.55-15.87-5.9-18.9-9.27-3.17-3.55-4.13-6.85-4.17-7 .02 0 1.26-.33 3.12-.38a14.24 14.24 0 0 1 .85 0c5.1.1 14.35 2.42 19.1 16.63zm-52-4.87c-3.32 0-6.54-.4-9.57-1.15-5.3-1.33-7.58-3.35-8.55-4.82-.56-.83-.76-1.56-.83-2.02a3.4 3.4 0 0 1-.03-.85h.02s3.5-1 8.36-1.07a35.03 35.03 0 0 1 7.43.66c8.42 1.68 12.8 8.04 12.84 8.1v.02c-.06 0-4.07 1.13-9.7 1.13zm23.5-8.55c-1 0-1.9-.37-2.53-1.04-.5-.55-.87-1.3-1.12-2.32-.4-1.6-.3-3.2-.28-3.35a3.48 3.48 0 0 1 1.25-.28h.1c2 0 3.58 1.74 4.26 3.47.38.95.45 1.76.2 2.42-.25.68-.97 1.1-1.85 1.1zm-17.67-2.43c-.07 0-4.78-1.23-9.57-4.18-4.44-2.73-9.86-7.56-10.52-15.06 0 0 .42-.1 1.03-.13.1 0 .18 0 .28 0 1.32 0 4.03.37 7.3 2.86 4.2 3.2 8.05 8.75 11.5 16.53zm11.55-.42c-.03 0-3.4-1.35-7.58-4.87-3.9-3.27-9.4-9.16-13.37-18.66 0 0 .9-.5 2.3-.58a3.3 3.3 0 0 1 .25 0c.12 0 .25 0 .37 0 1.92.05 4.86.85 8.12 4.36 3.74 4.04 7.08 10.68 9.92 19.73h-.02zm-29.92-.87c-3.85 0-5.17-2.1-5.56-3-.64-1.47-.45-2.94-.44-2.96v-.02a8.5 8.5 0 0 1 1.92-.25h.13c3.04 0 5.44 1.55 6.47 3.08.2.3.83 1.35.3 2.17-.4.65-1.35.98-2.82.98zm-8.54-10.78c-2.15 0-5.45-.13-8.9-.76s-5.4-3.55-6.42-5.9c-1.12-2.54-1.44-4.97-1.44-5 10.63.3 15.65 3.42 18 5.97 2.4 2.63 2.55 5.36 2.56 5.54-.03 0-1.52.15-3.8.15zm11.06-11.05a42.73 42.73 0 0 1-2.42-3.4c-1.26-1.94-2.42-3.98-2.42-5.65 0-1.62-.38-5.02-.6-6.9-.3-2.4-.6-4.43-.6-4.6.27.1 6.65 2.5 6.65 8.47 0 6-.6 12-.6 12.07zm-8.26-.57c-.07 0-.13 0-.2-.02-1.88-.3-5.2-1.74-8.86-3.84-4.06-2.33-7.37-4.83-9.3-7.03-1.75-2-2.8-5.17-3.1-9.38-.2-3 .04-5.5.07-5.73.33-.1.68-.17 1.05-.17 1.4.02 2.92.66 4.95 2.06 1.6 1.1 3.34 2.6 5.2 4.42 3.2 3.17 5.73 6.35 5.76 6.38l.02.03c.2.38 2.03 3.66 3.45 6.85.9 2.02 1.4 3.48 1.62 4.6.12.63.15 1.04 0 1.42a.72.72 0 0 1-.3.36.87.87 0 0 1-.37.07z"/><use width="100%" height="100%" xlink:href="#a" transform="matrix(-1 0 0 1 593.742 0)"/><path fill="#d47600" d="M519.06 76.38l-1.88.75-.74.3-2.28-.13-2.14 1.03-3.8 2.6-.16.1-1.4.38-1.33-.56-.74.34-.27 1.53-.7 1.12-.88.6-3.03.32-2.55 1.32-3.32-.9-1.54.6-3.27 2.97-1.68.8-.58-.04-2.23-.13-.94.3-1.4 1.36-2.65.2-.82.58-1.3 2.62-1.4 1.44-.8.17-.87-.3-.66.1-.3 1.67-.63.7-1.77.6-1.42 1.2-1.25.63-1.66-.04h-.4l-1.65.9-3.12.28-1.3 1.24-.3.27-.6.35-.98.6-.25.14-1.2-.22-1.4.55-.56-.87-.96.58-1.28.06-1.6-.7-1.22-.55-.9.13-.3 1.55-.03.16-.93 1.24-1.74 1.06-.24.3-2 2.57-3.78 3.97-3.2 1.63-3.3 1-2.32 1.9-6.08 3.02-9.6 4.76-1.96.63-2.8.44-5.04 1.85-4.43 1.33-.25.08-.88.27-6.25 1.9-2.9-.32-1.73.63-4.5-.5-3.1.06-1.98.4-3.7 1.8-6.27 3-2.07 1.9-3.22 1.68-3.78 1.2V141.25l-1.32.4-.94.3-3.06.48h-1.7l-1.06-.3-.17.05-6.25 2.05-6.98.67-3.5 1.12-2.6-.04-1.63.5-3.2.38-1.13-.3-.26-.08-9.4.4-4.3-.48-2.05.47-3.44-1.17-5.02-.58-1.17-.35-2.63-.78-1.2.7-.88.08-2.15-.77-.77-.02-1.76.64-1-.26-.95-.75-2.2-.33-1.36-1.13-7.5 1-2.05-.6-6.84-2-1.08.06-1.36 1.02-2.04.74-1.77.45-2.4.1-2.8-.75-2.9-1.4-1.06-.25-2.4.24-.7.06-4.4-2.35-5.62-3.5-3.82-1.85-1.44-.23-.2.68.72 2.25.24 2.22-.07 2.05-.03 1.27.36 1.13 1.38 1.53.6 1.53.4 4.22v4.3l-.67 6.83-.23 1.04-.8 3.54-.73 3.25-2.84 8.66-.78 1.07-1.9 1.3-4.34 2.96-3.2 1.83-1 .42-2.6.2-1.6-.1-2-1.08-1.98-.5-2.6-1.87-2.87-.6-3.15-1.82-.82-.98-1.72-.16-2.38-.72-.87-.27-.6-.17-3.03-.1-2.83-1.3-1.5-.35-2.03-.1-2.12.98-1.08.52-1.37-.55-1 .06-1.1 1.7-.17.26-.78.4-.96-.02-.75-.02-.8.36-1.1.47-.97.42-.47.2-.3.05-.52.1-.63.1-1.13-.65-.6-.35-1-.2-.54.38-.1 1.85-.5 1.1-1.57 1.38-1.6 1.4-1.1 1.65-2.95 6.7-1.84 2.72-.57.63-1.93 2.12-1.7 1.33-3.94 3.05-3.73 1.4-3.2.65h-1.57l-2.96-.4-2.66-.8-2.92-1.83-3.2-2.57-4.63-4.58-.66-.4-.14-.1-1.46-.92-1.08.02-.43.7-.24 1-.2.9-.52 5.1.05.3.28 2.1 3.52 4.92 1.08 2.6.18.3.74 1.23.55.93.05.1 1.2 3.6-.85 2 .43 1.37-1.07.83-.2 1.17 3.17 3.97.7 1.74-.78 2.44-1.23 1.33-.35.37.18 1.02 1.45 1.3 2.47 2.2 1.32 3.28 1 .88 1.16-.25.65.5 1-.02.95.96.63.32 1 .5.77 1 .17 3.14 1.46 3.88.02 2.1v.3l.92 1.57.28 1.24-.48 3.26 1.16 1.04 1.25-.26.8.13 1.3 1.1 1.6 2.4 1.53-.23.97.47 4.73 4.27 1.07.55.06.03.76.4.95.96 1.5-1h.16l1.62-.15.7.47 1.37.92 1.8-.04 3.86 1.2 1.7.43 3.42 2.1 1.45.9.85.7 1.14.93 2.28.98 1.95.47 1.05.25.8.3v-.04h.02v.05l4.2 1.62 2.3.54 2.12.77 1.53.56 1.13.02 1.6-1.35 1.55-.1 1.3.33 1.25-.2 2-1.23.38-.58 1.4-.67 4.77-.6 1.4.46 3.55-1.54 2.4.67 2.1-.75 4.63 1.02 1.23.87 1.4 1.57h.15l1.53.04-.64 1.06 2.02 2.12 1.83 2.76.1.36 1.34 3.9.98 1.37.7 1.92.02 1.26-1.07.82-.17.46-.06.18.2.53.42-.2.77-.44.93-.14 1.65.17 1.1.1 1.73-.85 1.14-.57 1.83.8 2.02-.03.85.38 2.4 1.08 1.2.13.47-.3.28-.68-.14-.8-.92-1.06-2.02-2.36-.83-1.2-.62-1.76-.2-2.23-.14-1.5.25-2 .53-.7.4-1.57.1-.4 1.14-1.5 2.98-1.92 3.2-2.87 2.53-1.67 2.6-1.13.08-.32.3.12 6.62-2.26h.1l2.96-.53 19.94 1.42.74-.23.66-1.88.36-.34.24-.23 2.2-.96 1.02-.16 2.84.7 1.17.3 1.87-1.05h1.33l2.73-1.48 1.7.04.63-.26 3.3-2.36 3.16-.9.82-.45.3-.17 3.24-1.7 2.06-1.6 1.78-.95 1.95-.5 5.1-.36 1.04-1.7 2.2-.3 1.33-1.5 1.5-.6 1.1-1.58.9-1.3 1.3-.75 4.07-.26 4.83.6.64-.4 1.1-3.9 1.14-.72 3.1-4.5v-3.01l.5-1.94-.34-3.52.4-3.55 1.93-4.5 1.67-1.84 2.72-1.84 1.38-.6 1.96-.33.3-.06.5-.1 6.73-.08c.1-.07 2.45-.03 2.45-.03l2.25-.03 5.7 1 .4.08 1.92.62 2.2 1.73 2.36 2.3.44.42 1.52.64.46.2 1.26-.2 1.8-.94 1.34-1.14 1.84-1 .05-.07 1.03-1.56.03-.04h.03-.02l.4-.63 3.57-1.38 4.2-.25.46-.25.26-.14 1.1-1.3h1.04l2.5.9 1.78-.34 1.4.56 1.08-.13 2.06-.25 2.2 1.55 1.28.16L431 221l.22.05.13.02.26.04.54-.15.8-.23.1-.03.1.13.52.72.7.1.84-1.1-.33-.5-.12-.2-1.62-.33-1.45-2.48 1.38-1.5-2.17-2.65-.37-.45-.12-.2-.74-1.12-3.8-5.8-4.94-3.94-1.74-1.4-.62-.48-2.64-2.68-1.88-2.5-.25-.55-.4-.86-1.13-2.46-1.97-1.5-1.6-1.77-.08-.1-3.3-4.5-.56-.75-.78-.45h-1.65l-.16-.17-.1-.1.06-.05.8-.8.88-.2.4-.88-1.7-4.9v-.16l-.13-1.56 1.37-7.08.18-.86 2.34-4.77 1.45-1.2 1.6-3.1 1.35-2 1.3-1.26.23-.12 2.34-1.42 1.98-.28 1.87-.27 3.28 1.02 3.12-.06.6-.06 1.43-.16 2.33-.74 1.1-.68.57-.87 1.2-4 .37-1.26.73-1.4 4.25-4.87 3.2-2.97 7.22-5.3 3.53-2.1 1.8-1.08 16.1-7.16 4.2-4.24 2.17-2.2 3.86-2.6 4.5-1.84 3.9-3.08.84-1.06 1.07-3.45.9-.2.8-1.75.23-.5 3.16-2.23.36-.18L507.5 89l1.8.25.95-1.44 3.58-.6.66-.1.87-.45.75-1.28v-.25l.1-3.42.77-.92.4-2.25.4-.52.4-.54 1.03-.72-.18-.42z"/></svg>