<svg xmlns="http://www.w3.org/2000/svg" width="640" height="480"><defs><clipPath id="a"><path fill-opacity=".67" d="M-85 0h682.66v512H-85z"/></clipPath></defs><g fill-rule="evenodd" clip-path="url(#a)" transform="translate(79.7) scale(.94)"><path fill="#108c00" d="M-258.27 0h1027.5v512h-1027.5z"/><path fill="#ffd600" d="M-260 178.16H772.6v50.16H-260zM181.08 0h48.43v512H181.1z"/><path d="M227.78 0h48.43v512H227.8zM-260 226.6H772.6v50.15H-260z"/><path fill="#fff" d="M-260 276.76H772.6v50.16H-260zM276.22 0h48.43v512h-48.43z"/><rect width="273.75" height="275.03" x="-394.56" y="-393.87" fill="#e72910" transform="scale(-1)" ry="137.51"/><path d="M250.5 136.92c0-.26 5.62-16 5.62-16l5.1 15.74s17.08.52 17.08.26-13.5 10.32-13.5 10.32 6.36 18.06 6.1 17.55c-.25-.53-14.78-10.85-14.78-10.85s-14.8 10.32-14.53 10.32 5.6-17.03 5.6-17.03l-13.26-10.06 16.57-.26z"/><path fill="#ffe700" d="M251.27 137.72c0-.22 4.86-13.86 4.86-13.86l4.42 13.63s14.8.44 14.8.22-11.7 8.94-11.7 8.94 5.5 15.64 5.3 15.2c-.23-.45-12.82-9.4-12.82-9.4s-12.8 8.95-12.58 8.95 4.86-14.74 4.86-14.74l-11.47-8.72 14.35-.22z"/><path fill="#108c00" d="M253.33 140c0-.14 2.8-8 2.8-8l2.54 7.86s8.53.26 8.53.13-6.74 5.14-6.74 5.14 3.18 9.02 3.05 8.76c-.1-.25-7.37-5.4-7.37-5.4s-7.4 5.15-7.26 5.15 2.8-8.5 2.8-8.5l-6.62-5.03 8.28-.13z"/><path d="M356.88 211.8c0-.26 5.6-16 5.6-16l5.1 15.74s17.08.52 17.08.26-13.5 10.32-13.5 10.32 6.37 18.06 6.1 17.55c-.24-.52-14.78-10.84-14.78-10.84s-14.78 10.32-14.53 10.32 5.6-17.03 5.6-17.03l-13.24-10.06 16.58-.26z"/><path fill="#ffe700" d="M357.64 212.6c0-.22 4.85-13.86 4.85-13.86l4.4 13.63s14.8.45 14.8.23-11.7 8.94-11.7 8.94 5.52 15.64 5.3 15.2c-.22-.45-12.8-9.4-12.8-9.4s-12.8 8.95-12.6 8.95 4.87-14.76 4.87-14.76l-11.48-8.72 14.34-.22z"/><path fill="#108c00" d="M359.7 214.87c0-.13 2.8-8 2.8-8l2.54 7.87s8.53.26 8.53.13-6.75 5.15-6.75 5.15 3.18 9.02 3.06 8.76c-.13-.25-7.4-5.4-7.4-5.4s-7.37 5.15-7.24 5.15 2.8-8.5 2.8-8.5l-6.62-5.03 8.27-.13z"/><path d="M325.88 330.65c0-.26 5.6-16 5.6-16l5.1 15.74s17.08.5 17.08.25-13.5 10.32-13.5 10.32 6.37 18.06 6.1 17.55c-.24-.52-14.78-10.84-14.78-10.84S316.7 358 316.95 358s5.6-17.03 5.6-17.03L309.3 330.9l16.57-.25z"/><path fill="#ffe700" d="M326.64 331.45c0-.22 4.85-13.86 4.85-13.86l4.4 13.62s14.8.45 14.8.23-11.7 8.94-11.7 8.94 5.52 15.63 5.3 15.18c-.22-.44-12.8-9.38-12.8-9.38s-12.8 8.94-12.6 8.94 4.87-14.75 4.87-14.75l-11.48-8.73 14.34-.22z"/><path fill="#108c00" d="M328.7 333.72c0-.13 2.8-8 2.8-8l2.54 7.87s8.53.25 8.53.12-6.75 5.15-6.75 5.15 3.18 9.02 3.06 8.76c-.13-.25-7.4-5.4-7.4-5.4s-7.37 5.15-7.24 5.15 2.8-8.5 2.8-8.5l-6.62-5.03 8.27-.13z"/><path d="M177.17 330.65c0-.26 5.6-16 5.6-16l5.1 15.74s17.08.5 17.08.25-13.5 10.32-13.5 10.32 6.37 18.06 6.1 17.55c-.24-.52-14.78-10.84-14.78-10.84S168 358 168.24 358s5.6-17.03 5.6-17.03L160.6 330.9l16.57-.25z"/><path fill="#ffe700" d="M177.93 331.45c0-.22 4.86-13.86 4.86-13.86l4.4 13.62s14.8.45 14.8.23-11.7 8.94-11.7 8.94 5.52 15.63 5.3 15.18c-.23-.44-12.8-9.38-12.8-9.38s-12.82 8.94-12.6 8.94 4.86-14.75 4.86-14.75l-11.48-8.73 14.35-.22z"/><path fill="#108c00" d="M179.98 333.72c0-.13 2.8-8 2.8-8l2.55 7.87s8.53.25 8.53.12-6.74 5.15-6.74 5.15 3.18 9.02 3.05 8.76c-.13-.25-7.38-5.4-7.38-5.4s-7.4 5.15-7.27 5.15 2.8-8.5 2.8-8.5l-6.62-5.03 8.28-.13z"/><path d="M150 208.74c0-.26 5.62-16 5.62-16l5.1 15.74s17.08.52 17.08.26-13.5 10.32-13.5 10.32 6.36 18.06 6.1 17.55c-.25-.5-14.78-10.83-14.78-10.83s-14.8 10.32-14.53 10.32 5.6-17.04 5.6-17.04L133.44 209l16.57-.26z"/><path fill="#ffe700" d="M150.77 209.54c0-.22 4.86-13.86 4.86-13.86l4.42 13.63s14.8.46 14.8.24-11.7 8.94-11.7 8.94 5.5 15.64 5.3 15.2c-.23-.45-12.82-9.4-12.82-9.4s-12.8 8.95-12.58 8.95 4.85-14.75 4.85-14.75l-11.48-8.72 14.35-.22z"/><path fill="#108c00" d="M152.83 211.8c0-.12 2.8-7.98 2.8-7.98l2.54 7.86s8.53.26 8.53.13-6.74 5.16-6.74 5.16 3.18 9.02 3.05 8.76c-.1-.25-7.37-5.4-7.37-5.4s-7.4 5.15-7.26 5.15 2.8-8.5 2.8-8.5l-6.62-5.03 8.28-.13z"/><path d="M324.6 174.14c0 .26-5.6 16-5.6 16l-5.1-15.74s-17.07-.52-17.07-.26 13.5-10.32 13.5-10.32-6.37-18.06-6.1-17.55c.24.52 14.78 10.84 14.78 10.84s14.8-10.3 14.54-10.3-5.6 17.02-5.6 17.02l13.24 10.06-16.57.26z"/><path fill="#ffe700" d="M323.85 173.34c0 .22-4.86 13.86-4.86 13.86l-4.42-13.63s-14.8-.45-14.8-.23 11.7-8.94 11.7-8.94-5.5-15.64-5.3-15.2c.23.45 12.8 9.4 12.8 9.4s12.82-8.95 12.6-8.95-4.86 14.75-4.86 14.75l11.48 8.72-14.35.22z"/><path fill="#108c00" d="M321.8 171.07c0 .13-2.8 8-2.8 8l-2.55-7.87s-8.53-.26-8.53-.13 6.75-5.15 6.75-5.15-3.18-9.02-3.06-8.76c.14.25 7.4 5.4 7.4 5.4s7.38-5.15 7.25-5.15-2.8 8.52-2.8 8.52l6.62 5.02-8.27.13z"/><path d="M367.3 290.28c0 .26-5.6 16-5.6 16l-5.1-15.74s-17.07-.52-17.07-.26 13.5-10.32 13.5-10.32-6.37-18.06-6.1-17.55c.24.53 14.78 10.85 14.78 10.85s14.8-10.32 14.54-10.32-5.6 17.03-5.6 17.03l13.24 10.06-16.57.26z"/><path fill="#ffe700" d="M366.55 289.48c0 .22-4.85 13.86-4.85 13.86l-4.42-13.63s-14.8-.44-14.8-.22 11.7-8.94 11.7-8.94-5.5-15.64-5.3-15.2c.23.45 12.8 9.4 12.8 9.4s12.82-8.95 12.6-8.95-4.86 14.74-4.86 14.74l11.48 8.72-14.35.22z"/><path fill="#108c00" d="M364.5 287.2c0 .14-2.8 8-2.8 8l-2.55-7.86s-8.53-.26-8.53-.13 6.75-5.14 6.75-5.14-3.18-9.02-3.06-8.76c.14.25 7.4 5.4 7.4 5.4s7.38-5.15 7.25-5.15-2.8 8.5-2.8 8.5l6.62 5.03-8.27.13z"/><path d="M261.43 375.25c0 .26-5.6 16-5.6 16l-5.1-15.74s-17.1-.5-17.1-.25 13.52-10.32 13.52-10.32-6.38-18.06-6.12-17.55c.25.52 14.8 10.84 14.8 10.84s14.77-10.32 14.52-10.32-5.6 17.03-5.6 17.03L277.98 375l-16.57.25z"/><path fill="#ffe700" d="M260.66 374.45c0 .22-4.86 13.86-4.86 13.86l-4.4-13.63s-14.8-.44-14.8-.22 11.7-8.94 11.7-8.94-5.52-15.63-5.3-15.18c.22.44 12.8 9.38 12.8 9.38s12.8-8.94 12.6-8.94-4.87 14.75-4.87 14.75l11.48 8.73-14.34.22z"/><path fill="#108c00" d="M258.6 372.18c0 .13-2.8 8-2.8 8l-2.54-7.87s-8.53-.25-8.53-.12 6.75-5.15 6.75-5.15-3.18-9.02-3.06-8.76c.13.25 7.4 5.4 7.4 5.4s7.37-5.15 7.24-5.15-2.8 8.5-2.8 8.5l6.62 5.03-8.27.13z"/><path d="M161.94 290.28c0 .26-5.6 16-5.6 16l-5.1-15.74s-17.1-.52-17.1-.26 13.52-10.32 13.52-10.32-6.38-18.06-6.12-17.55c.25.53 14.8 10.85 14.8 10.85s14.77-10.32 14.52-10.32-5.6 17.03-5.6 17.03l13.25 10.06-16.57.26z"/><path fill="#ffe700" d="M161.17 289.48c0 .22-4.85 13.86-4.85 13.86l-4.42-13.63s-14.8-.44-14.8-.22 11.7-8.94 11.7-8.94-5.5-15.64-5.3-15.2c.23.45 12.8 9.4 12.8 9.4s12.82-8.95 12.6-8.95-4.86 14.74-4.86 14.74l11.48 8.72-14.35.22z"/><path fill="#108c00" d="M159.12 287.2c0 .14-2.8 8-2.8 8l-2.55-7.86s-8.53-.26-8.53-.13 6.75-5.14 6.75-5.14-3.2-9.02-3.07-8.76c.13.25 7.4 5.4 7.4 5.4s7.37-5.15 7.24-5.15-2.8 8.5-2.8 8.5l6.62 5.03-8.28.13z"/><path d="M198.66 175.85c0 .26-5.6 16-5.6 16l-5.1-15.74s-17.1-.5-17.1-.25 13.52-10.32 13.52-10.32-6.38-18.06-6.12-17.55c.25.52 14.8 10.84 14.8 10.84s14.77-10.32 14.52-10.32-5.6 17.03-5.6 17.03l13.25 10.06-16.57.25z"/><path fill="#ffe700" d="M197.9 175.05c0 .22-4.87 13.86-4.87 13.86l-4.4-13.63s-14.8-.44-14.8-.22 11.7-8.94 11.7-8.94-5.52-15.63-5.3-15.18c.22.44 12.8 9.38 12.8 9.38s12.8-8.94 12.6-8.94-4.87 14.75-4.87 14.75l11.48 8.73-14.35.22z"/><path fill="#108c00" d="M195.84 172.78c0 .13-2.8 8-2.8 8l-2.55-7.87s-8.54-.25-8.54-.12 6.75-5.15 6.75-5.15-3.17-9.02-3.05-8.76c.13.25 7.4 5.4 7.4 5.4s7.37-5.15 7.24-5.15-2.8 8.5-2.8 8.5l6.6 5.03-8.26.13z"/><g transform="matrix(1.04 0 0 1.04 -250.6 359.43)"><g fill="#009200" stroke="#000" stroke-width="2.5" transform="matrix(.16 -.02 0 .18 429.84 -215.63)"><ellipse cx="680.21" cy="586.13" rx="30.805" ry="189.82" transform="matrix(1.4 0 0 1 -534.29 263.72)"/><ellipse cx="680.21" cy="586.13" rx="30.805" ry="189.82" transform="matrix(1.5 0 0 1 -547.22 267.05)"/><ellipse cx="680.21" cy="586.13" rx="30.805" ry="189.82" transform="matrix(1.2 0 0 1.1 -364.93 214.1)"/></g><g stroke="#000" transform="translate(72.86 -9.8)"><path fill="#a95600" d="M388.53-52.95c6-.33 3.33-3.33 6.33-5 3-1.66 7.32-.66 8.65 1.34 1.35 1.98.35 3.98 2 3.98s46.92-2.53 48.6-.87c1.65 1.68 2 5 .32 6.34-1.66 1.33-58.9 2.87-60.9 1.53-2-1.33-5-7-5-7.32z"/><path fill="#ff0" d="M419.86-41.14c0 4 6.83 2.78 7.02 6.12-.1 3.54-11.5.35-11.8-6.12.3-6.48 11.27-9.8 11.5-6.1.2 3.06-6.72 2.1-6.72 6.1zM423.86-41.1c0 4 6.83 2.8 7.02 6.13-.1 3.54-11.5.35-11.8-6.12.3-6.47 11.27-9.8 11.5-6.1.2 3.07-6.72 2.1-6.72 6.1zM428.15-41.25c0 4 6.83 2.78 7.02 6.12-.1 3.54-11.5.35-11.8-6.12.3-6.48 11.27-9.8 11.5-6.1.2 3.06-6.72 2.1-6.72 6.1zM432.15-41.2c0 4 6.83 2.78 7.02 6.12-.1 3.54-11.5.35-11.8-6.12.3-6.48 11.27-9.8 11.5-6.1.2 3.06-6.72 2.1-6.72 6.1z"/><ellipse cx="478.38" cy="-41.086" fill="#a95600" rx="3.534" ry="3.403" transform="matrix(1.1 .02 -.02 1.15 -75.57 4.68)"/></g><g fill="#009200" stroke="#000" stroke-width="2.5" transform="rotate(-5.8 688.37 -625.22)"><ellipse cx="427.11" cy="905" rx="20.814" ry="24.144" transform="matrix(.17 0 0 .32 369.8 -361.65)"/><ellipse cx="427.11" cy="905" rx="20.814" ry="24.144" transform="matrix(.17 0 0 .32 364.04 -362.7)"/><ellipse cx="427.11" cy="905" rx="20.814" ry="24.144" transform="matrix(.17 0 0 .32 360.64 -370.55)"/><ellipse cx="427.11" cy="905" rx="20.814" ry="24.144" transform="matrix(.16 0 0 .35 369.3 -399.35)"/><ellipse cx="427.11" cy="905" rx="20.814" ry="24.144" transform="matrix(.16 0 0 .33 377.41 -379.07)"/><ellipse cx="427.11" cy="905" rx="20.814" ry="24.144" transform="matrix(.16 0 0 .33 373.22 -382.21)"/><ellipse cx="427.11" cy="905" rx="20.814" ry="24.144" transform="matrix(.16 0 0 .33 367.99 -386.66)"/><ellipse cx="427.11" cy="905" rx="20.814" ry="24.144" transform="matrix(.16 0 0 .33 363.01 -389.54)"/></g><path fill="#804bff" stroke="#000" stroke-width=".456" d="M482.57-141.07s-11.7 10.05-10.1 36.95C474.26-77.08 499-64.6 499-64.6s6.2-7.73 5.23-29.47c-2.1-31.77-13.87-45.7-13.87-45.7l-7.8-1.3z"/><g fill="#009200" stroke="#000" stroke-width="2.5" transform="rotate(4.47 180.98 769.89)"><ellipse cx="427.11" cy="905" rx="20.814" ry="24.144" transform="matrix(.17 0 0 .32 369.8 -361.65)"/><ellipse cx="427.11" cy="905" rx="20.814" ry="24.144" transform="matrix(.17 0 0 .32 364.04 -362.7)"/><ellipse cx="427.11" cy="905" rx="20.814" ry="24.144" transform="matrix(.17 0 0 .32 360.64 -370.55)"/><ellipse cx="427.11" cy="905" rx="20.814" ry="24.144" transform="matrix(.16 0 0 .35 369.3 -399.35)"/><ellipse cx="427.11" cy="905" rx="20.814" ry="24.144" transform="matrix(.16 0 0 .33 377.41 -379.07)"/><ellipse cx="427.11" cy="905" rx="20.814" ry="24.144" transform="matrix(.16 0 0 .33 373.22 -382.21)"/><ellipse cx="427.11" cy="905" rx="20.814" ry="24.144" transform="matrix(.16 0 0 .33 367.99 -386.66)"/><ellipse cx="427.11" cy="905" rx="20.814" ry="24.144" transform="matrix(.16 0 0 .33 363.01 -389.54)"/></g><ellipse cx="624.42" cy="606.11" fill="#c90000" stroke="#000" stroke-width="1pt" rx="58.28" ry="186.49" transform="matrix(.16 -.06 .06 .15 369.61 -145.05)"/><g fill="#009200" stroke="#000" transform="rotate(1.02 242.4 -1957.8)"><ellipse cx="218.13" cy="356.75" rx="10.823" ry="12.905" transform="matrix(.4 0 0 .3 445.07 -230.53)"/><ellipse cx="218.13" cy="356.75" rx="10.823" ry="12.905" transform="matrix(.35 0 0 .3 457.17 -235.92)"/><ellipse cx="218.13" cy="356.75" rx="10.823" ry="12.905" transform="matrix(.35 0 0 .3 452 -235.92)"/><ellipse cx="218.13" cy="356.75" rx="10.823" ry="12.905" transform="matrix(.37 0 0 .27 449.48 -233.46)"/><ellipse cx="218.13" cy="356.75" rx="10.823" ry="12.905" transform="matrix(.37 0 0 .27 448.95 -237.93)"/><ellipse cx="218.13" cy="356.75" rx="10.823" ry="12.905" transform="matrix(.35 0 0 .3 447.01 -238.85)"/><ellipse cx="218.13" cy="356.75" rx="10.823" ry="12.905" transform="matrix(.35 0 0 .3 448.08 -241.58)"/><ellipse cx="218.13" cy="356.75" rx="10.823" ry="12.905" transform="matrix(.4 0 0 .3 432.77 -243.48)"/><ellipse cx="218.13" cy="356.75" rx="10.823" ry="12.905" transform="matrix(.37 0 0 .27 445.92 -243.48)"/><ellipse cx="218.13" cy="356.75" rx="10.823" ry="12.905" transform="matrix(.35 0 0 .3 444.16 -246.97)"/><ellipse cx="218.13" cy="356.75" rx="10.823" ry="12.905" transform="matrix(.35 0 0 .3 436.14 -243.17)"/><ellipse cx="218.13" cy="356.75" rx="10.823" ry="12.905" transform="matrix(.35 0 0 .3 437.42 -243.88)"/><ellipse cx="218.13" cy="356.75" rx="10.823" ry="12.905" transform="matrix(.35 0 0 .3 438.99 -247.02)"/></g><g fill="#009200" stroke="#000" transform="matrix(.18 0 0 .2 420.99 -216.8)"><ellipse cx="528.68" cy="564.48" rx="67.438" ry="205.64" transform="matrix(.98 -.3 .36 .87 -245.81 324.4)"/><ellipse cx="528.68" cy="646.07" rx="13.321" ry="40.796" transform="rotate(-23.38 630.52 660.85)"/><path d="M522.5 685.55c54.78 68.06 46.6 110.3 39.84 146.07-16.72-41.77-25.75-68.05-80.54-136.1-54.8-68.06-25.46-114.3-20.97-138.93 7.94 21.57 6.87 60.9 61.67 128.96zM526.33 739.63c54.8 68.06 46.6 110.3 39.85 146.07-16.72-41.77-25.75-68.05-80.54-136.1-54.8-68.06-25.46-114.3-20.97-138.93 7.94 21.58 6.87 60.9 61.67 128.97zM530.75 782.87c56.52 66.9 49.37 109.34 43.5 145.25-17.76-41.42-27.45-67.5-83.97-134.4-56.52-66.92-28.32-113.8-24.44-138.5 8.5 21.4 8.4 60.76 64.92 127.66z"/><ellipse cx="528.68" cy="646.07" rx="13.321" ry="40.796" transform="matrix(1.8 -.4 .7 1.64 -915.63 -221.01)"/><ellipse cx="528.68" cy="646.07" rx="13.321" ry="40.796" transform="matrix(1.63 -.23 .54 1.35 -739.49 -91.78)"/><ellipse cx="528.68" cy="646.07" rx="13.321" ry="40.796" transform="matrix(1.63 -.2 .5 1.36 -750.62 -91.83)"/><ellipse cx="528.68" cy="646.07" rx="13.321" ry="40.796" transform="matrix(1.3 -.2 .47 1 -531.06 47.57)"/><ellipse cx="528.68" cy="646.07" rx="13.321" ry="40.796" transform="matrix(1.33 -.13 .4 1.03 -517.87 12.21)"/><path d="M424.8 584.6c15.64 40.13 21.42 76.06 12.9 80.2-8.52 4.13-28.13-25.08-43.77-65.2"/><ellipse cx="528.68" cy="646.07" rx="13.321" ry="40.796" transform="matrix(1.33 -.13 .4 1.03 -519.53 -34.41)"/><ellipse cx="528.68" cy="646.07" rx="13.321" ry="40.796" transform="matrix(1.33 -.1 .38 1.04 -533.98 -40.12)"/><path d="M399.07 530.38c15.64 27.2 23.84 52.44 18.3 56.33-5.55 3.9-22.74-15.03-38.4-42.24M410.72 512.9c15.64 27.2 23.84 52.43 18.3 56.32-5.55 3.9-22.74-15.04-38.4-42.25M461.22 522.43c21.76 37.4 33.12 72.07 25.34 77.36-7.77 5.28-31.75-20.78-53.5-58.2M428.2 496.55c15.65 29.92 23.85 57.7 18.3 62-5.54 4.3-22.73-16.5-38.38-46.42"/></g><g fill="#804bff" stroke="#000" stroke-width="2.5"><path d="M502.15-138.28c-1.96 2.02.07 5.53 1.93 6.75 2.1 1.7 13.85 12.8 21.8 2.64-6.52.2-18.98-13.9-23.73-9.38zM500.75-144.16c-1.96 2.02.07 5.53 1.93 6.75 2.1 1.68 13.85 12.8 21.8 2.63-6.52.18-18.98-13.9-23.73-9.4zM498.97-149.78c-1.96 2.02.07 5.53 1.93 6.75 2.1 1.7 13.85 12.8 21.8 2.64-6.52.2-18.98-13.9-23.73-9.38zM495.1-156.2c-1.96 2 .07 5.52 1.93 6.74 2.1 1.7 13.85 12.8 21.8 2.64-6.52.18-18.98-13.9-23.73-9.4z"/></g><g transform="rotate(1.02 -589.59 681.63)"><path fill="#804bff" stroke="#000" stroke-width="2.5" d="M211.17 247.3c21.77-12.06 56.62-9.75 79.73 11.16 19.36 16.95 45.3 75.2 70.33 92.84-20.23.02-31.3-5.77-42.24-15.18-28.78 15.44-38.14 16.72-63.9 15.63-35.9-1.33-62.46-17.65-68.18-40.6-6.17-21.8 4.92-52.5 24.25-63.85z" transform="matrix(.2 -.04 .05 .18 407.8 -213.64)"/><ellipse cx="287.23" cy="323.04" fill="#f00" stroke="#000" stroke-width="2.5" rx="14.154" ry="14.986" transform="matrix(.25 0 0 .13 401.82 -215.18)"/><ellipse cx="204.58" cy="348.26" fill="#ff0" stroke="#000" stroke-width="2.5" rx="23.254" ry="15.895" transform="matrix(.2 -.08 .07 .17 398.66 -208.06)"/><ellipse cx="283.9" cy="333.86" rx="5.828" ry="5.828" transform="matrix(.2 0 0 .2 411.29 -233.74)"/><path fill="#ff0" stroke="#000" stroke-width="6.56" d="M516.8 260.3c4.42 18.1-6.67 43.07-33.13 52.6-26.78 13.17-46.08 41.83-55.64 88.02-47.25-103.27-23.1-148.28 20.6-160.35C486 226.2 509.05 227.2 516.8 260.3z" transform="matrix(.1 0 0 .08 417.85 -191.49)"/><ellipse cx="198.98" cy="362.39" rx="4.71" ry="4.71" transform="matrix(.2 0 0 .2 418.69 -234.98)"/></g></g></g></svg>