<svg xmlns="http://www.w3.org/2000/svg" width="640" height="480" xmlns:xlink="http://www.w3.org/1999/xlink"><path d="M0 320h640v160H0z"/><path fill="#fff" d="M0 160h640v160H0z"/><path fill="#ce1126" d="M0 0h640v160H0z"/><g fill="#fff" stroke="#c09300" transform="matrix(.8 0 0 .8 -40.004 .002)"><path d="M450.8 302.4l68.5 63.58-4.88-115.47c-.7-17.5-15.92-13.48-26.97-7.16-11.2 7.17-23.96 7.17-37.44 2.43-13.48 4.74-26.25 4.74-37.44-2.43-11.04-6.32-26.25-10.33-26.97 7.17L380.7 366l70.1-63.58z"/><path id="a" fill="#c09300" stroke="none" d="M393.47 246.5l-4.73 112.3-8.04 7.18 4.88-115.47c2.3-1.57 6.3-4 7.9-4zm9.62 8.03l-4.03 93.95-8.03 8.22 4.88-108.48c1.58 1.57 6.3 5.45 7.17 6.3zm8.74 7.17l-3.15 78.36-6.47 6.3 4.02-89.4c1.57 1.58 4.73 3.88 5.6 4.74zm9.47 4.02l-3.15 66.8-6.3 5.1L415 263.3c1.58.72 4.73 2.44 6.3 2.44zm8.76 0l-2.3 55.66-6.45 6.3 2.45-61.24c1.57 0 5.6 0 6.3-.72z"/><use width="100%" height="100%" xlink:href="#a" transform="matrix(-1 0 0 1 900 0)"/><path fill="#c09300" d="M453.16 315.06l9.6 43.76-3.14 3.15-3.3-2.44-5.45-39.02 2.3 39.03-3.17 4.02-3.15-4.02 2.3-39.02-5.46 39.03-3.3 2.44-3.17-3.15 9.6-43.76h6.33z"/><g id="b" fill="none"><path fill="#fff" d="M428.48 295.84l-19.08 67.7 26.26 4.02 11.18-50.92-18.36-20.8z"/><path d="M422.17 318.94l2.3 5.6 12.4-11.86M430.76 304.92l2.6 24.35 7.9-10.33m-3.17 4l4.3 14.9m1.7-5.48l-8.73 13.24m2.72 13.22l-2.8-13.2-2.44-13.42-5.84 7.9-2.56-9.1-8.17 8.37 4.14 15.25 5.74-9.43 3.16 9.6 5.9-9.16M415 361.97l5.3-7.44 3.44 11.45 4.74-8.03 3.15 9.62"/></g><use width="100%" height="100%" xlink:href="#b" transform="matrix(-1 0 0 1 900 0)"/><path d="M450 393.8c19.94 0 39.02-1.57 50.2-4.72 4.75-.86 4.75-3.3 4.75-6.46 4.73-1.58 2.3-7.17 5.6-7.17-3.3.86-4.02-5.6-8.04-4.73 0-5.6-5.6-6.3-10.32-4.74-9.47 3.16-26.25 3.88-42.18 3.88-15.92-.72-32.57-.72-42.18-3.88-4.73-1.57-10.33-.86-10.33 4.74-4.02-.86-4.74 5.6-8.04 4.73 3.3 0 .86 5.6 5.6 7.17 0 3.16 0 5.6 4.87 6.46 11.05 3.15 30.13 4.73 50.07 4.73zM422.9 363.54c6.44.86 13.62 1.58 19.22.86 3.15 0 5.45 5.45-.87 6.3-5.6.73-14.34 0-19.08-.85-4-.72-12.77-2.3-18.36-3.87-5.6-2.44-1.57-7.17 1.6-6.46 4.87 1.58 11.18 3.16 17.5 4.02zm54.22 0c-6.46.86-13.63 1.58-19.08.86-3.3 0-5.6 5.45.72 6.3 5.6.73 14.34 0 19.07-.85 4.02-.72 12.77-2.3 18.37-3.87 5.6-2.44 1.58-7.17-1.58-6.46-4.88 1.58-11.2 3.16-17.5 4.02zM403.1 360.4c-4.9-.87-7.18 4.72-5.6 7.88.7-1.58 4-1.58 4.73-3.16.86-2.43-.72-2.43.86-4.73zm19.07 14.66c0-3.15 3.15-2.77 3.15-5.92 0-1.58-.86-4.02-2.43-4.02-1.6 0-3.17 1.58-3.17 3.16-.72 3.15 2.44 3.63 2.44 6.78zm22.7-9.08c4.74 0 4.27 6.3 1.98 9.47 0-2.3-4.02-3.16-4.02-4.73 0-2.44 3.62-2.44 2.05-4.74zm52.04-5.6c4.9-.85 7.18 4.74 5.6 7.9-.7-1.58-4-1.58-4.73-3.16-.86-2.43.72-2.43-.86-4.73zm-19.07 14.68c0-3.15-3.15-2.76-3.15-5.92 0-1.58.86-4.02 2.43-4.02 1.6 0 3.17 1.58 3.17 3.16.72 3.15-2.44 3.63-2.44 6.78zm-22.7-9.08c-4.74 0-4.27 6.3-1.98 9.47 0-2.3 4.02-3.16 4.02-4.73 0-2.44-3.63-2.44-2.05-4.74zM404.67 361.97c1.58 0 4.02.72 4.74 1.58l-4.73-1.58zm7.88 2.44c.86 0 4.02.73 5.6 1.6l-5.6-1.6zm28.7 3.16c-1.58 0-4.73 0-5.6.71l5.6-.72zm-8.75 0c-.86-.86-4.02-.86-5.6 0h5.6zm62.84-5.6c-1.58 0-3.87.73-4.73 1.6l4.74-1.6zm-7.9 2.45c-.85 0-4 .73-5.58 1.6l5.6-1.6zm-28.7 3.16c1.6 0 4.75 0 5.6.71l-5.6-.72zm8.76 0c.86-.86 4.02-.86 5.6 0h-5.6z"/><g fill="#c09300" stroke="none"><path d="M403.34 374.58c-.53-.1-.8-.53-.68-1.02.16-.6.65-.96 1.1-.8.3.1.84.65.84.84 0 .22-.28.75-.4.75-.05 0-.13.05-.18.1-.1.13-.4.18-.68.13zm54.93 3.92c-.2-.07-.52-.52-.52-.72 0-.4.58-1.02.93-1.02.18 0 .66.24.84.43.32.33.25.88-.16 1.2-.2.15-.8.2-1.1.1zm.36 2.48c-.42-.14-.57-.35-.6-.8-.04-.5 0-.57.52-.85l.36-.2.36.15c.48.22.7.45.7.77.03.35-.23.7-.63.88-.35.16-.38.16-.7.05zM407.75 370.1c-.35-.02-.82.3-1.1.46-.64.15-1.4.55-2.02.12-.62-.2-1.44-.04-1.54.72.15.65 1.06 1.03 1.62.6.4-.54 1.53-.86 1.65.06-.45.7-.4 1.6-.78 2.34-.07.46-.26.9-.5 1.28-.47.05-.96 0-1.35.28-.63.04-1.27.35-1.63.88-.4.58-.8 1.16-.9 1.87.1.74.93.95 1.56.98.67.2 1.33.43 2 .63 1.1.25 2.1.64 3.2.88 1.57.48 3.23.7 4.83 1.13.18.06.33.1.5.13.67.14 1.02-.58 1.07-1.12.33-1.15.58-2.33.9-3.5.24-.46.5-1.5-.4-1.28-.5.3-.95.78-1.6.82-.86.05-.36.94-.02 1.3.08.6-.1 1.3-.5 1.76-.52.33-1.17-.06-1.72-.2-.57.02-1.72-.27-1.2-1.05.2-.58.22-1.2.45-1.78.3-.62.34-1.3.47-1.94-.36-.78-.98.26-1.47.35-.34.23-1.6.33-.93.93.57.45.13 1.2.03 1.76-.04.77-.84.96-1.47.78-.62-.03-1.5-.5-.96-1.18.12-.58.32-1.14.44-1.72.23-.7.43-1.37.68-2.07.1-.62.33-1.2.63-1.75 0-.68.47-1.27.46-1.97-.05-.33-.2-.46-.4-.46zm-3.6 7.24a.35.35 0 0 1 .23.03c.25.1.25.3 0 .53-.12.1-.24.2-.3.2-.45-.05-.6-.12-.6-.3-.03-.14.02-.2.33-.34a1.45 1.45 0 0 1 .36-.12zm-1.03 5.02c-.5-.47-.42-.8.32-1.35.3-.23.5-.2.86.13.55.5.57.82.1 1.25-.25.2-.36.26-.64.26-.3 0-.38-.03-.64-.28zm3.05.92a.86.86 0 0 1-.62-1.1c.13-.42.2-.47.84-.47.7 0 .84.12.85.75 0 .35-.02.44-.2.6a1.07 1.07 0 0 1-.88.23zm89.1.08c-.22-.2-.26-.27-.26-.52 0-.4.24-.7.75-.94.68-.3.96-.26 1.22.2.34.6.32.83-.1 1.24-.2.22-.25.24-.77.24-.5 0-.57 0-.82-.22zm-85.05 1.15c-.36-.1-.55-.36-.56-.8 0-.33.02-.38.26-.57.15-.12.4-.22.58-.24.26-.05.36-.03.57.13.55.38.67.77.35 1.14-.34.4-.66.48-1.2.34zm21.92 1c-.08-.1-.26-.17-.28-.3.03-.55.06-1.1.24-1.65.1-.52 0-1.07.2-1.58.18-.92.18-1.88.4-2.8 0-.47.05-.95.2-1.4.14-.73 0-1.48.2-2.2 0-.26.3-.98.57-.55.4.57.9 1.04 1.42 1.5.43.27.02.64-.28.76-.4.17-.5.62-.48 1.03-.06.42-.23.8-.25 1.24-.1.62-.08 1.25-.16 1.87-.18.62-.1 1.27-.17 1.9 0 .4-.18.76-.15 1.16-.05.4-.07.9-.4 1.17-.34.17-.82.14-1.08-.14zm29.7-9.8c-.48.35-.9.78-1.34 1.2-.6.46.48.72.62 1.1.16.6.15 1.2.2 1.8.17.57.25 1.15.2 1.73-.04.63-.85.5-1.2.85-.5.2-.7.7-1.07 1.03-.25.5-.32 1.1-.35 1.63.04.45-.3.95 0 1.35.04.05.1.13.13.18.1.15.34.03.5.07.5-.03 1.03.04 1.5-.16 1.2-.2 2.43-.22 3.65-.28.75.02 1.47-.25 2.22-.23.6.13.85-.5.85-.97-.34-.65-.05-1.43-.32-2.1-.23-.66-.14-1.42-.25-2.12 0-.55-.7-.75-1.06-.34-.34.35-.9.4-1.15.84-.3.6.62.6.78 1.07.17.46.12.98.15 1.47.12.6-.53.62-.93.68-.54.2-1.3.34-1.6-.3-.2-.5-.16-1-.22-1.5 0-.9-.22-1.78-.28-2.67-.05-1.1-.24-2.18-.3-3.28-.02-.45-.08-1.2-.73-1.06zm-.62 8.24l.3.03.04.38.03.37-.42.13a3.28 3.28 0 0 1-.4.1 2.55 2.55 0 0 1-.2-.13c-.2-.16-.15-.4.13-.7.18-.16.25-.2.5-.18zm-29.97-9.28c-.38.13-.86.7-1.25.7-.88.05-.76.9-.12 1.2.08.27 0 .6.03.88.13.8-.37 1.43-.27 2.22-.05.87-.3 1.72-.35 2.6-.24.9-.25 1.83-.4 2.75-.1.83-.7.54-1.22.32 0-.36-.03-.7-.03-1.06.2-.82-.44-1.06-1.1-1.16-.68.06-1.02-.52-.87-1.13.3-.35 1.03-.25 1.5-.3.98.2.94-1.12.44-1.57-.35-.64-1.2-.9-1.44-1.56.1-.87-.48-1.74-1.2-2.16-1.08-.08-1.9.86-2.3 1.78-.45.13-.9.27-1.35.44-.7.17-1.7 1.4-.74 1.87.55.15 2.2.53 1.47 1.28-.4.7-1.2.72-1.9.53-.73 0-1.53-.35-1.5-1.18-.15-.75-.13-1.56-.47-2.25-.15-.84-1.1-.65-1.16.12-.73.54-.63 1.4-.12 2.03.32.73 0 1.58-.32 2.25-.2.88-1.15.9-1.84 1.2-.34.12-1.63-.1-1.16.65.76.26 1.66.5 2.44.3.82-.1 1.54-.65 1.94-1.36.55-.56 1.5-.27 2.22-.28.77 0 1.56.54 2.3.18.23-.56 1.23-1.5 1.54-.53-.05.87.7 1.34 1.5 1.23.86-.05.54.6.53 1.13.06.93.66 1.42 1.44 1.8.26.08.54.06.8 0 .76-.23 1.56-.56 1.8-1.4.3-.68.3-1.45.52-2.15.17-1.12.4-2.25.43-3.4.28-1.04.2-2.14.4-3.2.14-.77.24-1.55.32-2.33-.1-.42-.27-.5-.5-.4zm-6.78 4.16c.15.02.23.2.25.53.02.36.2.66.44.72.18.04.16.24-.03.37-.12.08-.33.13-.7.13-.57 0-.93-.16-1.24-.47l-.2-.2.28-.18c.14-.1.4-.33.56-.5.3-.3.48-.42.63-.4zm66.03-7.88a8.37 8.37 0 0 0-1.66.25c-1.04-.07-1.56 1.02-.56 1.55.6 1.54 1.54-.3 2.5-.2 1.44.3 1.56 1.85 1.78 3 .08 1.17.42 2.3.75 3.4.98 1.06-.7 1.73-1.42.9-.6-.67-1.92-1.48-2.66-.57-.9.4-.94 1.6-1.7 1.94-1.2.37-1.35-1.12-2-1.75-.58-.82-1.7-.9-2.6-1.2-.44-.85-.22-2.33-1.1-2.92-.75.3-2.12 1.7-.98 2.34 1.12.95-.48 1.4-1 2.05-.73.82-.85 1.94-.97 2.97-1.25.7-1.5-.78-1.65-1.7-.1-1.13-1.04-.8-1.7-.4-.94.4-1.42 1.3-2.08 2-.08.66.03 1.37.03 2.04.2.8 1.2.43 1.8.38 1-.4 1.4.62.6 1.22-.53.67-2.2.32-2.06 1.4.56.06 1.12.04 1.67 0 1.1-.3 2.26-1.07 2.37-2.28.15-1.06 1.67-.87 2.5-1.1 1.04-.3 2.3-.37 2.53.94.7.75 2.25 1.6 3.04.57.8-.5 1.18-1.35 1.13-2.26-.16-.8 1.27-.82 1.63-.38.52.86 2.15.6 2.93.13.83-.63 1-1.72 2.2-1.73 1.8-.54 3.65-.84 5.4-1.5 1.4-.3-.22-1.2-.57-1.72-1.08-.53-2 1.64-3.22.56-.93-.7-.86-2.07-1.2-3.12-.25-1.35-.2-2.92-1.17-4-.67-.7-1.58-.88-2.53-.84zm-6.8 9.47c.1 0 .26.07.5.2.43.24.74.64.74.97 0 .2-.06.22-.38.37-.2.1-.42.2-.5.2-.18 0-.62-.37-.62-.5 0-.07-.06-.3-.13-.48-.1-.32-.1-.32.08-.53.1-.14.18-.22.3-.22zm6.52.35c.37-.02.6.1.75.38.18.33.06.58-.4.78-.2.1-.42.17-.45.17-.03 0-.2-.1-.37-.22-.27-.18-.3-.27-.3-.47-.02-.32.34-.6.77-.63zm-8.94.1c.1-.02.2.04.34.15.18.16.24.28.28.6.04.22.03.5 0 .62-.04.23-.05.22-.56.22-.64 0-.7-.06-.7-.65.02-.4.03-.5.23-.7.16-.16.3-.24.4-.25zm-5.5 1.43a.57.57 0 0 1 .44.44c.06.32 0 .46-.25.6-.22.1-.74.15-.88.06a.6.6 0 0 1-.2-.2c-.06-.1-.05-.17.04-.24.06-.05.12-.12.12-.15 0-.05.07-.18.16-.3a.54.54 0 0 1 .56-.2zm9.25 1.2c.18 0 .33.05.44.15.18.16.18.4-.03.56-.14.1-.87.1-1.13 0-.1-.05-.14-.1-.14-.23 0-.14.03-.23.28-.34.2-.1.4-.16.6-.16zm-17.17 4.8c-.1-.05-.24-.1-.1-.2.18-.3.52-.42.83-.53a3.44 3.44 0 0 0 1.36-1.12c.05-.33.43-.5.43-.86 0-.48.02-.96-.1-1.43-.13-.42-.45-.75-.82-.97-.26-.2-.68-.26-.77-.62-.05-.34.26-.6.37-.9.22-.43.4-.87.65-1.28.26-.3.66-.02.8.26.18.28.35.58.44.9.3.33.57.72.68 1.16.15.3.38.6.37.96 0 .4.25.78.23 1.2 0 .56 0 1.15-.2 1.68-.13.3-.4.47-.6.73-.32.3-.67.58-1.08.74-.3.1-.45.43-.82.35-.5 0-1.03.08-1.54 0 .02.05-.17-.1-.14-.06zm-6.85.46c-.23-.25-.28-.35-.3-.6 0-.25.06-.35.3-.6.43-.43.65-.44 1.4-.06.73.37.97.4 1.04.14.06-.25.47-.48.87-.48a.82.82 0 0 1 .6.2c.25.2.27.23.27.7 0 .45 0 .47-.3.72-.27.25-.3.26-.65.23-.44-.06-.7-.26-.77-.6-.06-.25-.14-.3-.2-.14-.03.05-.14.12-.25.15-.2.06-.55.28-.8.5-.1.1-.25.14-.5.14-.37 0-.42-.02-.7-.3zm-19.8-8.9c-.67 0-1.4.57-1.48 1.22.15.75.78 1.5.38 2.28.27 1-.76 1.4-1.47.8-.43-.96-.65-2.02-1.28-2.9-.8-.22-1.16 1.06-1.72 1.5.28.76 1.1 1.44 1.2 2.38.18.92-.38 1.93-1.17 2.4-.7.66-1.63.43-2.47.57-1.03.6.74.8 1.2.84 1.06.1 2.14-.04 2.9-.82.78-.36.72-1.7 1.64-1.84 1.6-.07 3.16.24 4.75.28.84.2 2.15-.1 2.74.53 0 1.1.94 1.78 1.84 2.2.5.15 1.03-.47 1.53-.58.98-.3.7-1.5 1.26-1.97 1.65-.1 3.32-.07 4.97-.1.32 0 .4-.44.63-.62-.04-.64-.06-1.27-.16-1.9-.32-.8.05-1.85-.53-2.54-.83-.23-1.54.53-2.38.6-.93.4-1.7 1.25-1.76 2.3-.54.9-1.42-.16-1.12-.9-.03-.33.07-.7-.03-1-.52-.62-1.4-.42-2.1-.5-1.02.03-2.02-.2-3.03-.16-.9-.07-1.83.07-2.7-.16-1.02-.03-.88-1.04-1.06-1.75a1.02 1.02 0 0 0-.6-.2zm2 3.7c.33 0 .66.04 1 .08.42.07.88-.15 1.3 0 .98.17 1.96.13 2.94.22.26 0 .45.2.63.35 0 .67 0 1.37 0 2.05-.03.26.07.6-.16.78a.7.7 0 0 1-.24.12c-.27-.07-.56-.24-.7-.5-.03-.35.03-.7.04-1.06 0-.1.04-.25 0-.32a1.25 1.25 0 0 0-.72-.25c-.85-.03-1.68-.1-2.53-.13-.7-.04-1.43.06-2.12-.12-.27-.1-.62-.07-.78-.34-.24-.28.1-.6.34-.72a2.28 2.28 0 0 1 1-.2zm11.27.24c.16 0 .2.05.28.34.05.2.1.42.13.5.03.12-.02.16-.2.22-.48.2-.98.17-1.15-.06-.07-.1.02-.44.16-.56.28-.26.6-.44.77-.44z"/></g><path d="M449.98 327.23c32.64-25.1 29.84-61.88 29.84-61.88-.86.17-1.68.26-2.54.26-6.84 0-23.18-3.9-27-8.9-4.07 4.52-20.76 8.9-27.56 8.9-.86 0-1.72-.08-2.54-.25 0 0-2.84 36.77 29.8 61.88zM477.22 268.04c-.28.02-.56.03-.85.03-6.2 0-20.62-3.2-26.17-7.96-5.82 4.42-20.47 7.97-26.58 7.97a4.7 4.7 0 0 1-.85-.1c0 1.4.06 2.84.15 4.15.32 4.9 1.18 9.82 2.48 14.56 4.1 14.9 12.52 27.55 24.58 37.15 12.06-9.6 20.48-22.28 24.6-37.18 1.3-4.74 2.17-9.65 2.5-14.55.08-1.3.15-2.7.14-4.06z"/><path fill="#c09300" stroke="none" d="M439.38 265.03c-5.87 1.84-12.23 3.03-15.75 3.03-.3 0-.56-.04-.84-.1-.03 1.4.06 2.85.14 4.16a72.77 72.77 0 0 0 2.47 14.53c2.78 10.03 7.52 19.04 13.98 26.8v-48.42zm20.62-.1v49.26c6.8-7.93 11.73-17.22 14.6-27.57a72.95 72.95 0 0 0 2.46-14.53c.1-1.3.17-2.7.16-4.07-.28.02-.56.04-.85.04-3.73 0-10.42-1.17-16.37-3.13z"/><path d="M462.3 253.1c.68.03-.9-3.58-.9-3.58 1.77 1.8 8.44 2.24 8.44 2.24-4-1.77-8-15.1-7.53-25.72.44-10.67-1.52-14.86-3.1-16.43-2-2-8.42-3.76-12.65-4-2.4-.1-2 1.8-2 1.8-4.43-1.13-8.86-1.56-10.86-.22-1.9 1.25-2.3 7.52-.9 6.43 3.32-2.66 6.22-.23 8.22 2.67 1.76 2.55 1.65 9.76-.9 18.2-2.67 8.85-9.96 17.72-9.96 17.72 3.96 0 9.53-3.54 9.53-3.54l-1.35 5.53c4.2-2 7.53-5.1 7.53-5.1l4 4.18c1.33-1.76 4-4.2 4-4.2s3.33 3.54 8.43 4z"/><path fill="none" d="M446.12 227.57s-2.23 16.43-6.43 21.1m9.95-21.53s-.86 16.62-3.76 21.96m6.88-21.3s0 18.2 1.1 21.3m2.86-20.4s.9 15.3 4.67 20.83"/><path fill="#c09300" d="M442.08 219.6c-.2-1.44-.55-2.58-1.06-3.32-2-2.9-4.9-5.33-8.23-2.67 0 0 1.12-3.52 3.56-3.63 1.88-.12 6.15 1.4 9.92 7.84 0 0-2.8-.62-3.45-.03-1.26 1.1-.75 1.84-.75 1.84zM432.44 209.26c.27-.9.7-1.73 1.25-2.08 2-1.33 6.43-.9 10.86.24 0 0-.4-1.92 2-1.8 4.23.23 10.66 2 12.66 4 .47.5 1.02 1.25 1.5 2.38h-.1c-.97-1.37-3.75-1.3-4.42-1.2-1.06.1-1.73.07-3.14.42-.66.16-1.68.35-2.23.78-.43.36-.8 1.65-1.45 1.65-1.06 0-.98-.27-1.26-.6-.35-.42-.55-1.05-.9-1-1.1.2-2.86-.67-5.1-2.44-2.23-1.75-3.1-2.18-6-2-2.86.25-3.76 1.86-3.76 1.86l.08-.2z"/><circle cx="448.824" cy="210.672" r="1.176" stroke="none"/></g></svg>