<svg xmlns="http://www.w3.org/2000/svg" width="640" height="480"><g fill-rule="evenodd"><path fill="#be0027" d="M0 0h640v480H0z"/><path fill="#b4d7f4" d="M0 480l640-.3-.03-239.7L0 480z"/><path fill="#239e46" d="M0 0l640 .3-.03 239.7L0 0z"/><path fill="#f3e295" d="M186.23 360.4c-10.7 2.96-16.85 11.27-16.7 19.1l52.73-.2c.48-8.43-6.45-16.22-17-19.3 51.62-1.06 96.47-20.4 104.62-32.8-8.06-3.5-17.4 2.13-24.04.83 15.8-7.3 63.08-37.9 55.4-70.7-6 18.2-24.1 33.3-31.8 37.34 17.66-26.82 41.78-54.75 20.85-76.37 1.05 12.53-7.97 26.32-11.96 27.36 10.25-28.34 20.03-63.92-2.17-87.38 2.9 8.48 1.74 32.4-2.28 33.47-1.24-19.27-4.53-59.8-24.83-59.23 6.45 5.74 9.27 21.4 9.4 37.22-4.6-10.84-9.87-19-21.1-27-9.1-17.45-25.3-31.9-41.48-42.25 1.8 12.7 3.3 22.7 21.04 35.87-9.24-.57-18.48-18.1-28.36-18.58-7.86-.4-14.03 7.1-26.87 2.8 1.44 4.23 7.43 6.1 8.7 9.24-2.76 1.9-9.3-.3-14.72-3.12 7.47 10.17 19.04 16.15 28.86 14.13 11.68-2.24 24.2-1.06 36.15 5.74-3.06 1.56-14.93 1.55-22.55.6 6.92 7 11.57 11.65 23.6 11.58 10.77-.07 16.4-5.74 19.17-2.23 6.75 8 11.3 15.98 16.93 25.4-12.47 1.37-8.7-14.1-22.6-22.02-7.8 16.15 8.98 35.3 20.4 43.25.15 12.13 1.93 22.3 7.07 31.53 3.47 6.52 7.96 13.2 6.27 27.9-6.85-5-13.53-21.78-11.07-35.1-8.55 2.33-11.9 17.37-7.87 24.95 3.02 5.76 5.03 16.8 1.55 21.73-3.37 4.6-3.73 4.08-3.68 13.94.12 5.9-3.18 12.88-8.55 17.74 1.12-4.15 2.4-11.3 1.16-15.78-4.25 7.2-14.9 14.65-18.25 22.4-3.3 7.75-4.12 21.2-20.06 24.3-20.5 4.06-27.57 7.6-40.76 13-1.47-10 2.9-30.9 11.3-29.7 8.17 1.44 32.97-8.56 24.1-29.45-1.75 6.58-7.6 13-13.92 13.3 6.83-8.86 19-18.04 13.08-32.88-3.3 6.3-8.5 13.88-16.35 18.14 8.43-16.17.98-21-9.04-7.7-3.78 5.14-6.07 15.43-8.47 28.5-3.93-10.63-3.67-24.62-8.34-35.98-4.87-12.3 6.47-15.53 11.8-14.55 13.06 3.5 34.88 3.5 33.26-18.1-5.64 7.3-15.53 9.57-26.2 6.94 11.98-8.75 21.45-25.22 8.1-33.83-.46 9.12-7.52 19.35-16.94 24.06-2.2-7.7-2.2-15.86-.32-24.82-5.26 5.55-9.1 17.08-12.16 30.18-.23-12.95 2.22-22.28 4.04-29.25 2.75-10.18 9.6-3.55 20.08-2.8 10.1.57 23.98-5 21.33-18.7-3.44 5.42-10.5 7.53-17.74 6.96 8.7-5.3 23.86-14.65 15.55-29.06-3.48 5.46-4.62 10.13-14.72 11.8 2.64-6.1 3.08-14.7 10.93-18.1-14-2.8-22 6.4-26.07 20.77-1.65-9.96-3.62-13.63-4-20.93 7.56-8.4 8.35-24.84-8.03-28.52-.97 8.48-.68 10.5 1.18 17.4-7.7-4.56-18.53-7.08-25.74-.62 4.9 5.27 12.45 9.92 24.1 4.16-2.74 9-9.9 7.46-19.75 4.03 6 11.3 13.6 13.3 21.98 12 4.4 11.57 4.58 20.36-8.24 37.2.6-10.46-.15-18.26-8.47-26.73-7.13-6.98-12.92.3-1.78 15.82-6.77-4.97-14.4-15.07-16.72-25.17-2.22 12.47-.22 27.18 6.7 35.42-3.28 3.5-7-.37-12.5-8.9 2.1 27.32 13.75 32.6 29.42 26.5.44 15 .44 28.9 1.33 47-9.13-13.14-20.7-22.94-27.18-25.4-2 7.36 5.58 16.94 9.8 22.3-6.45-1.35-20.5-12.04-20.5-12.04-1.4 12.18 14.35 23.46 24.52 28.5-11.96-.5-17.23-5.04-24.95-12.46.15 33.78 36.6 27.92 43.44 22.72.9 16.62 2.16 35.85 3.05 52.5-10.3-1.8-9.5-4.9-18.3-5.73-24.48-.95-43.9-29.38-50.33-50.3-1.85 3.45-.38 7.05-2.07 11.28-3.97-10.27-9.05-23.52-15.86-29.7 1.73 6 1.92 12.07 1.3 23.26-2.32-7.24-4.5-9.46-4.65-17.97.14-6.53 6.3-11.35 5.95-20.54-.25-6.7-6.37-21.25-7.27-32.5-2.96 11.58-4.82 23.8-9.36 30.96 2.26-12.37 1.53-20.9 5.35-29.23 4.4-8.76 8.15-16.58 5.2-25.43-2.8 3.42-1.83 6.52-8.9 14.82-1.53-9.02 9.14-23.47 19.5-29.28 7.3-3.85 16.5-17.6 10.5-27.05-6.86 4.93-9.94 11.6-19.65 22.98 6.93-27.06 24.9-34.14 46.44-34.23 4.77-.02 14.37-1.74 17.07-8.05-6.07 2.35-13.24 2.64-19.63 1.37 4.65-6.83 14.43-5.94 23.55-5.98 7.16-.04 18.33-1 22.84-11.2-8.74 3.78-22.35 4.56-30.9 1.9 13.6-7.08 34.96-7.84 45.9-17.1-12.47-9.32-43.7 2.17-63.42 15.7 5.5-5.05 14.22-14 19.03-21.2-10.78-5.18-38.06 25.04-47.45 43-8.93 5.04-12.5 12.94-15.97 18.46 4.76-16.08 5.26-27.74 9.23-40.97-30.6 10.52-17.87 67.06-24.53 80.58.8-14.93.15-34.1-6-44-9.42 7.18-10.18 49.5-1.33 84.73-3.2-9.42-9.23-18.22-11.16-29.7-13.95 25.45 8.17 55.46 26.68 79.17-13.93-7.25-27.7-22.86-36.75-35.94 2.5 45.53 50.06 55 57.44 66.18-10.02-4.65-29.18-13.88-37.3-4.2 13.23 3.05 23.78 6.58 32.3 12.15 12.33 15.4 35.7 22.15 76.4 23.85z"/></g></svg>