<svg xmlns="http://www.w3.org/2000/svg" width="640" height="480"><defs><clipPath id="a"><path fill-opacity=".67" d="M-61.3 0h682.66v512H-61.3z"/></clipPath></defs><g fill-rule="evenodd" clip-path="url(#a)" transform="translate(57.48) scale(.94)"><path fill="#ffc621" d="M-238 3.5H799.9v498H-238z"/><path fill="#ef2118" d="M-240 342.5H799.3V512H-240z"/><path fill="#298c08" d="M-238 0H800v180H-238z"/><ellipse cx="534.22" cy="352.97" fill="#006bc6" rx="199.65" transform="matrix(.54 0 0 .54 -25.81 73.95)" ry="199.65"/><path fill="#ffc621" d="M214.25 188.2l-6.43 4.52 23.5 33.02 6.26-4-23.33-33.54zm29.4 77.94L234 259.4l4-12.67-48.13.67-13.93-10.66 65.7-.7 12.17-36.92 6.56 14.93-16.7 52.1zm76.53-70.68l-6.25-4.76-24.38 32.37 5.7 4.77 24.93-32.38zm-65.4 51.6l3.5-11.25 13.28-.02-15.18-45.67 5.96-16.5 20.52 62.42 38.87.46-12.25 10.75-54.7-.18zm90.66 51.16l2.62-7.42-38.3-13.26-2.78 6.9 38.46 13.77zm-69.18-46.42l11.78-.12 4.1 12.64 38.8-28.47 17.54.6-53.1 38.7 11.5 37.13-14-8.36-16.62-52.12zM256.5 353.88l7.88.1.36-40.5-7.42-.45-.8 40.85zm21.96-80.37l3.87 11.14-10.68 7.92 39.36 27.7 5.02 16.8-53.6-37.98-31.52 22.73 3.46-15.9 44.1-32.4zm-103.27 13l2.3 7.5 38.66-12.2-1.88-7.18-39.1 11.88zm83.2-4.02l-9.38 7.12-10.84-7.7-14.15 46-14.44 9.98 19.52-62.73-31.38-22.94 16.22-1.63 44.44 31.9z"/></g></svg>