<svg xmlns="http://www.w3.org/2000/svg" width="640" height="480"><path fill="#68bfe5" d="M0 0v480h640V.08H402.44V0H0z"/><path fill="#fff" d="M420.9 193.24V329.6c0 44.6 80.57 71.07 80.57 71.07s80.58-26.48 80.58-71.08V193.23z"/><path fill="#d21034" d="M490.3 241.15v61.4h-69.4v22.33h69.4v71.54l11.17 4.25 11.17-4.25v-71.54h69.4v-22.34h-69.4v-61.4zM420.9 193.24h161.15v52.65H420.9z"/><g fill="#fff" stroke="#000" stroke-width=".805" transform="translate(-96.907 97.536) scale(.665)"><ellipse cx="798.23" cy="192.212" ry="10.962" rx="13.623"/><ellipse cx="798.23" cy="186.525" ry="6.123" rx="12.114"/><ellipse cx="798.23" cy="198.769" ry="6.123" rx="12.114"/><ellipse cx="798.23" cy="192.213" ry="6.123" rx="12.114"/></g><path fill="#ffd100" stroke="#000" stroke-width=".798" d="M578.06 235.45l-1.32-3.64s-3.6-1.47-3.9-3.38c-.63-5.12-2.46-7.04-5.2-7.77-2.74-.73-4.56.46-4.56.46-.82 1.2-4.94 1.2-7.22 1.3-2.28.08-2.32-1-2.32-1-1.78 0-2.52-1.3-2.52-1.3-1.16-2.3-2.03-3.18-2.6-3.48 2.96.05 5.2-1.32 8.54-4.83 3.65-3.85 6.26-2.36 6.26-2.36-1.77 3.58.6 3.26.6 3.26 4.83-2.46.63-8.67-.83-8.4-1.47.27-1.9-.7-1.9-.7.05 1.1-1.6 1.55-1.6 1.55 1.24-7.1-3-8.98-3-8.98-.64.64-1 1.92-1 1.92-1.2 4.28-5.12 3.64-9.5 1.54-4.4-2.1-16.08 2.2-19.73 3.66-3.66 1.46-10.33 3.74-16.36.36-6-3.38-7.48-2.74-9.85-2.1-2.38.64-6.58 1.65-8.13.82-1.55-.82-3.32-.87-3.32-.87.42-.23-.24-1.22-.24-1.22-1.83-2.46.24-3.97.24-3.97s-3.4.96-2.05 6.76l.62.88s.45 1.82 1.46 2.37l-.03.4s.86-.4 1.13.8c.27 1.18 1.55.1 2.1-.9 0 0-.92 5.28 5.66 6.56 0 0-.74-.82-.47-1.37.28-.56-.82-1.02-.72-1.84.1-.82-1.64-1.18-.27-1.83 1.37-.64 2-1.9 4.93-.18 2.93 1.74 5.2 1.38 5.2 1.38s-1.77-3.66-.8-3.66c1 0 5.4 5.47 7.6 5.2 2.16-.27 6.37-2.74 8.47-1.82 0 0 .18-1.1 8.2-2.47 8.05-1.37 17.97-5.38 21.7-1.87 0 0 .42 2.8 1.97 3.53 0 0-.27 5.75-10.23 2.55l-3.6-.95s-.56-1.75-19.5 3.12c0 0-1.1.4-1.83.94-.74.54-1.74-.28-5.5 1.08-3.73 1.38-17.7 5.94-26.3 4.3v.02c-1.9-.56-3.66-.27-3.74-.57-.1-.36 1 .1 1 .1-.63-.74-.9-.8-.9-.8-7.22-.8-5.94-4.05-5.94-4.05l.36 1c1.2-1.54-.46-5.2-.46-5.2h-.07a3.78 3.78 0 0 0-.07-.32l.6-.4c3.47-2.94 7.5-3.48 7.5-3.48-2.4-2.93-7.42-1.37-7.42-1.37.1-3.55-1.36-7.67-1.36-7.67-4.93.55-7.76 4.66-7.76 4.66-.18-3.66-4.84-5.76-4.84-5.76 1.73 2.1.64 7.12.64 7.12l.18.1c-.3 0-.46 0-.46 0l-.1 1.07-.17-.07s-1.74.64-3.74 5.2c0 0-.22 1.1-1 2.06 0-.13 0-.24 0-.37 0 0-2.25 2.94-7.43 0 0 0-7.05-4.18-9.53-4.03-2.47.15-4.1 1.32-3.94 2 0 0-5.66-.45-7.6 2.8 0 0-4.25 1.55-.6 5.03 0 0 .48 1.5 1.54 2.33 0 0-.15-3.18.62-2.25 0 0 .2.3.58.53.1.45.44 1.7 1.2 2.32l.54-.17c.08-.8.26-1.8.43-2.2h.2c-.03.04-.06.05-.08.07l1 1.55 1.17-.62c.53-.08 1.23.47 1.23.47l1.3-1.1s0 0 0-.02c1.3.22 1.64-2.3 1.64-2.3 1.16.3 2.25-.03 3.18-.6.57 2.1 5.18 4.33 5.18 4.33l.2-.02c-.4.25-.62.44-.62.44 2.1 1.46 6.04 1.1 6.04 1.1-1.65.64-1.42 3.68-1.42 3.68-.96.4-1.05 1.34-1.05 1.34 3.2 1.28 5.38.22 5.38.22.18 1.04-.08 1.15-.08 1.15-1.28 2.73-1.83 5.38-1.83 5.38.03 0 .06.02.1.03-.05.08-.1.15-.13.22 0 0-5.56 1.94-8.04 4.65 0 0-.23-.78-.93-.78-.7 0-2.86-1.8-3.87-2.1-1-.3-2.48.3-2.87-.15-.36-.42-.2-3.6-.87-4.1l-.68-1.94c-.47 1.02-2.4.78-2.4.78-.08.05-.38.27-.8.58-.38.02-.83-.1-.83-.1-.2.03-.4.6-.54 1.13l-.23.17v-.55c-.4.3-1.16-.15-1.47-.15-.15 0-.34.44-.5.9-.78.14-1.83.18-1.83.18-.3.16-.08 2.56-.08 2.56-2.24 1.25-1.16 3.1-1.16 3.1 1.25 6.04 11.55 3.33 12.32 4.1.78.78 2.56.94 3.5.94.92 0 2.08 2.24 3.4 2.47 1.3.25 0-1.77 6.1-3.22 6.1-1.46 8.14-3.97 8.14-3.97 1.9-.35 2.44-2.68 2.58-3.62.02.44.07.9.14 1.46.28 2.1-1.18 2.87-1.18 2.87l5.3-1.58c2.1-.55 1.82-2.38 1.82-2.38 2 5.76 5.66 6.12 5.66 6.12.73-2.2.64-2.83.64-2.83l1.65-.1c.06-1.23-1.03-2.13-1.66-2.56l2.58 1.56 1-.18c0 .92 1.37 1.74 1.37 1.74l.2-1.2c1.18 1.55 3.37 1 3.37 1a7.34 7.34 0 0 0-.2-.85c4.7 2.9 12.16-.8 12.16-.8 2 .47 2.3-.72 2.3-.72 2.27.27 2.8-1.3 2.8-1.3 5.37-.45 9.16-4.27 9.16-4.27 2.64-.2 2.73-2.08 2.73-2.08s2.65.52 5.2-2.67c5.95-8.5 14.82-4.06 14.82-4.06l-5.14.32c-13.43-.1-7.86 9.04-7.86 9.04l.83-.1c1.28.3 5.66 3.76 4.04 6.34-.02.05-.06.1-.1.13-2.72 3.75-7.8.18-9.24-3-1.46-3.18-4.4-2.45-4.4-2.45s-7.57 1.28-4.46 7.3h.1c.07 1.48 1 3.16 3.7 4.82 1.52 2.15 6.5 2.38 10.18 1.58 1.7-.37 10.7-4.24 10.7-4.24.67-1.96 2.9-1.5 4.92-4.34 2-2.84-2.84-3.84-3.93-5.4-1.1-1.55.27-1.27.27-1.27 4.4 2.37 4.76-5.2 4.76-5.2.46 4.37 4.3 5.56 4.3 5.56 2.37-2.37.64-7.2.64-7.2 5.66 10.13 9.1 8.5 9.1 8.5-3.06-1.88-1.52-4.4-1.52-4.4 2.73 10.78 13.97 1.37 13.97 1.37-.54 1.55 0 2.46 1 3.47 1 1 2.2 1.46 1.66 3.3-.54 1.8-5.75 1.45-5.75 1.45s-5.1-.27-4.66 4.02c.26 1 3.64 1.37 4.92 1.1 0 0-.52.1 1.37.36.62.08 1.4.1 2.16.07 2.18-.07 4.5-.44 4.5-.44 2.93-.63 2.47-1.64 2.47-1.64 4.47-.84 4.93-3.85 4.93-3.85z"/><path d="M429.63 216.74s.24-.56.7-.63c.34-.04.76.22 1.2.76l.25-.18c0-.02-1.2-1.76-.73-3 .22-.54.74-.92 1.57-1.1l-.07-.3c-.93.2-1.53.65-1.78 1.3a2.1 2.1 0 0 0-.14.75c0 .6.22 1.2.43 1.68-.27-.16-.53-.23-.78-.2-.46.08-.7.4-.8.62zm140.98 23.93c-3.04.48-7.52.75-7.87-.17-.07-.17-.08-.83 2.42-2.45l-.3-.45c-2.07 1.36-2.9 2.34-2.62 3.1.64 1.65 7.18.7 8.48.5zm-58.36 1.76c-.7-1.06-.38-2.52.93-4.34l-.43-.32c-1.46 2-1.78 3.67-.95 4.94zM508.12 237.84c.06 1.84 1.36 3.55 3.85 5.07l.28-.45c-2.33-1.42-3.54-2.98-3.6-4.63-.1-2.54 2.6-4.5 2.6-4.5l-.3-.45c-.12.1-2.94 2.14-2.83 4.97zm52.05.68c-.84 1.24-.56 2.73-.55 2.8l.53-.1c0-.02-.25-1.35.47-2.4.43-.63 1.12-1.04 2.06-1.22l-.1-.53c-1.1.2-1.9.7-2.4 1.45zM440.9 215.14l-.15-.04-.02.17c0 .02-.24 1.64-.98 2.08-.2.12-.43.14-.68.04l-1.25-.77c-.25-.2-.46-.38-.82-.27a1.8 1.8 0 0 1-.35-1.32c.1-.74.6-1.44 1.53-2.1l-.18-.25c-1 .7-1.55 1.48-1.65 2.3-.1.96.44 1.6.46 1.63l.1.1.1-.06c.27-.12.35-.05.62.2l1.34.8c.35.14.66.1.95-.06.77-.44 1.04-1.77 1.1-2.14 3.24.7 5.85-3.24 5.96-3.4l-.25-.18c-.02.04-2.68 4.08-5.8 3.26zM433.14 214.54c-.16.65-.05 1.3.33 1.9.35.6.7.9 1.07.96.45.06.8-.27 1.13-.57.23-.2.44-.4.62-.4l.27.2.24-.2-.5-.3c-.3-.03-.56.22-.84.48-.28.27-.57.54-.88.5-.26-.04-.55-.3-.85-.8-.33-.55-.43-1.1-.3-1.7.36-1.43 2.1-2.5 2.1-2.5l-.15-.27c-.08.05-1.86 1.14-2.24 2.7zm-4.46 20.65c.15-.57.58-1.05 1.27-1.43-.13 0 .68.68 1.38.6l.45-.24c.2.16 1.4 1.26 1.4 2.65 0 .3-.06.6-.2.9l.3.12c.88-2.1-1.34-3.95-1.36-3.97l-.1-.07-.12.1-.4.2c-.57.07-1.32-.54-1.32-.54-.94.4-1.42.95-1.6 1.6zm10.32-5.36c-.66.06-2.52.4-3.13 1.38-.22.35-.25.74-.1 1.15l.25.65c.58 1.56 1.18 3.17 1.84 3.53l.15-.26c-.55-.32-1.16-1.95-1.7-3.38l-.23-.65c-.13-.33-.1-.62.06-.9.5-.78 2.17-1.16 2.9-1.22.43-.04.57 1.54.65 2.48l.3-.03c-.12-1.4-.25-2.82-.98-2.76zM433.9 231.37c-.4.35-.3.88-.3.9 0 .15.17 4.04 2.02 4.84l.12-.27c-1.67-.73-1.84-4.55-1.84-4.6 0 0-.05-.4.2-.63.3-.25.85-.27 1.62-.06l.08-.3c-.9-.24-1.53-.2-1.9.13zM432.44 231.7c-.8.56-.78 2.18-.78 2.25h.3c0-.02-.03-1.53.66-2 .25-.18.6-.2 1-.03l.1-.28c-.5-.2-.93-.2-1.28.05z"/><g transform="translate(-96.907 97.536) scale(.665)"><path d="M862.33 169.5c.02.03 1.3 2.94 1.3 5.3 0 .4-.2.7-.28 1.08-.05-.14-.5-1.37-.5-1.37l-.4 1c0 .05-.52 1.38.4 2.88 1.2 1.98 4.18 3.24 8.87 3.76 0 0 .06.05.07.06-.2.03-.35.08-.4.13l-.18.16.02.4c.12.47.68.5 1.78.54.2 0 .5.05.7.07.28.08.57.16.57.16l-.1-.1c1.06.06 2.27.33 3.57.82-.3.07-1 .25-1 .25l1.17.46c.1.02 8.65 3.46 12.2 6.3-1 .86-5.3 4.07-12.74 2.24l-1.25-.3.84.96c.05.05 4.9 5.6 5.9 8.98-1.7.02-8.2-.04-10.46-1.97l-.6.54c.04.05 3.13 4.58 3.82 8.1-.9.12-3 .2-4.26-1.43l-.57-.74-.32 2.04c-.6-.46-1.35-1.14-1.35-1.87v-.48l-1.84.34-3.75-2.3a7.97 7.97 0 0 0-.6-.36s-.04-.02-.04-.02l-.02-.02-.4.7s.46.27.6.35c.8.53 2.17 1.67 2.3 3.2-.58.03-2.43.13-2.43.13l.04.42v.07c0 .25-.1 1.3-.86 3.68-1.15-.28-5.37-1.74-7.85-8.87l-.8.2s.02.1.02.25c0 .65-.23 2.28-2.46 2.86 0 0-4.15 1.24-6.45 1.93.44-.62.83-1.46.83-2.68 0-.26-.02-.54-.05-.84-.14-1.03-.22-1.9-.22-2.6 0-1.5.36-2.4 1.4-3.04l-.36-.72c-.1.04-9.62 3.82-14.34 2.25.22-.93 1.02-4.17 2.63-7.62l-.22.2c.3-.14.63-.62.36-2.17l-.08-.52-.5.23c-.02.03-3.04 1.38-7.4-.22.1-.36.32-1 1.23-1.38l.26-.1-.03-.3s0-.22 0-.53c0-1.18.18-3.94 1.87-4.6l-.18-.78c-.05 0-5.16.4-8.25-1.32.8-.56 2.52-1.6 4.5-1.88l.32-.04v-.32c.02-.02.02-.1.02-.26 0-.4-.15-1.22-.5-2.04 1.17.33 2.58.62 3.08.25l.17-.14-.14-3.1-.8.04.12 2.56c-.5.03-1.8-.23-3.04-.62l-1.22-.4.8 1.03c.64.83.72 1.86.73 2.33-2.78.52-4.97 2.25-5.06 2.33l-.4.34.43.3c2.4 1.67 6.15 1.82 8.08 1.77-1.14 1.28-1.33 3.43-1.33 4.5 0 .22 0 .27 0 .38-1.35.74-1.56 2.12-1.57 2.18l-.03.3.28.12c4.13 1.64 6.94.85 7.9.5 0 .13.04.3.04.4 0 .37-.07.48-.07.48-2.03 4.25-2.88 8.3-2.9 8.33l-.06.33.33.13c3.83 1.52 10.7-.57 13.75-1.65-.4.7-.63 1.47-.63 2.43 0 .8.1 1.72.23 2.73.03.27.05.5.05.74 0 2.28-1.54 3.14-1.62 3.18l.32.74 7.95-2.4c1.84-.47 2.54-1.56 2.83-2.48 3.14 7.44 8.06 8.1 8.28 8.14l.32.03.1-.3c.77-2.3.95-3.45.98-4.02a439.55 439.55 0 0 0 2.46-.13l.02-.36c0-.06 0-.12 0-.18 0-.66-.2-1.24-.48-1.76.5.3 1.37.83 1.37.83l1.32-.24c.35 1.32 1.93 2.36 2.13 2.5l.5.3s.2-1.22.28-1.74c1.96 1.75 4.75 1.23 4.88 1.2l.36-.1-.06-.35c-.4-2.68-2.2-5.87-3.26-7.58 3.5 1.58 9.85 1.47 10.16 1.46l.48-.02-.1-.46c-.56-2.83-4.1-7.28-5.57-9.04 8.2 1.54 12.6-2.72 12.8-2.9l.3-.32-.33-.28c-2.76-2.4-9.1-5.2-11.67-6.25l.9-.22-.9-.5c-2.12-1.2-4.38-1.34-5.9-1.4l-.02-.02c-.97-1.1-1.46-1.3-1.6-1.32-5.54-.6-7.57-2.16-8.3-3.36-.07-.1-.04-.17-.08-.26.12-.16.24-.32.24-.32.55-.7.74-1.63.74-2.62 0-2.55-1.3-5.46-1.37-5.62l-.74.33zM836.8 167.86c-.02.08-.6 3.12-3.2 4.54-1.94 1.07-4.52 1-7.64-.26l-.35-.14.05.37c0 .08.2 1.87 1.9 3.18 1.4 1.1 3.4 1.47 5.92 1.2-.84 1-3.54 4.45-3.54 7.8 0 .17 0 .35.02.53.35.24 4.58 1.4 6.55-1.12.07 1.08.38 4.52 1.72 5.87.74.73.9 1.8.9 2.66 0 .76-.13 1.36-.13 1.37l-.17.6.52-.36c.16-.1 4.05-2.96 5.3-6.7 0 0 .62-.94 1.82-1.32-.02.16-.04.33-.04.56 0 1.44.63 4.06 4.83 5.67l.35.14-.02-.36a7.13 7.13 0 0 1-.03-.73c0-1.05.14-3 1.15-4 .66-.66.86-1.4.86-2.05 0-.5-.1-.9-.23-1.22.85.22 2.86.87 3.67 2.4 1.2 2.22 5.34.45 5.52.37l-.14-.43c-.02 0-1.75.4-2.84-.36-.48-.33-.77-.84-.87-1.5l-.2-2.32c-.03-1.05-.18-1.7-.7-2.27.55-.05 1.65-.03 2.1 1 .75 1.6 3.27 1.77 3.37 1.78l.86.05-.72-.47c-.03-.02-2.2-1.46-1.82-3.34l.3-1.38c.6-2.48 1.6-6.64.8-9.2l-.45.15c.2.64.3 1.4.3 2.2 0 2.26-.65 4.94-1.08 6.74l-.32 1.4a2.6 2.6 0 0 0-.05.54c0 1.22.8 2.15 1.4 2.7-.73-.15-1.76-.5-2.14-1.36-.6-1.33-2.22-1.4-3-1.23l-.54.1.46.3c.73.5.75 1.07.8 2.3l.2 2.36c.1.82.47 1.43 1.06 1.84.5.35 1.12.4 1.67.44-1.24.32-2.93.52-3.54-.62-1.13-2.13-4.28-2.7-4.4-2.73l-.5-.08.25.42c.03.04.36.65.36 1.42 0 .54-.16 1.16-.72 1.73-1.12 1.12-1.3 3.16-1.3 4.3 0 .2.02.24.02.38-3.6-1.5-4.23-3.74-4.23-5 0-.55.1-.9.12-.95l.1-.36-.37.06c-1.75.28-2.47 1.7-2.5 1.77-1 3-3.7 5.36-4.7 6.14a6.88 6.88 0 0 0 .07-.9c0-.93-.2-2.12-1.05-2.97-1.43-1.43-1.62-5.97-1.62-6.02l-.03-.82-.4.72c-1.58 2.83-6.2 1.47-6.25 1.46-.2-3.58 3.87-8.16 3.9-8.2l.44-.48-.64.1c-2.65.37-4.7.02-6.12-1.07a4.63 4.63 0 0 1-1.65-2.5c3.07 1.14 5.65 1.2 7.64.1 2.77-1.53 3.38-4.67 3.4-4.8 2.92-6.6 5.46-7.65 5.5-7.66l-.17-.43c-.12.05-2.74 1.08-5.77 7.96zM843.45 158.07h-.2l-2.36 3.25.7.07c12.82 1.23 19.6 8.97 19.67 9.05l.3.35 2.33-2.53-.17-.26c-6.5-10.23-20.14-9.93-20.28-9.93zm.22.8c1.6 0 13.27.37 19.2 9.33-.3.32-.95 1.02-1.3 1.4-1.38-1.44-7.95-7.58-19.23-8.9a631.23 631.23 0 0 1 1.33-1.83zM841.6 164.84c-1.1 1.5-2.1 3.7-2.1 4.74 0 .2.02.36.1.45 0 0 .05.02.07.03-1.34 1.2-2.13 3.2-2.13 5.46 0 1.24.22 2.54.68 3.77l.25.7c1.26 3.4 2.35 6.37 7.8 4.63 5.24-1.68 5.44-2 6.76-4.2l.35-.55c.72-1.17 1.5-1.4 2.34-1.66 1-.3 2.03-.6 2.94-2.4l.88-1.32c.96-1.3 2.15-2.94 2.3-5.02l-.47-.03c-.13 1.95-1.28 3.5-2.2 4.78l-.92 1.38c-.82 1.63-1.7 1.9-2.66 2.18-.9.26-1.8.53-2.62 1.85l-.35.57c-1.27 2.1-1.43 2.37-6.5 4-5.03 1.6-5.95-.9-7.23-4.37l-.25-.7c-1.43-3.82-.3-7.67 1.55-9.05l.64-.48-.9.1c0-.03 0-.07 0-.13 0-.62.67-2.6 2.03-4.46 1.16-1.57 3.9-3.13 3.92-3.15l-.24-.4c-.12.07-2.85 1.63-4.06 3.3zM839.16 178.65c.9.62 2.17.58 3.7 0 0 .54.12 1.7 1.07 2.54 1.12.98 2.96 1.17 5.5.56l-.1-.44c-2.38.56-4.1.4-5.1-.47-1.07-.95-.92-2.45-.9-2.47l.03-.4-.37.17c-1.54.66-2.75.7-3.58.12-1.5-1.04-1.38-3.75-1.38-3.8h-.46c0 .12-.13 3 1.58 4.18zM842.07 175c-.66.15-.83.7-.83 1.12 0 .1 0 .2.03.28.1 1.18 1.4 1.97 2.56 2.3 1.13.33 2.53.36 3.08-.35.23-.28.4-.8-.1-1.6-1.74-3-4.57-1.82-4.73-1.76zm1.9 3.26c-1.03-.3-2.15-.95-2.24-1.93-.03-.1-.14-.75.44-.9h.05c.1-.05 2.6-1.14 4.2 1.54.27.48.32.85.12 1.1-.34.44-1.45.52-2.58.2zM842 175s.05 0 .05 0h-.05zm1.63 5.98c-.3 2.5-.1 2.57.07 2.63l.16.06.18-.2 1.45-1.93-1.82-.87-.03.32zm.42.38l.74.34c-.2.26-.56.75-.84 1.1 0-.36.06-.9.1-1.44zm-4.2-2.4l-.1 2.38 2-2.42-1.9-.2v.24zm.44.27l.56.06c-.2.22-.32.38-.58.7.02-.38.02-.58.03-.77zM838.53 178.2c.02.03 1.48 2.9 1.75 3.95.16.66 1 1.42 2.02 1.8 1 .37 1.96.3 2.66-.18l1.33-1.1c.43-.43.57-.55.93-.48l.08-.47c-.6-.1-.9.18-1.33.6l-1.27 1.06c-.78.54-1.74.3-2.24.1-.95-.34-1.63-1-1.74-1.47-.28-1.1-1.72-3.92-1.78-4.04l-.4.2zm1.9-8.6c-1.6.75-2.3 2.7-2.32 2.8l.44.15c0-.02.66-1.87 2.1-2.53.7-.33 1.48-.3 2.34.02l.17-.42c-.98-.4-1.9-.4-2.7-.02zm10.9 5.16c.13.1 3.2 2.4 1.43 5.24l.4.25c1.97-3.2-1.52-5.83-1.56-5.86l-.27.36zm-9.2.45s-.48 1.74 1.96 2.35c0 0-2.3-.02-2.45-.6-.15-.6.02-1.9.48-1.74zm7.44 2.08c0 .15-.12.27-.27.27a.28.28 0 0 1-.27-.27c0-.15.12-.27.27-.27.15 0 .27.13.27.28zm.27 1.08c0 .15-.12.27-.27.27a.27.27 0 0 1-.27-.27.27.27 0 0 1 .27-.27c.15 0 .27.1.27.26z"/><circle cx="848.01" cy="177.825" r=".27"/><path d="M848.75 179.45a.27.27 0 1 1-.54 0c0-.15.13-.28.28-.28.15 0 .27.13.27.28zm-7.1-7.32a.27.27 0 0 1-.55 0c0-.15.13-.27.27-.27.16 0 .28.12.28.27z"/><circle cx="841.65" cy="173.22" r=".27"/><circle cx="840.09" cy="172.68" r=".27"/><path d="M840.83 174.3a.28.28 0 0 1-.28.27.27.27 0 0 1 0-.54.28.28 0 0 1 .28.27zm4.74-9.55s3.52 2.17.13 6.23c0 0 1.67-1.24 1.84-3.36.18-2.13-1.2-3.82-1.97-2.87zm13.5 5.84c-1.13.57-2.76-.5-3.58-1.52-.82-1.02-2.5-1.28-3.56.58-1.05 1.86-2.56 2.56-2.56 2.56s1.48-.87 3-2.5c1.5-1.63 2.38-.32 3.87.46 1.48.8 1.72.96 2.76.55l.07-.14zM858.78 170.86c-.46.35-1.3.64-2.2-.1-.9-.72-1.67-1.7-2.8-1.12-1.14.58-3.3 2.2-3.3 2.2s3.5-2.4 4.17-1.88c.67.52 2.24 1.8 3.2 1.43.96-.4.93-.54.93-.54zM856.1 172.34c-1.1-.84-2.2 1-3.14.76-.93-.24-1.7-1.78-1.7-1.78s.88 1.63 2.1 1.25c1.23-.37 2.07-1.13 2.83-.55.74.58-.1.32-.1.32zM854.37 172.57c-2.18.23-2.4-1.8-2.4-1.83 0 0 .7 1.78 2.62 1.45l-.23.37zM854.3 171.18c.14.55.1.8-.47.8-.6 0-1-.2-1-.76 0-.57 1.38-.4 1.47-.04zm-7.84-3.03c0 .38-.3.7-.7.7-.4 0-.46-.27-.46-.65s.07-.73.46-.73c.4 0 .7.3.7.68zM844.05 165.7s3.74.05 1.9 4.73c0 0 1.4-2.33.52-4-.9-1.68-2.3-1.26-2.3-1.26s-.35.32-.12.54zM843.94 167.58c0 .94.62 1.9 1.86 2.88l.28-.36c-1.12-.88-1.7-1.72-1.68-2.5 0-.8.6-1.26.62-1.27l-.28-.37c-.03.03-.8.6-.8 1.62zM844.77 168.37c.16.54.58.95 1.24 1.2l.18-.4c-.52-.22-.85-.53-.97-.93-.23-.8.4-1.72.42-1.73l-.37-.26c-.04.05-.78 1.12-.48 2.13zm5.13 2.6s.7 1.5-.32 3.14c-1.02 1.64-1 1.56-1 1.56s1.23-2.24.77-3.18c-.47-.93.55-1.5.55-1.5zm14.55 15.8c3.84.7 12.5 7.5 12.6 7.58l.5-.64c-.37-.27-8.92-6.97-12.95-7.73l-.15.8zm3.4 9.58c.27 3.4 3.98 5.53 4.14 5.6l.38-.7c-.04 0-3.5-1.98-3.72-4.96l-.8.05zm-9.2.7c0 3.83 3.58 8.46 3.74 8.66l.62-.5c-.03-.03-3.57-4.6-3.57-8.14h-.8zm-12.15.44c.63 1.25.57 1.9.4 2.2-.2.36-.58.4-.6.42l.1.8c.3-.04.9-.24 1.2-.82.4-.7.26-1.7-.38-2.96l-.72.35z"/></g><g fill="#fff" stroke="#000" stroke-width=".36"><path d="M429.57 216.3s.15 1.7 1.47 2.7c0 0-.15-1.85.23-2.62 0 0-.7-.78-1.7-.08zm2.63 1.08s.3 1.55 1.24 2.25l.54-.16s.23-1.93.54-2.16c.3-.23-1.3.7-2.32.08zM434.52 217.3l1 1.55 1.17-.62-.24-1.85s-.7-.16-1.94.92zM439.24 217.62l-1.3 1.08s-.7-.54-1.25-.46l.22-1.7s.93-.7 2.32 1.08zm-9.36 16.02s-.23-2.4.08-2.56c0 0 .92.3 1.3-.07 0 0 .55 1.94.4 2.72-.16.77-1.1.46-1.78-.08zm5.96-2.48s-.08-2 .3-2.25c0 0 1.94.25 2.4-.76l.7 1.94s-2.16-.24-3.4 1.08zM433.75 231.55s.4-2.1.78-2.17c0 0 1 .3 1.3-.08l-.06 2.56s.07-1.1-2.02-.3zm-2.24.3s.47-1.85.78-1.85 1.08.46 1.47.15v1.4s-1.7-.4-1.94 1.93l-.3-1.62z"/></g><g fill="#00a651" stroke="#000" stroke-width=".78"><path d="M461.68 270.4s5.26 4.9 3.9 9.15c0 0 3.37-7.27-.26-9.4-3.64-2.13-3.76-.5-3.64.25z"/><path fill="#964b36" d="M455.04 275.15s-1.38 1.9.13 3.27c0 0-1.63 2.37-.38 4.38 0 0-1 2.13-.76 4.4 0 0-.88 3.5 1 5.13 0 0 2 1 2.9.12 0 0 1.74-2.63.6-5.4 0 0 1.26-2.24-.1-5.13 0 0 .36-1.63-.77-3.5 0 0 .76-1.26.13-2.26 0 0-2.5-2.63-2.76-1z"/><path d="M456.54 269.02S450.28 257 445.9 256.5c-4.4-.52-4.64-4.77-4.64-4.77s.5 2 4 2 10.28 4.9 11.03 8.64c.74 3.76 1.5 3.26 1.5 3.26l-1.26 3.4zM456.54 268.14s2.26-15.16 12.16-15.4c9.9-.27 6.64.74 9.02-.9 0 0-6.64 3.52-10.77 4.02-4.14.5-7.52 8.52-7.4 10.02.13 1.5-2.25 4.4-3.38 3.4-1.13-1.02.37-1.14.37-1.14zM458.8 273.78s2.25-6 6.14-4c0 0-3-5.77-8.4-.76 0 0 2.38 3.26 2.26 4.76zm-7.52-6.02s3.26 13.4-1.76 17.54c0 0 .13-6.88-2.88-11.02-3-4.14 3-8.65 4.64-6.52zM451.66 270.15s5.9 5.64 6.26 7.52c.38 1.88 1.76-5.64-1-7.77s-5.76-2.5-5.76-2.5l.5 2.75z"/><path fill="#964b36" d="M440.8 284.93s.53 2.37 1.98 2.82c0 0 .08 1.76 1.38 2.3 0 0-.7 1.45.46 2.36 0 0-.24 2.92.83 3.53 0 0 2.6-.15 3.52-.92 0 0 .53-1.9-.92-3.8 0 0 .23-1.84-1.22-2.83 0 0 .46-2.45-1.38-3.37 0 0-.3-2-1.45-2.98 0 0-2.2 3.13-3.2 2.9z"/><path d="M443.7 282.02s-7.72-2.82-12 1.23c0 0 6.57.9 7.4 2.2.85 1.3 4.9-2.13 4.6-3.43zM441.32 286.84s-.6-.54-1.37-1.07c-.76-.54-7.26-2.3-8.18 3.97 0 0-2.37-6.2 1.07-7.03 3.44-.83 6.2 1.16 8.48 4.14m-5.07-12.8s2.37 5.13 3.25 5.38c.88.25 1.5-.62 1.5-.62s-3.13-4.64-4.76-4.77zm-1.76-7.9s-2.02-6.64-4.4-4.9c-2.38 1.77-1.75 6.53-1.75 6.53s-4.76-4.9-2-8.77c2.75-3.9 8.14.37 8.14 7.14z"/><path fill="#964b36" d="M439.88 279.8s0 1.25.88 1.62c.88.38 2.5 1 2.5.25s-1.25-3.63-1.75-3.25c-.5.37-1.37.37-1.62 1.38z"/><path d="M438.38 272.03s-.25-5.76 3.5-7.9c0 0 .76.13 1.14-1 0 0-3 7.27-2.14 10.9l-.12.5"/><path d="M439.13 265s6.77-14.03 15.04-9.14c0 0-8.65 1.75-11.78 7.9l-3.14 4.63-.13-3.4zM435.5 270.15s-2-9.4-3.26-10.65c-1.26-1.25-3.4-2.63-5.9-.5 0 0 4.4-3.9 9.03-.63 4.63 3.26 3.63 8.4 3.63 8.4l-.5 6.5-3.13-2.87"/><path d="M442.76 281.3s-8.27-15.66-13.66-4.5c0 0-1 2.87.13 4 0 0-3-2.26-1.63-7.77 1.37-5.5 10.52-3 13.16 1.5 2.63 4.5 3.38 6.77 3 7.02-.37.25-1-.25-1-.25zm23.3 4.5s6.03-12.4 9.54-6.76c0 0 1 2.76-.5 3.9 0 0-2.4-2.9-4.52.62-2.13 3.5-1.25 3.25-1.25 3.25s-2.26.64-3.26-1zM475.1 282.93s3.24 1.75 2.12 5.26c0 0 4.38-8.4-1.63-9.16 0 0 1.12 2.63-.5 3.9zm.37-8.52s7.9 2.26 8.14 5.65c0 0 1.4-6.52-3.12-8.52 0 0-5.4.88-5 2.88zM478.98 264c3.38-6.64 7.64 2.13 7.64 2.13s1.5-6.9-2.76-8.14c-4.26-1.26-7 14.65-7 14.65l-5.03 1.13s1.38-13.9 8.9-15.16l.88.12"/><path d="M472.96 268s-4.76-9.76-8.02-10.76 1.76-2.5 3.76-.63c2 1.9 5.76 4.27 5.4 9.28l-1.14 2.13zm-4.9 13.42s1.4-6.64 5.15-8.64c3.77-2 7.28-1.25 7.28-1.25s-4.52 1-5.27 3.25c-.74 2.26-2 2.38-2 2.38l-5.13 4.26z"/><path fill="#964b36" d="M466.07 285.8s-2.13 4.02-1.63 4.65c0 0-2.25 3.26-1.38 4.88 0 0 2.26 1.76 3.26 1 0 0 2.63-3.63 1.88-5.63 0 0 1.75-2.38 1.13-3.88 0 0-2.63.12-3.26-1z"/><path fill="#000" stroke="none" d="M455.05 278.65c.14.07 1.4.7 2.26.4l.6-.52-.46-.23c-.32.62-1.7.1-2.15-.12l-.25.47zm-.2 3.9l-.1.52c.1.02 2.64.5 3.85-.57l-.36-.4c-1 .9-3.37.45-3.4.44zm-.65 4.42l-.32.43c.03.02 3 2.13 4.88-.17l-.42-.34c-1.57 1.9-4.04.15-4.14.07zm-11.48.64l.1.3c.12-.05 2.62-1.06 2.78-2.9h-.3c-.15 1.63-2.55 2.6-2.58 2.6zm1.42 2.3l.02.3c.1 0 2.4-.18 2.8-1.8l-.3-.07c-.34 1.4-2.5 1.56-2.52 1.56zm.48 2.36l-.02.3c.1 0 2.7.15 3.58-1.3l-.26-.15c-.8 1.3-3.28 1.16-3.3 1.16zm19.63-1.62c.05.05 1.16 1.15 2.47 1.1.63-.02 1.2-.32 1.68-.87l-.4-.35c-.38.44-.82.67-1.3.7-1.07.03-2.06-.95-2.07-.96l-.38.38z"/></g><g fill="#964b36" stroke="#000" stroke-width=".279"><path d="M542.07 299.8a1.1 1.1 0 0 0-.4.27l.4-.27zm9.2-2.3c-.08-.24-.14-.14-.26-.24-.15-.14-.25-.58-.4-.75-.1-.1-.2 0-.28-.02-.22-.47-.47-.97-.7-1.43a.4.4 0 0 0 .06-.2 7.6 7.6 0 0 0-.1-.4c-.07-.1-.18-.05-.24-.2-.07-.17-.02-.48-.04-.66-.02-.17-.08-.25-.07-.47 0-.2.1-.4.1-.57 0-.1-.13-.34-.17-.43-.14-.36-.27-.7-.3-1.14 0-.4.08-.65.1-1 .04-.4-.18-.62-.18-1 0-.3.13-.62.16-.9.05-.35.06-.87.03-1.24-.03-.35-.13-.57-.08-.96 0-.1.06-.18.07-.3 0-.1 0-.2 0-.3v-.57c0-.2 0-.4 0-.58-.02-.15-.1-.3-.1-.42 0-.2.12-.3.1-.58-.02-.2-.05-.24-.1-.4-.1-.34-.03-.67-.08-1.02-.03-.17-.1-.23-.1-.42-.03-.2.04-.3.07-.45.02-.16.04-.37.02-.54-.03-.2-.13-.34-.1-.56l-.08 2.52c-.06-2.2-.15-4.23-.15-4.23l-3.33-1.57s-.3 6.13-.2 6.98c.05.86.34 6.7.2 7.4-.15.73-.5 4.3-.5 4.3s-1.63 1.13-2.27 2.4c-.64 1.3-.5 1.72-.7 1.72l1.57-.25-1.18.8a.72.72 0 0 1 .74.1c.03.03.2.2.23.2.06 0 .14-.17.22-.2.25-.08.45.38.7.34.1-.02.28-.15.38-.28.1-.12.12-.3.2-.4.1-.06.3.02.37.02.24 0 .47 0 .7 0 .32 0 .57-.44.86-.7.26-.22.46-.3.74-.28.3.02.6.32.9.33.25.02.42.05.6-.2.15-.18.24-.44.37-.63l.8-.12c.14.07.3.14.44.13.2 0 .42-.02.62 0 .07.02.22.2.3.16.03-.04.1-.28.14-.35-.02-.1-.04-.33-.08-.4zM544.53 299.7c.2 0 .4-.06.56.1l.06.14a.17.17 0 0 0 .17.03c.1.07.14.12.26.14.1.04.23 0 .35 0 .15.02.22.07.35.12.24.1.4 0 .6-.14.24-.18.33-.04.56.18.17.16.14.15.3.04 0-.06.04-.1.07-.15.07-.03.15-.06.23-.07.13-.06.25-.05.37-.1.13-.05.22-.2.36-.16.1.02.24.1.35.15a.75.75 0 0 1 .24.12c.15-.34.5-.44.72-.6.24-.15.45.04.7.04.15 0 .2-.08.3-.1.1-.05.23 0 .34-.03.1-.03.13-.14.25-.15.24-.03.5.34.72.4.12.05.7.18.62-.25-.08-.4-.45-.13-.53-.42-.03-.16.06-.4 0-.58-.04-.17-.22-.36-.33-.4-.14-.04-.22.1-.34 0-.1-.1-.14-.44-.22-.57-.1.08-.18.16-.33.13-.17-.05-.15-.1-.28-.27-.3-.35-.45.2-.7.1-.2-.05-.38-.54-.53-.74-.08-.1-.3-.45-.43-.37-.2.12-.02.5-.12.66-.07.1-.34 0-.43 0-.16.05-.2.1-.3.27-.22.36-.35.65-.7.6-.15 0-.27-.18-.43-.12-.17.08-.26.26-.45.28a.98.98 0 0 1-.42-.04c-.13-.05-.27-.3-.4-.36a.15.15 0 0 0-.15-.03 8.66 8.66 0 0 0-.2-.1c-.2-.07-.18-.07-.27.2-.05.17-.06.35-.13.5-.06.14-.2.3-.26.4-.16.15-.23.1-.4.17-.16.05-.36.28-.44-.02-.12-.45.33-1.13-.18-1-.13.02-.2.04-.3.24-.08.22 0 .37-.04.6-.06.32-.65.84-.53 1.12.1.2.35-.1.42-.06.12.1.1.28.17.42.17.27.7-.43.73-.05m-2.14-2.7c0-.05-.02-.1-.02-.13-.14-.02-.3-.17-.43-.17-.12 0-.36.3-.45.43-.25.43-.18 1-.62 1-.1 0-.35-.07-.45 0-.16.1-.06.45-.06.68 0 .22.1 0 0 .3-.05.07-.15.1-.18.2-.1.37.2.25.35.25.35 0 .7 0 1.04 0 .2 0 .33-.07.53-.15.13-.04.4-.04.5-.16a2.2 2.2 0 0 0 .2-.4c.02-.15-.03-.32 0-.44.06-.2.25-.13.28-.42.1-.7-.64-.17-.53-.86"/></g><g stroke="#000" stroke-width=".519"><path d="M550.8 277.9c0 .9-.6 1.63-1.37 1.63-.76 0-1.38-.73-1.38-1.63 0-.9.62-1.63 1.38-1.63.76 0 1.38.73 1.38 1.63zm-4.5-2c0 .9-.62 1.62-1.38 1.62s-1.38-.73-1.38-1.63c0-.9.62-1.64 1.38-1.64s1.38.73 1.38 1.63zM548.68 276.52c0 .9-.62 1.62-1.38 1.62-.76 0-1.38-.72-1.38-1.62 0-.9.62-1.63 1.38-1.63.76 0 1.38.72 1.38 1.62zM546.37 278c0 .9-.62 1.64-1.38 1.64-.77 0-1.38-.73-1.38-1.63 0-.9.6-1.62 1.37-1.62.75 0 1.37.73 1.37 1.63zM548.5 279.25c0 .9-.6 1.63-1.37 1.63-.76 0-1.38-.73-1.38-1.63 0-.9.62-1.63 1.38-1.63.76 0 1.38.73 1.38 1.63z"/></g><path fill="#00a651" stroke="#000" stroke-width=".519" d="M549.18 261.48s13.9-19.42 28.82.75c0 0 .12 2-1.25 4.14l-.38-1.63-.88.25-.26-1-1.63-.14.5-2.13-1.74 1.38.25-1.5-2 2 .26-4.25-2.14 3.63.25-2.5-.75 1.13-.45-1.46-.67 1.47-1-.75v1l-1.76-1.5-.62 2-.88-2.12-.25 1.5-.9-1.75-.1 1.88-2.9-1.26.63 1.76-1.38-1 .25 1-1.88-.38.13 1.13-2-.37.37 1-2.76-.37 1 1.13-.28.45s15.07-4.97 16.07 13.82l-2.76 1.38.75-1.5-.76-.5-2.26-1.75.63-2.4-.75.26-.13-1.37-.4.24-.87-1.38-.25.5-.62-1.63-.63 1.13-.38-2.76-1 1.76-.12-1-.38.62-1.25-1.5-.38 1-.5-.75-.37.88-1.38-1.25v1l-.88-.75-.4.5-2.1-1.12-.14 1-1.13-1-.38 1s13.67 7.77 9.4 20.42l-.75 1.63-.25-4.26-1.25 2.26.87-4.9-.87.9-.13-1.9-1.12 1.9-.4-2.14-.48.6-.76-3.25-.62 1.38-1-3.63-.75 1.5-.5-3.13-.5 1.88-1.5-2.76-.25 1.12-.88-2.25-.5.75s-2.5-.13-3.26-.75c-.75-.63-2.88 3.76-2.88 3.76l.25-2.63-.87 1.75v-1.75l-1.63 5.26-.37-3.76-.88 3.26-.38-1-.25 1.38-.5-.5-.44 1.47-.82-.6v2l-.75-1-.6 3.02-.4-1.25v1.37l-.6-.74-.64 3-.88-1.25-.12 2.13.37 1.63-1-.5.38 2.63s-3.88-7.26.76-14.28c4.63-7 10.9-8.9 10.9-8.9l-.63-.62-.12-.63-3.75 1.88.12-1.13-1 .88-.25-1.25-.63 1.13-.13-.5-.88 1.38-.5-2-.64 2.38-.6-1.67-1.28 3.54V270l-1 2.76-.37-3-.74 3.5v-3.13l-1.13 3.13-.76-3-.5 2.88-.75-2.25-.75 3.37-1.13-3-.62 4.5-.75-1.75-.13 3.25-.88-2 .88 4.26-1.13-1.63.4 2.63-1.64-2.88.12 3.4-.87-1.14-.37 1.26s-.37-13.03 8.52-15.54c8.9-2.5 14.66.75 14.66.75l-3.37-2.75.38-.88h-1.25l.5-1-2.63.12.75-1-2 .25v-.62l-1.25 1 .5-1.12-1.76 1.12-.1-1.66-.9 1.42-.5-1.5-4 4 1.12-4.14-.75.88-.13-.88-1.13 1.76-.25-1.25-.5 1.5-.38-1.74-.87 1.75-.88-1.62-.38 2.13-.63-1.12-.76 1.63-1-1-.13 1-2-.86.5 1.5-1.5-1.25-.38 2-.87-1-.63 2.5-.62-2.4-.63 1.9s7.84-20.14 27.66-7c0 0 2.16 2.1 2.66 3.6s.12.26.12.26l-.38-13.9.75 6 .5-2.12-.13 3.13 2-4.4s-2.38 7.28-1.5 9.9c0 0 .88-8.38 3.9-9.4l-2.77 6.03.88-.13-.63 1.26h.75l-.9 2-.48 1 .5 1 .76-.75z"/><path d="M547.12 269.65l.4.36c.05-.05 1.3-1.37 3.37.4l.33-.42c-2.5-2.1-4.1-.35-4.1-.33zm-.6-6.82l-.1.48.98-.4c-.16.27-.67 1.16-.67 1.16l1.44-.48-1.78 2.34.4.33 2.86-3.73-1.77.6.75-1.34-1.53.66c.1-.62.32-1.92.32-1.92l-.53-.08-.4 2.4zM543.86 262.98s.35.78.61 1.36c-.1-.05-.98-.4-.98-.4l2.9 5.12s.34-.45.36-.48c-.3.75-.6 1.5-.6 1.5l.5.2 1.26-3.2-.46-.27-1 1.3c-.27-.5-1.27-2.26-1.75-3.1.07.03.8.33.8.33l-.8-1.76 1.1.67v-1.9h-.54v.94l-1.77-1.1.36.8zm-1.82 6.42l.2.5c.8-.34 1.44-.4 1.93-.16.57.27.75.86.75.87l.5-.13c0-.04-.22-.83-1-1.2-.65-.32-1.44-.27-2.38.13zm2.24 5.42l-.44-2.8.53-.08.44 2.8zm3.85-.46l-.7-2.14.5-.17.7 2.14zm1.4 1.58l-.52-2.14.53-.13.53 2.14z"/><path fill="#00a651" stroke="#000" stroke-width=".519" d="M442.57 340.24s-2.35-1.07-3.42-.3c-1.07.8-.92 1.93-1.85 1.86 0 0 3.56.8 4.34-.14.78-.92.93-1.2.93-1.2m.43.76s-1.55 2.07-1 3.28c.52 1.2 1.67 1.3 1.4 2.2 0 0 1.53-3.3.8-4.27-.74-.96-1-1.16-1-1.16m-2.8-5.77s-2.47.76-2.75 2.05c-.28 1.3.58 2.06-.15 2.62 0 0 3.18-1.78 3.15-3-.03-1.2-.1-1.52-.1-1.52m1.3.7s1.16-2.3.43-3.4c-.74-1.1-1.9-1-1.77-1.93 0 0-.93 3.52-.04 4.34.9.82 1.17.98 1.17.98m-2.2-.83s.05-2.57-1.1-3.24c-1.13-.67-2.12-.1-2.42-.98 0 0 .7 3.6 1.85 3.95 1.16.35 1.48.37 1.48.37m4.4 4.2s2.7-.92 2.93 2c.2 2.92-.14 1.92-.14 1.92s-1.43-3.13-3-3.63l.22-.3z"/><path d="M442.95 341.27c0 .06.3 2.27.3 2.27l.37-.05-.3-2.22c.02 0 .94-4.85.94-4.85l-.38-.07-.93 4.9zM440.5 340.55l-.13.36c1.3.47 3.1-.96 3.17-1.02l-.24-.3c0 .02-1.7 1.36-2.8.97zm3.38-2.85l-6.05-3.06.24-.48 6.05 3.06zM439.5 337l-.38-.37 1.2-1.2.4.37zm2.1-.58l-1.27-2.78.5-.22 1.27 2.78zm1.8 3.4l.04.54c1.65-.1 2.05.95 2.05.97l.52-.1c-.07-.32-.72-1.53-2.6-1.4z"/><path fill="#fff" stroke="#000" stroke-width=".665" d="M471.17 341.06c2.02-1.13 2.42-5.1 2.42-5.1-.5 1.46-4.2 2.9-4.2 2.9 2.74-1.7 6.05-9.35 6.05-9.35-.9 2.75-8.07 5-12.67 7.6-4.6 2.58-2.18 10-2.18 10-1.3-.88-3.8-4.83-4.28-8.3-.5-3.48-1.86-4.85-5-5.25-3.16-.4-5 3.14-5 3.14l-4.7 2.42 4.77.16s3.38 1.13 3.38 3.8c0 2.66-3 13.3 1.94 19.3 3.42 4.14 16.06 6.53 16.06 6.53M461.9 349.3s.96-4.78 4.1-4.62c3.15.17 4.04-3.55 5.9-4.1 1.85-.58 11.46-3.16 12.5-7.76 0 0-.88 7.6-9.67 11.38 0 0 7.1-2.34 7.9-3.87 0 0-3.14 6.78-10.8 7.83 0 0 7.17-.57 8.22-2.5 0 0-3.23 4.27-8.55 4.84 0 0 4.92 2.02 6.2.32 0 0-2.65 3.15-5.96 3.4l.9.23s-3.16 3.72-6.63 1.2c-3.46-2.5-3.55.66-3.55.66M469.06 356.47s4.05 6.78 4.46 10.4c0 0 7.75 8.57 10.65 9.05 0 0-1.37.56-3.88-1.53 0 0 2.1 2.17 2.5 2.25.4.08-1.7-.16-2.02-.73 0 0 .9 1.3 1.45 1.46.57.16-.56-.16-.56-.16s-1.05-.17-1.54-.57c-.48-.4-.16 1.05-.16 1.05s-1.2-.33-1.6-.73c-.42-.4.15.9.15.9l-1.05-.25-.73.48s-.08.48-.56.08c-.5-.4-1.37 0-1.37 0s-.64.57-.96.16c-.32-.4-1.55 1.56-1.55 1.56l-5.1-12.27"/><path d="M473.88 378.72l-6.42-12.22.67-.36 6.42 12.23zm5.6-.82l-10.98-12.3.57-.52 11 12.3zm2.52-1.08l-12.54-11.7.52-.55 12.54 11.7z"/><g transform="translate(-96.907 97.536) scale(.665)"><path d="M823.44 360.84s-1.23-2.2-2.3-1.38c-1.07.83-1.7.98-1.87.92 0 0 1.07.06 1.68-.52.62-.6 1.66-.22 2.5.98zm-6.66-1s.68 1.4.7 1.4c-.08.02-.78 2.27-.78 2.27l.55.18.75-2.45c0-.22-.7-1.65-.7-1.65l-.52.25zM823.16 360.5s-.92 1.07-2.18.77l-1.25-.3s1.07.05 1.78.08c.7.03 1.63-.33 1.66-.55zM822.86 360.72s-1.13-1.2-1.9-.86c0 0 1.35-.43 2.12.73l-.22.12zM822.67 360.5s-1.3.9-2.7-.1l-.1-.06.2-.05s1.78.72 2.6.2z"/><circle cx="821.573" cy="360.284" r=".383"/></g><path d="M450 359.63s-.65 1.2-.3 1.95c.35.73 1.92 1.1 2.13 2.1.2.97.74.97 1.47.83.73-.13.87-.16.87-.16s-3.07-1.65-3.88-4.3l-.28-.42z"/><g fill="#964b36" stroke="#000" stroke-width=".48"><path d="M549.4 334.8s5.6-7.4 10.56-5.45c4.96 1.94 8.2 2.87 8.2 2.87s.08 4.97-2.56 4.97c-2.63 0-5.16-4.97-7.56-3.5-2.4 1.48-4.37 3.5-4.53 4.2-.14.7-6.35.84-4.1-3.1zM528.16 370.38s-1.55 1.62-.85 2c.7.4 2.1-.07 2.1-.6 0-.56-.93-1.56-1.24-1.4zM526.92 371.92s-2.87-1.63-5.12 2.25c-2.25 3.87-4.1 10.16-5.42 11-1.32.86 12.8-6.2 12.94-9.14 0 0 .93-3.8-.54-3.72-1.47.1-1.55.24-1.86-.38zM527.3 372.4s-2.94.68-3.56 4.87c-.62 4.2-4.73 6.36-4.96 6.5m49.37-51.54s-4.48 1.55-3.7 4.66"/></g><path fill="#fff200" stroke="#000" stroke-width=".319" d="M533.74 341.3s.15-10.62 8.83-10.16c1.65.16.86 2.1.86 2.1s1.88-1.32 2.74.77c0 0 2.74-1.23 3.05 1.5 0 0 2.97-.4 2.58 2 0 0 2.03-.46 1.95 1.24 0 0 2.35-.93 2.1 1.47 0 0 2.6-1.7 2.2 1.4 0 0 2.66-1.85 3.6 1.25.93 3.1-2.66 9.7-6.18 11.4"/><path d="M557.86 341.95c0 .08 1.17 8.3-3.5 11.32l.16.26c4.84-3.12 3.65-11.54 3.64-11.63l-.3.05zm-5.62 9l.2.23c2.97-2.88 3.6-10.63 3.62-10.95l-.3-.03c0 .08-.65 7.96-3.52 10.75zm-2.76-1.84l.3.04c.38-4.8 4.12-10.26 4.16-10.3l-.25-.18c-.05.05-3.83 5.6-4.22 10.45zm-2.17-1.38l.3.03c.55-5.77 4.36-10.1 4.4-10.15l-.23-.2c-.04.04-3.92 4.45-4.46 10.32zm-3-1.93h.3c.3-6.8 4.76-10.16 4.8-10.2l-.17-.24c-.05.04-4.64 3.46-4.94 10.43zm-2.8-1.7l.3-.02c-.22-6.2 4.54-9.9 4.6-9.95l-.2-.24c-.04.03-4.93 3.83-4.7 10.2zm-5.04-2.27l.3.03c.83-6.7 6.8-8.46 6.87-8.47l-.1-.3c-.05 0-6.22 1.8-7.07 8.73z"/><path fill="#00a651" stroke="#000" stroke-width=".319" d="M528.62 354.17s-1.47-9.85 4.42-12.94c0 0 1.1-.24 1.7 1.16 0 0 3.1-1.33 3.2 1.3 0 0 1.54-1.24 1.92.47 0 0 3.34-.7 2.72 1.78 0 0 2.8-.77 2.56 1.63 0 0 2.8-1 2.32 1.08 0 0 2.95-.7 2.25 1.7 0 0 3.66-.37 2.57 2.18 0 0 2.7-.7 2.1 1.4 0 0 3.56.62 1.93 2.87-1.63 2.25-5.74 5.67-9.77 7.14M525.44 364.1s-2.4-8.22 2.18-10.32c0 0 .84-.23 1 .62 0 0 1-1.32 1.8-.15 0 0 2.3-1.1 2.86.62 0 0 1.54-1.32 2.32.6 0 0 1.47-.6 1.47.95 0 0 2.02-.86 2.02 1 0 0 1.92-.77 1.54 1.32 0 0 2.95.47 2.1 1.86 0 0 2.63.7 1.62 1.8 0 0 2.87-.32 1.32 1.6 0 0 2.17-.68.93 1.72-1.23 2.4-5.1 5.04-7.82 5.35"/><path fill="#00a651" stroke="#000" stroke-width=".319" d="M528.3 370.6s-5.1-4.96-2.7-6.43c0 0 1.08.3 1.47 1.4 0 0 1.24-1.8 1.94.07 0 0 1.87-.62 1.87.62l1.47 1.1s1.7-.17 1.4.92c0 0 1.86-.24 1.78.77 0 0 1.63.08 1.48 1.16 0 0 2.78.48 1.54 1.88 0 0-4.88 1-8.3-.4 0 0-1.78-.6-1.93-1.08z"/><path d="M545.86 362.4l.1.3c3.03-1.18 8.3-8.37 8.52-8.67l-.24-.18c-.06.07-5.44 7.42-8.38 8.55zm-1.73-1.3l.15.26c2.64-1.47 7.9-8.43 8.1-8.72l-.23-.2c-.05.1-5.44 7.22-8.02 8.65zm-1.5-.62l.2.24c2.8-2.32 6.85-9.95 7.02-10.28l-.27-.14c-.04.08-4.2 7.9-6.94 10.18zm-1.36-1.76l.3.04c.53-3.86 5.95-9.94 6-10l-.22-.2c-.22.25-5.54 6.2-6.08 10.16zm-10.86-4.7l.32-.02c-.46-5.45 4.1-11.46 4.15-11.52l-.24-.2c-.05.07-4.68 6.17-4.22 11.75zm2.88.48l.3-.05c-.75-4.37 4.4-10.6 4.47-10.65l-.24-.2c-.2.26-5.3 6.4-4.52 10.9zm4.42 1.6h.3c-.15-5 4.64-10 4.7-10.04l-.23-.2c-.05.04-4.93 5.13-4.77 10.25zm-10.54 9.06l.3-.1c-1.75-4.62 1.27-10.53 1.3-10.6l-.27-.13c-.04.06-3.12 6.1-1.34 10.83zm2 .3l.3-.1c-1.5-4.7 1.06-11 1.1-11.05l-.3-.1c-.02.05-2.63 6.45-1.1 11.25zm8.32 4.7l.1.28c4.96-1.78 8.2-6.3 8.22-6.34l-.25-.17c-.03.04-3.2 4.48-8.07 6.22zm-1-1.1l.1.3c3.96-1.8 7.63-6.75 7.67-6.8l-.24-.18c-.03.05-3.66 4.94-7.53 6.7zm-.97-.36l.2.25c3.07-2.24 7.04-7.97 7.08-8.03l-.25-.17c-.04.06-3.97 5.74-7.02 7.95zm-4.94-2.88l.3-.04c-.68-4.93 2.5-10.78 2.55-10.84l-.26-.15c-.03.05-3.27 6-2.58 11.02zm2.15 1.34l.22.22c3.18-2.87 4.26-10.62 4.3-10.94l-.3-.05c0 .07-1.1 7.96-4.2 10.76zM534.9 368.07l.17.25c4.5-3.25 5.7-9.5 5.72-9.55l-.3-.06c-.02.07-1.22 6.2-5.6 9.38zm.5-13.45c0 .3.02.6.05.88 0-.02-3.4 11.03-3.4 11.03l.28.1 3.42-11.1c-.53-5.36 4.2-11.2 4.23-11.27l-.23-.2c-.05.07-4.34 5.4-4.34 10.56zM538.97 357.32c-.04.16-1.08 7.73-5.16 10.52l.18.25c4.2-2.88 5.22-10.34 5.26-10.66 1.8-2.15 6-9.7 6.03-9.8l-.27-.14c-.04.08-4.2 7.62-6.03 9.82zm-12.05 8.28c.03.15.7 3.92 1.5 5.24l.26-.15c-.76-1.3-1.45-5.12-1.46-5.16l-.3.06zm1.93.04c.04 1.87.05 4.95-.06 5.22l.28.1c.15-.38.1-4.5.08-5.32h-.3zM529.03 371l.28.13c1.32-2.85 1.72-4.82 1.72-4.84l-.3-.07c0 .02-.4 1.96-1.7 4.78zM529.32 371.1l.15.26c2.44-1.42 3-3.87 3.02-3.98l-.3-.06c-.02.02-.57 2.43-2.88 3.77zM529.77 371.3l.03.3c2.4-.23 4-3.12 4.08-3.25l-.27-.14c0 .04-1.6 2.88-3.83 3.1zM530 371.46l.03.3c3.83-.23 5.55-2.52 5.62-2.6l-.25-.2c-.02.02-1.7 2.27-5.4 2.5zM530.28 371.54l-.06.3c.2.04 5.08 1.08 6.75-1.46l-.26-.17c-1.54 2.38-6.37 1.35-6.42 1.34z"/><path fill="none" stroke="#000" stroke-width="2.792" d="M420.9 193.24V329.6c0 44.6 80.57 71.07 80.57 71.07s80.58-26.48 80.58-71.08V193.23z"/><path fill="#002868" d="M0 0v240.34h358.04V0H0z"/><path fill="#fff" d="M0 0v26.87l139 93.3-139 93.3v26.87h40.03l139-93.3L318 240.34h40.04v-26.87l-139-93.3 139-93.3V0H318L179.03 93.3 40.02 0H0z" style="line-height:normal;text-indent:0;text-align:start;text-decoration-line:none;text-decoration-style:solid;text-decoration-color:#000;text-transform:none;block-progression:tb;isolation:auto;mix-blend-mode:normal" color="#000" font-weight="400" font-family="sans-serif" overflow="visible"/><path fill="#ce1126" d="M0 0v17.9l152.33 102.27L0 222.42v17.92h26.7L179 138.08l152.33 102.26h26.7v-17.92L205.7 120.17 358.04 17.9V0h-26.7L179.03 102.25 26.7 0H0z" style="line-height:normal;text-indent:0;text-align:start;text-decoration-line:none;text-decoration-style:solid;text-decoration-color:#000;text-transform:none;block-progression:tb;isolation:auto;mix-blend-mode:normal" color="#000" font-weight="400" font-family="sans-serif" overflow="visible"/><path fill="#fff" d="M149.18 0v80.1H0v80.13h149.18v80.1h59.67v-80.1h149.2V80.1h-149.2V0H149.2z" style="line-height:normal;text-indent:0;text-align:start;text-decoration-line:none;text-decoration-style:solid;text-decoration-color:#000;text-transform:none;block-progression:tb;isolation:auto;mix-blend-mode:normal" color="#000" font-weight="400" font-family="sans-serif" overflow="visible"/><path fill="#ce1126" d="M161.12 0v96.14H0v48.06h161.12v96.14h35.8V144.2h161.12V96.14H196.92V0h-35.8z" style="line-height:normal;text-indent:0;text-align:start;text-decoration-line:none;text-decoration-style:solid;text-decoration-color:#000;text-transform:none;block-progression:tb;isolation:auto;mix-blend-mode:normal" color="#000" font-weight="400" font-family="sans-serif" overflow="visible"/></svg>