<svg xmlns="http://www.w3.org/2000/svg" width="640" height="480" xmlns:xlink="http://www.w3.org/1999/xlink"><defs><linearGradient id="a"><stop stop-color="#a43907" stop-opacity=".996" offset="0"/><stop stop-color="#fff" offset="1"/></linearGradient><linearGradient id="b" x1="444.4" x2="470.9" y1="592.2" y2="577.14" xlink:href="#a" gradientUnits="userSpaceOnUse"/><linearGradient id="c" x1="458.24" x2="520.55" y1="562.51" y2="552.83" xlink:href="#a" gradientUnits="userSpaceOnUse" gradientTransform="scale(.94 1.07)"/><linearGradient id="d" x1="472.38" x2="445.28" y1="578.68" y2="580.2" xlink:href="#a" gradientUnits="userSpaceOnUse"/><linearGradient id="e" x1="517.97" x2="456.44" y1="553.74" y2="558.12" xlink:href="#a" gradientUnits="userSpaceOnUse" gradientTransform="scale(.94 1.07)"/><linearGradient id="f" x1="851.78" x2="646.19" y1="369.94" y2="369.94" xlink:href="#a" gradientUnits="userSpaceOnUse"/><linearGradient id="g" x1="388.53" x2="677.4" y1="507.23" y2="508.75" xlink:href="#a" gradientUnits="userSpaceOnUse" gradientTransform="scale(.82 1.22)"/><linearGradient id="h" x1="579.84" x2="556.8" y1="504.94" y2="505.86" xlink:href="#a" gradientUnits="userSpaceOnUse" gradientTransform="scale(.84 1.2)"/><linearGradient id="i" x1="581.43" x2="558.88" y1="512.01" y2="514.33" xlink:href="#a" gradientUnits="userSpaceOnUse" gradientTransform="scale(.82 1.22)"/><linearGradient id="j" x1="552" x2="589.77" y1="517.88" y2="503.9" xlink:href="#a" gradientUnits="userSpaceOnUse" gradientTransform="scale(.84 1.2)"/></defs><path fill="#006" d="M0 0h640v480H0z"/><path fill="#006" fill-rule="evenodd" d="M0 0h400v200H0z"/><path fill="#fff" d="M0 0v25.56l317.14 203.07h39.92v-25.56L39.92 0H0zm357.06 0v25.56L39.92 228.63H0v-25.56L317.14 0h39.92zM148.77 0v228.63h59.5V0h-59.5zM0 76.2v76.22h357.06v-76.2H0z"/><path fill="#c00" d="M0 91.45v45.73h357.06V91.45H0zM160.68 0v228.63h35.7V0h-35.7zM0 228.63l119.02-76.2h26.6l-119 76.2H0zM0 0l119.02 76.2h-26.6L-.02 17.05V0zm211.43 76.2l119-76.2h26.62l-119 76.2h-26.62zm145.63 152.43l-119.02-76.2h26.6l92.42 59.16v17.03z"/><path fill="url(#b)" fill-rule="evenodd" stroke="#fff" stroke-width="10" d="M670.97 321.56a13.22 13.22 0 0 0-2.03.2c-3.4.58-8.73 11.62-11.7 18.08-4.6 5.65-7.08 10.03-9.02 13.28-.76 1.26-1.92 2.73-1.56 4.4-7 1.73-7.35 7.73-7.35 10.07 0 2.47.8 3.7.8 3.7l4.18 7.85.03.1c4.47 9.2 11.07 21.62 14.76 22.65 5.25 1.46 18.82-3.55 29-12.15 16.7 6.87 38.08 12.56 61.97 12.56 23.9 0 45.25-5.68 61.94-12.56 10.18 8.6 23.76 13.62 29 12.16 3.7-1.03 10.32-13.52 14.78-22.75l4.2-7.84s.77-1.23.77-3.7c0-2.35-.38-8.36-7.38-10.08.35-1.67-.77-3.14-1.53-4.4-1.94-3.28-4.4-7.7-9.08-13.4-2.97-6.5-8.3-17.4-11.66-17.98-4.74-.82-14.97 1.58-14.97 2.4 0 .03-.06.46-.07.5l-20.54 19.4c0 .57 1.08 14.6 4.93 27-13.75 5.02-30.63 8.54-50.4 8.54-19.8 0-36.72-3.52-50.48-8.53 3.85-12.4 4.97-26.44 4.97-27L684 324.65c0-.05-.07-.48-.07-.5 0-.72-7.83-2.68-12.97-2.6zm5.25 24.1c2.58-.04 5.33 2.1 7.6 4.46-.08.47-.16.95-.26 1.38-.62 2.87-1.7 6.66-3.18 10.62-5.87-3.43-10.66-7-14.32-10.3 2.23-2.38 5.8-5.6 9.6-6.13.18-.04.37-.04.56-.04zm147.56 0c.2 0 .38 0 .56.02 3.8.53 7.4 3.76 9.63 6.13-3.66 3.33-8.46 6.92-14.35 10.35-1.5-3.97-2.56-7.77-3.18-10.65-.1-.43-.18-.9-.25-1.38 2.25-2.38 5-4.5 7.58-4.47zm-166 27.37c2.73 2.1 6.3 4.47 10.6 7-1.2.75-2.46 1.32-3.8 1.62-1.75.4-3.6.33-5.5-.06-.57-1.46-1.07-3.28-1.2-5.73a70.3 70.3 0 0 1-.1-2.84zm184.47 0c0 .88-.07 1.82-.13 2.84-.13 2.45-.6 4.27-1.18 5.72-1.88.38-3.77.46-5.53.05-1.32-.3-2.55-.87-3.74-1.62 4.3-2.53 7.86-4.9 10.6-7z" transform="matrix(1.17 0 0 1.17 -389.23 -21.96)"/><path fill="url(#b)" fill-rule="evenodd" stroke="#000" stroke-width="1.16" d="M445.63 595.48s5.63-8.75 10.3-8.13c4.7.63 9.07 6.25 9.4 6.57.3.3 7.17-7.2 6.86-7.5-.32-.3-7.2-16.56-10.95-17.2s-11.84 1.2-11.84 1.83-3.77 24.43-3.77 24.43z" transform="matrix(-1.48 0 0 1.54 1073.61 -525.43)"/><path fill="url(#c)" fill-rule="evenodd" stroke="#000" stroke-width="1.16" d="M433.13 586.1c0 .63 1.88 23.76 10 31.88s21.25 13.13 25.94 11.88c4.68-1.25 15.3-24.7 15.3-24.7s-11.24 11.26-19.68 9.4c-8.45-1.9-13.45-15.95-15-22.82-1.57-6.88-.32-20.32-.32-20.32l-16.25 14.7z" transform="matrix(-1.48 0 0 1.54 1073.61 -525.43)"/><path fill="url(#d)" fill-rule="evenodd" stroke="#000" stroke-width="1.16" d="M445.63 595.48s5.63-8.75 10.3-8.13c4.7.63 9.07 6.25 9.4 6.57.3.3 7.17-7.2 6.86-7.5-.32-.3-7.2-16.56-10.95-17.2s-11.84 1.2-11.84 1.83-3.77 24.43-3.77 24.43z" transform="matrix(1.48 0 0 1.54 -99.78 -525.43)"/><path fill="url(#e)" fill-rule="evenodd" stroke="#000" stroke-width="1.16" d="M433.13 586.1c0 .63 1.88 23.76 10 31.88s21.25 13.13 25.94 11.88c4.68-1.25 15.3-24.7 15.3-24.7s-11.24 11.26-19.68 9.4c-8.45-1.9-13.45-15.95-15-22.82-1.57-6.88-.32-20.32-.32-20.32l-16.25 14.7z" transform="matrix(1.48 0 0 1.54 -99.78 -525.43)"/><path fill="url(#f)" fill-rule="evenodd" stroke="#000" stroke-width="1.5" d="M656.44 338.56c-4.74 5.8-7.27 10.26-9.25 13.56-2 3.3-.82 7.9 3.74 14.47 4.92 7.06 45.37 34.7 98.06 34.7 52.7 0 93.14-27.64 98.06-34.7 4.57-6.57 5.7-11.17 3.72-14.48-1.97-3.3-4.47-7.77-9.22-13.56 0 8.68-33.5 40.03-92.56 40.03s-92.56-31.36-92.56-40.04z" transform="matrix(1.17 0 0 1.17 -388.04 -20.79)"/><path fill="url(#g)" fill-rule="evenodd" stroke="#000" stroke-width="1.16" d="M467.82 625.48c.63-.94 7.2-11.88 7.2-11.88l-3.6-2.53c-1.12 3.1-5.16 4.1-5.8 7.85s2.82 7.5 2.2 6.56z" transform="matrix(1.48 0 0 1.54 -98.8 -524.06)"/><path fill="url(#h)" fill-rule="evenodd" stroke="#000" stroke-width="1.16" d="M475 622.98s1.25-5.3-2.8-5.94c-4.08-.62-6.23 2.98-5.64 1.57.66-1.56 3.13-3.12 3.44-8.43.3-5.3-.3-8.13-.3-8.13s1.55-6.87 8.1-5.93c6.57.94 6.9 5.94 6.9 7.82s-.64 2.8-.64 2.8L475 623z" transform="matrix(1.48 0 0 1.54 -99.78 -525.43)"/><path d="M568.3 406.34l1.97 3.45 1.33-.84-.88-2.28.17-.45 2.3-1.44 6.07 10.6-.15.5-1.2.9.55.95 5.77-3.6-.54-.96-1.3.67-.52-.1-6.07-10.6 2.33-1.46.44.08 1.52 1.9 1.32-.85-1.97-3.45-11.15 6.96zm-14.25 8.17l.48 1 1.2-.5.5.14 5.2 10.77-.16.5-1.12.72.48 1 5.7-3-.5-1-1.25.53-.48-.15-2.47-5.1 5.8-3.08 2.48 5.1-.14.5-1.15.73.48 1 5.67-3-.48-1-1.2.53-.5-.16-5.2-10.76.16-.5 1.12-.7-.48-1-5.67 2.98.48 1 1.26-.54.46.17 2.15 4.44-5.8 3.07-2.16-4.44.16-.5 1.16-.73-.48-1-5.7 3zm-3.34 9.16l.3 1.06 1.64-.4.43.2 1.28 4.45c-.55.22-.95.37-1.17.43-3.32 1.04-6-.6-7.13-4.53-1.1-3.8.24-6.68 3.46-7.7a4.75 4.75 0 0 1 1.9-.2l.43.3 1.07 2.17 1.58-.5-1.06-3.7c-1.74.03-3.34.27-4.76.7-4.8 1.5-7 5.45-5.73 9.9 1.3 4.54 5.26 6.7 9.78 5.3 1.6-.5 3.1-1.3 4.6-2.4l-1.46-5.07.25-.4 1.2-.5-.3-1.08-6.3 1.96zm-13.33 12.5l6.43-2-.32-1.08-1.47.35-.44-.24-3.5-11.6.27-.4 1.4-.56-.32-1.07-6.4 2.03.3 1.06 1.46-.34.43.2 3.48 11.58-.24.45-1.4.56.33 1.07zm-34.8 5.7l11.32-1.03-.36-4.05-1.43.13-.15 2.44-.24.4-4.88.43-.5-5.88 2.74-.26.32.3.35 1.6 1.25-.1-.45-5.26-1.24.1-.1 1.66-.25.34-2.74.25-.45-5.38 4.2-.38.3.27.48 1.96 1.47-.14-.3-3.55-10.62.98.1 1.1h1.3l.35.3 1.03 12.05-.3.4-1.28.22.1 1.1zm-16.84-14.9l.02 1.1 1.22.1.35.35.2 12.06-.32.37-1.23.13.02 1.12 5.98-.1-.02-1.12-1.27-.1-.36-.35-.1-5.7 6.1-.1.1 5.7-.3.38-1.26.13.02 1.12 5.96-.1-.02-1.1-1.23-.1-.33-.36-.2-12.06.32-.37 1.22-.13-.02-1.12-5.97.1.02 1.12 1.27.1.33.35.08 4.97-6.1.1-.1-4.96.33-.37 1.27-.15-.02-1.1-5.97.1zm-12.85-.44l-.04 4.02h1.46l.36-2.4.34-.3 2.54.03-.1 12.35-.38.36-1.37.1-.02 1.1 6.32.08v-1.1l-1.36-.14-.36-.37.12-12.35 2.54.03.3.3.35 2.43 1.45.02.04-4.02-12.22-.14zm-19.48 12.84l11.06.54.18-4.05-1.4-.07-.46 2.38-.3.35-4.76-.22.25-5.9 2.68.13.28.34.13 1.65 1.22.05.23-5.26-1.2-.07-.3 1.62-.3.3-2.67-.13.24-5.4 4.1.2.26.3.22 2.02 1.44.07.14-3.55-10.38-.5-.05 1.1 1.27.18.3.33-.52 12.1-.34.33-1.26.04-.04 1.1zm-25.35-6.56l5.87 1.98.32-1.06-1.28-.55-.2-.45 3.53-11.52.4-.2 1.35.34.32-1.06-5.87-1.98-.32 1.06 1.26.54.22.4-3.54 11.53-.42.24-1.33-.33-.32 1.06zm-10.44-4.06a11.4 11.4 0 0 0 3.58 2c3.22 1.08 5.78-.1 6.57-2.68.4-1.28.12-2.66-.77-3.84-.9-1.2-1.85-1.9-2.33-2.5-.83-1.04-1.18-1.88-.88-2.87.37-1.2 1.52-1.76 2.95-1.27.63.2 1.05.47 1.34.78l.18.4-.35 2.36 1.4.48 1.07-3.5c-1.1-.9-2.24-1.57-3.46-1.98-2.8-.95-5.2.3-5.93 2.7-.33 1.05-.18 2.27.46 3.4.62 1.1 1.43 1.78 2.08 2.48 1.17 1.25 1.64 2.26 1.28 3.43-.37 1.2-1.57 1.73-3.16 1.2a5.53 5.53 0 0 1-1.64-.9l-.15-.4.48-2.7-1.5-.5-1.2 3.9zm-13.25-5.55l10 5 1.66-3.68-1.25-.63-1.3 2-.4.2-4.32-2.15 2.43-5.33 2.42 1.2.13.43-.48 1.57 1.1.55 2.17-4.76-1.1-.54-.87 1.4-.4.14-2.4-1.2 2.2-4.88 3.72 1.85.12.4-.54 1.93 1.3.65 1.46-3.2-9.4-4.7-.45 1 1.1.67.16.44-4.97 10.9-.45.2-1.18-.48-.45 1zm-1.7-18.2l-5.02-3.47-.58.93 1 .82.07.5-6.33 10.06-.48.1-1.1-.62-.6.93 5.04 3.47c1.72 1.18 3.2 1.8 4.83 1.62 2.13-.22 3.95-1.46 5.36-3.7 2.5-3.98 1.8-7.9-2.2-10.64zm-2.1.07l1 .7c2.75 1.88 3 4.52.75 8.08s-4.66 4.4-7.4 2.5l-1-.68 6.66-10.6zm40.1 15.7l-.23 1.08 1.16.38.26.38-2.44 11.85-.4.28-1.2-.15-.23 1.1 5.7 1.24.2-1.08-1.2-.4-.25-.4 1.03-5 .35.07c2.03.46 2.36 1.53 2.55 3.78.1 1.13.08 2.17.95 3.3.4.52 1.08.95 1.95 1.14a13.78 13.78 0 0 0 2.05.27l.22-1.08-.26-.05c-1.35-.3-1.88-.77-2.06-2.08-.15-1.2-.07-2.44-.5-3.56-.3-.8-.9-1.38-1.82-1.84 2.37.03 3.83-1 4.25-3.03.5-2.47-.83-4.16-3.96-4.85l-6.13-1.36zm3.86 2.17l.94.2c1.96.44 2.77 1.7 2.4 3.5-.42 2.06-1.64 2.76-3.8 2.28-.22-.05-.46-.1-.72-.18l1.2-5.8zm74.1 1.3l.18 1.1 1.33-.12.42.25 1.88 11.95-.3.42-1.3.33.18 1.1 6.26-1.07-.17-1.1-1.37.12-.42-.3-.8-5.04.4-.06c2.23-.38 2.96.48 4 2.5.5 1 .87 1.98 2.17 2.68.6.33 1.46.46 2.42.3a16.52 16.52 0 0 0 2.2-.56l-.18-1.08-.3.05c-1.5.27-2.2.04-2.87-1.1-.6-1.06-.97-2.24-1.8-3.1-.63-.63-1.46-.93-2.56-1 2.44-.9 3.54-2.42 3.22-4.48-.4-2.5-2.4-3.53-5.84-2.94l-6.76 1.15zm4.76.5l1.03-.18c2.14-.37 3.44.47 3.73 2.3.32 2.07-.66 3.2-3.04 3.6-.25.05-.52.1-.8.12l-.93-5.85z"/><path fill="url(#i)" fill-rule="evenodd" stroke="#000" stroke-width="1.16" d="M467.82 625.48c.63-.94 7.2-11.88 7.2-11.88l-3.6-2.53c-1.12 3.1-5.16 4.1-5.8 7.85s2.82 7.5 2.2 6.56z" transform="matrix(-1.48 0 0 1.54 1072.67 -524.06)"/><path fill="url(#j)" fill-rule="evenodd" stroke="#000" stroke-width="1.16" d="M475 622.98s1.25-5.3-2.8-5.94c-4.08-.62-6.23 2.98-5.64 1.57.66-1.56 3.13-3.12 3.44-8.43.3-5.3-.3-8.13-.3-8.13s1.55-6.87 8.1-5.93c6.57.94 6.9 5.94 6.9 7.82s-.64 2.8-.64 2.8L475 623z" transform="matrix(-1.48 0 0 1.54 1073.61 -525.43)"/><path fill="#0072c4" fill-opacity=".996" fill-rule="evenodd" stroke="#fff" stroke-width="3.867" d="M396.85 605.9s-75.43-21.25-75-102.13l.6-106.9h148.8l.6 106.3c.43 80.87-75 102.75-75 102.75z" transform="matrix(1.48 0 0 1.54 -99.33 -521.46)"/><g fill-rule="evenodd"><path fill="#bcbcbc" d="M392.3 128.96c.2 0 1.54-1.28 2.78-2.4 1.72-.87 3.32-2.1 5.08-2.9 1.3-.76 3.9-1.35 5.07-1.94 1.56-.8 2.83-1.75 4.16-3.38.15-2.16.45-3.7.45-6.27 1.84-.9 3.47-1.74 5.08-2.42 2.3-.65 2.8-1.57 5.08-1.93 1.47-.5 3.88-.48 6-.48 2.3 0 3.75 1.63 5.82 2.02 2.44 1 3.6 1.67 5.54 3.38 1.1 1.4 1.78 2.53 3.66 3.58 1.5.76 2.88 1.92 4.62 2.4 1.9 1.12 3.6 1.76 5.08 3.4 1.35.96 1.9 2.4 3.23 3.37 1.52 1.25 2.97 2.4 4.62 3.37 1.97 1.32 3.94 2.33 7.14 2.04 1.7-.1 3.53-.28 5.55.1 2.26 0 4.46-.05 6.46.48 2.37 0 4.27.32 6.48.48 2.06.4 4.16.48 6.46.48 2 .53 4.2.5 6.46.5h12.93c2.35 0 4.73.08 6.46.47 2.32 0 4.32-.2 6.45-.48 2.5 0 4.42-.46 6.93-.48h7.85c2 .55 4.6.93 6 1.93 1.85.53 2.77 1.4 4.62 1.93 1.4.73 3.56 1.88 4.6 3.38 1.32 1.37 2.65 3.32 3.7 5.3 1.3 1.87 1.78 4 2.78 6.3.52 2.2.9 4.3.92 6.75.5 2.1.46 4.4.46 6.75-.5 2.2-.63 4.65-1.37 6.76-.08 2.36-.55 4.5-.92 6.28-.4 1.97-.9 3.24-.92 5.8v6.75c-.16 2.22-.65 3.84-.92 6.27-1.12 2.1-2.2 4.58-3.23 7.24-1.54 1.08-2.87 2.6-3.7 3.87-.98.6-1.55 1.53-1.38 1.93 1.84.64 1.4 1.92 1.4 4.34.23 1.86.4 4.17.9 6.28.18 2.3.67 3.7 1.4 5.3.72.96.86.5-.93.5-1.33 1.04-2.68.5-3.23-1.46-1.1-1.3-1.44-2.87-1.86-5.3-.25-2.24-.6-4.42-1.38-5.8-.24-2.72-.96-2.7-3.7-2.9-1.3-1.15-3-1.45-5.54-1.45-2.5 0-2.72-.26-2.77 2.4v6.77c-.43 1.96-1.38 3.54-1.84 5.3-1.37 1-2.1 2.7-3.7 3.87-.75 2.2-1.86 2.57-4.14 2.9-.8-1-2.1-2.3-2.77-3.38 1.28-2.17 2.4-2.5 3.22-4.83.98-1.92 1.56-3.17 2.3-4.83-.98-1.52-1.86-2.2-2.76-4.34-.76-1.17-1.8-3.68-2.3-5.3-1.53-.54-3.9-.63-5.1-1.46-2.23-.52-2.86 1.93-5.53 1.93h-6.46c-2.86 0-3.57 1.6-6 1.45-.72.23-2.45-.1-5.08 0-1.94.67-4.27.48-6.48.48-2.34-.03-4.25-.57-6-.97-2.12-.6-4.23-1.18-6.46-1.45-2.7 0-3.72.2-5.54 1.44-1.44.85-3.53 2.8-5.08 3.85-.65 1.6-1 4.32-1.85 6.28-.5 1.88-1.3 3.08-1.85 4.83-.63 1.63-1.22 3.3-1.4 5.8-.14 3.24-.85 2.85-2.76 1.92-.8-1.34-2.06-2.83-2.78-4.34.42-2.46.9-3.68.93-6.28-.45-1.87-1.5-1.8-2.77-.48 0 2.53.1 4.48-.93 5.8-.52 2-1.35 2.85-2.77 3.85-.7 1.8-2.22 2.62-3.7 3.38-.22-.07 0-.63 0-1.92-1.1-2.2-.07-4.04-.07-6.76.04-2.43-.1-4.05.6-6.27 0-2.34-1.08-4.57-1.43-6.28-.86-1.8-1.36-2.68-3.7-3.38-1.64-.66-4-1.54-5.08-2.9-1.35-1.74-2.2-2.46-4.16-3.38-2.12-.77-3.15-1.48-4.6-2.42-1.44-1.57-2.6-2.25-3.25-4.34-.97-1.48-1.14-4.24-1.85-6.28-.16-2.12-.77-4.08-1.4-5.8-.26-2.1-.6-3.66-1.37-5.78-.26-2-.83-4.06-1.4-6.27 0-2.37.05-4.67-.45-6.76v-6.76c-.33-1.94-.45-4.8-.92-6.27 0-2.62-.27-4.1-.9-5.8-1.07-1.7-1.16-2.46-2.78-2.9-1.18 1.5-3.12 2.13-5.54 2.43-1.7-.4-4.1-.64-6-1.45-1.86-.45-3.12-1.18-4.62-1.92-.82-1.26-1.8-2.7-2.77-3.86-.3-2.52-.85-3.82-.94-6.28 0-1.84.05-.86 1.85-3.38z"/><path fill="#fefefe" d="M419.65 146.36l.33-.34c-.74.77-.47.4 1.3-.35 1-.62 2.88-1.72 3.6-2.4.85-.38 2.2-.9 2.93-1.7.92-.96 1.83-1.77 2.95-2.72 1.3-1.1 2.5-1.46 3.92-2.4 1.84-.13 2.5-.92 4.24-.33 1.63.36 2.3.37 3.6-1.03 1.3-.85 2.76-1.66 3.27-3.08v-2.05c-.03 2.23-.43 2.96-1.96 3.76-1.06 1.22-2.4 2.6-2.93 3.75-1.04 1.5-1.26 2.34-2.28 3.07-.86 1.08-2.3 1.65-2.62 3.42.46.8.04 1.25.97 1.36.95.8 1.93.47 3.27 0 1.33-1.53 1.92-2.53 2.6-4.1 1.1-1.5 1.72-2.2 2.3-3.4 1.13-.83 1.85-1.47 2.28-2.74 1.3-.78 2.4-1.58 3.26-2.4.98-.62 1.5-1.13 2.94-1.36-.02 1.83-.3 2.7-.98 3.75-.32 1.9-.26 2.8.33 4.1.94.57.77 1.07 1.3 2.38.54-1.13.8-3.42.98-4.78v-.34c0 1.5.14 3.47-.32 4.43.03 1.98.47 2.87 1 4.43.54.75.93 1.24 1.62 1.7.06-1.96.56-3.26.65-5.1.46 1.42.3 3.3.65 4.77.12 1.6.7 2.85 1.3 4.1.75.45 1 1.8 1.32.68.77-2.4.8-5.03 1.3-7.5.1-1.27.2-3.15.66-4.1l-.66 4.1c.1-1.27.2-3.15.66-4.1v-.35c.3 1.8.6 3.53.65 5.46 0 1.53-.1 3.1.33 4.43 1.08-.5 1.7-1.68 2.28-3.08.87-1.65 1.47-2.38 2.6-3.75l-2.6 3.75c.87-1.65 1.47-2.38 2.6-3.75v-.34c-.17 1.57-.3 3.06-.3 4.78 0 1.57-.03 3.36.3 4.44.4 1.8.92 2.14 1 4.1 0 .94-.13 1.9.32 2.38 1.4.37 1.4-.45 1.63-2.4.03-2.2.6-3.7.66-5.8 0-2.58.37.32.66 1.37.66 1.52.86 2.88.98 4.44 0 .95-.13 1.92.32 2.4 1.26-.53 1.76-2 2.6-2.74.66-1.62 1.34-2.33 1.97-3.4 1.68-.37 1.6-1.06 1.62-3.08 0-1.64-.12-3.36.33-4.78.52-1.5 1.02-3.14 1.3-4.44.62-.36 1.28.54 1.64 1.37.7 1.1.64 2.7.64 4.43.3 1.5.94 2.7 1.63 4.1.82 1.58 1.5 2.53 2.3 3.4.33 1.1.3 2.88.3 4.45 1.3-1.45 1.53-3.6 1.65-5.8-.17-1.5-.2-3.37-.66-4.78-.05-1.5-.32-3.06-.65-4.1-1.1-.53-1.27-1-.32-2.4 1.05-.9 2.2-.54 3.92-.33.88.92 1.24 1.4 1.3 3.4 0 1.83.08 3.23.66 4.45.64.98 1.27 1.66 1.63 3.42.5.42.88 1.12 1.62.34.4-1 .65-3.06.98-4.1.32-1.3.9-1.93 1.64-2.4 0 1.9-.03 3.08.65 4.45.63 1.52 1.07 2.1 1.62 3.76.7.47.8 1.52 1.63 2.03.2-1.6.33-3.44.33-5.46V145c.12-1.63.5-2.55.98-3.76 1.05 1.3.98 1.85.98 3.75 1.07-.4 1.25-1.18 1.63-2.4.77-.67.98-.98 1.3.7.24 1.77.67 3.38 1 5.1.66.8 1.43 2.7 2.27 3.42.58.98 1.22 1.92 1.96 2.73.5 1.12.64 1.7 1.96 2.05 0-2.3.08-4.63-.33-6.83 0-1.96-.43-2.66-.65-4.43-.55-1.18-.87-2.92-.65-3.42 1.53 1.52 2.22 2.4 2.93 4.1.77 1.64 1.4 2.74 1.96 4.44.76.64 2.1 2.6 2.6 3.4 1.18 1.05 1.75 2.14 2.95 3.08.62.6 1.94.92 2.3.68-.07-2-.38-3.72-1-5.46 0-1.9-.45-2.94-.97-4.1-1.3-1.1-2.26-1.85-2.94-3.4-.5-.44-.6-.76-.65-1.7 1.88 1.54 3.2 2.93 4.58 4.77.93 1.2 1.4 1.76 2.6 2.4.66.72 2.55 1.62 3.92 2.03.83 1.1 1.93 1.72 3.27 2.05l-3.26-2.04c.83 1.1 1.93 1.72 3.27 2.05v.35c-.16-2.13-.95-3.7-1.96-5.46-.84-1.88-1.62-2.57-2.93-3.76-.85-1.35-1.8-2.15-3.26-3.07-.9-1.06-2.24-2.82-2.93-3.42 1.4-.87 3.03.6 4.57 1.37 1.28 1.38 2.47 3.18 3.27 4.1.88 1.75 1.54 2.83 2.95 4.43 1.4.83 2.38 1.66 3.6 2.73 1.86.52 1.1-.17.64-1.7-.66-1.93-.08-1.96 1.3-.7.9.66 1.92 1.74 3.26 2.4.58.75 1.46 1.17 2.28.68.35-.48.33-.42.33-1.02-.7-2.12-1.32-3.77-2.94-4.44-.74-.94-1.94-2.06-2.94-3.07-.65-1-1.4-1.58-1.96-2.73l1.95 2.73c-.65-1-1.4-1.58-1.96-2.73h-.33c1.98.07 2.68.57 4.25 1.37 1.12.4 2.33 1.47 2.94 2.38.63.85 1.65 1.76 2.27 2.73 1 .78 2.1 1.66 3.27 2.4 1.1 1.42 1.28 2.35 1.3 4.43.63.98.74 2.95.98 4.1-.24 1.9-.88.4-.97-.67-.28-1.5-.85-1.43-1.96-1.03 0 2.06.2 2.63.97 4.1-.2 1.4-.68 2.44-1.3 3.4-.77.47-.93-1-1.64-1.7-.08-2.1-.67-2.34-1.96-3.4v1.36c.73 1.45 1.5 2.78 1.63 4.78.5 1.52.66 2.48.66 4.43 0 1.67.02 3.3-.33 4.78 0 1.85-.3 2.65-.33 4.44v9.55c-.25 1.2-.32 2.78-.32 4.43l.32-4.43c-.25 1.2-.32 2.78-.32 4.43v.34c-.62-1.7-1.3-3.26-1.64-5.12-1.05-1.04-1.73-2.12-2.28-3.4-.25-1.47-.4-3.26-.66-4.45-.46-1.2-.94-2.48-1.96-1.7-.4 2.54.1 4.06.98 6.48.52 1.6.46 2.87.98 4.44.76 1.8 1.37 2.06 0 4.1-.67 1.08-1.03 1.42-1.3 2.73-1.2.63-1.5.9-1.63 2.4-.4-1.34-1.4-2.9-1.96-4.45-.58-1.64-1.3-3.32-1.62-4.78-.8-1.14-1.73-3-2.62-3.76-.82-1.1-2-2.93-2.6-4.08-1.26-1.46-1.53-2.3-2.62-3.07-.28-.68-.6-1.53-1.3-1.03 0 1.64-.13 3.35.32 4.78.33 2 .9 3.13.98 5.12v3.76c-.78-1.93-1.62-3.64-2.28-5.46-.72-1.02-1.4-3-2.3-3.76-.54-1.32-.98-2.42-1.62-3.4-.17-1-.6-1-.98-1.72.02 1.94.6 2.62.98 4.1.63 1.3.84 3.48.65 4.1-.83-2.4-1.58-5-2.62-7.17-1-1.4-1.96-3.2-2.6-4.44-.98-1.17-1.98-1.2-2.95-2.05-.88-.44-1.72-.92-2.28-1.7.25 1.8.92 2.92 1.3 4.43.22 1.73.97 3.1 1.3 4.45-.35 2.34-.88-.65-1.3-1.7-.34-1.93-.98-3-1.63-4.1-.88-.63-1.67-1.73-2.6-2.4-.93-.36-.67.07-.67 1.37 0 2.1.08 3.5.66 4.78.66 1 .66 2.3.66 4.1-.06 1.68-.32 3.03-.32 4.78V188c-.75-1.45-1.46-2.27-1.96-4.1-1.14-1.55-1.47-2.68-2.3-4.43-.7-.3-1.9-.56-2.6 0 .13 1.72.9 2.48.98 4.43-1.3 1.34-1.07 1.72-1.96-.34-.74-1.55-1.6-1.48-2.6-2.4-1.65-.2-1.13-1.25-1.64-2.72 0-1.3.13-2.64-.33-3.75-1.8 0-2.82-.08-3.92 1-.5 1.1-.32 3.05 0 4.45v4.78c-.36 1.2-1.1 1.26-1.3 2.73-.62 1.46-.83 3.06-1.3 4.1-1.16 1.05-.66 1.18-1.3-.7v-10.9c0-1.87.26-2.77.32-4.45-.67-1.4-.86-1.67-2.94-1.7-.5.9-.3 2.53 0 3.42 0 1.65.08 3.23.33 4.44 0 1.8.23 2.9.34 4.43-.06 1.8-.4 3.24-1.3 4.1-1.18.3-.14 1.05-1.3 1.36-1.2-.6-2.58-1.4-3.6-2.4-1.27-.4-2.47-.68-4.25-.68-2.17-.02-2.2-.3-2.94-2.05-.67-1.88-.98-3.5-1.3-5.46-.73-1.6-.9-2.68-1.32-4.43-.54-1.05-1.13-1.83-1.95-2.4-.5 1.73-.93 3.18-1 5.13-.38.8-.46 2.83-.65 3.75-.65-1-.9-3-1.3-4.43-.62-2.08-1.15-3.43-3.27-2.74-2.2.02-2.26.1-2.28 2.4.94 1.47 1.95 2.9 2.6 4.08v4.78c0 1.97.13 2.54-1.3 3.07-.54-2.06-1.68-4-2.93-5.8-.17-1.4-.6-1.04-1.96-1.04-.9 0-1.83-.13-2.28.34 0 1.2.1 2.84 0 3.08-.78.14-1.1 0-1.63-.7-.58 1-.15 2.4 0 3.77-.42 1.52-.92 2.9-1.64 3.75-.15-.45-.47-.34 0-.34-2.24-.86-4-1.4-5.88-2.05-1.13.16-1.95 1.2-2.6 2.06-1.67.56-2.4 1-4.25 1.03-1.78 0-2.64.27-4.25.33-1.15.26-2.66.34-4.24.34-.88-.26-2.4-.27-2.94-.68.67-1.02 1.42-1.53 1.96-3.08.9-.64 1.73-1.46 2.6-2.4.87-.6 1.88-1.88 2.62-2.72.5-1.65 1.2-1.93 2.3-2.74 1.93.08 2.3.7 4.23 1.03 1.9.7 2.93.9 3.93-.35 1.56-.66 2.88-1.7 4.57-2.05 1.3-.66 2.14-1.3 3.26-2.05 1.4-.84 2.05-1.7 3.27-2.73.34-1.4 1.33-2.47.98-4.1-1.76-.46-2.88-.27-3.9.7-1.44 1.16-1.7 1.65-3.28 2.72-1.35.38-1.93.98-3.6 1.36-1.35.48-3 .34-4.56.34-1.42 0-3.32-.14-4.24.34 1.45-.97 3.2-2 4.57-2.4 1.3-.87 1.8-1.32 3.58-1.35.82-1.08 1.67-1.1 1.96-2.73.55-2.02-1.2-1.38-2.6-.68-1.34.24-2.8 1.18-3.93 1.7-1.08.38-2.67.67-4.24.7-.4-.63.33-1.12.66-2.06 1.52-.54 1.77-.74 1.96-2.4-1.73.25-2.4.82-3.92 1.03-1.67.43-3.4.62-5.22.67h-4.57c-1.6-.06-2.47-.34-4.25-.34-1.3-.68-1.3-1-1.3-3.07 1.02-1.18 2.02-1.02 3.9-1.02 1.47-.72 2.6-1.1 3.6-1.7 1.2-.26 2-.77 1.64-1.37h-4.57c-1.77-.75-.1-1.1.97-1.7 1.58 0 3.22.08 4.24.67 1.97-.07 2.66-.7 4.25-2.05 1.25-1.04 1.87-1.7 3.27-2.4 1-1.1 1.95-1.72 2.6-2.73 1.35-1.28 2.24-1.98 2.95-3.07.86-.47 1.4-1.1.98-1.7-2.05.25-2.88 1-4.25 2.04-.8.8-1.57 1.5-2.6 2.05-1.48.87-2.4 1.22-4.25 1.36-1.68 0-2.97-.28-4.57-.34-1.78-.2-.15-.6.32-1.37.7-.48 1.22-1.54.65-2.4-1.36-.46-3-.33-4.57-.33h-4.57c-1.7-.07-2.44-.46-3.58-1.02-.35-.96.07-.7 1.3-.7 1.58-.05 2.7-.26 4.25-.67 1.54-.44 1.73-.95 1.96-2.73-1.5 0-3.2.02-4.24-.34h-2.95zm-28.27-7.74c-.3-2.52-.84-3.82-.93-6.28 0-1.84.05-.86 1.85-3.38.18 0 1.53-1.28 2.77-2.4 1.72-.87 3.32-2.1 5.08-2.9 1.3-.76 3.9-1.35 5.07-1.94 1.56-.8 2.83-1.75 4.16-3.38.16-2.16.46-3.7.46-6.27 1.84-.9 3.47-1.74 5.08-2.42 2.3-.65 2.8-1.57 5.08-1.93 1.46-.5 3.87-.48 6-.48 2.3 0 3.75 1.63 5.8 2.02 2.46 1 3.6 1.67 5.55 3.38 1.1 1.4 1.8 2.53 3.67 3.58 1.5.76 2.88 1.92 4.6 2.4.03 1.75.4 1.45-.84 1.45-.14 1.8-.56 1.68-2.3 1.7a8 8 0 0 1-2.93-2.72c.66-1.78.22 1.43 0 2.05-.84.7-1.34 1.42-2.28.68-.53-1.67-.98-2.82-.98-4.78-.26-2.13-.86-.6-1.32.34-.44 1.72-.24 2.34.33 3.75-1.66 0-2.93-.16-4.24-.35-1.2-.3-2.57.07-3.9.7-1.72 1.06-1.2 1.07-.34 2.38 1.5.44 2.6 1.28 3.92 2.04 1.5-.3 3.08-.63 4.57-1.02 1.56-.54 3-.2 4.58 0 .8.4 1.82.5 2.28 1.03 0 1.05.1 2.15-.32 2.73-.68.46-1.33 1.7-2.3 2.05-1.43.83-2.94 1.35-4.56 1.7-2 .1-2.73.52-4.24 1.38-.25 1.72-.75 2.2-2.3 2.73-1.5.66-2.73 1.02-4.56 1.02-.9 0-1.83.13-2.28-.34 1.45-1.66 1.9-2.44 2.6-4.1.3-.7.88-1.13.34-1.7-1.94.07-2.44.06-2.62 2.04-.22 1.8-.9 2.1-2.28 2.73.37-1.65.43-2.93.98-4.42-1.16.26-2.66.34-4.25.34-1 .63-1.4.87-.98 2.05-1.32.45-2.92.17-4.58 0-1.38-.08-.62-.7-1.63-1.37-.67-1.3-1.43-1.6-2.95-1.7-.75.94-2.14 1.33-2.93 2.04-1.43.5-2.34.1-3.6-.68-1.62.05-1.4.58-.97 1.7.62.44-.04.9.98 1.03.93.84 1.74 1.02 3.6 1.02 1.4-.37 2.96-.34 4.56-.34 1.6.05 1.3.43 1.3 2.04-1.06.75-2.6.7-4.25.7-1.58-.2-2.8-.62-3.92-1.04-1.53-.1-2.75-.4-3.92 0-.5.6-2.1.84-.3 1.03.7.67 4.46.35 4.73 1.47.9 1 .7 2.3-.83 2.3-.92-.5-1.64-.37-2.28 0-1.1.28-2.38.07-4.28.2 2.48.22-1.8-2.68-2.77-3.85z"/><path fill="#bcbcbc" d="M401.7 127.25c-.12 0-1.1.68-1.97 1.36-1.44.78-2.97 2.1-3.92 2.74-.74.6-.73.87-1.62 1.03 1.56-.22 2.25-.62 3.6-1.37 1.7-.2 3.33-.56 4.24-1.36.85-.3-.07-1.66-.33-2.4zm15-16.05c.2 0 .58 1.07 1.32 1.7.47 1.32.9 2.24.98 3.76.4-1.67 1.08-3 1.3-4.78-.5-.9-.54-1.32-1.96-1.36 0 .92.1.32-1.63.68z"/><path fill="#c4c4c2" stroke="#000" stroke-width=".875" d="M349.36 417.73c-.5 0 .87-.5 1.33-.66.35-.77.64-1.3 1.3-1.77 1.12.1 1.66.4 2.22 1.1.93.26 1.27.7 2.43.9.44.35 1.02.4 0 .65-.7.37-1.56.44-2.65.44-1.14.08-1.95.33-2.65.66-1.48 0-1.24.05-2-1.33z" transform="matrix(1.48 0 0 1.54 -109.52 -520.08)"/><path fill="#bcbcbc" d="M422.58 111.54v.34c0-.92-.02-.45.32 1.37.54 1.14.66 2.37.66 4.1.85-.65 1.57-1.92 1.96-3.08 0-2.7-.37-2.54-2.94-2.73zm12.08 39.25h.33c-.97 0-.43.05 1.3-1.03 1.1-.78 2.02-1.93 3.58-2.4 1.5-1.23 2.68-1.8 4.25-2.38.76-.38 1.44-1.02 2.28-.35-.23 1.68-.5 2.32-1.95 3.07-.74.97-1.9 1.54-2.93 2.05-1.06.48-2.23.5-2.6 1.7-1.8.82-2 .68-4.26-.68zm6.2 9.9c.6-.47 2.63-2.6 3.6-3.42 1.1-1.5 2.2-2.65 3.26-3.4.95-1.48 2.17-2.46 2.94-3.77.9-1.14 1.57-2.1 2.6-3.4 0 1.5-.13 3.47.33 4.44 0 2.06-.23 2.62-.98 4.1-.74 1.2-1.3 2-2.94 2.72-1.5.83-2.37 1.1-3.6 2.05-.92.6-1.9 1.2-2.93 1.72-.93.42-.5.23-2.3-1.03zm-10.1 7.84h.3c-.95 0-.4.06 1.32-1.02 1.4-1.46 2.5-1.97 4.24-2.73 1.33-.12 2.93-.47 3.92-1.04.8-.15 1.34-.65 1.96 0 1.02 1.45 1.3 1.86-.33 2.73-.78.68-2.16 1.38-3.26 1.7-.8.7-2.42.74-3.9 1.02-1.34 0-2.08.16-2.62-.68l2.6.68c-1.32 0-2.06.16-4.23-.68zm14.02 0v-.34c0 .95-.04.45.65-1.37 1.23-1.9 1.7-2.96 3.27-3.4.74-.95 2.02-1.2 3.6-1.72.58 1.04.12 2.23 0 3.43-.44 1.27-1.6 2.17-2.3 3.07-1 .72-1.43 1.42-2.93 1.7-1.25 0-.6-.03-2.3-1.36z"/><path d="M412.8 124.16c0 .94-.74 1.7-1.64 1.7-.9 0-1.64-.76-1.64-1.7s.73-1.7 1.64-1.7c.9 0 1.63.76 1.63 1.7z"/></g><g fill="#005120" fill-opacity=".996" fill-rule="evenodd" stroke="#002b0d" stroke-opacity=".996" stroke-width="1pt"><path d="M417.65 217.15h1.3c-4.1 0-1.64-.28 5.24 5.45 2.87-2.5 2.84-2.84 5.22 1.36 1.38 2.4 1.78-.25 3.92-2.72 1.04 4.94 1.7 10.13 5.24 5.44 4.04 0 8.27-.35 10.46 1.36 2.65 5.12 1.78-.87 3.93 1.36 5.76.72 5.65-5.14 11.92-6.65 3.9 5.07 5.6 1.17 10.46-1.36 3.6 1.04 7 6.73 7.7 1.2 2.95-5.02 3.2-4.6 5.23 0 2.86 2.7 4.07-1.35 6.53-2.72 4.38 2.66 9.26 3.03 15.7 1.36 1.1 4.53 3.83 2.57 6.54 1.36 5.8 2.53 7.8 3.3 14.4 0 3.25-4 1.4.1 3.9 2.72 4.9-1.57 3.54-1.9 9.17-1.36 5.65 0 6.1-.14 7.85-4.08 2.83 2.95 3.86 5.08 7.84 1.36 6.1.18 4.2.8 7.85-1.36 2.68 6.2 3.3 1.72 6.53 4.08-2.12 5.6-5.38 8.2-9.16 10.9-2.52 4.32-4.1 9-9.16 10.88-3.7 3.92-7.63 6.2-11.76 9.53-5.67 1.47-11.92 1.36-18.32 1.36h-54.94c-3.9 2.03-10.3 3-15.7 4.08-6.03 0-12.86.08-17-1.35-2.8-2.92-7.73-6.18-10.46-9.53-2.78-2.33-2.86-6.87-5.24-9.53-2.2-3.9-2.86-10-5.23-13.62v-9.53zM544.53 229.4v1.37c0-3.8.16-1.78-2.62 5.45-.55 1.75-1.78 2.16-3.9 2.72m-5.24-4.1h1.3c-4.83 4.77-8.1 6.96-9.15 12.26l9.17-12.25c-4.84 4.76-8.1 6.95-9.16 12.25m-10.46-19.04c0 .12-.18 4.85-1.3 6.8m-3.92 2.7v1.38-1.37zm-10.47-8.15h1.3-1.3c.44 0 .88 0 0 0zm-73.26 0c.62 0 3.2 4.33 6.53 6.82-.83 3.98-2.1 8.6 0 12.25m3.93-10.9c.62 0 3.2 4.33 6.54 6.8l-6.54-6.8c.62 0 3.2 4.33 6.54 6.8v1.37c0-4.2-.34-8.6 1.3-10.9 1.46 2.57 3.3 6.7 3.93 2.73 7.37-.27 10.92-2.42 15.7-4.08 0 2-.3 1.03 1.3 2.7m88.96-5.43h1.3c-2.47 2.14-4.36 6.5-6.54 9.53m-48.4-13.6h10.46"/></g><path fill="#fff" fill-rule="evenodd" d="M413.6 239.34c-15.7 0-20.9 16.4-36.6 16.4-.3 0-.6 0-.88-.02v1c-.06 11.37.83 21.96 2.46 31.85 14.5-1.05 19.87-16.4 35.03-16.4 15.72 0 20.96 16.44 36.66 16.44s20.94-16.44 36.65-16.44 20.95 16.45 36.66 16.45 20.94-16.44 36.64-16.44c15.13 0 20.52 15.25 34.92 16.38 1.73-10.16 2.64-21.07 2.58-32.8v-.02c-.3 0-.58.03-.9.03-15.7 0-20.9-16.4-36.6-16.4s-20.94 16.4-36.64 16.4-20.95-16.4-36.65-16.4-20.94 16.4-36.64 16.4-20.94-16.4-36.65-16.4zm0 64.07c-12.2 0-18.08 9.9-27.48 14.32a151.43 151.43 0 0 0 11.67 24.83c4.45-3.37 9.2-6.3 15.8-6.3 15.7 0 20.94 16.4 36.65 16.4 15.7 0 20.95-16.4 36.65-16.4s20.94 16.4 36.65 16.4 20.94-16.4 36.64-16.4c6.47 0 11.14 2.8 15.52 6.07a152.78 152.78 0 0 0 11.7-24.72c-9.24-4.47-15.12-14.2-27.22-14.2-15.7 0-20.95 16.4-36.65 16.4s-20.95-16.4-36.65-16.4-20.94 16.4-36.65 16.4-20.94-16.4-36.65-16.4zm73.3 64.06c-15.7 0-20.95 16.45-36.65 16.45-14.85 0-20.35-14.7-34.18-16.3 18.5 20.6 39.45 33.07 53.75 39.93 4.84-3.76 9.85 4.56 17.07 4.56 7.17 0 12.15-8.37 16.96-4.65 14.14-6.88 34.85-19.37 53.24-39.77-13.38 1.96-18.93 16.22-33.56 16.22-15.7 0-20.94-16.44-36.65-16.44z"/><g transform="matrix(1.18 0 0 1.18 -406.92 -18.22)"><path fill="none" stroke="#512007" stroke-opacity=".996" stroke-width=".475" d="M332.54 541.35c1.74-.58 10.17-3.2 10.46-2.9.3.28 16.28 15.7 16.28 15.7l-13.37 2.6-13.36-15.4z" transform="matrix(1.25 0 0 1.3 259.35 -430)"/><path fill="none" stroke="#512007" stroke-opacity=".996" stroke-width=".594" d="M413.64 471c.3-4.64 8.72-31.1 8.72-31.1m-5.82 31.42c0-.3 6.7-31.13 6.7-31.13m-4.4 31.17c.28-1.74 5.55-31.18 5.55-31.18m-10.47 27.03c1.45-.87 5.8-2.04 5.8-2.04m-3.77-2.62c1.45 0 4.36-1.16 4.36-1.16m-3.5-2.33c0-.3 4.37-1.17 4.37-1.17m-3.8-3.2l4.66-.87m-2.6-2.9c0 .28 3.2.28 3.2.28m-2.34-3.78c.58 0 3.2.58 3.2.58" transform="matrix(1.06 0 0 1.03 276.8 -177.96)"/><path fill="none" stroke="#512007" stroke-opacity=".996" stroke-width=".41" d="M413.64 471c.3-4.64 8.72-31.1 8.72-31.1m-5.82 30.23c0-.3 6.7-29.94 6.7-29.94m-3.8 27.6c.3-1.73 4.95-27.6 4.95-27.6m-10.47 27.03c1.45-.87 5.8-2.04 5.8-2.04m-3.77-2.62c1.45 0 4.36-1.16 4.36-1.16m-3.5-2.33c0-.3 4.37-1.17 4.37-1.17m-3.8-3.2l4.66-.87m-2.6-2.9c0 .28 3.2.28 3.2.28m-2.34-3.78c.58 0 3.2.58 3.2.58" transform="matrix(-1.25 0 0 1.76 1290.4 -502.06)"/><path fill="none" stroke="#512007" stroke-opacity=".996" stroke-width=".475" d="M413.64 471c.3-4.64 8.72-31.1 8.72-31.1m-5.82 30.23c0-.3 6.7-29.94 6.7-29.94m-3.8 27.6c.3-1.73 4.95-27.6 4.95-27.6m-10.47 27.03c1.45-.87 5.8-2.04 5.8-2.04m-3.77-2.62c1.45 0 4.36-1.16 4.36-1.16m-3.5-2.33c0-.3 4.37-1.17 4.37-1.17m-3.8-3.2l4.66-.87m-2.6-2.9c0 .28 3.2.28 3.2.28m-2.34-3.78c.58 0 3.2.58 3.2.58" transform="matrix(-1.25 0 0 1.3 1321.3 -301.92)"/><path fill="#dd8b59" fill-rule="evenodd" stroke="#512007" stroke-opacity=".996" stroke-width=".475" d="M395.32 572.16c0-.3.87-72.96.87-72.96s2.6-.3 2.6 0-.28 72.67-.57 72.96-3.2.58-2.9 0zm28.5-69.76c0 .58-.6 61.33-.6 61.33l-2.03 2.33.57-63.66h2.04zM363.06 560.24s2.9 29.94 36.34 29.07 42.73-30.22 42.73-30.22-14.25-.58-14.54-.58c-.3 0-11.64 13.95-26.17 13.66s-19.2-3.78-22.38-6.7c-3.2-2.9-6.1-7.25-6.1-7.25l-16.87-6.68.88 6.4 6.1 2.32zm90.24-3.1c-.3-.88-1-3.88-1-3.88v-3.48l1.6-3.54s-25.3 3.63-25.3 3.92c0-.34-.14 6.88-.14 6.88l24.84.1z" transform="matrix(1.25 0 0 1.3 259.35 -430)"/><path fill="none" stroke="#512007" stroke-opacity=".996" stroke-width=".475" d="M448.52 549.78l-.58 6.1H452l-.28-6.1h-3.2zm-4.36.3l-.3 6.38 2.62-.3.3-6.1h-2.62zm-4.36 6.38v-4.94l2.62-.87.3 4.94-2.92.86zm-4.95-.28l.58-4.36 2.9.3.3 4.64-3.78-.58zm-5.52 0l.3-3.78 2.9-.3v4.37l-3.2-.3zm-67.44 3.77c.86 0 7.55 1.45 7.55 1.45l6.97 9.3M366.84 561.12c.3.3 6.1 19.77 34 19.77s34.6-22.1 34.6-22.1M439.8 559.37s-13.37 29.07-38.95 27.03c-25.58-2.03-29.65-11.62-31.68-16.56-2.04-4.95-3.2-9-3.2-9" transform="matrix(1.25 0 0 1.3 259.35 -430)"/><path fill="#dd8b59" fill-rule="evenodd" stroke="#512007" stroke-opacity=".996" stroke-width=".475" d="M373.23 558.2c.3-1.74.3-54.35.3-54.35l-1.75-.3-.3 53.8 1.75.86zm-41.57-17.14l22.1 10.76-.6 1.45s-21.2-9.88-21.2-10.18c0-.3.28-1.46-.3-2.04zM341.84 537.86c0 .87 3.2 18.6 3.2 18.6s2.03.3 2.03 0-3.5-18.3-3.5-18.3l-1.73-.3zm20.34.58c1.16 0 20.93-3.2 20.93-3.2l-.28 3.2-19.48 2.04-1.16-2.04z" transform="matrix(1.25 0 0 1.3 259.35 -430)"/><path fill="#fecf3e" fill-rule="evenodd" stroke="#512007" stroke-opacity=".996" stroke-width=".475" d="M365.1 514.32c.57 0 6.97 3.2 9.58 2.33s.87-2.9 1.45-2.9c.6 0 2.62 1.44 3.78.28 1.18-1.16 2.05-4.65 1.47-4.36-.58.3-16 5.8-16.28 4.65z" transform="matrix(1.25 0 0 1.3 259.35 -430)"/><path fill="#dd8b59" fill-rule="evenodd" stroke="#512007" stroke-opacity=".996" stroke-width=".475" d="M362.48 521.58c1.16.3 23.84-6.1 23.84-6.1s0 2.03-.3 2.03-23.54 6.12-23.54 6.12v-2.04z" transform="matrix(1.25 0 0 1.3 259.35 -430)"/><path fill="#fecf3e" fill-rule="evenodd" stroke="#512007" stroke-opacity=".996" stroke-width=".475" d="M415.1 512.57s1.44 3.5 2.9 2.9 2.9-1.74 2.9-1.74 1.17 2.9 3.2 2.33c2.04-.58 3.2-3.78 3.2-3.78s2.03.58 2.9.3c.88-.3 2.04-4.95 2.04-4.95l-17.15 4.94zm-1.76 28.2c-.3.58 1.45 2.04 2.9 2.04s2.04-2.03 2.33-1.45c.3.58.3 3.2 4.07 2.33s3.78-3.5 3.78-3.5-1.16.88 1.45 1.17c2.62.3 5.24-3.78 4.95-3.78-.3 0-18.9 3.5-19.48 3.2z" transform="matrix(1.25 0 0 1.3 259.35 -430)"/><path fill="#dd8b59" fill-rule="evenodd" stroke="#512007" stroke-opacity=".996" stroke-width=".475" d="M363.35 513.15c-.3 1.16.3 2.62.3 2.62l18.88-6.4s.88-1.45 0-1.45-19.47 5.8-19.18 5.23zm25-4.07c.58 0 19.48-6.1 19.48-6.1s.3 2.6 0 2.6-17.73 5.24-17.73 5.24l-1.75-1.74z" transform="matrix(1.25 0 0 1.3 259.35 -430)"/><path fill="#fecf3e" fill-rule="evenodd" stroke="#512007" stroke-opacity=".996" stroke-width=".475" d="M413.34 521.88s-2.9 3.2-2.04 7.56c.88 4.36 2.04 8.14 2.33 8.14s3.5-5.82 6.98-6.1 9.9 3.2 9.9 3.2-.88-7-.6-10.18c.3-3.2 5.24-8.72 5.24-8.72l-21.8 6.1z" transform="matrix(1.25 0 0 1.3 259.35 -430)"/><path fill="#dd8b59" fill-rule="evenodd" stroke="#512007" stroke-opacity=".996" stroke-width=".475" d="M386.9 516.64s-.6 2.62-.3 2.62 24.7-6.4 24.7-6.4v-1.74l-24.4 5.52z" transform="matrix(1.25 0 0 1.3 259.35 -430)"/><path fill="#b6b6b4" fill-opacity=".996" fill-rule="evenodd" stroke="#512007" stroke-opacity=".996" stroke-width=".475" d="M355.5 551.82s-5.8-.87-5.52.58c.3 1.45 2.9 2.9 3.2 3.78.28.87-.88 4.07.87 3.78 1.74-.3 3.48-1.46 3.48-2.33s-.3-4.94-.3-4.94l-1.73-.88z" transform="matrix(1.25 0 0 1.3 259.35 -430)"/><path fill="#dd8b59" fill-rule="evenodd" stroke="#512007" stroke-opacity=".996" stroke-width=".475" d="M387.76 537.28v2.03l20.93-2.9-.6-1.45-20.34 2.33z" transform="matrix(1.25 0 0 1.3 259.35 -430)"/><path fill="#fecf3e" fill-rule="evenodd" stroke="#512007" stroke-opacity=".996" stroke-width=".475" d="M363.06 540.77c.3 0 0 2.62 2.33 2.04 2.3-.58 2.9-2.03 2.9-2.03s.57 3.2 3.77 2.9c3.2-.28 4.94-3.77 4.94-3.77s.3 2.6 2.34 1.74 2.6-2.9 2.6-2.9l-18.3 2.6-.58-.57zm0-17.15s-2.62.87-1.74 6.1 2.9 8.14 3.2 8.14c.28 0 2.6-4.94 6.1-5.8 3.5-.88 9.6 2.6 9.6 2.6s-.6-4.64.28-9c.87-4.37 3.78-7.56 3.78-7.56s-20.35 5.52-21.22 5.52z" transform="matrix(1.25 0 0 1.3 259.35 -430)"/><path fill="#dd8b59" fill-rule="evenodd" stroke="#512007" stroke-opacity=".996" stroke-width=".475" d="M411.9 538.73l.28 1.74s20.93-2.6 20.93-2.9c0-.3 0-2.04-.28-2.04-.3 0-20.64 3.5-20.93 3.2zm-.3-18.6l.3 2.03 24.7-6.68s.58-1.75.3-1.75-24.72 7.27-25.3 6.4z" transform="matrix(1.25 0 0 1.3 259.35 -430)"/><path fill="none" stroke="#512007" stroke-opacity=".996" stroke-width=".475" d="M414.22 510.83s-.3 1.74 0 1.74 18.3-4.36 18.3-4.65c0-.3 1.76-2.03.3-1.74-1.45.3-18.02 5.52-18.6 4.65zm38.66 33.72l-18.03-28.5m-2.32 19.78c.3-.87 1.16-18.3 1.16-18.3" transform="matrix(1.25 0 0 1.3 259.35 -430)"/><path fill="#fecf3e" fill-rule="evenodd" stroke="#512007" stroke-opacity=".996" stroke-width=".475" d="M388.93 509.96c1.16.3 3.2 3.2 4.36 2.62 1.15-.58 2.9-2.33 2.9-2.33s-.3 3.5 2.03 2.9c2.33-.57 2.62-2.9 2.62-2.9s1.74.88 3.2 0c1.45-.87 2.9-5.23 2.32-5.23s-16.86 5.23-17.44 4.94zm-.58 8.43c0 .57-2.9 5.22-2.04 9.58s2.63 8.43 2.92 8.43 4.65-4.64 8.43-5.5c3.78-.88 9.3 2.9 9 2.9-.28 0-1.44-4.37-1.44-7.56 0-3.2 4.37-13.08 4.37-13.08l-21.22 5.23zm0 20.92c0 .3.87 2.33 2.9 2.33 2.04 0 2.33-2.04 2.33-2.04s-.3 3.5 2.9 3.2c3.2-.28 4.37-3.48 4.37-3.48s.3 1.75 2.9.87c2.62-.88 6.1-3.8 5.82-3.8-.3 0-20.93 3.8-21.22 2.92z" transform="matrix(1.25 0 0 1.3 259.35 -430)"/><use width="992.126" height="496.063" xlink:href="#k" transform="translate(-6.56 7.28)"/><use width="992.126" height="496.063" xlink:href="#k" transform="translate(6.56 3.76)"/><use width="992.126" height="496.063" xlink:href="#k" transform="translate(0 11.03)"/><path id="k" fill="#be0f17" fill-opacity=".996" fill-rule="evenodd" stroke="#512007" stroke-opacity=".996" stroke-width=".581" d="M408.98 476.96a1.9 1.9 0 1 1-3.78 0 1.9 1.9 0 0 1 3.78 0z" transform="matrix(.04 -1.07 1.02 .04 251.6 667.92)"/><path fill="none" stroke="#512007" stroke-opacity=".996" stroke-width=".475" d="M398.23 500.07c0-.3 9 3.78 9 4.07 0 .3 31.98 42.73 32.28 42.73m-15.98-42.73l8.14 3.5 2.62 6.38m-61.34-10.46c-.3 0 9 6.98 9 6.98l1.17 5.8M341.27 546c4.07-1.74 32.27-26.45 32.27-26.45m-39.83 21.8c3.5-2.9 31.68-26.74 31.68-26.74m21.22 4.08l29.94 49.7M413 539.24s3.54 11.7 7.03 13.46 7.56 4.64 7.56 4.64M412.6 539.48s2.5 13.8 5.98 16.4 6.98 5.53 6.98 5.53" transform="matrix(1.25 0 0 1.3 259.35 -430)"/><path fill="none" stroke="#512007" stroke-opacity=".996" stroke-width=".475" d="M390.96 439.03s3.5 19.18 10.46 23.55c6.98 4.36 12.8 8.14 12.8 8.14M390.67 438.74s7.56 15.12 13.95 19.77c6.4 4.66 15.12 9.02 15.12 9.02m-53.48-27.62c2.03 3.5 1.74 10.17 4.07 12.5 2.32 2.33 5.8 7.56 5.8 7.56M366.84 440.2c1.16 1.73 4.4 10.42 6.4 13.07 1.45 2.33 16.27 17.15 16.27 17.15" transform="matrix(1.25 0 0 1.3 256.26 -299.49)"/><path fill-rule="evenodd" stroke="#512007" stroke-opacity=".996" stroke-width=".475" d="M384.57 471.15a2.18 2.18 0 1 1-4.36 0 2.18 2.18 0 0 1 4.37 0zm10.75 4.65a1.9 1.9 0 1 1-3.78 0 1.9 1.9 0 0 1 3.78 0zm13.66 1.16a1.9 1.9 0 1 1-3.78 0 1.9 1.9 0 0 1 3.78 0zm11.92-4.5c0 .96-.72 1.74-1.6 1.74-.88 0-1.6-.78-1.6-1.74s.72-1.74 1.6-1.74c.9 0 1.6.78 1.6 1.74zm9.6-5.67c0 .87-.86 1.6-1.9 1.6s-1.9-.73-1.9-1.6c0-.9.86-1.6 1.9-1.6s1.9.7 1.9 1.6z" transform="matrix(1.25 0 0 1.3 256.26 -299.49)"/><path fill="#f00" fill-opacity=".996" fill-rule="evenodd" stroke="#512007" stroke-opacity=".996" stroke-width=".475" d="M374.1 404.44c-.87.58-15.4 4.07-13.37 3.78 2.03-.3 13.66 2.9 13.37 2.03s0-5.23 0-5.8zm24.7-4.36c-.57 0-9 3.2-8.7 3.2s9.58 2.6 9.3 2.03c-.3-.57-.3-4.35-.6-5.22zm25.3 2.9c-.58.3-10.46 2.63-8.72 2.92s8.43 2.6 8.43 2.03c0-.58 0-4.65.3-4.94z" transform="matrix(1.25 0 0 1.3 256.26 -299.49)"/><path fill="none" stroke="#512007" stroke-opacity=".996" stroke-width=".475" d="M413.64 471c.3-4.64 8.72-31.1 8.72-31.1m-5.82 30.23c0-.3 6.7-29.94 6.7-29.94m-3.8 27.6c.3-1.73 4.95-27.6 4.95-27.6m-10.47 27.03c1.45-.87 5.8-2.04 5.8-2.04m-3.77-2.62c1.45 0 4.36-1.16 4.36-1.16m-3.5-2.33c0-.3 4.37-1.17 4.37-1.17m-3.8-3.2l4.66-.87m-2.6-2.9c0 .28 3.2.28 3.2.28m-2.34-3.78c.58 0 3.2.58 3.2.58" transform="matrix(1.25 0 0 1.3 256.26 -299.49)"/><path fill="none" stroke="#512007" stroke-opacity=".996" stroke-width=".475" d="M413.64 471c.3-4.64 8.72-31.1 8.72-31.1m-5.82 31.42c0-.3 6.7-31.13 6.7-31.13m-4.4 31.17c.28-1.74 5.55-31.18 5.55-31.18m-10.47 27.03c1.45-.87 5.8-2.04 5.8-2.04m-3.77-2.62c1.45 0 4.36-1.16 4.36-1.16m-3.5-2.33c0-.3 4.37-1.17 4.37-1.17m-3.8-3.2l4.66-.87m-2.6-2.9c0 .28 3.2.28 3.2.28m-2.34-3.78c.58 0 3.2.58 3.2.58" transform="matrix(1.25 0 0 1.36 225.31 -323.36)"/><path fill="none" stroke="#512007" stroke-opacity=".996" stroke-width=".474" d="M413.64 471c.3-4.64 8.72-31.1 8.72-31.1m-5.82 30.23c0-.3 6.7-29.94 6.7-29.94m-3.8 27.6c.3-1.73 4.95-27.6 4.95-27.6m-10.47 27.03c1.45-.87 5.8-2.04 5.8-2.04m-3.77-2.62c1.45 0 4.36-1.16 4.36-1.16m-3.5-2.33c0-.3 4.37-1.17 4.37-1.17m-3.8-3.2l4.66-.87m-2.6-2.9c0 .28 3.2.28 3.2.28m-2.34-3.78c.58 0 3.2.58 3.2.58" transform="matrix(-1.25 0 0 1.32 1259.2 -307.28)"/><path fill="#dd8b59" fill-rule="evenodd" stroke="#512007" stroke-opacity=".996" stroke-width=".475" d="M426.42 558.5l27.6.58.3-2.03-28.48-.3.58 1.75zm1.17-7.27c3.2 0 27.3-4.65 27.3-4.65s.9-2.9 0-2.9-27.3 5.52-27.3 5.52v2.03z" transform="matrix(1.25 0 0 1.3 259.35 -430)"/><use width="992.126" height="496.063" xlink:href="#k" transform="translate(0 5.52)"/></g></svg>