<svg xmlns="http://www.w3.org/2000/svg" viewBox="0 0 511.269 511.269" enable-background="new 0 0 511.269 511.269"><path fill="#F3705A" d="M140.37 465.07c-23.47-26.67-46.94-54.4-61.87-87.47-14.93-35.2-19.2-75.73-11.73-114.13s24.53-74.67 49.06-105.6c-2.13 26.66 7.47 54.4 25.6 74.66-10.66-51.2 6.4-106.66 40.54-147.2S263.03 18.13 312.1 0c-24.53 25.6-27.73 66.13-18.13 100.27 9.6 34.13 29.86 64 48 94.93 18.13 30.93 35.2 62.93 36.26 98.13 9.6-18.13 20.27-36.26 26.67-56.53 6.4-20.27 9.6-41.6 4.27-61.87 19.2 23.47 29.87 46.94 35.2 76.8 5.33 29.87 4.27 60.8 1.07 90.67-4.27 33.07-12.8 67.2-30.94 94.93-21.33 33.07-55.46 56.54-92.8 69.34-66.13 11.73-131.2 2.13-181.33-41.6z"/><path fill="#FFD15C" d="M221.43 504.53C308.9 538.67 395.3 435.2 347.3 355.2c0-1.07-1.07-1.07-1.07-2.13 4.27 43.73-6.4 75.73-26.66 93.86 10.66-25.6 3.2-55.46-9.6-81.06-12.8-24.54-30.94-46.94-44.8-70.4-13.87-24.54-24.54-52.27-18.14-80-25.6 19.2-43.73 48-51.2 78.93-7.46 30.93-3.2 65.07 10.67 93.87-16-11.74-27.73-30.94-28.8-51.2-17.07 20.26-27.73 46.93-26.67 73.6 0 41.6 33.07 78.93 70.4 93.86z"/></svg>