<svg xmlns="http://www.w3.org/2000/svg" width="640" height="480"><defs><clipPath id="a"><path fill-opacity=".67" d="M-81.33 0h682.67v512H-81.33z"/></clipPath></defs><g fill-rule="evenodd" clip-path="url(#a)" transform="translate(76.25) scale(.94)"><path fill="#6797d6" d="M-252 0H772v512H-252z"/><path fill="#fff" d="M259.8 122.98l-32.45 22.22 12.43-35.9-32.48-22.18 40.13.04 12.36-35.92 12.36 35.92 40.12-.03-32.48 22.17 12.43 35.9M259.8 390.05l-32.45-22.2 12.43 35.9-32.47 22.16 40.13-.02 12.36 35.92 12.36-35.92 40.12.02-32.48-22.16 12.43-35.9m-188.4-92.47L79.33 306.1l1.4-37.97-37.53-11.7 38.38-11.7 1.32-37.97 22.33 30.73 38.36-11.76-24.58 30.7 22.4 30.7m274.26-11.77l24.53 30.73-1.4-37.97 37.55-11.7-38.38-11.7-1.32-37.97-22.33 30.73-38.37-11.76 24.58 30.7-22.38 30.7"/></g></svg>