<svg xmlns="http://www.w3.org/2000/svg" width="640" height="480" xmlns:xlink="http://www.w3.org/1999/xlink"><rect width="640" height="480" fill="#fff" fill-rule="evenodd" rx="0" ry="0"/><rect id="a" width="640" height="96" y="192" fill="#c00" fill-rule="evenodd" ry="0" rx="0"/><use width="600" height="300" xlink:href="#a" transform="matrix(0 .75 -1 0 560 0)"/><path fill="#ebeae3" fill-rule="evenodd" stroke="#000" stroke-width=".522" d="M355.2 146.6c3.08-4.8 1.24-7.92-3.42-8.88 0 0-14.86 4.76-30.92 5.28-16.06.53-35.13-4.03-35.13-4.03-3.42 2.14-2.6 7.24-.9 10.42 0 0 16.82 5.57 35.95 5.02 12.16-.35 23.67-3.45 30.13-5.5 3.73-1.18 4.3-2.26 4.3-2.3z"/><path fill="#fff" stroke="#161111" stroke-width="1.6" d="M320 357.55l-30.86-64.1-70.94 5.33L258.3 240l-40.1-58.78 70.94 5.33 30.86-64.1 30.86 64.1 70.94-5.33L381.7 240l40.1 58.78-70.94-5.33z"/><path fill="#b02320" fill-rule="evenodd" stroke="#000" stroke-width="1.304" d="M319.54 122.23c38.76 6.4 37.38 8.2 37.38 8.2l10.1-30.25s1.08-5.96-1.7-9.58c-2.76-3.62-10.53-1.6-10.53-1.6s-1.08-4.9-4.48-6.07c-3.4-1.17-16.08 4.58-20.02 5.86-3.94 1.27-5.97 2.54-11.5 2.44-5.54-.1-15.45-5-17.26-5.97-1.8-.95-4.47-1.9-6.92-1.8-2.45.1-5 .74-6.28 2.44-1.28 1.72-1.28 3.85-1.28 3.85s-2.03-1.28-5.22-1.28c-3.2 0-5 .42-6.5 2.13-1.5 1.7-3.4 6.5-3.4 6.5l3.62 8.2.2 11.28 7.57 11.93 36.2-6.27z"/><path fill="#ebeae3" fill-rule="evenodd" stroke="#000" stroke-width=".522" d="M355.67 139.3s1.96 2.34 1.88 3.17c-.07.82-.9 1.57-.9 1.57s.6.6.45 1.5c-.15.9-1.35.98-1.35.98s.22.83-.53 1.2c-.75.38-3.83 1.05-3.83 1.05s-15.02-4.28-31.08-4.28c-16.07 0-35 5.18-35 5.18s-1.94-.68-2-1.96c-.1-1.27.2-2.17.2-2.17s-1.06.1-1.34-.83c-.4-1.3.15-2.33.15-2.33s-.74.23.08-1.5c.6-1.28 1.5-1.73 1.5-1.73s16.82-6 35.97-6.08c19.14-.1 35.8 6.07 35.8 6.22z"/><path fill="none" stroke="#000" stroke-width="1.147" d="M276.23 101.5s-.64-2.18.77-4.1c1.4-1.93 3.97-1.8 4.74-1.42.77.4.64 1.3 1.67 1.54 1.03.26 1.8-.5 1.8-.5"/><path fill="#fc0" fill-opacity=".941" fill-rule="evenodd" stroke="#000" stroke-width="1.2" d="M369.82 106.6L364 118.64l-2.3.4s-1.38-.83-5.37-.56c-2.85.2-3.7.93-3.7.93l5.2-12s.4 2.58 1 4.1c.76 1.92 3.65 3.73 3.65 3.73s.4-2.3-.37-5.1c-.83-3.1-2.8-7.27-2.8-7.27l10.52 3.74z"/><path fill="#121116" stroke="#121116" stroke-width="1.17" d="M316.5 69.16h6.5v27.7h-6.5z" stroke-linejoin="round"/><path fill="#f6ca1f" fill-rule="evenodd" stroke="#000" stroke-width=".991" d="M276.56 120.23l4.18 8.96s17.8-6.95 38.84-6.82c31.53.2 40.5 6.52 40.5 6.52l4.66-11.1-3.5 2.05-3.6 2.23-4.1 1.56-4.96-.4-4.38-3.2-2.24-4.67-3.7 3.4-6.52 1.47-6.42-1.66-5.64-7.1s-4.2 7.9-9.54 8.37c-7.7.68-12.17-3.7-12.17-3.7s-2.86 6.42-7.6 7.6c-7.48 1.84-13.7-3.52-13.8-3.52z"/><path fill="#eee" stroke="#1e1e1e" stroke-width="1.17" d="M348.45 65.65c0 1.88-1.5 3.4-3.36 3.4-1.87 0-3.38-1.5-3.38-3.4 0-1.87 1.5-3.4 3.34-3.4 1.86-.03 3.37 1.5 3.4 3.37" stroke-linejoin="round"/><path fill="#a3afb8" fill-rule="evenodd" d="M343.5 67.4s2.73-.05 3-1.15c.3-1.1-.17-2.54-.17-2.54s1.3 1.44.92 2.55c-.37 1.1-.73 1.4-1.66 1.6-.64.16-1.58-.08-2.1-.45z"/><path fill="#eee" stroke="#1e1e1e" stroke-width="1.17" d="M340.27 69.47c0 1.88-1.5 3.4-3.36 3.4-1.84 0-3.35-1.5-3.36-3.4 0-1.87 1.5-3.4 3.35-3.4 1.84-.02 3.36 1.5 3.37 3.37" stroke-linejoin="round"/><path fill="#a3afb8" fill-rule="evenodd" d="M335.34 71.22s2.72-.05 3-1.15c.27-1.1-.2-2.54-.2-2.54s1.3 1.43.93 2.54c-.37 1.1-.73 1.4-1.66 1.6-.62.16-1.55-.08-2.06-.45z"/><path fill="#eee" stroke="#1e1e1e" stroke-width="1.17" d="M357.94 63.4c0 1.9-1.5 3.4-3.36 3.42-1.85 0-3.36-1.52-3.37-3.4 0-1.88 1.5-3.4 3.35-3.43 1.86-.02 3.37 1.5 3.4 3.38" stroke-linejoin="round"/><path fill="#a3afb8" fill-rule="evenodd" d="M353 65.16s2.73-.05 3-1.16c.28-1.1-.18-2.53-.18-2.53s1.3 1.43.92 2.53c-.37 1.1-.73 1.4-1.66 1.62-.63.15-1.57-.1-2.07-.46z"/><path fill="#eee" stroke="#1e1e1e" stroke-width="1.17" d="M368.63 65.56c0 1.88-1.5 3.4-3.36 3.4-1.85 0-3.36-1.5-3.37-3.4 0-1.87 1.5-3.4 3.35-3.4 1.85-.02 3.37 1.5 3.38 3.37" stroke-linejoin="round"/><path fill="#a3afb8" fill-rule="evenodd" d="M363.7 67.3s2.72-.04 3-1.14c.27-1.1-.2-2.54-.2-2.54s1.3 1.43.93 2.54c-.37 1.1-.73 1.4-1.66 1.6-.63.16-1.56-.08-2.07-.45z"/><path fill="#eee" stroke="#1e1e1e" stroke-width="1.17" d="M376.78 72.27c0 1.88-1.5 3.4-3.36 3.4-1.85.02-3.36-1.5-3.37-3.38 0-1.9 1.5-3.43 3.34-3.44 1.85 0 3.37 1.5 3.38 3.4" stroke-linejoin="round"/><path fill="#a3afb8" fill-rule="evenodd" d="M371.85 74.02s2.72-.04 3-1.15c.27-1.1-.2-2.53-.2-2.53s1.3 1.42.93 2.53c-.37 1.1-.73 1.4-1.66 1.6-.63.17-1.57-.08-2.07-.45z"/><path fill="#eee" stroke="#1e1e1e" stroke-width="1.17" d="M380.3 83.3c0 1.87-1.5 3.4-3.36 3.4-1.85 0-3.36-1.5-3.37-3.4 0-1.88 1.5-3.4 3.35-3.42 1.85 0 3.37 1.5 3.38 3.38" stroke-linejoin="round"/><path fill="#a3afb8" fill-rule="evenodd" d="M375.37 85.04s2.72-.05 3-1.15c.27-1.12-.2-2.55-.2-2.55s1.3 1.43.93 2.54c-.37 1.1-.73 1.38-1.66 1.6-.63.15-1.56-.1-2.07-.46z"/><path fill="#eee" stroke="#1e1e1e" stroke-width="1.17" d="M379 94.44c0 1.88-1.5 3.4-3.36 3.4-1.86 0-3.37-1.5-3.37-3.4 0-1.87 1.5-3.4 3.34-3.4 1.87-.02 3.38 1.5 3.4 3.37" stroke-linejoin="round"/><path fill="#a3afb8" fill-rule="evenodd" d="M374.06 96.2s2.72-.06 3-1.16c.28-1.1-.18-2.54-.18-2.54s1.3 1.43.92 2.54c-.37 1.1-.73 1.4-1.66 1.6-.63.16-1.57-.08-2.08-.45z"/><path fill="#eee" stroke="#1e1e1e" stroke-width="1.17" d="M374.04 104.22c0 1.88-1.5 3.4-3.36 3.4-1.85 0-3.36-1.5-3.37-3.4 0-1.87 1.5-3.4 3.36-3.4 1.85-.02 3.37 1.5 3.38 3.37" stroke-linejoin="round"/><path fill="#a3afb8" fill-rule="evenodd" d="M369.1 105.97s2.73-.05 3-1.15c.28-1.1-.18-2.54-.18-2.54s1.3 1.43.92 2.54c-.37 1.1-.73 1.4-1.66 1.6-.63.16-1.56-.08-2.07-.45z"/><path fill="#eee" stroke="#1e1e1e" stroke-width="1.17" d="M332.32 72.4c0 1.88-1.5 3.4-3.36 3.4-1.86.02-3.36-1.5-3.37-3.38-.02-1.9 1.48-3.42 3.33-3.43 1.86-.02 3.37 1.5 3.4 3.38" stroke-linejoin="round"/><path fill="#a3afb8" fill-rule="evenodd" d="M327.4 74.15s2.7-.04 2.98-1.15c.28-1.1-.18-2.53-.18-2.53s1.3 1.43.92 2.53c-.37 1.1-.73 1.4-1.66 1.6-.63.17-1.57-.08-2.07-.44z"/><path fill="#eee" stroke="#1e1e1e" stroke-width="1.17" d="M322.15 71.53c0 1.57-1.26 2.85-2.8 2.85-1.56 0-2.82-1.27-2.83-2.84 0-1.57 1.25-2.85 2.8-2.86 1.55 0 2.82 1.25 2.83 2.83" stroke-linejoin="round"/><path fill="#a3afb8" fill-rule="evenodd" d="M318.03 73s2.27-.04 2.5-.97c.23-.92-.15-2.12-.15-2.12s1.08 1.2.77 2.13c-.3.93-.6 1.17-1.4 1.35-.52.13-1.3-.08-1.72-.38z"/><path fill="#eee" stroke="#1e1e1e" stroke-width="1.17" d="M322.18 75.08c0 1.57-1.25 2.85-2.8 2.85-1.56 0-2.82-1.27-2.82-2.84 0-1.6 1.24-2.87 2.8-2.88 1.54 0 2.8 1.26 2.82 2.83" stroke-linejoin="round"/><path fill="#a3afb8" fill-rule="evenodd" d="M318.06 76.54s2.27-.04 2.5-.96c.23-.93-.15-2.12-.15-2.12s1.1 1.2.78 2.12c-.3.92-.6 1.16-1.4 1.35-.5.12-1.3-.08-1.72-.4z"/><path fill="#eee" stroke="#1e1e1e" stroke-width="1.17" d="M322.38 80.3c0 1.56-1.26 2.84-2.8 2.84-1.56 0-2.82-1.26-2.83-2.84 0-1.57 1.25-2.85 2.8-2.86 1.55 0 2.82 1.26 2.83 2.83" stroke-linejoin="round"/><path fill="#a3afb8" fill-rule="evenodd" d="M318.25 81.76s2.28-.04 2.5-.97c.24-.93-.14-2.13-.14-2.13s1.08 1.2.78 2.12c-.3.92-.6 1.16-1.4 1.34-.52.13-1.3-.08-1.73-.38z"/><path fill="#eee" stroke="#1e1e1e" stroke-width="1.17" d="M322.67 85.83c0 1.7-1.36 3.08-3.04 3.1-1.68 0-3.04-1.38-3.05-3.1 0-1.7 1.35-3.07 3.03-3.08 1.7 0 3.06 1.36 3.07 3.06" stroke-linejoin="round"/><path fill="#a3afb8" fill-rule="evenodd" d="M318.2 87.42s2.47-.05 2.72-1.05-.17-2.3-.17-2.3 1.17 1.3.84 2.3c-.35 1-.67 1.26-1.5 1.46-.58.14-1.43-.08-1.9-.4z"/><path fill="#eee" stroke="#1e1e1e" stroke-width="1.17" d="M323 93.27c0 1.88-1.5 3.4-3.36 3.4-1.86 0-3.37-1.5-3.37-3.4 0-1.87 1.48-3.4 3.34-3.42 1.87 0 3.38 1.5 3.4 3.4" stroke-linejoin="round"/><path fill="#a3afb8" fill-rule="evenodd" d="M318.06 95.02s2.72-.05 3-1.16c.28-1.1-.18-2.53-.18-2.53s1.3 1.43.92 2.53c-.37 1.1-.73 1.4-1.66 1.62-.63.15-1.57-.1-2.08-.46z"/><path fill="#eee" stroke="#1e1e1e" stroke-width="1.17" d="M322.66 108.52c0 1.76-1.4 3.2-3.16 3.2-1.74 0-3.16-1.42-3.16-3.2 0-1.76 1.4-3.2 3.14-3.2 1.74-.02 3.16 1.4 3.18 3.17" stroke-linejoin="round"/><path fill="#a3afb8" fill-rule="evenodd" d="M318.02 110.16s2.56-.04 2.82-1.08c.26-1.04-.17-2.38-.17-2.38s1.2 1.34.86 2.38c-.34 1.04-.68 1.3-1.56 1.52-.6.14-1.47-.1-1.95-.44z"/><path fill="#eee" stroke="#1e1e1e" stroke-width="1.17" d="M313.55 72.3c0 1.9-1.5 3.42-3.36 3.42-1.86 0-3.37-1.5-3.38-3.4 0-1.88 1.5-3.4 3.35-3.42 1.85 0 3.37 1.5 3.38 3.38" stroke-linejoin="round"/><path fill="#a3afb8" fill-rule="evenodd" d="M308.62 74.06s2.72-.04 3-1.15c.27-1.1-.2-2.52-.2-2.52s1.3 1.42.93 2.53c-.37 1.12-.73 1.4-1.66 1.62-.64.15-1.57-.1-2.08-.46z"/><path fill="#eee" stroke="#1e1e1e" stroke-width="1.17" d="M305.2 69.02c0 1.88-1.5 3.4-3.35 3.4-1.86.02-3.36-1.5-3.37-3.38 0-1.9 1.5-3.42 3.34-3.43 1.86 0 3.37 1.5 3.4 3.4" stroke-linejoin="round"/><path fill="#a3afb8" fill-rule="evenodd" d="M300.28 70.77s2.72-.04 3-1.15c.27-1.1-.2-2.54-.2-2.54s1.3 1.43.93 2.54c-.36 1.1-.72 1.4-1.65 1.6-.63.16-1.57-.08-2.07-.45z"/><path fill="#eee" stroke="#1e1e1e" stroke-width="1.17" d="M297.22 65.26c0 1.88-1.5 3.4-3.36 3.4-1.86.02-3.36-1.5-3.37-3.38-.02-1.9 1.48-3.42 3.33-3.43 1.86 0 3.37 1.5 3.4 3.38" stroke-linejoin="round"/><path fill="#a3afb8" fill-rule="evenodd" d="M292.3 67s2.7-.03 2.98-1.14c.28-1.1-.18-2.54-.18-2.54s1.3 1.43.92 2.54c-.37 1.1-.73 1.4-1.66 1.6-.63.16-1.57-.08-2.07-.45z"/><path fill="#eee" stroke="#1e1e1e" stroke-width="1.17" d="M288.05 63.26c0 1.9-1.5 3.4-3.36 3.42-1.86 0-3.37-1.52-3.38-3.4 0-1.9 1.5-3.42 3.35-3.43 1.85 0 3.37 1.5 3.38 3.4" stroke-linejoin="round"/><path fill="#a3afb8" fill-rule="evenodd" d="M283.12 65.02s2.72-.05 3-1.16c.27-1.1-.2-2.53-.2-2.53s1.3 1.43.93 2.53c-.37 1.1-.73 1.4-1.66 1.62-.64.15-1.57-.1-2.08-.46z"/><path fill="#eee" stroke="#1e1e1e" stroke-width="1.17" d="M277.24 65.85c0 1.88-1.5 3.4-3.36 3.4-1.85 0-3.36-1.5-3.37-3.4 0-1.87 1.5-3.4 3.36-3.4 1.85-.02 3.37 1.5 3.38 3.37" stroke-linejoin="round"/><path fill="#a3afb8" fill-rule="evenodd" d="M272.3 67.6s2.73-.05 3-1.15c.28-1.1-.18-2.54-.18-2.54s1.3 1.44.92 2.55c-.37 1.1-.73 1.4-1.66 1.6-.63.16-1.56-.08-2.07-.45z"/><path fill="#eee" stroke="#1e1e1e" stroke-width="1.17" d="M269.6 73.5c0 1.87-1.5 3.4-3.36 3.4-1.85 0-3.36-1.52-3.37-3.4 0-1.88 1.5-3.4 3.35-3.42 1.85-.02 3.37 1.5 3.38 3.38" stroke-linejoin="round"/><path fill="#a3afb8" fill-rule="evenodd" d="M264.67 75.24s2.72-.05 3-1.15c.27-1.12-.2-2.55-.2-2.55s1.3 1.43.93 2.54c-.36 1.1-.73 1.38-1.66 1.6-.63.15-1.56-.1-2.07-.46z"/><path fill="#eee" stroke="#1e1e1e" stroke-width="1.17" d="M266.43 84.18c0 1.88-1.5 3.4-3.36 3.4-1.85.02-3.36-1.5-3.37-3.4 0-1.87 1.5-3.4 3.34-3.4 1.86-.02 3.37 1.5 3.4 3.37" stroke-linejoin="round"/><path fill="#a3afb8" fill-rule="evenodd" d="M261.5 85.93s2.72-.04 3-1.15c.27-1.1-.2-2.54-.2-2.54s1.3 1.43.93 2.54c-.37 1.1-.73 1.4-1.66 1.6-.63.16-1.57-.08-2.07-.45z"/><path fill="#eee" stroke="#1e1e1e" stroke-width="1.17" d="M267.84 95.34c0 1.9-1.5 3.4-3.36 3.42-1.86 0-3.36-1.52-3.37-3.4 0-1.88 1.5-3.42 3.35-3.43 1.86 0 3.37 1.5 3.4 3.4" stroke-linejoin="round"/><path fill="#a3afb8" fill-rule="evenodd" d="M262.9 97.1s2.73-.05 3-1.16c.28-1.1-.18-2.53-.18-2.53s1.3 1.44.92 2.54c-.37 1.1-.73 1.4-1.66 1.62-.63.15-1.57-.1-2.07-.46z"/><path fill="#eee" stroke="#1e1e1e" stroke-width="1.17" d="M273 105.45c0 1.88-1.5 3.4-3.35 3.4-1.85.02-3.36-1.5-3.37-3.4 0-1.87 1.5-3.4 3.35-3.4 1.85-.02 3.37 1.5 3.38 3.37" stroke-linejoin="round"/><path fill="#a3afb8" fill-rule="evenodd" d="M268.08 107.2s2.72-.04 3-1.15c.27-1.1-.2-2.54-.2-2.54s1.3 1.44.93 2.55c-.36 1.1-.72 1.4-1.65 1.6-.63.16-1.57-.08-2.07-.45z"/><path fill="#eee" stroke="#1e1e1e" d="M430.63 247.4c0 3.62-2.88 6.54-6.44 6.55-3.57 0-6.46-2.9-6.48-6.5 0-3.62 2.86-6.56 6.42-6.58 3.56-.02 6.46 2.88 6.5 6.5" stroke-linejoin="round" transform="matrix(.316 -.085 .135 .504 109.39 30)"/><path fill="#a3afb8" fill-rule="evenodd" d="M276.32 120.68s1.63-.5 1.5-1.6c-.1-1.12-.75-2.42-.75-2.42s1.15 1.17 1.2 2.3c.08 1.13-.07 1.46-.57 1.82-.35.25-.98.17-1.38-.1z"/><path fill="#eee" stroke="#1e1e1e" d="M430.63 247.4c0 3.62-2.88 6.54-6.44 6.55-3.57 0-6.46-2.9-6.48-6.5 0-3.62 2.86-6.56 6.42-6.58 3.56-.02 6.46 2.88 6.5 6.5" stroke-linejoin="round" transform="matrix(.318 .078 -.125 .506 259.933 -40.204)"/><path fill="#a3afb8" fill-rule="evenodd" d="M362.34 119.8s1.67.36 2.1-.67c.44-1.04.5-2.5.5-2.5s.44 1.6-.05 2.6c-.5 1.03-.8 1.25-1.4 1.32-.42.05-.94-.32-1.16-.76z"/><path fill="#b3a192" fill-rule="evenodd" stroke="#000" stroke-width="1.17" d="M316.72 53.8l.24 5.7s-6.75.6-7.03 1.22c-1.3 2.95 1.58 6.9 1.58 6.9s2.28-1.68 8-1.68c5.47 0 8.26 1.33 8.26 1.33s1.45-2.3 1.45-4c0-1.7-.6-3.4-.6-3.4s-2.78-.36-3.63-.36h-2.43l-.24-5.8-5.58.1z"/><path fill="#f0ddcb" stroke="#121116" stroke-width=".596" d="M326.36 62.65c0 .64-.54 1.16-1.2 1.16-.68 0-1.22-.5-1.22-1.14 0-.64.54-1.16 1.2-1.17.67 0 1.2.5 1.22 1.14m2.78.63c0 .67-.56 1.2-1.26 1.2s-1.26-.52-1.26-1.2c0-.66.56-1.2 1.25-1.2.7 0 1.27.53 1.27 1.2m-5.57-.66c0 .65-.54 1.17-1.2 1.17-.67 0-1.22-.52-1.22-1.16 0-.63.54-1.15 1.2-1.15.67 0 1.2.5 1.22 1.15m-5.6.07c0 .67-.55 1.2-1.25 1.2s-1.25-.53-1.26-1.2c0-.66.56-1.2 1.26-1.2s1.26.53 1.26 1.2m-3.1.2c0 .67-.56 1.2-1.26 1.22-.7 0-1.26-.55-1.26-1.22 0-.66.56-1.2 1.25-1.2.7 0 1.27.52 1.28 1.2m5.7-3.5c0 .57-.48 1.03-1.07 1.03-.57 0-1.05-.44-1.05-1 0-.57.47-1.02 1.06-1.03.6 0 1.07.45 1.07 1m0-4.7c0 .55-.47 1-1.06 1-.57 0-1.05-.44-1.05-1 0-.57.47-1.02 1.06-1.03.6 0 1.07.45 1.07 1m0 2.57c0 .57-.47 1.02-1.06 1.02-.57 0-1.05-.45-1.05-1 0-.57.47-1.03 1.06-1.03.6 0 1.07.44 1.07 1m-8.84 6.52c0 .65-.54 1.17-1.2 1.17-.68 0-1.22-.53-1.22-1.17 0-.64.54-1.17 1.2-1.17.68 0 1.23.5 1.23 1.15" stroke-linejoin="round"/><path fill="#916c68" stroke="#4d3126" stroke-width=".596" d="M320.85 62.36c0 .7-.6 1.27-1.34 1.27-.72 0-1.32-.56-1.32-1.26s.6-1.28 1.32-1.28c.74-.02 1.34.55 1.34 1.25" stroke-linejoin="round"/><path fill="#eee" stroke="#1e1e1e" stroke-width="1.17" d="M322.06 45.45c0 1.4-1.1 2.52-2.48 2.52s-2.5-1.12-2.5-2.5c0-1.4 1.1-2.54 2.48-2.54 1.37 0 2.5 1.1 2.5 2.5" stroke-linejoin="round"/><path fill="#a3afb8" fill-rule="evenodd" d="M318.4 46.75s2.03-.04 2.23-.86c.2-.83-.14-1.88-.14-1.88s.95 1.05.68 1.87c-.28.8-.55 1.02-1.23 1.2-.47.1-1.16-.08-1.54-.35z"/><path fill="#fc0" fill-rule="evenodd" stroke="#000" stroke-width=".522" d="M279.97 130.13s2.22 2.08 2.8 3.93c.6 1.85 1.5 6.82 1.5 6.82s23.25-6.45 34.66-5.93c11.4.52 37.7 6.3 37.7 6.3s.44-2.82.96-5.78c.5-2.96 2.66-6.22 2.66-6.22s-25.1-7.86-40.96-7.1c-15.85.73-23.78 2.43-27.33 3.54-3.56 1.1-12.23 4.5-12 4.43z"/><path fill="#fc0" fill-rule="evenodd" stroke="#000" stroke-width="1.17" d="M314.66 36.05h10s-2.46 1.7-2.97 3.33c-.44 1.4-.3 3.7-.3 3.7s2.72 0 3.93-1.03c1.2-1.03 3.76-2.85 3.76-2.85v12.73s-2.47-2.37-3.95-3.15a14.44 14.44 0 0 0-3.58-1.27s0 2.07.85 3.28c.85 1.2 4.25 5.82 4.25 5.82l-14.3.55s3.38-3.58 4.78-6.2c.9-1.68.54-3.44.54-3.44s-2.43 0-3.64.86c-1.22.84-3.34 3.4-3.34 3.4V39.5s.9 2.37 2.9 3.28c2 .9 3.9.42 3.9.42s.38-2.44-.43-3.94c-.85-1.55-2.62-3.27-2.44-3.2z"/><path fill="#fc0" fill-rule="evenodd" stroke="#121116" stroke-width="1.17" d="M313.88 76.45s-7.12-.1-13.2-3.7c-6.1-3.6-12.24-7.36-21.27-5.22-1.84.44-8.65 3.43-11.65 13.12-2.1 6.8.34 15 2.48 18.7 2.15 3.68 5.6 7.4 5.6 7.4l3.68-2.47s-9.35-7.94-8.24-18.23c1.12-10.3 6.26-12.7 6.26-12.7s6.35-4.96 14.84-.24c8.48 4.72 16.8 6.86 16.8 6.86s7.8 1.9 8.5 1.8c.68-.08-3.95-5.4-3.78-5.3z"/><path fill="#fc0" fill-rule="evenodd" stroke="#000" stroke-width="1.2" d="M274.5 115.04l-3.77-7.43 11.35-4.43s-2.74 3.65-3.4 6.26c-.8 3.2-.5 5.87-.5 5.87s1.03-.78 2.33-2.87c1-1.58 2.62-7.3 2.62-7.3l5.1 16.3c.03.04-2.63-2.62-4.5-2.93-2.1-.36-4.64.32-4.64.32l-3 .9-1.56-4.68z"/><path fill="#fc0" fill-rule="evenodd" stroke="#121116" stroke-width="1.17" d="M326.7 76.3s7.12-.07 13.2-3.67c6.1-3.6 12.24-7.38 21.27-5.23 1.85.44 8.66 3.43 11.66 13.12 2.1 6.8-.34 15-2.48 18.7-2.15 3.67-3.6 5.84-3.6 5.84l-4.42-1.58s8.1-7.27 7-17.56c-1.13-10.3-6.27-12.7-6.27-12.7s-6.35-4.97-14.84-.25c-8.48 4.72-16.8 6.86-16.8 6.86s-7.8 1.9-8.5 1.8c-.68-.1 3.95-5.4 3.78-5.32z"/><path fill="#fc0" stroke="#121116" stroke-width="1.17" d="M323.03 69.27H326v27.7h-2.97zm-10-.12h3.5v27.7h-3.5zM329.2 62.72c0 4.92-4.32 8.9-9.67 8.92-5.35 0-9.7-3.97-9.72-8.88 0-4.9 4.3-8.92 9.65-8.95 5.35-.02 9.72 3.94 9.76 8.85" stroke-linejoin="round"/><path fill="#fc0" fill-rule="evenodd" stroke="#000" stroke-width=".991" d="M310.9 96.75l16.7-.14s-1.97 1.18-3.65 4.16c-1.68 3-1.44 4.88-1.44 4.88s2.55-.04 4.33-1.34c1.8-1.3 3.78-3.74 3.78-3.74l-.06 15.37s-1.2-1.95-3.2-3.12c-1.98-1.16-4.8-1.16-4.8-1.16h-5.7s-2.6.16-3.77.93c-1.65 1.1-3.7 3.2-3.7 3.2l-.28-14.53s.8 2.54 3.5 3.57c2.67 1.04 4.18.9 4.18.9s0-3.26-1.38-4.94c-1.37-1.68-4.5-3.94-4.5-4z"/><path fill="#f6ca1f" fill-rule="evenodd" stroke="#000" stroke-width=".939" d="M320.2 108.82s2.44 5.7 5.28 8.2c1.65 1.47 6.62 2.58 8.86 2 5.05-1.3 8.52-5.32 8.52-5.32s-.18 4.42 2.98 6.86c3.16 2.43 5.68 3.07 8.3 2.34 2.62-.72 10.02-6.22 10.02-6.22l1.54 1.35s-4.25 4.12-8.7 6.3c-2.3 1.14-9.28.5-11.54-1.3-2.25-1.8-3.6-6.17-3.6-6.17s-1.38 2.8-4.36 3.8c-2.98 1-7.08.95-10.88-.16-2.55-.75-5.88-4.28-6.5-5.45-.64-1.17-.46-1.8-.46-1.8s-1.88 5.37-5.78 6.83c-3.68 1.4-7.88 1.4-11.45.37-3.6-1.04-3.9-3.05-3.9-3.05s-.26 5.68-8.12 7.3c-7.84 1.63-14.07-4.14-14.07-4.14l1.08-1.63s4.44 4.97 11.2 4.52c6.78-.46 9.03-9.12 9.03-9.12s2.98 4.5 10.93 4.6c7.94.1 10.2-10.3 10.2-10.3l1.44.2z"/><g fill="#fc0" stroke="#000" stroke-width="1.147"><path fill-rule="evenodd" d="M300.63 112.13s.06-2.76.65-3.6c.85-1.17 2-1.22 2.58-1.05.72.2 1.47.85 1.35 2.77-.12 1.93-.65 2.87-.08 3.6.58.74.66 1.23 1.76 1.06 1.1-.15 1.6-.52 1.35-1.54s-.57.08-.78-.78c-.2-.85 1.07-4.56.86-6.86-.2-2.25-1.05-4.04-2.77-4.5-1.6-.42-2.98-.4-4.5.7-1.44 1.06-3.3 4.53-3.3 4.53l-.04 7.44 3-.17-.07-1.6zM295 114.14s-1.16-2.52-2.04-3.04c-1.24-.75-2.3-.33-2.78.05-.58.47-1 1.37-.13 3.1.88 1.7 1.74 2.35 1.5 3.25-.22.9-.1 1.4-1.18 1.67-1.08.3-1.67.15-1.85-.88-.2-1.05.55-.16.4-1.03-.16-.87-2.8-3.76-3.52-5.96-.7-2.13-.64-4.12.75-5.22 1.3-1.03 2.57-1.56 4.4-1.15 1.75.4 4.84 2.84 4.84 2.84l3 6.8-2.84 1.06-.56-1.5zM294.42 92.1s-2.94 4.96-2.3 8.76c.66 3.8 4.6 11.97 4.6 11.97l.03 1.1 2.1-.23-.47-1.12s1.06-9.78.4-12.87c-.47-2.28-4.32-7.55-4.36-7.6zm4.7 22.65s1.47 1.76 3.22 2.6c1.92.95 2.7.96 3.48.38.56-.42.36-2.2-.3-2.7-.64-.5-1.38-.24-1.5.25-.2.82-.46.77-1.06.45-.88-.46-2.9-1.72-2.9-1.72l-.94.75zm-2.28.4s-.62 2.2-1.87 3.7c-1.37 1.65-2.1 1.98-3.02 1.77-.68-.16-1.24-1.86-.84-2.58.4-.7 1.18-.8 1.5-.4.5.67.72.5 1.14-.02.6-.78 1.94-2.76 1.94-2.76l1.16.3z"/><path d="M302.44 113.37c.1.65-1.83 1.5-4.34 1.93-2.5.43-4.64.25-4.76-.4-.12-.64 1.82-1.5 4.33-1.93 2.5-.42 4.64-.25 4.77.4"/></g><g fill="#fc0" stroke="#000" stroke-width="1.147"><path fill-rule="evenodd" d="M345.64 113.24s1.02-2.57 1.87-3.14c1.2-.8 2.3-.45 2.8-.1.6.45 1.07 1.33.28 3.1-.8 1.74-1.6 2.44-1.34 3.33.28.88.2 1.37 1.28 1.6 1.1.24 1.67.07 1.8-.98.13-1.04-.56-.12-.45-1 .1-.87 2.6-3.9 3.2-6.12.6-2.18.43-4.16-1.02-5.2-1.36-.95-2.65-1.4-4.45-.9-1.73.47-4.7 3.08-4.7 3.08l-2.63 6.96 2.88.9.5-1.52zM339.66 113.14s-.2-2.76-.84-3.56c-.9-1.13-2.05-1.12-2.62-.92-.7.24-1.43.93-1.2 2.84.2 1.9.8 2.82.26 3.6-.53.75-.6 1.25-1.7 1.14-1.1-.1-1.62-.45-1.43-1.48.2-1.03.58.05.74-.82.16-.86-1.3-4.5-1.2-6.8.08-2.26.84-4.1 2.53-4.64 1.6-.5 2.96-.56 4.52.46 1.5.98 3.54 4.36 3.54 4.36l.43 7.42h-3.04v-1.6zM346.84 92.32s-4.5 3.6-5.2 7.38c-.73 3.8.08 12.82.08 12.82l-.35 1.04 2.06.53-.06-1.22s4.42-8.8 4.9-11.9c.35-2.33-1.4-8.6-1.43-8.66zm-3.54 22.84s.76 2.16 2.1 3.58c1.48 1.55 2.22 1.83 3.13 1.56.67-.2 1.12-1.93.68-2.62-.43-.7-1.2-.72-1.5-.3-.46.7-.7.55-1.14.05-.66-.75-2.12-2.63-2.12-2.63l-1.14.36zm-2.27-.42s-1.35 1.85-3.05 2.8c-1.86 1.07-2.65 1.13-3.44.6-.6-.38-.5-2.17.1-2.7.63-.54 1.38-.34 1.53.14.25.8.5.74 1.1.38.83-.52 2.77-1.9 2.77-1.9l1 .68z"/><path d="M346.9 115.04c-.12.64-2.25.77-4.75.28-2.5-.48-4.43-1.4-4.3-2.04.1-.64 2.22-.77 4.72-.3 2.5.5 4.44 1.4 4.33 2.05"/></g><path fill="#cca715" fill-rule="evenodd" stroke="#000" stroke-width=".522" d="M279.1 129.87s.48 2.04 1.64.97c1.17-1.07 17.23-7.4 39.9-7.4 22.7 0 37.58 6.24 38.45 6.63.87.38 1.26.87 2.04 0 .78-.88-.78-2.24-.78-2.24s-15.77-6.72-40.4-6.62c-24.62.1-40.58 7.1-40.58 7.1s-1.07.8-.3 1.57z"/><path fill-rule="evenodd" d="M307.85 139.3s.72-2 1.98-2.4c1-.3 2.6.7 2.6.7s-1.9-.2-2.5.15c-.56.3-.72 1.22-.72 1.22s.42-.73 1.9-.65c1.46.07 1.62.07 1.62.07s-2.5.17-3.06.9c-.58.7 2.35 1.04 2.35 1.04s-4.47.02-5.06-.25c-.6-.28-.96-1.2-1.96-.9-1 .27-2.02 1.16-2.02 1.16s1.14-1.92 1.85-1.93c.73 0 1.15-.04 1.8.25.65.3 1.25.62 1.25.62zm-16.75 3.63s.34-2.1 1.5-2.72c.94-.48 2.7.2 2.7.2s-1.93.18-2.46.62c-.47.4-.46 1.34-.46 1.34s.27-.8 1.72-1a68.5 68.5 0 0 0 1.62-.23s-2.4.64-2.85 1.46c-.43.8 2.5.58 2.5.58s-4.4.85-5.02.7c-.63-.16-1.16-1-2.1-.53-.92.46-1.76 1.53-1.76 1.53s.75-2.1 1.46-2.24c.7-.15 1.1-.26 1.8-.1.7.18 1.34.4 1.34.4zm30.87-4.37s.84-1.97 2.12-2.28c1.02-.25 2.55.83 2.55.83s-1.9-.27-2.52.03c-.56.28-.78 1.18-.78 1.18s.46-.7 1.92-.54c1.46.16 1.63.17 1.63.17s-2.5.04-3.12.72c-.62.7 2.3 1.18 2.3 1.18s-4.5-.23-5.06-.54c-.57-.3-.9-1.25-1.9-1.02-1.02.22-2.1 1.05-2.1 1.05s1.26-1.84 1.97-1.8c.7.02 1.13 0 1.76.34.63.33 1.2.7 1.2.7zm14.15 1.6s1.06-1.85 2.37-2.02c1.04-.12 2.43 1.13 2.43 1.13s-1.86-.5-2.5-.28c-.6.2-.9 1.07-.9 1.07s.52-.64 1.95-.32c1.44.33 1.6.36 1.6.36s-2.5-.24-3.18.36c-.7.6 2.13 1.44 2.13 1.44s-4.4-.75-4.94-1.12c-.55-.37-.76-1.34-1.8-1.24-1.02.1-2.2.8-2.2.8s1.47-1.68 2.18-1.57c.7.12 1.13.16 1.72.56.58.4 1.12.83 1.12.83zm14.04 2.5s1-1.4 2.05-1.44c.86-.03 1.9 1.08 1.9 1.08s-1.46-.54-2-.4c-.5.12-.8.8-.8.8s.47-.48 1.6-.1c1.12.35 1.25.4 1.25.4s-1.98-.4-2.58.04c-.6.44 1.6 1.3 1.6 1.3s-3.48-.92-3.88-1.25c-.4-.35-.5-1.14-1.35-1.13-.84 0-1.82.48-1.82.48s1.3-1.25 1.85-1.1c.56.14.9.2 1.34.57.44.36.84.75.84.75z"/><path fill="#0f6545" stroke="#000" stroke-width=".697" d="M305.02 129.72c.34 1.68-1.63 3.5-4.4 4.04-2.77.56-5.28-.35-5.62-2.03-.34-1.68 1.64-3.48 4.4-4.04 2.77-.56 5.3.35 5.62 2.02z" stroke-linejoin="round"/><path fill="#cecfc1" d="M298.75 129.45c.08.4-.34.83-.95.96-.6.13-1.17-.1-1.25-.5-.1-.42.34-.84.95-.97.6-.12 1.17.1 1.25.52z"/><path fill="#0f6545" stroke="#000" stroke-width=".697" d="M344.14 131.75c-.5 1.63-3.1 2.27-5.8 1.42-2.7-.84-4.46-2.85-3.95-4.48.5-1.64 3.1-2.28 5.8-1.43 2.7.84 4.45 2.85 3.94 4.48z" stroke-linejoin="round"/><path fill="#cecfc1" d="M338.78 128.5c-.13.4-.7.56-1.3.37-.6-.18-.98-.66-.85-1.05.12-.4.7-.57 1.3-.38.6.2.97.66.85 1.05z"/><path fill="#1f2d86" stroke="#000" stroke-width=".991" d="M314.6 125.94h10.14v5.12H314.6z" stroke-linejoin="round"/><path fill="#707c8b" d="M318.88 127.03c0 .23-.43.42-.97.42s-.95-.2-.95-.42c0-.23.43-.42.96-.42s.98.2.98.43z"/><path fill="#9f1209" fill-rule="evenodd" stroke="#000" stroke-width=".522" d="M285.94 131.06l1.68 4.94-3.1 1.67s-1.43 1-2.85.26c-1.42-.76-2.26-3.02-1.5-3.94 1.5-1.85 5.77-3.03 5.77-2.95z"/><path fill="#8f322f" d="M283.35 134.57c0 .84-.64 1.5-1.43 1.5s-1.42-.66-1.42-1.5c0-.83.63-1.5 1.42-1.5s1.43.67 1.43 1.5z"/><path fill="#e2a494" d="M282 133.98c.04.27-.02.53-.16.7a.42.42 0 0 1-.54.08c-.2-.1-.33-.33-.38-.6-.04-.27.02-.53.17-.7a.42.42 0 0 1 .52-.08c.2.1.33.34.38.6z"/><path fill="#9f1209" fill-rule="evenodd" stroke="#000" stroke-width=".522" d="M353.88 131.7l-1.67 4.4 3.96 2.07s1.75.78 2.85-.2c.95-.8 1.16-2.73.4-3.7-.7-.9-5.57-2.6-5.52-2.57z"/><path fill="#aa675d" d="M358.6 135.23c0 .54-.56.98-1.26.98s-1.26-.43-1.26-.97.57-.98 1.26-.98c.7 0 1.27.44 1.27.98z"/><path fill="#e2a494" d="M357.4 135.08c0 .26-.1.5-.3.63a.5.5 0 0 1-.6 0c-.17-.12-.3-.36-.28-.62 0-.26.1-.5.3-.63a.5.5 0 0 1 .58 0c.18.13.3.37.3.63z"/><path fill="#f5d8bc" d="M328.55 126.38c0 .38-.32.68-.7.68-.4 0-.73-.3-.73-.68 0-.38.32-.68.72-.68.4 0 .7.3.7.68zm4.32.25c0 .38-.32.68-.72.68-.4 0-.7-.3-.7-.67 0-.38.3-.68.7-.68.4 0 .72.3.72.68zm-2.2 1.68c0 .48-.4.86-.9.86s-.9-.38-.9-.85.42-.85.9-.85.9.38.9.86zm2.1 2.82c0 .38-.33.68-.72.68-.4 0-.72-.3-.72-.68 0-.38.32-.68.72-.68.4 0 .7.3.7.68zm-4.17-.54c0 .38-.32.68-.72.68-.4 0-.7-.3-.7-.68 0-.37.3-.68.7-.68.4 0 .72.3.72.68zm-20.87-3.47c.08.38-.16.75-.54.84-.4.1-.78-.14-.86-.5-.1-.37.16-.74.54-.83.38-.08.76.15.85.52zm4.26-.72c.07.37-.17.74-.55.83-.4.1-.77-.13-.85-.5-.1-.36.15-.73.54-.82.38-.1.76.14.85.5zm-1.76 2.13c.1.47-.2.93-.68 1.05-.5.1-.97-.17-1.07-.64-.12-.45.2-.9.67-1.02.48-.1.96.17 1.07.63zm2.66 2.28c.08.37-.16.74-.54.83-.4.1-.77-.13-.85-.5-.08-.36.17-.73.55-.82.38-.1.76.14.85.5zm-4.18.42c.1.37-.16.74-.54.82-.38.1-.76-.13-.85-.5-.08-.37.16-.73.54-.82.4-.1.77.13.85.5zm-19.18-.16c.14.35-.05.75-.42.9-.36.14-.77-.03-.9-.38-.15-.35.04-.75.4-.9.38-.14.8.03.92.38zm4.1-1.33c.15.36-.04.76-.4.9-.37.15-.78-.02-.92-.37-.13-.35.05-.75.42-.9.37-.14.78.03.9.38zm-1.42 2.36c.17.45-.06.95-.53 1.13-.47.17-.98-.04-1.15-.5-.17-.43.06-.93.52-1.1.47-.2.98.02 1.15.46zm2.96 1.88c.14.35-.05.75-.42.9-.36.13-.77-.04-.9-.4s.04-.74.4-.88c.38-.14.8.02.92.38zm-4.08 1c.14.35-.05.75-.4.9-.38.14-.8-.03-.93-.38s.06-.75.42-.9c.36-.14.77.03.9.38zm56.18-5.88c-.1.4-.5.63-.92.53-.4-.1-.67-.5-.57-.9.1-.4.5-.63.9-.53.42.1.68.5.58.9zm4.46 1.37c-.1.4-.5.63-.93.53-.4-.1-.66-.5-.56-.9.1-.4.5-.63.92-.53.4.1.67.5.57.9zm-2.72 1.2c-.12.5-.64.8-1.16.66-.52-.14-.84-.64-.72-1.14.12-.5.64-.8 1.16-.66.52.12.84.63.72 1.12zm1.45 3.47c-.1.4-.5.63-.92.53-.4-.1-.67-.5-.57-.9.1-.4.5-.62.92-.52.4.1.67.5.57.9zm-4.22-1.63c-.1.4-.5.64-.92.53-.4-.1-.67-.5-.57-.9.1-.4.5-.62.92-.52.42.1.67.5.57.9z"/><path fill="none" stroke="#000" stroke-width="1.2" d="M355.97 88.93s-2.05 1.92-4.48 1.92c-2.45 0-3.86-1.02-4.63-1.53-.77-.52.26-2.06.26-2.06"/><path fill="none" stroke="#000" stroke-width="1.095" d="M312.9 92.78s-3.72-.64-5.26-1.16c-1.54-.5-1.15-1.53-2.95-1.4-1.8.12-3.6 1.4-3.2 3.2.37 1.8 1.65 2.05 2.94 1.67 1.28-.4.9-2.58-.77-2.45-1.67.13-.26 1.54-.26 1.54"/><path fill="none" stroke="#000" stroke-width="1.043" d="M287.25 89.96s1.03 1.53 3.72 1.28c2.7-.26 3.72-1.67 3.85-2.3.13-.65 0-1.8-.5-2.32-.53-.5-2.32-.77-2.32-.77"/><g stroke="#161111" stroke-width="1.6"><path fill="#c00" d="M339.2 270.4c2.48-2.45 6.48-5.16 8.7-11.05 2.08-5.5 3.08-15.63 4.98-20.76 2.48-8.8 7.47-17.37 1.53-16.8-5.65.57-7.48 6.04-9.62 10.04-1 1.5-3.3 4.7-3.72 6.5-.1-3.04-1.63-11.92-1.94-20.86-.3-8.34-.06-17.02-.28-20.26-.27-4.28-.24-8.3-1.25-11.45-.47-1.48-2.64-2.9-3.75-2.83-2.28 0-3.66 2-3.97 3.86-.22 1.47-.16.94-.3 2.84-.2 2.4.04 5.5-.14 8.24-.18 2.94.2 6.2.04 8.94-.32 5.5-.72 10.57-.9 11.6 0-2.05-.92-11.7-1.23-20.87-.12-3.48-.2-6.9-.26-10.1-.06-2.6.05-5.33-.23-7.34-.47-3.4-1.58-4.97-4.06-4.97-1.67 0-4.06 1.22-4.83 5.02-.4 2.06-.43 4.57-.36 7.3.07 2.56.2 5.3.16 8.07-.15 10.44-.34 21.5-.76 24.77-.07-1.08-1.12-6.54-1.4-13.86-.1-2.88-.27-6.36-.42-9.68-.18-3.98-.17-6.94-.27-9.6-.02-1.6-.65-6.2-3.74-5.93-1.62-.2-3.33.93-4.02 5.3-.38 2.43-.37 6.6-.44 9.83-.12 6.12-.38 11.48-.1 16.93.2 3.4.16 6 .2 7.68.04.45-.86-2.85-1.32-7.34-.45-4.4-.85-9.98-.8-8.7 0-2.25-.12-5.63-.33-8.4-.16-2.2-.06-4.6-2.42-4.4-2.4.2-3.86 1-4.36 5.1-.32 2.66-.4 8.4-.47 10.48.25 5.3-1.16 17.63-1.8 21.14-.18 2.5-1.16 5.72-1.57 9.2-.9 7.45-.05 16.18.94 20.65 1.96 7.06 7.1 10.23 6.83 15.02-.26 4.8 0 13.23 0 17 0 3.8 3.28 4 10.08 2.53 11.12-2.4 17.2 2.4 26.37-1.14-1.17-10.44 1.1-16.73 1.04-20.5zm-6.5-24.7c2.3-6.36 5.2-8.85 8-10.23"/><path fill="none" d="M307.43 239.15c3.46-1.37 7.06-2.36 10.57-3.56 4.3-1.22 8.48-2.96 12.92-3.65 2.14-.44 4.3-.86 6.47-1M301.25 273c.48-.3.95.2 1.42.3.65.2 1.33.4 2.02.28a107.43 107.43 0 0 1 4.05 0c1.6-.06 2.93-.12 4.22-1.02m10.04.6c.48.4 1 .7 1.56.9.86.4 1.8.44 7.37 0 3.45.2 6.5-2.77 7.38-3.58"/></g></svg>