<svg xmlns="http://www.w3.org/2000/svg" width="640" height="480"><path fill="#00ab39" d="M0 240h640v240H0z"/><path fill="#fff" d="M0 0h640v240H0z"/><g stroke="#000" stroke-width="1.388"><path fill="#d21034" d="M418.92 70.77c0 .02-.02.04-.03.05.02 0 .04-.03.07-.05h-.06zm-.03.05c-40.3 22.28-76.35 45.45-111.8 75-17 14.85-12.2 26.7-12.86 40.04.55 8.95-1.94 17.3-7.45 22.3-12.6 2.56-25.23 5.12-37.84 7.67-1.2-3.5-2.4-6.97-3.6-10.46 1.14-5.35 5.57-7.98 14.88-4.62.74-6.88-4.8-9.68-11.28-12.07-2.22-1.74-4.98-3.07-4.62-9.02-1.1-13.47 20.52.97 20.72.97.2 0-.72-13.6-10.65-16.32-5.4-1.9-7.7-7.6-5.63-11.84 4.33-8.65 12.5.67 18.73 1-.24-5.63-1.84-9.65-6.7-14.2-2.62-1.62-9.04-2.83-9.2-5.53-.14-3.66 6-5.23 14.47-4.2-1.76-5.15-7.45-8.47-15.27-10.88l-4.63-8.05c-2.2-4.05-3.17-4.16 1.9-11.85 4.56-2.95 10.62-7.13 15.18-10.08-1.67-.2-3.35-.4-5.03-.6.67-5.5.75-7.35 2.02-16.48-4.9 6.68-11 5.48-16.5 8.23 0 0-15.68 2.78-20.73 9.45-.2 0-39.4-2-39.4-2-8.37 1.16-15.5 3.53-16.9 11.66-19.12 1.93-39.13.22-53.7 18.5 9.9-.46 18.6-2.83 29.75-1.4 0 0 9.5.2 11.47 10.25.2.4 3.23.4 3.23.4 1.2.94 2.4 1.88 3.6 2.82.48-1.28.94-2.56 1.4-3.83l3.24 2.2c.32-1.4.67-2.8 1-4.2 1.08.72 2.13 1.47 3.2 2.2.07-1.67.16-3.36.22-5.03l4.22 3v-6.62s15.57-.03 20.32 9.86c.2.2-43.7 8.07-86.1 4.44 4.1-2 8.17-4.04 12.26-6.05-15.46-3.15-30-6-43.63-16.7 5.13 19.38 31.74 42.14 37.2 42.04 0 .2-5.24-9.44-5.24-9.44 15.36.67 30.72 1.33 46.07 2 1.68 5.1.94 10.8 5.04 15.3 0 0-2.54 8.42 3.1 11.85.2.4 6.75-17.08 6.75-17.08s2 4.7 4.03 7.83c2.93-15.04 19.3-17.5 19.3-17.5s3.42 7.85 3.42 8.06c-5.1.74-11.48 11.17-8.05 16.9-3.43.05-9.52 10.15-7.63 15.67-2.9 2.87-10.08 6.7-8.26 18.73-5.65 1.2-9 11.56-7.25 22.53-8.76 8.13-6.6 23.1 1.2 29.14-3.24 2.9-5.24 5.1-5.23 8.65-3.08-1.15-5.92-.2-7.26 1.82-3.76-3.87-9.2-7.26-13.05-3.63-1-4.6-6.96-9.63-13.5-9.05.4-4.83-2.1-10.8-9.03-12.9 0 0-1.4-22.63-8.26-29.97-.67-4.1.4-6.9 6.05-10.26 5.65-3.02 6.85-5.35 6.44-13.88 2.23-5.7 3.92-11.52-3-15.47.2 6.78-1.88 10.05-4.64 13.06-3.3-.48-4.44 3.36-6.65 5.03-3.1-4.17 6.53-10.64-.6-19.92-.4-.4-4.98-12.13-16.3-11.86 5.38 3.15 7.66 8.44 7.65 13.88-3.57 10.06-5.38 17.83-1.8 29.37C93 192.7 90.32 179.3 86.43 177c-3.4-.68-5.08-8.74-18.32-6.45 5.72 1.54 7.53 5.9 9.07 9.86-3.52 1.8-1.78 6.58.78 9.86-.5 7.72 4.14 12.24 11.06 15.1-1.14 10.54-2.28 21.05-3.42 31.58-2.75-.35-6.98 10.35-8.65 10.67-2.7 1.7-7.4 6.2-2 7.46-1.6 5.78-3.1 9.26-11.7 10.46 0 0 9.1 5.4 16.64-3.83 8.08-.22 5.43-9.85 9.33-14.1 0-.2 2.22-1.58 5.45-10.06 1.4 7.57 9.18 30.76 26.75 42.27 15.3 16.4 27.9 31.87 27.76 53.7 5.96-5.54 9.53-14.35 12.27-22.73 8.3-2.9 20.2-4 30.8-3.52-1.82 3.83-3.85 7.5-1.23 9.98-7.4 2.54-9.02 7.9-6.05 13.27-7.8 5.3-8.32 8.7-8.44 17.5-14.43 18.5-23.33 17.88-37.62 13.08-4.7-2.75-11.95-6.72-15.3-4.62-6.17-4.12-15.04-4.73-16.5 4.62 4.63-3.84 7.4-3.1 11.08.6-.74 1.88-1.36 3.76 1.4 4.83-1.2 1.35-2.4 2.7-3.6 4.03-6.65-1.02-15.58-.96-17.92 8.65 3.42-2.83 10.98-3.5 17.1-.8 1.13.4 2.27.8 3.4 1.2.15 1.55.3 3.1.42 4.64 0 0-9.05-1.4-11.47 13.28 8.48-9.03 14.48-6.65 14.48-6.65 3.27 4.78 15.3 4.06 23.95-3.8 12.16-6.8 15.7 2.96 23.55-3.43 6.5-4.85 14.2-1.63 19.5 4.02 6.1 2.3 12.48 4.17 17.5 0 0 0 6.15-3.92 12.27 2.4.07-7.13-5-10.92-11.85-11.05l-2.03-2.03c-6.43-1.35-13.67-.8-19.3-4.03 2.66-10.07 6.52-19.2 14.08-26.96 9.32-10 16.18-14.54 27.95-29.83-.46 8.64 6.17 18.25 9.66 27.03 0 0 7.04-11.22 8.06-20.33.2 0 8.8-4.48 12.48-8.3 7.75 4.82 20.4-3.84 28.56-11 5.03 1.9 8.85 1.76 14.7 0-4.7 9.55 2.7 18.4 14.47 22.12 1.1 8.43 9.6 10.2 22.54 10.26.55 4.96 8.25 5.64 8.25 5.64-4.87 2.26-7.4 4.54-7.23 9.66-5 .03-8.76 1.3-10.08 7.04-6.84.1-13.82.64-19.7 4.02-6.3-1-13.98-3.6-18.92-8.66-2.55-2.15-3.2-5.24-7.64-6.43-2.82-3.33-6.2-2.58-7.25.6-2.92-2.27-13.86-3.33-15.7 7.05 5.12-3.74 9.7-5.17 12.9-.6-1.75 3.16 4.25 4.97 9.45 6.23 3.68.23 10.2 3.6 12.26 9.26-4.75 1.44-11.95.96-16.7-2.63-4.22-3.52-9.92-3.1-13.06-.8-4.35-2.76-14.7 2.48-15.1 10.86 4.36-4 8.33-5.93 12.28-3.4-1.97.47-1.22.66-1 1.8 3.34 1.95 6.7 3.9 10.04 5.84-4.93 1.3-9.57 3.27-7.42 12.46 0 0 4-7.94 13.06-5.02.2-.2 1.25 2.84 3.83.8 3.9-4.45 12.86-6.45 20.72-7.23 6.3-.74 12.6-2.6 18.1 1 4.88-2.52 10.32-4.2 15.9-.2 6.56 2.1 11.36 9.75 19.7 6.25 4.15-2.87 9.25-3.02 14.5 2.82.05-7.36-5.46-9.83-13.3-11.47-1.8-1.08-3.6-2.16-5.4-3.23-5.04-.74-10.1.15-15.12-2.22 26.32-6.8 44.77-21.48 57.76-42.43 4.16 1.47 8.3 2.93 12.46 4.4 2.95.2 3.17 1.22 9.25 3.04.23-8.95-3.62-18.18-19.7-19.1l-21.14-8.05c-4.48-4.72-6.5-14.76-.8-20.72 5.6-4.98 6.58-4.38 10.28-10.46 4.5-.4 8.72 4.22 12.86 4.22 1.97 5.85 13.32 11.02 20.53 9.25 4.52 4 13.12 6.22 22.53 3 5.35 4.68 12.3 6.64 20.5 3.02 2.2 2.17 6.78 3.9 12.08 2.82.4 0 2.68 5.8 8.46 7.85-2.52 2.44-.97 13.07 1.62 16.88-1.77 4.1-2.32 8.45-.82 12.68-5.83 3.74-7.02 6.53-4.4 12.87-7.65 12.26-16.78 13.66-25.36 9.88-3.1-1.94-6.17-3.9-9.26-5.85-3.28-3.22-6.57-6.42-9.85-9.64-1.67-1.56-5.14-2.05-5.86 1.4 0 0-12.63-2.8-13.65 7.87 5.24-5.1 12.67-.6 12.67-.4 0 .2-1.77 1.4-.4 3.43.3-.25 9.23 3.33 17.18 6.75 4.3 1.63 5.26 2.15 7.15 3.15a340.8 340.8 0 0 0-7.15-3.15c-4.84-1.84-9.56-3.3-10.94-2.94-4.5-.4-9.28-.97-11.47 2.42-4.85 2.04-12.42 3.68-12.1 12.67 3.28-5.36 7.77-5.13 13.48-4.64-.13.4-.25.8-.38 1.2 6.2 2.84 5.03-.76 10.82-1.3 4.84-.44 11.7 1.3 15.32 2.5-4.56 1.35-10.76.8-13.68 4.04-.54 1.07-2.42.63-1.6 3.2 0 0-8.9-.23-11.27 12.08 9.03-5.8 15.88-5.62 16.08-5.62.2 0 2.82.6 2.82.6s10.86-7.25 11.06-7.25c.2 0 10.52-4.56 15.28.6 4.16 2.06 8.6 2.2 12.9-.4 8.45-3.67 16.36-3.93 24.14 1.23l7.03 4.22c1.02-.67 2.02-1.35 3.02-2.02 0 0 7.97-2.25 13.8 4.84-2.4-12.27-11.17-12.67-11.17-12.67-.67-.6-1.35-1.2-2.02-1.8-4.16-1.62-8.3-3.25-12.46-4.86-1.82-4.5-6.38-8.07-1.83-13.47 4.64-23.07 10.2-40.4 1.2-63.78 8.38 3.6 14.66 14.8 25.16 10.86 0-9.4-34.56-27.22-60.96-41.54 43.25-2.22 95.23-34.15 75.25-74.73 3.14-9.8 6.28-19.6 9.44-29.38 4.45 8.96 13.45 15.8 21.54 18.7-6.67-12.72-10.5-51.6-6.65-78.46C546.8 123.9 527.55 143 507.1 162.4c10.06 2.36 18.85.7 28.57-.5-2.75 5.64-5.42 11.3-8.17 16.92-26.58-15.57-57.8-3.88-58.02 16.9.9 24.22 30.86 27.66 48.14 19.22-3.42 22.1-54.2 13.95-54.2 13.95-18.03-6.23-35.16-5.16-54.1-5.02 3.93-12.1 25.8-22.86 42.45-18.12-23.32-26.15 3.3-58.6 35.4-68.6-35-11.54-4.86-38.22 21.32-57.33 0 0-75.3 31.7-82.18 31.6-21.42-1.62-15.58-26.97-7.42-40.6zm-236.37 30.43c1.75 0 3.8.18 5.45.58 3.4.83 7.53 1.3 7.47 2.32-1.57 2.63-5.44 5.8-9.23 5.6-3.8-.18-6-2.46-7.26-8.16.4-.22 1.82-.35 3.57-.35zm317 89.35c4.93-.06 10.84 2.02 16.6 8.15-2.76 8-26.85 12.1-28.47.26-.5-3.57 4.64-8.3 11.86-8.4z"/><path fill="none" d="M207.4 171.15l3.66 5.3m-.17.18s0 7.14 1.5 7.3m-3.33 3.83c.16.16 3.82 6.3 3.82 6.3m-10.48 1.67c.17 0 4.65 5.15 4.65 5.15m3.9-4c0 .17 4.24 8.15 4.57 8.15m-10.13-2.66s1.5 9.63 2.83 9.3m-9.1 8.35l4.3 6.43m3.64-13.28s2.33 9.13 4.15 8.3m1.83-13.8c.16.18 4.32 6.16 5.48 5.33m-1 2.32l4 7.98m-10.64-1.83c.16.33 3.3 9.47 3.3 9.47m-10.95-4.65s3 10.12 5.65 8.45m-6.8 5s.16 5.3 2.82 5.63m1.82-8.3c0 .17 2.66 3.82 2.66 3.82m4.93-10.14l2.2 3.5m4.83-9.97l3.32 4.14m-18.73-51.76c.16 4.48 7.27-1.58 10.1-5.4m-13.13 20.96s7.8-5.48 13.8-13.78m-16.3 26.9c5.5-1.5 15.57-13.7 17.57-20.17m-18.73 32.28c1.5.67 20.33-12.9 20.83-22.86m-21.33 33.32c0-.16 17.22-4.4 24.36-23.32m-25.28 37.65s27.5-16.48 29-28.6m185.64 56.3s-1.78 14.22-16.06 16.38m20.53 9.02c.17-.17 13.62-14.95 10.13-19.43m21.1 5.15s-.17 10.28-8.64 17.42m25.4-14.45s.34 12.46-4.98 17.44m20.43-9.96s-5.95 11.67-8.1 12.83m7.85 7.85s7.84 1.95 10.33-3.2m-8.3 20.1s7.25 1.32 10.57-5.65M481.4 342.2s5.87 4.92 9.86-1.55m-94.04-94.4s-.66 25.23 34.88 30.38c39.7 10.96 58.45 5.14 60.78 49.65-1.5 16.94-3.6 36.07-15.9 28.76M359.55 269.5s5.64 10.12 12.45 9.45c8.96-2.65 12.28 2.83 12.28 2.83m-49-2.16s14.96 7.3 27.74-4.5m-26.07-5.96c1.33 17.43-20.1 27.4-28.56 25.74m29.57 41.07c.17 0 11.6-6.86 9.28-11.68m-32.05 1.48c.33-.33 19.26-2.16 22.75-8.97M306.4 297.9c0-.16 26.87.08 28.7 5.06m7-21s-26.24 44.84 22.25 44.84m-49.98-45.5s-5.65 16.77-13.62 22.42m-14.28-28.23s9.74 18.85-.06 28.15m-25.34-22.84c.17.33 3.15 26.74-3.5 34.2m-9.12-33.37s1 16.78-3.98 22.76c-5 5.98 1.16 18.4 1.16 18.4m-60.53 8.06s3.56 6.25 8.54 4.1m-2.5-17.77s7.98 3.48 10.64 2.16m-2-30.38s-11.8 3.32-7.3 17.27c6.8 5.47 13.45 4.64 13.45 4.64m-29.4 37.36c-.16 0 1.33 10.96 8.97 2.66 5.32-11.13 22.1-42.52 25.9-53.3m7.8-5.16s-8.13-6.3-7.8 2.5c-.16 5.47 2.5 6.8 2.5 6.8.33 4 3.82 9.63 6.64 4.5 1.16-5-.83-7.15-.83-7.15m4.66-8.97c-7.3-.5-11.3 15.6 2.82 5.48M232 284.6s-1.83 2.5-4.65-.17c-1.5-2.65-6.8 11.96 2.5 12.46 1.65-4.33 6.8-5.5 6.8-5.5m4.32-13.78s-4.15 2-5.65 1.66c-4.98 1.17-3.98 12.8 2.33 12.13 2.15-2.48 4.48-5.97 4.48-5.97m-40.32-23c-.16 0-16.47 25.65 9.1 32.46m197.95-71.1s-9.97 8.48-.67 22.1c-30.9-.5-47.5 13.78-48.82 23.4-39.35-2.8-32.2 8.8-45 12.63-17.1-14.28-42.18-6.3-40.52 7.97-11.46-16.1-29.06-8.3-31.22-4.3-2.16 3.97-1.33-19.77-1.33-19.77s-11.47 5.14-19.44 14.6c.17-6.3 0-16.6 0-19.92-9.57 1.95-18.82 2.06-28.73 1.84m-25.9-7.3s14.28 7.96 31.88-2.83m-33.04-25.9s11.13 9.96 32.05 6.8m-25.06-29.72s2.5 8.14 26.4 8.64m-18.3-27.46s9 11.02 21.13 9.36m-13.45-25.08s3.48 5.98 16.77 6.98m-8.98-24.4s6.97 7.62 14.95 6.3m26.55-68.4s3.08-3.1 8.23-1.54m-10.46 17.84s-9.62-.34-8.94-4.1c.7-4.3 10.13-7.4 10.13-7.4s12.5-8.06 14.4-10.8m-56.62 43.92l12.18 23.34 5.83-8.75 3.08 6 4.98-8.75 8.58 5.5-3.26-10.65 7.2-.5s-1.9-5.16-8.4-6.2c1.7-1.36 7.7-5.3 7.7-5.3s-3.42-3.95-8.74-4.13c1.72-1.88 4.12-6.52 3.95-6.52-.18 0-5.33-1.2-5.33-1.2s12.2 3.95 21.62-1.54m-23.33-18.87c.17.17-.7 4.8-3.26 7.55m-43.75 5.32s7.54-2.07 13.18-.9c5.6 1.15 13.08 3.13 13.08 3.13s8.93-1.2 11.85-3.26m-56.8 6.02s-1.03 3.6-1.37 6c0 1.72-5.5 3.95-5.5 3.95m10.3-17.33s4.8 6 4.98 9.43c.17 3.44-3.6 6-3.6 6m-50.96 25.58l-4.98-8.07 4.46-1.54m90.37 120.84c-3.98-5.15 3-84.2 17.77-104.78-5.15 37.2 11.96 75.23 16.27 75.06m-78.97-97.15s6.73 2.58 20.68-8.46m18.86 26.74l10 .12M503.9 81.82s-166.7 77.9-169.14 82.02c28.15-8.5 147.53-28.4 150.45-26.7-7.03 1.7-151.9 34.95-158.7 42.96 36.17-1.2 111.88 11.65 123.76 24.02C424.54 198.3 347.6 186.9 324.08 192c17.23 4.1 83.23 46.82 83.23 53.62-9.94-9.47-89.3-42.23-92.44-39.07 18.2 10.92 43.92 51.44 43.92 61.4-5.34-8.5-51.2-57.76-53.87-54.6 4.86 6.8 14.48 64.93 9.56 67.63 0-7.04-17.8-57.93-19.26-59.4-3.64.98-26.33 62.1-21.83 67.8-2.9-20.4.48-62.93 6.06-61.24-9.95 1.46-41.7 43.32-38.3 49.87.97-10.42 2.4-17.34 20.35-52.04-19.9 1.2-61.15 27.18-68.2 36.4 5.6-16.5 40.53-44.4 55.82-46.35m71.95-60.7c17.62-9.8 72.07-29.74 108.4-44.38m-142.6 97s12.02-.18 24.03-32.78c11.83-44.6 105.7-94.37 107.58-103.64M128.02 252.77s-2.8 5.94-6.22 7.65m19.68 1.35s-3.72 7.23-4.58 10.66m17.46-7.12s3.13 9.88.55 14.5m-36.4-40.13c-9.45 5.32 5.36 38.94 50.14 42.2m-7.2-18.2s-1.2 6.02 7.2 18.03c-2.4 13.38 10.17 23.9 15.15 25.62m-25.97-164.25c0-.17 1.37-3.6 1.37-3.6l1.53 3.96 2.46-.06 1.62-3.98 1.33 3.98h2.45l1.5-4.43 2.3 4.2 1.92.1 1.53-5.12 3.14 3.66 1.13-.45.98-5.1 3.12 3.56.9-.5 1.43-5.05 2.58 3.75 1.3-.42 1.2-4.24 2.4 3.9m-38.96 6.28l18.7-.28c5.97-.1 15.78-8.35 26.76-5.77m-84.9 46.1s3.07 6.68 7.36 2.9m-14.6 1.55s-6 16.13 1.2 19.9m-9.77-37.74s0 3.77 7.9-2.06m-32.45 86.8s6.35 1.9 5.32 6.7m-2.92-80.8s3.95 1.87 7.72-3.96m34.15 189.6c6.17-.34 7.5 2.45 13.12 2.45 6.48.2 12.8-2.44 21.02-4.67m53 14.93c-.16 0-2.9 5.83-.5 8.75m-87.5-8.22s9.77-8.07 14.9-3.1c5 1.72 7.73 1.38 7.73 1.38m-17.5-21.27s2.4 6.16-5.65 5.3m-2.4 8.93s5.14 3.26-.7 7.55m3.78 5.83s7.04 1.04 2.92 6.7m224.3-49.44s19.12 1.98 20 3.4c2.2-2.3 19.25-16.12-1.72-18.1-3.5 14.4-17.94 14.92-18.27 14.7zm-6.8 9.56c7.14 5.7 4.22 9.13 26.62-5.9m-36.83 13.03s10.54 11.3 18.23-2.4m-38.32 6.47l-14.27 7.46m-25.68 10.54s8.67-7.46 12.73-3.5c4.06 3.94 21.3-3.4 21.3-3.4m-27.56-25.5s2.96 5.94-2.75 6.7m-8.57 11.87s3 5.56-2.8 7.1m9.5 8.04s9 .44 5.82 7.25m78.4-8.47s-4.94 4.17-1.32 8.9m73.02-38.87s5.7 2.74-1.1 7.46m-5.7 9.88s4.27 4.5 1.42 8.24m10.54 9s5.93 1.65 5.27 6.6m77.73-11s-4.94 3.63-2.3 8.35m-85.7-152.65c11.86-1.43 28.88 24.92 37.55 30.08m51.88-67.4s6 5.23.72 17.88m10.42-38.05c1.67 1.3 8.12 4.74 12.4 12.72M544 139.4c0 .1-8.34 22.5-8.34 22.5m17.67-23.6s-1.64 19.98-4.06 24.04m-33.12 36.42c-2.78 8-26.87 12.1-28.48.25-.82-6.02 14.27-15.32 28.48-.25z"/><path d="M182.35 101.32l9.26 1.72s-6.5 8.74-9.25-1.72z"/></g></svg>