<svg xmlns="http://www.w3.org/2000/svg" width="640" height="480" xmlns:xlink="http://www.w3.org/1999/xlink"><defs><g id="c"><g id="b"><path id="a" fill="#fcd116" d="M.3-.95L0 0l.48.15"/><use transform="scale(-1 1)" xlink:href="#a"/></g><use transform="rotate(72)" xlink:href="#b"/><use transform="rotate(144)" xlink:href="#b"/><use transform="rotate(216)" xlink:href="#b"/><use transform="rotate(288)" xlink:href="#b"/></g></defs><path fill="#ce1126" d="M0 .05h640v480H0z"/><path fill="#007a5e" d="M67.2 67.2h505.6v345.6H67.2z"/><path fill="#fcd116" d="M67.2 67.25h505.6L67.2 412.85h505.6z"/><circle cx="319.917" cy="240.05" r="57.6" fill="#ce1126"/><use width="100%" height="100%" xlink:href="#c" transform="matrix(52.8 0 0 52.8 319.917 240.05)"/><use width="100%" height="100%" x="-100" xlink:href="#d" transform="translate(-30.327)"/><use id="d" width="100%" height="100%" xlink:href="#c" transform="matrix(31.2 0 0 31.2 320 33.65)"/><use width="100%" height="100%" x="100" xlink:href="#d" transform="translate(30.327)"/><path fill="#ce1126" d="M102.31 240.7c7.22 13.43 21.24 28.04 33.48 33.17.2-13.63-4.64-31.1-11.25-45.02l-22.2 11.86z"/><path fill="#fcd116" d="M90.1 194.66c10.44 21.77-27.1 73.73 35.45 85.9-7.72-10.53-12.7-27.9-10.8-41.85 13.1 5 26.92 19.6 32.5 30.77 16.36-59.44-42-55.82-57.15-74.8z"/><use width="100%" height="100%" x="-100" transform="translate(-30.327 414.55)" xlink:href="#d"/><use width="100%" height="100%" transform="matrix(31.2 0 0 31.2 320 448.2)" xlink:href="#c"/><use width="100%" height="100%" x="100" transform="translate(30.327 414.55)" xlink:href="#d"/></svg>