<svg xmlns="http://www.w3.org/2000/svg" width="640" height="480"><path fill="#fff" d="M0 0h640v480H0z"/><path fill="#f00" d="M272 0h96v480h-96zM0 192h640v96H0z"/><path fill="#f00" fill-rule="evenodd" d="M146.85 373.15c1.02-16.82 3.97-31.15 3.97-31.15s-9.84 1-14.82 1c-4.9 0-14.8-1-14.8-1s2.93 14.33 3.96 31.16c-16.83-1.03-31.16-3.97-31.16-3.97s1 7.4 1 14.8-1 14.8-1 14.8 14.33-2.93 31.16-3.95c-1.03 16.82-3.97 31.15-3.97 31.15s7.4-1 14.8-1 14.82 1 14.82 1-2.95-14.33-3.97-31.16c16.82 1.03 31.15 3.97 31.15 3.97s-1-9.83-1-14.8c0-4.9 1-14.8 1-14.8s-14.33 2.93-31.15 3.95zm368-288c1.02-16.82 3.97-31.15 3.97-31.15s-9.84 1-14.82 1c-4.9 0-14.8-1-14.8-1s2.93 14.33 3.96 31.15C476.33 84.13 462 81.2 462 81.2s1 7.4 1 14.8-1 14.8-1 14.8 14.33-2.93 31.16-3.96c-1.03 16.83-3.97 31.16-3.97 31.16s7.4-1 14.8-1 14.8 1 14.8 1-2.93-14.33-3.95-31.16c16.82 1.03 31.15 3.97 31.15 3.97s-1-9.83-1-14.8c0-4.9 1-14.8 1-14.8s-14.33 2.93-31.16 3.96zm-368 0c1.02-16.82 3.97-31.15 3.97-31.15s-9.84 1-14.82 1c-4.9 0-14.8-1-14.8-1s2.93 14.33 3.96 31.16C108.33 84.13 94 81.19 94 81.19s1 7.4 1 14.8-1 14.8-1 14.8 14.33-2.93 31.16-3.96c-1.03 16.83-3.97 31.16-3.97 31.16s7.4-1 14.8-1 14.82 1 14.82 1-2.95-14.33-3.97-31.16c16.82 1.03 31.15 3.97 31.15 3.97s-1-9.83-1-14.8c0-4.9 1-14.8 1-14.8s-14.33 2.93-31.15 3.96zm368 288c1.02-16.82 3.97-31.15 3.97-31.15s-9.84 1-14.82 1c-4.9 0-14.8-1-14.8-1s2.93 14.33 3.96 31.16c-16.83-1.03-31.16-3.97-31.16-3.97s1 7.4 1 14.8-1 14.8-1 14.8 14.33-2.93 31.16-3.95c-1.03 16.82-3.97 31.15-3.97 31.15s7.4-1 14.8-1 14.8 1 14.8 1-2.93-14.33-3.95-31.16c16.82 1.03 31.15 3.97 31.15 3.97s-1-9.83-1-14.8c0-4.9 1-14.8 1-14.8s-14.33 2.93-31.16 3.95z" style="mix-blend-mode:multiply"/></svg>