<svg xmlns="http://www.w3.org/2000/svg" width="640" height="480" xmlns:xlink="http://www.w3.org/1999/xlink"><path fill="#da000c" d="M0 0h640v480H0z"/><path fill="#fff" d="M0 0h640v321.56H0z"/><g stroke="#000" transform="translate(-160) scale(1.875)"><g id="a" fill="#da000c"><path fill="#000" stroke="none" d="M196.57 116.3h64v44h-64z"/><path d="M229.82 153.87h-39.07l-8.66 5.7v6.04h47.72m-16.35-37c5.62 0 10.22 4.68 10.22 10.46v14.78h7.33v-56h-40.28v56h12.5v-14.78c0-5.55 4.52-10.47 10.22-10.47z"/><path fill="#000" stroke="none" d="M204.53 59.96h18.52v33.96h-18.52z"/><path d="M223 88.66h-16.2V82.9h-11.9v5.76h-8.06V82.9h-4.8v10.44H223m-36.16-.03h34.97v4.54h-34.96zm13.88-45.67V82.9h6.07v-9.68c0-3.63 2.55-6.6 6.14-6.78.1 0 .22 0 .34 0a6.78 6.78 0 0 1 6.78 6.78v9.7h5.78V47.6zm-2.2-4.8v4.8h29.26v-4.8zm-3.74-9.14v9.14h35.1V33.7h-5.4v4.64h-6.54V33.7h-9.97v4.64h-6.53V33.7zm-12.7 125.86H230m31-2.75h-32.44l-9.78 4.73v7.03H261M218.77 161.52H262"/></g><use width="100%" height="100%" xlink:href="#a" transform="matrix(-1 0 0 1 512 0)"/><g fill="#f8d80e"><path d="M273.3 150.03c-2.66.88-5.06 2.37-7.47 3.75-3.1 1.83-6.1 3.83-8.9 6.1-1 .65-1.94 1.36-2.7 2.28-1.02.87-2.06 2.05-1.86 3.5.05.65.87-.75 1.4-.82a4.4 4.4 0 0 1 3.15-.47c1.27-1.34 2.9-2.23 4.33-3.4 3-2.25 6.23-4.17 9.52-5.96 1.15-.58 2.3-1.18 3.53-1.6l-1-3.37zM260.4 157.4v3.9m2.42-5.62v3.9m2.4-5.4v3.86m2.43-5.35v3.97"/><path d="M238.9 150.16l-1.2 3.3c5.54 2.1 10.8 4.9 15.8 8.07 1.7 1.15 3.47 2.26 4.8 3.84.3.8-.52 1.5-1.32 1.25-.73-.25-1.45-.54-2.22 0-1.1.5-2.1 2.13-.43 2.68 2.32 1.56 6.08.88 7.2-1.84.58-1.4.62-3.2-.5-4.35-2.07-2.35-4.8-4-7.43-5.66-4.7-2.82-9.57-5.37-14.7-7.28zM254.05 158.03l-.3 3.34m3.08-1.63l-.86 3.27m3.83-1l-1.8 2.55m2.72 3.63l-2.6-1.4m3.4-1.35l-3 .28m-.85 4.07l-.2-2.64m-.9-.37l-2.47 1.82m-9.42-15.64v3.1m6.28.2v3.54m-3.14-5.2v3.33"/><path d="M235.78 227.56v8.03h5.03v-4.04h6.86v4.03h5.4v-8.04zm0 11.06v8.07h17.28v-8.08h-5.4v4.03h-6.85v-4.03zM253.05 193.65h5v58.12h-5zM253.05 198.68h5v50.06h-5zM255.55 179.4l10.62 6.2-10.62 6.15-10.63-6.16zm-14.22 3.98h-2.78v4.43h2.78l14.22 8.26 14.22-8.25h2.78v-4.42h-2.78l-14.22-8.25zM255.34 164.28c-2.42.34-4.22 2.73-4.1 5.13.02 3.75 0 7.5.02 11.23.13 2.4 2.24 4.56 4.68 4.6 1.98.17 3.98-1 4.8-2.8l-1.7-1.02c-.45 1.2-1.73 1.92-2.98 1.8-1.63.03-2.96-1.56-2.8-3.15 0-3.7-.03-7.43 0-11.14.1-1.5 1.54-2.74 3.05-2.6.64-.17 1.5.7 1.9-.05.57-.83-.43-1.48-.98-1.94-.62-.07-1.26 0-1.88-.02zm5.78 3.9c-.4.75-1.2 1.2-1.87 1.6v7.5l2 1.16c0-3.2.02-6.4 0-9.6-.04-.2-.02-.5-.13-.65z"/></g><g fill="#da000c"><path fill="#000" stroke="none" d="M240.8 38.35h29.33V91.6H240.8z"/><path d="M238.75 38.38v44.56h9.3V69.72c0-3.05 1.96-7.28 7.95-7.28s7.94 4.23 7.94 7.28v13.22h9.3V38.37zm15.8 5h2.9v15.24h-2.9zm-8.24 3h2.92v11.15h-2.9zm16.48 0h2.9v11.15h-2.9zm-27.2-14.4v6.33h40.83v-6.33zm-3.83-7.4V32h48.5v-7.4h-6.1v4.07h-6.87V24.6h-7.84v4.05h-6.88V24.6h-7.84v4.05h-6.88V24.6zm-9 73.26v4.6h66.5v-4.6zM220.03 82.9v14.94h71.94V82.9h-6.8v5.76h-9.08V82.9h-12.16v5.76h-15.88V82.9H235.9v5.76h-9.06V82.9zM228.7 102.44v54.34h12.83v-20.34c0-9.58 6.4-14.1 14.47-14.1 7.76 0 14.47 4.52 14.47 14.1v20.34h12.84v-54.34z"/></g></g></svg>