<svg xmlns="http://www.w3.org/2000/svg" width="640" height="480"><path fill="#e32118" d="M0 0h640v480H0z"/><path fill="#fff" d="M0 0h640v320H0z"/><path fill="#3e9a00" d="M0 0h640v160H0z"/><path fill="#0073ce" d="M0 0v480l180-240z"/><g stroke="#000"><path fill="#fff" d="M281.56 191.76h76.6V272c0 27-35.2 6.2-38.2 20.6-5.2-14.8-38.2 6.6-38.2-22.2 0-28-.2-78.64-.2-78.64z"/><path fill="#73452b" d="M325.36 279.8s-1 1-2.8.2c-1.8-.8-2-51.4-2-51.4 4-4.4 7.2-5.8 7.2-5.8l2.4 2c-9 4.6-8.2 11.2-7.4 22.6.2 4.2.2 9.6 1.2 14.8 1.4 6.6 4.2 12.2 4.4 16.4.2 2.6-3 1.2-3 1.2zM319.16 221.6h3.6c-3 29-.4 46.2-.4 54.6 0 2.8 1.6 3.8 1.4 3.8-3.6 4-5.4-.2-5.4-.2z"/><path fill="#a36629" d="M313.56 279.8c-3.4 1.6-3.8-1.6-3.6-2 7.4-15 10.6-48 3.8-51.6l.4-3.2c2.6.8 5 4.2 5 4.2 1 37 0 52.2-.6 52.8-3.6 3.8-5-.6-5.2-1"/><path fill="none" d="M313.36 279.2c-.6-3.2 5.2-11.4 4.8-20m5 7c1.8 5 2.6 9.4 2.2 13.6"/><path fill="#009a3b" d="M330.96 208c1.2-1.4 1.2-1.4 3.4-1.4.4-3 5.4-3 5.8.8 4-.8 4.8 1.6 3.2 4 3.8-1 7.2 0 6.2 4.4 6.8 1.8 4.2 6.6 1.2 7.6-.4 3-3.2 4-7 2.8-4.8 3.4-7.6 2.2-9.8-1.2-5.4.8-5.8-.4-8.2-3.4-4.2 1.8-5 1.8-8.6-.4-.2 2.8-1.2 2-3 1.8.2 3.6-1.2 5.2-4.4 4 2.4 5-3.8 7.2-6.8 3-2.8.2-3-.6-4.4-1.6-1.2 4-5.6 3.4-6.4 1.2-5.6-.8-5-3.8-.4-4 .4-3.2 3.2-2.6 5-2.2.2-2 1.4-1.6 2.4-1.2-.6-1.4-.2-2.2 1.6-2.6-2.6-3.4-1-4.6 1.6-5.8-1.4-3.2 1-3 2.8-3.2-.2-3.4.8-4 4.4-4.4-.4-1.2.2-2.2 2.2-2.2-1.2-3.4.4-4.18 4-3.6.6-4.94 11.2-2.6 10.4 4.2 3 .4 4 1 4.8 3.4z"/><path fill="none" d="M309.56 206.2c.8.4 1.8 0 2 2.2 1.6-2.8 3.6-1.2 3.6 2m11-5.8c-.8 1.2-3.8 1.2-3.4 4.4-1-1.4-3-1.8-3.8-.4m12-.6c0 .8-.2 3.2-1 4.4m13.4-1c.2.2-2.8 0-4.2 1m11.6 11c-.8-.4-2.4-1.4-3.6.2 0-.8 0-3-2.2-3m-1.2 5.6c0-2-.4-2.6-.8-3.2m-5.8.4c-1.6-1.2-3.2.6-3.2 1.6m-8.4-3.4c0-.8-.6-2.4.8-3m-23.6 11.4c.4-2 1.8-2 1.6-3-.2-1.6-2-3-4.2-.8m4.2.8c1.2-.4 2.4-.2 2.8.4m-6.2-7.8c.8-.8 2.8-.6 4 0m0-4.8c1 0 2.8-.4 3.4 1.4 2.2-3.4 3.8-3 4.2-2.2m4-.4c1.6-.6 4.4 1 6 3.8.8-2.2 2-1.8 3.2-2m7.6 2c2.6-1.2 4.2 1.2 5 2.2 1.2-1.6 2.2-1.6 3.4-1.6m-32.6 4.2c.6-1 2-1.2 3-.6-.2-1.8 1-2.6 1.8-2.2"/><path fill="#ffd700" d="M317.36 180.52l-4.4.2-2.2 3.94-2.4-3.76-4.4.18 2-3.96-2.4-3.76 4.6-.2 2-3.94 2.4 3.76 4.4-.18-2 3.96zm-18.8 1.46l-4.4 1.08-1.2 4.26-3.2-3.2-4.2 1.04 1.2-4.26-3-3.24 4.2-1.06 1.2-4.28 3.2 3.2 4.4-1.04-1.4 4.28zm-18.2 3.74l-4 1.98-.2 4.44-3.8-2.44-4 1.96.4-4.44-3.8-2.46 4-2 .4-4.44 3.6 2.44 4-1.96-.2 4.44zm42.8-5.2l4.4.2 2 3.94 2.4-3.76 4.4.18-2-3.96 2.4-3.76-4.4-.2-2.2-3.94-2.4 3.76-4.4-.18 2 3.96zm18.8 1.46l4.2 1.08 1.2 4.26 3.2-3.2 4.2 1.04-1.2-4.26 3.2-3.24-4.4-1.06-1.2-4.28-3.2 3.2-4.2-1.04 1.2 4.28zm18 3.74l4 1.98.2 4.44 3.8-2.44 4 1.96-.2-4.44 3.6-2.46-4-2-.2-4.44-3.8 2.44-4-1.96.4 4.44z"/><g fill="#fff"><path d="M365.36 270.4l5 7.2 4.6-6.8-3.2-5.8zm-31.8 21l.4 7.2s2 0 3.8-.6c1.6-.6 3-1.8 3-1.8l-.2-3.8zm-26.8 0l-.4 7s-1.8 0-3.6-.4c-1.6-.4-3-1.4-3-1.4l-2-4.8zm-32.2-21l-5.2 7.2-5.6-9.2 4.2-4.4zM299.56 305.8c0 6.8 41.2 6.8 41.2 0v-9.6c0 5-41.2 4-41.2 0zM262.76 283.6c3.6 18.4 36.8 18.8 36.8 18.8v-6.2c-.8-2.4.6-3.2 6-4 2.2-.2 1.2-3.4 1.2-3.4s-14.4 2.6-24.6-1.4c-13.8-5.6-15.8-16.4-15.8-16.4s-1 8.4-3.6 12.6zm114.6 0c-3.4 18.4-36.6 18.8-36.6 18.8v-6.2c.6-2.4-.8-3.2-6.2-4-2.2-.2-1-3.4-1-3.4s14.4 2.6 24.6-1.4c13.6-5.6 15.2-16.4 15.2-16.4s1.4 8.4 4 12.6zM265.36 276.6c-9.2-5-2-10.2-1.2-25 1.4 9 11.6 12.8 10.4 18.6-4.2.2-6.2-6.2-8.2.8l-1 5.6zm109.4 0c9.2-5.2 1.6-10.2.8-25-1.4 9-11.4 12.8-10.2 18.6 4 .2 6-6.2 8 .8l1.4 5.4z"/></g><path stroke="none" d="M270.96 283.4l1 .8-2.2 2.4c-.88.96-1.1 1.6-.48 2.18.76.73 1.3.47 2.08-.38l2.4-2.6.8.8-2.4 2.8c-1.3 1.52-2.5 1.17-3.52.22-.88-.82-1.4-2.02-.1-3.5l2.43-2.7zm4 3.4l1 .6-.2 4.8 2.2-3.4 1 .6-3.2 5.2-1.2-.6.2-4.8-2.2 3.4-1-.6zm1.8 8.4l2.8-5.6 1 .6-2.6 5.4zm4.4-4.8l-2.2 5.8 2.2.8c2.06.75 3.03-.16 3.68-1.9.66-1.77.37-3.07-1.68-3.9l-2-.8zm.8 1.4c2.07.72 2.2 1.5 1.63 2.93-.56 1.35-1.07 1.88-3.04.87l1.4-3.8zm5.8.8l-3.6 5.4 1.4.4.8-1.4 2.4.6.2 1.4 1.4.2-1.4-6.4-1.2-.2zm.4 1.4l.4 2.4-1.6-.2 1.2-2.2zm3.02-.88l-.2 6.2 2.34.04c2.2.05 2.8-1.12 2.86-2.98.06-1.9-.64-3.03-2.86-3.14l-2.14-.12zm1.2 1.07c2.2 0 2.57.7 2.5 2.23-.08 1.46-.4 2.12-2.58 1.8l.08-4.04zm19.78 7.6v6.4h1.4v-2.4s1.2.07 2.2-.2c.8-.2 1.34-.7 1.35-1.95.03-1.2-.68-1.85-1.9-1.85h-3.04zm1.4 1H315c1.17 0 .95 1.8.03 1.8h-1.43v-1.8zm5.8-1l-2.6 6.4h1.4l.6-1.6h2.6l.6 1.6h1.4l-2.6-6.4h-1.4zm.6 1.4l1 2.4h-1.8l.8-2.4zm3.4 3.8l3.4-4.2h-3v-1h4.8v1l-3.6 4.2h3.6v1.2h-5.2zm20.2-12.4l1.2-.2.6 3.6c.22 1.28-.37 2.15-1.28 2.5-1.04.37-2.36.02-2.52-1.7l1-.2c.24 1.03.65 1.12 1.13.96.37-.13.57-.73.46-1.36zm2-.36l1.2-.23.54 3c.23 1.3.63 1.84 1.47 1.7 1.03-.2 1.14-.77.92-1.9l-.74-3.2 1.2-.2.8 3.34c.48 1.94-.53 2.7-1.9 2.97-1.18.23-2.45-.07-2.86-2zm6.2 2.76l1-.4c.5.88 1.26.84 1.85.57.84-.36.94-1.1.53-1.33-.6-.35-1.98.15-2.73-.13-.9-.3-1.28-.82-1.23-1.6.05-.93.87-1.44 1.77-1.72 1-.3 1.98-.2 2.62 1.02l-1.2.4c-.4-.66-.9-.63-1.34-.42-.37.18-.95.5-.64 1.05.25.43 1.72.15 2.5.18.8.04 1.45.58 1.55 1.35.16 1.07-.24 1.65-1.48 2.14-1.54.58-2.92-.1-3.2-1.1zm5.4-5l-1.6.8-.4-1 4.4-1.8.4.8-1.6.8 1.8 4.4-1 .6zm2.6-2.2l1-.6 2.8 5.2-1 .6zm6.8.4l1.2-.4c.57 1.2-.28 3.34-2.35 3.3-3.02-.07-3.35-3.4-2.88-4.5.8-1.86 3.05-1.82 4.04-.8l-1 .8c-.63-.8-2.04-.3-2.13.45-.16 1.22.38 2.35 1.47 2.9.93.45 2.35-.7 1.66-1.75zm-.6-4.2l1-.8 3.6 4.8-1 .8zm3.8-3l-1 .8 2.2 6 1-1-.6-1.2 1.8-1.6 1.2.6 1-.8-5.6-2.8zm.4 1.4l2 1-1.2 1.2-.8-2.2z"/></g></svg>