<svg xmlns="http://www.w3.org/2000/svg" width="640" height="480" xmlns:xlink="http://www.w3.org/1999/xlink"><defs><linearGradient id="b"><stop stop-color="#d5dfff" offset="0"/><stop stop-color="#fff" offset="1"/></linearGradient><linearGradient id="a"><stop stop-color="#474747" offset="0"/><stop stop-color="#f50" offset="1"/></linearGradient><linearGradient id="c" x1="109.34" x2="110.94" y1="218.47" y2="173.45" xlink:href="#a" gradientUnits="userSpaceOnUse" gradientTransform="matrix(1.5 0 0 .65 40.51 .01)"/><linearGradient id="d" x1="125.91" x2="126.02" y1="316.38" y2="337.23" gradientUnits="userSpaceOnUse" gradientTransform="matrix(1.23 0 0 .8 40.51 .01)"><stop stop-color="#b50000" offset="0"/><stop stop-color="#ffc500" offset="1"/></linearGradient><linearGradient id="e" x1="407.87" x2="456.4" y1="149.38" y2="147.35" xlink:href="#b" gradientUnits="userSpaceOnUse" gradientTransform="matrix(.56 0 0 1.76 40.51 .01)"/><linearGradient id="f" x1="215.83" x2="228.97" y1="102.99" y2="102.99" xlink:href="#a" gradientUnits="userSpaceOnUse" gradientTransform="matrix(.74 0 0 1.33 40.51 .01)"/><linearGradient id="g" x1="117.6" x2="78.221" y1="1040.4" y2="1003.7" xlink:href="#b" gradientUnits="userSpaceOnUse" gradientTransform="matrix(2.56 0 0 .38 40.51 .01)"/><linearGradient id="h" x1="264.72" x2="255.03" y1="245.98" y2="226.38" xlink:href="#b" gradientUnits="userSpaceOnUse" gradientTransform="matrix(.9 0 0 1.1 40.51 .01)"/></defs><path fill="#006" d="M0 0h640v480H0z"/><path fill="#fff" d="M0 0v32.95l403.22 261.73h50.76v-32.94L50.75 0H0zm453.98 0v32.95L50.75 294.68H0v-32.94L403.22 0h50.76zM189.16 0v294.68h75.66V0h-75.66zM0 98.23v98.22h453.98V98.23H0z"/><path fill="#c00" d="M0 117.87v58.94h453.98v-58.93H0zM204.3 0v294.68h45.4V0h-45.4zM0 294.68l151.33-98.23h33.83L33.84 294.68H0zM0 0l151.33 98.23H117.5L0 21.96V0zm268.82 98.23L420.14 0h33.84L302.65 98.23h-33.83zm185.16 196.45l-151.33-98.23h33.84l117.48 76.27v21.96z"/><path fill="#6a4c2d" fill-rule="evenodd" stroke="#000" stroke-width="1.147" d="M463.75 349.95s-2.88 7.6-4.52 7.6c-1.65 0-7.6-3.28-7.6-3.28s-4.33 7-6.6 7.4c-2.26.4-8.22-1.03-8.22-1.03s-5.75 0-5.95-.82c-.2-.82.2-2.47.2-2.47s-8.22 6.58-10.08 6.17c-1.85-.4-8.02-8.23-8.02-8.23l-1.03 4.12-11.72-.42-10.28-6.58s-5.76 9.46-5.97 9.26c-.2-.2-10.07 2.26-10.07 2.26l-.62-1.85-6.58-3.92s5.14-7.2 5.14-7.4c0-.2-2.47-1.03-2.47-1.03l-3.7 3.08-7.6 4.94-7.62-3.5 3.3-6.17.4-4.52 5.97-9.05 73-70.95 36 66.42-5.35 19.95z"/><path fill="#fff" fill-rule="evenodd" stroke="#000" stroke-width="1.147" d="M515.62 354.25l19-.68-8.1-4 72.42-2.73-10.23-3.9-9.05-12.28-37.52-2.82s-2.83-2.15-7.4-1.07c-.2-2.93-3.7-6.73-3.7-6.73l-23.1-1.75-14.43 9.83 9.74 24.95 12.38 1.17z"/><path fill="url(#c)" fill-rule="evenodd" stroke="#000" stroke-width="1pt" d="M121.32 150.76l2.22-7.56s3.9-6.56 3.9-9.45c0-2.9 2.9-6.34 2.9-6.34s8.88-2.55 10.77 2.9c9.58-14.46 20.8-.67 20.8-.67l3.12-3.67 6.34-7.78s9 8.45 9.12 9.9 1.56.44 1.56.44l9.78-.78s4.65 3.63 3.67 10.56c3.44 2.04 6.55 14 6.55 14l-80.73-1.54z" transform="matrix(.86 0 0 .86 337.27 11.7)"/><path fill="#656263" fill-rule="evenodd" stroke="#000" stroke-width=".86pt" d="M515.5 218.72c1.45-.9 6.03-2.34 5.47-9.04-.56-6.7-6.36-7.47-9.6-7.25-3.23.23-6.13 3-6.13 3l-10.7-6.8s5.35-33.78 11.04-35.9c5.4-3.9 6.36-5.58 6.36-6.47s-2-3.12-2-3.12L475 149 442 152.9s-2.56 3.92-2.23 5.48.45 3.23 6.36 7.8c6.54 5.03 11.04 33.9 11.04 33.9s-9.26 4.6-9.82 4.03c-.55-.55-3.34-1.1-4.8-.88-1.44.22-6.24 2.67-6.24 9.03 0 6.36 4.8 10.04 4.8 10.04s31.57-3.7 36.26 5c4.57-10.48 34.57-6.8 38.14-8.58z"/><path fill-rule="evenodd" stroke="#000" stroke-opacity=".979" stroke-width="1.075" d="M549.5 183.6s.36-3.68 2.98-5.43c2.62-1.74 20.1-2.62 24.28 0s5.76 15.55 5.76 15.55 2.62 4.54 2.8 7.86.52 5.6.52 5.6 13.98 18.16 14.15 34.58c1.57 11.18 1.22 41.05-3.15 52.4-.18 14.15-6.12 23.4-6.12 23.4s1.4 2.45 1.23 5.08c-.18 2.62-1.58 5.06-1.58 5.06l20.44 10.13-7.5-2.8s7.68 6.47 7.5 6.3c-.17-.18-8.56-4.02-8.56-4.02l5.07 5.07c-.18-.17-12.4-5.6-12.4-5.6s5.76 5.43 5.4 5.25c-.34-.17-9.25-4.36-9.25-4.36s5.6 5.94 5.42 5.6-8.04-3.5-8.04-3.5l.35 2.96s-6.28-.35-6.28-5.06c-3.14-1.75-5.24-4.2-5.24-4.2l-14.5-2.44-16.42-49.1 3.85-82.96 1.05-4.2-1.74-11.17z" stroke-linejoin="round"/><path fill="#fb0" fill-rule="evenodd" stroke="#000" stroke-width="1.139" d="M538.54 448.75s-8.4-17.7-12.6-17.94c-3.8-7.2 13.14-66.18 45.9-69.54 18 1.48 1.48 20.76-10.36 14.83 1.48 5.18 7.4 12.6 7.4 12.6s-23.44 10.13-30.35 60.05z"/><path fill="#fb0" fill-rule="evenodd" stroke="#000" stroke-width=".86pt" d="M425.77 451.33s6.96-20.14 11.2-20.38c4.22-.25-11.2-67.13-44.76-67.63-18.14 1.5-1.48 20.9 10.45 14.92-1.5 5.22-7.46 12.68-7.46 12.68s23.6 10.2 30.57 60.4z"/><path fill="#00713d" fill-rule="evenodd" stroke="#000" stroke-width=".86pt" d="M456.56 325.54c-.08-.16-8.33 2.6-3 11.56.4-3.47 4.13-5.58 4.13-5.58s-5.67 6.72.32 12.38c.72-5.34 4.12-7.04 4.12-7.04s-4.2 12.38.08 14.88c.5-4.93 3.64-7.1 3.64-7.1s-3.8 11.07-.4 13.57c.4-4.2 3.23-6.05 3.23-6.05s-1.7 11.48 2.74 12.3c.08-4.05 3.32-8.02 3.32-8.02s-1.46 9.38 5.5 9.8c.08-3.57 1.37-7.6 1.37-7.6s3.16 9.93 7.77 8.32c-.08-2.9.08-8.4 0-8.4s2.9 9.45 8.4 7.67c-.8-2.67.33-5.82.33-5.82s2.9 5.9 8.17 3.96c.9-1.78-.24-5.26-.24-5.26s7.68 7.93 10.03 3.16c2.33-4.78-6.16-6.4-6.16-6.4h5.74s-1.86-4.84-9.62-5.9c2.67-1.2 5.42-.32 5.42-.32s-1.62-6.07-9.55-6.7c3.08-1.07 6.47-.34 6.47-.34s-1.05-5.74-9.78-7.36c1.37-1.53 5.1-1.05 5.1-1.05s-3.48-5.43-7.45-5.1-39.8-3.64-39.7-3.56z"/><path fill="none" stroke="#3ec26d" stroke-width="1.075" d="M491.9 354.74s3.15 1.53 3.07 2.9m-1.2-5.4s4.04 2.82 3.96 4.93m-.4-6.4s3.22 2.02 3.38 5.18m2.03-3.88s1.62 3.48 1.05 4.13m2.2-2.27c.24 2.75-.25 3-.25 3m-39.63-20.4s3.8 2.44 3.48 5.83m-3.72-2.9s1.78 1.7 1.37 2.83m3.32-5.67s2.5 3.47 1.7 5.9m2.6-3.64s1.12 2.17.07 3.38m1.94-2.34s1.37 2.18.16 2.9m-1.7 4.3s3.56.8 4.05 3.47m-1.95-5.9s3.72.25 4.13 4.22m.8-5.6c.1 0 2.52 4.3 2.1 5.67m2.68-5.26s.97 4.12.25 5.42m2.82-3.8c0 .07.08 4.76.08 4.76m-4.76-11.23s2.34.88 2.18 3.14m0-5.26s2.98 1.7 2.66 4.93m.82-6.3s2.58 3.1 1.6 6.48m2.92-5.74s-.97 3.8-.57 5.33m3.32-2.75s-1.7 1.3-.8 2.92m-13.9 11.88s.55 2.9 0 3.4m-3.74-5.1s1.87 3.24 1.23 4.86m-5.18-5s2.1 2.4 2.02 4.35m-5.25-3.88s1.94 1.86 1.78 2.9m-3.48-.07s1.86 1.94 1.78 2.34" stroke-linecap="round"/><path fill="#fff" fill-rule="evenodd" stroke="#000" stroke-width=".86pt" d="M430.9 222.2l26.74-.47s17.67 0 19.58 5.74c3.35-7.65 18.63-7.17 18.63-7.17 9.24-.32 18.47-.64 27.7-.95l.5 66.87c-5.43 25.95-24.22 44.26-44.92 52.06-24.68-7.96-40.28-28.82-45.37-52.54l-2.87-63.53z"/><path fill="#006b00" fill-rule="evenodd" stroke="#000" stroke-width=".86pt" d="M440.42 221.96l38.96 103.84 35.2-106.1c-10.92.7-34.35-1.72-37.26 8.25-4.5-8.92-29.15-5.33-36.9-6z"/><path fill="#ffc900" fill-rule="evenodd" stroke="#006b00" stroke-width=".593" d="M466.94 278.18c1.5.78 1.46-28.18 3.43-29.08.56-2.4.84-3.45 1.54-6-1.67-3-9.27-2.84-12.08-.3 1.27 4.05 1.83 5.4 1.83 5.4 3.8 6.15 3.04 30.63 5.3 29.98z" stroke-linecap="round"/><path fill="#cdad56" fill-rule="evenodd" stroke="#000" stroke-width="1.075" d="M456.5 54.3s2.75-3.12 2.88-3.87c.12-.75 12.5-1.25 19.9-15 4.12-7.27 0-3.02 0-3.02l-.26-3.5s5.13-4.87 3.26-7.5c-1.88-2.62-1.26 3.38-4.26 3.26-3-.13-1.38-6.5-1.38-6.5s-.25-.76-1.12-1.13c-1.25.12-.88 2.37-2 2.62-1.13.25-2.13-5.25-2.13-5.25s-1.9-2.5-3.5 5.38c.86 8.38 6.24 6.75 6.24 12.26 0 5.5-4.75 9.76-6.13 9.88-1.36.13-.86-4.63-.86-4.63s-.75-2.26-1.25-2.26 2.74-.5 2.24-6.76c-1.13-7.5-2 1.75-4 1.38s-.5-6.88.24-7.63-.87-3.88-5.25 4.13c-.38 3.88-.88-1-1.75-.75-1.5 3.13-1.25 5.4.87 8.26 3.13 2.88 5.13 5.76 5 7.26-.12 1.5-1.74 4.88-4 4.88s.13-4.13 0-5.5c-.12-1.38-3.87-6.38-3.87-6.38s-2.63-4.26-2.38-4.38c.25-.13-.25-.75-1.5 3.62s-2.76-2.87-2.76-2.87-1.75 5.37 2 8.62c-2.87-.38-3.12.75-3.12.75 0 1.5 3.88 2.13 4.38 4.75s-4 4.13-4 4.13 1.87 2.63 7.12-2.5c.13 3.25-2 5.5-2 5.5 1.75.8 3.13.72 3.38 2.76z" stroke-linejoin="round"/><path fill="#cdad56" fill-rule="evenodd" stroke="#000" stroke-width=".945" d="M439.33 54.3s-2.33-3.46-2.44-4.14c-.1-.7-11.5.86-16.9-13.04-3.5-6.6 0-2.73 0-2.73l.2-3.2s-3.72-4.56-2.13-6.95c1.6-2.4.94 3.07 3 3.08 2.54-.1 1.16-5.92 1.16-5.92s.2-.67.95-1c1.07.1 1.5 3.53 2.46 3.75.95.23 2.93-4.03 3.55-4.9.87-.13.84-3.53 2.22 3.64-.75 7.62-7.07 6.14-7.07 11.15 0 5 4.04 8.88 5.2 9 1.18.1.75-4.22.75-4.22s.64-2.05 1.07-2.05c.42 0-3.72.8-3.3-4.9.96-5.33 3.08.35 4.78 0 1.7-.34-.2-5.63.3-6.44.1-.8 2.6-4.28 3.58 3.38.32 3.53 2.24-3.04 3-2.8 1.26 2.84-.58 6.64-2.38 9.26-2.66 2.62-3.86 5.5-3.75 6.85.1 1.37.73 3.06 2.65 3.06 1.9 0 .64-2.4.75-3.64.1-1.25 3.3-5.3 3.3-5.3.62-1 .1-2.87.76-3.74 1.04 0 1.46-1.43 2.53 2.55 1.05 4 2.32-2.62 2.32-2.62s1.5 4.9-1.7 7.86c2.45-.33 2.66.7 2.66.7 0 1.36-1.17 1.93-1.6 4.32-.42 2.4 1.28 3.76 1.28 3.76s-1.6 2.4-6.06-2.28c-.1 2.96 1.7 5 1.7 5-1.48.73-2.65.65-2.87 2.5z" stroke-linejoin="round"/><path fill="#ffc900" fill-rule="evenodd" d="M508.08 237.45c-2.33-2.12-2.6-.27-3.75-.74-.56-.23-1-.75-1.5-1.23-.42-.44-.92-.62-1.48-.85l-.64 1.88c-.2.62.6 1.66.58 2.6-.16 1.4-.73 2.55-2.48 3.03.5-1 .78-1.04.63-2.25-.07-.6-1.76-1.67-1.55-2.24.3-.92.83-2 .44-2.9-.72.5-1.66.23-2.38.53-.6.27-.64 1.4-1.48 1.86-.87.4-2.77.2-4.35-.7.98-.73 1.78-.24 2.75-.97.48-.37.46-1.94.95-2.3s1.64-.77 2.13-1.14c-.44-.5-.4-1.28-.85-1.78-.44-.5-2.37-.4-2.8-.9-.88-.98-.7-2.3-1.6-3.28 2.27.8 1.94 1.9 2.5 1.83 1.08-.53 2.15-.63 2.7-.4.57.24 1.64 1.64 2.2 1.88.2-.63.52-1.43.73-2.05.22-.63-.94-1.7-.73-2.34.43-1.26 1.48-2.37 1.9-3.62.15 1.2.36 2.22.5 3.43.08.6 1.27.93 1.35 1.53.07.6-.62 2-.55 2.6.65-.12 1.6-.03 2.24-.16.66-.13 1.1-1.64 1.73-1.77 1.3-.25 2.23-.18 3.56.07-.98.9-1.74.85-2.34 1.68-.5.37.18 1.58-1.22 2.43-.53.3-1.9-.06-2.4.3l1.3 1.5s2.4.73 2.84 1.22c.88 1 1.34 2.18 1.1 3.25zm-59.9 1.02c2.32-2.1 2.6-.27 3.74-.74.56-.23 1-.76 1.5-1.24.42-.44.92-.63 1.48-.86l.64 1.88s-.6 1.66-.57 2.6c.16 1.4.73 2.55 2.48 3.03-.5-1-.78-1.04-.63-2.24.07-.6 1.76-1.67 1.55-2.24-.3-.92-.83-1.98-.44-2.9.72.5 1.66.23 2.38.53.6.26.65 1.4 1.5 1.85.86.4 2.76.2 4.34-.7-.97-.73-1.77-.23-2.74-.97-.48-.37-.46-1.94-.95-2.3-.48-.38-1.64-.77-2.13-1.14.44-.5.4-1.28.85-1.78.44-.5 2.37-.4 2.8-.9.88-.98.7-2.3 1.6-3.28-2.27.8-1.94 1.9-2.5 1.83-1.08-.5-2.15-.6-2.7-.37-.57.23-1.64 1.63-2.2 1.87-.2-.63-.52-1.43-.73-2.05-.22-.63.95-1.7.74-2.34-.43-1.24-1.48-2.35-1.9-3.6-.16 1.2-.36 2.22-.5 3.43-.08.6-1.27.92-1.35 1.52-.07.6.62 2 .55 2.6-.65-.12-1.6-.03-2.24-.16-.65-.14-1.08-1.64-1.73-1.77-1.28-.26-2.22-.18-3.54.07.97.9 1.73.84 2.33 1.67.48.37-.2 1.58 1.2 2.43.53.3 1.92-.06 2.4.3l-1.3 1.5c-.44.5-2.4.73-2.84 1.23-.87 1-1.33 2.18-1.1 3.24z"/><path fill="#ffc900" fill-rule="evenodd" stroke="#006b00" stroke-width=".593" d="M506 244.14c-2.12 1.65-15.75 5.1-15.9 16.94-.13 11.84 2.4 14.54-.13 14.84-4.93 0-5.63-13.2-5.5-19.04.15-5.85.3-4.95.3-4.95s3.37.9 3.1 3.75c-.3 2.85 3.36-7.04 2.1-9.74 2.24 2.25 5.2 1.35 5.2 1.2 0-.15-1.7-1.95-2.4-3.3-.7-1.35 2.54.75 2.54.75s.15-2.26-2.66-2.1c-3.66 0 .56-1.2.56-1.2s2.1 1.94 3.5-.16c-1.53-1.65-3.78-2.55-3.78-2.55s-1.97-3.75-4.64-4.5c-3.1-.75-2.67 1.35-6.2 1.05-.7 1.34-.7 1.5.7 1.94-2.38 1.64-1.1 4.94-1.1 4.94s3.8-1.65 3.64 1.05c-.14 2.7-2.25 2.24-3.65.6-1.27-.76-1.7.74-1.7.74l1.98 2.1s-3.8-.15-4.78 2.4c2.1-.15 3.24.45 3.24.45s-4.35 1.94-4.78 2.98c-.42 1.05-.56-1.2-.7-1.2-.14 0-4.2-1.5-4.2-1.5l-1.42 6.5s2.8 2.8 4.36 1.9c1.55-.9 4.36-3.6 6.04-2.85-4.92 3.75-9.84 9.15-12.5 9.9-.7-.6-3.1-3-4.1-1.8-.97 1.2-.27 2.7 1 2.55 1.26-.15-4.08 1.2-2.95 3.44 1.12 2.25.98 2.1 1.97 1.5.98-.6-.85-.75 2.8-1.8 3.66-1.05 3.52-2.1 3.52-2.1s-.7 1.65-2.67 2.1c-1.97.45-3.5.45-3.1 1.05.43.6 1.27 1.65 1 2.25-.3.6 4.07-3.15 5.2-.15 2.95-.15 4.92-3.75 3.5-5.85.15 2.25 1.56 3 .7 4.05s6.62-3.45 2.96-6.14c1 2.25 1.13 4.04 1.13 4.04s1.7-.15 2.1-.75c.43-.6-.84 1.65-.27 2.1.55.45 3.22 3 2.1 4.8-.7-1.05-.85-2.7-1.7-2.55-.83.15-4.35 2.7-6.46 2.85s2.53 7.8 2.53 7.8-3.23-.46-3.65-.16c-.42.3-2.53-2.7-2.95-.9-.7 2.25.7 1.35.7 1.35s-1.83-.9-2.8.16c-1 1.05-1.98 2.1-1.28 2.55.7.46 3.8.46 4.2.3s-3.5.3-3.8.76c-.27.45-.83 2.1 0 2.7s2.97-.3 3.1-.75c.15-.44.3 1.66.3 1.66s3.64.3 3.64-3.45.28 2.7.28 2.7 3.66.6 3.8-3.14.42 2.55.42 2.55 2.4-.74 2.4-1.34c0-.6-.15 7.5-1.84 9.74-2.67-1.8-4.36 1.2-4.36 1.2s.14 4.35-.14 5.4c-.28 1.05 1.83-.6 1.97-1.05.14-.45 2.67-1.65 2.8-1.95l.86-1.8s-.57 2.1-1.55 2.4-1.97 1.35-1.55 2.25c.42.9 1.97 1.5 2.53 2.4.57.9 2.53-5.25 2.53-5.25l.13 1.35s2.53-.6 2.82-1.8c.28-1.2-2.67-2.25-.28-4.2 2.4-1.94 0 1.8 0 1.8s.84 2.85 1.4 2.85 1.97-5.4.56-6.74c-1.4-1.35 2.1 1.65 2.1 1.65s1.98-5.54-.13-6.3-3.1-1.04-3.1-1.04 1.13-1.5.57-1.65 2.95 3.3 3.5 2.4 1.42-3.6-2.66-5.1c-4.06-1.5-.13-5.68-.13-5.68s2.53 3 4.36 1.35c1.83-1.65-.14-1.65-.14-1.65s5.2-3.3 5.33-4.95c-.98-.15-2.67.15-2.67.15s2.96-1.95 2.25-5.1c-1.1 1.65-2.66 1.65-2.66 1.65s2.53-2.55 2.1-4.94c-1.54 1.2-1.4 2.1-2.38 1.8s-2.67-9.75 1.26-10.35c3.94-.6 1.83 4.65 1.97 4.65.13 0 5.9-2.4 0-6.3 1.4-.45 4.35 2.25 4.35 2.25s-1.26-6.6-7.6-2.55c1.56-1.64 2.54-2.7 3.8-2.4 1.27.3 5.77-.14 5.77-1.5-1.12-.9-3.52.46-4.78 0-1.27-.44 9-1.2 8.15-6.3z" stroke-linejoin="round" stroke-linecap="round"/><path fill="none" stroke="#006b00" stroke-width="1.25" d="M481.3 118.54s12.25-6.43 18.37 1.53m4.9 12.25c-.3 0-4.3 3.98-5.2 3.98m13.47 8.88s11.33.92 18.68-10.4M525.08 141.8s.92 6.13 2.76 6.13-3.07 1.53-4.9.3c2.14 2.76 3.37 7.66 0 9.5" transform="matrix(.46 0 0 .5 240.33 190.12)" stroke-linecap="round"/><path fill="#e80000" fill-rule="evenodd" stroke="#006b00" stroke-width="1.25" d="M519.26 218.97s-3.98 4.3-8.88 4.6" transform="matrix(.46 0 0 .5 240.33 190.12)" stroke-linecap="round"/><path fill="none" stroke="#006b00" stroke-width="1.25" d="M523.86 199.37s-2.45-12.25-.92-15.3c.92-4 4.9-5.52 7.96-10.72m-8.27 17.14s-3.06 7.34-16.53 4.9m20.2-23.28s.93 9.8-11.32 6.12m-3.68-50.2s-4.9 4.3-3.06 10.1" transform="matrix(.46 0 0 .5 240.33 190.12)" stroke-linecap="round"/><path fill="#006b00" fill-rule="evenodd" d="M483.73 247.6s2.96-1.2 3.52-1.8c.56-.6 1.55-1.8 1.83-2.7.28-.9-1.97-2.25-.85-4.2.7-.9 1.7-1.05 3.38 0 1.7 1.05-1.54-3.3-3.23-3.45s-2.8 1.2-3.23.9c-.42-.3.14 1.2-.56 1.2s1.4 1.2 1.26 1.95c-.14.75 2.25 3.3 2.1 3.9-.13.6-3.5 4.05-4.2 4.2z"/><path fill="#ffc900" fill-rule="evenodd" stroke="#ffc900" stroke-width="1.25" d="M534.27 97.1c2.8-.62 3.24.08 2.75 2.46-1.3-.66-1.8-1.22-2.75-2.45z" stroke-linejoin="round" transform="matrix(.46 0 0 .5 240.33 190.12)" stroke-linecap="round"/><path fill="#e80000" fill-rule="evenodd" stroke="#006b00" stroke-width="1.25" d="M514.7 233.52s-1.02 6.4 1.5 6.95c-.13-2.48.54-4.18 1.16-4.84-.54-.25-2.52-2.07-2.65-2.1zm-5.67-7.9c-2.32-.32-6.23 1.6-5.1 3.92 1.88-1.62 3.62.14 4.94-1.52.4-.45.3-1.8.16-2.4zm-.02-4.57s-3.64-.58-4.15 1.95c2.52-.32 3.28-.6 4.1-.06.25-.54.02-1.76.06-1.9z" stroke-linejoin="round" transform="matrix(.46 0 0 .5 240.33 190.12)"/><path fill="#e80000" fill-rule="evenodd" stroke="#006b00" stroke-width="1pt" d="M493.54 184.94s2.2.83 2.8 3.06c1.75-1.07 2.58-5.83-2.8-3.06zm-5.42 5.45c.08-.05 4.6-2.78 5.04-.18-.95.95-1.36 1.57-2.1 1.78-.58 0-1.74-1.78-2.94-1.6zm-.45 8.84c.08-.04 2.9-2.52 3.97-.87 1.07 1.65-.87 1.57-.87 1.57s-1-.45-3.1-.7zm-3.97-49.28c-.04 0-3.6-1.36-5.1 1.12 2.37.3 3.2 1.1 4.27 1.94-.3-1.03-.78-2.6.83-3.06zm-6.9 18.56s.17-4.18 2.15-5.87c1.12.62 1.45 1.6 2.2 2.85-1.5.33-3.48.4-4.35 3.02zm9.5-2.98s-3.93 1.82-2.65 3.8c1.3-1.36 2.7-.95 2.7-1s0-2.76-.05-2.8z" stroke-linejoin="round" transform="matrix(.46 0 0 .5 240.33 190.12)"/><path fill="#ffc900" fill-rule="evenodd" stroke="#006b00" stroke-width="1pt" d="M480.64 125.6c-1.4 1.57 1.74 5 5.04 4.5.83-3.7-4.2-5.66-5.04-4.5z" stroke-linejoin="round" transform="matrix(.46 0 0 .5 240.33 190.12)"/><path fill="none" d="M461.18 248.13c-.3.86.95 2.06 1.67 1.72.3-.88-1.34-2.4-1.67-1.72z"/><path fill="#e80000" fill-rule="evenodd" stroke="#006b00" stroke-width="1pt" d="M484.28 122.75s.62 2.94 3.47 2.15c-.45-2.27-2.44-3.97-2.44-3.97-.1.66.43 1.7-1.02 1.82zm1.9 8.52s1.57 1.7 4.67-1.78c-1.4.4-3.88-.83-3.88-.83s0 2.4-.8 2.6z" stroke-linejoin="round" transform="matrix(.46 0 0 .5 240.33 190.12)"/><path fill="#ffc900" fill-rule="evenodd" stroke="#006b00" stroke-width="1pt" d="M480.46 118.86c-1.4 1.57.58 3.76 3.9 3.27.82-3.72-3.07-4.43-3.9-3.27z" stroke-linejoin="round" transform="matrix(.46 0 0 .5 240.33 190.12)"/><path fill="url(#d)" fill-rule="evenodd" d="M144.62 266.62s7.04-2 10.77 1 3.73.3 3.73.3 5.45 2 7.03 1.57-1.15.14 1-1.16c2.16-1.3-4.3.3-4.87-2.44-1.02-1.72.13-3.88-2.17-3.16-1.58-2 1-3.44.43-5.6-1.58 1.15-2.44-.43-3.73 2.44-3.02-.57-.43-4.74-3.74-5.17 0 3.03-2.45 3.17-2.6 4.9-1.43 1-7.75 4.73-5.88 7.32z" transform="matrix(.86 0 0 .86 337.27 11.7)"/><path fill="#c01500" fill-rule="evenodd" stroke="#000" stroke-width=".86pt" d="M392 437.9c3.9-.95 25.2 4.7 33.4 13.5-1.75-15.67-6.1-27.67-6.1-27.67s-12.67-3.62-14.4-1.88c-2.56 2.7-10.23 10.75-12.9 16.05zm-6.5-72.34c-1.5.24-2.98 1.24-4.47 3.73-1.74 4.2-3 14.9-5.47 17.4-2.5 2.47-4.73 2.72-4.73 4.96 0 2.24.25 7.46 6.96 9.45 6.7.26 17.4-10.68 17.4-10.68s5.47-5.97 7.7-12.43c-12.92 4.46-22.12-7.47-17.4-12.44z"/><path fill="#c01500" fill-rule="evenodd" stroke="#000" stroke-width="1.139" d="M572.47 435.4c-3.9-.94-25.42 4.67-33.56 13.42 1.74-15.57 6.05-27.5 6.05-27.5 1.5-.4 12.44-3.6 14.17-1.87 2.53 2.68 10.7 10.68 13.35 15.95zm6.03-71.92c1.48.25 2 2.2 3.2 4.67 1.74 4.2 3.52 10.32 6 12.8 2.45 2.46 4.67 6.12 4.67 8.35 0 2.22-.52 5.23-7.18 7.2-6.67.25-16.32-8.3-16.32-8.3s-5.43-5.94-7.65-12.36c12.83 4.45 21.14-7 17.27-12.36z"/><path fill="#fb0" fill-rule="evenodd" stroke="#000" stroke-width=".86pt" d="M378.04 424.23s13.43 9.2 13.68 13.43c36.05-53.45 128.03-70.1 180.5-3.73 6.95-9.2 14.16-12.18 14.16-12.18-55.2-72.1-165.08-63.15-208.34 2.48z"/><g fill="#1e5aa6" fill-rule="evenodd" stroke="#000"><path d="M514.93 219.86l5.26-.12-9.4 11.9 11.27 13.13-22.16 27.92 20.92 25.16c-2.3 5.63-4.97 10.77-8.52 15.4L500.28 300l21.8-27.18-17.92-20.28 10.77-32.68zm-75.12 2.38l-5.62.12 10.5 11.4-11.13 13.9 23.16 25.16-19.15 25.66c2.3 5.64 5.6 11.9 9.14 16.53l11.4-14.4-23.43-26.03 17.16-21.78-12.02-30.56zM465.85 289.84l-8.26 11.02 29.54 34.18c5.2-2.63 9.3-5.63 13.77-9.26L485.5 308l6.27-18.4 9 10.38-28.16 35.94c-4.7-2-9.92-5.14-14.64-9.02l14.9-18.9-7-18.16zm-9.14-17.15l5.4 6.75-3.5-9.14-1.9 2.4zM495.27 278.67c.12-.12 4.35-5.76 4.35-5.76l-1.65-2.24-2.7 8z"/></g><text x="-328.344" y="362.397" font-weight="bold" transform="matrix(.56 -.65 .65 .56 337.27 11.7)" font-size="14" font-family="Timmons"><tspan x="-328.344" y="362.397">L</tspan></text><text x="-292.335" y="384.266" font-weight="bold" transform="matrix(.6 -.6 .6 .6 337.27 11.7)" font-size="14" font-family="Timmons"><tspan x="-292.335" y="384.266">E</tspan></text><text x="-239.78" y="451.681" font-weight="bold" transform="matrix(.66 -.47 .5 .65 337.27 11.7)" font-size="14" font-family="Timmons"><tspan x="-239.78" y="451.681">O</tspan></text><text x="-188.526" y="429.958" font-weight="bold" transform="matrix(.7 -.48 .48 .7 337.27 11.7)" font-size="14" font-family="Timmons"><tspan x="-188.526" y="429.958">T</tspan></text><text x="-115.426" y="451.479" font-weight="bold" transform="matrix(.78 -.37 .37 .78 337.27 11.7)" font-size="14" font-family="Timmons"><tspan x="-115.426" y="451.479">E</tspan></text><text x="-94.111" y="453.046" font-weight="bold" transform="matrix(.8 -.35 .35 .8 337.27 11.7)" font-size="14" font-family="Timmons"><tspan x="-94.111" y="453.046">R</tspan></text><text x="-68.371" y="454.982" font-weight="bold" transform="matrix(.8 -.32 .32 .8 337.27 11.7)" font-size="14" font-family="Timmons"><tspan x="-68.371" y="454.982">R</tspan></text><text x="112.016" y="445.666" font-weight="bold" transform="matrix(.86 -.07 .07 .86 337.27 11.7)" font-size="14" font-family="Timmons"><tspan x="112.016" y="445.666">R</tspan></text><text x="180.225" y="430.793" font-weight="bold" transform="matrix(.86 0 0 .86 337.27 11.7)" font-size="14" font-family="Timmons"><tspan x="180.225" y="430.793">R</tspan></text><text x="414.759" y="275.217" font-weight="bold" transform="matrix(.75 .43 -.43 .75 337.27 11.7)" font-size="14" font-family="Timmons"><tspan x="414.759" y="275.217">R</tspan></text><text x="483.878" y="193.05" font-weight="bold" transform="matrix(.66 .55 -.55 .66 337.27 11.7)" font-size="14" font-family="Timmons"><tspan x="483.878" y="193.05">E</tspan></text><text x="309.116" y="414.028" font-weight="bold" transform="matrix(.83 .16 -.13 .82 337.27 11.7)" font-size="14" font-family="Timmons"><tspan x="309.116" y="414.028">O</tspan></text><text x="105.058" y="459.272" font-weight="bold" transform="matrix(.78 -.1 .12 .84 337.27 11.7)" font-size="14" font-family="Timmons"><tspan x="105.058" y="459.272">O</tspan></text><text x="-45.708" y="455.835" font-weight="bold" transform="matrix(.8 -.3 .3 .8 337.27 11.7)" font-size="14" font-family="Timmons"><tspan x="-45.708" y="455.835">A</tspan></text><text x="518.35" y="144.724" font-weight="bold" transform="matrix(.6 .6 -.6 .6 337.27 11.7)" font-size="14" font-family="Timmons"><tspan x="518.35" y="144.724">A</tspan></text><text x="271.188" y="388.298" font-weight="bold" transform="matrix(.84 .17 -.17 .84 337.27 11.7)" font-size="14" font-family="Timmons"><tspan x="271.188" y="388.298">A</tspan></text><text x="40.322" y="455.168" font-weight="bold" transform="matrix(.85 -.16 .16 .85 337.27 11.7)" font-size="14" font-family="Timmons"><tspan x="40.322" y="455.168">M</tspan></text><text x="94.429" y="448.079" font-weight="bold" transform="matrix(.86 -.1 .1 .86 337.27 11.7)" font-size="14" font-family="Timmons"><tspan x="94.429" y="448.079">P</tspan></text><text x="155.088" y="437.607" font-weight="bold" transform="matrix(.86 0 0 .86 337.27 11.7)" font-size="14" font-family="Timmons"><tspan x="155.088" y="437.607">P</tspan></text><text x="405.134" y="276.665" font-weight="bold" transform="matrix(.75 .42 -.42 .75 337.27 11.7)" font-size="14" font-family="Timmons"><tspan x="405.134" y="276.665">P</tspan></text><text x="232.095" y="409.793" font-weight="bold" transform="matrix(.85 .1 -.1 .85 337.27 11.7)" font-size="14" font-family="Timmons"><tspan x="232.095" y="409.793">I</tspan></text><text x="530.392" y="132.089" font-weight="bold" transform="matrix(.6 .63 -.63 .6 337.27 11.7)" font-size="14" font-family="Timmons"><tspan x="530.392" y="132.089">T</tspan></text><text x="464.158" y="218.519" font-weight="bold" transform="matrix(.7 .52 -.52 .7 337.27 11.7)" font-size="14" font-family="Timmons"><tspan x="464.158" y="218.519">T</tspan></text><text x="313.725" y="361.961" font-weight="bold" transform="matrix(.83 .24 -.24 .83 337.27 11.7)" font-size="14" font-family="Timmons"><tspan x="313.725" y="361.961">M</tspan></text><text x="513.704" y="123.248" font-weight="bold" transform="matrix(.58 .64 -.64 .58 337.27 11.7)" font-size="14" font-family="Timmons"><tspan x="513.704" y="123.248">G</tspan></text><path fill="none" stroke="#fff700" stroke-width=".86pt" d="M557.38 184.5s5.2-4.44 8.9-4.56m-8.15 3.95c.12-.13 31-4.46 32-5.44m-31.88 5.68c.12-.12 34.58-2.97 34.58-2.97m-34.7 3.1s36.68-1.74 38.9.1m-39.03-.23s35.94.25 36.56 1.1m-36.43-1.1l34.58 2.84m-34.94-2.6c.12 0 35.2 3.1 38.66 7.54m1.84 6.3c-.12-.13-11.98-14.2-40.63-13.96m.13.25s19.88 1.37 26.18 8.28m-25.8-8.52s12.83-2.47 26.3 13.7" stroke-linecap="round"/><path fill="url(#e)" fill-rule="evenodd" stroke="#000" stroke-width="1pt" d="M247.4 217.74s20.72.8 20.72 2.84-15.44 5.9-15.64 14.43c-.2 8.54 11.78 9.15 12.6 19.9.8 10.78-9.35 12.4-11.38 15.25-2.03 1.42-6.9 16.65-6.3 25.6.6 8.93 3.25 39.2 7.92 45.3 3.66 2.83 9.14 11.97 15.03 9.13 5.9-2.85 1.83-13.2 1.22-16.05s2.44-7.52 2.44-11.78c0-4.27-2.22-7.72-2.02-8.74.2-1 16.45 3.87 15.44 19.92-1.02 16.05-7.52 11.17-7.52 11.17s2.03 19.7-3.05 22.33c-9.14 4.88-15.84-1-15.84-1l.87 4-6.96-3.6s-8.92-12.8-10.95-18.5-4.47-31.07-3.66-36.55c.8-5.5 1.4-37.58 1-39.2s-2.02-28.44-1-32.5c1-4.06 7.3-21.94 7.1-21.94z" transform="matrix(.86 0 0 .86 337.27 11.7)"/><path fill="#ff7000" fill-rule="evenodd" stroke="#000" stroke-width=".86pt" d="M530.82 194.42s12.4-12.06 19.57-10.66c3.65 0 .16 2.62.16 2.62s6.3.52 7.16 3.32c.18 1.22-2.97 1.57-2.97 1.57s2.62.52 2.8 2.8-26.55.52-26.73.35z"/><path fill="none" stroke="#000" stroke-width=".86pt" d="M531.52 193.9s13.27-1.76 18.86-7.35m-5.4 3.68s9.77-.35 9.77 1.05"/><path fill="#fff" fill-rule="evenodd" stroke="#000" stroke-width="1.075" d="M579.73 333.12s8.38-1.92 10.65-4.9c1.4-1.04 8.74 11-10.65 4.9z" stroke-linejoin="round"/><path fill="none" stroke="#fff" stroke-width="1.075" d="M577.46 263.77s1.05 6.46-1.92 10.83c-1.57 1.74-6.3 4.7-6.3 6.8 0 2.1 1.76 4.9 1.4 7.35s-2.97 4.9-2.8 6.98c0 2.1 2.98 13.28 2.63 13.45m-8.38-66.37s-6.65 2.28-8.04 8.92" stroke-linecap="round"/><path fill="#c75b00" fill-rule="evenodd" stroke="#000" stroke-width=".86pt" d="M559.3 190.23s2.26 6.3 9.6.35c-4.72-6.47-9.6-.18-9.6-.35z"/><path fill-rule="evenodd" d="M564.87 190.1c0 .32-.36.6-.8.6s-.78-.28-.78-.6c0-.35.34-.63.78-.63s.78.28.78.62z"/><path fill="#fff" fill-rule="evenodd" stroke="#000" stroke-width=".86pt" d="M499.3 175.63s13.9 15.06 22.92 14.9c1.63 4.42-4.1 8.53-6.38 10.5-4.58-1.48-8.73.26-19.37-12.83.66-8.35 3-12.24 2.83-12.57zm18.83-35.02c1.8-5.56 5.4-9.98 8.5-10.47-.8-4.25 6.56-23.08 28-30.28 1.3 9.66-9.17 19.15-9.17 19.15s31.6-5.4 37.97-13.42c-.65 3.6-7.03 26.03-40.75 25.86 12.77 12.1-4.1 21.77-11.3 18.82 13.26-10.14-3.76-16.2-13.25-9.65z"/><path fill="#cccccd" fill-rule="evenodd" stroke="#ccc" stroke-width=".86pt" d="M528.93 132.75c6.38-4.1 8.67-4.1 13.9-3.27-3.75.5-3.75.66-3.75.66s-.33.5 1.96 2.62c-2.62-.66-4.9-2.13-12.1 0z"/><path fill="none" stroke="#000" stroke-width=".86pt" d="M526.47 130.13s12.6-6.7 19.64-11.3"/><path fill="#00f" fill-rule="evenodd" stroke="#000" stroke-width=".86pt" d="M515.67 201s17.35 4.75 19.3-20.13c-3.75-10.8-9-34.04-.97-40.75-7.37-5.08-15.4.16-15.4.16-.48 1.15-7.02 10.48 1.8 26.84-20.94-5.56-12.43 14.24-12.43 14.24.82-3.1 11.95-6.05 14.73 9.82 1.15 3.93-7.52 10-7.03 9.82zM535.15 181.03s18.33-9.82 17.84-32.9c-15.56.33-21.13 20.47-21.13 20.47l3.28 12.43z"/><path fill="#fff" fill-rule="evenodd" stroke="#000" stroke-width=".86pt" d="M452.98 179.9s-13.58 11.77-21.27 8c-5.72 3.45-12.43-2.6-12.43-2.6s7.85 28.96 36 8c-.5-6.37-1.96-12.92-2.3-13.4z"/><path fill="#00f" fill-rule="evenodd" stroke="#000" stroke-width=".86pt" d="M431.54 187.4c1.15-6.04 5.9-9 9.66-3.26 5.07.98 10.15-19.8-7.86-16.36 5.08-27.17-10.14-37.32-10.14-37.32s-5.4 30.1-2.95 35.68c2.46 5.56-3.6-10.3-23.08-14.73-.32 22.76 21.77 33.4 21.77 33.4s6.22 5.72 12.6 2.62z"/><path fill="none" stroke="#000" stroke-width=".86pt" d="M433.34 167.6s-8.5 7.2-6.55 17.03m-6.4-18s-1.95 7.04 2.3 17.02m-3.6 2.3s3.93-6.4 12.44 1.8"/><path fill="#fff" fill-rule="evenodd" stroke="#000" stroke-width=".86pt" d="M420.74 141.75c0-.16-12.93 0-5.24 13.1-5.72 1.8-18.5-6.55-9.65-17.68-28.97-.66-40.76-14.57-40.76-27.34 8.5 8.84 28.8 5.24 36 10.64-8.84-8.18-7.04-19.47-7.04-19.47s24.72 7.36 29.14 29.3c-1.48 4.25-2.13 11.78-2.46 11.45z"/><path fill="none" stroke="#000" stroke-width=".86pt" d="M400.86 119.9c4.77 4.86 17.02 6.3 23.24 11.7"/><path fill="#cccccd" fill-rule="evenodd" stroke="#ccc" stroke-width=".815" d="M406.5 134.22s10.15-1.3 13.1 2.3c-3.98 0-5.3-1-11.04 1.14 1.62-.82 1.18-2.3 2.06-2.3s-3.68-1.14-4.12-1.14z"/><path fill="#923f00" fill-rule="evenodd" stroke="#000" stroke-width=".86pt" d="M457.08 54.84s5.56-4.9 11.62-.5c-2.74 8.2-12.6 5.08-12.6 5.08s.32 4.1-.66 6.06c1.98 1.5 3.6 6.4 3.6 6.4s10.15-2.47 12.28 1.95c3.88-.54 6.7 0 6.7 0s7.86-1.96 10.65-1.96c2.78 0 11.62 2.3 12.43 3.93.82 1.63 3.77 12.6 5.73 12.43 1.97-.16-4.74 2.62-6.54-.16-1.8-2.78-1.32 3.6-1.32 3.6s5.56 5.9 6.22 7.2c.65 1.3-3.44 11.95-.33 19.3-2.73.27-2.95 3.12-2.95 3.12-.15 3.24-4.25 4.1-4.25 4.1l-.98-4.43-2.8 1.63 1.15-3.43s3.76-9.17 4.1-12.1c.32-2.96-3.45-8.2-6.4-8.2s-5.07 9.33-5.07 9.33-1.47 7.04-.98 7.7c.5.65-1.96-2.3-1.96-2.3s-1.3 4.26-2.3 5.57c-.98 1.3-3.1 1.8-3.1 1.8s-1.48-4.26-1-5.9c.5-1.63 8.03-8 7.38-12.6-.66-4.58 0-3.43-.17-3.6-.16-.16-3.92-3.44-4.1-5.24-.15-1.8-4.9 2.3-11.12 1-1.9 3.3-2.12 11.6-2.12 11.6s-.65 10 .66 11.14c1.3 1.14-3.27 3.6-3.27 3.6l-3.3 4.42s-1.13-2.8-1.13-2.63c0 .16-2.3 1.63-2.3 1.63l1.32-3.27c-.1-2.48 3.17-9.24 3.17-14.97s.42-11.87.42-11.87-6.07-.34-5.9 5.88c.16 6.22-1.48 6.55-1.15 8.35.33 1.8 1.96 6.87 1.47 8.34-.5 1.48-2.45 1.97-2.45 1.97l-.5.82s-6.05 2.78-5.9 3.92c.18 1.15-.15-3.27-.15-3.27l-.33-4.74s3.6-2.3 3.6-8.02c0-5.73-.84-6.54-.67-7.85.16-1.32 1-6.07.83-6.56-.17-.5-3.44 1.3-4.42 1.3s1.8-3.43 2.13-5.88c.32-2.46-3.28 2.3-6.22-.5 1.37-3 3.43-3.92 3.76-6.2s-2.28 1.95-4.57.32c.2-2.2 2.45-4.1 2.45-4.1s-1.86-.22-2.62 0c-1.47-.5 1.64-2.78 1.8-6.05.17-3.28-1.8-4.58-1.8-4.75 0-.16-3.27-2.94-3.76-4.1-.5-1.13-.5-2.44-.5-2.44s-5.4 3.92-11.77-4.42c5.84-5 12.1-1.3 12.1-1.3s1.64-4.6 9.17-4.27c7.53.33 9 4.58 8.68 4.1z"/><path fill="#00f" fill-rule="evenodd" stroke="#000" stroke-width=".86pt" d="M498.25 139.5c.14 0 13.9.4 14.04 7.77.13 7.36-4.23 5.45-4.37 5.45s-10.1-1.22-10.1-1.22l.42-12z"/><path fill="#fffeff" fill-rule="evenodd" stroke="#000" stroke-width=".86pt" d="M484.9 137.46s17.16-.14 16.2 7.36c-.95 7.5-5.3 6-5.3 6l-8.32-.7-2.6-12.66z"/><path fill="#00f" fill-rule="evenodd" stroke="#000" stroke-width=".86pt" d="M475.2 136.64l9.96.82s6 .82 5.73 6.54c-.28 5.73-6.15 5.86-6.15 5.86l-9.67-.54.13-12.68z"/><path fill="#fff" fill-rule="evenodd" stroke="#000" stroke-width=".86pt" d="M451.9 139.5c-.13 0-13.9.4-14.03 7.77-.14 7.36 4.22 5.45 4.36 5.45s10.1-1.22 10.1-1.22l-.42-12z"/><path fill="#00f" fill-rule="evenodd" stroke="#000" stroke-width=".86pt" d="M465.26 137.46s-17.17-.14-16.22 7.36c.96 7.5 5.32 6 5.32 6l8.3-.7 2.6-12.66z"/><path fill="#fff" fill-rule="evenodd" stroke="#000" stroke-width=".86pt" d="M474.95 136.64l-9.95.82s-6 .82-5.73 6.54c.28 5.73 6.14 5.86 6.14 5.86l9.68-.54-.13-12.68z"/><path fill="#5e0043" fill-rule="evenodd" stroke="#000" stroke-width=".86pt" d="M501.6 219.4s7.14-10.55 10.16-9.42c2.63.88.63 9.04-.63 9.8l-9.54-.38zm-49.06 1.88c-2.26-3.14-5.52-11.8-8.53-9.4-2.63.87-.62 9.03.64 9.78l7.9-.38z"/><path fill="none" stroke="#000" stroke-width=".86pt" d="M457.28 200.43s13.95 8.6 18.52 8.8c4.57.23 19.07-11.15 19.07-11.15"/><path fill="#5e0043" fill-rule="evenodd" stroke="#000" stroke-width=".86pt" d="M458.63 166.75l2.67-3.35 13.4 6.8 13.6-6.02 2.67 2.8-15.17 10.7-17.17-10.93z"/><path fill="#474747" fill-rule="evenodd" stroke="#474747" stroke-width="1.075" d="M448 166.57c1.08 1.37 9.73 11.9 11.3 20.6 1.56 8.7-.9-11.94-.9-11.94s10.7 5.24 11.05 8.58c.33 3.36 5.12-.2 5.34-.78l-31-20.14 4.2 3.7zm52.9-.6s-11.27 14.83-9.93 31c-2.33-7.74-.45-20.52-.45-20.52l-2.45 1.56s-2.57 10.94-5.8 12.62c-.55-1.3-.45-1.8-.45-1.8s-3.46 4.48-4.13 4.92c-.68.45.22 15.06.22 15.06s1.16 10.6 2.5 10.48c-1.53.74-3.4 1.9-3.4 1.9l-1.38-28.28 3.17-3.17s4.25-5.13 4.58-10.15c-1.84 1.56-3.9 2-3.9 2s-.56 7.14-2.23 8.15c-1.68 1-1.72 2.86-1.72 2.86l-.4-9.34 25.76-17.3z" stroke-linejoin="round"/><path fill="none" stroke="#000" stroke-width="1.075" d="M475.13 183.14l2.17 44.6" stroke-linecap="round"/><path fill="none" stroke="#000" stroke-width=".86pt" d="M447.7 204.44s5.12 3.02 7.02 12.16c16.73-1.22 21.97 4.7 21.97 4.7s13.72-6.6 20.07-5.37c2.23-4.68 8.6-10.7 8.6-10.7"/><path fill="#b4b6b9" fill-rule="evenodd" stroke="#000" stroke-width=".86pt" d="M440.7 160.72l34.43 22.53 31-20.86s6.48-3.58 5.92-6.14-2.8-1.56-3.9-1.12c-1.12.45-32.46 22.65-32.46 22.65l-33.36-21.1s-2.45-.77-2.9.8.92 2.44 1.25 3.22z"/><path fill="#474747" fill-rule="evenodd" stroke="#474747" stroke-width="1.075" d="M502.28 154.87s-8.8-3.74-8.8-.5c0 3.25.24 3.58 1.65 5.66 1.4 2.07-1.08 3.4-1.08 3.4s-.33-.9-.83-2.32c-.5-1.4-5.24-2.4-5.65-4.07-.42-1.66 1-4.32-1.83-4.65-2.83-.34-5.57 1.16-6.15 4.4-.6 3.25-4.25 10.8-4.25 10.8l.5-17.2c6.2.45 17.73 1.8 26.6 2.83-2.66-.4 1 .17.9 1.1-.24.74-1.16.82-1.07.57zm-31.18-4.32c-1.58 0-9.47.9-11.47 2.07s3.24 3 2.58 4.58c-.66 1.58-.74 4.74-3.23 4.07-2.5-.66-10.9-4.82-11.14-6.23-.25-1.42-2-1.5-2-1.5s24.1-3.24 25.27-3z" stroke-linejoin="round"/><path fill="none" stroke="#000" stroke-width=".86pt" d="M474.9 148.57l-.06 21.14m-16.2-46.04s-9.67 15.7-9.86 16.16"/><path fill="url(#f)" fill-rule="evenodd" stroke="#000" stroke-width="1pt" d="M161.8 129.74s4.9 6.67 4.34 8.56c2 1.56 4.22 7.8 4.22 7.8" transform="matrix(.86 0 0 .86 337.27 11.7)"/><path fill="none" stroke="#000" stroke-width=".86pt" d="M492.67 122.32s-9.08 12.82-8.8 13.77"/><path fill-rule="evenodd" d="M446.2 61.43c-.2.7-1.35 1-2.57.62s-2.05-1.26-1.85-1.98c.2-.72 1.37-1 2.6-.62s2.04 1.26 1.83 1.98zm3.7-.26c.2.72 1.35 1 2.57.62s2.05-1.27 1.85-1.98c-.2-.72-1.37-1-2.6-.62s-2.04 1.26-1.83 1.97z"/><path fill="#ff7000" fill-rule="evenodd" stroke="#000" stroke-width=".86pt" d="M556.13 326.57s-3.37.63-3.26.95-9.8.63-10 .3c-.2-.3-1.48 1.7-1.48 1.7l1.57-.95s2.42 2.53 3.16 2.32c.74-.22-.3.93-.1 1.14.2.2.94-.42.94-.42l16.36-.27-7.2-4.78z" stroke-linejoin="round"/><path fill="#ff7000" fill-rule="evenodd" stroke="#000" stroke-width="1.075" d="M562.23 331.66l-13.36.4s-3.37 3.04-3.58 3.78 2.2.95 2.2.95l.73 2.5 1.7-.62s11.35 1.7 21.78-.63c5.27-1.84 6.2-4.05 2.5-5.4-3.67-1.34-11.87-.93-11.97-1z" stroke-linejoin="round"/><path fill="url(#g)" fill-rule="evenodd" stroke="#000" stroke-width="1pt" d="M208.37 403.93l27.97-1.25-5.2-4.4 75.64-3.07-2.6-6-84.7 3.4 10.18 4.76-22.88.68.68 2.38-6-.23s6.68 2.6 6.9 3.73z" transform="matrix(.86 0 0 .86 337.27 11.7)"/><path fill="url(#h)" fill-rule="evenodd" stroke="#000" stroke-width="1pt" d="M239.73 249.42c-2.22-1.1-12-2.44-22.88 4.67l.44 25.1s16-8.67 23.76-6.67c-.44-7.78-.44-17.78-1.33-23.1z" transform="matrix(.86 0 0 .86 337.27 11.7)"/><path fill="none" stroke="#000" stroke-width=".86pt" d="M410.43 291.76l-56.72 56.3m82-55.9L389.7 352.8m43.98-76.45l-61.45 74.4m-1.84-1.04l5.96-6.97m69.05-28.98l-23.84 32.9m-1.03 4.3l.62 12.53m35.14-38.22l-25.28 31.65m20.76-2.46l10.28-16.85m-6.37-3.3l-12.33 13.98m8.63-27.13l-8.43 10.28m-2.47-25.28s-25.7 37.6-25.27 40.7m22.6-45.63c-.62.4-22.2 28.98-22.2 28.98m-1.23 9.03l-3.9 4.73m-4.93 7.2l-5.96 7.8"/><path fill="#8a9396" fill-rule="evenodd" stroke="#2b2b2b" stroke-width=".86pt" d="M407.63 205.2s-1.74 5.47 0 8.2 12.68 24.86 12.68 24.86 7.47-9.2 10.2-9.44c2.73-.25 1.5 23.87 1.5 23.87s-4.48 4.2-7.22 3.96c-2.73-.25 6.7 9.45 6.47 17.65s-12.43 49-16.9 49.74c-4.5.74 1.98-7.46 1.73-9.7-.25-2.24-1.5-.74-2.5-3.23-.98-2.48 1.5-6.2 1-8.7s-2.73-1.98-2.97-3.72 1.5-2.24 1.25-4.23c-.25-2-3-1.5-2.74-3.23.26-1.74.5-1 .26-4.23-.25-3.24-.74 2.23-3.48 2.48-2.73.25-4.97 6.46-4.97 6.46s-5.46 7.7-10.93 4.23c3.23 6.96.75 9.95-.5 10.2s1 5.46-2 5.7 2.25 11.7-1.23 12.7c3.73 1.73.75 3.97.75 3.97s-8.63.72-6.72 11.93c-25.36-8.93-37.8-24.34-37.54-40 .24-15.67 5.22-29.84 17.4-35.06 3.48-12.92 9.44-26.84 9.44-26.84s-1-5.72-.24-9.45c.74-3.72 4.22-7.44 4.22-7.44s-.5-8.95-.24-13.43c.24-4.47 2-6.46 2.23-8.95.25-2.48-.74-15.16 1.74-17.4 2.48-2.24 7.2-2 9.7-3.48 2.47-1.5 5.7-4.23 8.94-3.98s5.97 2.5 5.97 2.5 12.2 0 12.93 4.7c.75 4.73-2.48 6.47-2.48 6.47s1.74 6.7-5.72 12.92z"/><path fill="#cecfcf" fill-rule="evenodd" stroke="#2b2b2b" stroke-width="1.147" d="M396.85 188.1c.4.72-.5 1.96-1.98 2.76s-3 .88-3.4.15c-.4-.7.5-1.94 1.98-2.75s3-.87 3.4-.15z"/><path fill-rule="evenodd" d="M394.8 189.35c0 .46-.43.83-.94.83-.5 0-.92-.37-.92-.83 0-.45.4-.82.92-.82s.93.37.93.83z"/><path fill="none" stroke="#2b2b2b" stroke-width=".537" d="M412.93 197.46s3.02 13.48-.6 22.8m1.52-28.7s5.9 7.8 5.13 17.48m-4.56-19.2c.2 0 4.94 4.2 4.75 7.04m-3.6-8.74s3.22 2.28 3.98 4.56"/><path fill="none" stroke="#000" stroke-width=".86pt" d="M414.04 186.8s-11.6 18.82-10.07 30.6"/><path fill="none" stroke="#2b2b2b" stroke-width=".537" d="M414.8 186.24s-15.4 9.12-18.24 38.95"/><path fill="none" stroke="#000" stroke-width=".86pt" d="M413.1 191.75l-6.1 4.56"/><path fill="none" stroke="#2b2b2b" stroke-width=".537" d="M390.86 226.9s8.55-35.53 23.75-40.66"/><path fill="#2b2b2b" fill-rule="evenodd" stroke="#2b2b2b" stroke-width=".86pt" d="M420.5 238.88s8.18-10.26 10.08-9.88c1.9.38 1.33 23.75 1.33 23.75s-6.07 4.56-7.4 4.37c-1.33-.2 6.84 11.02 6.65 15.2-.2 4.18-.38 4.18-.38 4.18s0-2.47-1.9-6.46c-1.9-4-.76-8.55-13.12-18.62-3.04-6.27 6.08 3.8 7.98 2.28 1.9-1.52-3.42-14.63-3.23-14.82z"/><path fill="none" stroke="#2b2b2b" stroke-width=".86pt" d="M405.98 181.1s-3.44.92-3.9 2.33c-.47 1.4-2.5 2.8-3.6 2.34-1.1-.47-3.12-2.2-3.12-2.2"/><path fill="#2b2b2b" fill-rule="evenodd" stroke="#2b2b2b" stroke-width="1.075" d="M386.46 193.1s-5.16 5.16-2.66 5.8c2.5.6 5.16-4.07 5.16-4.07s0 7.96 2.18 6.7 8.6-5.77 8.6-5.77 2.18-.15 2.65 0c.46.16 5.92 4.84 9.5 3.13-2.02 5.3-4.36 5.92-4.36 5.92s-3.75 4.84-8.6 3.75c-4.83-1.1-6.08-3.12-6.08-3.12s-4.06.3-5.3-1.57c-1.26-1.87-1.73-2.96-1.73-2.96s-2.34 2.34-2.96 1.25c-.63-1.1 0-7.5 3.6-9.06z" stroke-linejoin="round"/><path fill="none" stroke="#2b2b2b" stroke-width=".86pt" d="M415.66 185.93s-9.53-2.8-12.8 1.87c-3.28 4.7-2.5 7.34-.78 7.8"/><path fill-rule="evenodd" d="M417.13 185.66c0 1.12-.8 2.03-1.8 2.03s-1.8-.92-1.8-2.04.8-2.03 1.8-2.03 1.8.9 1.8 2.03z"/><path fill="#2b2b2b" fill-rule="evenodd" stroke="#2b2b2b" stroke-width=".86pt" d="M389.4 209.96s3.9 5.98 8.52 7.62-3.2 3.07-7.84-.07c-3.36-4.55-2.47-7.83-2.47-7.83s.9-.9 1.8.3zm33.25 35.26s-10.9-15.16-14.05-15.98c-3.13-.82 2.4-1.5 5.75 1.72 3.37 3.2-.9-5.23-.9-5.23l9.2 19.5z"/><path fill="#2b2b2b" fill-rule="evenodd" stroke="#2b2b2b" stroke-width="1.075" d="M388.36 332.84c4.2-1.12 22.4 10.46 26.52 13.37 4.1 2.93 12.7 1.06 12.7 1.06s-3.96 2.4-6.43 3 7.32.58 7.32.58-23.3 6.43-46.98-6.05c-2.18-9.72 5.07-11.88 6.86-11.96z" stroke-linejoin="round"/><path fill="#2b2b2b" fill-rule="evenodd" stroke="#2b2b2b" stroke-width=".86pt" d="M415.03 248.96s-3.06-.6-4.63-2.4c-1.57-1.8-3.8-6.2-6.13-8.06s-13.9-8.22-18.07-7.77c-4.2.45-5.46-.45-5.98-.97-.52-.52-2.24.22-1.94 2.4.3 2.16-3.2 6.94-1.94 9.18 1.27 2.24 7.24 11.35 8.44 11.65 1.2.3.44 5.3.44 5.3s5.3 5.37 6.65 5.67c1.35.3 2.7 1.27 2.54 2.54-.14 1.28-5.8 8.23-5.8 8.23s-6.14 3.2-6.2 5c-.1 1.8 1.48 5.53 6.34 6.72 4.85 1.2 17.92.23 18.6-.9.67-1.1 1.7-7.84 1.26-8.5-.44-.68-3.66-2.7-5.3-2.4-1.64.3-3.14 1.65-3 1.94.16.3-2.3 1.56-2.3.37s4.85-6.58 5.3-6.13c.45.45 7.32 1.12 8.6 4.56s1.26 5.9 4.85 5.53c3.58-.38 8.6-3.66 9.03-10.54.45-6.88-4.03-11.5-5.15-12.18-1.12-.67-4.86-2.9-5.15-3.96-.3-1.05-1.05-4.48-.45-5.3zM350.42 279.3s11.57-3 14.56-2.92c3 .07 14.27 5.3 17.55 8.5 3.3 3.22 10 10.84 14.42 10.17 4.4-.67 5.68-1.57 5.68-1.57l-1.72 3.3s-3.57.96-5.37.5c-1.8-.44-5.3-1.56-8.8-5-3.52-3.43-14.35-12.7-23.54-12.02-9.2.67-14.5 9.7-14.5 9.7s.07-4.4.45-5.37c.37-.98-1.95 2.08-1.95 2.08l3.22-7.4zM393.07 288.25c.07.07 2.9.82 7.7.82s7.3-2.1 7.3-2.1l-.3-1.86.76-2.6s3.66 3.73 3.58 4.48c-.06.75-1.48 1.05-1.48 1.05l-.52-1.8-1.27 1.57s-6.95 5.53-10.76 4.7c-3.8-.8-7.32-3.28-6.35-3.88s1.5-.37 1.35-.37zm-16.88 9.8s-4.2-.1-6.06.8c-1.87.9-2.54 2.02-3.8 1.87-1.28-.15-2.25-1.8-1.88-2.46.52-1.04 3-2.4 7.7-2.02s4.02 1.8 4.02 1.8zm14.63 11.34c0-.23-.3-6.14-2.62-8.53s-5.14-2.4-6.4-2.1c-1.28.3 4.7 2.93 5.3 4.64.6 1.73 2.53 6.5 2 7.7-.5 1.2-1.5-3.35-5.15-4.62s-8.74-.6-7.7 1.04 5.17.15 7.26 3.66 3.67 7.25 3.67 7.25l.67-2.54 1.87-.53.23-4.86.9-1.1z"/><path fill="#2b2b2b" fill-rule="evenodd" stroke="#2b2b2b" stroke-width="1.075" d="M387.84 328.5l-3.8-7.6s-1.2-4.87-4.42-6.2c-3.2-1.36-7.47-1.13-7.54.5-.08 1.66 6.87 3.75 7.32 4.64.45.9.22 2.4-.38 2.47-.6.08-3.66-1.1-5.23-.74-1.57.37-2.47 2.4-4.8 1.8-2.3-.6-4.24-8-3.35-8.75.9-.73-1.7 1.36-2.24-.58-.5-1.94.76-8-.14-8.74-.9-.75-5.23-3.36-5.3-3.9-.07-.5.23-29.72 24.65-5.5-10.45-12.4-14.56-11.07-16.5-11.14-1.42 0-10.9.82-13.3 12.92-2.38 12.1-5.22 4.56-5.22 4.56s-.52 5.22 2.02 6.72-1.2 5.82-1.2 5.82-4.56-11.13-3.88-15.98c-.9 3.88-.83 13.52 4.93 24.05 6.72 7.1 13.07 13.67 29.95 21.07 8.9-13.6 8.44-15.24 8.44-15.4z" stroke-linejoin="round"/><path fill="#8a9396" fill-rule="evenodd" stroke="#2b2b2b" stroke-width="1.075" d="M371.85 328.58s4.93.6 6.28 3.14c1.34 2.54 1.94 6.43 1.94 6.43.82-1.65 1.2-3.07 2.84-4.26s2.85-1.36 2.77-2.25c-.07-.9-5.23-6.35-7.84-6.65-2.62-.3-7.17 2.84-7.17 2.84s-.82 1.2 1.2.75z" stroke-linejoin="round"/><path fill="none" stroke="#8a9396" stroke-width="1.075" d="M383.1 341.43s12.8 5.83 33.83 6.2" stroke-linecap="round"/><path fill="none" stroke="#2b2b2b" stroke-width="1.075" d="M425.76 282.13s-1.1 10.72-9.34 31.88" stroke-linecap="round"/><path fill="none" stroke="#2b2b2b" stroke-width=".86pt" d="M424.12 288.72s-2.47 7.7-9.34 13.47"/></svg>