<svg xmlns="http://www.w3.org/2000/svg" width="640" height="480" xmlns:xlink="http://www.w3.org/1999/xlink"><defs><radialGradient id="a"><stop offset=".216" stop-color="#f9f0aa"/><stop offset="1" stop-color="#b07e09"/></radialGradient><radialGradient id="d" cx="447.418" cy="308.269" r="16.534" gradientUnits="userSpaceOnUse" xlink:href="#a"/><radialGradient id="e" cx="451.558" cy="312.995" r="10.911" gradientUnits="userSpaceOnUse" xlink:href="#a"/><radialGradient id="f" cx="454.11" cy="308.643" r="9.78" gradientUnits="userSpaceOnUse" xlink:href="#a"/><radialGradient id="g" cx="458.39" cy="307.057" r="17.354" gradientUnits="userSpaceOnUse" xlink:href="#a"/><radialGradient id="j" cx="445.976" cy="252.363" r="13.018" gradientUnits="userSpaceOnUse" xlink:href="#a"/><radialGradient id="m" cx="477.858" cy="215.266" r=".345" gradientUnits="userSpaceOnUse"><stop offset=".259" stop-color="#a50a0a"/><stop offset="1" stop-color="#4c0505"/></radialGradient><radialGradient id="n" cx="489.072" cy="210.326" r=".345" gradientTransform="scale(.977 1.023)" fx="489.072" fy="210.326" gradientUnits="userSpaceOnUse"><stop offset="0" stop-color="#fff"/><stop offset="1" stop-opacity="0" stop-color="#fff"/></radialGradient><linearGradient id="h" x1="473.906" x2="472.357" y1="259.171" y2="231.963" gradientUnits="userSpaceOnUse"><stop offset=".216" stop-opacity="0" stop-color="#b07e09"/><stop offset="1" stop-color="#b07e09"/></linearGradient><linearGradient id="i" x1="483.126" x2="485.495" y1="296.656" y2="326.583" gradientUnits="userSpaceOnUse"><stop offset=".216" stop-opacity="0" stop-color="#b07e09"/><stop offset="1" stop-color="#b07e09"/></linearGradient><linearGradient id="k" x1="451.541" x2="455.366" y1="249.523" y2="240.576" gradientUnits="userSpaceOnUse"><stop offset=".216" stop-color="#f9f0aa"/><stop offset="1" stop-color="#b07e09"/></linearGradient><linearGradient id="l" x1="473.314" x2="475.929" y1="237.247" y2="270.446" gradientUnits="userSpaceOnUse"><stop offset=".216" stop-color="#f9f0aa"/><stop offset="1" stop-color="#b07e09"/></linearGradient></defs><path fill="#4997d0" d="M0 0h640v480H0z"/><path fill="#fff" d="M213.33 0h213.34v480H213.33z"/><g transform="translate(0 40) scale(.667)"><g stroke="#24420e"><path fill="none" d="M452.12 377.48c2.67-.4 4.2-1.14 6.04-1.8m2.2-4.04c1.36 1.43 2.43 2.95 3 4.64m-8.1-5.08c1.4 1.3 2.37 2.7 3.13 4.15m-49.6-136.58c-1.03 1.6-3.08 2.73-4.77 3.43m-.34-.2c.03-1.37-.25-3.03.04-4.4m-1.98 5.03c.1.37.44 1.4.68 2.03m2.02.92c-.38.08-1.52.26-2.03.34m-3.95-.88c0 2.52.3 5.55.53 7.82m-1.78-.96c.47.76.95 1.5 1.54 1.88m-4.58 6.47c.5.94.94 2.12 1.3 3.96m3.72-4.62c-.4.2-1.22.93-1.93 1.54m1.6 4.4c-1 .87-2.2 1.5-3.44 2.12m-3.8 40.4c1.14 1.9 2.4 3.57 3.95 4.7m.58 1.68c-1.3-.17-2.16-.55-2.95-.97m4.4 8.4l1.7.98m-.44 3.47c1.25.82 2.5 2.28 3.76 3.86m-1.44 2.85c1.38.3 2.5.65 3.23 1.07m-1.05 2.42l2.12.06m1.2-5.38c-.1 1.53-.24 2.97-.47 4.25m1 1.6l.44-1.65m4.7 6l-.16 3.23m39.2 27.9l-1.15 1.6m-2.4-3.9l-.7-1.84"/><path fill="#406325" d="M486.1 384.93c-.8-1.26-2.1-2.03-3.27-2.66-7.72-4.05-15.4-5.84-24.1-7.24-2.03-.34-4.04-2.22-6.1-3.2-4.96-2.35-10.5-3.27-15.3-5.68-.34-.15-1.56-.87-2.12-1.55-1.9-2.22-5.37-2.9-7.53-4.97-8.33-7.87-17.18-15.12-21.77-25.55-5.57-12.7-12.5-25.8-11.56-40.23.6-9.12-.75-18.35 1.5-27.04 3.32-12.88 7.58-25.63 15.4-36.3l-1.3.82c-7.88 10.67-12.14 23.42-15.46 36.3-2.25 8.7-.9 17.93-1.5 27.05-.94 14.44 6 27.53 11.56 40.28 4.6 10.38 13.5 17.62 21.78 25.54 2.15 2.02 5.62 2.7 7.54 4.97.56.62 1.82 1.4 2.1 1.54 4.83 2.43 10.35 3.34 15.32 5.66 2.06 1.02 4.07 2.85 6.08 3.2 8.7 1.4 16.4 3.22 24.12 7.23 1.22.62 2.48 1.4 3.28 2.65l1.36-.82"/><g fill="#67923d"><path d="M406.34 331.62c-2.8-6.3-1.36-21.6-.2-23.53 6.64 13 4.43 23.73.2 23.52zm45.86 45.4c-7.1.35-20.6 9.3-21.86 11.4 15.08.1 24.02-7.33 21.86-11.4zm7.46-4.3c-6.85-5.45-14.2-23.66-14.03-26.5 15.1 10.83 18.93 24.28 14.03 26.5zM454.6 372.78c-6.94-4.24-15.78-20.1-15.93-22.75 15.2 8.2 20.2 20.13 15.94 22.75zM439.06 366c.98-7.82-5.67-24.24-7.6-25.98-2.93 16.47 3 27.57 7.6 25.98zm-27.3-24.28c-2.3-5.65-.62-19.32.46-21 5.53 11.7 3.27 21.22-.46 21zm-13.72-76.83c3.6-6.66 18.38-15.72 21-15.94-6.78 14.57-18.05 19.83-21 15.93zM398.74 259.33c2.15-7.28 14.87-19.27 17.36-20.03-3.73 15.67-13.68 23.18-17.36 20.03zm27.8 99.15c-4.98-6.18-8-23.86-7.28-26.36 11.27 12.5 12.03 25.23 7.3 26.36zm-28.64-36.46c-6.9 1.1-21.36-4.64-22.92-6.34 14.53-3.15 24.3 2.08 22.92 6.34zm-2.22-9.68c.82-5.58 8.66-15.8 10.36-16.66-1.1 11.96-7.45 18.6-10.36 16.66zM447 370.88c-8.47.44-24.62 11.1-26.12 13.62 18.03.14 28.7-8.74 26.13-13.62z"/></g><g fill="#406325"><path d="M406.4 331.47c4.24.2 6.42-10.4-.26-23.38 1.2 12.3 1.2 22.3.27 23.37zm11.2 20c-4.48-5.48-19.4-11.34-21.72-11.15 8.88 12.08 19.88 15.1 21.7 11.14zm-24.43-53c-1.15-8.03-12.33-22.7-14.74-23.96 1.5 17.2 10.55 26.7 14.74 23.98zm8.4 34.3c-5-3.68-18.98-5.34-20.95-4.72 10.14 8.3 20.2 8.46 20.94 4.72zm-9.37-24.83c-2.88-5.7-14.8-13.48-16.9-13.7 5.52 12.4 14.57 16.94 16.9 13.7zm2.73-47.54c.9-7.57-5.53-23.45-7.34-25.16-2.88 15.93 2.9 26.67 7.33 25.16zm4.47-14.92c2.66-6.5.76-22.43-.52-24.42-6.4 13.5-3.83 24.65.52 24.42zM404.42 237.83c3.14-4.77 4.16-17.68 3.48-19.47-7.23 9.71-6.95 18.94-3.48 19.47zm5.95-6.14c4.4-3.5 9.22-15.5 9.08-17.44-9.74 6.95-12.22 15.84-9.08 17.43zm-16.05 43.2c.1.86-.98-8.2-10.05-18.32.4 14.8 6.25 20.42 10.05 18.3zm32.56 85.77c-6.18-4.56-23.4-6.73-25.77-5.93 12.57 10.36 24.9 10.55 25.78 5.93zm12.07 5.24c-4.54 1.6-10.44-9.4-7.54-25.87 2.82 13.95 6.2 25.06 7.55 25.88zm13.3 11.16c2.12 4.08-6.7 11.44-21.8 11.32 11.97-4.9 21.25-9.86 21.8-11.32zm7.4-4.47c4.86-2.26 1.1-15.55-14.02-26.38 8.6 13.21 14.46 24.6 14 26.37zM454.57 372.67c4.28-2.67-.7-14.44-15.9-22.64 9.4 11.18 16.1 20.97 15.9 22.64zm-42.8-31c3.74.23 5.97-9.25.5-20.9.7 10.96.4 19.96-.5 20.9zm-13.75-76.73c2.95 3.9 14.05-1.3 20.84-15.92-10.17 9.33-19.23 16.06-20.84 15.92zM398.86 259.33c3.68 3.15 13.54-4.3 17.27-19.98-8.1 11.25-15.64 19.74-17.27 19.98zm27.72 99.1c4.74-1.14 3.95-13.8-7.25-26.28 5 13.4 8 24.75 7.25 26.27zm-28.87-36.47c1.42-4.24-8.3-9.37-22.8-6.26 12.27 2.2 22.05 5.04 22.8 6.26zm-1.93-9.6c2.9 1.88 9.18-4.67 10.3-16.63-4.7 9.18-9.18 16.27-10.3 16.62zm51.2 58.67c2.58 4.88-7.96 13.67-26.04 13.52 14.3-5.84 25.38-11.78 26.04-13.52zM399.36 326.3c-2.66-6.26-14.8-15.46-16.98-15.84 4.94 13.64 14.25 19.15 16.98 15.84z"/></g><g fill="#67923d"><path d="M392.42 273.92c4.07-4.67 17.47-9.13 19.6-8.87-8.04 10.4-17.94 12.52-19.6 8.87zm25.07 77.6c-1.82 3.9-12.7.9-21.66-11.16 10.9 6.83 20.25 11.5 21.65 11.15zm-24.4-53.06c-4.2 2.73-13.13-6.74-14.7-23.88 6.64 13.2 13.05 23.38 14.7 23.88zm8.42 34.34c-.77 3.73-10.7 3.6-20.86-4.72 10.73 3.4 19.74 5.33 20.86 4.72zm-9.45-24.95c-2.33 3.24-11.3-1.27-16.8-13.66 8.2 7.96 15.5 13.74 16.8 13.65zm2.76-47.55c-4.43 1.56-10.16-9.08-7.3-25 2.67 13.48 5.94 24.17 7.3 25zm4.47-14.86c-4.3.23-6.87-10.82-.47-24.32-.82 12.8-.5 23.23.47 24.32zm5.04-7.67c-3.47-.53-3.72-9.66 3.52-19.37-2.74 9.98-4.15 18.37-3.52 19.37zm5.98-6.08c-3.14-1.65-.7-10.44 9.04-17.35-5.53 8.65-9.32 16.18-9.04 17.34zM394.25 274.9c-3.8 2.1-9.58-3.5-10-18.32 5.1 11.68 8.62 17.8 10 18.32zm32.57 85.8c-.9 4.63-13.14 4.4-25.68-5.9 13.17 4.28 24.25 6.7 25.68 5.9zm-8.17-9.48c-4.02-4.34-7.16-17.35-6.75-19.24 9 8.74 10.22 18.16 6.75 19.24zm-16.88-25c-3.57-5.78-3.88-20.9-2.92-22.95 8.26 11.8 7.25 22.6 2.92 22.96zm-2.63.1c-2.74 3.3-11.93-2.16-16.87-15.83 8.13 9.1 15.47 15.8 16.87 15.82z"/></g><g fill="#406325"><path d="M392.37 274c1.62 3.62 11.45 1.53 19.5-8.88-11.98 6.8-16.72 9.74-19.5 8.88zm9.34 52.07c4.34-.37 5.34-11.04-2.92-22.85 2.66 11.86 3.8 21.68 2.93 22.85zm16.97 25.1c3.47-1.06 2.25-10.44-6.7-19.17 4.4 9.73 7.2 18 6.7 19.18zM394.23 291.77c2.06-8.4-1.7-22.6-4.3-25.56-4.72 15.44-.24 26.6 4.3 25.57z"/></g><path fill="#67923d" d="M393.93 293.77c-5.9 1.34-8.64-12.03-4.08-27.08 1.07 13.54 2.83 26.14 4.08 27.07zM392.73 293.72c-.56-7.53 6.93-23.1 8.9-24.7 2.03 15.8-4.45 26.3-8.9 24.7z"/><path fill="#406325" d="M392.84 293.6c4.4 1.65 10.85-8.75 8.84-24.55-3.52 13.26-7.45 23.76-8.84 24.56z"/><path fill="#67923d" d="M394.13 303.26c0-7.6 8.47-22.23 10.56-23.62.83 16.16-6.34 25.83-10.57 23.62z"/><path fill="#406325" d="M394.2 303.4c4.24 2.22 11.32-7.35 10.48-23.5-4.4 12.84-9.05 22.9-10.47 23.5z"/><g fill="#ba1f3e" stroke="#511124" stroke-width=".218"><circle cx="396.835" cy="251.27" r="1.085"/><circle cx="405.205" cy="245.07" r="1.085"/><circle cx="401.564" cy="241.71" r="1.086"/><circle cx="392.503" cy="313.12" r="1.277"/><circle cx="395.033" cy="297.13" r="1.277"/><circle cx="408.213" cy="334.46" r="1.277"/><circle cx="402.393" cy="336.43" r="1.277"/><circle cx="446.703" cy="367.63" r="1.277"/><circle cx="449.613" cy="374.71" r="1.277"/></g></g><g stroke="#24420e"><path fill="none" d="M561.15 258.97c.62.62 1.17.8 2.3 1.9m-6.63-18.95c-.04-1.37-.63-3.6-.92-4.97m3.45 2.98c.05 1.95-.22 3.8-1.06 5.5m-4.17-.53c1.75 1.58 3.5 3.08 5.26 3.9m3.8 1.22c.1 1.98-.13 3.96-.67 5.94m.32 1.5l1.3-2.25m-1.85 12.23c1.4.3 2.8 1.95 3.5 3.48m.48-1.28l1.64-2.18m1.7 30.72a23.9 23.9 0 0 1-2.45 3.48m-3.96-.07c.8 1.46 1.57 2.95 2.6 4.03m2.46 5.87c-1.3 1.77-2.77 3.17-4.44 4.03m.14 4.5c-1.1.75-2.43 2.95-3.7 4.7m8.45-20.17l-2.1.87m-1.4-7.5l1.25 1.12m-9.3 37.4c-.84-.12-1.46 0-2.12.06m-2-1.93l.62 1.64m-7.72 5.1c-.26 1.88-.07 3.74.2 5.6m4.3-9l1.03 2.24m3.83-.2l-2.54.4m-30.85 25.28l-.9 1.74m11.9-3.93c-1.5.2-2.8-.04-4.1-.2m-5.47 5.94a27.28 27.28 0 0 0-2.94-.96m-14.75 2.67c-.9.77-2 2.44-3.07 4.1m-.55-4.57c-2.43 1.25-3.18 3.7-4.44 5.8m2.8 2.87c-1.56-.46-3.42-1.23-5.34-2.05m16.77-.68c-2.32-1.2-4.75-1.1-7.13-1.47m10.75-.34c-3.63-.7-7-.6-10.28-.14m7.78-2.6l-1.4-.6m-5.53 5.5l-2.32-1.3m57.94-49.18c-1.26.82-2.5 2.28-3.77 3.86m1.83-79.62l-2.15-.72"/><path fill="#406325" d="M474.4 384.85c.8-1.26 2.1-2.03 3.27-2.66 7.72-4.06 15.4-5.85 24.1-7.25 2.03-.34 4.04-2.22 6.1-3.2 4.96-2.35 10.5-3.27 15.3-5.68.34-.15 1.56-.87 2.12-1.55 1.9-2.22 5.38-2.9 7.53-4.97 8.33-7.87 17.18-15.12 21.77-25.55 5.57-12.7 12.5-25.8 11.57-40.22-.6-9.13.75-18.35-1.5-27.05-3.33-12.9-7.6-25.64-15.4-36.3l1.3.8c7.87 10.68 12.13 23.43 15.46 36.32 2.24 8.7.9 17.92 1.5 27.05.93 14.44-6 27.52-11.57 40.27-4.6 10.4-13.5 17.63-21.78 25.55-2.15 2.03-5.62 2.7-7.54 4.97-.56.62-1.82 1.4-2.1 1.54-4.82 2.4-10.35 3.33-15.3 5.65-2.07 1-4.1 2.84-6.1 3.17-8.7 1.4-16.4 3.24-24.1 7.25-1.23.63-2.5 1.4-3.3 2.65l-1.35-.82"/><g fill="#406325"><path d="M553.65 334.6c2.74-7.42 0-24.84-1.5-26.95-6.64 15.37-3.33 27.5 1.5 26.95zM546.54 341.64c2.3-5.65.6-19.32-.47-21-5.52 11.7-3.27 21.22.47 21zm16.8-74.15c-3.28-6.1-16.86-14.43-19.25-14.63 6.2 13.37 16.54 18.2 19.25 14.62zM561.76 259.47c-1.8-6.07-12.4-16.05-14.47-16.7 3.1 13.07 11.4 19.32 14.46 16.7zm4.74 14.96c-3.54-4.05-15.16-7.93-17-7.7 6.97 9.04 15.56 10.87 17 7.7zm-2.8 46.33c6.13.97 18.96-4.12 20.34-5.63-12.9-2.8-21.55 1.84-20.34 5.63zm-.15-5.64c-.04-5.64-6.4-16.86-7.96-17.93-.56 11.98 4.8 19.44 7.95 17.92zM563.96 301.44c0-7.6-8.47-22.23-10.56-23.62-.84 16.16 6.33 25.83 10.56 23.62zm-52.9 75.27c4.5 5.5 19.66 11.14 22.1 10.9-8.8-12.22-20.07-15.04-22.1-10.9z"/></g><g fill="#67923d"><path d="M553.56 334.43c-4.82.55-8.1-11.44-1.4-26.79-.5 14.2.24 25.63 1.4 26.8zM500.2 378.1c7.08.35 20.6 9.3 21.85 11.4-15.08.1-24.02-7.33-21.86-11.4zm0-7.95c2.1-7.97 15-21.2 17.5-22.15-3.6 17.13-13.74 25.53-17.5 22.15zm21.26-4.23c-1-7.82 5.66-24.24 7.58-25.98 2.95 16.47-3 27.57-7.58 25.98zm21.46-14.54c4.47-5.47 19.38-11.33 21.7-11.14-8.87 12.08-19.87 15.1-21.7 11.14zm25.8-53.26c.9-6.33 9.7-17.88 11.6-18.87-1.2 13.52-8.3 21.02-11.6 18.87zM557.02 336.18c5.82-4.3 22.1-6.23 24.4-5.5-11.8 9.67-23.55 9.85-24.4 5.5zm10.27-24.52c3.02-5.98 15.56-14.17 17.74-14.4-5.8 13.02-15.3 17.8-17.75 14.4zm-1.5-45.56c-.1-7.63 8-22.73 9.98-24.24 1.16 16.14-5.73 26.2-9.97 24.24zm-6.92-25.92c-2.32-5.28-1.1-18.4-.1-20.07 5.56 10.97 3.68 20.18.1 20.08zm-4.23-2.18c-5.27-4.68-10.64-19.76-10.4-22.1 11.74 9.26 14.38 20.36 10.4 22.1zM566.28 272.54c-.32.8 2.94-7.7 14.22-15.3-4 14.26-11.04 18.27-14.22 15.3zm-34.1 89.9c7-5.17 26.53-7.63 29.23-6.72-14.24 11.74-28.2 11.97-29.22 6.72zm14.33-20.84c-3.73.22-5.95-9.26-.47-20.92-.72 10.97-.4 19.97.48 20.92zm16.86-74.07c-2.7 3.58-12.9-1.2-19.12-14.6 9.33 8.56 17.64 14.73 19.12 14.6zm-1.7-8.06c-3.07 2.62-11.29-3.58-14.4-16.65 6.75 9.37 13.04 16.45 14.4 16.65zm4.9 15.03c-1.4 3.15-9.95 1.33-16.93-7.7 10.4 5.9 14.5 8.45 16.92 7.7zm-2.7 46.2c-1.25-3.75 7.36-8.3 20.24-5.55-10.88 1.95-19.57 4.48-20.24 5.56zm-.4-5.6c-3.14 1.48-8.45-5.88-7.9-17.87 3.37 9.74 6.84 17.38 7.9 17.88zM563.88 301.6c-4.23 2.2-11.3-7.37-10.47-23.54 4.42 12.86 9.06 22.9 10.48 23.53zm-52.7 75.06c2.03-4.15 13.16-1.38 22 10.9-11-6.76-20.5-11.32-22-10.9z"/></g><g fill="#406325"><path d="M521.55 365.83c4.54 1.6 10.44-9.42 7.54-25.88-2.82 13.95-6.2 25.06-7.55 25.88zM531.83 360.6c4.34-6.66 5.55-24.56 4.58-26.98-9.93 13.6-9.4 26.33-4.57 26.97zm-31.7 17.53c-2.1 4.08 6.7 11.44 21.8 11.3-11.95-4.88-21.24-9.85-21.8-11.3zm.17-8.05c3.8 3.34 13.8-4.95 17.4-22.08-8.12 12.42-15.7 21.8-17.4 22.08zm42.7-18.65c1.82 3.92 12.7.92 21.66-11.15-10.9 6.83-20.25 11.5-21.65 11.15zm25.76-53.33c3.3 2.15 10.34-5.3 11.56-18.8-5.2 10.4-10.26 18.4-11.56 18.8zm-11.7 38.1c.9 4.36 12.46 4.2 24.32-5.5-12.5 3.98-23 6.23-24.3 5.5zm10.37-24.63c2.45 3.4 11.87-1.33 17.66-14.35-8.62 8.37-16.3 14.44-17.67 14.35zm-1.5-45.56c4.23 2.03 11.05-7.94 9.9-24.08-4.1 13.13-8.47 23.4-9.9 24.1zm-6.97-25.86c3.54.1 5.4-9.03-.13-20 .95 10.5.9 19.1.13 20zm-4.23-2.24c3.97-1.74 1.33-12.7-10.42-21.97 6.48 11.02 10.86 20.57 10.43 21.97zm11.6 34.67c3.18 2.97 10.15-1.06 14.16-15.33-7.8 10.08-12.7 15.17-14.16 15.33zm-34.08 89.9c1 5.26 14.9 5 29.13-6.68-14.94 4.84-27.5 7.6-29.13 6.68zM539.14 354.75c3.27-4.93 4.27-18.27 3.56-20.08-7.48 10.08-7.16 19.57-3.56 20.08zm19.6-28.6c3.57-5.8 3.88-20.92 2.92-22.97-8.26 11.8-7.25 22.6-2.92 22.96z"/></g><path fill="#67923d" d="M531.8 360.54c-4.84-.64-5.34-13.3 4.54-26.87-3.62 13.85-5.46 25.44-4.55 26.87zm35.15-68.33c-.94-7.75 3.98-20.13 6.63-22.5 2.57 14.37-2.66 23.94-6.63 22.5zm-27.84 62.5c-3.6-.5-3.9-9.95 3.55-20-2.78 10.3-4.2 18.93-3.54 20zm23.37-104.24c-2.17-5.88.03-20.04 1.24-21.77 5.3 12.24 2.64 22.1-1.23 21.76zM504.4 370.6c2.46-8.08 16.18-21.07 18.8-21.9-4.34 17.42-15.07 25.53-18.8 21.9zm54.52-41.58c2.66-6.26 14.8-15.46 16.98-15.84-4.94 13.64-14.25 19.14-16.98 15.84zm-.12-3.03c-4.33-.38-5.33-11.05 2.93-22.86-2.66 11.86-3.8 21.68-2.93 22.85z"/><path fill="#406325" d="M567 294.04c5.16 1.84 9.08-9.9 6.6-23.9-2.43 12.05-5.38 23.2-6.6 23.9zM567.77 293.64c.56-7.53-6.93-23.1-8.9-24.7-2.03 15.8 4.45 26.3 8.9 24.7zm-5.22-43.22c3.83.34 6.47-9.44 1.2-21.7.32 11.46-.3 20.76-1.2 21.7zm-58.05 120.1c3.8 3.63 14.37-4.4 18.7-21.83-8.84 12.34-16.96 21.6-18.7 21.83zm54.64-41.48c2.73 3.3 11.93-2.16 16.87-15.83-8.12 9.12-15.46 15.82-16.86 15.84z"/><path fill="#67923d" d="M567.66 293.53c-4.4 1.64-10.85-8.76-8.84-24.56 3.5 13.26 7.45 23.76 8.84 24.56z"/><g fill="#ba1f3e" stroke="#511124" stroke-width=".218"><circle cx="564.625" cy="254.9" r="1.085"/><circle cx="568.415" cy="266.82" r="1.085"/><circle cx="569.757" cy="304.3" r="1.277"/><circle cx="564.647" cy="297.29" r="1.277"/><circle cx="549.907" cy="337.17" r="1.277"/><circle cx="556.197" cy="339.9" r="1.277"/><circle cx="513.797" cy="372.26" r="1.277"/><circle cx="506.797" cy="377.29" r="1.277"/><circle cx="557.054" cy="249.25" r="1.084"/></g></g><g id="b" fill="#8c959d" stroke="#485654" stroke-width=".109"><path d="M434.25 336.27c-.13 1.07.84 2.34 2.13 2.07.38-.08.62-.58.13-.5-.42.12-.87-.06-1.2-.36a1.68 1.68 0 0 1-.4-1.92c-.22.25-.44.48-.65.7z"/><path stroke="none" d="M437.24 338.34c-1.02 1.17-2.57 1.68-3.43.83-.56-.56-.76-1.2-.46-1.9-.44.47-.82.9-1.12 1.22.05.08.72 1.3 1.7 1.75 1.23.55 2.98-.28 4.03-1.56.74-.92 1.56-2.44.97-3.62-.37-.73-1.24-1.43-1.97-1.7-.35.37-.7.75-1.03 1.1.5-.24 1.15-.14 1.7.3 1.27 1.05.53 2.5-.38 3.56z"/><path fill="#485654" stroke="none" d="M437.24 338.34a4 4 0 0 1-1.16.96c-.45.23-.96.4-1.47.3a1.48 1.48 0 0 1-.7-.28 2.36 2.36 0 0 1-.5-.58 1.6 1.6 0 0 1-.26-.74c-.02-.26.04-.53.14-.77l.12.08-1.1 1.25v-.1c.28.48.63.94 1.04 1.3.2.18.45.34.7.44a2 2 0 0 0 .8.12c.55 0 1.08-.2 1.57-.47a5.1 5.1 0 0 0 1.3-1.05c.37-.4.7-.88.94-1.38.24-.5.4-1.05.37-1.6a1.83 1.83 0 0 0-.2-.77 3.06 3.06 0 0 0-.5-.66 4.18 4.18 0 0 0-1.38-.94l.1-.02-1.04 1.1-.1-.13c.25-.1.5-.13.77-.1.25.03.5.1.7.24.44.26.8.65.93 1.15.14.48 0 1-.2 1.43a5.13 5.13 0 0 1-.84 1.2zm0 0c.3-.38.6-.78.8-1.23.2-.43.3-.93.16-1.4-.13-.45-.5-.82-.9-1.06-.4-.23-.92-.3-1.34-.1l-.1-.1 1.03-1.12.03-.04.05.02c.55.2 1.04.55 1.45.96.2.2.4.43.54.7.14.25.23.55.25.85.04.6-.14 1.18-.4 1.7a6.4 6.4 0 0 1-.95 1.45c-.4.43-.85.8-1.36 1.08-.5.28-1.06.48-1.66.5a2.2 2.2 0 0 1-.87-.16 2.73 2.73 0 0 1-.75-.48 5 5 0 0 1-1.07-1.37l-.03-.05.04-.05 1.13-1.22.12.1c-.1.2-.16.45-.15.7.02.23.1.46.22.67.1.2.28.4.46.56.2.15.42.25.66.3.5.08 1-.06 1.43-.28.45-.22.85-.54 1.2-.9z"/><path fill="#6c301e" stroke="#351710" stroke-width=".218" d="M515.24 249.25l-40.14 39.52c-3.05 3.03-37.96 36.38-41.1 39.38-1.1 1.32-4.24 4.86-4.56 5.35-2.13 2.3-4.44 5.33-7.2 8.03-.5.62-1.14.4-1.73.74-1.8 1.05-3.7 2.87-5.05 4.37l-12.2 13.5c-.8.86-1 1.38-.47 1.87l6.63 8.86c1.24 1.22 2.65 1.84 3.2.82 3.15-5.44 10.96-13.76 13.9-20.33 1.78-3.93 4-11.06 5.57-12.78 1.94-2.16 7.17-7.73 11.8-12.7.32-.34.63-.68.94-1l.95-1.03c23.5-23.95 50.72-53.04 70.53-73.55-.78-.8-.28-.32-1.04-1.05z" stroke-linejoin="round"/><path d="M431.9 328.1c-1.23.05-2.03-.7-2.86-1.4 1.17.36 2.35.8 3.45.35l-.6 1.06z"/><path fill="#b2b6ba" d="M557.05 220.1l-31.8 26.22c-.3.37-.63.27-.93 0l-2.9-2.42c0-.04.02-.07.02-.1 0-.17-.04-.33-.1-.47l1.43-1.45c.18-.22.12-.3-.12-.54-.18-.2-.34-.37-.6-.6-.2-.18-.4-.04-.63.17l-1.43 1.5c-.75.02-1.34.62-1.36 1.35-19.24 18.73-35.8 35.44-54.94 53.88l-22.57 21.55c-.8 1.04-4.3 2.9-6.6 4.4-.82.54-1.52 1.02-1.82 1.55l-1.83 5.43c-.58 1.2-2.43 4-2.52 4.2 2.37 2.38 2.25 2.2 3.87 3.73 1.82-2.04 6.7-7.13 11.12-11.87.35-.38.38-.42.83-.97-.35-.5-.93-1.2-1.4-1.65a34.1 34.1 0 0 0-1.2-1.08c-.24-.22-.46-.4-.62-.55-.16-.16.24-.44.42-.64 26.47-25.58 54.96-53.7 78.28-76.6a1.4 1.4 0 0 0 1.02-.1l2.8 3.22c.64.65 1.2.64 1.72.4l31.85-28.55z"/><path fill="#485654" stroke="none" d="M430.95 330.4c.2.02.4.04.6.02a1.5 1.5 0 0 0 .58-.16l-.02.02a124.9 124.9 0 0 1 1.5-4.75v.03c-.2-.22-.44-.42-.74-.5.3.06.56.25.77.47v.02c-.22.8-.46 1.6-.7 2.38-.25.8-.5 1.58-.76 2.37v.02a1.4 1.4 0 0 1-.6.14 2.87 2.87 0 0 1-.62-.07z"/><circle cx="438.179" cy="328.135" r=".619" fill="none"/><circle cx="434.436" cy="331.877" r=".619" fill="none"/><path fill="#485654" stroke="none" d="M440.97 322.38c-.32-.24-.61-.5-.9-.78a11.58 11.58 0 0 1-.84-.85c.32.24.62.5.9.78.3.27.58.55.84.85z"/><path d="M502.17 259.06l3.5 3.4.63-.58-3.48-3.4-.65.58z"/></g><use width="100%" height="100%" xlink:href="#b" transform="rotate(-177.16 487.09 -.23)"/><g stroke="#24420e" stroke-width=".164"><path fill="#67923d" d="M433.9 365.36c-7.86-3.32-26.88-.67-29.2.93 16.28 8 29.53 4.57 29.2-.94zm89.03 3.32c7.87-3.32 26.9-.67 29.22.93-16.3 8-29.54 4.6-29.22-.92z"/><path fill="#406325" d="M433.76 365.48c.32 5.5-12.8 8.88-29.07.9 15.28.94 27.78.38 29.06-.9zm89.32 3.3c-.32 5.5 12.8 8.88 29.07.9-15.3.93-27.8.4-29.07-.9z"/></g><g id="c"><path fill="#b2b6ba" stroke="#485654" stroke-width=".218" d="M508.5 360c-20.74-30.13-52-54.62-76.1-68 3.55-.17 11.45 3.88 14.66 5.95 23.94 15.42 44.3 35.8 65.66 59.82-1.26 1.25-2.08 1.98-3.44 3.05l-.8-.83z"/><path fill="#8c959d" d="M510.55 359.75l-1.45 1.4c-23-29.63-55.1-57.95-76.67-69.14 30.08 13.87 55.4 41.78 78.03 67.66l.1.1z"/><path fill="#485654" d="M510.56 359.75l-1.45 1.4c-5.32-6.83-10.97-13.4-16.86-19.73a336.02 336.02 0 0 0-18.36-18.34c-6.36-5.87-12.95-11.5-19.8-16.76a195.86 195.86 0 0 0-10.56-7.57c-3.6-2.4-7.3-4.65-11.13-6.64l.08-.2c7.9 3.66 15.34 8.2 22.38 13.3 7.04 5.1 13.68 10.7 20.03 16.63 6.34 5.92 12.4 12.13 18.32 18.5 5.9 6.36 11.63 12.9 17.34 19.42zm0 0c-5.74-6.5-11.5-13-17.42-19.35-5.92-6.35-12-12.56-18.35-18.47-6.37-5.9-13-11.5-20.05-16.6-7.03-5.06-14.47-9.6-22.36-13.22l.1-.18c3.83 2 7.53 4.27 11.13 6.67 3.6 2.4 7.1 4.94 10.55 7.57 6.86 5.28 13.44 10.92 19.8 16.8a336.06 336.06 0 0 1 18.34 18.37c5.87 6.37 11.5 12.96 16.8 19.8l1.44-1.4z"/><g fill="#fab81c" stroke="#6c301e" stroke-width=".109"><path d="M517.5 355.07c-1.97.5-3.73 1.25-5.26 2.23-.23 1.4-1.95 2.95-3.6 3.3-.28-.37-.35-.48-.58-.76a.13.13 0 0 0-.17-.04c-.15.07-.34.18-.58.34-.6-.1-1.34.2-1.66.97-.38.98.4 2.26 1.23 3.1.9.73 1.37 1.07 2.44.92 1.1-.23 1.68-1.22 1.93-1.53 3.72 4.5 6.52 6.92 11.23 10.63 2.1 0 3.22-1.3 2.52-2.8-.23-.5-.84-.84-1.33-.66.03-.15 0-.3 0-.45 2.45-2.26 3.5-5.1.9-9.87-2.22-4.03-4.7-5.4-7.1-5.38zm6.25 4.53c.43.74.7 1.38 1.02 2.05 1.48 3 .2 6.6-2.33 7.7-.13 0-.1 0-.22.03.42-.7-.82-2.15-1.46-1.64.3-.76-.67-2.02-1.46-1.7.42-.7-.53-1.9-1.42-1.5.46-.77-.32-1.87-1.24-1.67.28-.82-.42-1.76-1.35-1.6.07-.72-.17-1.12-.52-1.45 1.1-.85 2.35-2.15 3.44-2.74 2.72-1.18 4.4 1.07 5.52 2.52zM524.9 362.77c-.52-.25-.77-.76-.6-1.1.17-.35.7-.44 1.22-.18.52.24.8.73.63 1.07-.17.35-.74.45-1.26.2zM524.6 361.75c-.52-.25-.77-.76-.6-1.1.17-.35.7-.44 1.22-.18.52.25.8.74.63 1.1-.17.33-.74.44-1.26.18zM523.97 360.62c-.52-.25-.76-.76-.6-1.1.18-.35.7-.44 1.23-.18.52.25.8.74.63 1.1-.17.33-.74.44-1.26.18zM523.2 359.6c-.53-.25-.77-.76-.6-1.1.17-.35.7-.44 1.22-.18.52.25.8.74.63 1.1-.17.33-.74.44-1.26.18zM522.16 358.6c-.52-.24-.76-.75-.6-1.1.04-.04.02-.13.07-.1.2.1.64.18.6-.14-.07-.12-.15-.23-.08-.15.15.02.47.15.64.23.5.26.8.75.62 1.1-.17.34-.74.44-1.26.2v-.02z"/></g><path fill="#fab81c" d="M511.27 363.6c.68-1.77 2.05-3.4 3.5-3.8m-3.27 4.05c1.26.26 3.3-1.24 3.8-2.6m-2.6 4.05c1.65.38 3.28-1.22 3.92-2.4m-2.44 3.98c1.96.06 3.16-1.33 3.74-2.4m-2.23 3.93c1.65.02 3.16-1.35 3.64-2.4m-2.2 3.8c1.82-.06 3.1-.88 3.63-2.06m-1.98 3.5c1.65.1 3-.9 3.43-1.87m-1.66 3.3c1.66.1 2.7-.92 3.14-1.9"/><path fill="#6c301e" d="M511.27 363.6a7.1 7.1 0 0 1 1.3-2.33c.3-.34.62-.65 1-.9.36-.27.77-.48 1.2-.57-.42.14-.8.36-1.16.63-.34.26-.66.57-.94.9-.58.7-1.03 1.46-1.4 2.27zm.23.25c.4.06.8-.04 1.18-.2a4.88 4.88 0 0 0 1.05-.58c.33-.24.63-.5.9-.8.27-.3.5-.63.68-1-.12.38-.34.73-.6 1.05-.27.3-.58.6-.9.83a4.57 4.57 0 0 1-1.1.6c-.38.12-.8.2-1.2.1zm1.2 1.45c.4.07.8.04 1.2-.1.38-.1.74-.3 1.07-.53.33-.23.63-.5.9-.8.3-.3.54-.63.75-.98a4.68 4.68 0 0 1-.68 1.02 5.24 5.24 0 0 1-.9.83 3.7 3.7 0 0 1-1.12.54c-.4.1-.83.12-1.23 0zm1.48 1.58a4.2 4.2 0 0 0 1.15-.18 3.83 3.83 0 0 0 1.03-.5 4.72 4.72 0 0 0 .86-.77c.26-.3.5-.6.7-.94a4.55 4.55 0 0 1-1.5 1.78c-.33.22-.7.4-1.07.5-.38.1-.78.13-1.17.1zm1.5 1.53c.78-.03 1.5-.32 2.12-.76.32-.2.6-.46.86-.74.26-.27.5-.58.68-.92-.14.36-.36.7-.6.98-.26.3-.56.55-.87.77a4.24 4.24 0 0 1-1.04.52c-.37.12-.76.18-1.14.16zm1.47 1.4a7.1 7.1 0 0 0 1.08-.18 4.63 4.63 0 0 0 1-.4c.33-.15.63-.36.9-.62.25-.25.47-.54.64-.87-.13.35-.34.66-.6.93-.24.27-.55.5-.88.67a4.5 4.5 0 0 1-2.15.48zm1.64 1.43c.34 0 .68-.04 1-.12a4 4 0 0 0 .96-.35c.3-.16.6-.35.84-.58.25-.23.47-.5.63-.8a2.52 2.52 0 0 1-.58.86 3.58 3.58 0 0 1-.84.62c-.3.15-.63.28-.97.34-.35.06-.7.07-1.04.03zm1.77 1.45a3.94 3.94 0 0 0 .96-.12 3.3 3.3 0 0 0 1.62-1 4.03 4.03 0 0 0 .56-.78 3.06 3.06 0 0 1-1.23 1.5 2.98 2.98 0 0 1-.92.36 3.02 3.02 0 0 1-.98.04z"/></g><use width="100%" height="100%" xlink:href="#c" transform="rotate(-176.592 489.967 -.41)"/><g stroke="#24420e" stroke-width=".164"><path fill="#406325" d="M409.24 240.02c7.2-2.37 18.73-15.45 19.48-17.92-15.6 4.16-22.76 14.35-19.48 17.92zm145.74 4.7c-1.7-7.04-13.28-19-15.57-19.9 2.78 15.15 11.93 22.75 15.58 19.9z"/><path fill="#67923d" d="M409.24 240.02c-3.33-3.57 3.8-13.67 19.34-17.82-10.96 8.4-19.2 16.18-19.34 17.82zm145.74 4.7c-3.66 2.9-12.72-4.65-15.5-19.77 7.18 11.07 13.95 19.5 15.5 19.77z"/></g><g stroke="#999270" stroke-width=".164"><path fill="url(#d)" d="M452.2 318.1s-6.15.66-7.87-7.83c-1.85-9.1 5.3-10.05 5.3-10.05s8.1-.8 13.15-.92l2.24 17.96-12.8.84z"/><path fill="url(#e)" d="M453.02 315.36s-3.98.76-4.8-5.55c-.6-4.47 2.18-5.1 2.18-5.1l9.23 1.56.05 8.24-6.66.86z"/><path fill="url(#f)" d="M450.4 304.7s5.9-.43 9-.83l1.27 5.7-7.1.46s-.5-5.16-3.17-5.33z"/><path fill="url(#g)" d="M449.16 300.36s7.58-1.86 8.52 6.5c.24 2.17-.94 7.16-4.66 8.5l13.88-1.45-1.26-15-4.67.4s-9.93.33-11.8 1.06z"/><path fill="#f9f0aa" d="M452.2 318.1c.05 0 51.9-3.5 57.22-3.27 15.74-8.64-.08-42.56-13.35-61.54 1.52-4.28-29.85-13.9-44.04-13.03-1.78.1-3.5.23-5.16.35-7.7.82-7.77 10.7-4.63 16.93 3.04 6.04 30.3 55.12 11.14 60.3l-1.18.25z"/><path fill="url(#h)" d="M507.8 273.34c-3.53-7.3-7.74-14.35-11.73-20.05 1.52-4.28-29.86-13.9-44.04-13.03-1.8.1-3.5.23-5.16.35-7.7.82-7.77 10.7-4.64 16.93.96 1.9 4.3 8.04 7.85 15.73"/><path fill="url(#i)" d="M455.04 284.95c5.55 14.65 8.66 30.12-1.64 32.9l-1.18.24c.05 0 51.9-3.5 57.22-3.28 8.54-4.7 7.8-16.8 3.2-29.95"/><path fill="url(#j)" d="M447.4 243.5c-3.7 0-4.66 3.55-4.6 5.8.13 5.92 4.6 6.2 4.6 6.2l5.96-.33 2.86-12.17-8.82.5z"/><path fill="url(#k)" d="M447.4 243.53l8.82-.5.9 9.1-7.7.34s2.5-7.28-2.02-8.94z"/><path fill="url(#l)" d="M496.12 253.3c6.7-1.08 6.6-10.08 2.03-13.68-15.5-.57-35.9-.15-50.63.96 1.67-.05 6.33.37 6.85 6.5.24 2.87-1.16 5.5-3.06 7-1.84 1.45-3.9 1.45-3.9 1.45.25.1 2.17 0 3.6-.08.74-.05 2.56-.27 3.06-.33 21-2.76 42-1.83 42-1.83h.07z"/><path fill="#b07e09" stroke="none" d="M458.47 267.42c-.14-.33-.32-.75-.73-.8-.25 0-.65-.06-.57-.4.24-.1.54-.04.8-.06.56 0 1.1-.12 1.67-.15.34.1.26.55-.1.47-.42.1-.18.57-.08.8.44 1.05.87 2.1 1.33 3.12.1.3.37.56.7.6.37.03.76.04 1.1-.12.3-.2.24-.63.2-.94-.13-.36.54-.28.5.04.12.43.27.86.44 1.27-.02.2-.28.15-.42.17-1 .08-2 .13-2.98.22-.32 0-.8.28-1-.1-.1-.38.52-.16.6-.46 0-.32-.2-.6-.3-.9-.4-.93-.78-1.85-1.17-2.76zm4.83-.34c-.14-.32-.3-.72-.7-.8-.23-.02-.64 0-.6-.37.15-.15.45-.05.67-.08.6.02 1.17-.1 1.76-.15.3-.02.4.52.02.45-.35 0-.38.4-.23.65.47 1.14.96 2.28 1.44 3.4.1.26.24.56.54.6.25.05.65-.03.7.32-.04.25-.43.1-.63.15-.52-.04-1.04.03-1.55.12-.23.06-.55.02-.56-.27.05-.28.58-.07.6-.4-.03-.33-.2-.62-.32-.93l-1.14-2.7zm4.46.7c.1.24.4.07.6.1.25-.04.53-.23.5-.52-.04-.45-.26-.9-.63-1.2-.34-.23-.78-.2-1.17-.15-.02.17.1.32.15.47l.56 1.32zm.67 1.6c.16.36.28.75.56 1.02.24.18.56.1.84.07.3-.02.48-.33.38-.6-.14-.65-.55-1.3-1.24-1.45a2.43 2.43 0 0 0-.9 0c-.04.14.08.3.12.43l.23.53zm-2.04-2.36c-.16-.35-.32-.77-.7-.93-.24-.1-.64.02-.7-.34.07-.3.57-.1.8-.16.87-.02 1.75-.26 2.6 0 .74.18 1.4.8 1.46 1.6.02.37-.27.67-.6.83-.03-.14.38.06.52.08.58.2 1.12.58 1.38 1.15.2.4.35.93.04 1.3-.37.4-.94.43-1.44.45-.75.02-1.5.03-2.25.17-.25.05-.44-.48-.08-.45.37 0 .4-.4.25-.66L466.4 267zm7.4-1.9c.34-.06.37.3.47.52.1.3.27.54.35.83-.28.28-.5-.14-.63-.36-.15-.23-.4-.46-.7-.44a8.3 8.3 0 0 0-1.22.07c-.14.16.07.4.12.58.2.46.36.9.56 1.35.27-.02.62.02.8-.2.1-.24-.26-.75.22-.65.3.17.26.6.42.9.12.37.38.7.5 1.1-.27.3-.54-.13-.63-.36-.2-.35-.63-.3-.96-.3-.23-.05-.07.17-.03.3.2.48.38 1 .66 1.46.2.34.65.3 1 .28.32-.02.73-.03.92-.34.22-.25-.27-.75.13-.83.35-.02.34.4.43.62.08.28.2.55.3.82-.03.2-.28.14-.43.16-1.02.07-2.04.1-3.06.2-.3 0-.8.23-.9-.2.03-.3.65-.14.56-.55-.07-.34-.25-.66-.37-1-.4-.9-.74-1.8-1.13-2.68-.14-.3-.37-.62-.73-.63-.24.05-.6-.13-.47-.4.35-.07.7-.03 1.07-.06l2.77-.17zm2.32 1.3c-.15-.34-.3-.76-.68-.92-.26-.08-.72 0-.7-.4.25-.18.66-.02.97-.08.8 0 1.63-.24 2.42 0 .82.23 1.5.97 1.57 1.84.02.4-.3.75-.7.86-.3.02.24.1.32.2.63.3 1.07.87 1.4 1.47.08.22.52.7.6.24-.04-.5.63-.08.48.26 0 .36-.35.6-.68.6-.47.02-.9-.25-1.14-.64-.42-.55-.7-1.22-1.27-1.66-.22-.17-.55-.27-.82-.15-.05.14.07.28.1.4.2.42.3.86.56 1.24.2.3.6.34.93.34.36.1.26.58-.13.44-.58 0-1.17-.05-1.75.07-.28.13-.88 0-.66-.37.28 0 .67-.17.48-.52-.33-.87-.7-1.73-1.05-2.6l-.25-.63zm1.4.9c.14.33.6.15.86.12.36-.08.35-.5.24-.78-.16-.47-.37-1.03-.9-1.2-.25-.03-.84-.2-.88.16.2.53.43 1.05.63 1.58l.05.12zm7.22 1.72c.1.26.2.6.54.66.25.06.66-.03.72.33-.05.26-.44.1-.64.14-.54-.05-1.08 0-1.6.08-.24.07-.56-.03-.53-.32.13-.2.65-.04.62-.4-.1-.4-.28-.77-.42-1.15-.38-.96-.76-1.93-1.14-2.88-.1-.3-.46-.3-.72-.28-.27 0-.68.06-.68.4-.1.24.22.63-.04.75-.3.06-.37-.28-.43-.5-.1-.3-.26-.6-.38-.92.03-.2.32-.17.5-.2 1.37-.05 2.74-.1 4.12-.17.3-.04.5.2.52.48.1.34.26.65.4.98-.1.33-.5.04-.55-.2-.2-.35-.5-.7-.94-.7-.25 0-.63-.1-.8.14 0 .24.14.45.2.67l1.24 3.1zm3.73-.9c-.2 0-.1.23-.12.36 0 .28 0 .57.03.84.13.3.53.24.8.32.22.13.16.5-.15.4-.42-.03-.85-.08-1.27.02-.25.14-.7-.12-.5-.4.2-.02.46-.1.5-.32.08-.42.04-.84.05-1.26l.03-3.7c.12-.3.52-.06.6.15 1.2 1.52 2.38 3.05 3.6 4.54.2.22.46.4.77.4.26 0 .4.54.02.43-.5-.03-1.02-.06-1.53.03-.24 0-.5.1-.7-.03-.25-.17-.08-.43.2-.4.34-.1-.02-.48-.13-.65-.2-.26-.38-.5-.6-.75-.16-.1-.36-.03-.55-.03-.35 0-.7.02-1.05.03zm1.17-.52c.2 0-.05-.16-.08-.24-.43-.55-.85-1.1-1.28-1.66.1 0 .02.17.04.25 0 .57 0 1.13 0 1.7.44-.02.88-.04 1.32-.05zm3.06-1.85c-.15-.4-.35-.9-.82-.98-.24.03-.7-.2-.45-.45.55 0 1.1.03 1.65-.02.7-.06 1.42-.04 2.08.2 1.46.5 2.68 1.8 2.92 3.33.1.6-.08 1.3-.63 1.64-.73.47-1.64.38-2.47.33-.47-.02-.94.04-1.4.1-.3-.05-.34-.52.02-.47.37 0 .37-.42.23-.67l-1.13-3.03zm1.97 2.5c.15.33.24.75.56.97.3.14.66.12.98.08.45-.06.73-.5.73-.9.03-.77-.28-1.5-.63-2.14-.37-.7-1.05-1.23-1.84-1.37-.33-.04-.67-.1-1-.04-.06.13.07.27.1.4l1.1 3zm-21.1 12.4c.1.36.43.6.8.64.25.06.7 0 .7.37-.13.23-.52.07-.76.12a8.63 8.63 0 0 0-1.54.08c-.28 0-.57.13-.84.05-.24-.1-.2-.47.1-.42.26-.05.6-.13.63-.44-.02-.3-.18-.54-.28-.8-.38-.92-.76-1.84-1.15-2.75-.08-.32-.44-.33-.7-.28-.26.05-.63.13-.7-.22.04-.3.5-.24.7-.4.32-.1.63-.24.95-.34.22-.05.33.15.38.32.57 1.36 1.14 2.74 1.7 4.1zm.74-4.5c.7-.03 1.38.08 2.06 0 .3-.03.1-.5.38-.47.37.02.3.48.34.74a.52.52 0 0 1-.57.58c-.53.03-1.06-.05-1.6-.02.13.4.3.8.45 1.2.03-.12.46-.14.64-.17 1.06-.05 2.16.56 2.6 1.55.22.47.33 1.1-.02 1.54-.4.45-1.03.55-1.6.55-.5 0-1.06-.1-1.35-.55-.17-.22-.14-.68.22-.64.3 0 .66.26.6.6.17.22.53.14.78.13.3 0 .6-.23.57-.55 0-.48-.18-.96-.45-1.35-.3-.43-.78-.7-1.3-.7-.3-.05-.55.15-.83.15-.3-.04-.34-.37-.44-.58a23.87 23.87 0 0 1-.65-1.82c-.02-.1.08-.2.18-.18zm6.86 1.02c-.16-.4-.37-.9-.84-.98-.24.06-.7-.17-.46-.43.55-.03 1.1 0 1.67-.08.7-.08 1.43-.07 2.1.18 1.5.5 2.72 1.82 2.94 3.4.1.57-.12 1.23-.63 1.55-.72.47-1.6.4-2.43.38-.44 0-.9.07-1.33.13-.3-.04-.36-.5 0-.46.38-.03.35-.44.2-.7-.4-1-.8-2-1.2-3zm2.03 2.45c.15.34.25.75.58.97.3.14.65.1.97.05.44-.07.7-.52.68-.94 0-.76-.32-1.48-.7-2.13-.38-.7-1.07-1.2-1.86-1.33-.32-.04-.66-.08-.98-.02-.08.13.06.27.1.4l1.2 3zm6.43-4.26c.3-.06.35.28.44.5.1.28.24.54.34.83-.18.3-.5-.06-.57-.3-.15-.23-.36-.5-.68-.5a9.65 9.65 0 0 0-1.23.04c-.23.1 0 .4.05.56.18.45.35.92.54 1.36.28-.02.6 0 .8-.16.2-.2-.25-.74.23-.68.32.12.27.57.4.84.13.4.37.74.5 1.14-.17.33-.54-.06-.6-.3-.13-.33-.5-.37-.82-.36-.2-.03-.36 0-.22.22.22.5.38 1.05.66 1.54.2.35.65.3 1 .3.32 0 .73 0 .93-.32.2-.24-.2-.66.1-.8.32-.1.4.27.45.5.08.32.2.62.3.9-.04.2-.3.15-.44.17-1.03.03-2.06.05-3.1.1-.27 0-.68.22-.86-.1-.18-.4.5-.18.54-.52.02-.3-.16-.58-.25-.86-.38-.96-.75-1.94-1.14-2.9-.14-.3-.36-.66-.74-.68-.24.05-.6-.13-.46-.4.36-.07.73 0 1.1-.04l2.77-.1zm-27.28 14.27c.15.5.67.7 1.1.82.78.25 1.6.5 2.16 1.15.3.37.53.85.5 1.34-.04.48-.46.86-.92.98a2.5 2.5 0 0 1-1.73-.1c-.27-.1-.17.47-.5.27-.24-.18-.16-.56-.3-.8a9.04 9.04 0 0 0-.38-.98c0-.32.48-.15.5.1.32.6.92 1.12 1.63 1.13.36 0 .8-.18.84-.6 0-.52-.42-.94-.87-1.17-.64-.33-1.38-.44-2-.8-.55-.35-.94-.97-.94-1.62 0-.43.37-.77.77-.9a2.63 2.63 0 0 1 1.56-.05c.24.13.34-.27.6-.07.1.2.08.46.2.67.07.3.26.54.33.83-.17.24-.48 0-.53-.2-.22-.37-.52-.78-.98-.8-.36-.04-.8-.04-1.02.28-.1.15-.1.35-.03.5zm6.7-1.65c.32-.06.33.3.4.53.1.27.22.52.3.8-.14.28-.5.02-.54-.2-.12-.27-.33-.6-.66-.57-.4 0-.82.03-1.23.08-.2.1 0 .4.04.57.16.45.3.9.47 1.35.27-.02.58 0 .8-.18.2-.2-.2-.6.14-.7.38-.04.35.45.44.7.1.44.33.84.47 1.28-.15.32-.54 0-.55-.25-.12-.33-.5-.4-.8-.37-.17 0-.42 0-.27.2.18.52.32 1.04.55 1.53.12.27.45.33.73.3.4-.02.85.02 1.16-.27.24-.24.04-.6.1-.86.24-.2.52.07.5.35.06.34.15.68.26 1.02-.04.2-.3.14-.44.17-1.02.08-2.04.14-3.06.23-.28 0-.68.24-.85-.08-.16-.4.45-.2.54-.5.1-.3-.1-.58-.17-.86-.33-1-.65-1.98-1-2.95-.12-.3-.33-.66-.7-.66-.24.04-.6-.15-.43-.42.35-.07.7-.02 1.07-.07l2.77-.18zm4.17 4.14c.1.3.27.64.6.7.26.1.68-.07.74.3 0 .3-.5.14-.7.2a6.28 6.28 0 0 0-1.53.1c-.22.03-.55.1-.6-.2-.06-.33.45-.14.56-.4.07-.25-.07-.5-.14-.76-.34-1-.67-2-1-3-.13-.3-.28-.7-.64-.72-.23 0-.63-.03-.56-.37.18-.15.5-.04.7-.07.74 0 1.46-.2 2.2-.15.74.03 1.48.5 1.73 1.23.16.42.2.93-.1 1.3-.38.44-1 .54-1.57.6-.2-.02-.04.2-.03.3.1.33.22.64.32.96zm-.57-1.72c.2.03.46-.03.68-.08.3-.07.47-.4.4-.7-.1-.42-.24-.86-.55-1.17-.3-.27-.75-.27-1.1-.18-.15.13 0 .32.02.47.18.54.37 1.1.55 1.64zm6.15 1.43c.1.25.17.6.5.65.24.06.65-.03.68.32-.06.27-.44.12-.64.16-.54-.04-1.08.03-1.6.1-.23.1-.56 0-.5-.3.14-.22.65-.05.64-.42-.05-.4-.2-.76-.33-1.13-.3-.97-.63-1.94-.95-2.9-.07-.3-.43-.3-.68-.27-.25.02-.62.04-.7.35-.07.25.05.53 0 .78-.24.17-.47-.08-.46-.32a6.6 6.6 0 0 0-.34-1c0-.25.3-.23.48-.24 1.38-.08 2.76-.17 4.14-.25.3-.07.5.18.48.46.08.34.22.65.34.97-.06.3-.48.13-.5-.12-.17-.34-.44-.72-.87-.75-.3 0-.64-.05-.87.13-.06.2.08.4.12.6.35 1.06.7 2.12 1.05 3.2zm2.1-3.3c-.1-.3-.22-.68-.57-.78-.24-.07-.65 0-.63-.37.1-.2.42-.08.6-.12.6.04 1.2-.05 1.8-.1.27-.12.48.42.15.42-.25 0-.54.2-.44.47.14.52.33 1.04.5 1.56.24.73.46 1.47.7 2.2.08.23.26.43.5.44.25 0 .68.03.6.38-.18.16-.48.06-.7.08-.55-.04-1.08.05-1.6.1-.24.1-.55-.13-.4-.36.2-.1.64-.05.6-.4-.07-.4-.22-.8-.34-1.2l-.76-2.32zm5.76-1.6c.32-.05.33.3.4.53.08.27.2.54.28.8-.14.3-.5.03-.53-.2-.12-.27-.32-.58-.66-.57a9.66 9.66 0 0 0-1.23.05c-.22.1 0 .4.03.57.14.45.27.9.44 1.36.27 0 .58 0 .8-.15.2-.2-.18-.6.16-.7.37-.03.33.45.42.7.1.45.32.85.44 1.3-.12.27-.53.03-.53-.23-.1-.32-.43-.45-.74-.42-.15.02-.5-.08-.36.17.17.52.3 1.05.53 1.55.12.28.45.35.73.33.4-.02.85.03 1.16-.26.24-.23.04-.6.1-.85.26-.2.53.07.5.35a9.3 9.3 0 0 0 .25 1.02c-.04.2-.28.14-.43.16-1.03.06-2.07.1-3.1.17-.27-.02-.64.2-.83-.07-.23-.4.37-.25.5-.48.13-.27-.05-.55-.1-.8-.33-1-.64-2-.97-3-.1-.32-.32-.7-.7-.7-.25.04-.6-.15-.43-.42.34-.07.7-.02 1.05-.05.94-.05 1.88-.1 2.8-.15zm2 .97c-.07-.36-.34-.68-.73-.62-.38.1-.5-.57-.04-.43.5 0 1.02-.1 1.52.02.24.27.44.58.66.86l2.17 2.9c-.16.04-.03-.18-.05-.3l.36-3.54c.27-.22.73-.13 1.07-.2.3-.04.93-.13.75.35-.34.05-.77.2-.54.64.36 1.2.74 2.38 1.12 3.58.07.4.5.54.85.52.33.02.35.57-.03.43-.6 0-1.2-.05-1.78.07-.28.1-.83.06-.65-.36.3-.05.8-.14.58-.57-.3-1.05-.65-2.1-.98-3.16.07.1 0 .25 0 .38-.1 1-.23 1.97-.3 2.96-.04.26.05.58-.07.8-.24.12-.4-.1-.5-.27l-2.86-3.7c.1-.03.1.22.14.3.3.96.6 1.93.9 2.88.1.4.5.5.86.5.38.2.1.55-.23.4-.5-.06-1 .04-1.5.1-.32-.02-.33-.52.03-.45.46 0 .32-.53.2-.8-.33-1.1-.67-2.2-1-3.28a3.35 3.35 0 0 1 .03 0zm8.74.85c.06.2.36.06.53.1.28-.03.62-.2.63-.5 0-.45-.15-.92-.5-1.2-.33-.25-.77-.23-1.16-.2-.04.15.06.3.1.46l.4 1.33zm.5 1.6c.1.34.18.73.44 1 .24.2.57.12.84.1.26-.02.5-.23.46-.5-.03-.6-.3-1.26-.9-1.5-.35-.12-.72-.12-1.08-.08-.1.1.04.28.06.42.05.18.1.37.17.55zm-1.8-2.4c-.1-.36-.2-.78-.57-.95-.23-.1-.64.02-.66-.34.08-.28.54-.07.77-.12.9 0 1.8-.23 2.66.06.7.18 1.28.82 1.28 1.56 0 .4-.33.7-.7.86 0-.13.37.07.5.1.54.2 1.03.55 1.24 1.1.17.4.28.94-.04 1.32-.36.4-.95.43-1.45.44-.8 0-1.6-.02-2.37.12-.3.03-.4-.5-.04-.45.36 0 .46-.4.32-.67l-.93-3.04zm5.02-.2c-.1-.34-.22-.76-.58-.93-.24-.1-.68 0-.66-.37.2-.25.65-.04.95-.1.68 0 1.36-.13 2.04-.05.8.1 1.55.65 1.74 1.44.15.4.06.95-.35 1.18-.1.1-.52.2-.45.2.6.23 1.12.68 1.42 1.27.16.26.24.58.46.8.27.2.3-.17.35-.33.35-.18.52.3.38.58-.14.42-.67.5-1.05.4-.34-.08-.6-.34-.76-.64-.35-.54-.56-1.17-1.04-1.62-.22-.2-.56-.3-.85-.2-.06.14.05.3.08.44.12.4.2.8.38 1.17.16.33.54.4.87.4.33 0 .35.57-.03.44-.6 0-1.22-.1-1.83.02-.22 0-.53.14-.67-.1-.2-.42.42-.23.56-.47.1-.28-.07-.56-.13-.83-.27-.9-.54-1.8-.8-2.7zm1.3.93c.1.32.57.15.82.14.3-.03.46-.32.4-.6-.08-.45-.2-.94-.55-1.25-.32-.23-.73-.23-1.1-.16-.14.12 0 .34.03.5l.4 1.37zm6.9-2.54c.3-.06.33.3.38.5.07.28.2.55.26.83-.13.26-.5.03-.5-.2-.14-.26-.3-.6-.64-.6a9.5 9.5 0 0 0-1.28 0c-.24.08-.03.38 0 .56.12.44.24.9.4 1.35.25 0 .53 0 .77-.1.3-.16-.1-.6.2-.7.37-.1.36.4.42.63.07.47.3.9.4 1.34-.12.3-.52.03-.52-.22-.08-.3-.37-.46-.66-.44-.14.02-.56-.12-.44.13.16.52.28 1.06.5 1.56.1.3.43.36.7.36.4 0 .86.06 1.2-.22.25-.22.06-.58.13-.84.26-.18.53.1.5.37.04.34.12.68.2 1.02-.05.2-.3.12-.45.14-1.03 0-2.07.02-3.1.06-.28-.03-.62.16-.83-.06-.26-.38.3-.3.48-.47.2-.22.03-.5-.03-.75-.3-1.03-.58-2.05-.88-3.08-.1-.3-.28-.68-.64-.72-.24 0-.6-.1-.5-.4.3-.1.67 0 1-.04.97-.02 1.96-.04 2.94-.05zM476.5 299.3c-.1-.37-.22-.85-.64-.95-.24 0-.65-.06-.5-.4.3-.12.67-.02 1-.07.82-.04 1.65-.24 2.46-.03 1.2.28 2.23 1.2 2.58 2.37.23.73.26 1.6-.23 2.24-.52.67-1.4.85-2.2.86-.63 0-1.25 0-1.85.12-.24.14-.63-.1-.43-.36.25-.07.66-.15.58-.52-.1-.5-.24-1-.36-1.52-.14-.58-.28-1.16-.42-1.74zm1.64 2.44c.1.32.14.7.4.94.28.16.62.1.92.07.47-.06.82-.47.9-.93.13-.75-.1-1.53-.4-2.23-.25-.6-.8-1.07-1.43-1.2-.38-.08-.78-.1-1.16-.04-.1.12.02.28.04.4l.74 3zm7.06-4.43c.32-.06.3.3.36.5.06.3.16.55.22.83-.13.26-.5.06-.5-.2-.12-.24-.27-.57-.6-.57a9.25 9.25 0 0 0-1.27.05c-.23.08-.04.38-.03.56.12.47.2.92.34 1.37.28 0 .6 0 .83-.17.2-.2-.13-.62.2-.7.38-.04.3.46.37.7.05.44.25.85.34 1.3-.12.27-.53.04-.5-.22-.08-.33-.4-.46-.7-.42-.16.02-.5-.08-.38.17.13.52.22 1.05.4 1.55.1.3.44.35.7.33.42 0 .9.03 1.22-.3.25-.23.02-.6.17-.83.3-.17.5.14.45.4.03.33.1.66.16.98-.06.2-.3.15-.47.17-1.03.07-2.06.1-3.1.2-.24-.02-.54.15-.77 0-.25-.26.1-.4.33-.43.3-.1.26-.46.2-.7-.28-1.07-.52-2.15-.8-3.23-.08-.3-.24-.68-.6-.7-.23.03-.6-.08-.46-.4.3-.1.65-.02.97-.07.98-.06 1.96-.1 2.93-.17zm6.5 4.1c.04.3.28.57.6.62.22.1.6-.04.72.24.1.34-.4.23-.6.24-.56 0-1.14-.02-1.7.07-.3.03-.58.1-.87.08-.27-.12-.15-.5.15-.45.27-.06.63-.13.7-.44.04-.28-.07-.54-.12-.8-.2-.92-.42-1.84-.64-2.76-.03-.33-.4-.34-.64-.3-.23 0-.58.17-.66-.16-.03-.34.47-.27.67-.4.38-.13.74-.28 1.12-.4.2-.03.3.16.32.33l.95 4.13zm3.68-3.32c-.07-.35-.28-.78-.7-.83-.28-.06-.66.03-.77.34a.92.92 0 0 0 .38 1.04c.27.2.6.3.9.45.06-.13.24-.36.23-.57a1.45 1.45 0 0 0-.02-.42zm.84 2.9c-.1-.48-.57-.77-1-.95-.18-.03-.45-.27-.56-.17-.3.27-.45.7-.32 1.1.12.5.48.96 1 1 .36.05.77-.1.87-.47a.96.96 0 0 0 .02-.5zm.9-.2c.12.47-.07 1-.48 1.3-.6.4-1.36.42-2.02.22-.6-.17-1.08-.66-1.2-1.27-.1-.5.1-1.05.53-1.3.1-.1.48-.15.17-.23-.5-.24-1-.64-1.1-1.22-.1-.5.12-1.03.56-1.27.86-.47 2.1-.2 2.58.67.22.37.26.86 0 1.22-.14.2-.32.4-.56.45.5.1.93.4 1.22.8.14.18.24.4.3.62zm3.25.55c.24 0 .5-.14.54-.4.1-.2-.07-.6.27-.58.3 0 .27.37.3.6.03.4 0 .87-.34 1.13-.25.16-.56.1-.83.1-.57-.02-1.13-.14-1.7-.07-.23.02-.48.3-.7.1-.2-.23-.08-.52 0-.77.18-.6.6-1.1 1.1-1.54.32-.3.7-.65.75-1.13a1.95 1.95 0 0 0-.3-1.2c-.28-.45-.94-.6-1.4-.32-.22.15-.4.5-.22.75.2.16.6 0 .7.35.13.23 0 .6-.3.6-.44.06-.84-.28-.95-.7-.18-.5.02-1.12.5-1.4.5-.3 1.13-.3 1.68-.17.57.15 1.04.6 1.22 1.15.15.43.16.93-.08 1.34-.38.7-1.15 1.06-1.66 1.66-.14.16-.25.37-.2.6.1-.2.4-.14.6-.18.34 0 .68.08 1.03.07zm3.94-.42c.05.3.28.58.6.63.22.1.56 0 .7.23.15.33-.33.27-.53.26-.6-.02-1.18-.05-1.77.02-.3.02-.58.1-.86.05-.28-.13-.13-.5.15-.44.26-.06.63-.12.7-.43.05-.27-.05-.53-.1-.8-.2-.9-.37-1.84-.57-2.76-.02-.27-.32-.33-.55-.3-.24-.03-.56.17-.7-.1-.2-.35.33-.34.54-.43.4-.13.8-.28 1.22-.4.2-.03.3.17.3.34.3 1.38.58 2.76.87 4.13z"/></g><g fill="#448127" stroke="#34541f" stroke-width=".218"><path fill="url(#m)" stroke="#4c0505" d="M475.8 219.4l-3.77 4.5c-1.2 5.23 1.78 9.18 7.65 12.6 4.75 2.96 13.55 3.7 16.33 1.32l-13.7-13.07-6.5-5.34z"/><path d="M503.58 354.27c-.67-.8-1.35-1.62-2.04-2.42-8.55 11.3-19.24 21.43-32.6 28.57 15.06-4.27 24.93-15.26 34.64-26.15zm-15.44 35.7c5.32-10.76 11.73-21.53 18.2-32.3a274.3 274.3 0 0 0-2.14-2.64c-7.35 12.18-15.98 26.68-16.06 34.95zm41.73-114.5c-.98-4.24-2.27-8.83-4.3-13.05-2.67-5.43-6.63-10.83-11.84-16.8-9.38-10.17-18.77-20-31.93-27.25l.07-.14.08.05h.16l-.15-.2h.47l-.25-.26h.43l-.35-.4h.46l-.32-.32h.5l-.28-.37.4.03-.37-.38.55-.1-.45-.3.48-.08-.4-.28.6-.2-.52-.3.65-.28-.63-.46.67-.22-.72-.3.6-.32-.7-.13.48-.56-.7.04.3-.6-.65.06c-.02-.02-.03-.04-.05-.06l.37-.45-.68.12.3-.6-.65.3.2-.7-.64.44.1-.73-.58.5.06-.7-.5.54.04-.7-.5.6-.05-.7-.4.55-.22-.68-.33.68-.17-.72-.32.72-.16-.72-.27.72-.2-.68-.22.68-.15-.6-.24.72-.2-.68-.25.76-.3-.7-.12.84-.35-.68-.04.8-.4-.6v.78l-.42-.57.03.7-.43-.37.2.74-.5-.3.18.65-.43-.24.15.64-.4-.13.22.48-.03.07-.3-.06.18.36c-.38 1.04-.4 2.28-.35 3.5 0 .24.6.48.68.62.3.43.24.66.24.66-1.6 2.58-3 4.57-3.17 7.53 1.28-1.62 2.6-3.6 4.46-3.6-.92 1.54-1.36 6.17-.33 6.88l.77-1.35c.03 1.07.18 1.8.4 2.32.32-.65.63-1.27.96-1.74.07 1.5.26 2.7.7 3.3.43-.73 1-1.18 1.62-1.56-.2.86-.52 1.67-.4 2.7.65-1.1 1.3-1.75 1.94-2.5-.38 1.57-.04 2.76.4 4.5.4-2.07.57-2.3 1.52-3.16.1 1.9-.26 3.63.15 4.7.87-1.68 1.46-1.44 1.98-2.53-.1 1.58-.42 3.3 0 4.7.32-1.4 1.23-2.17 1.93-2.67.06 2.2.56 1.84-.8 3.7.58.27 2.54-.37 3.6-.83-.5 1.18-.36 2.1-.88 2.94 1.08-.55 2-1.42 2.9-2.32-.4 1.35-1.52 2.7-.96 4.05.25-1.26 1.27-2.3 2.24-2.5-.15.72-.25 2.18-1.27 2.9 2.45.24 3.4-1.4 4.64-2.7-.16 1.34-.1 2.43 1.56 4.34-.34-2.43.24-1.93 1.34-3.4.53 2.16 1.14 4.44 3.38 6.02-.93-2.26-1.1-3.43-.57-4.86.3 1.48 1.68 3.25 2.02 4.65.2-1.55.44-3.05.96-4.06.65 1.75 1.2 3.56 1.35 5.6.5-1.02.9-2.04 1.16-3.1 19.74 20.63 24.14 46.84 2.52 74.54 7.77-5.24 9.77-13.56 14.1-20.66-4.23 9.3-6.1 19.74-13.53 27.42 7.2-6.2 8.7-11.88 13.04-17.86-4.6 12.5-11 26.2-19.82 38.74 1.57 1.7 3.14 3.44 4.7 5.2 1.4-2.3 2.76-4.57 4.1-6.86 9.38-15.43 24.67-37.5 16.92-71.14z"/></g><path fill="#eac102" stroke="#a08307" stroke-width=".218" d="M473.16 215.3c-1 .22-1.4.63-2.1 1.43.9.2 1.68.25 2.5.27.27-.02.35-.35.3-.6l-.13-.94c-.03-.22-.6-.2-.88-.1l.3-.07z"/><path fill="#a08307" d="M471.04 216.73a9.9 9.9 0 0 1 1.05-.3 9.76 9.76 0 0 1 1.07-.2 9.82 9.82 0 0 1-1.05.3 9.94 9.94 0 0 1-1.08.2z"/><ellipse cx="477.68" cy="215.416" stroke="#000" stroke-width=".098" rx=".775" ry=".811"/><ellipse cx="477.86" cy="215.261" fill="url(#n)" rx=".337" ry=".353"/><g fill="#34541f"><path d="M488.18 389.7a83.38 83.38 0 0 1 1.53-4.45 96.15 96.15 0 0 1 1.8-4.35c1.25-2.87 2.66-5.67 4.13-8.43a199.58 199.58 0 0 1 4.66-8.16 354.4 354.4 0 0 1 2.44-4l2.5-3.96-2.4 4.03a400.05 400.05 0 0 0-2.4 4.03c-1.6 2.7-3.15 5.4-4.62 8.17a133.67 133.67 0 0 0-4.18 8.4 98.1 98.1 0 0 0-1.83 4.32 82.66 82.66 0 0 0-1.62 4.4zm-18.84-9.47a75.8 75.8 0 0 0 4.88-2.38 72.32 72.32 0 0 0 4.7-2.7 72.04 72.04 0 0 0 8.74-6.4c2.75-2.36 5.32-4.9 7.76-7.58a113.56 113.56 0 0 0 3.55-4.1c1.16-1.4 2.3-2.8 3.4-4.24a153.75 153.75 0 0 1-3.3 4.3 111.9 111.9 0 0 1-3.53 4.15 81.9 81.9 0 0 1-7.74 7.62 69.95 69.95 0 0 1-8.8 6.4 71.28 71.28 0 0 1-4.73 2.65 76.9 76.9 0 0 1-4.93 2.28zm37.28-29.34c.77-1.08 1.5-2.2 2.2-3.3.72-1.12 1.42-2.24 2.1-3.37 1.37-2.26 2.7-4.55 3.96-6.86a341.82 341.82 0 0 0 3.75-7l3.68-7-1.74 3.55-1.78 3.54a255.98 255.98 0 0 1-3.7 7 160.46 160.46 0 0 1-4.02 6.86c-1.4 2.24-2.85 4.46-4.44 6.57zm5.9-25.12a58.37 58.37 0 0 0 4.68-6.42 60.2 60.2 0 0 0 3.8-6.97c2.25-4.82 3.85-9.9 5-15.08.13-.65.27-1.3.4-1.95a61 61 0 0 0 .7-5.9c.17-2.66.17-5.3-.04-7.96a50.63 50.63 0 0 0-1.24-7.83 53.36 53.36 0 0 0-2.4-7.58 53.48 53.48 0 0 1 2.5 7.54 50.47 50.47 0 0 1 1.3 7.86c.2 2.65.22 5.3.06 7.97a61.25 61.25 0 0 1-.67 5.94 90.3 90.3 0 0 1-.4 1.96c-1.16 5.18-2.8 10.27-5.06 15.08a59.88 59.88 0 0 1-3.85 6.97 58.22 58.22 0 0 1-4.8 6.38zM510.87 320.07c1.84-1.76 3.47-3.74 4.9-5.85 1.43-2.1 2.68-4.33 3.8-6.62 1.1-2.3 2.1-4.65 3.02-7.02.45-1.18.9-2.38 1.35-3.57l.33-.9c.1-.28.2-.6.3-.9.18-.6.35-1.2.58-1.82v.02c.5-2.53.77-5.1.8-7.67a45.83 45.83 0 0 0-.57-7.7c-.4-2.55-1-5.06-1.74-7.53a80.22 80.22 0 0 0-2.55-7.3 80.35 80.35 0 0 1 2.66 7.27 57.4 57.4 0 0 1 1.77 7.54c.42 2.56.63 5.14.6 7.73a41.44 41.44 0 0 1-.77 7.7v.02c-.22.6-.4 1.2-.58 1.82-.1.3-.2.6-.3.9l-.34.9c-.45 1.2-.9 2.4-1.38 3.58-.94 2.37-1.94 4.72-3.07 7-1.13 2.3-2.4 4.53-3.84 6.63-1.46 2.1-3.12 4.05-5 5.8zM505.05 349.23c1.2-1.66 2.4-3.33 3.57-5l1.78-2.5c.6-.84 1.2-1.66 1.74-2.53 1.06-1.75 2-3.58 2.9-5.4.9-1.85 1.8-3.68 2.7-5.53 1.78-3.7 3.5-7.4 4.97-11.23a75.28 75.28 0 0 0 3.46-11.76c.85-4 1.42-8.06 1.9-12.13.4-4.07.46-8.18.02-12.25a52.36 52.36 0 0 0-2.72-11.94c-1.35-3.86-3.12-7.57-5.1-11.16 2 3.57 3.8 7.27 5.2 11.13a52.4 52.4 0 0 1 2.77 11.96c.44 4.06.4 8.2 0 12.27-.46 4.07-1.02 8.14-1.86 12.15a75.52 75.52 0 0 1-3.5 11.8c-1.47 3.8-3.2 7.53-5 11.2-.9 1.86-1.82 3.68-2.72 5.52-.92 1.83-1.84 3.66-2.92 5.4-.54.9-1.17 1.7-1.76 2.53l-1.8 2.5c-1.2 1.65-2.4 3.3-3.62 4.96zM507.8 352.25c2.37-3.83 4.72-7.68 6.96-11.58 2.25-3.9 4.5-7.82 6.47-11.86 1.98-4.03 3.7-8.2 5-12.5.65-2.16 1.2-4.35 1.65-6.55a59.28 59.28 0 0 0 .6-3.32c.16-1.1.32-2.23.46-3.34.58-4.47.93-8.97.92-13.47 0-4.5-.36-9-1.2-13.42-.82-4.4-2.13-8.75-3.97-12.86a54 54 0 0 0-6.97-11.53 54.08 54.08 0 0 1 7.06 11.5c1.84 4.1 3.17 8.45 4 12.88.86 4.43 1.23 8.94 1.25 13.45.02 4.5-.32 9.02-.9 13.5a133.98 133.98 0 0 1-.47 3.33 58.8 58.8 0 0 1-.6 3.33 74.25 74.25 0 0 1-1.68 6.54c-1.3 4.32-3.04 8.5-5.04 12.54-2 4.04-4.24 7.95-6.5 11.84-2.28 3.9-4.66 7.72-7.05 11.53zM480 220.77c.47 0 .95.04 1.42.1.47.1.93.2 1.4.3.9.25 1.8.58 2.68.96 1.74.77 3.37 1.78 4.9 2.9a35.8 35.8 0 0 1 4.25 3.8 45.25 45.25 0 0 1 1.9 2.1c.6.74 1.2 1.48 1.76 2.24a60.86 60.86 0 0 0-1.83-2.16c-.62-.7-1.27-1.4-1.94-2.06-1.33-1.34-2.74-2.6-4.26-3.73a26.78 26.78 0 0 0-4.84-2.92c-.86-.4-1.74-.74-2.65-1-.9-.27-1.83-.47-2.78-.5z"/></g><g fill="#448127"><path d="M496.38 231.57s3.06 1.8 4.72 4.44c0 0-4.7-.88-8.07-4.64"/><path fill="#34541f" d="M496.38 231.57c.48.26.93.57 1.38.88.44.32.87.66 1.28 1.02.4.36.8.76 1.16 1.17.36.4.7.84 1 1.3l.13.23-.24-.05a14.54 14.54 0 0 1-2.3-.72 15.7 15.7 0 0 1-2.12-1.03c-1.37-.8-2.63-1.8-3.64-3a15.17 15.17 0 0 0 3.72 2.85 18.27 18.27 0 0 0 2.13 1 14.4 14.4 0 0 0 2.23.68l-.1.17a11.15 11.15 0 0 0-.98-1.3c-.35-.4-.74-.8-1.13-1.17a17.7 17.7 0 0 0-1.23-1.06 18.56 18.56 0 0 0-1.32-.97z"/><path d="M489.58 230.7s7.23 4.6 8.27 4.97c0 0-1.6-3.48-5.05-4.97"/><path fill="#34541f" d="M489.58 230.7l4.14 2.48c.7.42 1.38.83 2.07 1.24.34.2.68.4 1.03.6.35.2.7.4 1.06.55l-.14.14a10.67 10.67 0 0 0-.93-1.5c-.35-.5-.72-.96-1.14-1.4a10.73 10.73 0 0 0-1.36-1.18c-.48-.36-1-.66-1.54-.92a8.43 8.43 0 0 1 1.6.85c.5.33.97.73 1.4 1.15.43.43.83.88 1.2 1.38.34.48.67 1 .95 1.54l.12.25-.25-.1c-.77-.33-1.44-.76-2.14-1.17-.7-.42-1.37-.84-2.06-1.26a151.55 151.55 0 0 1-4.04-2.65z"/><path d="M492.46 228.36s3.76 1.6 4.6 4.38c0 0-6.74-2.84-7.95-4.35"/><path fill="#34541f" d="M492.46 228.36a10.67 10.67 0 0 1 2.8 1.68 7.17 7.17 0 0 1 1.14 1.2c.33.44.6.93.77 1.47l.07.23-.2-.1a79.6 79.6 0 0 1-2.1-.93 49.78 49.78 0 0 1-2.04-1 33.95 33.95 0 0 1-2-1.1c-.32-.2-.64-.42-.95-.64-.3-.23-.6-.47-.84-.77.26.28.57.5.88.7.32.22.64.42.97.6.66.38 1.34.72 2.02 1.06a84.15 84.15 0 0 0 4.14 1.88l-.13.13a4.83 4.83 0 0 0-.73-1.4 7.8 7.8 0 0 0-1.1-1.2c-.4-.36-.82-.7-1.27-.98-.45-.32-.92-.6-1.4-.84z"/><path d="M486.76 231.25s6.65 4.76 8.6 4.76c0 0-1.94-3.25-5.38-4.74"/><path fill="#34541f" d="M486.76 231.25c.7.46 1.38.9 2.08 1.35.7.45 1.4.88 2.1 1.3.7.42 1.43.83 2.16 1.2.36.18.74.36 1.12.5.37.15.77.3 1.15.3l-.1.16c-.3-.5-.67-1-1.06-1.45-.38-.44-.8-.9-1.24-1.3-.44-.4-.9-.78-1.4-1.13a10.97 10.97 0 0 0-1.58-.9c1.13.44 2.17 1.12 3.08 1.92.46.4.9.83 1.3 1.3.4.45.77.93 1.1 1.46l.1.16h-.2c-.43-.02-.83-.16-1.22-.3a13.66 13.66 0 0 1-1.14-.53 33.27 33.27 0 0 1-2.15-1.24 63.9 63.9 0 0 1-2.08-1.36 56.27 56.27 0 0 1-2-1.45z"/><path d="M486.76 232.74s3.46 2.92 5.43 2.92c0 0-1.96-3.26-5.4-4.75"/><path fill="#34541f" d="M486.76 232.74c.42.3.84.61 1.27.9.43.3.87.58 1.32.84.44.26.9.5 1.37.7.24.1.48.2.73.26.24.07.5.12.74.12l-.1.15a12.4 12.4 0 0 0-1.07-1.44c-.4-.45-.8-.9-1.25-1.3-.44-.42-.92-.8-1.4-1.14a11 11 0 0 0-1.58-.9c1.13.44 2.16 1.12 3.08 1.92.46.4.9.84 1.3 1.3.4.46.76.94 1.1 1.46l.1.16h-.2c-.54 0-1.06-.18-1.54-.4a11.45 11.45 0 0 1-1.4-.73c-.43-.28-.86-.58-1.28-.9a17.6 17.6 0 0 1-1.2-1z"/><path d="M485.03 226.18s7.2 5.12 8.06 7.9c0 0-6.53-3-7.74-4.5"/><path fill="#34541f" d="M485.03 226.18a51.63 51.63 0 0 1 2.3 1.68 51.03 51.03 0 0 1 2.2 1.8 25.73 25.73 0 0 1 2.06 2c.3.35.62.7.9 1.1.28.4.54.8.7 1.3l.06.22-.22-.1a77 77 0 0 1-2.02-1 50.3 50.3 0 0 1-2-1.04 34.83 34.83 0 0 1-1.92-1.15 15.42 15.42 0 0 1-.92-.66c-.3-.23-.6-.47-.82-.77.24.28.55.5.85.72.32.2.63.4.95.6.64.4 1.3.75 1.96 1.1a87.25 87.25 0 0 0 4.03 1.98l-.15.13c-.14-.43-.38-.83-.65-1.2a12.2 12.2 0 0 0-.9-1.1c-.62-.7-1.3-1.36-2-2a51.15 51.15 0 0 0-2.17-1.86 71.2 71.2 0 0 0-2.23-1.76z"/></g><g stroke="#24420e" stroke-width=".164"><path fill="#406325" d="M445.02 370.33c-4.9 3.64-18.55 5.43-20.45 4.8 9.95-8.27 19.73-8.47 20.45-4.8zm69.76 4.44c5.25 4.77 21.1 8.05 23.48 7.46-10.55-10.77-22.1-11.86-23.48-7.46z"/><path fill="#67923d" d="M444.98 370.3c-.72-3.67-10.46-3.45-20.38 4.78 10.45-3.45 19.24-5.4 20.38-4.78zm69.9 4.4c1.38-4.4 12.8-3.33 23.37 7.47-11.88-5.02-21.94-8.1-23.36-7.46z"/></g></g></svg>