<svg xmlns="http://www.w3.org/2000/svg" width="640" height="480"><path fill="#be0027" fill-rule="evenodd" d="M0 0h640v480H0z"/><path fill="#3b5aa3" fill-rule="evenodd" d="M25.6 27.34h589.54V455.7H25.6z"/><path fill="#cbe0e5" fill-rule="evenodd" d="M314.35 413.24c2.42 1.33 6.25 1.26 8.4.1 137.8-73.3 137.88-274.32.2-346.6-2.55-1.34-6.27-1.27-8.8.1-134.28 73.47-134.64 272.22.2 346.4z"/><path fill="#add2d9" fill-rule="evenodd" d="M314.35 416.86c2.14 1.75 6.46 1.58 8.4.1 101.55-76 102.14-123.4 97.64-123.4l-200.97.1c-3.07 0 1.77 48.1 94.9 123.2z"/><path fill="#fdf9a1" fill-rule="evenodd" d="M235.34 331.22c8.72-2.26 19.24-2.86 27.82 1.72 7.62 3.98 12.03 3.94 20.24 4.05 8.6.1 15.34 6.42 24.63 6.66 17.1.45 24.3 8.93 11.02 8.95-6.3.02-19.76-4.18-26.27-3.28-13.58 1.4-22.2 4.4-35 18.64l14.8 10.12c12.77-5.2 14.9-11.07 22-11.3 7.98-.26 10.7-5.2 19.95-5.22 10.5 1.9 24.73-1.3 33.07-3.17 14.78-3.45 7.75-13.78-1.2-17.53-7.26-3.1-20.82-.1-29.24-3.17-6.38-2.48-1.13-6.46 2.3-7.3 3.45-.65 7.16.5 11.46 1.18 7.68.66 17.33-.08 24.08-1.13 13.94-2.16 13.35-6.25 20.1-6.36 4.9-.25 8.63-1.72 11.98-4.12 3.93-2.63 8.02-8.02 12.78-7.82l12.76.54-17.97 40.4-50.76 51.67-26.3 9.97-57.77-37.62-29.14-44.7 4.65-1.2z"/><path fill="#179a3b" fill-rule="evenodd" d="M301.75 291.94l116-.54 2.05-10.28s-4.14-.62-7.48-.82c-4.16-.25-11.3 4.36-16.08 4.33-3.4-.02-7.26-6.08-10.65-5.95-5.92-.06-6.45 5.27-12.02 5.4-4.5-.14-6.42-3.57-12.24-3.23-6.1.34-5.65 3.7-13.37 3.5-10.2-.24-14.28-9.1-22.43-9.18-13.6-.17-14.05 12.98-23.8 16.77z"/><path fill="#fdf9a1" fill-rule="evenodd" d="M301.75 294.42l119.4-.6v-3.26l-122.12.6 2.72 3.26z"/><path fill="#a79270" fill-rule="evenodd" d="M350.82 330.3c1.84 7.06 3.78 9.45 11.2 11.25 7.32 1.8 18.5-5.34 11.55-12.23-6.6-6.42-13.56-8.05-19.5-13.82-12.46-12.32-31.24-42.5-31.26-63.8 0-18.27-1.77-55.8-1.78-91.32 0-2.3-6.94 6.45-6.93 8.8.3 31.34.26 55.03 1.53 86.65 1.98 23.1 13 38.66 22.7 52.7 4.32 6.74 10.6 14 12.5 21.77z"/><text x="465.114" y="269.487" fill="#bd0728" stroke="#fff" stroke-width="1.638" font-family="helvetica" font-size="25.614" transform="matrix(1.33 0 0 1.33 -363.07 -108.06)"><tspan>G</tspan></text><text x="488.065" y="269.607" fill="#bd0728" stroke="#fff" stroke-width="1.638" font-family="helvetica" font-size="25.614" transform="matrix(1.33 0 0 1.33 -363.07 -108.06)"><tspan>U</tspan></text><text x="516.053" y="269.59" fill="#bd0728" stroke="#fff" stroke-width="1.638" font-family="helvetica" font-size="25.614" transform="matrix(1.33 0 0 1.33 -363.07 -108.06)"><tspan>A</tspan></text><text x="539.532" y="269.542" fill="#bd0728" stroke="#fff" stroke-width="1.638" font-family="helvetica" font-size="25.614" transform="matrix(1.33 0 0 1.33 -363.07 -108.06)"><tspan>M</tspan></text><path fill="#239e46" fill-rule="evenodd" d="M259.62 160.9c-1.54 2.96 3.6-.88 4.77-1.3 6.67-2.36 9.28-10.8 20.77-5.7 9.04 3.9 21.18 1.62 14.84 5.58-7.83 4.7-23.45 9.9-23.76 33.18 1.3 2.27 1.4 1.9 2.5-.53 2.36-5.42 13.68-20.16 19.29-18.93 2.25.58 8.87-6.66 9.03-4.6.6 5.82-9 17.58-8.9 33.32.03 3.65 4.52 4.83 6.68 2.26 2.15-2.26 3.36-4.6 7.12-7.57 6.65-5.45 4.8-28.6 5.64-27.5 4.7 6.1 5.43 23.28 12.44 30.34 5.83 5.86 10.54 3.05 9.27-5.1-2.52-16.3-10.23-11.64-13.9-28.52-.75-3.3-.93-6.26 3.42-4.9 5.32 1.56 8.44 4.03 12.4 10.03 3.98 5.73 11.42 11.2 15.72 14.58 7.5 5.77 10.14.74 6.56-6.66-3.96-8.3-12.9-15.2-21.02-18.2-6.16-2.13-8.35-2.33-13.78-3.37-1.5-.32-3.06-3.4-.38-5.12 5.74-3.5 12.6-7.47 19.58-7.67 6.7-.16 12.03 5.2 16.73 6.56 9.38 2.46 9.34-3.5 5.2-7.9-3.4-3.74-10.58-10-17.3-9.17-13.53 1.65-12.67 1.27-20.98 6.78-3.04 1.8-6.43 3.78-5.16 1.6 3.02-5.46.2-4.52 4.9-10.08 3.64-4.08 6.32-7 9.93-8.03 3.44-.83 7.98-4.48 9.38-6.33 3.4-4.66.48-7.33-4.73-5.76-4.52 1.24-6.95 4.25-10.06 5.08-7.28 2.3-13.17 18.98-14.06 21.34-1.17 2.83-2.45 1.43-2.2-.96 1.04-11.78 2.03-31.5-2.12-39.62-6.27-11.97-5.7-6.4-8.1-.7-3.6 9.02-2.35 17.43-.07 26.27 1 4.4 4.7 9.43 5.35 12.9.48 2.7-1.58-.85-2.77-2.5-3.93-6-6.8-10.07-13.2-13.35-4.38-2.77-16.17-3.14-20.27-1.88-1.77.55 1.97 3.08 3.56 4.34 4.3 3.43 12.42 4.5 17.9 7.85 4.7 2.9 8.28 4.75 9.83 8.75.65 2.96 1.62 7.37-.34 7.26-5.12-.3-13.08-4.73-29.44-2.9-8.36 1.1-15.6 8.24-20.24 16.83z"/><path fill-rule="evenodd" d="M295.28 310.56h4.75v7.9h-4.75z"/><path fill="#fdf9ff" fill-rule="evenodd" d="M271.7 257.85c18.84 26.07 49 41.26 49.62 53.1-19.07-.07-39.73 0-58.8-.06 13.5-16.25 21.74-27.22 9.2-53.05z"/><path fill="#a68861" fill-rule="evenodd" d="M254.6 311.54c25.57 5.7 56.1 8.85 75.6-.8.17 5.7-6.33 13.9-11.66 13.9h-49.08c5.7-.8 8.95-2.54 18.23-3.03l-26.07.33c-2.88.1-8-7.62-7.04-10.4z"/><path fill="#be0027" fill-rule="evenodd" d="M312.6 425.06c2.6 1.42 6.7 1.35 9.02.1 147.76-78.64 147.84-294.32.22-371.87-2.75-1.46-6.73-1.38-9.46.1-143.98 78.82-144.37 292.06.22 371.66zm.73-17.76c2.27 1.26 5.86 1.2 7.88.1 123.7-72.8 125.2-265.1.2-334.03-2.4-1.76-5.88-1.2-8.26.1-118.46 70.05-125.06 254.43.2 333.83z"/><text x="465.114" y="269.487" fill="#bd0728" font-size="25.614" font-family="helvetica" transform="matrix(1.33 0 0 1.33 -363.07 -108.06)"><tspan>G</tspan></text><text x="488.065" y="269.607" fill="#bd0728" font-size="25.614" font-family="helvetica" transform="matrix(1.33 0 0 1.33 -363.07 -108.06)"><tspan>U</tspan></text><text x="516.053" y="269.59" fill="#bd0728" font-size="25.614" font-family="helvetica" transform="matrix(1.33 0 0 1.33 -363.07 -108.06)"><tspan>A</tspan></text><text x="539.532" y="269.542" fill="#bd0728" font-size="25.614" font-family="helvetica" transform="matrix(1.33 0 0 1.33 -363.07 -108.06)"><tspan>M</tspan></text></svg>