<svg xmlns="http://www.w3.org/2000/svg" width="640" height="480"><defs><clipPath id="a"><path fill-opacity=".67" d="M-89.05 0h682.67v512H-89.05z"/></clipPath></defs><g clip-path="url(#a)" transform="translate(83.48) scale(.94)"><path fill="#ba0000" fill-rule="evenodd" d="M618 512h-731.43V0H618z"/><path fill="#fff" fill-rule="evenodd" d="M241.87 247.8s-51.62-22.22-44.2-79.8c7.16-27.74 19.83-46.62 42.77-56.9 10.75-3.34 21.75-4.77 32.98-5.73-2.95 2.8-5.42 5.58-6.7 9.08-2.46 6.3-.63 12.35 2.64 18.4 4.14 7 6.6 14.26 7.4 23.66 1.52 13.24-4.14 25.98-14.57 33.7-6.62 5.1-14.43 6.86-20.8 12.68-4.94 4.86-7.97 9.72-9.08 18.16-.16 16.1 4.22 18.32 9.56 26.77z"/><path fill="#ba0000" fill-rule="evenodd" stroke="#000" stroke-width="2.152" d="M232.08 164.48v-.24"/><path fill="none" stroke="#ba0000" stroke-width="2.152" d="M235.34 241.82c-20.08-17.76-18.33-62.45-3.03-77.34"/><path fill="#ba0000" fill-rule="evenodd" d="M244.63 154.48l3.3 5.52-6.12-2.5-4.56 4.9.8-6.43-6.13-2.48 6.63-1.5.78-6.45 3.3 5.52 6.6-1.5"/><path fill="#fff" fill-rule="evenodd" d="M246.26 244s6.13-55.87 63.36-65.67c28.6-1.27 50.37 5.3 66.92 24.24 6.35 9.3 10.94 19.4 15.14 29.85-3.53-2-6.92-3.55-10.64-3.74-6.74-.52-12 3-16.82 7.9-5.5 6.02-11.7 10.5-20.45 14.02-12.2 5.32-26.05 3.65-36.5-4.06-6.8-4.83-10.77-11.78-18.2-16.17-6.1-3.3-11.62-4.77-20.02-3.36-15.43 4.57-16.28 9.42-22.8 17z"/><path fill="#ba0000" fill-rule="evenodd" stroke="#000" stroke-width="2.152" d="M323.06 210.2l.23-.06"/><path fill="none" stroke="#ba0000" stroke-width="2.152" d="M250.06 236c11.1-24.4 54.34-35.83 73.07-25.57"/><path fill="#ba0000" fill-rule="evenodd" d="M336.3 219.28l-4.3 4.77.58-6.58-6.04-2.93 6.4-1.12.58-6.6 3.36 5.9 6.4-1.14-4.32 4.77 3.37 5.88"/><path fill="#fff" fill-rule="evenodd" d="M250.12 248.03s54.92-11.94 82.38 39.22c10.3 26.73 10.96 49.45-1.73 71.15-6.8 8.97-14.9 16.54-23.5 23.84.8-3.98 1.17-7.68.17-11.28-1.65-6.55-6.66-10.4-12.84-13.44-7.44-3.3-13.67-7.75-19.78-14.94-8.92-9.88-11.73-23.53-7.74-35.9 2.42-7.98 7.75-13.95 9.55-22.38 1.2-6.83.83-12.54-3.17-20.06-9.23-13.18-14.1-12.45-23.34-16.2z"/><path fill="#ba0000" fill-rule="evenodd" stroke="#000" stroke-width="2.152" d="M306.54 310.12l.14.2"/><path fill="none" stroke="#ba0000" stroke-width="2.152" d="M258.9 249.1c26.68 2.77 51.23 40.14 47.45 61.16"/><path fill="#ba0000" fill-rule="evenodd" d="M302.14 325.56l-5.9-2.58 6.44-1.53.86-6.65 3.1 5.7 6.43-1.53-4.52 5.05 3.1 5.7-5.88-2.58-4.5 5.07"/><path fill="#fff" fill-rule="evenodd" d="M248.88 253.7s26.88 49.35-14.5 90.07c-22.77 17.38-44.4 24.4-68.78 18.33-10.52-4-20.06-9.67-29.48-15.86 4.04-.37 7.7-1.04 10.87-3 5.82-3.43 8.12-9.33 9.3-16.1 1.06-8.08 3.6-15.3 8.77-23.2 6.97-11.32 19.3-17.86 32.27-17.5 8.35.08 15.57 3.52 24.18 2.9 6.88-.8 12.26-2.74 18.36-8.7 10.06-12.55 8-17 9-26.95z"/><path fill="#ba0000" fill-rule="evenodd" stroke="#000" stroke-width="2.152" d="M205.13 325.28l-.14.2"/><path fill="none" stroke="#ba0000" stroke-width="2.152" d="M250.33 262.43c4.82 26.37-24.15 60.44-45.38 62.7"/><path fill="#ba0000" fill-rule="evenodd" d="M189.08 325.4l.82-6.4 3.27 5.75 6.63-1.04-4.6 4.6 3.27 5.73-6.12-2.9-4.6 4.57.83-6.38-6.13-2.9"/><path fill="#fff" fill-rule="evenodd" d="M242.8 252.62s-37.63 41.75-89.8 16.25c-23.95-15.7-37.76-33.75-40.12-58.78.28-11.27 2.45-22.14 5.15-33.08 1.7 3.68 3.54 6.92 6.46 9.25 5.15 4.36 11.47 4.57 18.25 3.42 7.97-1.68 15.63-1.7 24.8.57 13 2.8 23.25 12.26 27.22 24.62 2.7 7.9 1.86 15.85 5.32 23.75 3 6.24 6.64 10.67 14.28 14.43 15.18 5.32 18.7 1.9 28.42-.46z"/><path fill="#ba0000" fill-rule="evenodd" stroke="#000" stroke-width="2.152" d="M160.73 235.15l-.22-.08"/><path fill="none" stroke="#ba0000" stroke-width="2.152" d="M235.03 256.9c-23.27 13.3-65.03-2.7-74.22-21.97"/><path fill="#ba0000" fill-rule="evenodd" d="M155.3 220.04l6.28-1.35-4.33 5 3.2 5.9-5.86-2.83-4.33 5 .7-6.74-5.84-2.8 6.3-1.35.7-6.75"/></g></svg>