<svg xmlns="http://www.w3.org/2000/svg" width="640" height="480"><path fill="#006" d="M0 0h640v480H0z"/><path fill="#fff" d="M0 0v30.6l372.58 243h46.9v-30.58L46.9 0H0zm419.48 0v30.6L46.9 273.6H0v-30.58L372.58 0h46.9zM174.78 0v273.6h69.92V0h-69.92zM0 91.2v91.2h419.48V91.2H0z"/><path fill="#c00" d="M0 109.44v54.73h419.48v-54.72H0zM188.76 0v273.6h41.95V0h-41.93zM0 273.6l139.83-91.2h31.26L31.26 273.6H0zM0 0l139.83 91.2h-31.27L0 20.4V0zm248.4 91.2L388.2 0h31.28L279.65 91.2H248.4zm171.08 182.4l-139.83-91.2h31.27l108.56 70.82v20.4z"/><path fill="#fff" fill-rule="evenodd" d="M125.5 416.48l-27.47-2.4 23.72-14.06-15.26-22.98 25.78 9.77 8.45-26.25 8.45 26.26 25.8-9.76L159.7 400l23.72 14.1-27.47 2.38 3.78 27.32-19-20-19 20m370.43 1.9l-19.34-1.7 16.7-9.9-10.75-16.17 18.16 6.87 5.95-18.5 5.94 18.5 18.16-6.87-10.75 16.17 16.7 9.9-19.34 1.7 2.66 19.23-13.4-14.07-13.37 14.07m2.66-307l-19.34-1.7 16.7-9.9-10.75-16.18 18.16 6.88 5.95-18.5 5.94 18.5 18.16-6.88-10.75 16.18 16.7 9.9-19.34 1.7 2.66 19.22-13.4-14.07-13.37 14.07m-105.25 97.68l-19.35-1.68 16.7-9.92-10.75-16.17 18.17 6.88 5.94-18.5 5.94 18.5 18.17-6.88-10.75 16.17 16.7 9.92-19.35 1.68 2.67 19.23L394.96 280l-13.38 14.06m206.48-48l-19.32-1.7 16.73-9.9-10.77-16.18 18.18 6.88 5.9-18.5 5.97 18.5 18.13-6.88-10.72 16.17 16.7 9.92-19.36 1.68 2.66 19.23-13.38-14.07-13.38 14.08m-22.25 40.4l-9.5 8.04 2.97 12.08-10.58-6.56-10.57 6.56 2.97-12.08-9.5-8.02 12.4-.92 4.7-11.52 4.7 11.52"/></svg>