<svg xmlns="http://www.w3.org/2000/svg" width="640" height="480" xmlns:xlink="http://www.w3.org/1999/xlink"><path fill="#171796" d="M0 0h640v480H0z"/><path fill="#fff" d="M0 0h640v320H0z"/><path fill="#f00" d="M0 0h640v160H0zM320.03 364.15c51.32 0 93.3-42 93.3-93.3v-110.9h-186.6v110.9c0 51.3 41.98 93.3 93.3 93.3z"/><path fill="#fff" d="M320.03 362.65c50.34 0 91.53-41.2 91.53-91.53V161.76H228.5v109.36c0 50.35 41.2 91.53 91.53 91.53z"/><g fill="#f00"><path d="M267.13 165.2H231.9v38.7h35.23zm0 77.4h35.23v-38.7h-35.23zm-35.22 28.3c0 3.52.23 7 .63 10.4h34.6v-38.7H231.9v28.3zm105.68-28.3h-35.22v38.7h35.22zm0 77.4h35.23v-38.7H337.6zm35.23 21.17A89.2 89.2 0 0 0 392.93 320h-20.1v21.17zM267.15 320h35.22v-38.7h-35.22zM247 320a89.17 89.17 0 0 0 20.14 21.2V320H247zm79.1 38.7c3.9-.27 7.74-.8 11.48-1.57V320h-35.22v37.14a87.06 87.06 0 0 0 11.44 1.56c4.1.25 8.2.24 12.3 0zM407.38 281.3c.4-3.42.62-6.9.62-10.43V242.6h-35.2v38.7h34.58zm-69.8-38.7h35.23v-38.7H337.6zm0-77.4h-35.22v38.7h35.23zM408 203.9v-38.7h-35.2v38.7z"/></g><path fill="#fff" d="M409.97 158.83l21.84-49.5-16.63-26.88-27.57 10.2-19.35-22.12-25.5 14.62L320 66.52l-22.74 18.63-25.5-14.62-19.36 22.13-27.57-10.2-16.64 26.86 21.8 49.52c27.48-12.44 57.96-19.37 90-19.37 32.03 0 62.5 6.93 89.97 19.36z"/><path fill="#0093dd" d="M253 94.84l-.03.05-27.34-10.14-15.3 24.7 5.86 13.33 14.84 33.7a219.67 219.67 0 0 1 34.58-11.97l-12.6-49.7z"/><path fill="#fff" stroke="#000" stroke-width=".28" d="M251.44 119.27a13.26 13.26 0 0 1 1.53 6.2c0 7.36-6 13.36-13.36 13.36-6.48 0-11.9-4.66-13.1-10.8 2.3 4.07 6.68 6.84 11.68 6.84 7.4 0 13.43-6.03 13.43-13.43 0-.74-.05-1.46-.16-2.17z"/><path d="M227.6 113.92l.92-4.8-3.68-3.2-.17-.16.22-.08 4.6-1.6.95-4.78.04-.22.16.14 3.7 3.2 4.6-1.57.23-.07-.06.22-.93 4.8 3.7 3.2.16.16-.2.07-4.63 1.6-.95 4.8-.04.2-.17-.14-3.7-3.2-4.6 1.56-.23.08z"/><path fill="#f7db17" d="M233.64 107.6l3.45 3 4.3-1.5zm.03-.16l7.76 1.52-3.43-3zm-8.34-1.63l7.76 1.53-3.45-3zm7.73 1.68l-7.76-1.52 3.44 3zm.44-.3l5.2-5.96-4.32 1.48zm-5.58 6.4l5.2-5.95-4.33 1.48zm5.3-5.85l-5.2 5.96 4.33-1.48zm5.6-6.4l-5.2 5.96 4.33-1.5zm-5.62 5.88l-2.57-7.48-.88 4.48zm2.75 8.04l-2.56-7.48-.9 4.5zm-2.4-7.53l2.55 7.5.9-4.48zm-2.77-8.03l2.56 7.5.88-4.5z"/><path fill="#171796" d="M297.5 87.4l-.05.04-25.3-14.5-19.14 21.9 12.62 49.7a219.78 219.78 0 0 1 36.1-6.04l-4.22-51.1z"/><path fill="#f00" d="M262.5 132.2a232.25 232.25 0 0 1 38.2-6.38l-1.08-12.92a245.55 245.55 0 0 0-40.32 6.74l3.2 12.56zm-6.35-24.97a257.96 257.96 0 0 1 42.4-7.1l-1.05-12.66a270.72 270.72 0 0 0-44.48 7.43l3.13 12.33z"/><g transform="translate(-160) scale(.002)"><path fill="#0093dd" d="M212105 36890l-23 13-9517-7794-9497 7778 1788 21560c2543-210 5113-322 7709-322 2608 0 5190 113 7744 325l1795-21560z"/><g id="a"><path d="M202545 46585c-18-2-44 10-69 45-186 250-359 469-545 720-195 61-242 180-167 348-261-26-291 193-302 432-250-379-522-482-814-307-11-230-187-338-439-392-180-10-319-65-436-145-60-42-110-64-170-106-126-88-226-5-172 74 267 434 535 868 802 1302-14 80 6 151 88 204 47 133 93 265 140 397-11 38-21 75-32 113-221-105-443-118-664-133-170-8-287-50-361-137-54-63-91-26-92 82-3 534 162 1014 599 1492-231 4-462 11-694 21-79 6-95 39-73 104 126 304 339 579 822 766-208 112-327 285-357 520-9 224-75 382-212 455-60 32-81 65-24 106 253 185 565 193 895 112-157 270-226 553-198 850 208 56 412 15 614-52-29 61-44 175-52 309-7 115-41 229-104 343-32 33-65 84 4 102 336 91 648 52 915-47 0 243 2 487 76 727 18 58 70 102 125 26 155-214 322-396 527-517 31 90 75 168 156 215 96 55 147 170 153 343 0 30-2 60 35 90 149 7 514-380 589-597 206 121 284 246 439 461 55 76 99 29 128-25 62-243 67-481 66-724 267 99 579 138 915 47 69-19 36-70 4-102-62-114-105-250-113-365-9-133-14-226-43-287 202 68 405 108 614 52 29-297-53-579-211-850 330 80 655 73 908-112 57-41 35-74-24-106-136-73-203-231-212-455-30-235-149-409-357-520 483-187 696-463 822-766 22-66 6-99-73-104-231-10-480-24-711-27 437-478 606-961 604-1495-1-108-38-146-92-82-74 87-179 137-348 146-222 15-435 24-656 128-11-38-21-75-32-113 46-132 106-260 153-393 82-53 102-123 88-204 267-434 513-868 781-1302 54-79-46-162-171-74-60 42-110 64-170 106-117 80-257 134-437 145-251 54-417 167-428 397-293-175-564-73-814 307-11-239-41-457-302-432 75-168 17-291-178-352-186-250-458-470-644-720-31-35-51-47-69-45z"/><g fill="#f7db17"><path d="M205075 47978c-51-26-124 17-162 95s-33 170 19 196c40 20 84-6 119-56l22-36c2-3 4-6 5-9 38-78 49-163-2-188zm-5008 0c52-26 124 17 162 95s39 165-13 191-103-24-141-102-60-158-9-184zm4539 905c-32 0-59 27-59 59s26 59 59 59 59-26 59-59c0-32-26-59-59-59zm-4032 0c-32 0-59 26-59 59 0 32 26 59 59 59s59-26 59-59-26-59-59-59zm4294-304c-754-91-1506-133-2260-133s-1509 41-2269 115c-26 8-21 90 14 86 756-73 1507-113 2256-113 743 0 1485 40 2228 129 39 4 54-80 32-84zM200319 48495c768-75 1530-117 2289-116 754 0 1507 42 2261 133l111-184c-32 10-62 9-90-5-76-38-92-161-36-274 56-114 164-175 240-138 39 19 62 62 68 114l446-739c-204 130-328 214-581 252-281 41-409 139-368 307 38 156-57 133-201 54-314-171-541 71-652 353-73 186-159 181-168-13-4-70 0-131-7-200-21-223-89-286-216-224-161 78-175 25-137-58 28-60 86-128 66-221-9-67-66-92-151-98-182-244-467-483-649-727-182 244-374 483-556 727-86 5-142 30-152 98-20 93 52 157 80 217 38 82 23 135-137 57-127-61-186-3-207 220-7 69-10 139-13 209-9 194-95 199-168 13-111-282-352-524-667-353-145 79-203 102-182-54 23-172-107-266-388-307-253-37-377-122-581-252l419 682c12-25 29-45 53-57 76-38 184 24 240 138 56 113 40 237-36 274-10 5-21 8-32 10l100 163zm4389 911c-7 3-7 4-24 11-46 19-80 66-134 124-57 60-128 125-211 188-12 10-25 19-44-6s-7-35 6-44c80-62 149-124 204-182 30-32 56-63 77-92-95-11-190-21-284-30-79 24-157 55-222 95-59 35-107 77-137 125-8 14-16 27-44 11-27-16-19-30-11-44 35-58 91-107 158-147 33-20 69-38 106-54-107-9-214-18-321-25-22 13-42 29-61 47-20 19-39 42-56 67-9 13-18 26-44 8s-18-31-8-44c19-29 41-54 64-77l9-9c-80-5-161-10-241-14-2 2-5 5-8 7-21 18-40 38-55 59s-28 43-38 67c-6 15-12 29-41 18-29-12-23-26-17-41 12-29 27-55 45-81 8-11 18-22 27-33-115-5-230-9-344-12-4 5-9 8-14 11-25 15-47 32-66 51s-35 40-48 63c-8 14-16 28-43 12-28-16-20-29-12-43 16-28 35-54 59-77 7-7 14-13 21-19-122-2-244-4-365-4-120 0-240 1-360 3 8 7 15 13 22 20 23 23 42 49 59 77 8 14 16 27-12 43s-35 2-44-12c-13-23-29-44-48-63s-41-36-66-51c-6-3-12-7-15-12-115 2-230 6-345 11 11 11 20 23 29 35 19 25 33 52 45 81 6 15 12 29-17 41s-35-3-41-18c-9-24-22-46-38-67-15-21-34-41-55-59-4-3-7-6-10-10-81 4-162 8-243 13 4 4 9 8 13 12 24 23 45 48 64 77 9 13 18 26-8 44s-35 5-44-8c-18-26-36-48-56-67s-41-35-64-49c-1-1-3-2-5-3-110 7-220 14-330 23 43 18 85 38 122 61 67 40 124 89 158 147 8 14 16 27-11 44-27 16-35 3-44-11-29-48-78-90-137-125-72-44-159-77-246-102h-2c-90 7-179 15-268 24 22 33 51 68 86 106 55 58 124 120 204 182 13 9 25 19 6 44s-32 15-44 6c-83-64-155-128-211-188-37-38-99-111-135-140-196-90-354-127-575-147-153-14-318-9-458-79 36 85 75 164 126 229 53 68 120 121 209 147 8 2 21 16 22 25 28 157 84 286 169 386 52 60 114 110 188 149-75-81-132-166-172-251-67-142-90-286-77-420 1-16 3-32 34-29 32 3 30 19 29 35-11 123 9 256 72 387 56 118 159 237 291 346 24 19 0 63-29 55-154-44-290-123-383-231-89-104-149-237-180-397-94-32-165-90-222-164-47-60-85-131-118-205 28 428 182 801 456 1137 61 75 165 182 255 216 92 35 95 100-20 101-34 1-69 1-105 1 84 31 164 66 233 105 127 73 217 162 224 273 1 16 2 32-29 34-32 2-33-14-34-29-6-86-82-160-192-223-113-65-259-117-402-160-154 0-312-1-459 3 39 28 80 57 131 84 82 44 188 86 343 122 89 21 166 52 233 91 71 42 130 93 177 150 10 12 20 25-5 45s-34 8-45-5c-42-52-95-98-159-135-61-36-133-64-216-84-161-38-272-81-358-128-75-40-131-82-184-123 180 393 450 573 835 689 23 7 43 13 61 19 3 1 6 1 9 2 86 21 175 40 266 55 92 15 166 28 261 37 16 1 32 3 29 34-3 32-19 30-34 29-99-9-174-22-266-38-58-10-115-21-171-33-26 6-64 9-107 12-232 14-420 225-435 494 0 5 0 11-1 16 88-80 179-157 273-212 117-68 239-103 364-69 15 4 31 8 22 39-8 31-23 27-39 22-106-28-212 3-316 63-108 63-213 158-315 253-24 147-82 285-205 377 61 34 104 65 163 45 86-39 172-78 261-108 91-31 184-52 282-57 16-1 32-1 33 31s-14 32-31 33c-91 4-179 24-264 53-75 26-149 58-222 91 221 47 460-1 667-79 60-22 105-42 133-41 51-30 112-53 172-79 66-28 132-51 182-57 16-2 32-4 35 28 4 32-12 33-28 35-112 13-127 21-222 79 0 21-66 57-126 96-36 24-70 52-87 67-95 86-144 181-188 287-29 70-52 145-68 224 55-108 121-211 201-303 94-108 208-201 345-265 14-7 29-13 42 15 13 29-1 35-15 42-129 60-236 147-324 250-90 103-161 222-219 345-31 64-8 1-42 86 110-122 212-224 323-307 132-100 283-157 418-133 15 3 31 6 26 37s-21 28-37 26c-116-21-250 32-369 121-121 92-244 223-366 361 184 26 366-26 542-85 91-30 183-135 239-152 19-24 38-46 57-67 33-37 67-71 102-100 12-10 24-20 45 4s8 34-4 45c-33 28-65 60-96 94-32 35-62 73-92 113-6 8-13 17-24 16-60 70-151 162-172 240-57 210-25 370-122 576 71-38 128-81 175-134 53-60 94-135 128-230 37-104 95-195 167-270 75-77 165-136 261-172 15-5 30-11 41 19s-4 35-19 41c-87 32-169 86-238 157-66 68-119 151-153 247-37 102-81 183-141 250-44 50-95 91-156 127 52-3 78-10 121-7 79-6 211-66 279-119 66-51 116-120 154-206 6-15 13-29 42-16s23 27 16 42c-42 96-99 174-173 231-56 43-121 75-196 93 161-5 311-42 467-100 65-24 87-168 127-208 32-58 66-112 105-158 47-56 101-101 164-127 15-6 29-12 41 18 12 29-3 35-17 41-52 21-98 60-139 108-36 42-68 93-98 147 10 73-51 228-53 305-7 205-2 409 53 612 53-71 107-134 162-192 0-5 0-10 1-15 18-106 33-219 40-332 7-112 7-223-6-329-2-16-4-32 27-35 32-4 34 12 35 28 14 111 14 226 7 340-6 90-16 180-30 269 54-51 53-51 77-103 37-80 59-159 67-237 9-80 5-157-13-230-4-15-7-31 24-38s35 8 38 24c19 80 25 165 14 252-8 65-24 132-49 199 56-42 114-82 178-122-4-75-5-153-3-227 2-68 7-134 18-190 4-20 7-40 47-33s37 27 33 48c-9 50-14 111-16 177-2 78 0 162 4 243 5 82 49 185 125 230 103 62 158 163 186 274 16-145 17-280 3-400-17-143-55-267-114-368-8-14-16-27 12-44 27-16 35-2 43 12 63 110 104 241 122 393 17 146 13 310-13 488 102-82 381-258 352-594-7-27-16-52-28-75-7-14-14-28 14-42s35 0 42 14c17 33 30 69 39 110 5 24 8 49 11 76 13-7 45-43 51-39 24 16 58 38 80 54-21-60-35-120-42-178-10-87-5-172 14-252 4-15 7-31 38-24s27 23 24 38c-18 73-22 151-13 230 9 77 31 157 67 237 4 8 8 16 5 25 24 21 47 42 70 65-13-84-22-170-28-255-8-115-7-230 7-341 2-16 4-32 35-28s29 20 27 35c-13 106-13 217-6 329 7 113 22 225 40 332 1 2 1 5 1 7 54 59 95 120 152 196 55-203 73-407 66-612-2-76-69-227-65-302-30-55-63-107-100-151-41-49-87-87-139-108-15-6-29-12-18-41 12-29 27-24 41-18 62 26 117 71 164 127 38 45 72 98 103 154 57 7 78 179 143 212 154 57 298 94 453 100-75-19-140-50-195-93-74-57-131-135-173-231-6-15-13-29 16-42s35 2 42 16c38 86 88 156 154 206 85 66 289 124 400 127-61-37-113-78-157-128-59-67-104-148-141-250-34-95-87-179-153-247-68-71-150-124-238-157-15-6-29-11-19-41 11-29 26-24 41-19 96 36 186 94 261 172 72 74 130 166 167 270 34 95 75 169 128 230 47 54 105 98 177 135-98-207-66-367-122-577-35-129-232-277-193-320 45-51 133 88 248 127 175 59 357 111 540 85-122-138-244-269-366-361-119-90-237-140-352-120-16 3-31 6-37-26-5-31 10-34 26-37 135-24 269 32 401 132 111 84 201 175 311 298-18-47 0-14-30-77-59-123-130-241-220-345-89-102-196-189-324-250-14-7-28-13-15-42 13-28 28-22 42-15 137 65 251 157 345 265 81 93 147 198 203 307-15-81-39-157-68-227-44-106-93-201-188-287-62-56-209-140-208-179-29-15-33-11-63-24-61-26-121-46-164-52-16-2-32-4-28-35 4-32 19-30 35-28 50 6 115 28 182 56 33 14 66 43 98 60 53 4 139 47 208 74 206 78 446 126 666 79-73-33-147-65-223-91-85-29-172-49-264-53-16-1-32-1-31-33s17-31 33-31c98 4 191 26 282 57 89 30 175 69 261 108 59 27 101-7 163-45-123-92-181-230-205-376l-2-2c-102-95-207-190-315-253-104-60-210-91-316-63-15 4-31 8-39-22-8-31 7-35 22-39 125-33 247 1 364 69 94 55 186 132 274 213 0-6-1-11-1-17-15-270-203-480-435-494-78-5-189 21-186-32 4-59 97-44 234-86 385-116 655-296 836-690-54 41-110 83-186 124-86 47-198 91-358 128-82 19-154 48-216 84-64 38-117 84-159 135-10 12-20 25-45 5s-14-32-5-45c47-57 106-108 177-150 67-39 145-70 233-91 155-36 261-78 343-122 51-27 92-55 131-84-148-4-305-3-459-3-143 44-289 96-402 160-110 63-186 136-192 223-1 16-2 32-34 29-32-2-31-18-29-34 8-111 97-200 224-273 69-39 149-74 233-105-35 0-70 0-104-1-116-2-112-66-20-101 90-34 190-141 251-216 271-334 412-714 456-1130-33 72-69 140-115 198-57 73-128 131-222 164-31 160-91 293-180 397-92 108-216 185-369 230-29 8-52-35-29-55 132-109 221-226 278-344 62-131 83-264 72-387-1-16-3-32 29-35 31-3 33 13 34 29 12 134-10 278-78 420-40 85-97 170-172 251 73-39 136-89 187-149 85-100 141-229 170-386 1-8 14-22 22-25 89-27 155-79 209-147 51-65 90-143 126-228-140 69-304 64-457 78-213 19-369 68-554 152zM204649 49231c-680-88-1359-113-2041-114-684 0-1369 40-2058 112-20 6-15 33-14 46 2 28 37 35 121 27 643-60 1285-93 1932-93 674 0 1351 21 2038 102 33 9 77-85 22-81z"/><path fill-rule="evenodd" d="M200570 49160c683-71 1362-110 2038-110 675 0 1349 40 2025 127l31-127c-17 9-37 15-58 15-67 0-123-55-123-123s55-123 123-123c51 0 94 31 113 75l60-170c-724-84-1446-122-2171-122-729 0-1459 38-2193 107l58 164c22-32 59-54 101-54 68 0 123 55 123 123s-55 123-123 123c-12 0-25-2-36-6l33 94-2 7zm3067-416c-68 0-123 55-123 123s55 123 123 123 123-55 123-123-55-123-123-123zm0 64c-33 0-59 27-59 59s26 59 59 59c32 0 59-27 59-59s-26-59-59-59zm-1082-91c-67 0-123 55-123 123s55 123 123 123 123-55 123-123-55-123-123-123zm0 64c-32 0-59 26-59 59s26 59 59 59 59-26 59-59c0-32-26-59-59-59zm-1064-40c-68 0-123 55-123 123s55 123 123 123c67 0 123-55 123-123s-55-123-123-123zm0 64c-33 0-59 26-59 59s26 59 59 59c32 0 59-26 59-59 0-32-26-59-59-59z"/></g><path d="M202601 47974c-14-68-49-129-100-175-51-47-116-78-187-88-33-4-39-58-7-68 60-20 114-67 157-133 45-69 79-157 95-256 5-34 64-35 69-1 15 84 51 153 97 208 55 66 125 112 193 138 31 12 25 63-8 68-59 9-105 42-141 87-50 62-81 145-100 221-8 33-62 31-69-2zm33-118c20-52 47-103 81-146 28-34 60-64 99-84-51-30-100-70-143-120-28-34-53-73-73-116-19 59-45 112-75 158-31 47-67 86-108 116 50 19 95 47 134 82 34 31 63 68 85 110zm799 5115l-515 206c-17 7-35 14-48-21-14-34 4-41 21-48l515-206c17-7 35-14 48 21 14 34-4 41-21 48zm59-326l-604 328c-16 9-33 18-51-15s-1-42 15-51l604-328c16-9 33-18 51 15s1 42-15 51zm-1826-65l604 328c16 9 33 18 15 51s-34 24-51 15l-604-328c-16-9-33-18-15-51s34-24 51-15zm51 322l515 206c18 7 35 14 21 48-14 35-31 28-49 21l-515-206c-17-7-34-14-21-48 14-35 31-28 48-21zm224 434c137 33 261 48 358 31 88-16 155-60 191-146v-493c-107-1-212-15-303-41-109-31-170-98-201-178-41-107-27-235-4-329 5-18 9-36 45-27s32 27 27 45c-20 82-33 194 1 284 23 60 69 110 152 133 91 25 198 38 307 38 107 0 214-13 304-40 82-24 148-69 192-123s65-117 57-176c-5-36-24-62-49-80-34-24-82-35-128-37-47-2-94 7-142 16-25 5-50 9-77 13-19 2-37 5-42-32s14-40 32-42c23-3 48-8 73-12 52-10 105-20 159-18 60 2 121 18 168 51 42 29 72 72 80 131 11 80-16 163-73 233-53 65-131 119-229 147-83 24-178 38-274 42v483c3 5 3 11 2 16 37 82 102 125 188 141 97 18 221 2 358-31 18-5 36-9 45 27 8 37-9 41-28 45-146 35-279 51-388 32-92-17-165-58-215-132-49 74-124 115-215 132-109 20-242 4-388-32-18-4-37-8-28-45 8-36 27-32 45-27zm356 210l402-9c19 0 38-1 38 37 1 38-18 38-37 38l-402 9c-19 0-37 1-38-37s18-38 37-38zm593-3082c151-125 293-227 423-297 133-72 254-111 359-106 19 1 37 1 36 39-1 37-20 37-39 36-92-4-200 32-322 97-125 67-263 166-410 289-14 12-29 24-53-5s-9-41 5-53zm-605 56c-141-130-298-240-445-314-139-71-268-108-363-100-19 2-37 4-40-34-4-37 15-39 34-40 110-10 252 31 404 107 152 77 315 191 461 325 14 13 28 25 2 53-25 27-39 15-53 2zm-213 1004c37-83 83-155 136-219 53-63 112-119 174-170 14-12 29-24 52 5 24 29 9 41-5 53-59 48-114 101-164 160-49 59-91 125-125 201-8 17-15 34-49 19s-27-32-19-49zm371-1734c49 66 88 139 114 223 26 82 40 175 39 279 5 80 6 165-7 249-13 86-42 170-97 246-43 60-101 97-165 113-53 13-109 10-164-7 29 100 51 208 6 308-8 18-33 27-51 18-43-22-86-43-128-62s-84-36-127-51l-1-1c-95-37-173-73-236-112-65-39-115-80-150-124l1 2c-44-49-72-106-88-170-14-55-20-114-22-174-72-39-138-78-194-116-64-43-118-87-161-131-13-14-26-27 1-53s40-12 53 1c39 40 89 80 150 121 60 40 128 81 204 121 124 13 247 51 370 109 106 50 211 115 317 192 13 7 19 16 27 20 8 6 16 13 25 19 51 22 104 28 152 16 47-11 90-39 122-84 48-66 72-139 84-214 12-77 11-157 6-234v-2c1-97-12-183-35-258-24-76-58-142-102-201-11-15-22-30 7-52s41-7 52 7zm-375 1047c-104-77-207-141-311-190-105-49-210-83-314-98 2 48 8 93 18 135 13 52 35 99 71 138l1 1c30 37 73 72 130 107 60 36 134 71 225 106l-1-1c45 16 89 34 133 54 31 14 61 28 93 44 19-83-10-179-37-267-2-8-5-15-9-29zm776-1003c-44 59-79 125-102 201-24 76-36 161-35 258v2c-5 77-6 158 6 234 12 75 37 148 84 214 32 45 75 72 122 84 48 12 101 6 152-16 8-6 17-13 25-19 6-4 13-12 27-20 105-77 211-143 317-192 123-58 246-95 370-109 75-40 144-80 204-121s111-81 149-121c13-13 26-27 53-1s14 39 0 53c-43 44-97 88-161 131-57 38-122 77-194 116-2 61-8 119-22 174-16 63-44 121-88 170l1-2c-35 44-85 85-150 124-63 38-141 75-237 112l-1 1c-43 15-85 32-127 51-43 19-85 40-128 62-18 9-43 0-51-18-45-100-23-208 6-308-55 18-111 20-164 7-64-15-122-53-165-113-55-76-84-160-97-246-13-85-12-169-7-249-1-104 13-196 39-279 26-84 65-158 114-223 11-15 22-30 52-7 30 22 19 37 7 52zm940 715c-105 15-209 49-314 98-104 49-207 113-311 190-4 13-6 21-8 29-27 88-56 184-37 267 31-15 62-30 93-44 44-20 87-38 133-54l-1 1c91-35 165-70 225-106 58-34 100-70 131-107l1-1c35-39 57-86 71-138 11-42 16-87 19-135z"/><path fill-rule="evenodd" d="M203459 50602c-119 0-216 97-216 216s97 217 216 217 216-97 216-217c0-119-97-216-216-216zm0 69c-81 0-147 66-147 147s66 147 147 147 147-66 147-147-66-147-147-147zm0 60c-48 0-87 39-87 87s39 87 87 87 87-39 87-87-39-87-87-87zm-1697-124c119 0 217 97 217 216s-97 217-217 217c-119 0-216-97-216-217 0-119 97-216 216-216zm0 69c81 0 147 66 147 147s-66 147-147 147-147-66-147-147 66-147 147-147zm0 60c48 0 87 39 87 87s-39 87-87 87-87-39-87-87 39-87 87-87z"/></g><use width="100%" height="100%" xlink:href="#a" transform="rotate(-2.173 -55532.79 156275.842)"/><use width="100%" height="100%" xlink:href="#a" transform="rotate(2.18 459865.852 156275.76)"/></g><path fill="#171796" d="M387.2 94.88l-.07.02-19.2-21.94-25.24 14.47-4.27 51.1a219.72 219.72 0 0 1 36.12 6.04l12.63-49.7z"/><path d="M347.67 98.03c.87-.2 1.74-.26 2.58.26.37.14.64.33.8.58.4-.3.8-.58 1.2-.82.58-.43 1.17-.8 1.8-1.02.9-.46 1.8-.73 2.72-.8.95-.18 1.92-.18 2.87-.13.8.06 1.58.28 2.3.7.68.34 1.35.67 2 1 .72.4 1.43.75 2.13 1.05.9.35 1.9.47 2.98.5.53.03 1.04.03 1.55-.1.4-.1.67.15.2.43-3.3 2.03-5.9.22-8.12-.6.8.56 1.53 1.13 2.13 1.7.85.82 1.8 1.65 3.47 2.4 1 .47 2.1.83 3.53.84.47 0 1 0 1.55-.1.28-.05.4-.03.4.12 0 .1 0 .3-.18.4-.86.6-1.66.74-2.56.8-1.7.1-3.53-.46-5.2-1.35-1.35-.74-2.25-1.6-3.3-2.4-1.08-.78-2-1.22-3-1.43-.96-.2-2.02-.18-2.9.1.26.04.5.17.62.33.46.27 1.05.4 1.9.48.44.06.3.36-.38.73-.4.54-.94.82-1.65.75-1 .65-1.33.26-1.66-.16-.04.25-.12.52-.24.77a.6.6 0 0 1 0 .43c.15.24.22.47.17.73.03.14.07.27.22.4.2.18.32.4.35.65 0 .18.1.32.23.45.2.16.4.3.6.55.6.2.87.67.96 1.25.45.14.63.47.72.85.26.1.5.24.62.46.9 0 1.8 0 2.63.1.8.08 1.43.56 2 1.2.38.05.77.07 1.17-.02.4-.18.84-.32 1.3-.36.8-.07 1.57-.1 2.32.07.5.12.88.4 1.2.76.47.5 1.2.44 1.8.18.83-.35 1.52-.34 2.37.03a2.33 2.33 0 0 1 1.08-.16c.3-.33.64-.42.98-.43.55 0 .96.08.85.8-.03.18-.14.37-.28.43-.26.55-.74.7-1.35.66-.07.37-.22.65-.47.83.28.87 0 1.22-.64 1.2-.13.25-.33.4-.68.36a1.38 1.38 0 0 1-.87.5c.03.23.13.34.3.58.43.67-.23.93-.84.94.16.44.18.88.12 1.32.62.37.7.76.13 1.15.43.7.27 1.25-.5 1.64-.02.4-.06.8-.33 1.04-.2.15-.45.18-.28.48.3.52.24 1.18-.23 1.2-.1 0-.2 0-.2.16 0 .05-.04.1-.13.16-.56.3-1.1.65-1.57 1.04-.07.05-.14.08-.2.02-.36.76-1.02 1.54-1.74 2.32-.1.57-.44.96-.97 1.16a.4.4 0 0 1-.32.33c.3.33.4.65.12.97-.36.4-.83.77-1.3.9-1 .25-1.63.2-2.04-.18-.35-.34-.2-.6 0-.7-.6.05-.73-.28-.7-.7.02-.23.1-.2.3-.2.35 0 .65-.17.97-.27.1-.2.28-.4.47-.54.1-.7.56-1.1 1.16-1.32.5-.18.95-.65 1.4-1.25l.84-1.44a1.24 1.24 0 0 1-.26-.75 1.48 1.48 0 0 1-.54-.52c-.44-.03-.62-.23-.68-.5a1.1 1.1 0 0 1-.33-.04c-.22.13-.43.25-.7.24a6.86 6.86 0 0 1-1.1.9c-.12.37-.38.5-.7.56-.9.1-1.42 1.22-1.92 1.68-.2.14-.32.4-.4.72-.05.6-.15 1.05-.47 1.05-.3 0-.34-.04-.35-.07a1.2 1.2 0 0 0-.36.02c.24.26.28.6.05.9-.23.28-.55.37-.86.4-.64.03-1.15-.02-1.63-.22-.45-.18-.5-.46-.5-.72-.32-.16-.4-.3-.35-.47.04-.2.23-.3.46-.24.2-.1.4-.16.6-.2.58-.62 1.18-1.16 1.83-1.4a2.97 2.97 0 0 1 .68-.62c.1-.56.45-1 .9-1.4.04-.2.1-.42.22-.62-.02-.12 0-.18 0-.3-.17-.33-.28-.74-.14-1.08a1.3 1.3 0 0 1-.05-.54c-1.08.64-1.4.42-1.53-.1-.4.34-.76.5-1.03.02-.38.1-.76.24-1.14.1-.25.08-.5.17-.8.2-.1.22-.26.45-.48.68 0 .48-.18.97-.5 1.45a9.27 9.27 0 0 1-.68 1.55.98.98 0 0 1-.1.5c.07.6-.12.88-.45 1.03a2.4 2.4 0 0 1-.42.72c0 .08-.02.16-.02.24.13.34.15.7-.2 1.04-.3.18-.6.37-.9.52-.36.17-.7.1-1-.02-.52-.2-.48-.38-.4-.56a.64.64 0 0 1-.53 0c-.13-.08-.2-.17-.34-.25-.1-.2-.14-.4.13-.54.35-.16.6-.28.86-.56.1-.2.2-.37.38-.42.17-.4.37-.65.65-.72.2-.48.42-1 .68-1.47.1-.14.16-.3.12-.44 0-.14 0-.27.1-.34.07-.05.18-.1.05-.18a1.36 1.36 0 0 1 .16-1.15c.28-.42.6-1.44.3-1.94-.06-.3-.1-.6-.07-.87-.1 0-.18 0-.28-.07-.23-.14-.42 0-.6.25-.12.33-.24.6-.37.6-.1.83-.5 1.47-.93 1.63-.1.38-.16.75-.1 1.13.04.4 0 .7-.2.74-.2.05-.4.17-.52.5a1.05 1.05 0 0 0-.07.34c.3.3.2.67-.08.95-.63.6-1.4.5-2.23.27-.6-.24-.74-.48-.68-.74-.85-.07-.68-.72.02-.9.75-.22 1.36-.7 1.86-1.4.04-.8.23-1.36.67-1.45.04-.5.2-.95.4-1.37.23-.38.36-.8.3-1.32-.48-.3-.5-.6-.07-.9.14-.08.13-.17-.05-.26-.28-.02-.25-.3-.23-.55 0-.13-.08-.2-.2-.2-.64-.1-.48-.35-.2-.63.1-.13.18-.32.06-.4-.1-.06-.16-.28-.18-.47-.4-.3-.22-.6 0-.87-.22-.2-.32-.46-.35-.77-.72-.03-1-.4-.6-.93a3.38 3.38 0 0 1 .63-.65c.16-.26.32-.53.24-.8-.2-.52.46-.92 1.02-1.33a.88.88 0 0 1-.12-.4c-.32-.3-.24-.6.1-.87a1.06 1.06 0 0 1-.12-.4c-.8.14-.78-.33-.42-1.1-.45-.25-.33-.72.5-1.43a.95.95 0 0 1 .1-.38 1.92 1.92 0 0 0-1 .3c-.32.2-.64.2-.95.06a1.5 1.5 0 0 0-.4-.4.62.62 0 0 1-.23-.64c-.93.05-1.1-.64-.55-1.04.3-.25.54-.5.63-.8.25-.63.78-1.06 1.3-1.5 0-.2.04-.37.1-.56-.23-.15-.47-.26-.74-.28a1.18 1.18 0 0 0-.56-.64c-.18-.1-.23-.2-.13-.44-.48-.44-.36-.7-.23-.96z"/><g fill="#f7db17"><path d="M364.52 121.96a1.37 1.37 0 0 1-.17 0 8.45 8.45 0 0 1-.8.7c-.22-.26-.56.03-.23.2l-.17.1c-.1.3-.2.43-.53.47-.05 0-.1.02-.15.03a2.95 2.95 0 0 1 0-.36 3.48 3.48 0 0 1 .08-.42c0-.02 0-.05-.04-.06-.04 0-.04.02-.05.04a3.88 3.88 0 0 0-.07.44 2.75 2.75 0 0 0-.02.4c-.8.25-1.28 1.1-1.83 1.7-.24.2-.36.5-.45.8-.05.15-.06.88-.23.9-.08 0-.16 0-.25 0-.1-.14-.2-.15-.35-.02-.34 0-.7 0-1 .04-.2.22.36.14.66.32.15.1.2.25.15.48-.28.66-1.82.45-2.34.17-.23-.13-.24-.28-.23-.48.1 0 .22 0 .33-.03.18-.03.36-.1.54-.2.05-.02.1-.05.05-.15-.07-.1-.12-.07-.17-.04a1.25 1.25 0 0 1-.46.16 2.57 2.57 0 0 1-.5.02s-.02 0-.03 0c-.1-.06-.16-.12-.12-.17.04-.04.2 0 .22.02.24-.1.44-.18.7-.23.55-.6 1.1-1.14 1.85-1.44.22-.27.46-.5.76-.68.1-.65.42-1 .9-1.43.04-.27.1-.46.24-.7-.03-.14 0-.24 0-.4-.18-.33-.28-.63-.14-1-.1-.28-.08-.47-.04-.73a.35.35 0 0 0 0-.14 6.22 6.22 0 0 1 .84-.58c-.02.26 0 .53.04.8a1.28 1.28 0 0 0-.2.27.53.53 0 0 0-.07.28c0 .03 0 .05.05.05s.05-.03.05-.05a.43.43 0 0 1 .06-.23c.03-.08.1-.16.17-.24a.1.1 0 0 0 .02-.02c.24 0 .5-.14.73-.34.22-.18.44-.4.66-.65 0 .35-.02.7-.02 1.06-.2.2-.4.42-.54.7 0 .03-.02.05.02.08.05.03.06 0 .07-.02a2.27 2.27 0 0 1 .5-.65c.05 0 .05-.02.05-.05a3.17 3.17 0 0 1 .92-.53c-.05.3-.07.62 0 .9.05.34.2.64.5.9 0 0 .02 0 .02 0zM349.04 112.95c.04-.08.14-.17.18-.16l.02-.02c.1-.2.22-.4.35-.58a3.98 3.98 0 0 1 .48-.6c.02-.02.04-.03.08 0 .03.04 0 .06 0 .08a3.9 3.9 0 0 0-.5.58 5.82 5.82 0 0 0-.33.57c.04.05.05.12.03.17.04.33.08.5.23.7a.2.2 0 0 1 .04-.04c.06-.14.14-.27.24-.38a1.65 1.65 0 0 1 .45-.35c.12-.1.22-.2.3-.32.08-.1.15-.2.2-.3 0-.04 0-.06.06-.04.04.02.03.04.02.07-.05.12-.12.23-.2.35a2.06 2.06 0 0 1-.33.33h-.02c-.17.1-.3.22-.43.34a1.25 1.25 0 0 0-.2.33c.07.05.1.2.03.3-.2.3-.47.5-.07.76a.64.64 0 0 0 .2.5c.1.1.1.44-.14.7-.22.2-.05.15.17.17l.05.02c.08-.16.17-.3.28-.43a4.34 4.34 0 0 1 .32-.37c.16-.16.3-.33.38-.5.1-.17.14-.34.15-.5 0-.03 0-.06.07-.06.05 0 .05.03.04.06a1.4 1.4 0 0 1-.15.55c-.1.18-.22.36-.4.52a3.78 3.78 0 0 0-.3.36 2.6 2.6 0 0 0-.28.4c.27.17.18.46.22.72.05 0 .1.02.13.04l.17-.26.24-.4c.02 0 .03-.04.07 0 .06.02.04.04.03.06l-.25.4-.15.24c.15.14.16.4-.04.57-.4.3-.3.4.08.63.04.35.05.63-.03.92v.03c0 .1.02.2.03.3l.02.3c0 .02 0 .05-.04.05-.06 0-.06-.02-.06-.04l-.02-.3a.64.64 0 0 1 0-.07c-.03.05-.05.1-.07.15-.26.58-.53 1.05-.6 1.7-.63.15-.53.78-.57 1.34-.5.67-1.08 1.22-1.9 1.5-.15.04-.5.13-.55.32 0 .07.25.22.4.13.45-.43.68-.2.17.25-.04.08 0 .17.08.25.46.4 1.6.55 2.13.22.38-.25.58-.52.25-.9.03-.5.23-1.02.78-1.16.06-.12.05-.34.02-.46-.05-.46.02-.86.13-1.3.02-.05.06-.1.15-.12.2-.04.6-.65.73-1.23.04-.12.06-.25.1-.38.02-.2.1-.24.2-.12.1-.13.1-.2.15-.36.22-.3.52-.56.9-.38a3.04 3.04 0 0 1-.2-.84 2.7 2.7 0 0 1 .12-1.03c.02-.05.03-.1.1-.1.12-.24.22-.48.32-.73l.3-.74c.02-.02.03-.05.07-.03.05.02.04.05.03.07l-.3.74-.32.74c.04.03.03.07 0 .12a2.52 2.52 0 0 0-.1.94c.04.35.12.68.25.95 0 .02.03.04.02.07.17.1.17.12.16.35 0 .18.03.35.07.57.34.6 0 1.66-.34 2.18a1.1 1.1 0 0 0-.13.84c.2.2.07.4-.1.54-.03.04 0 .1 0 .15 0 .2-.07.38-.17.55-.28.5-.5 1.03-.72 1.56-.4.12-.47.35-.63.73-.24.07-.26.13-.36.35a2.7 2.7 0 0 1-.87.6c-.28.12 0 .25.2.4.18.12.42-.17.57-.4.16-.24.33-.17.22.02a1.95 1.95 0 0 0-.22.68c-.06.17.6.3.7.3.4.02.9-.37 1.2-.56.26-.26.22-.5.1-.8v-.03a1.97 1.97 0 0 1-.46-.06 3.43 3.43 0 0 1-.56-.2c-.03 0-.05 0-.03-.06.02-.04.04-.03.07-.02.18.07.36.14.54.17.15.04.3.05.47.05l.02-.25a2.7 2.7 0 0 0 .46-.8c.45-.2.45-.43.4-.9.1-.2.1-.3.1-.5a9.93 9.93 0 0 0 .73-1.6c.34-.47.5-.9.47-1.45.03-.2.1-.33.27-.33a3.82 3.82 0 0 0 .3-.5.46.46 0 0 0 .06 0 .08.08 0 0 1 0-.04c.03-.1.06-.22.1-.32a.8.8 0 0 1 .15-.22.92.92 0 0 0 .07-.46 1.1 1.1 0 0 0-.16-.44.5.5 0 0 1-.12-.18c-.02-.08 0-.15.07-.22.02-.02.03-.04.07 0s.02.05 0 .07c-.04.04-.05.08-.04.1a.46.46 0 0 0 .1.16c.1.16.16.33.17.5a1 1 0 0 1-.08.5s0 .02 0 .03a.72.72 0 0 0-.14.2 1.7 1.7 0 0 0-.1.3v.02c.25 0 .46-.07.7-.2.13-.1.25-.24.36-.43.07-.16.15-.35.2-.58 0-.02 0-.05.05-.04.05 0 .04.04.04.06a2.04 2.04 0 0 1-.22.6c-.08.16-.17.28-.27.37.4.12.72 0 1.08-.1-.05-.5-.05-.9 0-1.2.07-.33.18-.56.32-.74.02-.03.03-.05.07-.02.04.04.03.05 0 .08-.12.16-.22.38-.28.7-.06.28-.07.65-.02 1.13 0 0 0 0 .02 0 .15.25.23.44.54.23.12-.07.24-.15.33-.25.03-.04.02-.06.05-.1.3-.3.6-.6.9-.86.3-.26.6-.5.9-.67 0 0 .03-.03.06.02.03.04 0 .06-.02.07a6.45 6.45 0 0 0-.88.66c-.25.22-.5.47-.76.73.02.05.02.13.03.25.03.35.1.56.6.37.27-.1.3-.12.56-.28a1.34 1.34 0 0 1 .3-.15 8 8 0 0 1 .5-.36c.16-.1.32-.2.48-.3.03-.18.07-.36.13-.54.16-.46.42-.88.75-1.28.28-.16.5-.33.68-.53.18-.2.3-.4.4-.64.02-.03.03-.05.08-.03.06.02.05.04.04.07-.1.25-.25.48-.43.68a2.52 2.52 0 0 1-.68.54c-.3.4-.56.8-.7 1.23a2.7 2.7 0 0 0-.13.47s0 .02.02.03c.02.05 0 .06-.02.07 0 0 0 0-.02.02a2.8 2.8 0 0 0 .02.8c.22 0 .45-.13.67-.3.24-.2.48-.47.73-.74 0 0 0-.02 0-.02a1.7 1.7 0 0 1 .24-.5.95.95 0 0 1 .4-.33c.02 0 .05-.02.07.03.03.04 0 .05-.02.07a.86.86 0 0 0-.36.3 1.66 1.66 0 0 0-.22.48c0 .36 0 .73 0 1.1 0 0 0-.02.03-.03.27-.2.58-.36.92-.5.04 0 .08.03.07.07-.05.33-.08.66-.03.97.04.28.17.55.43.78a2.78 2.78 0 0 1 .48-.63c.1-.1.2-.2.3-.28.08-.07.16-.14.23-.2l.23-.22c.02-.02.04-.04.08 0 .03.04 0 .06 0 .08l-.23.2-.22.22c-.1.08-.2.16-.28.25 0 .1 0 .2 0 .3v.15c.23.06.36.06.6.05.06.44.1.5.48.52a3.24 3.24 0 0 1 0-.46c.03-.16.07-.32.13-.48.02-.02.02-.05.07-.03.05 0 .04.03.03.06a1.9 1.9 0 0 0-.1.46 3.1 3.1 0 0 0-.02.45h.03c.16.32.34.47.66.6.1-.13.16-.28.2-.42a1.37 1.37 0 0 0 .06-.47c0-.03 0-.06.05-.06s.05.02.06.05c0 .17 0 .34-.07.5-.05.18-.13.35-.24.52 0 0-.02.02-.04.02 0 .18.05.3.1.45a3.02 3.02 0 0 1 .16-.3c.08-.13.17-.26.28-.37.02-.02.04-.03.07 0 .03.04 0 .06 0 .08-.1.1-.2.22-.27.34a3.98 3.98 0 0 0-.18.37c.04.05.08.1.13.18-.6 1.04-1.25 2.48-2.45 2.96-.62.24-.9.56-1 1.22-.24.18-.4.36-.56.6-.4.15-.76.35-1.2.33 0 .27.1.4.37.4.54-.27.66-.32.7-.3.08.07-.07.46-.5.77-.08.04-.08.07-.04.14.38.6 1.37.4 1.9.25.38-.1 1.06-.55 1.25-.93.07-.18-.1-.4-.26-.6-.77.13-.62-.6.03-.3.22-.06.25-.06.3-.3.6-.23.83-.48.97-1.1.58-.63 1.17-1.28 1.6-2.03.1-.16.17-.4.14-.54a1.07 1.07 0 0 0 .2-.42c.04-.15.06-.3.06-.45 0-.04 0-.06.05-.07.05 0 .05.03.05.05 0 .16-.02.32-.06.48a4.48 4.48 0 0 1-.12.37c.04.1.06.16.14.14.5-.4 1.02-.7 1.57-1.03.04-.24.2-.35.42-.36.1 0 .12-.03.16-.1.13-.33-.03-.55-.18-.82-.14-.4.1-.5.36-.68.27-.2.25-.72.26-1.02l-.03-.15a2.62 2.62 0 0 0-.08-.3c0-.03-.02-.06.03-.08.05 0 .06 0 .07.04.04.1.07.22.1.33 0 .03 0 .07.02.1.25-.12.52-.27.62-.55.08-.3-.1-.6-.24-.88a9.57 9.57 0 0 1-.6.26c-.02 0-.04.02-.06-.03-.02-.05 0-.06.03-.06a10.22 10.22 0 0 0 .68-.3 1.3 1.3 0 0 0 .3-.27c.2-.26-.3-.5-.47-.6 0-.02 0-.02 0-.03l-.72-.68c-.02 0-.04-.03 0-.07.03-.05.05-.03.07 0l.68.6c.04-.38.04-.74-.08-1.13-.04-.12-.08-.24-.12-.36a1.12 1.12 0 0 1-.48-.4 1.04 1.04 0 0 1-.16-.5s0-.04.04-.04c.05 0 .05.02.05.05 0 .17.05.32.13.45.1.14.22.25.42.35.2.1.64.05.9-.07.34-.2-.12-.6-.23-.83-.07-.16-.1-.34-.12-.52.03 0 .06 0 .1 0a1.04 1.04 0 0 0-.15-.16.6.6 0 0 0-.2-.1c0-.02-.04-.03-.02-.08s.05-.04.07-.03a.7.7 0 0 1 .22.14c.07.06.13.13.2.2a.88.88 0 0 0 .1 0c.33-.08.52-.27.73-.52a3.6 3.6 0 0 0-.37-.4 10.1 10.1 0 0 0-.43-.35c-.02 0-.04-.03 0-.07.02-.04.04-.02.06 0 .16.1.3.23.45.36.14.13.27.26.4.4 0 .02 0 .04 0 .06.32.03.37-.04.53-.32a1.53 1.53 0 0 0-.2-.4 2.5 2.5 0 0 0-.3-.4c-.02-.02-.04-.04 0-.07.03-.04.05-.02.07 0 .12.13.23.26.32.4.1.14.16.28.2.44.15 0 .3 0 .44-.07.28-.16.05-.75-.02-.98a2.76 2.76 0 0 0-.1-.08c-.06-.04-.13-.08-.2-.12 0-.02-.04-.03 0-.07.02-.05.04-.03.06-.02l.2.12.14.1c.02-.02.04-.04.06-.06.2-.17.27-.38.34-.6.1-.35.1-.2.5-.25.44-.07.67-.12.92-.62.14-.07.2-.12.23-.3.04-.28.02-.43-.32-.46-.47-.04-.76.06-1.08.37l.13.2c.02 0 .03.04 0 .07s-.07 0-.08 0l-.12-.2c-.43-.03-.78.04-1.18.2l-.12-.06c.08.1.15.22.2.33.07.15.1.3.1.43 0 .03 0 .05-.04.06-.05 0-.05-.03-.05-.05a1.04 1.04 0 0 0-.1-.4 1.84 1.84 0 0 0-.3-.43 2.62 2.62 0 0 0-.96-.18c.04.04.1.1.15.14.07.07.14.14.2.2.02.02.04.04 0 .08-.03.03-.05.02-.07 0a7.74 7.74 0 0 1-.2-.2 6.46 6.46 0 0 1-.2-.2l-.03-.02a2.72 2.72 0 0 0-.85.22c-.2.08-.4.14-.58.17.14.13.27.28.36.46.1.18.18.38.23.6 0 .03.02.05-.03.06-.05 0-.06 0-.06-.04a2.15 2.15 0 0 0-.2-.57 1.9 1.9 0 0 0-.36-.44c-.02-.02-.03-.03-.03-.05a1.78 1.78 0 0 1-.5 0l.2.36c0 .03.02.05-.02.07-.05.02-.06 0-.07-.02l-.2-.4a1.45 1.45 0 0 1-.46-.2c.05.2.1.4.1.6.05.3.08.6.08.9 0 .04 0 .07-.05.07s-.05-.03-.05-.05a7.85 7.85 0 0 0-.07-.9 4.7 4.7 0 0 0-.15-.7 1.66 1.66 0 0 1-.2-.2 2.1 2.1 0 0 0-.58-.45.95.95 0 0 1-.2.73c-.02.02-.04.04-.08 0-.04-.02-.03-.04 0-.06a.85.85 0 0 0 .17-.72 3.13 3.13 0 0 0-1.04-.26 5.3 5.3 0 0 1 .55.88c.15.12.23.27.28.43.04.16.05.33.05.5 0 .02 0 .05-.05.05s-.05-.02-.05-.05a2.1 2.1 0 0 0-.06-.48.7.7 0 0 0-.24-.4 5.64 5.64 0 0 0-.28-.48 4.6 4.6 0 0 0-.33-.45c-.13-.02-.25-.02-.38-.02.02.03.04.06.06.1a.58.58 0 0 1 .1.24c0 .02 0 .04-.06.05-.05 0-.05-.02-.06-.05a.5.5 0 0 0-.07-.2.68.68 0 0 0-.1-.14c-.26 0-.52.03-.77.05.26.34.47.7.63 1.04.18.4.3.8.37 1.23 0 .02 0 .05-.04.06-.06 0-.06-.02-.07-.05a4.8 4.8 0 0 0-.36-1.2 5.12 5.12 0 0 0-.66-1.06h-.03c-.2.02-.4.06-.6.12.1.05.16.1.23.16.1.07.16.15.22.22.02.02.04.04 0 .07-.04.03-.06 0-.08 0a1.57 1.57 0 0 0-.2-.22 2.4 2.4 0 0 0-.3-.2 4.9 4.9 0 0 0-.3.1c-.07.03-.12.05-.18.06.17.13.34.27.5.42.2.2.38.4.54.64.02.02.03.05 0 .07-.05.03-.07 0-.08 0a3.8 3.8 0 0 0-.53-.64 4.67 4.67 0 0 0-.57-.45c-.22.04-.43.06-.65.05.14.26.25.53.34.8.1.3.16.58.18.87 0 .03 0 .06-.05.06s-.05-.02-.05-.05c-.02-.28-.1-.56-.18-.84a6.22 6.22 0 0 0-.36-.83 7.97 7.97 0 0 1-.4-.05c.08.24.15.5.2.75.07.3.12.6.16.9 0 .04 0 .06-.04.07-.05 0-.05-.02-.06-.04a9.25 9.25 0 0 0-.16-.9 9.28 9.28 0 0 0-.22-.82c-.37-.4-.8-.8-1.3-1a1.7 1.7 0 0 1 .38 1.1c0 .04 0 .06-.05.06s-.05-.03-.05-.05a1.63 1.63 0 0 0-.12-.67 1.68 1.68 0 0 0-.35-.53 1.95 1.95 0 0 0-.36-.07 15.62 15.62 0 0 0-1-.06c.25.23.45.44.43.7 0 .02 0 .05-.06.05-.05 0-.05-.03-.05-.06.02-.23-.22-.45-.5-.7-.2 0-.4 0-.6 0 .12.1.2.22.3.33.1.15.16.3.2.45.02.25.08.45.18.62.1.17.25.3.45.4.03 0 .05 0 .03.06-.02.05-.05.04-.07.03-.2-.1-.37-.26-.5-.44a1.5 1.5 0 0 1-.18-.65 1.25 1.25 0 0 0-.2-.4 2.67 2.67 0 0 0-.34-.4c-.22 0-.45 0-.67 0 .1.25.17.52.2.8.07.34.1.68.1 1.03 0 .02 0 .05-.06.05-.05 0-.05-.03-.05-.05a7.14 7.14 0 0 0-.1-1 4.47 4.47 0 0 0-.2-.84h-.06a1 1 0 0 0-.5-.45.6.6 0 0 1-.1.28c0 .02-.03.05-.07.02-.04-.03-.03-.05 0-.07a.5.5 0 0 0 .08-.27c-.03 0-.07-.02-.1-.04-.1-.44-.2-.63-.57-.78 0 .12 0 .25-.03.38-.03.16-.08.33-.18.48 0 .02-.03.05-.07.02-.05-.03-.03-.05-.02-.07.1-.16.14-.3.17-.45.02-.14.03-.28.03-.4l-.07-.03c-.08-.62-.2-.97-.84-1.22 0 .08 0 .17 0 .25 0 .14-.03.28-.1.43 0 .02 0 .05-.05.03-.04 0-.03-.03-.02-.06.05-.13.07-.27.08-.4a1.9 1.9 0 0 0-.02-.36c-.14-.16-.33-.3-.5-.47a2.28 2.28 0 0 1-.1.7 3.06 3.06 0 0 1-.38.83c0 .02-.02.04-.07 0-.05 0-.04-.04-.02-.06a3 3 0 0 0 .37-.8 2.2 2.2 0 0 0 .08-.78 1.04 1.04 0 0 1-.18-.27v.04l-.1.17c0 .02 0 .04-.06.03-.05-.03-.04-.05-.03-.07l.07-.17.06-.14c0-.04 0-.07 0-.1-.03-.2-.14-.35-.28-.48a1.48 1.48 0 0 1-.25.47c-.02 0-.04.03-.08 0-.05-.03-.03-.05-.02-.07.07-.1.13-.18.17-.27.04-.08.06-.15.08-.23a.96.96 0 0 1-.15-.25.8.8 0 0 1-.1.17c-.05.07-.1.13-.2.2 0 .02-.03.03-.07 0-.02-.05 0-.06.02-.08.07-.06.13-.12.18-.18a.65.65 0 0 0 .1-.18c.03-.1.04-.04 0-.18.06-.3-.05-.47-.2-.72a.07.07 0 0 1 0-.02.9.9 0 0 0-.3.1 2.76 2.76 0 0 0-.46.25c-.03.02-.05.03-.08 0-.03-.05 0-.07.02-.08a3.16 3.16 0 0 1 .47-.28.9.9 0 0 1 .4-.1.37.37 0 0 0 0-.22c-.46.17-.84.26-1.14.27a1.64 1.64 0 0 1-.75-.1c-.02-.02-.05-.03-.03-.08.02-.05.05-.04.07-.03.18.08.4.13.7.1.3 0 .66-.1 1.13-.27.1-.2.15-.38.2-.57a1.7 1.7 0 0 1-.5.04h-.03c-.03 0-.05 0-.05-.05 0-.06.02-.06.05-.06h.03c.18 0 .35 0 .53-.05 0-.07.02-.14.03-.2 0-.2.26-.25.43-.07.14.15.27.3.4.38.3.15.6.02.84-.16l-.2-.07c-.03 0-.06-.02-.04-.06.02-.04.04-.04.06-.03.08.03.17.06.26.1a.95.95 0 0 0 .07-.07c.58.05.97-.08 1.34-.46a6.93 6.93 0 0 1-.9-.03c-.27-.02-.5-.08-.68-.16-.04 0-.06-.03-.04-.07.03-.05.05-.04.07-.02.16.08.4.13.66.16.27.04.6.05.97.04.04-.04.07-.08.1-.12.17-.07.33-.14.45-.27-.7-.08-1.34-.2-1.95-.53-.16-.18-.4-.28-.68-.35-.5-.06-.95.06-1.36.28-.1-.1-.18-.2-.3-.3-.14 0-.3-.1-.45-.1-.22-.04-.43 0-.64-.02-.03 0-.06 0-.05-.06.02-.05.04-.05.07-.04.2.02.43-.02.63 0 .2.03.4.12.6.14.67-.25 1.23-.4 1.7-.37a5.68 5.68 0 0 1 1.74-.22.1.1 0 0 1-.02-.02c-.07-.07-.04-.1 0-.14.3-.32.4-.6.28-.88-.1-.27-.4-.53-.78-.77-.43.05-.83-.06-1.28 0a3.95 3.95 0 0 0-.82.17c.22.08.42.2.58.4.2.24.34.56.42.96 0 .05 0 .1-.08.1-.1.03-.1-.02-.12-.07-.07-.36-.2-.65-.37-.86-.2-.27-.62-.38-.75-.43-.45.05-.9.1-1.27.2-.3.07-.55.17-.74.32.28-.06.58-.05.84.08.25.13.46.36.6.74 0 .04.02.1-.07.12-.1.03-.1 0-.12-.06-.1-.33-.3-.52-.5-.62-.4-.2-1.25-.03-1.6.24a4.23 4.23 0 0 0-.63.6c-.04.04-.08.08-.17 0-.1-.08-.05-.12 0-.16.2-.25.42-.46.65-.63.22-.16.44-.27.67-.33.24-.26.6-.42 1-.52.4-.1.85-.16 1.3-.2-.13-.28-.3-.44-.5-.53-.22-.1-.46-.12-.73-.1-.55.2-1.04.5-1.5.83.03 0 .08 0 .12 0 .14 0 .26 0 .38.03.04.02.1.04.06.13-.04.1-.35.03-.45.02a1.35 1.35 0 0 0-.4.04c-.03 0-.05 0-.07 0-.58.36-1 .72-1.47 1.13l-.07.02c-.42-.02-.72.04-.9.17-.15.1-.16.3-.13.56-.08.24-.17.5-.2.78-.5.43-1.05.86-1.3 1.48a1.42 1.42 0 0 1-.28.5.54.54 0 0 1 .25.1c.02 0 .04.03.06.05 0-.1.03-.2.05-.32.04-.14.1-.28.16-.4 0 0 .03-.03.07 0 .06.03.04.05.03.07a1.2 1.2 0 0 0-.15.36c-.04.16-.06.35-.06.5 0 .06-.1.07-.1.02a.3.3 0 0 0-.12-.2.52.52 0 0 0-.27-.1c-.1.13-.23.23-.35.33-.1.08-.2.17-.2.3-.03.22.25.26.52.28.6.05.12.4.45.7.17.1.32.23.43.4.23.07.37.06.53-.02.04-.4 0-.62.18-.62h.02a.77.77 0 0 1 .18-.38c.02-.02.03-.04.07 0 .04.02.03.04 0 .06a.8.8 0 0 0-.1.2.75.75 0 0 0-.05.18c.03.06.02.18.02.4.34-.17.65-.2 1-.23.66-.78.94-.58.37-.02l-.1.17a1.4 1.4 0 0 0-.2.6c-.16.15-.98.83-.68 1.08.22-.03.35-.02.27.14-.1.22-.42.66-.32.9.04.1.17.1.3.06 0 0 .02-.02.03-.03a6.2 6.2 0 0 0 .67-.6 3.8 3.8 0 0 0 .57-.8c.02-.04.04-.08.1-.07a9.07 9.07 0 0 1 .23-.7c.08-.25.18-.5.3-.75 0-.03.06-.04.08 0 .1.12.18.22.26.28a.4.4 0 0 0 .25.08.42.42 0 0 0 .23-.07c.08-.06.17-.15.26-.28 0-.03.03-.05.07-.02.05.03.04.05.02.07a1.18 1.18 0 0 1-.28.3.5.5 0 0 1-.3.1.5.5 0 0 1-.28-.1 1.13 1.13 0 0 1-.24-.25c-.1.22-.18.43-.26.65-.1.24-.16.48-.23.72.06.05.03.1 0 .13-.16.32-.37.6-.6.84-.17.2-.36.38-.55.54.03.17.07.34.15.5.36-.3.7-.6 1-.93.28-.33.54-.66.74-1 0-.03.03-.06.07-.03.05.03.03.05.02.07a5.98 5.98 0 0 1-.35.52c.03.03 0 .05 0 .07-.04.02-.07.14-.08.3 0 .2 0 .48.03.67 0 .03 0 .06-.05.06s-.05-.02-.06-.04c-.02-.2-.03-.5-.02-.7 0-.06 0-.12.02-.16-.08.1-.16.18-.25.27a11.55 11.55 0 0 1-1.02.98c0 .02.02.04.03.06-.3.23-.56.3-.2.62.1-.1.23-.17.35-.26l.38-.27c.02-.02.04-.03.07 0 .03.05 0 .07 0 .08l-.4.3-.36.25a.62.62 0 0 0 .1.36.53.53 0 0 1 .07 0l.8-.57c.02-.02.05-.03.08 0 .03.05 0 .07 0 .08-.27.2-.53.4-.8.57a.7.7 0 0 1-.08.12c-.26.18-1.17.74-1.07 1.13.2-.06.43-.14.64-.24.22-.12.43-.27.63-.48.02-.02.03-.03.07 0 .03.04.02.06 0 .08a2.54 2.54 0 0 1-.65.48v.1c0 .05 0 .1 0 .12 0 .03 0 .05-.06.05-.05 0-.05-.03-.05-.05 0-.04 0-.07 0-.1.02-.03.02-.05.02-.07a3.62 3.62 0 0 1-.57.2c.08.37-.1.7-.3 1-.12.1-1.03.83-.65 1.05a.98.98 0 0 0 .33.08zM349.45 100.13c-.2-.12-.43-.26-.67-.3a1.44 1.44 0 0 0-.5-.56c-.18-.12-.18-.1-.1-.23.2-.03.27-.08.27-.14a.9.9 0 0 1 .27.05.4.4 0 0 1 .2.14c.02 0 .04.03.08 0s.03-.05 0-.08a.54.54 0 0 0-.24-.17 1.02 1.02 0 0 0-.37-.05c-.02 0-.03 0-.04 0a.74.74 0 0 0-.33-.05c-.14-.12-.25-.27-.2-.46 0 0 .02 0 .03 0 .1.03.2.06.3.1.08.04.15.08.2.14 0 .02.03.04.07 0 .03-.04.02-.05 0-.07a.74.74 0 0 0-.23-.16 2.05 2.05 0 0 0-.23-.08c.8-.16 1.48-.14 2.18.27.37.14.54.32.74.6l-.2.16c-.46 0-.8.05-1 .2-.2.15-.24.4-.24.66z"/></g><path d="M365 121.77c-.15.1-.28.16-.44.2a.07.07 0 0 0 .02-.03c.1-.2.22-.36.36-.5 0-.03.03-.05.05-.07v.4zm1.96 4.2a2.3 2.3 0 0 1-.37.42 4 4 0 0 1-.5.36s-.04.03-.06-.02c-.03-.04 0-.05 0-.07.18-.1.33-.23.47-.35.15-.13.28-.26.37-.4.02-.03.03-.05.08-.03.04.02.03.04 0 .06zm1.3-1.55c-.07.1-.13.2-.2.3 0 .02-.03.04-.07 0-.05 0-.04-.04-.03-.06.07-.1.13-.2.2-.3 0-.02.03-.04.07 0 .05.02.03.04.02.06zm-.7-.1a1.1 1.1 0 0 1-.2.42c-.1.13-.23.25-.43.34-.02 0-.04.02-.07-.02-.02-.05 0-.06.03-.07a1 1 0 0 0 .4-.32.97.97 0 0 0 .15-.38c0-.03.02-.05.07-.04.05 0 .04.04.03.06zm1.26-1.55a.93.93 0 0 0-.14.18 1.15 1.15 0 0 0-.1.22c0 .02 0 .05-.06.03-.05-.02-.04-.04-.03-.07a1.14 1.14 0 0 1 .25-.43c.02-.02.03-.04.07 0 .04.03.02.05 0 .07zm1.04.1c-.04.15-.1.3-.14.45-.06.15-.12.3-.2.45-.02.02-.03.04-.08.02-.04-.04-.03-.06-.02-.1.1-.13.15-.28.2-.42.05-.14.1-.3.14-.44 0-.02.02-.05.07-.03.05.02.04.05.03.07zm-.47-6.07c.3.47.38.96.4 1.45a7.3 7.3 0 0 1 .12-.53s0-.02 0-.02c.14-.2.23-.38.27-.57.03-.18.03-.37 0-.56 0-.03 0-.05.04-.06.05 0 .06.03.06.05.04.2.04.4 0 .6a1.68 1.68 0 0 1-.28.6c-.1.33-.15.66-.2 1l-.02.06c0 .06-.1.05-.1 0 0-.04 0-.07 0-.1 0-.63 0-1.25-.4-1.84 0-.02-.02-.04.02-.07.04-.04.06-.02.07 0zm-.8 1v.13c0 .04-.02.08-.02.12 0 .03 0 .06-.06.05-.05 0-.05-.03-.05-.06 0-.04 0-.08 0-.12.02-.04.02-.08.03-.12 0-.02 0-.05.05-.04.05 0 .05.03.05.05zm-.22 1.4c.08.26.14.52.2.8.02.2.04.38.05.57a.98.98 0 0 1 .07-.1c.08-.1.2-.2.33-.28.02-.02.05-.03.07 0 .03.06 0 .07-.02.08a1.05 1.05 0 0 0-.3.26.7.7 0 0 0-.15.32c0 .05-.1.04-.1 0a5.05 5.05 0 0 0-.07-.84 5.9 5.9 0 0 0-.18-.8c0-.02 0-.05.04-.06.05 0 .05 0 .06.03zm1.1.5a3.56 3.56 0 0 1 .06 1.18c0 .02 0 .05-.06.04-.05 0-.04-.03-.04-.06.02-.17.03-.36.02-.55a3.6 3.6 0 0 0-.08-.6c0-.02-.02-.04.04-.05.05-.02.05 0 .06.04zm.94-.2c.04.2.06.4.05.58a1.47 1.47 0 0 1-.12.53 1.2 1.2 0 0 0-.04.6c.04.2.12.4.2.6.02.02.03.04-.02.06-.04.02-.06 0-.07-.03a2.54 2.54 0 0 1-.2-.62 1.3 1.3 0 0 1 .05-.63 1.36 1.36 0 0 0 .1-.5 2.25 2.25 0 0 0-.03-.54c0-.02 0-.05.04-.06.05 0 .05.02.06.04zm.46-1.55c-.03.1-.05.2-.08.3-.02.1-.04.2-.07.3 0 .02 0 .04-.06.03-.05 0-.05-.04-.04-.07l.08-.28c.03-.1.05-.2.08-.3 0-.02 0-.05.06-.04.05.02.05.04.04.07zm-.47-2.6c.04.1.06.18.1.27 0 .03 0 .05-.04.06-.05.02-.06 0-.07-.03-.03-.1-.06-.18-.1-.27 0-.02 0-.05.04-.06.05-.02.06 0 .07.03zm.25-1.97c0 .12 0 .24 0 .77a.77.77 0 0 0-.24.38 1.38 1.38 0 0 0 0 .6s0 .04-.04.05c-.05 0-.06-.02-.06-.04a1.42 1.42 0 0 1 0-.63.86.86 0 0 1 .27-.42l-.02-.33c0-.13 0-.25 0-.37 0-.03 0-.05.05-.05s.05.02.05.05zm-1.96-.7c.3.2.55.43.73.7.2.25.3.55.28.9a.05.05 0 0 1-.07.05c-.17-.07-.34-.14-.5-.22.1.75.08 1.34-.08 1.8-.17.46-.5.8-.94.97a.05.05 0 0 1-.06-.06c.1-.27.14-.55.16-.83.02-.28 0-.56-.04-.84 0-.02 0-.05.05-.06.06 0 .06.02.07.05.04.28.06.57.03.86-.02.25-.06.5-.13.75a1.5 1.5 0 0 0 .78-.88c.16-.45.18-1.05.05-1.8 0-.05.04-.08.07-.07l.53.23c0-.3-.1-.55-.25-.77-.18-.25-.43-.46-.72-.65-.02-.02-.04-.03 0-.08.02-.04.04-.02.06 0zm5.12-1l-.04.1c-.02.03-.03.07-.04.1 0 .03-.02.05-.07.03-.05 0-.04-.03-.03-.05.02-.04.03-.07.05-.1 0-.04 0-.08.03-.1 0-.03.02-.05.06-.04.04.03.03.06.02.08zm-1.2-.03c.1.04.17.1.24.16a.83.83 0 0 1 .16.24c0 .02.02.04-.02.07-.05.03-.06 0-.07-.02a.78.78 0 0 0-.14-.2.6.6 0 0 0-.22-.13c-.03 0-.05-.02-.03-.07.02-.04.04-.03.07-.03zm-1.8.52c.13.14.22.3.26.5.05.2.06.4.03.62 0 .02 0 .04-.05.04s-.05-.03-.04-.06c.03-.2.03-.4-.02-.58a1.03 1.03 0 0 0-.23-.46c-.02-.02-.04-.04 0-.07.04-.04.06-.02.07 0zm-6.05.58l-.02.2-.02.2c0 .03 0 .06-.06.05-.05 0-.05-.03-.04-.05l.02-.2.02-.2c0-.04 0-.06.05-.06.06 0 .05.02.05.05zm1.12-.6c.02.1.05.2.08.3l.02.1s.02.04-.03.05c-.05.02-.06 0-.07-.03l-.02-.1-.1-.28c0-.04 0-.06.04-.08.05 0 .06 0 .07.04zm2.3 1.55c0 .05 0 .1 0 .13a1.1 1.1 0 0 1 0 .13c0 .02 0 .05-.04.04-.05 0-.05-.03-.05-.05a.84.84 0 0 0 0-.1.55.55 0 0 0 0-.12c-.02-.03-.02-.05.03-.07.05 0 .05.02.06.04zm.8-1.75c.04.05.07.1.08.16a.23.23 0 0 1-.02.18c0 .02-.03.04-.07.02-.06-.03-.04-.05-.03-.07a.14.14 0 0 0 0-.1.25.25 0 0 0-.06-.1c0-.03-.02-.05 0-.08.05-.04.07-.02.1 0zm-5.5.28a.93.93 0 0 0 .24.66c.12.13.2.26.22.4.03.14.04.27.04.4 0 .03 0 .05-.05.06-.05 0-.05-.03-.05-.05 0-.12 0-.25-.04-.37a.86.86 0 0 0-.2-.37 1.05 1.05 0 0 1-.2-.35 1.13 1.13 0 0 1-.07-.38c0-.02 0-.05.04-.05s.05.03.05.05zm2.22 1.5c.12.23.2.45.2.68.04.23.03.46 0 .7-.06.28 0 .55.15.8.14.24.36.47.65.67a2.86 2.86 0 0 1-.13-.9c0-.34.1-.67.35-.98.1-.14.17-.28.22-.42.05-.14.07-.28.1-.42 0-.02 0-.05.05-.04.05 0 .05.03.04.06-.02.14-.04.3-.1.44a1.52 1.52 0 0 1-.23.44 1.6 1.6 0 0 0-.33.92c-.02.32.05.66.16 1 .02.05-.04.1-.08.06-.35-.24-.63-.5-.8-.8a1.26 1.26 0 0 1-.17-.86c.05-.23.06-.45.03-.66a1.8 1.8 0 0 0-.2-.64c-.02-.03-.03-.05.02-.07.04-.02.06 0 .07.03zm-.9 1.36c0 .24-.07.5-.2.73a3.4 3.4 0 0 1-.37.58c.08-.02.16-.05.24-.1a2.2 2.2 0 0 0 .7-.5c.1-.1.18-.2.28-.34.02-.02.03-.04.08 0 .04.02.02.04 0 .06a3.6 3.6 0 0 1-.3.37 2.48 2.48 0 0 1-.27.23 24.48 24.48 0 0 1 .06.34c0 .03 0 .05-.04.06-.05 0-.05 0-.06-.04l-.04-.2a1.54 1.54 0 0 0-.02-.1 2.2 2.2 0 0 1-.37.2c-.14.07-.28.12-.42.18-.04 0-.08-.05-.05-.1.2-.22.37-.46.48-.7.12-.23.2-.46.2-.7 0 0 0-.04.04-.04s.05.03.05.05zm-1.1-.1v.24c0 .03 0 .05-.04.05s-.05-.03-.05-.06V115c0-.02 0-.04.05-.04s.05.02.05.05zM363.05 113.67c.14.35.18.68.13.98a1.85 1.85 0 0 1-.42.85 1.9 1.9 0 0 0-.48.64c-.07.16-.13.33-.18.52.06-.08.1-.16.18-.22.14-.14.3-.25.5-.3.23-.13.44-.26.63-.4.2-.16.38-.33.55-.52.02-.02.04-.03.07 0s.02.05 0 .07c-.16.18-.35.36-.55.5-.2.16-.4.3-.63.42a1.03 1.03 0 0 0-.48.3 2.3 2.3 0 0 0-.33.43c-.02.04-.1 0-.1-.04.06-.28.14-.56.26-.8.1-.26.27-.48.5-.67.2-.25.33-.52.38-.8.04-.3 0-.6-.13-.92 0 0-.02-.04.03-.06.05-.02.06 0 .07.03zm2.2 3.55c-.02.1.05.18.2.36l.08.13c.2.26.26.54.26.83 0 .3-.06.6-.1.9-.02.03-.1.03-.1-.02a1.8 1.8 0 0 0-.4-.85 3.43 3.43 0 0 0-.8-.7s-.03-.02 0-.06c.02-.06.05-.04.07-.03.32.22.6.45.8.72.17.2.3.4.36.65a3.4 3.4 0 0 0 .06-.6 1.28 1.28 0 0 0-.25-.78c-.03-.05-.06-.1-.1-.12-.15-.2-.23-.3-.18-.46 0-.03 0-.06.06-.04.05 0 .04.04.04.06zm.96-.06c.04.04.1.08.12.12.04.04.08.08.12.12.02.02.03.04 0 .08-.04.03-.06 0-.08 0-.04-.05-.08-.1-.1-.13-.05-.04-.1-.08-.13-.12-.02-.02-.03-.04 0-.08.04-.03.06 0 .08 0zm1.16.37c-.07.23-.14.46-.2.7-.1.23-.16.46-.23.7 0 0-.02.04-.07.02-.05 0-.04-.04-.03-.06.07-.25.15-.48.22-.7.07-.24.14-.47.2-.7.02-.03.03-.05.08-.04.05.02.04.04.03.07zm.66 3.88a.24.24 0 0 0 0 .18c0 .03.02.05-.03.07-.06.02-.07 0-.08-.03a.35.35 0 0 1 0-.25c0-.03.02-.05.07-.03.04.02.03.04.02.07zm-.7-1.13c-.02.12-.05.24-.1.36-.02.13-.05.25-.08.37 0 .03 0 .05-.06.04-.05 0-.05-.04-.04-.06.03-.13.06-.25.1-.37.02-.1.06-.24.1-.36 0-.02 0-.05.05-.03.04.02.04.04.03.07zm-.98 0l.1.1s.02.02 0 .06c-.05.03-.07.02-.08 0l-.1-.1s-.03-.03 0-.07c.04-.03.06-.02.08 0zm-1.17-.56a7.32 7.32 0 0 1-.07.2c-.02.08-.05.15-.07.22 0 .03-.02.05-.07.03-.04 0-.04-.04-.03-.06a5.08 5.08 0 0 1 .08-.22 5.08 5.08 0 0 1 .08-.2c0-.03 0-.06.06-.04s.04.04.04.07zm-1.66 1.77a.7.7 0 0 0-.13.22 1.3 1.3 0 0 0-.06.24c0 .03 0 .06-.05.05-.05-.02-.05-.05-.04-.07.02-.1.04-.18.08-.27a.77.77 0 0 1 .15-.26c.02-.02.04-.04.08 0 .04.03.03.05 0 .07zm-4.76 4.67a.66.66 0 0 1-.1.16 1.1 1.1 0 0 1-.16.15c-.02.02-.04.04-.07 0-.03-.05 0-.06 0-.08a.82.82 0 0 0 .24-.27c.02-.02.02-.05.07-.03.06.02.05.05.04.07zm.75-.4a.35.35 0 0 1-.1.14.6.6 0 0 1-.18.1c-.02 0-.05 0-.06-.04-.02-.05 0-.06.03-.06a.43.43 0 0 0 .12-.08.28.28 0 0 0 .07-.1c0-.02 0-.04.06-.02.05.02.04.04.03.07zm.98-.6a.48.48 0 0 1-.06.1.52.52 0 0 1-.1.07c-.03.03-.06.04-.08 0-.03-.05 0-.06.02-.07a.38.38 0 0 0 .13-.14c0-.03.02-.05.06-.02.05.02.03.04.02.07zm1.5-3.88c-.06.14-.1.28-.1.42a1.4 1.4 0 0 0 .02.4c0 .03 0 .06-.04.07-.05 0-.06 0-.06-.04a1.4 1.4 0 0 1-.03-.43c.02-.15.05-.3.1-.44 0-.03.02-.05.07-.04.05 0 .04.04.03.06zm1-10.3a.87.87 0 0 1-.1.33 1.4 1.4 0 0 1-.22.33c-.02.02-.04.04-.08 0-.03-.04-.02-.06 0-.07.1-.1.17-.2.22-.3a.77.77 0 0 0 .08-.32c0-.02 0-.05.05-.05.06 0 .05.02.05.05zm-1.03-.93c.1.16.14.32.17.48.03.16.04.32.03.48 0 .02 0 .05-.05.05s-.05-.03-.05-.06a1.76 1.76 0 0 0-.03-.44 1.46 1.46 0 0 0-.16-.45c0-.02-.03-.04.02-.07.04 0 .06 0 .07.03zm-1.38 1.7a1.5 1.5 0 0 1-.4-.4.65.65 0 0 1-.1-.45c0-.03 0-.05.06-.04.06 0 .05.03.05.06-.02.12 0 .24.08.36.07.13.2.26.37.4.03 0 .05.02.02.06-.03.05-.06.03-.08.02zm1.52 2.58v.24c0 .03 0 .05-.06.05s-.05-.03-.05-.06v-.23s0-.04.04-.04.05.03.05.05zm-1.95-1.94c.3.3.5.64.6 1.02.05.24.07.5.08.76.15-.05.26-.17.33-.37.08-.2.12-.5.13-.86a.1.1 0 0 1 0-.02 1.9 1.9 0 0 0 .2-.53 3.5 3.5 0 0 0 .1-.55c0-.04.06-.06.1-.02.17.25.33.5.45.8.12.27.2.56.23.9 0 0 0 .04-.05.04s-.05-.02-.06-.04a2.9 2.9 0 0 0-.22-.87 3.87 3.87 0 0 0-.36-.64 2.9 2.9 0 0 1-.08.4 1.94 1.94 0 0 1-.23.57c-.02.37-.06.67-.14.88-.1.24-.2.38-.38.44-.02 0-.03 0-.05 0 0 .13 0 .26-.02.4 0 .02 0 .05-.04.04-.05 0-.05-.03-.05-.05.05-.44.04-.85-.06-1.2a1.98 1.98 0 0 0-.55-1c-.03 0-.05-.03-.02-.06.04-.04.06-.02.08 0zm1.14 4.87c-.03.13-.05.27-.07.4-.02.14-.05.28-.07.4 0 .04 0 .06-.06.05-.05 0-.04-.03-.04-.06l.07-.4c.02-.14.04-.27.06-.4 0-.04 0-.06.05-.05.05 0 .05.03.04.06zm-2.2.92l.06.3c0 .04 0 .06-.04.07-.05 0-.06 0-.06-.04l-.06-.3c0-.04 0-.06.04-.07.05 0 .06.03.06.05zm1.9-2.5a2.27 2.27 0 0 1-.17.6c-.08.18-.2.37-.34.55a1.13 1.13 0 0 0-.32.64 1.8 1.8 0 0 0 .07.68c0 .03 0 .05-.04.07-.04 0-.05-.02-.06-.05a1.9 1.9 0 0 1-.06-.72c.03-.24.13-.48.33-.7a2.1 2.1 0 0 0 .34-.52 2.1 2.1 0 0 0 .15-.56c0-.03 0-.06.05-.05.05 0 .04.02.04.05zm-.5-.74c.04.2 0 .4-.08.6a2.22 2.22 0 0 1-.38.58 1.83 1.83 0 0 0-.4.5c-.1.16-.18.34-.26.52 0 .02-.02.04-.07.03-.03-.02-.02-.05 0-.07.06-.18.14-.37.24-.54.1-.18.24-.35.42-.5.16-.2.3-.37.37-.56a.92.92 0 0 0 .07-.53c0-.02 0-.05.04-.06.05 0 .06.02.06.04zm-2.4 1.15c.05.4 0 .74-.16 1.04-.15.3-.38.55-.67.78-.02 0-.04.03-.08 0-.04-.05-.02-.07 0-.1.28-.2.5-.45.64-.74.14-.28.2-.6.15-.97 0-.03-.02-.06.03-.06.06 0 .06.03.06.05zm-3.1 1.7c.04.07.07.13.1.2.03.06.07.12.1.2 0 0 .02.04-.03.06-.05.03-.06 0-.07 0-.03-.08-.06-.14-.1-.2-.02-.07-.05-.13-.08-.2 0-.02-.02-.04.02-.06.05-.02.06 0 .07.02zm-1.2.03a2.7 2.7 0 0 0 .07.7c.06.2.15.43.3.64.1.16.13.32.17.48.02.12.03.24.04.36.15-.16.26-.32.34-.5a1.44 1.44 0 0 0 .15-.6c0-.02 0-.04.05-.04.06 0 .06.02.05.05a1.55 1.55 0 0 1-.15.65c-.1.2-.25.4-.45.6-.03.03-.1 0-.1-.04a3.25 3.25 0 0 0-.03-.46 1.76 1.76 0 0 0-.15-.44 1.94 1.94 0 0 1-.33-.68 2.7 2.7 0 0 1-.08-.72c0-.03 0-.05.04-.05s.05.02.05.05zm.16 4.17a2.63 2.63 0 0 1 .18-.77c0-.02.02-.04.06-.02.05.02.04.04.03.06a2.52 2.52 0 0 0-.17.74c0 .02 0 .05-.05.04-.05 0-.04-.03-.04-.05zm-.14 1.16c.02-.14.04-.3.06-.45 0-.03 0-.05.06-.04.05 0 .05.04.04.07-.02.15-.04.3-.06.46 0 .02 0 .05-.06.04-.05 0-.05-.03-.04-.06zm-.8 1.96c.07-.08.15-.17.22-.27s.13-.22.2-.34c0-.02.02-.04.07-.02.05.03.04.05.03.07a4.04 4.04 0 0 1-.2.35c-.08.1-.16.2-.24.28-.03.02-.05.04-.1 0-.02-.03 0-.05 0-.07zm-1.16-6.53v.2c0 .02 0 .04-.05.04-.04 0-.04-.02-.04-.05v-.2c0-.02 0-.04.05-.04.06 0 .06.02.06.05zm-1.95 4.5a2.86 2.86 0 0 0 0-.14v-.16c0-.03 0-.05.04-.05.05-.02.06 0 .06.04v.14c0 .05 0 .1.02.14 0 .03 0 .05-.05.05-.06 0-.06-.02-.06-.05zm4.9-8c-.1.34-.16.7-.16 1 0 .3.1.55.3.68.25.17.36.42.47.65 0 .02.02.03.03.04.03-.12.05-.25.06-.37 0-.15 0-.3 0-.43-.02-.02-.02-.05.03-.06.05 0 .06.02.06.04 0 .14 0 .3 0 .46-.02.18-.06.36-.1.52-.03.04-.1.04-.1 0a5.95 5.95 0 0 1-.1-.17c-.08-.23-.2-.45-.4-.6-.26-.16-.36-.43-.36-.76 0-.32.07-.7.17-1.04.02-.03.03-.05.08-.04.05.02.04.04.03.07zm-.33-1.3a2.52 2.52 0 0 1-.02.75 4 4 0 0 1-.23.76 2.4 2.4 0 0 0-.17 1c.02.34.1.67.26 1 .02.02.04.04 0 .06-.06.03-.07 0-.08-.02a2.54 2.54 0 0 1-.1-2.08 3.8 3.8 0 0 0 .23-.74c.04-.24.05-.48.02-.73 0-.03 0-.06.04-.06.06 0 .07.02.07.04zm-2.28 3.23a.8.8 0 0 0-.07.47c.03.15.1.32.2.48 0 .03.02.05-.02.08-.03.02-.05 0-.06-.02a1.5 1.5 0 0 1-.2-.52.88.88 0 0 1 .06-.53s.02-.03.07 0c.05 0 .03.03.03.06zm-1-.36c.02.1.02.2 0 .3a.86.86 0 0 1-.06.28.4.4 0 0 0-.04.27c.02.1.07.18.13.28.02.02.03.04 0 .07-.05.03-.07 0-.1 0a.85.85 0 0 1-.13-.33.48.48 0 0 1 .05-.33.76.76 0 0 0 .06-.24c.02-.1 0-.2 0-.28 0-.02 0-.05.04-.06.05 0 .06.02.06.05zm5.8-8.6a2.32 2.32 0 0 0 .32 1.47c0 .02.02.04-.02.07-.05.02-.06 0-.07-.02a2.6 2.6 0 0 1-.3-.72 2.33 2.33 0 0 1-.03-.8c0-.03 0-.06.06-.05.05 0 .05.03.05.05zm-.72.7c.13.24.25.5.34.78.08.3.14.6.17.94 0 .03 0 .05-.06.06-.06 0-.06-.03-.06-.05a3.77 3.77 0 0 0-.5-1.67c0-.03-.02-.05.03-.07.05-.04.07-.02.08 0zm-3.6.12c-.36.5-.5.9-.54 1.24-.03.35.07.64.2.9.1.3.14.56.14.84a2.58 2.58 0 0 1-.16.82c0 .02-.02.05-.07.03-.05-.02-.04-.05-.03-.07.1-.26.15-.52.16-.8a2.25 2.25 0 0 0-.13-.77 1.7 1.7 0 0 1-.2-.94c.02-.37.18-.8.54-1.3 0-.02.02-.04.06-.02.04.03.03.06 0 .08zm3.35-1.43c.03.14.02.3-.05.45-.06.14-.17.27-.33.4a.8.8 0 0 0-.3.48c-.04.2-.03.44.02.7 0 .03 0 .05-.04.06-.05 0-.06-.02-.06-.05-.05-.28-.06-.53 0-.74a.9.9 0 0 1 .32-.54 1 1 0 0 0 .3-.35c.05-.12.06-.26.03-.4 0 0 0-.04.04-.05.05 0 .06.02.07.04zm-3.56.3c.07.22.07.43 0 .65-.05.2-.18.42-.38.63a1.2 1.2 0 0 0-.38.58 2.87 2.87 0 0 0-.12.73c0 .02 0 .05-.05.04-.05 0-.05-.03-.05-.05a3.04 3.04 0 0 1 .12-.77c.07-.24.2-.45.4-.62.18-.2.3-.4.36-.58a1 1 0 0 0 0-.6c0-.02-.02-.04.03-.06.06 0 .06 0 .07.04zm2.04.1a.76.76 0 0 0 0 .23c.02.08.05.15.1.22 0 .02.03.04-.02.07-.04.03-.05 0-.07 0a.63.63 0 0 1-.1-.27.82.82 0 0 1 0-.26c0-.04 0-.06.07-.05.05 0 .04.03.04.06zm-.1-.53a.85.85 0 0 0-.42.4c-.1.18-.16.43-.18.72.02 0 .02.02.02.03.1.13.17.3.2.47.06.2.08.42.07.66 0 .03 0 .06-.06.05-.06 0-.05 0-.05-.04a2.42 2.42 0 0 0-.07-.63c-.04-.16-.1-.3-.18-.42-.38.37-.57.77-.6 1.2 0 .45.18.95.52 1.47 0 .02.03.05-.02.07-.04.03-.05 0-.07 0-.35-.56-.53-1.07-.52-1.54.02-.47.22-.9.64-1.28.02-.33.08-.6.2-.8a.95.95 0 0 1 .47-.45c.03 0 .05-.02.07.03.02.05 0 .06-.03.07zm-.56-.75c0 .04 0 .07-.02.1-.02.25-.05.53-.24.7a.83.83 0 0 0-.2.32 1.6 1.6 0 0 0-.1.4s0 .04-.06.03c-.05 0-.05-.03-.04-.06a1.7 1.7 0 0 1 .1-.4.92.92 0 0 1 .24-.36c.15-.14.18-.4.2-.62a2.7 2.7 0 0 0 .02-.12c0-.02 0-.05.06-.04.05 0 .04.03.04.06zm5.66 6.04c.06.13.1.26.14.4.04.13.05.27.05.4 0 .04-.02.07-.07.06-.05 0-.05-.03-.05-.05a1.43 1.43 0 0 0-.04-.4c-.03-.12-.08-.24-.14-.37 0-.02-.02-.04.03-.07.05-.02.06 0 .07.03zm0 1.86c.06.2.06.43.02.65-.03.2-.12.44-.23.66l-.25.56c0 .02-.02.04-.07.02s-.04-.04-.03-.07c.08-.18.16-.37.24-.56v-.02a2.15 2.15 0 0 0 .22-.63 1.6 1.6 0 0 0 0-.6c0-.04-.02-.07.03-.08.05 0 .06.02.06.04zm-1.17-1.73c.34.36.56.76.67 1.18.1.42.1.86-.04 1.32 0 .03 0 .05-.06.04-.05-.02-.04-.04-.04-.07.13-.44.14-.86.04-1.26s-.32-.78-.64-1.15c-.02-.02-.04-.03 0-.07s.06 0 .07 0zm-.1 2.07a5.33 5.33 0 0 1-.87 1.32 2.52 2.52 0 0 0-.54.93c0 .05-.1.03-.1-.02a1.45 1.45 0 0 0-.05-.46 1.87 1.87 0 0 0-.2-.47c-.2-.27-.28-.56-.26-.84.02-.28.14-.55.33-.83.12-.2.2-.4.26-.58a2.4 2.4 0 0 0 .08-.6c0-.02 0-.04.05-.04s.05.03.05.05a2.6 2.6 0 0 1-.36 1.23c-.2.26-.3.52-.3.78-.02.26.06.52.23.78.1.17.18.34.22.5.02.08.04.16.05.24a2.65 2.65 0 0 1 .47-.73 4.92 4.92 0 0 0 .5-.65c.13-.22.24-.43.34-.65.02-.02.03-.05.07-.02.06.03.05.05.04.07zm-3.1-1c0 .27.02.5.08.73.06.23.14.44.26.63.02.03.03.05 0 .08-.06.03-.07 0-.08 0a2.25 2.25 0 0 1-.27-.67 3 3 0 0 1-.07-.75c0-.03 0-.06.06-.05.04 0 .04.02.04.05zm-1.75.95v.3c0 .03 0 .06-.06.06s-.05-.03-.05-.06v-.3c0-.03 0-.05.05-.05.06 0 .06.02.06.05zm.58-1.6c0 .17-.02.34-.07.5a1.44 1.44 0 0 1-.3.48c0 .02-.02.04-.06 0-.04-.03-.02-.04 0-.07.1-.14.2-.28.24-.44a1.37 1.37 0 0 0 .07-.5s0-.04.05-.04c.06 0 .06.03.06.05zm-1.6 3.1c-.27-.7-.34-1.26-.27-1.7.06-.48.28-.83.56-1.1.18-.2.35-.4.45-.63.12-.25.17-.53.13-.92 0-.02 0-.05.05-.05s.05.02.06.04c.03.4-.02.7-.13.96-.1.25-.27.45-.47.65a1.87 1.87 0 0 0-.53 1.04c-.07.44 0 1 .27 1.68 0 .02.02.05-.02.07-.05.02-.06 0-.07-.03zm-.9-1.15a.72.72 0 0 0-.05.34c.03.13.07.24.14.36 0 .02.03.04-.02.07-.04.03-.05 0-.07-.02a.94.94 0 0 1-.14-.38.83.83 0 0 1 .06-.4s.02-.03.07-.02c.05.02.04.05.03.07zm4.5-3.2c.18.27.3.54.3.83.03.28-.03.57-.2.88 0 .02 0 .04-.06.02-.05-.02-.03-.05-.02-.07.15-.28.2-.56.2-.83a1.5 1.5 0 0 0-.3-.76c-.02-.02-.04-.05 0-.08.05-.03.06 0 .08.02zm1.4-1.1a2.4 2.4 0 0 1 .07 1.68c0 .04-.1.04-.1-.02a1.78 1.78 0 0 0-.16-.7 1.52 1.52 0 0 0-.43-.53c-.02-.02-.04-.04 0-.08.03-.04.05-.02.07 0 .2.16.36.35.46.57.07.12.12.27.14.43.03-.18.05-.35.04-.52a2.25 2.25 0 0 0-.17-.78c0-.03-.02-.05.03-.07.04-.02.06 0 .07.03zm.84-1.13c.18.18.3.42.4.72.07.3.1.64.08 1.03a2.02 2.02 0 0 0 0 .48.95.95 0 0 0 .13.4c.03.03.04.06 0 .08-.04.03-.06 0-.07 0a1.06 1.06 0 0 1-.16-.47 2.28 2.28 0 0 1 0-.52 3.52 3.52 0 0 0-.08-1 1.48 1.48 0 0 0-.37-.67c-.02 0-.04-.03 0-.07.03-.03.05-.02.07 0zm-2.22-.22c-.12.14-.2.32-.23.5-.03.2-.03.4 0 .65 0 .02.02.05-.04.06-.04 0-.04-.02-.05-.05a2.02 2.02 0 0 1 0-.67c.04-.2.12-.4.25-.55.02-.02.04-.04.08 0 .03.03.02.04 0 .07zm-4.34 2.92a1.98 1.98 0 0 1-.34 1.07 2.48 2.48 0 0 1-.8.7c-.03.03-.05.04-.07 0-.03-.05 0-.06 0-.08.32-.18.6-.4.78-.67.2-.27.32-.6.34-1.02 0-.02 0-.05.06-.05.05 0 .05.03.05.06zm-.1-1.5c.02.16 0 .32-.03.48a2.17 2.17 0 0 1-.16.47c-.02 0-.03.03-.07 0-.05-.02-.04-.04-.03-.06.08-.15.14-.3.17-.44.04-.15.05-.3.03-.44 0-.03 0-.05.05-.06.05 0 .05.02.06.05zm2.93-.2v.14l.05.76v.07c0 .03 0 .06-.04.06h-.02s-.02.02-.04.02c-.05 0-.05-.03-.05-.06v-.84l-.02-.2c0-.03 0-.06.05-.06s.05.02.06.05c0 .02 0 .04 0 .06zm.7-1.32c-.2.25-.28.5-.3.74 0 .24.08.47.2.7.24.4.32.8.3 1.2-.03.4-.16.78-.34 1.17 0 .03-.02.05-.07.03-.04-.02-.03-.05-.02-.07.17-.4.3-.77.32-1.15a1.85 1.85 0 0 0-.3-1.13c-.1-.25-.2-.5-.18-.77 0-.26.1-.52.32-.8 0-.02.03-.04.07 0 .04.03.02.05 0 .07zm-4.55-8.13c.34-.27.68-.42 1.03-.46.36-.03.72.04 1.1.23.14 0 .27 0 .4 0 .14 0 .27 0 .4 0 .03 0 .06 0 .06.04s-.02.06-.05.06c-.13 0-.26 0-.4 0-.12 0-.24 0-.36 0v.02c-.44.37-.8.57-1.12.64a1.06 1.06 0 0 1-.87-.2s-.04-.03 0-.08c.03-.05.06-.04.1-.02a.96.96 0 0 0 .76.17c.28-.07.6-.24.97-.55-.34-.15-.66-.2-.96-.18-.32.03-.64.17-.97.42-.02 0-.05.03-.1-.02-.02-.05 0-.07.03-.1zM351.64 101a.26.26 0 0 1 .26.25.26.26 0 0 1-.26.26.26.26 0 0 1-.26-.25.26.26 0 0 1 .26-.26zm1.8 1.57c.18-.1.33-.2.45-.3.1-.12.2-.23.28-.33.02-.02.03-.05.07-.02.05.03.03.06.02.08a2.27 2.27 0 0 1-.3.34c-.14.1-.3.22-.5.32 0 0-.03.03-.06-.02 0-.04 0-.06.04-.07zm3.7-1.53a.52.52 0 0 1 .28 0 .77.77 0 0 1 .28.15c.02 0 .04.03 0 .07-.02.04-.04.02-.06 0a.67.67 0 0 0-.24-.13.46.46 0 0 0-.24 0c-.03 0-.05 0-.06-.04-.02-.05 0-.05.03-.06zm-2.12.08a.85.85 0 0 1 .38-.42c.17-.1.38-.13.65-.1.02 0 .05 0 .05.05s-.03.05-.06.05c-.25-.03-.44 0-.6.1a.73.73 0 0 0-.33.36c0 .03 0 .05-.06.03-.05-.03-.04-.06-.02-.08zm.24.35a.42.42 0 0 1 .1-.24.56.56 0 0 1 .28-.15c.03 0 .05 0 .07.04.02.05 0 .05-.03.06a.45.45 0 0 0-.22.12.35.35 0 0 0-.08.2s0 .04-.06.03c-.04 0-.04-.04-.04-.06zm-3.52 1.17c-.06.1-.1.18-.15.28a.82.82 0 0 0-.06.33c0 .03 0 .06-.04.06-.06 0-.06 0-.06-.04a.94.94 0 0 1 .05-.37c.03-.12.1-.22.15-.32 0-.02.03-.04.07 0 .04.02.03.04 0 .06zm1 .45v.15c0 .02 0 .05-.04.05s-.06-.03-.06-.05v-.16c0-.03 0-.06.05-.06s.05.03.05.05zm-.65-1.14a.96.96 0 0 0 .3.06c.1 0 .2 0 .32-.04.02 0 .05 0 .06.04 0 .05-.02.06-.04.07a1.4 1.4 0 0 1-.34.03 1 1 0 0 1-.35-.07c-.02 0-.05-.02-.03-.07.02-.05.05-.04.07-.03zm.64-1.9a.32.32 0 0 0-.2.07.38.38 0 0 0-.14.2c0 .02 0 .04-.06.03-.05 0-.05-.04-.04-.06a.5.5 0 0 1 .17-.25.43.43 0 0 1 .27-.08c.03 0 .06 0 .06.05s-.03.05-.06.05zm-1.05.12a.8.8 0 0 0-.2.1.25.25 0 0 0-.08.12c0 .03-.02.05-.07.03-.05 0-.04-.04-.03-.06.02-.06.06-.1.12-.16a.86.86 0 0 1 .2-.12c.04 0 .06-.02.08.03.02.06 0 .07-.03.08zm-.66.02a.82.82 0 0 0-.16.14.67.67 0 0 0-.1.2c-.02 0-.02.04-.07.02-.04-.02-.03-.05-.02-.07a.74.74 0 0 1 .12-.22.9.9 0 0 1 .18-.17c.02 0 .05-.02.08.02s0 .06-.02.08zm-.83.66a1.7 1.7 0 0 0-.37.4s-.03.04-.07 0c-.04-.03-.03-.05 0-.07.05-.1.1-.17.18-.24.06-.06.13-.13.2-.18.03-.02.05-.03.08 0 .03.05 0 .07 0 .08zm.1.92c-.06.05-.1.1-.16.16l-.15.16c-.02.02-.04.04-.08 0-.04-.03-.02-.05 0-.07l.15-.16.15-.16s.03-.03.07 0c.03.04 0 .06 0 .08zm-.85.24v.33c0 .02 0 .05-.05.05s-.05-.03-.05-.05v-.33c0-.02 0-.05.05-.05s.05.03.05.05zm1.08 1.42c0 .18-.03.35-.05.53 0 .02 0 .03 0 .05 0 .03 0 .05-.06.05-.05 0-.05-.03-.05-.06 0 0 0-.02 0-.04l.06-.53c0-.03 0-.05.05-.05.06 0 .05.03.05.06zm-.63-.47c0 .12 0 .23 0 .34 0 .04-.02.07-.07.07s-.05-.03-.05-.06c0-.1 0-.22 0-.33 0-.03.02-.06.07-.05.05 0 .05.03.05.05zm-.6-4.5a.73.73 0 0 1 .48.48c0 .03 0 .05-.04.07-.05 0-.05 0-.06-.04a.65.65 0 0 0-.16-.25.7.7 0 0 0-.25-.15c-.02 0-.05-.02-.03-.07.02-.04.04-.03.07-.02zm5.17 6.74c.1.24.16.46.16.7 0 .2-.04.44-.14.66-.02.03-.03.05-.07.03-.05-.03-.04-.05-.03-.08a1.55 1.55 0 0 0-.02-1.26c-.02-.03-.03-.05.02-.07.05-.03.06 0 .07 0zm-1.68 1.96c.06-.25.17-.47.3-.68.12-.2.26-.38.4-.56.16-.2.26-.44.32-.67a1.82 1.82 0 0 0 .02-.76c0-.03 0-.06.04-.07.05 0 .06.02.06.05.05.26.05.53-.02.8-.06.24-.17.5-.34.7a6.32 6.32 0 0 0-.4.56c-.12.2-.22.4-.3.65 0 .02 0 .04-.05.03-.05-.02-.05-.04-.04-.07zm-2.17-.57a.72.72 0 0 1 .16-.26.9.9 0 0 1 .25-.2c.02 0 .04 0 .07.04.02.04 0 .06-.03.07a.8.8 0 0 0-.24.16.57.57 0 0 0-.14.22c0 .03-.02.05-.06.03-.05 0-.04-.04-.03-.06zm-.42-.16c.1-.1.17-.2.26-.3.1-.08.2-.15.32-.2.03 0 .05-.02.07.03.02.05 0 .06-.03.06a.97.97 0 0 0-.3.2 2.06 2.06 0 0 0-.23.27c-.03.02-.04.04-.1 0-.03-.02 0-.04 0-.07zm2.25-2.23c.1.05.17.07.26.07a.83.83 0 0 0 .25-.03c.02 0 .05 0 .06.04.03.05 0 .06-.02.06a.8.8 0 0 1-.57-.03c-.02 0-.04 0-.02-.06.02-.05.05-.04.07-.03zm-1.12-.13c.03-.03.05-.06.08-.1h.02c.02-.02.03-.04.07 0 .03.03 0 .05 0 .07-.04.04-.06.07-.1.1 0 .02-.03.04-.07 0-.03-.03-.02-.05 0-.07zm24.14 6.96c.05.06.1.1.13.17s.06.13.1.2c0 .02 0 .05-.05.06-.05.02-.05 0-.06-.03a.76.76 0 0 0-.1-.17.8.8 0 0 0-.1-.16c-.02-.02-.04-.04 0-.07.03-.04.05-.02.07 0zm-26.8 12.58c.12.1.23.2.37.27a.95.95 0 0 0 .43.1c.02 0 .05 0 .05.06 0 .05-.03.05-.05.05-.18 0-.34-.05-.48-.12-.15-.07-.28-.17-.4-.28-.02 0-.04-.03 0-.07.03-.03.05 0 .07 0z"/><g fill="#f00"><path d="M368.9 99.6a8.22 8.22 0 0 0 1.66-.08c-.53.38-1.2.63-1.9.75a.77.77 0 0 0 .26-.34.43.43 0 0 0-.02-.33zm-1.42-.15c.38.07.8.1 1.18.14 0 0 0 0 .02 0 .06.1.08.2.05.27-.03.1-.12.2-.27.3-.04.02-.08.05-.02.13a5.63 5.63 0 0 1-1.22.02.18.18 0 0 0 .04-.03c.15-.16.24-.32.27-.48a.63.63 0 0 0-.05-.37zm-10.5-3c.68-.1 1.36-.12 2.05-.1a.98.98 0 0 1 .5.4c.1.2.15.46.1.8 0 .03 0 .08.1.1.1 0 .1-.04.1-.1.05-.36 0-.66-.13-.9a1.05 1.05 0 0 0-.26-.3c.06 0 .13.02.2.02.78.04 1.4.27 2.1.6a.12.12 0 0 1 0 .03c.16.16.2.32.2.48-.04.17-.14.36-.3.55-.04.04-.07.08 0 .14.07.06.1.03.14 0 .2-.23.3-.45.34-.66a.7.7 0 0 0-.04-.34c.6.3 1.18.56 1.75.87.02 0 .03 0 .04.02 0 0 0 .02 0 .03a.48.48 0 0 1-.04.43c-.1.13-.25.24-.48.33-.04 0-.1.03-.05.12.03.1.08.08.12.06.27-.1.46-.22.57-.38a.63.63 0 0 0 .1-.46c.38.2.76.42 1.15.6.07.15.08.27.03.4-.06.1-.2.22-.4.32-.05.03-.1.05-.05.13.04.1.1.08.13.06.26-.12.42-.27.5-.43a.54.54 0 0 0 .04-.35c.13.06.27.12.4.17a8.1 8.1 0 0 0 1.33.35.47.47 0 0 1 .1.38.74.74 0 0 1-.2.37c-.04.03-.07.07 0 .13a.27.27 0 0 0 .03.03c-1.48-.14-2.8-.85-4.18-1.38-.16-.07-.33-.13-.5-.2-.5-.18-1.02-.45-1.53-.65a.16.16 0 0 0-.06-.04c-.05 0-.08-.02-.12-.03-.02 0-.04-.02-.06-.03a8.48 8.48 0 0 0-1.4-.32 6.1 6.1 0 0 0-1.64-.02h-.1c.06-.3.02-.56-.12-.78a1.25 1.25 0 0 0-.47-.42zM354.56 97.1a8.7 8.7 0 0 1 2.08-.6c.32.12.53.27.65.46.1.18.14.4.1.64a4.2 4.2 0 0 0-1.84.22c-.16-.33-.37-.53-.62-.63a1.24 1.24 0 0 0-.38-.1zm7.46 3.76a9.4 9.4 0 0 0-.56-.33 6.92 6.92 0 0 0-3.03-.86s0-.02.02-.03c.38-.38.46-.74.33-1.08-.1-.26-.33-.5-.64-.73.35-.02.68 0 1.05.06.5.06 1.2.23 1.8.48.16.33.2.63.13.87-.07.26-.26.48-.57.65-.04.03-.1.05-.04.14.05.08.1.06.13.03.37-.2.6-.46.67-.77.07-.24.05-.5-.06-.8.42.17.8.4 1.06.64.34.24.68.48 1 .73 0 .42-.1.66-.3.78-.23.13-.54.15-.9.12-.04 0-.1 0-.1.08zM364.05 102.4c-.6-.5-1.22-1-1.86-1.43.35.03.67 0 .9-.14.24-.15.4-.4.42-.8.4.3.76.6 1.1.94.2.17.37.34.55.5.05.16.06.3.05.4a.46.46 0 0 1-.1.27.55.55 0 0 1-.28.15c-.18.04-.4.05-.68.02-.05 0-.1 0-.1.07zM366.18 103.8c-.22-.12-.42-.23-.62-.35-.47-.28-.9-.6-1.34-.93.26.02.48 0 .66-.05a.75.75 0 0 0 .37-.2c.1-.1.14-.23.16-.38a.92.92 0 0 0 0-.23c.43.37.88.7 1.36 1 .25.15.5.3.75.43 0 .02 0 .03.02.05.03.2-.08.32-.28.4-.23.1-.58.13-.97.15-.05 0-.1 0-.1.08zM368.45 104.68a11.9 11.9 0 0 1-2.06-.78c.36-.03.68-.07.9-.16.28-.1.43-.27.42-.53a10.8 10.8 0 0 0 1.27.56c.07.17.07.3 0 .42-.08.15-.27.27-.5.37-.05.02-.1.04-.05.13zM373.18 104.2c.06 0 .44-.1.24.04-1.4.9-3.16.9-4.83.48.26-.12.47-.26.57-.43a.57.57 0 0 0 .06-.46c.53.17 1.07.3 1.62.37a.38.38 0 0 1-.08.26c-.1.1-.24.22-.48.32-.06.02-.1.04-.06.13.03.1.08.08.12.06.28-.12.46-.25.56-.38a.55.55 0 0 0 .13-.35 8.96 8.96 0 0 0 2.13-.03zm-9.64 24c-.1.12-.2.24-.27.38-.4.13-.77.33-1.2.32 0 .28.1.4.37.4.54-.27.66-.32.7-.28.07.06-.07.44-.5.76-.08.04-.08.07-.04.14.38.6 1.36.38 1.9.24.37-.1 1.06-.55 1.25-.93.07-.18-.1-.4-.26-.6-.43.08-.57-.12-.5-.25-.45-.16-.94-.2-1.46-.17zm-15.15-4.77c-.32.25-.66.45-1.06.58-.15.06-.52.15-.56.34 0 .07.25.22.4.14.46-.43.68-.2.17.24-.04.1 0 .18.08.26.46.4 1.6.55 2.13.22.38-.24.6-.5.25-.88a1.74 1.74 0 0 1 .03-.24l-.63-.07-.4-.2-.4-.37zm9.96 3.47c-.03 0-.07 0-.1.02-.22.22.35.14.65.32.15.1.2.25.15.48-.27.66-1.82.44-2.34.17-.23-.14-.24-.28-.23-.5.1.02.22 0 .33 0 .18-.04.37-.1.55-.2.05-.02.1-.05.04-.15-.07-.1-.12-.07-.17-.05a1.3 1.3 0 0 1-.46.16 2.57 2.57 0 0 1-.5 0h-.03c-.1-.04-.16-.1-.12-.15.04-.05.2 0 .22.02.24-.1.44-.18.7-.23.04-.05.07-.1.1-.12.48.04.93.1 1.23.22zm-7.15-.4c-.1.05-.12.13-.2.28-.26.27-.52.44-.86.6-.3.12 0 .25.2.4.17.12.4-.17.56-.4.16-.24.33-.17.22.03-.12.22-.2.52-.2.68-.07.17.58.3.7.3.38.02.88-.36 1.2-.56.25-.26.2-.5.1-.8v-.03a1.97 1.97 0 0 1-.48-.06 3.43 3.43 0 0 1-.56-.2c-.02 0-.04 0-.02-.06 0-.03.02-.03.04-.03l-.68-.16zM354 100.1c.1 0 .22 0 .32 0 .2.02.4.1.6.13.67-.25 1.23-.4 1.7-.37a5.68 5.68 0 0 1 1.74-.22.08.08 0 0 1-.02-.02c-.07-.06-.04-.1 0-.13.3-.3.38-.6.28-.87-.1-.28-.4-.53-.78-.77-.42.05-.83-.07-1.28-.02a4.06 4.06 0 0 0-.82.2c.22.07.42.2.58.4.2.22.34.54.42.95 0 .03 0 .08-.08.1-.1.02-.1-.03-.12-.08-.06-.37-.2-.66-.37-.87-.2-.26-.62-.37-.75-.42-.45.04-.9.1-1.27.2-.3.06-.55.17-.74.32.28-.06.58-.05.84.08.25.12.46.35.6.73 0 .04.02.1-.07.12-.1.03-.1 0-.12-.06-.1-.32-.3-.52-.5-.62-.4-.2-1.25-.03-1.6.24a4.23 4.23 0 0 0-.63.6c-.02.02-.05.04-.08.04.77.06 1.54.1 2.14.34zm-2.28-.44c0-.04 0-.07.04-.1.22-.25.43-.46.66-.63.22-.16.44-.28.67-.33.24-.26.6-.42 1-.53.4-.1.85-.16 1.3-.2-.13-.28-.3-.44-.5-.53-.22-.1-.46-.1-.73-.08-.55.18-1.04.48-1.5.8.03 0 .08 0 .12 0 .14.02.26 0 .38.05.05 0 .1.03.06.12-.04.1-.35.04-.45.04a1.35 1.35 0 0 0-.4.05c-.03 0-.05 0-.07 0-.5.3-.87.62-1.27.96.3.1.55.24.7.4z"/></g><path fill="#0093dd" d="M409.03 156.5l20.74-47-15.3-24.72-27.3 10.1-12.62 49.7a219.4 219.4 0 0 1 34.48 11.92z"/><path fill="#fff" d="M382.58 113a251.72 251.72 0 0 1 39.6 13.72l-8.02 18.14a231.95 231.95 0 0 0-36.47-12.62z"/><path fill="#f00" d="M415.45 141.95l5.35-12.12a248.56 248.56 0 0 0-39.06-13.52l-3.15 12.4a235.9 235.9 0 0 1 37.03 12.83l-.18.42z"/><path d="M385.6 125.75c.35-.22.73-.17 1.1-.1.32-.12.68-.16 1.07-.15.17-.1.36-.15.58-.2.1-.08.12-.18 0-.28a.62.62 0 0 1-.14-.36c-.6-.35-.84-.9-1.07-1.44-.35-.1-.52-.2-.55-.34-.17-.02-.34-.04-.5-.06-.8.1-1.02-.17-1.3-.38-.24-.08-.44-.2-.58-.46l-.26-.33c-.22-.27-.15-.64.18-.62.23.03.46.03.67-.06.24-.12.6-.1.9-.1.33 0 .54-.22.87-.53 0-.13 0-.26 0-.4-.06-.13 0-.2.2-.17a.98.98 0 0 1 .86.5c.5.1.9.34 1.17.76.67 0 1.12.26 1.18.5.04.2-.16.4-.46.62 0 .05 0 .1 0 .14.18.14.3.3.36.45.38.15.74.34 1.07.63.96-.1 2.58.58 4.77 1.98a18.58 18.58 0 0 1 4.12 1.22c.28 0 .56 0 .84.02 2.37-.35 4.67-.08 6.8 1.55.8.1 1.53.35 2.23.64.53.2 1.06.3 1.6.34a7.93 7.93 0 0 1 2.6.7c.97.2 1.88.52 2.44 1.2.4.5.3.93-.2 1.12-.3.65-.93.67-1.84.35-.64.13-1.33-.38-1.97-.85-.88-.3-1.68-.8-2.48-1.33-.42-.3-.84-.5-1.24-.6-.3-.07-.6-.1-.8 0-.1.06-.08.1 0 .16.23.2.4.47.44.8.04.3 0 .64 0 1 .03.38.26.66.64.9.27.16.58.33 1.03.4.23.04.3.17.28.33.12.6.24 1.17.45 1.7.06.14.17.2.34.34.6.42.28.9-.25 1-.47.4-.87.7-1.35.8-.38.12-.54-.03-.67-.22a.48.48 0 0 1-.44-.25c-.47-.34-.07-.94 1.05-.68.03-.14.13-.18.22-.18-.06-.3-.1-.6.02-.9-.1-.08-.18-.16-.33-.2-.4-.13-.77-.32-1.07-.6-.57-.54-1.47-1-2.33-1.44-.7-.04-1.24-.36-1.8-.64h-.75c-.22-.08-.4 0-.53.15-.22.26-.48.22-.8.18-.34-.04-.7 0-1.05-.02-.17.04-.34.1-.53.1-.4-.02-.78-.02-1.04.2-.22.23-.44.2-.66.12a.98.98 0 0 1-.35-.24c-.28-.06-.46-.12-.52-.2-.46-.14-.6-.27-.57-.4-.6-.14-.3-.63.08-.64.47-.02.9.07 1.36.13.4.1.87.05 1.18-.24.2-.2.28-.35.53-.5-.8-.04-1.38-.18-1.8-.45-1.17-.74-2.1-.9-2.84-.3-.2.12-.34.16-.55.08a1.06 1.06 0 0 0-.6-.03c-.4.1-.82.05-1.24-.1a4.1 4.1 0 0 1-1.83.06c-.52.27-.9.3-1.14.1a8.55 8.55 0 0 1-.65-.4c-.33-.06-.47-.14-.48-.25-.42-.03-.48-.2-.47-.36-.18-.2-.1-.35.06-.48.3-.13.63-.18 1 0 .2.1.37.2.5.3.24-.02.44 0 .62.08.13-.2.5-.22.92-.2.2-.14.46-.23.77-.26 0-.05 0-.1 0-.15-.43-.1-.64-.4-.85-.7-.63-.02-1.1-.3-1.55-.57-.37.03-.67-.1-.96-.27-.24 0-.5.02-.75-.05a2.55 2.55 0 0 1-1.4 0c-.32.03-.57 0-.83-.02-.3.33-.62.4-.98.22-.2-.25-.48-.4-.84-.5-.26-.1-.35-.2-.4-.33-.32-.2-.25-.4.06-.55.24-.12.53-.14.98.08.15.06.3.1.5.1z"/><path fill="#fff" d="M401.22 130.52c-.03-.06-.1-.2-.34-.06-.74-.04-1.57-.03-2.2-.4-.64-.38-1.3-.77-2.03-.75.22-.2.48-.33.8-.4.4-.12.9-.12 1.43-.04.76.13 1.43.27 1.94.47.5.18.85.42 1 .72a.4.4 0 0 0 .05.04c.2.12.37.25.52.4.1.1.2.2.27.3a2.5 2.5 0 0 1-.7-.03 2.88 2.88 0 0 1-.75-.26z"/><path d="M402.93 94.7l.04.23.93 4.84-3.7 3.23-.18.15.2.08 4.67 1.6.93 4.84.05.23.17-.15 3.72-3.23 4.66 1.6.22.07-.04-.23-.93-4.84 3.72-3.24.16-.16-.22-.07-4.65-1.6-.96-4.84-.05-.23-.18.15-3.72 3.23-4.66-1.6z"/><path fill="#f7db17" d="M400.65 102.95l3.47-3.02 4.36 1.5zm8.4-1.63l3.5-3.03 4.34 1.5zm7.87-1.37l-3.47 3.02-4.36-1.5zm-8.4 1.64l-3.5 3-4.34-1.5zm-5.1-6.44l4.35 1.5.88 4.52zm5.62 6.46l4.36 1.5.87 4.52zm5.1 6.13l-4.34-1.5-.88-4.52zm-5.6-6.47l-4.37-1.5-.87-4.52zm3-7.63l.9 4.52-3.48 3.03zm-2.78 8.1l.88 4.53-3.47 3.02zm-2.74 7.5l-.9-4.52 3.5-3.03zm2.8-8.1l-.9-4.53 3.5-3.02z"/></svg>