<svg xmlns="http://www.w3.org/2000/svg" width="640" height="480"><defs><clipPath id="a"><path fill-opacity=".67" d="M-87.62 0h682.67v512H-87.62z"/></clipPath></defs><g fill-rule="evenodd" clip-path="url(#a)" transform="translate(82.14) scale(.94)"><path fill="#fff" d="M619.43 512H-112V0h731.43z"/><path fill="#00c" d="M619.43 115.23H-112V48h731.43zm0 350.45H-112v-67.23h731.43zm-483-274.9l110.12 191.54 112.5-190.75-222.62-.8z"/><path fill="#fff" d="M225.75 317.8l20.95 35.52 21.4-35.36-42.35-.15z"/><path fill="#00c" d="M136.02 320.58l110.13-191.54L358.63 319.8l-222.6.78z"/><path fill="#fff" d="M225.75 191.6l20.95-35.5 21.4 35.36-42.35.15zm-43.78 79.5l-21.64 36 40.9-.14-19.26-35.85zm-21.27-66.5l41.23.3-19.84 36.26-21.4-36.55zm151.24 66.92l20.83 35.58-41.7-.54 20.87-35.04zm20.45-66.9l-41.23.28L311 241.16l21.4-36.55zm-114.28-.05l-28.4 51.52 28.8 50.28 52.74 1.22 32.04-51.52-29.6-51.92-55.58.4z"/></g></svg>