<svg xmlns="http://www.w3.org/2000/svg" width="640" height="480"><defs><clipPath id="a"><path fill-opacity=".67" d="M-77.62 0h682.67v512H-77.62z"/></clipPath></defs><g clip-path="url(#a)" transform="translate(72.77) scale(.94)"><path fill="#ba0000" fill-rule="evenodd" d="M629.43 512H-102V0h731.43z"/><path fill="#ffef00" fill-opacity=".988" fill-rule="evenodd" stroke="#000" stroke-width="2.204" d="M281.02 376c.2-.6.6-6.83.4-6.83s-9.46-10.87-9.26-10.87c.2 0 11.88 2.6 11.88 2.2 0-.4 4.63-11.46 4.63-11.66 0-.2 5.63 13.48 5.63 13.48l11.47 5.04-8.05 6.64s1.82 12.88 1.82 13.08c0 .2-8.05-7.65-8.05-7.65l-8.87 1s-1.2-4.02-1.6-4.42z"/><path fill="#fff" fill-rule="evenodd" stroke="#000" stroke-width="2.636" d="M218.66 206.9c-7.65 3.93-37 37.48-41.02 42.7-3.37 7.6-9.97 17.2-16.76 23.4-7.26 5.5-11.3 12.98-10.3 20.08-.07 8.83 4.88 14.84 8.83 21.05 2.34 2.84 5.48 4.68 8.82 4.9 6.85.9 7.46 3 10.9 4.32 13.5 18.4 33.64 31.95 48.15 42.7 9.25 4.87 15.68 9.74 17.9 12.4 4.23 8.1 3.45 16.02 2.87 19.9-3.6 13.56-7.18 27.1-10.77 40.66-1.82 11.08 7.8 8.6 8.32 6.37 4.33-5.63 10.8-1.68 20.07-34.28 4.24-5.72 8.5-11.43 12.73-17.15 0 0 4.9-1.96 4.9-2.44 7.45-8.94 1.78-14.06-2.45-15.67-3.1-1.14-6.2-2.28-9.3-3.43 0 0-10.78-10.77-11.27-10.77-5.1-14.9-30.24-46.68-36.08-51.1-4.04-4.22-5.96-6.02-9.8-8.36-5.9-2.82-7.8-3.74-11.4-5.18-3.02-1.2-.87-4.5 1.04-6.02 19.9-10.84 35.68-22.88 54.78-35.12l2.93-1.96-6.85-39.18-31.83-11.26c-1.67 1.14-2.94 2.3-4.4 3.43z"/><path fill="#ffec00" fill-rule="evenodd" d="M245.3 413.15c.1-.4 19.9-4.03 19.9-4.03s-2.3 7.35-2.4 7.35l-19.72 5.94 2.2-9.25z"/><path fill="none" stroke="#000" stroke-width="2.204" d="M193.64 338.5c3.82-10.15 14.44-18.2 21.57-20.42"/><path fill="none" stroke="#000" stroke-width="2.437" d="M244.58 413.32c1.28-.36 6.96-2.02 8.62-2.28 1.76-.4 3.52-.87 5.22-1.42 1.96-.4 3.18-.77 5.22-1.14 1.6-.6 3.17-1.02 4.87-1.42M241 425.58c.16-.22 1.5-1.42 2.48-2 1.14-.36 5.05-2 6.52-2.27a53.94 53.94 0 0 0 4.67-1.42c1.75-.4 2.84-.76 4.66-1.14 1.42-.6 2.83-1.02 4.35-1.42"/><path fill="none" stroke="#000" stroke-width="2.204" d="M249.04 341.38h-.28c.9 0 .34-.07-.86 1.42-.42 1.15-4.08 3.7-6.83 3.7-1.33.14-3.37.3-4.7.3-.38 0-.9-.3-1.28-.3m13.66 53.52h1.42c1.48 0 2.96.26 4.27.28 1.43 0 2.85.4 4.27.4 1.44.2 3.17.14 4.65.36 1.67.05 3 .38 4.74.38 1.4.06 2.16.3 3.7.3l-3.7-.3c1.4.06 2.16.3 3.7.3m-32.72 33c.15-.22 1.4-1.42 2.28-2 1.04-.35 4.62-2 5.97-2.27a46.72 46.72 0 0 0 4.27-1.42c1.6-.4 2.6-.77 4.27-1.14 1.3-.6 2.6-1.02 4-1.4m5.86-41.23c-.8 2.34.24 2.92.67 3.93.75.98 2.67 2.47 5.7 3.42 1.16.3 2.06.62 3.4 1.14.9.08 1.34.3 2 .57m-124.37-94.78h.28c-.88 0-.34.06 1.15-1.14.93-1.02 1.7-1.5 2.56-2.55m14.45 23.97c.2 0 16.56-8.25 18.3-10 1.24-.9 2.18-1.86 3.68-2.88.97-.5 1.66-1.15 2.57-1.7.75-1.1 1.73-1.75 2.27-2.75 1-.88.58-1.82 1.4-2.87.38-1.08 1.1-2.9 1.33-3.87M221.95 308c.1.6-.26 2.4-.24 3.78-.04 1.6-2.1 6.55-4.6 8.02M192.55 307.82c.1 0 2.6.8 6.75 2.1 5 1.8 15.44 8.36 16.47 9.27 1.06.82 2.95 1.56 3.67 2.55 1.14.98 1.96 2.1 2.85 3.13 1.03 1.27 1.9 2.34 2.55 3.4 3.16 2.58 11.68 20.36 11.95 21.36.48.94 1.07 2.25 1.43 3.13.63.73 1.06 1.76 1.7 2.85.6 1.4 1.27 2.06 2 3.13.94.65 2.2 1.9 3.4 2.56 1.3 1.1 2.5 1.55 3.43 2.3 1.34.56 16.34 10.04 17.04 10.5 1.37 1.1 5.55 5.45 2.6 8.6-1.23 1.07-2.36 2.48-3.42 3.08-1.1 1.1-2.6 1.58-3.84 2.14-6.76 2-10.2 1.28-11.53 1.28h-1.4M159.4 274.3c1.92.74 1.15.2 2.88.97 1.16.5 1.92.53 3.06.94 1.2.4 4.6 1 6.23 2.64 1.18 1.08 2.1 2 3.4 2.78 1.55 1.07 2.67 1.54 4.6 2.35 1.62.6 3.43 1.28 5.07 1.33 1.7.1 2.12.02 3.75.02h4-4 3.98"/><path fill="#ffe606" fill-rule="evenodd" stroke="#000" stroke-width="2.204" d="M158.96 293.28c4.27-.28 11.38 1 11.53 1l9.38-.14c4.93-.48 6.02-2.38 6.83-3.7 1.86-2.85 3.14-3.85 4.56-5.98 2.28-1.7 5.4 2.27 5.55 2.27 7.98 7.55 1.58 16.8 1.15 17.08-3.98 3.66-4.84 3.9-7.25 1.57-2.42-2.84-3.13-4.12-5.13-5.12-3.84-1.85-11.8-.42-11.95-.42-.14 0-4.13 1.56-4.13 1.56-1.95.7-3.2 2.4-6.55 2.98-3.42.24-4.56-.1-6.27-2.85-2.27-3.55-1.14-7.82 2.28-8.25z"/><path fill="#ffef00" fill-opacity=".988" fill-rule="evenodd" stroke="#000" stroke-width="2.204" d="M381.8 120.66c-.63.12-6.26 2.83-6.16 3 .1.18-4.84 13.57-4.94 13.4-.1-.18-3.54-11.64-3.9-11.44-.34.2-12.25 1.6-12.43 1.7-.18.1 9-11.53 9-11.53l-1.25-12.48 9.74 3.77s10.34-7.9 10.5-8c.2-.1-2.7 10.76-2.7 10.76l5.2 7.23s-2.9 3-3.06 3.56z"/><path fill="#fff" fill-rule="evenodd" stroke="#000" stroke-width="2.636" d="M264.93 257.9c7.18 4.74 50.8 13.88 57.34 14.82 8.27-.78 19.88.26 28.6 3.15 8.34 3.63 16.85 3.47 22.55-.88 7.73-4.26 10.55-11.53 14.03-18 1.33-3.43 1.4-7.07-.05-10.1-2.57-6.4-1.03-7.97-1.57-11.6 9.4-20.78 11.36-45 13.6-62.9-.28-10.45.82-18.45 2.06-21.67 4.98-7.68 12.26-10.88 15.93-12.27 13.57-3.52 27.14-7.02 40.7-10.53 10.55-3.85 3.66-11 1.48-10.38-7.03-1.02-6.75-8.6-39.7-.7l-21.2-2.7s-4.1-3.3-4.52-3.07c-11.45-2.1-13.13 5.34-12.46 9.8l1.57 9.8s-4.12 14.67-3.88 15.1c-10.48 11.76-26.06 49.53-27.06 56.8-.48 6.8-3.05 5.57-2.36 12.2.03 5.18-.58 1.95 1.15 12.62.43 3.2-3.5 2.97-5.75 2.04-19.2-12.04-37.43-19.9-57.46-30.54-1.05-.53-2.1-1.07-3.15-1.6L254 222.47l5.78 33.27c1.82.9 3.44 1.44 5.15 2.16z"/><path fill="#ffec00" fill-rule="evenodd" d="M431.67 133.6c-.4.1-13.27-15.4-13.27-15.4s7.54-1.58 7.58-1.5l14.84 14.3-9.15 2.6z"/><path fill="none" stroke="#000" stroke-width="2.204" d="M391.93 215.2c-10.73 1.66-22.95-3.65-28.38-8.78"/><path fill="none" stroke="#000" stroke-width="2.437" d="M432.18 134.14c-.94-.94-5.17-5.08-6.2-6.4a66.48 66.48 0 0 0-3.8-3.85c-1.32-1.52-2.24-2.4-3.56-4-1.3-1.1-2.44-2.26-3.63-3.55m29.62 14.9c-.27-.02-1.98-.62-2.95-1.18-.88-.82-4.24-3.4-5.2-4.57a54.2 54.2 0 0 0-3.5-3.37c-1.22-1.33-2.08-2.1-3.3-3.5-1.22-.95-2.27-1.97-3.36-3.1"/><path fill="none" stroke="#000" stroke-width="2.204" d="M367.28 165.5l.14.26c-.44-.78-.23-.27 1.66.04 1.2-.2 5.22 1.75 6.57 4.14.78 1.1 1.9 2.8 2.55 3.96.2.33.2.93.38 1.26m39.95-38.14l-.14-.25c.18.33-.38-.66-.57-1-.72-1.28-1.22-2.7-1.84-3.85-.7-1.24-1.06-2.68-1.75-3.92-.53-1.35-1.44-2.83-1.98-4.23-.77-1.48-1.13-2.8-1.98-4.32-.65-1.24-.82-2-1.58-3.36l1.57 3.35c-.65-1.24-.82-2-1.58-3.36m44.82 12.34c-.27-.02-1.9-.52-2.85-1-.84-.74-4.04-3.05-4.93-4.1a47.07 47.07 0 0 0-3.33-3.03c-1.13-1.2-1.94-1.88-3.08-3.15-1.17-.84-2.17-1.76-3.2-2.78m-38.8 15.08c2.42-.44 2.42-1.64 3.1-2.5.47-1.14.83-3.54.18-6.65-.3-1.17-.47-2.1-.68-3.53-.37-.82-.4-1.32-.48-2.02M377.8 269.62l-.14-.25c.44.78.23.3-1.55-.43-1.35-.3-2.14-.75-3.5-.98m13.83-24.34c-.1-.17-15.3-10.4-17.7-11.05-1.4-.64-2.67-1-4.3-1.8-.9-.6-1.8-.88-2.74-1.4-1.32-.12-2.38-.66-3.5-.64-1.26-.45-1.87.4-3.2.2-1.1.18-3.04.44-4.02.72m.46-24.17c.47-.37 2.22-.95 3.4-1.65 1.44-.73 6.75-1.36 9.26.08M365.7 231.2c-.04-.08-.55-2.65-1.48-6.9-.88-5.26-.26-17.57.02-18.9.2-1.34-.08-3.35.43-4.47.3-1.46.88-2.74 1.33-4 .6-1.54 1.1-2.84 1.73-3.92.68-4 12-20.14 12.75-20.87a43.02 43.02 0 0 1 2.03-2.77c.33-.9 1.02-1.8 1.65-2.9.94-1.2 1.18-2.1 1.75-3.26.1-1.14.57-2.86.56-4.23.33-1.66.13-2.93.3-4.1-.15-1.45.77-19.17.84-20 .3-1.74 2.02-7.5 6.2-6.5 1.55.57 3.33.86 4.37 1.5 1.48.4 2.65 1.48 3.75 2.3 5.05 4.9 6.1 8.25 6.76 9.4l.7 1.25m-56.74 133.12l-.14-.25c.38.66.17.33-.3-1.14-.13-1.26-.52-2.97-.72-4.17-.26-1.26-.84-2.68-.68-3.55-.45-1.26-.17-2.3-.05-3.56.36-1.58.52-2.72.56-4.24.18-1.88.04-3.2.15-4.98-.5-1.46-.6-2.68-1.35-4.14-.67-1.4-1.18-2.7-1.98-4.1l-1.96-3.48 1.96 3.47-1.96-3.47"/><path fill="#ffe606" fill-rule="evenodd" stroke="#000" stroke-width="2.204" d="M369.5 267.6c-2.34-3.58-4.7-10.4-4.78-10.54l-4.73-8.1c-2.84-4.08-5.03-4.1-6.58-4.15-3.4-.2-4.88-.84-7.44-1.03-2.6-1.15-.67-5.83-.74-5.96 2.67-10.63 13.87-9.58 14.33-9.35 5.14 1.68 5.76 2.3 4.92 5.56-1.3 3.5-2.07 4.76-1.96 7 .27 4.24 5.4 10.5 5.48 10.62.07.12 3.4 2.83 3.4 2.83 1.56 1.34 3.66 1.58 5.8 4.24 1.88 2.85 2.15 4 .6 6.84-2 3.73-6.27 4.83-8.32 2.06z"/><path fill="#ffef00" fill-opacity=".988" fill-rule="evenodd" stroke="#000" stroke-width="2.204" d="M105.24 168.67c.45.46 5.8 3.7 5.9 3.5s14-3.38 13.9-3.2-7.8 9.33-7.43 9.52c.36.18 8.05 9.38 8.23 9.48.18.1-14.56-1.22-14.56-1.22l-9.75 7.86-2.2-10.2S87.08 180.1 86.9 180c-.2-.1 10.48-3.62 10.48-3.62l3.2-8.32s4.12.78 4.66.6z"/><path fill="#fff" fill-rule="evenodd" stroke="#000" stroke-width="2.637" d="M284.06 191.25c.03-8.6-16.22-50.1-19-56.1-5.2-6.48-10.7-16.76-13.05-25.64-1.5-8.95-6.3-15.98-13.07-18.37-7.8-4.14-15.42-2.5-22.75-1.88-3.6.77-6.67 2.7-8.4 5.57-3.96 5.66-6.1 5.23-8.85 7.67-22.55 3.5-43.87 15.14-60.1 23.07-8.57 5.96-15.86 9.42-19.24 10.15-9.17.03-15.83-4.3-19-6.6l-31.12-28.3c-9-6.7-11.2 2.97-9.48 4.45 3 6.45-3.5 10.38 21.17 33.6l9.34 19.2s-.5 5.26-.07 5.48c4.5 10.73 11.66 8.06 15.03 5.05l7.33-6.68s14.52-4.6 14.74-5.03c15.58 2.3 55.72-5.33 62.33-8.48 5.97-3.34 6.35-.5 11.52-4.72 4.3-2.85 1.93-.58 9.9-7.87 2.47-2.1 4.4 1.3 4.87 3.7.45 22.66 3.86 42.2 5.93 64.8.13 1.17.25 2.34.38 3.5 12.64 4 25.3 8 37.93 11.98 8.23-7.68 16.45-15.37 24.67-23.05-.24-2-.67-3.66-1-5.5z"/><path fill="#ffec00" fill-rule="evenodd" d="M88.74 119.85c.3.28-5.6 19.54-5.6 19.54s-5.47-5.45-5.42-5.54l3.82-20.24 7.2 6.23z"/><path fill="none" stroke="#000" stroke-width="2.204" d="M178.78 108.4c7.26 8.07 9.5 21.2 8.2 28.55"/><path fill="none" stroke="#000" stroke-width="2.437" d="M88.92 119.14c-.27 1.3-1.42 7.1-1.95 8.7a66.82 66.82 0 0 0-1.15 5.3c-.54 1.9-.78 3.17-1.4 5.15-.18 1.68-.54 3.27-.97 4.96M79.7 110.3c.1.26.55 2 .62 3.13-.2 1.18-.54 5.4-1 6.84a54.36 54.36 0 0 0-.88 4.8c-.45 1.74-.62 2.88-1.13 4.66-.1 1.55-.4 3-.73 4.52"/><path fill="none" stroke="#000" stroke-width="2.204" d="M150.7 156.25l.12-.25c-.4.8-.1.34-.86-1.42-.83-.9-1.4-5.33-.14-7.77.5-1.23 1.3-3.1 1.9-4.3.2-.32.68-.65.85-1M98.8 129l-.13.24-.53 1c-.68 1.32-1.6 2.5-2.22 3.67-.65 1.27-1.67 2.35-2.32 3.6-.84 1.2-1.58 2.76-2.45 3.98-.82 1.45-1.73 2.5-2.53 4.03-.7 1.22-1.24 1.8-1.96 3.16l1.96-3.15c-.7 1.22-1.24 1.8-1.96 3.16M72.44 104.4c.13.22.62 1.87.72 2.92-.16 1.1-.34 5.04-.73 6.36-.3 1.47-.56 2.96-.7 4.44-.4 1.6-.53 2.67-.97 4.32-.06 1.43-.28 2.77-.57 4.2m33.86 24.2c-1.7-1.78-2.7-1.13-3.8-1.2-1.2.2-3.4 1.22-5.65 3.47-.8.9-1.5 1.56-2.57 2.52-.5.75-.9 1.04-1.43 1.5m141.42-66.7l-.13.24c.4-.8.1-.35.48 1.53.5 1.3.55 2.2 1.1 3.45m-27.93 1.76c-.1.18-.3 18.5.45 20.87.23 1.5.64 2.78.85 4.6 0 1.07.25 2 .33 3.04.62 1.2.75 2.36 1.4 3.3.3 1.3 1.33 1.35 1.9 2.55.77.84 2.04 2.3 2.8 2.98m-20.47 12.86c-.55-.2-2-1.35-3.23-1.97-1.4-.78-4.84-4.9-5-7.78M206.53 121.57c-.05.1-1.9 1.93-4.97 5.03-3.9 3.62-14.54 9.84-15.82 10.34-1.23.56-2.76 1.9-3.97 2.08-1.4.56-2.77.77-4.1 1.1-1.6.33-2.95.62-4.2.7-3.73 1.6-23.43.98-24.45.76a43.16 43.16 0 0 1-3.43-.18c-.95.22-2.06.13-3.33.2-1.53-.12-2.4.17-3.7.33-1 .53-2.7 1.1-3.84 1.85-1.57.63-2.52 1.5-3.6 1.98-1.12.93-16.45 9.87-17.2 10.27-1.6.7-7.37 2.43-8.82-1.63-.36-1.6-1.1-3.25-1.14-4.47-.47-1.46-.2-3.03-.13-4.4 1.35-6.9 3.57-9.63 4.18-10.8l.66-1.28M251.1 108l-.13.26c.36-.7.2-.33-.78.88-1 .8-2.2 2.05-3.1 2.88-.9.9-1.78 2.16-2.6 2.5-.8 1.07-1.83 1.4-2.95 2-1.5.56-2.54 1.04-3.84 1.84-1.66.9-2.7 1.73-4.23 2.6-.95 1.23-1.92 1.98-2.73 3.4-.8 1.33-1.6 2.47-2.35 3.92l-1.84 3.54 1.83-3.54-1.84 3.54m11.75 73.12l.27-.5c-.5.93-.32.68.14-.9 0-1.9.46-4.18.48-5.85.3-1.77.58-3.68.6-5.47-.1-2.1-.1-3.97-.42-6-.03-1.85-.24-3.77-.3-5.6-.03-1.8-.17-3.34-.56-5.1-.04-1.3-.12-3.1-.44-4.7.17-1.28-.2-2.44-.45-3.46-.48-1.95-.67-3.1-1.2-5.1-.3-1.1-.6-2.47-1.07-4.1-.17-1.53-1-3.53-1.33-4.85-.45-.98-.92-2.3-1.1-3.46-.47-1.07-1.15-2.37-1.34-3.58-.5-.93-1.04-2.36-1.6-3.72-.48-1.12-.83-2.5-1.34-3.58-.52-1.38-1.15-2.56-1.47-3.97-.5-.47-.6-1-.87-1.4"/><path fill="#ffe606" fill-rule="evenodd" stroke="#000" stroke-width="2.204" d="M234.9 98.47c-1.72 3.92-6.14 9.64-6.2 9.77l-4.2 8.4c-1.85 4.6-.67 6.44.13 7.77 1.68 2.96 1.97 4.56 3.2 6.8.48 2.8-4.5 3.75-4.57 3.88-10.37 3.6-15.62-6.35-15.68-6.86-1.4-5.22-1.22-6.08 1.96-7.16 3.64-.84 5.1-.88 6.9-2.2 3.42-2.54 5.82-10.27 5.9-10.4.06-.13.5-4.38.5-4.38.27-2.06-.68-3.94.37-7.2 1.37-3.13 2.2-4 5.42-4.24 4.2-.38 7.47 2.6 6.27 5.83z"/><path fill="#ffef00" fill-opacity=".987" fill-rule="evenodd" stroke="#000" stroke-width="2.204" d="M221.3 199.65c-1.58-1.42 29.45 11.24 33.72 11.38 5.83-2.13 29.88-22.48 29.88-22.48.24 2 1.1 7.16 3.42 8.26-9.3 7.55-17.74 14.8-27.04 22.35.66 11.95-1.52 24.62 4.55 38 0 0-7.25.13-7.25 0-6.4-6.4-8.7-37.3-8.7-37.3-10.18-4.54-20.38-8.96-30.58-13.5 1.47-.96 2.65-3.9 2-6.7z"/><path fill="none" stroke="#000" stroke-width="2.204" d="M250.8 231.3c.5-.36-5.6 2.83-7.15 3.63-28.2 15.04-42.7 36.9-43.6 37.73-.48.93-1.38 2.18-2.2 3.4-.66 1-1.6 2.07-2.23 3.1-.87 1.2-2.68 3.56-3.67 4.6-.13.68.47-.22.27.23m77.85-70.57c-.55-.28 5.08 3.68 6.5 4.7 26.27 18.2 52.35 21.1 53.5 21.5 1.05.02 2.56.25 4.02.42 1.2.12 2.57.48 3.78.57 1.46.22 4.4.75 5.77 1.15.66-.2-.42-.3.07-.34"/></g></svg>