<svg xmlns="http://www.w3.org/2000/svg" width="640" height="480"><defs><clipPath id="a"><path fill-opacity=".67" d="M0 0h682.67v512H0z"/></clipPath></defs><g clip-path="url(#a)" transform="scale(.938)"><path fill="#fff" fill-rule="evenodd" d="M0 0h1024v512H0z"/><path fill="#000063" fill-rule="evenodd" d="M1024 445.24c-11.47 6.9-21.33 23.04-51.8 23.04-60.96 0-76.2-33.97-121.9-33.97-30.5 0-45.73 33.98-76.2 33.98-60.95 0-76.2-33.97-121.9-33.97-30.48 0-45.72 33.98-76.2 33.98-60.94 0-76.18-33.97-121.9-33.97-30.47 0-45.7 33.98-76.18 33.98-60.95 0-76.2-33.97-121.9-33.97-30.48 0-45.72 33.98-76.2 33.98-60.95 0-76.2-33.97-121.9-33.97-30.48 0-39.62 24.2-57.9 24.2v43.74c18.28 0 27.42-24.2 57.9-24.2 45.7 0 60.95 33.96 121.9 33.96 30.47 0 45.7-33.97 76.2-33.97 45.7 0 60.94 33.97 121.9 33.97 30.46 0 45.7-33.97 76.18-33.97 45.7 0 60.95 33.97 121.9 33.97 30.47 0 45.7-33.97 76.2-33.97 45.7 0 60.94 33.97 121.9 33.97 30.47 0 45.7-33.97 76.18-33.97 45.7 0 60.95 33.97 121.9 33.97 30.48 0 40.34-9.63 51.8-16.53v-50.23zm0-84.92c-11.47 6.9-21.33 23.04-51.8 23.04-60.96 0-76.2-33.97-121.9-33.97-30.5 0-45.73 33.96-76.2 33.96-60.95 0-76.2-33.97-121.9-33.97-30.48 0-45.72 33.96-76.2 33.96-60.94 0-76.18-33.97-121.9-33.97-30.47 0-45.7 33.96-76.18 33.96-60.95 0-76.2-33.97-121.9-33.97-30.48 0-45.72 33.96-76.2 33.96-60.95 0-76.2-33.97-121.9-33.97-30.48 0-39.62 24.2-57.9 24.2v43.72c18.28 0 27.42-24.2 57.9-24.2 45.7 0 60.95 33.96 121.9 33.96 30.48 0 45.72-33.96 76.2-33.96 45.7 0 60.95 33.96 121.9 33.96 30.47 0 45.7-33.96 76.2-33.96 45.7 0 60.94 33.96 121.9 33.96 30.46 0 45.7-33.96 76.18-33.96 45.7 0 60.95 33.96 121.9 33.96 30.48 0 45.7-33.96 76.2-33.96 45.7 0 60.94 33.96 121.9 33.96 30.47 0 40.33-9.62 51.8-16.52v-50.24zm0-84.9c-11.47 6.9-21.33 23.02-51.8 23.02-60.96 0-76.2-33.96-121.9-33.96-30.5 0-45.73 33.97-76.2 33.97-60.95 0-76.2-33.97-121.9-33.97-30.48 0-45.72 33.97-76.2 33.97-60.94 0-76.18-33.97-121.9-33.97-30.47 0-45.7 33.97-76.18 33.97-60.95 0-76.2-33.97-121.9-33.97-30.48 0-45.72 33.97-76.2 33.97-60.95 0-76.2-33.97-121.9-33.97-30.48 0-39.62 24.2-57.9 24.2v43.73c18.28 0 27.42-24.2 57.9-24.2 45.7 0 60.95 33.97 121.9 33.97 30.48 0 45.72-33.96 76.2-33.96 45.7 0 60.95 33.97 121.9 33.97 30.47 0 45.7-33.96 76.2-33.96 45.7 0 60.94 33.97 121.9 33.97 30.46 0 45.7-33.96 76.18-33.96 45.7 0 60.95 33.97 121.9 33.97 30.48 0 45.7-33.96 76.2-33.96 45.7 0 60.94 33.97 121.9 33.97 30.47 0 40.33-9.62 51.8-16.52V275.4zm0-84.92c-11.47 6.9-21.33 23.03-51.8 23.03-60.96 0-76.2-33.96-121.9-33.96-30.5 0-45.73 33.96-76.2 33.96-60.95 0-76.2-33.96-121.9-33.96-30.48 0-45.72 33.96-76.2 33.96-60.94 0-76.18-33.96-121.9-33.96-30.47 0-45.7 33.96-76.18 33.96-60.95 0-76.2-33.96-121.9-33.96-30.48 0-45.72 33.96-76.2 33.96-60.95 0-76.2-33.96-121.9-33.96-30.48 0-39.62 24.2-57.9 24.2v43.73c18.28 0 27.42-24.2 57.9-24.2 45.7 0 60.95 33.97 121.9 33.97 30.48 0 45.72-33.97 76.2-33.97 45.7 0 60.95 33.96 121.9 33.96 30.47 0 45.7-33.96 76.2-33.96 45.7 0 60.94 33.96 121.9 33.96 30.46 0 45.7-33.96 76.18-33.96 45.7 0 60.95 33.96 121.9 33.96 30.48 0 45.7-33.96 76.2-33.96 45.7 0 60.94 33.96 121.9 33.96 30.47 0 40.33-9.62 51.8-16.52V190.5zm0-84.9c-11.47 6.9-21.33 23.02-51.8 23.02-60.96 0-76.2-33.96-121.9-33.96-30.5 0-45.73 33.96-76.2 33.96-60.95 0-76.2-33.96-121.9-33.96-30.48 0-45.72 33.96-76.2 33.96-60.94 0-76.18-33.96-121.9-33.96-30.47 0-45.7 33.96-76.18 33.96-60.95 0-76.2-33.96-121.9-33.96-30.48 0-45.72 33.96-76.2 33.96-60.95 0-76.2-33.96-121.9-33.96-30.5 0-39.64 24.2-57.92 24.2v43.73c18.28 0 27.42-24.22 57.9-24.22 45.72 0 60.95 33.97 121.9 33.97 30.5 0 45.72-33.97 76.2-33.97 45.72 0 60.95 33.97 121.9 33.97 30.48 0 45.72-33.97 76.2-33.97 45.7 0 60.95 33.97 121.9 33.97 30.47 0 45.7-33.97 76.18-33.97 45.72 0 60.96 33.97 121.9 33.97 30.48 0 45.72-33.97 76.2-33.97 45.7 0 60.95 33.97 121.9 33.97 30.47 0 40.33-9.63 51.8-16.53V105.6zm0-84.93c-11.47 6.9-21.33 23.04-51.8 23.04-60.96 0-76.2-33.96-121.9-33.96-30.5 0-45.73 33.97-76.2 33.97-60.95 0-76.2-33.96-121.9-33.96-30.48 0-45.72 33.97-76.2 33.97-60.94 0-76.18-33.96-121.9-33.96-30.47 0-45.7 33.97-76.18 33.97-60.95 0-76.2-33.96-121.9-33.96-30.48 0-45.72 33.97-76.2 33.97-60.95 0-76.2-33.96-121.9-33.96-30.5 0-39.64 24.2-57.92 24.2v43.73c18.28 0 27.42-24.2 57.9-24.2 45.72 0 60.95 33.97 121.9 33.97 30.5 0 45.72-33.97 76.2-33.97 45.72 0 60.95 33.97 121.9 33.97 30.48 0 45.72-33.97 76.2-33.97 45.7 0 60.95 33.97 121.9 33.97 30.47 0 45.7-33.97 76.18-33.97 45.72 0 60.96 33.97 121.9 33.97 30.48 0 45.72-33.97 76.2-33.97 45.7 0 60.95 33.97 121.9 33.97 30.47 0 40.33-9.63 51.8-16.53V20.68zM0 .06h261.3v157.9H0z"/><path fill="#fff" d="M0 .06v17.66l232.1 140.25h29.2v-17.65L29.2.06H.02zm261.3 0v17.66L29.2 157.97H.02V140.3L232.1.07h29.2zM108.88.06v157.9h43.55V.07h-43.55zM0 52.7v52.63h261.3V52.7H0z"/><path fill="#c00" d="M0 63.23V94.8h261.3V63.24H0zM117.6.05v157.9h26.12V.07H117.6zM0 157.96l87.1-52.63h19.48l-87.1 52.64H0zM0 .07L87.1 52.7H67.63L0 11.83V.06zM154.73 52.7L241.83.06h19.48L174.2 52.7h-19.47zM261.3 157.97l-87.1-52.64h19.48l67.63 40.87v11.77z"/><path fill="#a24300" fill-rule="evenodd" stroke="#fff" stroke-width="6.935" d="M814.96-301.18l-17.72 708.66c0 37.3 80.1 37.3 88.58 0l-17.7-708.66h-53.16z" transform="matrix(.206 0 0 .49 211.633 267.436)"/><path fill="#006d00" fill-rule="evenodd" stroke="#fff" stroke-width="8.25" d="M496.06 549.2l17.72 70.88 35.43-53.15-17.7 88.58 35.43-35.42-35.44 88.58 35.43-35.43-35.44 88.58 35.43-35.42-35.44 106.3 35.43-35.44-35.44 106.3 35.43-35.43-35.44 106.3-17.72 53.16-17.72 17.72-17.72-17.72-17.7-53.15-35.45-106.3 35.43 35.44-35.44-106.3 35.43 35.44-35.44-106.3 35.43 35.43-35.44-88.57 35.43 35.43-35.44-88.58 35.43 35.43-17.72-88.57 35.44 53.15 17.72-70.87z" transform="matrix(-.235 .067 -.103 -.195 591.314 322.549)"/><path fill="none" stroke="#000" stroke-width="1pt" d="M496.06 549.2v496.08M425.2 868.1l70.86 106.3 70.87-106.3M425.2 797.24l70.87 106.3 70.86-106.3M425.2 726.38l70.87 106.3 70.86-106.3M425.2 673.23l70.87 88.58 70.86-88.57M425.2 620.08l70.87 88.58 70.86-88.58M442.9 566.93l53.16 106.3 53.15-106.3" transform="matrix(-.235 .067 -.103 -.195 591.314 322.549)"/><path fill="#006d00" fill-rule="evenodd" stroke="#fff" stroke-width="8.25" d="M496.06 549.2l17.72 70.88 35.43-53.15-17.7 88.58 35.43-35.42-35.44 88.58 35.43-35.43-35.44 88.58 35.43-35.42-35.44 106.3 35.43-35.44-35.44 106.3 35.43-35.43-35.44 106.3-17.72 53.16-17.72 17.72-17.72-17.72-17.7-53.15-35.45-106.3 35.43 35.44-35.44-106.3 35.43 35.44-35.44-106.3 35.43 35.43-35.44-88.57 35.43 35.43-35.44-88.58 35.43 35.43-17.72-88.57 35.44 53.15 17.72-70.87z" transform="matrix(.177 -.181 .221 .146 73.835 93.526)"/><path fill="none" stroke="#000" stroke-width="1pt" d="M496.06 549.2v496.08M425.2 868.1l70.86 106.3 70.87-106.3M425.2 797.24l70.87 106.3 70.86-106.3M425.2 726.38l70.87 106.3 70.86-106.3M425.2 673.23l70.87 88.58 70.86-88.57M425.2 620.08l70.87 88.58 70.86-88.58M442.9 566.93l53.16 106.3 53.15-106.3" transform="matrix(.177 -.181 .221 .146 73.835 93.526)"/><path fill="#006d00" fill-rule="evenodd" stroke="#fff" stroke-width="8.25" d="M496.06 549.2l17.72 70.88 35.43-53.15-17.7 88.58 35.43-35.42-35.44 88.58 35.43-35.43-35.44 88.58 35.43-35.42-35.44 106.3 35.43-35.44-35.44 106.3 35.43-35.43-35.44 106.3-17.72 53.16-17.72 17.72-17.72-17.72-17.7-53.15-35.45-106.3 35.43 35.44-35.44-106.3 35.43 35.44-35.44-106.3 35.43 35.43-35.44-88.57 35.43 35.43-35.44-88.58 35.43 35.43-17.72-88.57 35.44 53.15 17.72-70.87z" transform="matrix(.114 .216 -.249 .108 581.756 -57.78)"/><path fill="none" stroke="#000" stroke-width="1pt" d="M496.06 549.2v496.08M425.2 868.1l70.86 106.3 70.87-106.3M425.2 797.24l70.87 106.3 70.86-106.3M425.2 726.38l70.87 106.3 70.86-106.3M425.2 673.23l70.87 88.58 70.86-88.57M425.2 620.08l70.87 88.58 70.86-88.58M442.9 566.93l53.16 106.3 53.15-106.3" transform="matrix(.114 .216 -.249 .108 581.756 -57.78)"/><path fill="#006d00" fill-rule="evenodd" stroke="#fff" stroke-width="8.25" d="M496.06 549.2l17.72 70.88 35.43-53.15-17.7 88.58 35.43-35.42-35.44 88.58 35.43-35.43-35.44 88.58 35.43-35.42-35.44 106.3 35.43-35.44-35.44 106.3 35.43-35.43-35.44 106.3-17.72 53.16-17.72 17.72-17.72-17.72-17.7-53.15-35.45-106.3 35.43 35.44-35.44-106.3 35.43 35.44-35.44-106.3 35.43 35.43-35.44-88.57 35.43 35.43-35.44-88.58 35.43 35.43-17.72-88.57 35.44 53.15 17.72-70.87z" transform="matrix(-.157 .195 -.236 -.128 705.85 197.798)"/><path fill="none" stroke="#000" stroke-width="1pt" d="M496.06 549.2v496.08M425.2 868.1l70.86 106.3 70.87-106.3M425.2 797.24l70.87 106.3 70.86-106.3M425.2 726.38l70.87 106.3 70.86-106.3M425.2 673.23l70.87 88.58 70.86-88.57M425.2 620.08l70.87 88.58 70.86-88.58M442.9 566.93l53.16 106.3 53.15-106.3" transform="matrix(-.157 .195 -.236 -.128 705.85 197.798)"/><path fill="#006d00" fill-rule="evenodd" stroke="#fff" stroke-width="1.84.25" d="M295.8 230.6l9.78-13.66-14.9 2.16 18.4-10.46-11.77-.53 21.18-7.5-11.77-.52 21.18-7.5-11.77-.54 24.3-10.2-11.77-.52 24.3-10.2-11.77-.52 24.3-10.18 12.15-5.1 5.9.26-.38 5.63-6.64 11-13.28 21.95.75-11.24-13.28 21.97.75-11.25-13.28 21.97.76-11.26-10.16 19.3.76-11.26-10.15 19.28.75-11.24-12.9 16.34 3.9-13.93-15.3 7.78z"/><path fill="none" stroke="#000" stroke-width=".23pt" d="M295.8 230.6l87.7-75.02m-20.3 38.57l7.77-27.85-29.8 4.3M350.67 204.87l7.77-27.85-29.8 4.3M338.14 215.6l7.77-27.86-29.8 4.3M328.74 223.62l4.65-25.17-26.7 1.62M319.35 231.66L324 206.5l-26.7 1.6M307.2 236.76l10.53-24.9-27.06 7.23"/><path fill="#006d00" fill-rule="evenodd" stroke="#fff" stroke-width="8.25" d="M460.63 549.2l28.64 70.88 42.23-53.15-10.2 88.58 27.9-35.42-17.7 88.58 25.24-35.43-25.24 88.58 35.43-35.42-35.43 106.3 35.43-35.44-35.43 106.3 35.43-35.43-35.43 106.3-17.72 53.16-17.72 17.72-17.7-17.72-17.73-53.15-35.43-106.3 35.43 35.44-35.43-106.3 35.43 35.44-35.43-106.3 35.43 35.43L415 673.24l45.63 35.43-53.15-88.58 42.97 35.43-25.25-88.57 35.43 53.15V549.2z" transform="matrix(-.271 -.064 -.157 .204 684.121 -32.23)"/><path fill="none" stroke="#000" stroke-width="1pt" d="M467.2 584.65l28.86 124.02v336.62M436.23 885.83l59.83 88.58 60.68-88.57M434.53 814.96l61.53 88.58 60.68-88.58M435.38 744.1l60.68 88.58 59.84-88.58M432.84 690.94l63.23 70.87 53.15-70.86M425.2 637.8l70.87 70.86 45.4-70.86M436.12 593.24l53.15 86.9 35.33-95.5" transform="matrix(-.271 -.064 -.157 .204 684.121 -32.23)"/><path fill="#006d00" fill-rule="evenodd" stroke="#fff" stroke-width="8.25" d="M460.63 549.2l28.64 70.88 42.23-53.15-10.2 88.58 27.9-35.42-17.7 88.58 25.24-35.43-25.24 88.58 35.43-35.42-35.43 106.3 35.43-35.44-35.43 106.3 35.43-35.43-35.43 106.3-17.72 53.16-17.72 17.72-17.7-17.72-17.73-53.15-35.43-106.3 35.43 35.44-35.43-106.3 35.43 35.44-35.43-106.3 35.43 35.43L415 673.24l45.63 35.43-53.15-88.58 42.97 35.43-25.25-88.57 35.43 53.15V549.2z" transform="matrix(.27 .067 .01 .245 240.767 -138.419)"/><path fill="none" stroke="#000" stroke-width="1pt" d="M467.2 584.65l28.86 124.02v336.62M436.23 885.83l59.83 88.58 60.68-88.57M434.53 814.96l61.53 88.58 60.68-88.58M435.38 744.1l60.68 88.58 59.84-88.58M432.84 690.94l63.23 70.87 53.15-70.86M425.2 637.8l70.87 70.86 45.4-70.86M436.12 593.24l53.15 86.9 35.33-95.5" transform="matrix(.27 .067 .01 .245 240.767 -138.419)"/><path fill="#006d00" fill-rule="evenodd" stroke="#fff" stroke-width="8.25" d="M354.33 531.5l88.58 88.58 17.73-53.15v88.6l35.43-35.45-17.7 88.6 35.42-35.45-17.72 88.6 35.44-35.45-17.72 106.3 35.43-35.43-35.42 106.3 35.43-35.43-17.7 106.3-17.72 53.15-17.72 17.72-17.7-17.73-17.73-53.15-53.15-82.3 35.43 11.43-35.42-106.3 35.43 35.44-53.14-106.3 35.44 35.42-53.15-88.6 53.15 35.45-70.87-88.58 53.15 35.42-70.87-70.87 70.88 35.44-53.15-88.6z" transform="matrix(.035 -.235 .244 .042 115.462 229.538)"/><path fill="none" stroke="#000" stroke-width="1pt" d="M378.96 560.02l63.95 95.5 17.73 53.15 8.86 45.2 8.84 78.8 9.32 70.88 8.4 141.74M425.2 903.54l63.66 70.87 50.75-88.58M417.08 814.96l70.58 88.58 50.75-88.58M407.48 752.44l70.87 80.23 45.95-88.58M372.05 637.8l88.58 70.87 25.83-70.87M360.62 602.36l82.3 53.15 10.5-53.14m-63.66 88.58l81.1 70.87 33.94-70.86" transform="matrix(.035 -.235 .244 .042 115.462 229.538)"/><g fill-rule="evenodd"><path fill="#c00" stroke="#000" stroke-width="1pt" d="M541.46 1173.3l-1.7-229.13-61.1-106.94c-15.28-52.62-7.75-78.08 16.97-79.78 24.73-1.7 49.23 13.58 84.87 15.28 35.65 1.7 28.86-59.4 81.47-57.7 52.62 1.7 144.28 32.24 222.37 37.33 78.07 5.1 118.8-27.16 208.77-30.55 89.98-3.4 113.74 42.44 118.83 42.44s30.54-18.67 56-22.06c25.46-3.4 33.95 10.18 33.95 10.18s-1.7 57.7-13.58 91.66c-11.87 33.95-54.3 89.96-56 89.96-1.7 0-15.28 249.52-15.28 251.2 0 1.7-675.55-6.78-675.55-11.87z" transform="matrix(.137 0 0 .126 266.36 208.19)"/><g stroke="#000" stroke-width="1pt"><path fill="#fff100" d="M435.76 326.25s9.3-6.55 9.54-22.28c.14-9.04-4.7-15.6-16.8-15.6-16.94 0-41.14 6.7-41.14 6.7v2.22s19.36-6.7 41.14-6.7c9.68 0 14.52 6.56 14.52 13.24 0 11.14-9.68 22.4-9.68 22.4v17.83h2.42v-17.82z"/><path fill="#fff" d="M440.83 321.58c0 1.23 1.08 2.23 2.42 2.23 1.34 0 2.42-1 2.42-2.22 0-1.23-1.08-2.23-2.42-2.23-1.34 0-2.42 1-2.42 2.23zM443.25 316.48c0 1.23 1.08 2.23 2.42 2.23 1.34 0 2.42-1 2.42-2.22 0-1.23-1.1-2.22-2.43-2.22-1.34 0-2.42 1-2.42 2.22zM444.5 311.3c0 1.23 1.1 2.22 2.43 2.22 1.34 0 2.42-1 2.42-2.22 0-1.24-1.08-2.23-2.42-2.23-1.34 0-2.42 1-2.42 2.23zM445.44 305.75c0 1.23 1.08 2.22 2.42 2.22 1.33 0 2.42-1 2.42-2.22 0-1.23-1.1-2.23-2.42-2.23-1.34 0-2.42 1-2.42 2.23zM445.2 299.73c0 1.23 1.1 2.23 2.43 2.23s2.42-1 2.42-2.23-1.1-2.23-2.42-2.23c-1.34 0-2.42 1-2.42 2.23zM437.35 326.06c0 1.23 1.1 2.23 2.42 2.23 1.34 0 2.42-1 2.42-2.24 0-1.23-1.1-2.23-2.43-2.23s-2.42 1-2.42 2.23zM443.15 294.05c0 1.23 1.08 2.23 2.42 2.23 1.34 0 2.42-1 2.42-2.23s-1.1-2.23-2.43-2.23c-1.34 0-2.42 1-2.42 2.23zM438.74 289.57c0 1.23 1.1 2.22 2.42 2.22 1.34 0 2.42-1 2.42-2.23s-1.08-2.23-2.42-2.23c-1.33 0-2.42 1-2.42 2.23zM432.72 286.58c0 1.23 1.08 2.23 2.42 2.23 1.33 0 2.42-1 2.42-2.22 0-1.23-1.1-2.23-2.42-2.23-1.34 0-2.42 1-2.42 2.23zM426.7 286.15c0 1.23 1.07 2.23 2.4 2.23 1.34 0 2.43-1 2.43-2.23s-1.1-2.23-2.42-2.23c-1.33 0-2.4 1-2.4 2.23zM420.2 286.37c0 1.23 1.08 2.22 2.42 2.22 1.33 0 2.42-1 2.42-2.23s-1.1-2.23-2.42-2.23c-1.34 0-2.42 1-2.42 2.23zM413.7 287.22c0 1.23 1.1 2.23 2.43 2.23s2.42-1 2.42-2.23-1.1-2.23-2.42-2.23c-1.34 0-2.42 1-2.42 2.22zM407.2 288.07c0 1.23 1.1 2.23 2.43 2.23 1.34 0 2.42-1 2.42-2.23s-1.08-2.22-2.42-2.22c-1.33 0-2.42 1-2.42 2.22zM400.26 289.14c0 1.23 1.08 2.23 2.42 2.23 1.33 0 2.42-1 2.42-2.23s-1.1-2.23-2.42-2.23c-1.34 0-2.42 1-2.42 2.24zM394.23 290.64c0 1.23 1.08 2.22 2.42 2.22 1.34 0 2.42-1 2.42-2.22 0-1.24-1.08-2.23-2.42-2.23-1.34 0-2.42 1-2.42 2.24z"/></g><path fill="#fff" stroke="#000" stroke-width="1pt" d="M478.35 549.2c0 9.8-7.93 17.73-17.72 17.73-9.78 0-17.7-7.93-17.7-17.72 0-9.78 7.92-17.7 17.7-17.7 9.8 0 17.72 7.93 17.72 17.7z" transform="matrix(.137 0 0 .126 268.548 252.526)"/><path fill="#fff" stroke="#000" stroke-width="1pt" d="M478.35 549.2c0 9.8-7.93 17.73-17.72 17.73-9.78 0-17.7-7.93-17.7-17.72 0-9.78 7.92-17.7 17.7-17.7 9.8 0 17.72 7.93 17.72 17.7z" transform="matrix(.137 0 0 .126 266.128 247.432)"/><path fill="#fff" stroke="#000" stroke-width="1pt" d="M478.35 549.2c0 9.8-7.93 17.73-17.72 17.73-9.78 0-17.7-7.93-17.7-17.72 0-9.78 7.92-17.7 17.7-17.7 9.8 0 17.72 7.93 17.72 17.7z" transform="matrix(.137 0 0 .126 264.867 242.243)"/><path fill="#fff" stroke="#000" stroke-width="1pt" d="M478.35 549.2c0 9.8-7.93 17.73-17.72 17.73-9.78 0-17.7-7.93-17.7-17.72 0-9.78 7.92-17.7 17.7-17.7 9.8 0 17.72 7.93 17.72 17.7z" transform="matrix(.137 0 0 .126 263.94 236.694)"/><path fill="#fff" stroke="#000" stroke-width="1pt" d="M478.35 549.2c0 9.8-7.93 17.73-17.72 17.73-9.78 0-17.7-7.93-17.7-17.72 0-9.78 7.92-17.7 17.7-17.7 9.8 0 17.72 7.93 17.72 17.7z" transform="matrix(.137 0 0 .126 264.172 230.678)"/><path fill="#fff" stroke="#000" stroke-width="1pt" d="M478.35 549.2c0 9.8-7.93 17.73-17.72 17.73-9.78 0-17.7-7.93-17.7-17.72 0-9.78 7.92-17.7 17.7-17.7 9.8 0 17.72 7.93 17.72 17.7z" transform="matrix(.137 0 0 .126 266.23 224.996)"/><path fill="#fff" stroke="#000" stroke-width="1pt" d="M478.35 549.2c0 9.8-7.93 17.73-17.72 17.73-9.78 0-17.7-7.93-17.7-17.72 0-9.78 7.92-17.7 17.7-17.7 9.8 0 17.72 7.93 17.72 17.7z" transform="matrix(.137 0 0 .126 270.635 220.515)"/><path fill="#fff" stroke="#000" stroke-width="1pt" d="M478.35 549.2c0 9.8-7.93 17.73-17.72 17.73-9.78 0-17.7-7.93-17.7-17.72 0-9.78 7.92-17.7 17.7-17.7 9.8 0 17.72 7.93 17.72 17.7z" transform="matrix(.137 0 0 .126 276.662 217.527)"/><path fill="#fff" stroke="#000" stroke-width="1pt" d="M478.35 549.2c0 9.8-7.93 17.73-17.72 17.73-9.78 0-17.7-7.93-17.7-17.72 0-9.78 7.92-17.7 17.7-17.7 9.8 0 17.72 7.93 17.72 17.7z" transform="matrix(.137 0 0 .126 282.69 217.1)"/><path fill="#fff" stroke="#000" stroke-width="1pt" d="M478.35 549.2c0 9.8-7.93 17.73-17.72 17.73-9.78 0-17.7-7.93-17.7-17.72 0-9.78 7.92-17.7 17.7-17.7 9.8 0 17.72 7.93 17.72 17.7z" transform="matrix(.137 0 0 .126 289.181 217.314)"/><path fill="#fff" stroke="#000" stroke-width="1pt" d="M478.35 549.2c0 9.8-7.93 17.73-17.72 17.73-9.78 0-17.7-7.93-17.7-17.72 0-9.78 7.92-17.7 17.7-17.7 9.8 0 17.72 7.93 17.72 17.7z" transform="matrix(.137 0 0 .126 295.674 218.168)"/><path fill="#fff" stroke="#000" stroke-width="1pt" d="M478.35 549.2c0 9.8-7.93 17.73-17.72 17.73-9.78 0-17.7-7.93-17.7-17.72 0-9.78 7.92-17.7 17.7-17.7 9.8 0 17.72 7.93 17.72 17.7z" transform="matrix(.137 0 0 .126 302.166 219.021)"/><path fill="#fff" stroke="#000" stroke-width="1pt" d="M478.35 549.2c0 9.8-7.93 17.73-17.72 17.73-9.78 0-17.7-7.93-17.7-17.72 0-9.78 7.92-17.7 17.7-17.7 9.8 0 17.72 7.93 17.72 17.7z" transform="matrix(.137 0 0 .126 309.12 220.088)"/><path fill="#fff" stroke="#000" stroke-width="1pt" d="M478.35 549.2c0 9.8-7.93 17.73-17.72 17.73-9.78 0-17.7-7.93-17.7-17.72 0-9.78 7.92-17.7 17.7-17.7 9.8 0 17.72 7.93 17.72 17.7z" transform="matrix(.137 0 0 .126 315.149 221.583)"/><path fill="#fff" stroke="#000" stroke-width="1pt" d="M478.35 549.2c0 9.8-7.93 17.73-17.72 17.73-9.78 0-17.7-7.93-17.7-17.72 0-9.78 7.92-17.7 17.7-17.7 9.8 0 17.72 7.93 17.72 17.7z" transform="matrix(.137 0 0 .126 272.026 257.008)"/><path fill="#fff100" stroke="#000" stroke-width="1pt" d="M531.5 584.65s-67.98-52.1-69.8-177.17c-1.07-71.93 34.37-124.02 122.95-124.02 124.02 0 301.18 53.15 301.18 53.15v17.73s-141.73-53.15-301.18-53.15c-70.87 0-106.3 52.08-106.3 105.24 0 88.58 70.86 178.23 70.86 178.23v141.73h-17.7V584.65z" transform="matrix(.137 0 0 .126 266.36 252.74)"/><path fill="#fff100" stroke="#000" stroke-width=".1.991" d="M355.9 334.52s.7-1.7 3.23-1.7c1.72 0 3.22 1.7 3.22 3.4v3.4h1.62v-3.4c0-1.7 1.6-3.4 3.22-3.4 2.4 0 3.22 1.7 3.22 1.7s0-5.1-3.23-5.1c-2.43 0-3.23 1.7-3.23 1.7s.8-2.54.8-5.08-1.6-4.25-1.6-4.25c0 .32-1.62 1.7-1.62 4.24s.8 5.1.8 5.1-.8-1.7-3.22-1.7c-3.23 0-3.23 5.08-3.23 5.08zM404.3 334.52s.7-1.7 3.22-1.7c1.72 0 3.23 1.7 3.23 3.4v3.4h1.6v-3.4c0-1.7 1.63-3.4 3.24-3.4 2.4 0 3.22 1.7 3.22 1.7s0-5.1-3.23-5.1c-2.43 0-3.24 1.7-3.24 1.7s.8-2.54.8-5.08-1.6-4.25-1.6-4.25c0 .32-1.62 1.7-1.62 4.24s.8 5.1.8 5.1-.8-1.7-3.22-1.7c-3.22 0-3.22 5.08-3.22 5.08z"/><path fill="#fff100" stroke="#000" stroke-width="1pt" d="M531.5 832.68V673.23s35.43 53.15 88.58 53.15c43.5 0 88.58-70.87 88.58-70.87s41.52 53.16 88.6 53.16c42 0 88.5-68.57 88.5-68.57s43.2 68.56 88.65 68.56 88.6-53.15 88.6-53.15 46.28 70.88 106.3 70.88c53.14 0 70.86-53.15 70.86-53.15v159.45H531.5z" transform="matrix(.137 0 0 .126 266.36 252.74)"/><path fill="#fff100" stroke="#000" stroke-width="1pt" d="M708.66 832.68V708.66s106.3 35.43 106.3 124.02h-106.3z" transform="matrix(.137 0 0 .126 242.16 252.74)"/><path fill="#fff100" stroke="#000" stroke-width="1pt" d="M708.66 832.68V708.66s106.3 35.43 106.3 124.02h-106.3z" transform="matrix(-.137 0 0 .126 532.547 252.74)"/><path fill="#fff100" stroke="#000" stroke-width="1pt" d="M602.36 832.68c0-88.58 106.37-144.6 106.37-144.6s106.23 56.02 106.23 144.6h-212.6z" transform="matrix(.137 0 0 .126 266.36 252.74)"/><path fill="#fff100" stroke="#000" stroke-width="1pt" d="M602.36 832.68c0-88.58 106.37-144.6 106.37-144.6s106.23 56.02 106.23 144.6h-212.6z" transform="matrix(.137 0 0 .126 314.758 252.74)"/><path fill="#fff100" stroke="#000" stroke-width="1pt" d="M584.65 847.53c0-88.58 124.08-159.45 124.08-159.45s123.95 70.87 123.95 159.45H584.65z" transform="matrix(.137 0 0 .126 290.558 250.873)"/><path fill="#fff" stroke="#000" stroke-width="1pt" d="M1275.6 655.5c-35.43-17.7-166.02-35.42-376.28-35.42s-350.1 17.7-385.53 35.43c-35.44 17.73-35.44 53.16 0 70.88 35.42 17.7 175.27 35.43 385.53 35.43s340.84-17.7 376.28-35.42c35.44-17.72 35.44-53.15 0-70.87z" transform="matrix(.135 0 0 .126 265.898 275.015)"/><path fill="#808080" d="M435.76 366.34c0 4.46-40.26 4.46-48.4 4.46-8.8 0-48.4 1.2-48.4-4.46 0-4.45 39.93-4.45 48.4-4.45 8.47 0 48.4.9 48.4 4.44z"/><path fill="#c00" d="M343.8 350.34c0 1.46-1.1 2.64-2.42 2.64-1.34 0-2.42-1.18-2.42-2.64s1.08-2.63 2.42-2.63c1.33 0 2.42 1.18 2.42 2.64zm91.95 0c0 1.46-1.08 2.64-2.42 2.64-1.33 0-2.42-1.18-2.42-2.64s1.1-2.63 2.43-2.63c1.34 0 2.42 1.18 2.42 2.64z"/><path d="M392.2 348.93c0 1.46-2.17 2.64-4.84 2.64s-4.84-1.18-4.84-2.64 2.16-2.63 4.84-2.63 4.84 1.18 4.84 2.63z"/><path fill="#006300" d="M415.4 348.93c0 1.46-1.6 2.64-3.62 2.64-2 0-3.63-1.18-3.63-2.64s1.63-2.63 3.63-2.63 3.63 1.18 3.63 2.63zm-49.82 0c0 1.46-1.63 2.64-3.63 2.64s-3.63-1.18-3.63-2.64 1.62-2.63 3.63-2.63c2 0 3.63 1.18 3.63 2.63z"/><path fill="#fff100" stroke="#000" stroke-width="2.188" d="M1257.9 496.06s35.44-53.15 70.87-53.15h35.43v35.44c0 53.15-53.15 70.87-53.15 70.87h141.74s-53.16-17.7-53.16-70.86V442.9h35.43c35.43 0 70.87 53.16 70.87 53.16V354.33s-35.44 53.15-70.87 53.15h-35.43v-35.43c0-53.15 53.15-70.87 53.15-70.87h-141.75s53.15 17.72 53.15 70.87v35.43h-35.43c-35.43 0-70.87-53.15-70.87-53.15v141.73z" transform="matrix(.078 0 0 .072 279.5 297.926)"/><path fill="#fff100" stroke="#000" stroke-width="3.307" d="M1381.9 549.2h70.87s-53.15-17.7-53.15-70.86V442.9h35.43c35.43 0 70.87 53.16 70.87 53.16V354.33s-35.44 53.15-70.87 53.15h-35.43v-35.43c0-53.15 53.15-70.87 53.15-70.87h-70.87V549.2z" transform="matrix(.039 0 0 .063 285.03 307.314)"/><path fill="#fff100" stroke="#000" stroke-width="3.307" d="M1381.9 549.2h70.87s-53.15-17.7-53.15-70.86V442.9h35.43c35.43 0 70.87 53.16 70.87 53.16V354.33s-35.44 53.15-70.87 53.15h-35.43v-35.43c0-53.15 53.15-70.87 53.15-70.87h-70.87V549.2z" transform="matrix(-.039 0 0 .063 489.685 307.314)"/><path fill="#fff" stroke="#000" stroke-width="1pt" d="M903.54 602.36c0 9.79-7.93 17.72-17.72 17.72-9.78 0-17.7-7.94-17.7-17.72 0-9.79 7.92-17.72 17.7-17.72 9.8 0 17.72 7.94 17.72 17.72z" transform="matrix(.137 0 0 .126 266.36 252.74)"/><path fill="#fff100" stroke="#000" stroke-width="2.188" d="M1257.9 496.06s35.44-53.15 70.87-53.15h35.43v35.44c0 53.15-53.15 70.87-53.15 70.87h141.74s-53.16-17.7-53.16-70.86V442.9h35.43c35.43 0 70.87 53.16 70.87 53.16V354.33s-35.44 53.15-70.87 53.15h-35.43v-35.43c0-53.15 53.15-70.87 53.15-70.87h-141.75s53.15 17.72 53.15 70.87v35.43h-35.43c-35.43 0-70.87-53.15-70.87-53.15v141.73z" transform="matrix(.078 0 0 .072 279.5 251.15)"/><path fill="#fff" stroke="#000" stroke-width="1pt" d="M903.54 602.36c0 9.79-7.93 17.72-17.72 17.72-9.78 0-17.7-7.94-17.7-17.72 0-9.79 7.92-17.72 17.7-17.72 9.8 0 17.72 7.94 17.72 17.72z" transform="matrix(.137 0 0 .126 266.592 206.336)"/><path fill="#fff100" stroke="#000" stroke-width="1pt" d="M850.4 655.5h70.86v53.16H850.4zM850.4 683.3h70.86v202.53H850.4z" transform="matrix(.137 0 0 .126 266.36 208.19)"/><path fill="#fff" stroke="#000" stroke-width="1pt" d="M478.35 549.2c0 9.8-7.93 17.73-17.72 17.73-9.78 0-17.7-7.93-17.7-17.72 0-9.78 7.92-17.7 17.7-17.7 9.8 0 17.72 7.93 17.72 17.7z" transform="matrix(.137 0 0 .126 324.438 246.057)"/><path fill="#fff" stroke="#000" stroke-width="1pt" d="M478.35 549.2c0 9.8-7.93 17.73-17.72 17.73-9.78 0-17.7-7.93-17.7-17.72 0-9.78 7.92-17.7 17.7-17.7 9.8 0 17.72 7.93 17.72 17.7z" transform="matrix(.137 0 0 .126 324.438 240.295)"/><path fill="#fff" stroke="#000" stroke-width="1pt" d="M478.35 549.2c0 9.8-7.93 17.73-17.72 17.73-9.78 0-17.7-7.93-17.7-17.72 0-9.78 7.92-17.7 17.7-17.7 9.8 0 17.72 7.93 17.72 17.7z" transform="matrix(.137 0 0 .126 324.438 234.92)"/><path fill="#fff" stroke="#000" stroke-width="1pt" d="M478.35 549.2c0 9.8-7.93 17.73-17.72 17.73-9.78 0-17.7-7.93-17.7-17.72 0-9.78 7.92-17.7 17.7-17.7 9.8 0 17.72 7.93 17.72 17.7z" transform="matrix(.137 0 0 .126 324.438 229.372)"/><path d="M392.5 357.48c0 1-2.2 1.8-4.92 1.8s-4.92-.8-4.92-1.8 2.2-1.8 4.92-1.8c2.7 0 4.92.8 4.92 1.8zm44.57 4.42c-.28.7-2.67.75-5.35.13-2.7-.6-4.64-1.67-4.37-2.35.27-.7 2.67-.75 5.35-.13 2.68.6 4.64 1.67 4.37 2.35zm-18.63-3c-.1.88-2.44 1.44-5.2 1.25-2.78-.2-4.93-1.07-4.83-1.95.12-.88 2.45-1.44 5.22-1.25 2.77.2 4.92 1.07 4.82 1.95zm-81.87 3c.27.7 2.67.75 5.35.13 2.68-.6 4.64-1.67 4.36-2.35-.27-.7-2.66-.75-5.35-.13-2.68.6-4.64 1.67-4.36 2.35zm19.56-3.43c.1.88 2.44 1.44 5.2 1.25 2.77-.2 4.93-1.07 4.82-1.95-.1-.88-2.44-1.44-5.2-1.24-2.77.2-4.93 1.06-4.82 1.94z"/></g></g></svg>