<svg xmlns="http://www.w3.org/2000/svg" width="640" height="480"><path fill="#fff" d="M0 160h640v160H0z"/><path fill="#ce1126" d="M0 0h640v160H0z"/><path d="M0 320h640v160H0z"/><g fill="#007a3d" transform="translate(-179.27 -92.847) scale(1.752)"><path d="M325.52 173.18c-.55-.3-1.18-.77-1.4-1.06-.3-.44-.12-.45 1.17-.1 2.3.63 3.8.38 5.3-.87l1.3-1.1 1.54.78c.85.42 1.75.72 2 .65.68-.17 2.06-1.95 2-2.56-.04-.76.6-.57.9.26.62 1.63-.27 3.5-1.86 3.92-.77.2-1.48.13-2.66-.28-1.43-.5-1.68-.5-2.4.06-1.62 1.24-3.87 1.35-5.9.3zm5.74-5.25c-.57-.7-1.24-3.42-1.02-4.08.2-.58.4-.7.9-.53.93.3 1.14.92 1 3.07-.1 1.73-.36 2.2-.88 1.53zM263.74 166c-.18 1.3 2.33 4.56 3.46 5.15-.77.34-1.73.2-2.43.57-3.95 3.95-18.37 18-21 21.37 7.8.15 16.45-.1 23.76-.45 0-5.3 5.02-5.57 8.38-7.5 1.74 2.72 6.08 2.5 6.63 6.62 0 4.9 0 12.3 0 17.64h-66.62c-1.16 5.2-5.83 9.14-12.34 7.5 2-2.1 5.4-2.8 6.62-5.72 1.02-6.37-2.05-10.3-4.04-13.9 3.3-1.2 3.8-1.5 7.12-3.74-2.34 7.12 6.1 6.33 12.36 6.17.2-2.4.1-5.26-1.77-5.6 2.4-.88 2.8-1.18 6.62-4.43v9.6c14.9 0 30.94-.1 46.14-.1 0-3.02.8-7.84-1.57-7.84-2.27 0-.1 6.17-1.87 6.17h-35.63c0-1.32-.03-4.1-.03-6.1 1.5-1.5 1.33-1.38 11.64-11.7 1.03-1.03 8.27-7.57 14.6-13.7zm89.06-.26c2.5 1.34 4.46 3.2 7.5 3.97-.35 1.27-1.47 1.77-1.77 3.1v26.9c3.4.76 4.13-1.17 5.74-2.2.45 4.3 3.2 8.53 3.1 11.9H352.8v-43.66zm-19.4 14.4s5.3-4.46 5.3-4.63V199h3.8c0-8.96-.12-18.04-.12-26.35 1.55-1.55 4.58-3.8 5.34-5.36v42.05c-10.74 0-30.8 0-33.44 0-.5-8.72-.58-17.76 9.6-15.82v-3.56c-.3-.6-.87.15-1-.64 1.62-1.62 2.16-2.03 6.54-5.85 0 4.6.08 15.5.08 15.5 1.07 0 3.15 0 3.86 0 0 0 .03-18.23.03-18.83zm-12.56 18.6c.7 1.1 3.15 1.07 3.04-.74-.4-1.5-3.62-.93-3.04.75z"/><circle cx="224.026" cy="214.369" r="2.042"/><path d="M287.05 165.78c2.5 1.34 4.45 3.2 7.5 3.97-.35 1.26-1.48 1.76-1.77 3.1v26.9c3.4.75 4.12-1.18 5.74-2.2.44 4.3 3.18 8.52 3.1 11.9h-14.57c0-14.55 0-29.1 0-43.67z"/></g></svg>