<svg xmlns="http://www.w3.org/2000/svg" width="640" height="480"><defs><clipPath id="a"><path fill-opacity=".67" d="M-85.3 0h682.66v512H-85.3z"/></clipPath></defs><g fill-rule="evenodd" clip-path="url(#a)" transform="translate(79.98) scale(.938)"><path fill="#fff" d="M-191.96 0h896v512h-896z"/><path fill="#da0000" d="M-191.96 343.84h896V512h-896z"/><g fill="#fff"><path d="M-21.63 350.96h49.07v3.38h-49.07zm7.32 16.88h3.36v3.28h-3.37zm41.87-.1v3.37h-9.8v-3.36zm5.27-16.78h3.38v20.16h-3.38zM52.38 367.74v3.37h-18.6v-3.36zm-34.62-7.9h3.38v11.28h-3.38zM49.6 350.96H53v20.16h-3.4zm-8.43 0h3.38v20.16h-3.38zm-44.8 8.02v3.38h-17.9v-3.38zm39.3 0v3.38h-17.9v-3.38zM17.76 359.85h3.38v11.27h-3.38zM17.76 359.85h3.38v11.27h-3.38zM17.76 359.85h3.38v11.27h-3.38zm-39.3 0h3.38v11.27h-3.38zm28.8 0h3.4v11.27h-3.4zm-14.26 0h3.38v11.27H-7zM9.64 367.74v3.37H-5.5v-3.36zm1-8.76v3.38h-9.6v-3.38z"/></g><g fill="#fff"><path d="M-102.23 350.96h49.07v3.38h-49.07zm7.32 16.88h3.37v3.28h-3.38zm41.87-.1v3.37h-9.8v-3.36zm5.27-16.78h3.38v20.16h-3.38zM-28.22 367.74v3.37h-18.6v-3.36zm-34.62-7.9h3.38v11.28h-3.38zM-31 350.96h3.4v20.16H-31zm-8.43 0h3.38v20.16h-3.38zm-44.8 8.02v3.38h-17.9v-3.38zm39.3 0v3.38h-17.9v-3.38zM-62.84 359.85h3.38v11.27h-3.38zM-62.84 359.85h3.38v11.27h-3.38zM-62.84 359.85h3.38v11.27h-3.38zm-39.3 0h3.38v11.27h-3.38zm28.8 0h3.4v11.27h-3.4zm-14.26 0h3.37v11.27h-3.37zM-70.96 367.74v3.37H-86.1v-3.36zm1-8.76v3.38h-9.6v-3.38z"/></g><g fill="#fff"><path d="M58.3 350.96h49.07v3.38H58.3zm7.3 16.88H69v3.28h-3.4zm41.9-.1v3.37h-9.8v-3.36zm5.27-16.78h3.38v20.16h-3.38zM132.3 367.74v3.37h-18.58v-3.36zm-34.6-7.9h3.36v11.28H97.7zM129.54 350.96h3.38v20.16h-3.38zm-8.44 0h3.37v20.16h-3.37zm-44.8 8.02v3.38H58.4v-3.38zm39.3 0v3.38H97.7v-3.38zM97.7 359.85h3.36v11.27H97.7zM97.7 359.85h3.36v11.27H97.7zM97.7 359.85h3.36v11.27H97.7zm-39.3 0h3.36v11.27H58.4zm28.8 0h3.37v11.27H87.2zm-14.28 0h3.38v11.27h-3.38zM89.56 367.74v3.37H74.42v-3.36zm1-8.76v3.38h-9.6v-3.38z"/></g><g fill="#fff"><path d="M622.68 350.96h49.07v3.38h-49.07zm7.32 16.88h3.38v3.28H630zm41.88-.1v3.37h-9.8v-3.36zm5.27-16.78h3.38v20.16h-3.38zM696.7 367.74v3.37h-18.6v-3.36zm-34.63-7.9h3.38v11.28h-3.38zM693.92 350.96h3.38v20.16h-3.38zm-8.44 0h3.38v20.16h-3.38zm-44.8 8.02v3.38h-17.9v-3.38zm39.3 0v3.38h-17.9v-3.38zM662.07 359.85h3.38v11.27h-3.38zM662.07 359.85h3.38v11.27h-3.38zM662.07 359.85h3.38v11.27h-3.38zm-39.3 0h3.38v11.27h-3.38zm28.8 0h3.4v11.27h-3.4zm-14.26 0h3.4v11.27h-3.4zM653.95 367.74v3.37H638.8v-3.36zm1-8.76v3.38h-9.6v-3.38z"/></g><g fill="#fff"><path d="M138.74 350.96h49.07v3.38h-49.06zm7.32 16.88h3.37v3.28h-3.37zm41.88-.1v3.37h-9.8v-3.36zm5.27-16.78h3.4v20.16h-3.4zM212.75 367.74v3.37h-18.6v-3.36zm-34.62-7.9h3.38v11.28h-3.37zM209.98 350.96h3.38v20.16h-3.38zm-8.44 0h3.38v20.16h-3.38zm-44.8 8.02v3.38h-17.9v-3.38zm39.3 0v3.38h-17.9v-3.38zM178.13 359.85h3.38v11.27h-3.37zM178.13 359.85h3.38v11.27h-3.37zM178.13 359.85h3.38v11.27h-3.37zm-39.3 0h3.38v11.27h-3.37zm28.8 0h3.4v11.27h-3.4zm-14.26 0h3.38v11.27h-3.38zM170 367.74v3.37h-15.13v-3.36zm1.02-8.76v3.38h-9.6v-3.38z"/></g><g fill="#fff"><path d="M219.48 350.96h49.07v3.38h-49.07zm7.32 16.88h3.37v3.28h-3.37zm41.88-.1v3.37h-9.8v-3.36zm5.27-16.78h3.38v20.16h-3.38zM293.5 367.74v3.37h-18.6v-3.36zm-34.63-7.9h3.38v11.28h-3.38zM290.72 350.96h3.38v20.16h-3.38zm-8.44 0h3.38v20.16h-3.38zm-44.8 8.02v3.38h-17.9v-3.38zm39.3 0v3.38h-17.9v-3.38zM258.87 359.85h3.38v11.27h-3.38zM258.87 359.85h3.38v11.27h-3.38zM258.87 359.85h3.38v11.27h-3.38zm-39.3 0h3.38v11.27h-3.38zm28.8 0h3.4v11.27h-3.4zm-14.26 0h3.38v11.27h-3.37zM250.75 367.74v3.37H235.6v-3.36zm1-8.76v3.38h-9.6v-3.38z"/></g><path fill="#239f40" d="M-191.96 0h896v168.16h-896z"/><g fill="#fff"><path d="M300.7 350.96h49.06v3.38H300.7zm7.3 16.88h3.38v3.28H308zm41.9-.1v3.37h-9.82v-3.36zm5.26-16.78h3.38v20.16h-3.38zM374.7 367.74v3.37h-18.6v-3.36zm-34.62-7.9h3.38v11.28h-3.38zM371.93 350.96h3.38v20.16h-3.37zm-8.44 0h3.37v20.16h-3.38zm-44.8 8.02v3.38h-17.92v-3.38zm39.3 0v3.38h-17.92v-3.38zM340.08 359.85h3.38v11.27h-3.38zM340.08 359.85h3.38v11.27h-3.38zM340.08 359.85h3.38v11.27h-3.38zm-39.3 0h3.38v11.27h-3.38zm28.8 0h3.4v11.27h-3.4zm-14.26 0h3.38v11.27h-3.38zM331.96 367.74v3.37h-15.14v-3.36zm1-8.76v3.38h-9.6v-3.38z"/></g><g fill="#fff"><path d="M381.42 350.96h49.07v3.38H381.4zm7.32 16.88h3.37v3.28h-3.36zm41.88-.1v3.37h-9.8v-3.36zm5.27-16.78h3.37v20.16h-3.38zM455.43 367.74v3.37h-18.6v-3.36zm-34.62-7.9h3.4v11.28h-3.4zM452.66 350.96h3.38v20.16h-3.38zm-8.44 0h3.38v20.16h-3.38zm-44.8 8.02v3.38h-17.9v-3.38zm39.3 0v3.38h-17.9v-3.38zM420.8 359.85h3.4v11.27h-3.4zM420.8 359.85h3.4v11.27h-3.4zM420.8 359.85h3.4v11.27h-3.4zm-39.3 0h3.4v11.27h-3.4zm28.82 0h3.38v11.27h-3.38zm-14.27 0h3.37v11.27h-3.37zM412.7 367.74v3.37h-15.15v-3.36zm1-8.76v3.38h-9.6v-3.38z"/></g><g fill="#fff"><path d="M462.16 350.96h49.07v3.38h-49.07zm7.32 16.88h3.37v3.28h-3.37zm41.88-.1v3.37h-9.8v-3.36zm5.27-16.78H520v20.16h-3.37zM536.17 367.74v3.37h-18.6v-3.36zm-34.62-7.9h3.38v11.28h-3.38zM533.4 350.96h3.38v20.16h-3.38zm-8.44 0h3.38v20.16h-3.38zm-44.8 8.02v3.38h-17.9v-3.38zm39.3 0v3.38h-17.9v-3.38zM501.55 359.85h3.38v11.27h-3.38zM501.55 359.85h3.38v11.27h-3.38zM501.55 359.85h3.38v11.27h-3.38zm-39.3 0h3.38v11.27h-3.38zm28.8 0h3.4v11.27h-3.4zm-14.26 0h3.36v11.27h-3.37zM493.43 367.74v3.37H478.3v-3.36zm1-8.76v3.38h-9.6v-3.38z"/></g><g fill="#fff"><path d="M543.37 350.96h49.07v3.38h-49.07zm7.32 16.88h3.36v3.28h-3.37zm41.87-.1v3.37h-9.8v-3.36zm5.27-16.78h3.38v20.16h-3.38zM617.38 367.74v3.37h-18.6v-3.36zm-34.62-7.9h3.38v11.28h-3.38zM614.6 350.96h3.4v20.16h-3.4zm-8.43 0h3.38v20.16h-3.38zm-44.8 8.02v3.38h-17.9v-3.38zm39.3 0v3.38h-17.9v-3.38zM582.76 359.85h3.38v11.27h-3.38zM582.76 359.85h3.38v11.27h-3.38zM582.76 359.85h3.38v11.27h-3.38zm-39.3 0h3.38v11.27h-3.38zm28.8 0h3.4v11.27h-3.4zm-14.26 0h3.38v11.27H558zM574.64 367.74v3.37H559.5v-3.36zm1-8.76v3.38h-9.6v-3.38z"/></g><g fill="#fff"><path d="M-183.8 350.96h49.08v3.38h-49.07zm7.33 16.88h3.37v3.28h-3.37zm41.88-.1v3.37h-9.8v-3.36zm5.28-16.78h3.38v20.16h-3.38zM-109.78 367.74v3.37h-18.6v-3.36zm-34.62-7.9h3.38v11.28h-3.38zM-112.55 350.96h3.38v20.16h-3.38zm-8.44 0h3.4v20.16h-3.4zm-44.8 8.02v3.38h-17.9v-3.38zm39.3 0v3.38h-17.9v-3.38zM-144.4 359.85h3.38v11.27h-3.38zM-144.4 359.85h3.38v11.27h-3.38zM-144.4 359.85h3.38v11.27h-3.38zm-39.3 0h3.38v11.27h-3.38zm28.8 0h3.4v11.27h-3.4zm-14.26 0h3.37v11.27h-3.36zM-152.52 367.74v3.37h-15.14v-3.36zm1-8.76v3.38h-9.6v-3.38z"/></g><g fill="#fff"><path d="M-21.63 143.44h49.07v3.38h-49.07zm7.32 16.9h3.36v3.27h-3.37zm41.87-.12v3.38h-9.8v-3.38zm5.27-16.78h3.38v20.16h-3.38zM52.38 160.22v3.38h-18.6v-3.38zm-34.62-7.9h3.38v11.28h-3.38zM49.6 143.44H53v20.16h-3.4zm-8.43 0h3.38v20.16h-3.38zm-44.8 8.03v3.37h-17.9v-3.37zm39.3 0v3.37h-17.9v-3.37zM17.76 152.33h3.38v11.27h-3.38zM17.76 152.33h3.38v11.27h-3.38zM17.76 152.33h3.38v11.27h-3.38zm-39.3 0h3.38v11.27h-3.38zm28.8 0h3.4v11.27h-3.4zm-14.26 0h3.38v11.27H-7zM9.64 160.22v3.38H-5.5v-3.38zm1-8.75v3.37h-9.6v-3.37z"/></g><g fill="#fff"><path d="M-102.23 143.44h49.07v3.38h-49.07zm7.32 16.9h3.37v3.27h-3.38zm41.87-.12v3.38h-9.8v-3.38zm5.27-16.78h3.38v20.16h-3.38zM-28.22 160.22v3.38h-18.6v-3.38zm-34.62-7.9h3.38v11.28h-3.38zM-31 143.44h3.4v20.16H-31zm-8.43 0h3.38v20.16h-3.38zm-44.8 8.03v3.37h-17.9v-3.37zm39.3 0v3.37h-17.9v-3.37zM-62.84 152.33h3.38v11.27h-3.38zM-62.84 152.33h3.38v11.27h-3.38zM-62.84 152.33h3.38v11.27h-3.38zm-39.3 0h3.38v11.27h-3.38zm28.8 0h3.4v11.27h-3.4zm-14.26 0h3.37v11.27h-3.37zM-70.96 160.22v3.38H-86.1v-3.38zm1-8.75v3.37h-9.6v-3.37z"/></g><g fill="#fff"><path d="M58.3 143.44h49.07v3.38H58.3zm7.3 16.9H69v3.27h-3.4zm41.9-.12v3.38h-9.8v-3.38zm5.27-16.78h3.38v20.16h-3.38zM132.3 160.22v3.38h-18.58v-3.38zm-34.6-7.9h3.36v11.28H97.7zM129.54 143.44h3.38v20.16h-3.38zm-8.44 0h3.37v20.16h-3.37zm-44.8 8.03v3.37H58.4v-3.37zm39.3 0v3.37H97.7v-3.37zM97.7 152.33h3.36v11.27H97.7zM97.7 152.33h3.36v11.27H97.7zM97.7 152.33h3.36v11.27H97.7zm-39.3 0h3.36v11.27H58.4zm28.8 0h3.37v11.27H87.2zm-14.28 0h3.38v11.27h-3.38zM89.56 160.22v3.38H74.42v-3.38zm1-8.75v3.37h-9.6v-3.37z"/></g><g fill="#fff"><path d="M622.68 143.44h49.07v3.38h-49.07zm7.32 16.9h3.38v3.27H630zm41.88-.12v3.38h-9.8v-3.38zm5.27-16.78h3.38v20.16h-3.38zM696.7 160.22v3.38h-18.6v-3.38zm-34.63-7.9h3.38v11.28h-3.38zM693.92 143.44h3.38v20.16h-3.38zm-8.44 0h3.38v20.16h-3.38zm-44.8 8.03v3.37h-17.9v-3.37zm39.3 0v3.37h-17.9v-3.37zM662.07 152.33h3.38v11.27h-3.38zM662.07 152.33h3.38v11.27h-3.38zM662.07 152.33h3.38v11.27h-3.38zm-39.3 0h3.38v11.27h-3.38zm28.8 0h3.4v11.27h-3.4zm-14.26 0h3.4v11.27h-3.4zM653.95 160.22v3.38H638.8v-3.38zm1-8.75v3.37h-9.6v-3.37z"/></g><g fill="#fff"><path d="M138.74 143.44h49.07v3.38h-49.06zm7.32 16.9h3.37v3.27h-3.37zm41.88-.12v3.38h-9.8v-3.38zm5.27-16.78h3.4v20.16h-3.4zM212.75 160.22v3.38h-18.6v-3.38zm-34.62-7.9h3.38v11.28h-3.37zM209.98 143.44h3.38v20.16h-3.38zm-8.44 0h3.38v20.16h-3.38zm-44.8 8.03v3.37h-17.9v-3.37zm39.3 0v3.37h-17.9v-3.37zM178.13 152.33h3.38v11.27h-3.37zM178.13 152.33h3.38v11.27h-3.37zM178.13 152.33h3.38v11.27h-3.37zm-39.3 0h3.38v11.27h-3.37zm28.8 0h3.4v11.27h-3.4zm-14.26 0h3.38v11.27h-3.38zM170 160.22v3.38h-15.13v-3.38zm1.02-8.75v3.37h-9.6v-3.37z"/></g><g fill="#fff"><path d="M219.48 143.44h49.07v3.38h-49.07zm7.32 16.9h3.37v3.27h-3.37zm41.88-.12v3.38h-9.8v-3.38zm5.27-16.78h3.38v20.16h-3.38zM293.5 160.22v3.38h-18.6v-3.38zm-34.63-7.9h3.38v11.28h-3.38zM290.72 143.44h3.38v20.16h-3.38zm-8.44 0h3.38v20.16h-3.38zm-44.8 8.03v3.37h-17.9v-3.37zm39.3 0v3.37h-17.9v-3.37zM258.87 152.33h3.38v11.27h-3.38zM258.87 152.33h3.38v11.27h-3.38zM258.87 152.33h3.38v11.27h-3.38zm-39.3 0h3.38v11.27h-3.38zm28.8 0h3.4v11.27h-3.4zm-14.26 0h3.38v11.27h-3.37zM250.75 160.22v3.38H235.6v-3.38zm1-8.75v3.37h-9.6v-3.37z"/></g><g fill="#fff"><path d="M300.7 143.44h49.06v3.38H300.7zm7.3 16.9h3.38v3.27H308zm41.9-.12v3.38h-9.82v-3.38zm5.26-16.78h3.38v20.16h-3.38zM374.7 160.22v3.38h-18.6v-3.38zm-34.62-7.9h3.38v11.28h-3.38zM371.93 143.44h3.38v20.16h-3.37zm-8.44 0h3.37v20.16h-3.38zm-44.8 8.03v3.37h-17.92v-3.37zm39.3 0v3.37h-17.92v-3.37zM340.08 152.33h3.38v11.27h-3.38zM340.08 152.33h3.38v11.27h-3.38zM340.08 152.33h3.38v11.27h-3.38zm-39.3 0h3.38v11.27h-3.38zm28.8 0h3.4v11.27h-3.4zm-14.26 0h3.38v11.27h-3.38zM331.96 160.22v3.38h-15.14v-3.38zm1-8.75v3.37h-9.6v-3.37z"/></g><g fill="#fff"><path d="M381.42 143.44h49.07v3.38H381.4zm7.32 16.9h3.37v3.27h-3.36zm41.88-.12v3.38h-9.8v-3.38zm5.27-16.78h3.37v20.16h-3.38zM455.43 160.22v3.38h-18.6v-3.38zm-34.62-7.9h3.4v11.28h-3.4zM452.66 143.44h3.38v20.16h-3.38zm-8.44 0h3.38v20.16h-3.38zm-44.8 8.03v3.37h-17.9v-3.37zm39.3 0v3.37h-17.9v-3.37zM420.8 152.33h3.4v11.27h-3.4zM420.8 152.33h3.4v11.27h-3.4zM420.8 152.33h3.4v11.27h-3.4zm-39.3 0h3.4v11.27h-3.4zm28.82 0h3.38v11.27h-3.38zm-14.27 0h3.37v11.27h-3.37zM412.7 160.22v3.38h-15.15v-3.38zm1-8.75v3.37h-9.6v-3.37z"/></g><g fill="#fff"><path d="M462.16 143.44h49.07v3.38h-49.07zm7.32 16.9h3.37v3.27h-3.37zm41.88-.12v3.38h-9.8v-3.38zm5.27-16.78H520v20.16h-3.37zM536.17 160.22v3.38h-18.6v-3.38zm-34.62-7.9h3.38v11.28h-3.38zM533.4 143.44h3.38v20.16h-3.38zm-8.44 0h3.38v20.16h-3.38zm-44.8 8.03v3.37h-17.9v-3.37zm39.3 0v3.37h-17.9v-3.37zM501.55 152.33h3.38v11.27h-3.38zM501.55 152.33h3.38v11.27h-3.38zM501.55 152.33h3.38v11.27h-3.38zm-39.3 0h3.38v11.27h-3.38zm28.8 0h3.4v11.27h-3.4zm-14.26 0h3.36v11.27h-3.37zM493.43 160.22v3.38H478.3v-3.38zm1-8.75v3.37h-9.6v-3.37z"/></g><g fill="#fff"><path d="M543.37 143.44h49.07v3.38h-49.07zm7.32 16.9h3.36v3.27h-3.37zm41.87-.12v3.38h-9.8v-3.38zm5.27-16.78h3.38v20.16h-3.38zM617.38 160.22v3.38h-18.6v-3.38zm-34.62-7.9h3.38v11.28h-3.38zM614.6 143.44h3.4v20.16h-3.4zm-8.43 0h3.38v20.16h-3.38zm-44.8 8.03v3.37h-17.9v-3.37zm39.3 0v3.37h-17.9v-3.37zM582.76 152.33h3.38v11.27h-3.38zM582.76 152.33h3.38v11.27h-3.38zM582.76 152.33h3.38v11.27h-3.38zm-39.3 0h3.38v11.27h-3.38zm28.8 0h3.4v11.27h-3.4zm-14.26 0h3.38v11.27H558zM574.64 160.22v3.38H559.5v-3.38zm1-8.75v3.37h-9.6v-3.37z"/></g><g fill="#fff"><path d="M-183.8 143.44h49.08v3.38h-49.07zm7.33 16.9h3.37v3.27h-3.37zm41.88-.12v3.38h-9.8v-3.38zm5.28-16.78h3.38v20.16h-3.38zM-109.78 160.22v3.38h-18.6v-3.38zm-34.62-7.9h3.38v11.28h-3.38zM-112.55 143.44h3.38v20.16h-3.38zm-8.44 0h3.4v20.16h-3.4zm-44.8 8.03v3.37h-17.9v-3.37zm39.3 0v3.37h-17.9v-3.37zM-144.4 152.33h3.38v11.27h-3.38zM-144.4 152.33h3.38v11.27h-3.38zM-144.4 152.33h3.38v11.27h-3.38zm-39.3 0h3.38v11.27h-3.38zm28.8 0h3.4v11.27h-3.4zm-14.26 0h3.37v11.27h-3.36zM-152.52 160.22v3.38h-15.14v-3.38zm1-8.75v3.37h-9.6v-3.37z"/></g><path fill="#d90000" d="M-68.83 339.5h6.05V350h-6.05zm160.53 0h6.05V350H91.7zm-283.7 0h6.05V350H-192zm81.47 0h6.05V350h-6.05zm80.9 0h6.05V350h-6.05zm40.02 0h6.04V350H10.4zm40.85 0h6.05V350h-6.05zm80.48 0h6.05V350h-6.05zm203.05 0h6.05V350h-6.05zm-162.2 0h6.05V350h-6.04zm40.04 0h6.05V350h-6.05zm40.44 0h6.05V350h-6.04zm40.45 0h6.06V350h-6.05zm323.15 0h6.05V350h-6.05zm-242.67 0h6.05V350h-6.05zm40.86 0h6.05V350h-6.06zm41.28 0h6.05V350h-6.05zm38.78 0h6.05V350h-6.05zm41.27 0h6.05V350h-6.05zm40.45 0h6.05V350h-6.05zm119.68 0h6.04V350h-6.04zm-38.78 0h6.05V350h-6.05zm-808.9 0h6.04V350h-6.05z"/><path fill="#239e3f" d="M-68.83 162.6h6.05v10.5h-6.05zm160.53 0h6.05v10.5H91.7zm-283.7 0h6.05v10.5H-192zm81.47 0h6.05v10.5h-6.05zm80.9 0h6.05v10.5h-6.05zm40.02 0h6.04v10.5H10.4zm40.85 0h6.05v10.5h-6.05zm80.48 0h6.05v10.5h-6.05zm203.05 0h6.05v10.5h-6.05zm-162.2 0h6.05v10.5h-6.04zm40.04 0h6.05v10.5h-6.05zm40.44 0h6.05v10.5h-6.04zm40.45 0h6.06v10.5h-6.05zm323.15 0h6.05v10.5h-6.05zm-242.67 0h6.05v10.5h-6.05zm40.86 0h6.05v10.5h-6.06zm41.28 0h6.05v10.5h-6.05zm38.78 0h6.05v10.5h-6.05zm41.27 0h6.05v10.5h-6.05zm40.45 0h6.05v10.5h-6.05zm119.68 0h6.04v10.5h-6.04zm-38.78 0h6.05v10.5h-6.05zm-808.9 0h6.04v10.5h-6.05z"/><g fill="#da0000"><path d="M279.8 197.5c8.45 10.35 34.5 67.64-15.73 105.17-23.62 17.78-9 18.67-8.3 21.66 37.97-20.16 50.37-47.5 50.08-71.96-.3-24.48-13.26-46.1-26.05-54.88zM284.83 194.83c18.75 9.6 59.55 57.87 15.63 112.34 27.3-6.06 61.98-86.42-15.63-112.34zm-57.58 0c-18.75 9.6-59.56 57.87-15.64 112.34-27.28-6.06-61.97-86.42 15.65-112.34zM232.2 197.5c-8.45 10.35-34.5 67.64 15.73 105.17 23.62 17.78 9 18.67 8.3 21.66-37.97-20.16-50.37-47.5-50.08-71.96.3-24.48 13.26-46.1 26.05-54.88zM304.2 319.1c-14.86.25-33.6-2.04-47.5-9.26 2.3 4.45 4.2 7.26 6.5 11.7 13.24 1.23 31.52 2.74 41-2.43zm-94.98 0c14.86.25 33.6-2.04 47.5-9.26-2.3 4.45-4.2 7.26-6.5 11.7-13.24 1.23-31.52 2.74-41-2.43zm27.26-138.7c3 8 10.9 9.16 19.37 4.45 6.16 3.7 15.7 3.93 18.97-4.07 2.5 19.8-18.3 15.1-19.08 11.23-7.74 7.5-22.16 3.18-19.26-11.6zM256.4 331.57l7.82-8.93 1.1-120.18-9.3-8.18-9.3 7.8 1.87 120.93 7.8 8.57z"/></g></g></svg>