<svg xmlns="http://www.w3.org/2000/svg" width="640" height="480" xmlns:xlink="http://www.w3.org/1999/xlink"><defs><path id="a" d="M-28.58 47.5l1.73 1 46.72-80.9c2.73-.74 4.23-3.34 5.73-5.94 1-1.73 5-8.66 6.73-17.66C25.4-50 21.4-43.07 20.4-41.34c-1.5 2.6-3 5.2-2.27 7.93z"/></defs><path fill="#fff" d="M0 0h640v480H0z"/><path d="M0 0h640v144H0z"/><path fill="#060" d="M0 336h640v144H0z"/><g id="b" transform="matrix(3 0 0 3 320 240)"><use width="100%" height="100%" stroke="#000" xlink:href="#a"/><use width="100%" height="100%" fill="#fff" xlink:href="#a"/></g><use width="100%" height="100%" xlink:href="#b" transform="matrix(-1 0 0 1 640 0)"/><path fill="#b00" d="M640.5 168H377c-9-24-39-72-57-72s-48 48-57 72H-.23v144H263c9 24 39 72 57 72s48-48 57-72h263.5V168z"/><path id="c" d="M377 312c9-24 15-48 15-72s-6-48-15-72c-9 24-15 48-15 72s6 48 15 72"/><use width="100%" height="100%" xlink:href="#c" transform="matrix(-1 0 0 1 640 0)"/><g fill="#fff" transform="matrix(3 0 0 3 320 240)"><ellipse rx="4" ry="6"/><path id="d" d="M1 5.85s4 8 4 21-4 21-4 21z"/><use width="100%" height="100%" xlink:href="#d" transform="scale(-1)"/><use width="100%" height="100%" xlink:href="#d" transform="scale(-1 1)"/><use width="100%" height="100%" xlink:href="#d" transform="scale(1 -1)"/></g></svg>