<svg xmlns="http://www.w3.org/2000/svg" width="640" height="480" xmlns:xlink="http://www.w3.org/1999/xlink"><path fill="#032ea1" d="M0 0h640v480H0z"/><path fill="#e00025" d="M0 120h640v240H0z"/><g fill="#fff" stroke="#000" stroke-width=".96" transform="matrix(1.2 0 0 1.2 85.571 -521.92)"><path d="M139.02 623.46h113.8v43.8h-113.8zM246.95 647.64h3.6v16.5h-3.6zm-107.93-8.15h113.8v5.08h-113.8zm0-6.9h113.8v4.48h-113.8zM139.02 625.7h113.8v4.35h-113.8zM168.98 647.64h3.6v16.5h-3.6zm49 0h3.58v16.5h-3.6zm-78.06 0h3.6v16.5h-3.6zm7.03 0h3.6v16.5h-3.6zm7.5 0h3.6v16.5h-3.6zm7.5 0h3.6v16.5h-3.6zm62.82 0h3.6v16.5h-3.6zm7.5 0h3.6v16.5h-3.6zm7.5 0h3.6v16.5h-3.6zM94.5 669.55c1.77-.9 3.78-2.98 4.43-5.32H292c.66 2.34 2.67 4.42 4.43 5.32zM193 556.8s-.14-4.1 2.25-4.16c2.4.05 2.25 4.16 2.25 4.16zm-12.5 54.54v-5.54c-.07-2.76-2.75-2.96-2.83-4.98 0 0-.34-3.03.45-4.4 1.1 4.04 3.06 3.3 3.06 1.63 0-1.45-1.12-2.8-3.4-6.33-.74-1.13-.3-4.66.74-5.92.4 3.07.85 4.54 2.17 4.54.8 0 1.45-.53 1.45-2.07 0-1.95-1.32-2.94-1.97-4.72-.76-2.08-.24-4.2 1.02-5.38.54 3.03.38 4.24 1.73 4.24 2.7-.85 0-4.78-.58-5.77-.67-1.16.9-3.46.9-3.46.86 2.7 1.13 2.9 2.06 2.66 1.2-.32 1.04-2.06-.4-3.46-.9-.9-.8-2.22.17-3.28.97 1.9 2.22 1.78 2.34.65l-.77-4.4h17.25l-.86 4.26c-.24 1.22 1.4 1.5 2.42-.5.97 1.05 1.07 2.38.16 3.27-1.43 1.4-1.58 3.14-.4 3.46.92.25 1.2.03 2.06-2.66 0 0 1.4 1.57.9 3.46-.58 1-3.3 4.92-.58 5.78 1.35 0 1.18-1.2 1.73-4.23 1.27 1.18 1.8 3.3 1.03 5.38-.65 1.78-1.97 2.77-1.97 4.72 0 1.54.65 2.07 1.46 2.07 1.32 0 1.77-1.47 2.17-4.54 1.02 1.26 1.47 4.8.74 5.92-2.3 3.53-3.4 4.88-3.4 6.33 0 1.66 1.96 2.4 3.04-1.64.8 1.4.46 4.42.46 4.42-.08 2.02-2.76 2.22-2.84 4.98v5.54zm7.23-46.02l-.4-3.13h15.84l-.4 3.12zm1.06-3.2l-.35-2.56h13.6l-.34 2.57zm2.15-2.65l-.23-2.57h9.06l-.23 2.57zm33.02 110.08c-2.03-.78-4.98-2.92-4.98-5.07v-24.3l2.63-3.36h-52.77l2.52 3.36v24.3c0 2.15-2.02 4.3-4.05 5.07zM178.24 647.64h3.6v16.5h-3.6zm30.32 0h3.6v16.5h-3.6zM167.9 609.17v27.66h54.03v-5.96l.08-21.7c-2.2.87-2.6 2.87-2.6 2.87v11.78h-48.74v-11.78s-.54-2-2.75-2.87zM214.6 669.55c-1.77-.78-5.6-2.92-5.6-5.07v-27.2c.37-1.5 2.42-2.4 3.75-3.35h-35.82c1.7.9 3.6 1.65 4.28 3.36v27.18c0 2.15-3.03 4.3-4.8 5.07zM219.4 634.22v-19.6h-4.9v-1.9h-38.84v1.9h-4.9v19.6zm-12.54 35.33c-1.73-.78-4.25-2.92-4.25-5.07v-23.2l1.43-2.12h-17.7l1.43 2.1v23.22c0 2.15-2.52 4.3-4.25 5.07zM190.7 639.16h8.98v30.38h-8.97zM204.38 632.48c.02-2 5.84-2.1 8.83-3.8h-35.94c3 1.7 8.68 1.85 8.68 3.8l1.2 3.88 14.9.6zM211.4 611.34c0-4.9.2-6.8 1.72-6.8v15.6c-3.7 1.33-6.33 6.04-6.33 6.04h-23.22s-2.63-4.7-6.32-6.05v-15.58c1.86 0 1.87 1.98 1.87 6.8zm1.72-2c0-5.63 4.85-6.26 4.85-6.26v5c-1.84-.08-2.74 1.58-2.74 4.04 0 2.47 1.5 2.5 1.5 2.5v14.2h-3.6zM177.28 609.33c0-5.62-4.85-6.25-4.85-6.25v5c1.84-.08 2.74 1.58 2.74 4.04 0 2.47-1.5 2.5-1.5 2.5v14.2h3.6z"/><g fill="none"><path d="M186.84 570.62h17.13m-19.16 5.35h20.93m-22.95 6.5h24.9m-27.02 7.92h29.54m-30.22 9.03h30.43"/><path d="M170.75 628.92h48.66m-33.2 0h18.03v6.64H186.2z"/></g><path d="M183.93 614.24c3 3.6 2.7 9.68 2.68 13.27h17.35c-.03-3.58-.3-9.67 2.68-13.26zm9.75-41.13l-2.38-1.2v-3.5c.97.28 2.07.4 2.17 1.95.34-2.2.95-2.1 1.9-2.96.97.85 1.58.74 1.92 2.95.1-1.55 1.18-1.67 2.15-1.96v3.5l-2.37 1.2zM193.52 578.85l-3.95-2.7v-3.24c1.4.33 2.94.47 3.1 2.16.47-2.42 1.34-3.67 2.7-4.62 1.37.95 2.24 2.2 2.72 4.62.14-1.7 1.7-1.82 3.08-2.15v3.24l-3.95 2.7zM193.24 587.8l-4.54-3.98v-4.74c1.6.47 3.38.66 3.55 3.16.56-3.56 1.56-5.4 3.12-6.8 1.57 1.4 2.57 3.24 3.13 6.8.17-2.5 1.96-2.7 3.55-3.16v4.73l-4.54 4zm8.37 5.3l-4.1 5.67h-4.64l-4.1-5.68zm-15.2 9.52c2.04 1.12 2.8 3.36 3.02 7.55h11.55c.22-4.2.98-6.43 3.03-7.55zM204.17 593.1v-5.7c-1.95.53-3.2 1.68-3.78 3.25 0-1.9-2.5-6.26-5.2-8.43-2.74 2.43-5.27 6.38-5.22 8.43-.46-1.5-1.82-2.72-3.77-3.26v5.7zM205.04 602.62v-5.7c-2.14.54-3.52 1.7-4.14 3.26 0-1.9-2.73-6.26-5.7-8.43-3 2.43-5.77 6.38-5.7 8.43-.52-1.5-2.02-2.72-4.15-3.26v5.7zM207.44 614.32v-6.58c-2.66.7-4.3 2.66-5.15 3.8 0-3.56-4.03-9-7.1-10.76-3.17 1.82-7.1 7.43-7.1 10.76-.87-1.14-2.5-3.1-5.16-3.8v6.58zM206 628.92v-6.76c-2.35.92-3.05 3.18-3.8 4.72.3-6.86-3.85-14.23-7-16.1-3.17 1.87-7.4 9.4-7.03 16.1-.76-1.53-1.44-3.8-3.8-4.72v6.76zM204.36 639.16v-6.76c-2.46.58-2.6 1.5-3.4 3 .3-4.1-2.6-8.77-5.76-10.64-3.17 1.87-6.07 6.55-5.78 10.64-.78-1.5-.88-2.42-3.4-3v6.76z"/><g id="a"><path d="M98.94 664.23V643.8c-.67-2.6-2.88-4.9-4.54-5.38v-18l3.74 2.03 4.27 18.8v22.98zM98.94 664.3v-20.5c-.67-2.6-2.88-4.9-4.54-5.38v-19.24c2.5 0 3.74 3.27 3.74 3.27l4.27 18.8v22.9zM96.28 669.55c1.73-.78 4.24-2.92 4.24-5.07v-25.55l-1.18-2.1h43.52l-1.7 2.1v25.55c0 2.15 1.73 4.3 3.46 5.07zM135.84 669.55c-1.73-.78-4.25-2.92-4.25-5.07v-24.3l3.6-3.36h-29.58l3.62 3.36v24.3c0 2.15-2.52 4.3-4.25 5.07zM131.7 669.55c-1.74-.78-4.26-2.92-4.26-5.07V642.5l2.37-3.34H111l2.38 3.36v21.96c0 2.15-2.52 4.3-4.25 5.07zM115.92 639.16h8.98v30.4h-8.98zM103.7 647.64h3.6v16.5h-3.6zm30.75 0h3.6v16.5h-3.6zm-33.8-27.82h4.3v16.9h-4.3zm0-3.18h4.28v3.14h-4.3zM136.17 623.46h6.16v13.05h-6.16zM104.9 636.6v-28.94c1.22 0 1.4 4.24 4.24 4.24 1.47 0 1.3-1.76.5-3.2-.74-1.26-1.65-3-.42-6.27.84 2.5 3.1 3.3 2.7 1.73-.73-2.7-2.8-3.13-1.25-7.3.54 3.47 2.78 3.32 2.24 1.3-.6-2.28-1.87-3.22-.3-6.43.86 3.65 2.04 3.43 2.04 1.17 0-3.35-.13-6.96 4.2-8.3 0 0 .25-3.06 1.82-3.06 1.56 0 1.8 3.06 1.8 3.06 4.34 1.34 4.2 4.95 4.2 8.3 0 2.26 1.2 2.48 2.06-1.17 1.56 3.2.3 4.15-.3 6.43-.55 2.02 1.68 2.18 2.22-1.3 1.56 4.17-.52 4.6-1.24 7.3-.42 1.56 1.85.77 2.7-1.73 1.22 3.26.32 5.02-.4 6.28-.84 1.44-1 3.2.48 3.2 2.82 0 3-4.24 4.24-4.24v28.94zm-6.78-21.86v22.08h2.5v-22.14c-.9-.45-1.74-.52-2.5.06zM98.2 629.03c3.12 1.6 6.2 3.43 6.98 7.8H98.2zm43.17-6.6v14.4h2.04v-14.45c-.63-.3-1.5-.34-2.03.04zM143.4 628.92c-3.1 1.6-6.2 3.43-6.97 7.8h6.98zm-20.57-33.65l1.8-1.52v-1.96c-.65.06-1 .3-1.5.93-.42-1.3-1.34-2.3-2.56-2.93-1.23.62-2.15 1.6-2.57 2.88-.5-.64-.85-.82-1.5-.9v1.97l1.8 1.52zM123.8 600.16l.84-1.82v-2.54c-.66.06-1.02.3-1.5.94-.43-1.3-1.35-2.33-2.58-2.97-1.22.64-2.14 1.62-2.56 2.93-.5-.65-.85-.84-1.5-.9v2.53l.83 1.83zM123.93 606.8l2.7-3.3v-3.24c-1 .1-1.53.5-2.26 1.6-.62-2.22-1.98-2.7-3.8-3.78-1.83 1.08-3.2 1.48-3.8 3.7-.74-1.1-1.28-1.4-2.26-1.52v3.24l2.7 3.3zM124.72 613.3s3.14-2.74 3.33-4.24v-3.47c-1.22.13-2.37.45-3.27 1.87-.77-2.87-1.96-3.67-4.2-5.06-2.27 1.4-3.46 2.2-4.22 5.07-.9-1.42-2.05-1.74-3.27-1.88v3.46c.4 1.5 3.32 4.24 3.32 4.24zM126.06 625.32s4.3-4.76 4.4-6.62v-5.4c-1.6.22-3.13 1.33-4.32 3.55-1-4.48-2.6-7.6-5.57-9.77-2.98 2.17-4.56 5.3-5.57 9.77-1.2-2.22-2.7-3.33-4.32-3.55v5.4c.3 1.86 4.4 6.62 4.4 6.62zM126.06 632.43s3.68-3.74 4.4-5.37v-5.4c-1.6.22-3.13 1.33-4.32 3.55-1-4.47-2.6-7.03-5.57-9.2-2.98 2.17-4.56 4.73-5.57 9.2-1.2-2.2-2.7-3.32-4.32-3.54v5.4c.93 1.63 4.4 5.37 4.4 5.37zM127.54 636.56c-1.07-4.67-2-8.13-7.16-11.64-5.17 3.5-6.1 6.97-7.17 11.64zM130.2 639.16v-6.76c-2.35.92-4.47 2.28-5.25 3.8-.87-3.76-2.56-5.42-4.65-7.7-2.1 2.3-3.5 3.94-4.38 7.7-.78-1.52-2.9-2.88-5.25-3.8v6.76z"/></g><use width="100%" height="100%" xlink:href="#a" transform="matrix(-1 0 0 1 390.74 0)"/><path d="M72.7 694.25H318v12.53H72.7zM66.23 706.76H324.5v12.5H66.22zm19.35-31.25h219.56v8.12H85.58zM79.16 683.56h232.4v10.62H79.16zm10.25-14.28h211.9v6.17H89.4zM112.4 669.3h16v49.94h-16zM115.95 669.3h8.92v49.95h-8.92zM187.08 669.3h16v49.94h-16zM190.73 669.3h8.92v49.95h-8.92zM262.2 669.3h16v49.94h-16zM265.73 669.3h8.92v49.95h-8.92z"/><path fill="none" d="M98.94 664.23H292m-176.2 48.74h9.23m-9.24-6.25h9.23m-9.24-6.25h9.23m-9.24-6.25h9.23m-9.24-6.25h9.23m-9.24-6.25h9.23m-9.24-6.25h9.23m65.74 37.5h8.6m-8.6-6.24h8.6m-8.6-6.26h8.6m-8.6-6.25h8.6m-8.6-6.25h8.6m-8.6-6.26h8.6m-8.6-6.24h8.6m66.2 37.5h9.24m-9.23-6.24h9.24m-9.23-6.25h9.24m-9.23-6.25h9.24m-9.23-6.25h9.24m-9.23-6.25h9.24m-9.23-6.25h9.24"/></g></svg>