<svg xmlns="http://www.w3.org/2000/svg" width="640" height="480"><defs><clipPath id="a"><path fill-opacity=".67" d="M-86.33 0h682.67v512H-86.33z"/></clipPath></defs><g clip-path="url(#a)" transform="translate(80.93) scale(.938)"><path fill="#e73e2d" fill-rule="evenodd" d="M-164.28 0h835.8v306.5h-835.8z"/><path fill="#fec74a" fill-rule="evenodd" stroke="#d8aa3f" stroke-width="1.665" d="M204.3 282.1c-19.43-15.16-55.63-10.03-61.6-51.28 27.72 21.47 22.7-1.22 64.1 19.23l-2.5 32.06zM209.47 263.35c-13.85-20.4-49.88-26.6-42.92-67.7 19.8 28.94 21.97 5.8 55.1 37.95l-12.18 29.75zM215.77 250c-5-24.14-35.92-43.64-13.78-78.95 7.23 34.3 18.08 13.74 36.4 56.13L215.78 250zM230.32 237.6c2.65-24.5-20.8-52.56 11.12-79.37-3.64 34.87 13 18.64 17.43 64.6l-28.55 14.78zM243.26 227.67c12.46-21.28 2.56-56.47 42.65-67.86-17.6 30.33 4.24 22.33-10.54 66.07l-32.1 1.8zM262.07 230.3c18.56-16.24 20.33-52.76 61.96-50.86-26.3 23.18-3.06 22.5-30.94 59.32l-31.03-8.47zM278.57 239.87c22.5-10.07 34.9-44.46 74.15-30.43-31.94 14.45-9.53 20.63-47 47.63l-27.15-17.2zM292.5 254.93c24.42-3.33 46-32.84 79.7-8.32-34.7 4.87-14.94 17.1-58.5 32.48l-21.2-24.15zM379.46 259.6l-112.06 2.46 4.7 30.2 107.36-32.66zM363 218.4l-103.84 39.87 17.4 33.37L363 218.4zM280.58 280.67l53.72-97.54-82.4 76.7 28.68 20.84zM279.46 272.63l17.27-109.47-53.8 97.28 36.53 12.2zM273 263.74L254.98 153.5 235 264.2l38-.48zM263.68 254.3l-52.3-92.08 20.1 111.92 32.2-19.85zM255.56 253.6l-81.1-68.48 57.67 98 23.43-29.52zM145.95 218.9l87.07 71.88 13.4-37.6-100.47-34.3zM232.1 260.85l-102.3-1.44 101.87 34.02.43-32.57zM315.12 279.22c0 33.9-27.48 61.38-61.37 61.38s-61.38-27.48-61.38-61.38 27.48-61.37 61.38-61.37 61.37 27.48 61.37 61.37z"/><path fill="#005989" fill-rule="evenodd" d="M-165.12 303.4h839.9V512h-839.9z"/><path fill="#fff" fill-rule="evenodd" d="M-165.6 454c15.62 7.23 38 25.32 61.92 25.3 40.04-.26 41.1-27.42 81.67-26.13 40.66 1.03 33.3 29.63 88.22 29.5 45.36-.13 60.02-34.67 99.13-30.54 28.96-1.5 40.82 32.72 85.33 33.15 46.17 1 63.13-37.28 92.1-34.1 30.85 0 40.96 30.8 84.25 31.03 55.13.3 64.83-32.06 99.32-30 24.55-.5 43.9 23.72 79.9 24.32 28.7.5 52.73-21.2 68.96-28.97l.8-36.83c-17 6.33-42.37 27.08-67.74 27.3-36.5 1.34-59.1-23.94-84.47-23.7-30.4.26-42.52 31.27-94.08 31.27-47.1 0-57.92-31.3-88.32-31.3-29.7.23-38.8 34.03-90.25 33.4-41.96-.5-58.3-32.26-88.02-32.03-31.5 0-64.08 30.88-98.95 29.4-48.14-2.04-58.55-29.4-90.05-29.4-23.54 0-48.94 25.64-77.3 26.06-28.2.44-59.9-25.5-62.83-26.06l.4 38.33zm0-72.93c15.62 7.23 38 25.32 61.92 25.3 40.04-.26 41.1-27.42 81.67-26.13 40.66 1.03 33.3 29.63 88.22 29.5 45.36-.13 60.02-34.67 99.13-30.54 28.96-1.5 40.82 32.72 85.33 33.15 46.17 1 63.13-37.28 92.1-34.1 30.85 0 40.96 30.8 84.25 31.03 55.13.28 64.83-32.07 99.32-30 24.55-.52 43.9 23.7 79.9 24.3 28.7.5 52.73-21.2 68.96-28.96l.8-36.83c-17 6.32-42.37 27.07-67.74 27.3-36.5 1.33-59.1-23.95-84.47-23.73-30.4.28-42.52 31.3-94.08 31.3-47.1 0-57.92-31.3-88.32-31.3-29.7.23-38.8 34.03-90.25 33.4-41.96-.5-58.3-32.26-88.02-32.03-31.5 0-64.08 30.88-98.95 29.4-48.14-2.04-58.55-29.4-90.05-29.4-23.54 0-48.94 25.64-77.3 26.06-28.2.44-59.9-25.5-62.83-26.06l.4 38.33zM-165.6 308.92c15.6 7.23 37.95 25.32 61.87 25.3 40-.26 41.07-27.42 81.6-26.13 40.62 1.03 33.27 29.62 88.13 29.48 45.33-.12 59.97-34.66 99.04-30.52 28.94-1.5 40.78 32.7 85.26 33.14 46.12 1 63.06-37.28 92-34.1 30.83 0 40.93 30.8 84.17 31.03 55.1.28 64.77-32.07 99.23-30 24.53-.52 43.87 23.7 79.82 24.3 28.68.5 52.7-21.2 68.9-28.96l.8-36.83c-17 6.33-42.34 27.08-67.68 27.3-36.48 1.34-59.04-23.94-84.4-23.7-30.36.26-42.46 31.27-93.98 31.27-47.06 0-57.86-31.27-88.23-31.27-29.68.22-38.78 34.02-90.17 33.4-41.92-.5-58.25-32.27-87.94-32.04-31.47 0-64 30.87-98.86 29.38-48.1-2.03-58.5-29.4-89.96-29.4-23.52 0-48.9 25.65-77.23 26.07-28.15.44-59.8-25.5-62.74-26.06l.4 38.32z"/><path fill="#ffc84b" fill-rule="evenodd" stroke="#d8aa3f" stroke-width="1.776" d="M136.8 75.96c61.06-4.18 49.93-9.4 74.5-13.32 30.97 4.26 34.5 23 51.76 34.5 0 0-6.48 21.93-27.7 18.83-2.86-8.8 10.27-11.52-27.5-34.54-21.96-1.3-61.25 3.85-71.05-5.47zm189.27 33.93l-43.98 1.8v10.87c29.65.95 35-3.02 43.97-12.68z"/><path fill="#ffc84b" fill-rule="evenodd" stroke="#d8aa3f" stroke-width="1.665" d="M174.84 108.07c7.67-3.92 11.48-2.32 18.12-2.58 4.57 8.27 8.88 9.04 18.88 10.08 15.27 21.47 36.74 21.73 39.84 21.73 29.92-.77 39.4-21.72 59.5-24.05h21.22c-3.54-6.03-6.3-9.48-13.97-9.83-15.78-.86-36.22-.43-54.07 3.62l-25.1 6.2c-7.32-3.52-25.26-22.32-36.73-21.98-6.73 1.8-6.73 4.14-10.1 6.73-6.46 2.75-12.92 1.42-17.6 10.07z" stroke-linejoin="round"/><path fill="#ffc84b" fill-rule="evenodd" stroke="#d8aa3f" stroke-width="1.665" d="M205.1 98.9a3.17 3.17 0 1 1-6.34 0 3.17 3.17 0 0 1 6.34 0z"/><path fill="#ffc84b" fill-rule="evenodd" stroke="#d8aa3f" stroke-width="1.776" d="M225.56 107.82c44.93-54.15 84.16-47.5 135.3-51.22 1.73 6.3 1.12 15.7-23.28 24.06-33.37 4.9-93.13 40.1-93.4 40.1-11.12-.52-18.88-12.16-18.62-12.94z"/><path fill="none" stroke="#d9a43e" stroke-width="1.776" d="M317.87 72.54L351 73.97m-36.74 3.97l24.15 1.97" stroke-linecap="round"/></g></svg>