<svg xmlns="http://www.w3.org/2000/svg" width="640" height="480"><defs><clipPath id="a"><path fill-opacity=".67" d="M5.08.1H687.6V512H5.1z"/></clipPath></defs><g fill-rule="evenodd" clip-path="url(#a)" transform="translate(-4.761 -.094) scale(.938)"><path fill="#fff" stroke="#000" stroke-width="1.014" d="M775.94 511.52H-75.92V.57h851.86z"/><path fill="#3e5698" d="M775.94 419.07H-75.92v92.46h851.86z"/><path fill="#c60000" d="M775.94 397.65H-75.92v-283.2h851.86z"/><path fill="#3e5698" d="M775.94.58H-75.92v92.45h851.86z"/><path fill="#fff" d="M328.52 256.07c0 63.45-53.1 114.9-118.62 114.9-65.5 0-118.62-51.45-118.62-114.9S144.38 141.2 209.9 141.2c65.5 0 118.62 51.42 118.62 114.87z"/><path fill="#c40000" d="M175.83 270.57l-57.06-40.62 71.06-.3 22.63-66.36 21.17 66.14 71.05-.4-57.97 41.17L268 336.34l-57-40.7-57.9 41.26z"/></g></svg>