<svg xmlns="http://www.w3.org/2000/svg" width="640" height="480"><path fill="#006" d="M0 0h640v480H0z"/><path fill="#006" fill-rule="evenodd" d="M0 0h400v200H0z"/><path fill="#fff" d="M0 0v27.1l334.4 215.2h42.1v-27.1L42.1 0H0zm376.5 0v27.1L42.1 242.3H0v-27.1L334.4 0h42.1zM156.88 0v242.3h62.75V0h-62.75zM0 80.77v80.76h376.5V80.77H0z"/><path fill="#c00" d="M0 96.92v48.46h376.5V96.92H0zM169.43 0v242.3h37.65V0h-37.65zM0 242.3l125.5-80.77h28.06L28.06 242.3H0zM0 0l125.5 80.77H97.44L0 18.07V0zm222.94 80.77L348.44 0h28.06L251 80.77h-28.06zM376.5 242.3L251 161.53h28.06l97.44 62.7v18.07z"/><path fill="#fff" fill-rule="evenodd" d="M448.33 179.14c-1 .6-3.03 2.44-5.05 1.83-2.02-.6-6.56-8.54-11.6-7.32-5.06 1.22-8.1 3.05-10.1 3.05-2.02 0-7.58 1.83-7.58 6.7 0 4.9.5 8.55 1.52 8.55 1 0 2.52-3.05 2.52-3.05s.5 6.1 4.04 6.1 11.1.62 11.6 2.45c.52 1.83-3.52 6.1-2.5 9.76 1 3.67 5.54 9.77 5.54 9.77s-6.56 4.88-6.56 7.94 1 6.1 1 6.1l-29.27 1.23s-2.03 86.64-1.02 93.36c1 6.7 3.53 23.17 3.53 23.17s-6.55-2.13-12.1 3.36c-5.56 5.5-25 14.95-25.5 19.22s-2.27 7.93-.25 10.98c2.02 3.05 9.12 11.34 7.07 11-6.78-1.18-9.3-10.8-13.9-14.35-4.5-3.48-13.36-2.75-14.37.9-1 3.68-.5 9.78 0 11 .5 1.22 6.05 20.74 7.57 25.02s17.4 10.67 24.48 10.06c13.38.3 19.44-5.8 19.94-5.18.5.6 28.78 29.77 86.83 29.9 45.2.1 79.26-29.3 79.26-28.68 0 .6 18.68 6.1 25.24 4.27 6.56-1.83 16.16-6.1 18.18-10.37 2.02-4.27 7.57-26.24 8.07-29.9s0-7.94-4.54-9.16-7.07-.9-9.6.3-3.27 4.6-7.06 10.7c-2.02 1.82-7.32 6.7-5.8 5.48s4.8-10.37 5.3-13.43c.5-3.06 2.02-8.55-1.52-11.6-3.53-3.05-8.95-4.3-15.14-8.85-5.9-4.03-10.6-10.68-14.14-10.68-3.53 0-7.57-1.82-7.07-1.82s4.56-8.87 3.55-18.02c-1-9.16.5-96.7 0-96.7-.52 0-25.25 1.83-25.25.6s2.02-9.75 0-15.25-10.6-9.15-8.08-10.37c2.52-1.2 13.63-4.26 13.12-9.14-.5-4.88-7.58-4.27-10.6-6.1-3.04-1.83-12.12-10.38-13.13-10.38-1 0 26.25-16.47 24.23-16.47-2.02 0-12.62-3.04-16.16-1.2 0-3.06 14.64-12.2 12.12-13.44-2.52-1.22-14.14-2.44-11.1-3.05 3.02-.6 4.03-7.92 3.53-7.92-.52 0-13.14 1.83-13.14 1.83s-3.03-4.26-4.04-4.26c-1 0-5.55 2.44-5.55 2.44l-2.52-6.7-5.56 3.65-2.53-3.05s-4.54 1.22-4.54 0c.2-.04-.53-3.06-1.24-3.06-.72 0-5.72 3.88-5.9 3.66-.18-.2-5.7-7.98-5.7-7.76 0 .2-3.94 14.67-4.12 14.67-.17 0-3.92.42-4.1.63-.18.22-20-11.43-19.8-11.2.17.2 5.16 11.2 5.16 11.2s-4.28 2.38-4.28 2.6c0 .2.7 4.95.7 4.95l-13.2-4.53s5 10.14 4.64 10.14c-.35 0-9.8.42-9.63.42.17 0 4.46 8.42 4.46 8.42l-1.6 4.96s14.2 10.03 13.2 10.64zm84.3 212.35c1.27 1.82 8.08 10.36 7.07 10.36-1 0-17.92 11.3-24.73 13.43-6.82 2.12-29.03 6.1-27.77 5.78 1.26-.3 19.95-10.53 27.52-15.4 7.57-4.9 17.92-13.58 17.92-14.2zm-105.5-.32c-1.02 1.22-5.8 10.68-5.8 10.68s13.87 9.76 24.22 13.43c10.35 3.64 28.02 4.87 27 4.56-1-.3-22.2-9.76-28.26-14.64-6.07-4.9-16.92-14.04-17.18-14.04z"/><g fill="#fec500" fill-rule="evenodd" stroke="#6d6666"><path d="M438.2 165.23s8.85 6.4 10.87 7.93 8.58 8.24 9.08 7.93c.5-.3 4.04-3.67 4.04-3.67s-7.33-7.02-11.87-8.54-12.12-3.06-12.12-3.67zM436.95 158.2c.76 0 14.64 8.55 18.93 12.83s6.06 9.76 6.56 9.76 7.07-1.23 6.82-1.23-3.03-11-9.34-14.34c-6.3-3.36-22.72-7.02-22.97-7.02zM502.32 136.14c-.25 0-2.77 9.15-3.53 11.9-.77 2.74-2.03 8.54-2.03 8.54s-11.1 1.22-10.6-.3c.5-1.53 16.9-20.14 16.15-20.14zM439.47 147.23S452.6 157.9 457.14 164c4.55 6.1 9.1 16.8 9.34 16.8.25 0 12.37-3.06 12.37-2.76s-14.14-17.08-20.95-22.27-18.17-7.93-18.43-8.54zM453.1 144.38s6.57 12.2 7.83 16.47c1.26 4.27 5.05 15.26 5.05 15.26h10.35s-5.05-13.72-10.6-20.43-12.37-10.68-12.63-11.3zM456.63 137.66c.26.92 9.6 11.6 11.87 18.62 2.27 7 4.04 15.86 4.04 15.86l9.08-2.75s-8.07-18-13.12-22.9c-5.05-4.87-11.36-8.22-11.87-8.84zM532.1 166.45s-18.92 2.44-25.74 4.58-10.6 10.06-10.6 10.06 8.84 3.96 9.34 3.35 5.8-7.02 11.6-9.46c5.82-2.45 15.9-8.25 15.4-8.55zM531.35 151.5c-.5.3-15.65 15.25-20.45 20.13-4.8 4.9-9.34 10.07-9.84 10.38-.5.3-9.84-1.52-9.34-2.13.5-.6 13.88-13.73 22.72-19.52 8.83-5.8 16.15-8.24 16.9-8.85zM527.56 140.82c-1.5 2.13-16.4 16.78-20.44 21.97s-10.6 14.32-10.6 14.32-7.83-4.27-7.32-6.1c.5-1.83 11.1-12.5 18.68-18.6 7.57-6.1 20.44-11 19.68-11.6zM512.42 139.6c-.25.3-9.1 11.6-10.85 14.64-1.77 3.05-7.07 16.48-7.07 16.48s-7.83-8.24-7.83-8.55 9.85-12.8 15.65-17.7 10.35-3.96 10.1-4.87zM490.54 156.27c0 2.14-1.44 3.88-3.22 3.88s-3.2-1.74-3.2-3.88 1.43-3.9 3.2-3.9 3.22 1.75 3.22 3.9zm6.42 5.18c0 1.9-1.44 3.45-3.2 3.45s-3.22-1.55-3.22-3.45 1.43-3.45 3.2-3.45 3.22 1.54 3.22 3.45zm-14.28-3.9c0 1.92-1.75 3.46-3.92 3.46s-3.93-1.53-3.93-3.44 1.76-3.45 3.93-3.45 3.92 1.56 3.92 3.46zM493.04 164.68c0 3.7-2 6.7-4.47 6.7-2.46 0-4.46-3-4.46-6.7s2-6.68 4.47-6.68c2.47 0 4.47 3 4.47 6.68zm-12.14.22c0 2.86-2 5.18-4.46 5.18-2.47 0-4.46-2.32-4.46-5.18s2-5.18 4.46-5.18 4.46 2.32 4.46 5.18zM474.83 169c0 2.5-1.52 4.53-3.4 4.53s-3.38-2.03-3.38-4.53c0-2.5 1.52-4.53 3.4-4.53 1.86 0 3.38 2.03 3.38 4.53zm25-.44c0 2.98-2.33 5.4-5.2 5.4-2.85 0-5.16-2.42-5.16-5.4 0-2.97 2.3-5.4 5.17-5.4 2.86 0 5.18 2.43 5.18 5.4zm-12.5-7.76c0 1.78-1.84 3.23-4.1 3.23s-4.1-1.45-4.1-3.23 1.82-3.24 4.1-3.24 4.1 1.45 4.1 3.24zM488.04 167.92c0 2.62-2.56 4.75-5.7 4.75s-5.73-2.13-5.73-4.75 2.57-4.75 5.73-4.75 5.7 2.13 5.7 4.75zm14.63 8.4c0 3.23-2.4 5.84-5.35 5.84s-5.36-2.6-5.36-5.83 2.4-5.82 5.36-5.82c2.96 0 5.35 2.6 5.35 5.83zm-29.27-1.5c0 2.15-1.36 3.88-3.03 3.88s-3.04-1.73-3.04-3.88 1.36-3.88 3.04-3.88 3.03 1.74 3.03 3.88zM494.82 174.18c0 2.74-2.08 4.96-4.64 4.96-2.56 0-4.64-2.22-4.64-4.96s2.08-4.97 4.64-4.97c2.56 0 4.64 2.23 4.64 4.98zm-14.64-.22c0 2.38-1.83 4.3-4.1 4.3-2.27 0-4.1-1.92-4.1-4.3s1.83-4.3 4.1-4.3c2.27 0 4.1 1.92 4.1 4.3zM487.33 175.25c0 2.62-1.92 4.75-4.3 4.75-2.35 0-4.27-2.13-4.27-4.75s1.92-4.74 4.28-4.74c2.37 0 4.3 2.13 4.3 4.75zm-18.57-28.48c1.07 0 8.57 3.02 8.57 3.02s-9.28 4.3-7.86 3.88 10.36-1.73 9.64-1.73c-.7 0-7.84 8.2-5.7 7.77 2.14-.43 6.43-5.6 6.78-5.6.36 0 4.64 8.2 5 7.76.36-.44 0-8.2.36-8.2s8.92 5.18 8.2 4.74c-.7-.43-5.7-6.47-5.35-6.47.35 0 11.77 1.3 11.06.87-.7-.44-7.5-4.32-7.5-4.32s5-5.6 3.93-5.6-9.3 5.6-8.58 5.17c.72-.43 8.93-11.65 8.93-11.65l-8.2 4.75s1.4-6.9.7-6.48c-.7.43-6.42 9.05-6.78 9.05s-1.8-8.62-1.8-8.62.37 9.5-1.77 9.92c-2.14.43-9.64 2.16-9.64 1.72z"/></g><g fill-rule="evenodd"><path fill="#00389b" d="M445.5 216.54c.2.86 5.9 16.4 14.65 15.96s12.3-3.02 11.95-3.24c-.35-.2-4.1-2.8-6.24-8.4-2.15-5.62-2.5-8-2.5-8l-17.85 3.68zm31.24-6.04s6.43 15.3 9.28 17.47c2.86 2.16 9.46 3.88 12.32 3.67 2.86-.22 6.25 0 6.25 0s-2.87-1.5-5.2-9.93-3.02-11.2-3.02-11.2h-19.64zm39.27 5.6s-1.24 11.22 0 14.03c1.26 2.8 7.5 7.98 7.5 7.98s7.5-1.07 7.68-7.97c.18-6.9-2.5-13.38-2.5-13.38L516 216.1z"/><path fill="#005120" stroke="#000" stroke-width="1.497" d="M288.94 21.02s1.16 4.65 0 8.14S277.9 41.95 277.9 49.5c0 7.56 11.62 30.8 47.1 31.4 35.45.58 80.2-19.2 79.63-19.77-.58-.58-84.88-56.97-86.04-56.4-1.17.6-29.66 17.45-29.66 16.3zm234.3 40.1s7.55 20.36 10.45 22.68c2.9 2.33 4.06 6.98 4.65 6.98s48.83 10.46 48.83 10.46 4.65-13.37-2.32-23.83c-6.98-10.46-33.14-37.78-33.14-37.78l-28.5 21.5zm33.13-25c1.16 0 12.8 9.9 22.1 4.66 9.3-5.23 24.4-19.18 24.4-19.18s-12.78 4.07-22.08 3.48c-9.3-.58-23.85 11.63-24.43 11.05zM287.2 23.34s-3.5-9.88-12.8-10.46c-9.3-.6-26.15 1.16-31.97-3.5-5.8-4.64-7.55-15.7-10.46-15.1-2.9.57-10.47 0-11.05 0s-3.48-9.3 4.65-13.96 15.12-.58 19.77-4.07c4.65-3.5 11.63-5.82 20.93-6.4 9.3-.58 24.42 11.63 31.4 14.54 6.97 2.9 22.1 6.38 27.9 3.48 5.8-2.9 38.37-15.7 50-16.28 11.62-.58 36.04-1.17 45.34-.58s45.94 5.23 57 10.46c11.03 5.23 69.75 25.58 77.9 30.23 8.13 4.66 26.15 11.64 26.15 11.64s-31.97 31.4-47.67 36.63c-15.7 5.23-65.7 13.37-95.34 11.62-29.65-1.75-52.9-4.66-75.58-16.3-22.68-11.6-47.1-22.66-48.26-28.47-1.16-5.8-.58-13.37-.58-13.37l-27.33 9.88zM251.15-14.45c-1.16.58-6.98 2.9-5.8 4.07 1.15 1.16 3.48 4.65 10.45 4.07 6.98-.6 14.54-4.66 14.54-4.66s-8.72-4.07-19.2-3.5z" transform="matrix(.307 0 0 .371 350.733 188.675)"/><path stroke="#000" stroke-width="1.497" d="M250.57-13.3v6.4s8.14 2.33 8.14.6c0-1.75.6-5.82-1.15-5.82s-6.4-.6-6.98-1.17z" transform="matrix(.307 0 0 .371 350.733 188.675)"/><path fill="#001707" stroke="#000007" stroke-width="1.497" d="M331.95-8.45c2.06-3.7 0-8.63 11.92-14.4 11.92-5.75 32.68-4.1 32.68-4.1s-5.96 4.52-6.16 9.25c-.22 4.73.4 6.78.4 6.78s-11.3-3.7-19.94-1.44-18.7 4.52-18.9 3.9zM385.4-28.6c-1.23.62-10.28 10.7-9.25 13.78 1.03 3.08 13.15 10.48 17.06 9.86 3.92-.6 21.8-9.25 22.83-13.56 1.02-4.32 1.85-10.08.4-11.3-1.43-1.24-30.83 1.64-31.03 1.22zm39.26-1.64c-2.26 2.26-1.44 13.15-.62 14.4.82 1.22 15 15.4 18.1 16.23 3.07.8 25.9-1.45 27.74-3.92s7.4-12.95 5.75-15.4c-1.64-2.48-6.57-5.77-21.78-9.06s-24.26-2.88-29.2-2.26zm58.16 13.77c3.7 1.85 25.28 12.33 38.03 20.76 12.74 8.42 17.88 18.08 21.58 18.9 3.7.82 18.7-8.22 19.32-10.7.62-2.45-18.3-15.6-31.04-21.57-12.73-5.96-47.88-6.78-47.88-7.4zm-4.52 8.84c-1.85 1.64 23.02 45 27.75 46.45 4.73 1.44 33.1-8.42 32.68-11.7-.4-3.3-7.8-9.88-25.28-19.54-17.47-9.66-31.65-16.03-35.15-15.2zM447.47 8.2c-3.9 2.26-10.07 41.1-6.17 42.96 3.9 1.85 52-4.73 53.86-9.05 1.85-4.3-19.74-38.63-26.1-38.63-6.38 0-17.9 1.64-21.6 4.73zM397.73-.02c-5.14 4.72-4.1 40.9-1.85 43.16 2.26 2.26 30.83 9.66 33.9 7 3.1-2.68 7.2-43.38 4.33-46.47C431.24.6 423.23-6.8 417.06-7.43c-6.17-.6-16.44 5.96-19.32 7.4zM333.2-.65c-4.74 3.7-4.94 13.36.2 15 5.13 1.65 17.88 7.2 29.8 12.34 11.92 5.13 18.7 11.3 22.2 11.1 3.5-.2 6.78-36.4 3.08-38.44-3.7-2.06-14.6-3.7-24.87-3.3-10.27.42-25.27 1.45-30.4 3.3z" transform="matrix(.307 0 0 .371 350.733 188.675)"/></g><path fill="#d40f0f" fill-opacity=".996" fill-rule="evenodd" d="M387.98 359.2c2.6-2.52 6.6-8.68 12.08-8.96 5.46-.28 11.22 4.76 11.22 4.76s5.75 23.53 5.46 23.53c-.3 0-9.5 6.72-9.78 6.72-.3 0-4.03-9.24-7.48-8.4-3.45.84-3.16 13.44-3.74 12.6-.57-.84-15.24-18.2-14.67-18.76.58-.57 7.2-10.66 6.9-11.5zm151.9-3.08c1.7-.28 9.48-6.16 14.94-5.88 5.47.28 8.63 2.8 11.5 5.32 2.9 2.52 6.34 8.96 6.34 8.96s-6.9 19.05-7.48 19.05-3.45 1.68-4.03.28-2.3-5.9-5.75-6.45c-3.45-.56-4.32 6.17-4.32 6.17l-11.2-27.45z"/><path fill="#fddc59" fill-opacity=".996" fill-rule="evenodd" d="M543.6 362c0 1.7 10.65 28.02 27.9 33.06 17.27 5.04 22.73-4.76 24.74-8.12 2.02-3.37 9.2-3.08 9.2-3.08s-1.72 24.64-4.6 27.72c-2.87 3.08-5.17 9.8-21.28 10.08-16.1.28-30.78-15.12-35.67-19.6-4.9-4.48-11.23-16.25-13.82-21.57-2.58-5.33 13.8-17.93 13.52-18.5zm-187.55 52.37c.3 0 7.76 8.13 18.7 7.3 10.93-.85 29.62-7.3 38.25-18.5 8.63-11.2 12.95-23.25 12.95-23.25s-12.66-22.4-12.95-22.4c-.3 0-1.44 7.28-3.74 12.04-2.3 4.76-8.63 18.2-19.27 22.4-10.65 4.2-10.65 5.9-14.97 5.33-4.3-.57-15.53-7.3-15.53-7.57 0-.28-5.47 13.16-5.47 13.16s-1.15 8.67 2.02 11.48zM387.78 358.42c-.8 0-21.15 11.1-20.34 15.85.82 4.75 35 72.1 108.2 72.88 73.23.8 117.98-61 114.73-71.3-3.26-10.3-26.04-22.18-26.04-22.18s5.7 4.75 4.88 11.1c-.8 6.33-26.02 61-89.48 59.4-63.46-1.58-93.57-49.9-93.57-55.45 0-5.54 3.26-8.7 1.63-10.3z"/><path fill="#d40f0f" fill-opacity=".996" fill-rule="evenodd" d="M586.17 407.38c1.73-1.4 12.37-30.53 18.4-29.7 6.05.85 4.04 9.53 3.46 11.78-.57 2.24-6.6 22.4-6.6 22.4s.28-4.76-3.75-5.88-10.64 1.96-11.5 1.4zm-230.12 7.3c0-1.6-4.88-7.14.8-8.72 5.7-1.6 13.03 1.58 13.03 1.58s-4.07-11.88-8.95-21.4c-4.88-9.5-6.5-7.9-10.58-6.32-4.06 1.58-3.97 5.77-1.52 12.1 2.44 6.35 7.22 24.34 7.22 22.75z"/><path fill="#fdc400" fill-rule="evenodd" d="M423.18 360.35l7.06-23.93-19.62-15.03 24.57-.58 8-23.6 8.13 23.56 24.56.45-19.56 15.13 7.17 23.9-20.2-14.23z"/><path fill="#fff" fill-rule="evenodd" d="M555.64 235.83v92.04c.18 45-45.7 84.38-76.15 92.04-30.47-7.65-76.34-47.04-76.16-92.02v-92.04h152.3z"/><path fill="#d40f0f" fill-opacity=".996" fill-rule="evenodd" stroke="#000" stroke-width="1.497" d="M177.16 325.98l.42 160.73s2.4-3.28 35-1.27c32.64 2 35.45 35.43 70.88 35.43 35.43 0 35.43-35.43 70.87-35.43s35.43 35.43 70.86 35.43 35.42-35.43 70.86-35.43 35.43 35.43 72.87 37.46c33.43-2.04 33.43-37.47 69.06-39.48l35.22 2V326H177.16z" transform="matrix(.307 0 0 .358 348.952 119.039)"/><path fill="#0062bb" fill-opacity=".996" fill-rule="evenodd" d="M403.34 312v19.05h10.88c10 .72 10.88 12.7 21.75 12.7s10.88-12.7 21.76-12.7 10.88 12.7 21.76 12.7 10.87-12.7 21.74-12.7 10.27 11.97 21.76 12.7c10.26-.73 10.82-11.98 21.76-12.7h10.87V312h-10.87c-10.88 0-10.88 12.7-21.76 12.7S512.12 312 501.24 312s-10.87 12.7-21.75 12.7c-10.9 0-10.9-12.7-21.77-12.7s-10.88 12.7-21.75 12.7S425.1 312 414.22 312h-10.88zm3.28 38.1l7.6 19.03c10.02.72 10.88 12.7 21.76 12.7 10.87 0 10.87-12.7 21.75-12.7s10.88 12.7 21.76 12.7 10.87-12.7 21.74-12.7 10.27 11.97 21.76 12.7c10.26-.73 10.56-11.98 21.5-12.7l7.85-19.34-7.6.3c-10.87 0-10.87 12.68-21.75 12.68s-10.88-12.7-21.75-12.7-10.88 12.7-21.76 12.7c-10.9 0-10.9-12.7-21.77-12.7s-10.88 12.7-21.75 12.7-10.88-12.7-21.76-12.7h-7.6zm72.87 69.8c10.87 0 35.8-19.03 35.54-19.03.25 0-2.92-12.7-13.8-12.7s-10.87 12.7-21.75 12.7c-10.9 0-10.9-12.7-21.77-12.7s-13.65 12.7-13.68 12.7c-.5 0 24.56 19.04 35.44 19.04z"/><path fill="#fdc400" fill-opacity=".996" fill-rule="evenodd" stroke="#000" stroke-width=".701" d="M90.85 117.57c.82 0 8.22 1.23 13.56.82 5.36-.42 7.4-2.48 7.4-2.9v-1.22h7s1.24 5.76.4 6.17-2.86 2.05-3.28 2.05 0-2.88-.82-2.05-1.23 2.05-1.23 2.05-.82-1.23-1.23-1.23-1.24 1.23-1.24 1.23 0-1.23-.4-1.23c-.42 0-2.48 2.05-2.48 2.05l-2.05-1.64s-1.23 2.06-1.65 2.06-2.87-1.65-2.87-1.65l-4.1 2.46s0-3.7-.84-3.3c-.8.42-5.33.42-5.33.42s-1.23 2.47-1.64 2.47-2.06-2.06-1.65-2.06 1.23-1.24.82-1.65c-.4-.4-2.46 0-2.46-.4s-.82-2.9-.4-2.9 2.04.42 2.04.42v-2.47h2.06l.4 2.47zM98.25 94.14c-.4 0-3.3 3.28-2.88 6.98.4 3.7 7.4 9.05 7.4 9.05s3.7-1.65 4.93 0 1.24 6.57.83 6.57-5.35 1.24-5.35.4c0-.8 0-1.63-.4-1.63s-4.94.42-4.94.42l.4-1.64-4.1-.82 1.64-1.65s-6.58-2.87-6.16-2.87 2.87-1.64 2.87-1.64l-4.94-3.3h2.88s-4.1-3.3-3.7-3.3c.4 0 2.46.42 2.46.42l-1.23-3.3h1.23l-1.23-2.45 2.06-.82 1.23 2.05-.4-4.93 2.87.4v4.12s1.23-2.48 1.23-2.9c0-.4 3.7 1.66 3.3.84z" transform="matrix(1.5 0 0 1.305 286.934 126.302)"/><path fill-opacity=".996" fill-rule="evenodd" d="M529.97 282.45c-.78.67-3.1 2.15-3.1 2.15s5.25-.4 5.1-.4-1.85-1.34-2-1.75zm4.47 2.55c-.3.4-1.24 4.56-.62 4.3.62-.28 3.08-3.36 3.08-3.36l-2.46-.94zm7.08.53c.77.67 4.32 3.76 3.85 3.1-.46-.68-.92-3.5-1.23-3.63-.3-.14-2.3.8-2.62.53zm-62.14-4.42c-.46.14-4.3 2.7-4.3 2.7s6.46-1.08 6.15-1.08c-.3 0-2-1.2-1.85-1.6zm4 3.23c-.6.54-2.6 4.3-1.84 4.16.77-.14 4.16-2.56 4.16-2.56l-2.3-1.6zm-2.47-5.23c-.45-.14-3.7-1.48-3.53-1.48s4.32-.94 4.32-.94l-.8 2.42zm-61.04-1.74l-4.63-3.22 5.86 1.6-1.24 1.62zm-4 2.14c-.63 0-6.5 3.22-6.33 3.22s8.17.14 8 0c-.14-.13-1.37-2.95-1.68-3.22zm3.7 4.7c-.63.27-5.25 3.36-4.95 3.36.32 0 6.95.13 6.95 0s-1.85-3.22-2-3.36zm-.63-33.4s-1.7-3.76-1.54-3.76c.14 0 4.3 2.95 4.3 2.95l-2.77.8zm4.63-4.7c0-.14.46-2.42.46-2.42s4.16 2.82 4 2.82c-.14 0-4.15 0-4.46-.4zm6.47 1.74c0-.13.47-3.5.47-3.5s3.85 4.57 3.54 4.7c-.3.14-3.7-.66-4-1.2z"/><path fill="#fdc400" fill-opacity=".996" fill-rule="evenodd" stroke="#000" stroke-width=".701" d="M137.26 110.86c0 .2 4.32 3.7 4.42 4.52.1.82-7.8 1.03-7.8 1.03s-2.27-1.74-3-1.63c-.7.1-1.02 1.85-1.02 1.85l1.85 1.02-3.48.2 1.02 1.96 2.68-.2-.62 1.85s1.64 1.23 1.95 1.02c.3-.2 1.34-2.05 2.16-2.36.83-.3 2.58-.3 2.58-.3s-1.34 2.26-.72 2.26c.62 0 3.4-2.36 3.4-2.36s.6 2.16.7 2.16c.1 0 2.07-2.47 2.07-2.47s0 1.94.3 1.94 3.2-2.46 3.2-2.46 2.25 2.87 2.56 2.67c.3-.2.6-3.08.9-3.08s2.27-.3 2.27-.42-1.23-1.13-1.43-2.56c-.2-1.45.2-4.85.1-4.85s-13.88.52-14.08.2zM115.37 104.6h40.3c4.1 0 7.8-1.64 7.8-4.1 0-2.48-6.58-2.9-9.05-2.07-2.46.83-13.15 5.76-17.67 5.35s-8.64-3.3-9.05-6.17c-.4-2.87 2.06-5.33 6.58-5.33s10.28 1.64 11.5 1.23 4.12-3.7 5.35-4.1c1.24-.42 4.94-.83 4.94-.83l-1.65 1.23 5.35-1.23s-4.1 4.52-8.23 5.75c-4.1 1.24-12.74.83-16.03.83s-4.92-.42-4.5 2.05c.4 2.47 2.87 4.1 4.92 3.7 2.06-.4 8.23-2.47 8.23-2.47l-1.65-1.23 7.4-.4s-.4-1.24 0-1.24 4.1.4 4.1.4-2.46-1.23-2.04-1.23 2.05 0 5.34.42c3.3.4 10.28 1.64 9.87 4.93-.42 3.3-2.88 6.16-5.76 6.16s-5.33-.82-5.33.42c0 1.23 3.3 2.05 5.34 2.05s4.53-1.63 4.94-1.63 1.24 2.46 1.65 2.46 2.87-.82 2.87-.82l-1.65 4.53 2.88.82s-1.65 1.65-1.23 1.65 2.87 0 2.87.4-3.3 2.9-3.3 3.3 2.48 1.64 2.48 1.64-1.64 2.47-2.05 2.06-2.06-2.47-2.06-2.47-.4 1.65-1.22 1.65-2.47-.4-2.47-.4 1.24-2.48.83-2.48-2.46 1.64-2.46 1.23l-1.24-1.23s3.3-1.34 3.3-3.3c0-1.94-1.34-3.9-7.3-4.2-5.97-.32-6.07 1.43-10.5 1.23-4.4-.2-4.4-1.96-7.7-1.96-3.28 0-13.46 4.12-18.2 4-4.7-.1-10.67-.4-10.47-.6.2-.2 3.9-9.66 4-9.97z" transform="matrix(1.5 0 0 1.305 285.91 126.597)"/><path fill="#fdc400" fill-opacity=".996" fill-rule="evenodd" stroke="#000" stroke-width=".701" d="M106.88 102.46c-.4.2-4 .72-4.2 4.52-.22 3.8.3 3.8.7 3.6.42-.2 1.24-3.5 1.24-3.5s-1.23 4.53.1 5.55a9.3 9.3 0 0 0 2.78 1.44l.5-3.6s-1.02 3.5 1.45 4.73c2.47 1.24 3.4.3 3.2-.6-.22-.94-.94-3.3-.94-3.3s1.96 2.16 2.07 2.36c.1.2 1.02 1.85 3.5 1.13 2.46-.73.7-2.37.7-2.37l-2.97-2.46s3.08 3.18 4.42 2.05-1.03-3.6-.93-3.5 1.95 3.5 2.67 1.35-1.13-2.78-1.75-4.83c-.62-2.06-1.13-2.27-.52-3.5.62-1.23.72-3.6.72-3.6s2.57.62 2.37-1.54c-.22-2.16-2.8-2.67-3.3-2.77-.5-.1-.4-2.26-.62-2.16-.2.1-1.85 1.34-1.85 1.34s-1.44-3.4-1.74-3.18-1.97 1.95-3.2 2.05c-1.23.1-1.95 1.85-1.95 1.85s-4.32-2.05-4.22 1.34c.1 3.4 2.57 2.57 2.57 2.67s-.4 4.73-.82 4.94z" transform="matrix(1.5 0 0 1.305 286.934 126.302)"/><path fill-opacity=".996" fill-rule="evenodd" d="M450.87 253.26c.75-.23 1.84-1.18 3.1-1.06s3.3 1.08 2.3 1.6c-1 .54-1.75.77-2.9.5-1.12-.26-2-.83-2.5-1.04zm12.58-.14c-.74-.22-1.83-1.17-3.1-1.06s-3.3 1.1-2.28 1.62c1 .53 1.74.76 2.88.5 1.13-.28 2-.85 2.5-1.06z"/><path fill="#000039" fill-opacity=".996" fill-rule="evenodd" stroke="#000" stroke-width=".421" d="M111 103.17c.1.5.4 4.83.6 4.52.2-.32 1.75-4.43 1.65-4.43s-2.16.1-2.26-.1z" transform="matrix(1.5 0 0 1.305 287.143 126.366)"/><path fill="none" stroke="#000" stroke-width=".842" d="M109.96 103.17c.05-1.22.82-1.13 2.47-.93 1.64.2 2.46 1.03 2.36 1.24-.1.2-1.45.72-2.58.6-1.34-.4-2.3.1-2.26-.9z" transform="matrix(1.5 0 0 1.305 287.143 126.556)"/><path fill="none" stroke="#000" stroke-width="1.497" d="M112.43 100.08l-.2 1.95m7.1-7.2s1.33.63 1.12 1.25c-.2.6-1.13.92-1.13.92m-11.2-2.67c-.3.1-.72.3-.93 1.13-.2.82.92 1.34.92 1.34" transform="matrix(1.5 0 0 1.305 287.143 126.556)"/><path fill="none" stroke="#000" stroke-width="1.497" d="M111.2 136.13s-1.46 1.45 1 1.45.73-1.3.73-1.3" transform="matrix(1.5 0 0 1.305 287.361 77.606)"/><path fill="#fdc400" fill-rule="evenodd" d="M462.35 403.76l6.4-21.06-17.8-13.24 22.3-.5 7.27-20.78 7.37 20.75 22.3.4-17.75 13.32 6.5 21.03-18.33-12.52z"/><path fill="#003017" fill-opacity=".996" fill-rule="evenodd" d="M465.38 398.1l5.34-16.72-14.83-10.5 18.57-.4 6.06-16.52 6.14 16.48 18.58.32-14.8 10.58 5.43 16.7-15.27-9.93z"/><path fill="#fdc400" fill-rule="evenodd" d="M425.66 361.1l6.34-19.9-17.6-12.53 22.05-.47 7.2-19.66 7.28 19.62 22.05.38-17.55 12.6 6.44 19.9-18.13-11.85z"/><path fill="#003017" fill-opacity=".996" fill-rule="evenodd" d="M428.67 355.76l5.3-15.82-14.7-9.94 18.4-.38 5.98-15.6 6.08 15.58 18.38.3-14.62 10 5.37 15.8-15.1-9.4z"/><path fill="#fdc400" fill-rule="evenodd" d="M499.57 361.1l6.42-19.9-17.84-12.53 22.33-.47 7.28-19.66 7.38 19.62 22.34.38-17.77 12.6 6.52 19.9-18.37-11.85z"/><path fill="#003017" fill-opacity=".996" fill-rule="evenodd" d="M502.62 355.76l5.35-15.82L493.1 330l18.62-.38 6.07-15.6 6.15 15.58 18.6.3-14.8 10 5.43 15.8-15.3-9.4z"/><path fill="none" d="M373.27 372.55c8.03 34.55 41.9 60.18 87.53 66.25 58.6 7.78 114.5-21.9 124.8-66.28"/><path d="M373.13 377.9l11-6.22 1.04 2.26-4.32 2.44 1.43 3.12 4.32-2.44 1.03 2.27-11 6.22-1.04-2.27 4.98-2.8-1.43-3.14-5 2.82-1.02-2.26m4.6 9.63l10.28-7.6 3.53 5.86-1.7 1.25-2.26-3.75-2.38 1.76 2.1 3.5-1.64 1.2-2.1-3.5-2.82 2.1 2.3 3.84-1.74 1.28-3.57-5.95m7.16 11.04l9.06-9.3 1.55 1.85-3.54 3.66 2.14 2.57 3.55-3.66 1.55 1.86-9.06 9.3-1.55-1.85 4.1-4.2-2.14-2.58-4.1 4.22-1.56-1.87m11.83 5.52l1.47 1.42 2.68-5.05-4.15 3.62m-5.75 1.7l10.24-8.27 2.32 2.26-6.03 12.37-1.86-1.82 1.6-3.04-2-1.93-2.5 2.16-1.76-1.72m8.93 8.3l6.1-9.23-2.12-1.74 1.2-1.83 6.12 5-1.2 1.82-2.14-1.74-6.1 9.24-1.85-1.5m5.02 4l6.43-11.72 1.95 1.32-2.52 4.6 2.7 1.82 2.5-4.6 1.96 1.33-6.43 11.7-1.94-1.3 2.9-5.32-2.68-1.83-2.9 5.3-1.96-1.3m12.1 7.64l5.18-12.45 5.86 3.03-.85 2.03-3.76-1.94-1.23 2.95 3.57 1.83-.83 2-3.56-1.85-2.28 5.48-2.1-1.07m11.46-1.9c-.72 2.12-1.06 3.5-1.03 4.14.04.64.36 1.08.96 1.34.58.25 1.07.15 1.47-.3.4-.44.97-1.73 1.7-3.86s1.07-3.52 1.04-4.15c-.03-.64-.34-1.08-.94-1.34-.6-.26-1.1-.16-1.5.3-.4.45-.97 1.74-1.7 3.87m-2.2-.93c.47-1.36.9-2.42 1.3-3.18.4-.77.77-1.3 1.16-1.6.53-.45 1.08-.7 1.63-.76.55-.05 1.2.08 1.96.4s1.34.7 1.72 1.15c.38.45.64 1.03.78 1.76.1.54.07 1.23-.1 2.08-.16.86-.48 1.97-.94 3.32-.46 1.35-.9 2.4-1.28 3.18-.4.76-.78 1.3-1.16 1.63-.54.44-1.1.7-1.64.74-.55.06-1.2-.08-1.96-.4s-1.33-.7-1.7-1.14c-.4-.45-.65-1.03-.78-1.76-.1-.5-.08-1.2.08-2.06.17-.86.48-1.98.95-3.34m10.62-2.9l2.2.72-2.38 8.86c-.28 1.02-.35 1.74-.23 2.18.12.43.47.74 1.04.93.56.2 1 .13 1.3-.16.33-.3.63-.95.9-1.98l2.37-8.84 2.2.72-2.45 9.07c-.23.9-.45 1.52-.65 1.9a2.88 2.88 0 0 1-.74.92 2.87 2.87 0 0 1-1.54.62c-.58.05-1.23-.05-1.95-.28-1.35-.45-2.22-1.1-2.6-1.92-.38-.84-.35-2.07.08-3.7l2.44-9.07m5.9 16.18l2.7-13.38 2.3.57 1.25 10.14 1.82-9.38 2.12.53-2.7 13.37-2.3-.57-1.27-10.16-1.83 9.4-2.1-.53m12.06.7l1 .16c.52.1.88.1 1.1.07a.97.97 0 0 0 .55-.34c.27-.32.5-.78.67-1.37.17-.6.36-1.58.55-2.93.18-1.3.26-2.28.24-2.9-.02-.6-.13-1.1-.34-1.44a1.1 1.1 0 0 0-.47-.4c-.2-.1-.52-.2-.96-.28l-1-.17-1.34 9.6m-2.5 1.6l1.9-13.55 3.66.63c.74.13 1.32.3 1.74.52.42.22.76.5 1 .88.36.54.58 1.18.65 1.92.1.73.03 1.84-.18 3.33-.27 1.93-.53 3.28-.76 4.06-.23.76-.54 1.4-.9 1.9s-.8.83-1.34.97c-.53.13-1.4.1-2.64-.13l-3.13-.54m9.55 1.57l1.2-13.66 6.3.7-.2 2.26-4.03-.43-.28 3.16 3.75.4-.2 2.15-3.74-.4-.32 3.76 4.13.45-.2 2.3-6.4-.68m10.43-1.1l1.02.03c.52.03.88 0 1.1-.08a1 1 0 0 0 .5-.4c.23-.35.4-.83.5-1.44.12-.62.2-1.62.24-2.98.04-1.33 0-2.3-.07-2.9-.1-.62-.26-1.08-.5-1.4a1.05 1.05 0 0 0-.5-.34c-.22-.08-.55-.12-1-.14l-.98-.04-.32 9.68m-2.3 1.94l.43-13.7 3.7.13c.75.03 1.35.13 1.78.3.45.15.8.4 1.1.73.4.48.7 1.1.84 1.8.16.73.22 1.85.17 3.35-.07 1.96-.17 3.34-.32 4.14-.15.8-.38 1.47-.7 2.02-.3.55-.7.93-1.22 1.14-.5.2-1.37.27-2.62.22l-3.16-.12m13.75.18l-.5-13.7 2.3-.1.5 13.7-2.3.1m6.14-.37l-.83-11.4-2.64.24-.16-2.26 7.56-.7.17 2.27-2.64.24.85 11.4-2.3.2M498 426l2.28-.43 1.43 9.1c.17 1.05.4 1.73.68 2.07.3.32.72.43 1.3.3.6-.1.96-.36 1.12-.78.17-.42.17-1.16 0-2.22l-1.42-9.07 2.24-.43 1.46 9.33c.14.9.2 1.58.17 2.02-.03.42-.12.8-.3 1.17a3.27 3.27 0 0 1-1.12 1.32c-.5.33-1.12.57-1.85.7-1.4.28-2.43.14-3.1-.42-.68-.56-1.15-1.68-1.4-3.35L498 426m12.3 3.48l.93-.25c.7-.2 1.15-.47 1.37-.85.2-.38.24-.94.08-1.67-.16-.73-.4-1.2-.73-1.4-.32-.23-.84-.25-1.56-.05l-.97.26.87 3.98m-.52 8.08l-2.92-13.33 3.88-1.05c1.18-.32 2.1-.25 2.75.2.64.44 1.1 1.34 1.4 2.67.3 1.32.23 2.38-.2 3.17-.4.8-1.17 1.34-2.3 1.65l-1.64.44 1.24 5.66-2.22.6m8.82-9.66c.6 2.15 1.1 3.47 1.5 3.95.4.48.9.6 1.5.4.6-.22.93-.64 1-1.26.06-.64-.22-2.04-.84-4.2s-1.12-3.5-1.5-4c-.38-.46-.88-.6-1.48-.38-.6.2-.95.64-1 1.27-.08.63.2 2.03.82 4.2m-2.24.8c-.4-1.4-.65-2.52-.77-3.4-.13-.86-.13-1.55 0-2.06.18-.7.46-1.28.86-1.7.4-.43 1-.77 1.77-1.05s1.43-.37 1.98-.28c.55.08 1.1.36 1.6.84.37.34.74.9 1.08 1.7.36.77.73 1.86 1.12 3.24.4 1.38.65 2.5.77 3.37.12.87.12 1.56 0 2.08-.18.72-.47 1.3-.87 1.7-.4.43-1 .78-1.76 1.05-.78.27-1.44.36-1.98.28-.55-.1-1.08-.37-1.6-.85-.36-.33-.72-.9-1.07-1.67-.37-.8-.74-1.88-1.14-3.27m11.3 3.13l-4.6-12.74 2.2-.98 6.2 7.57-3.3-8.9 2.03-.88 4.58 12.73-2.18.97-6.22-7.58 3.28 8.9-2 .9m14.3-7.04l-4.83-10.13-2.34 1.38-.96-2 6.7-3.94.96 2-2.33 1.38 4.8 10.13-2.02 1.2m5.43-3.24l-6.6-11.6 1.94-1.35 2.6 4.56 2.65-1.87-2.58-4.56 1.92-1.36 6.6 11.6-1.94 1.36-3-5.26-2.65 1.87 3 5.26-1.95 1.36m8.24-5.93l-7.44-10.95 5.06-4.24 1.24 1.82-3.24 2.7 1.72 2.54 3-2.52 1.2 1.73-3.02 2.54 2.05 3 3.3-2.77 1.26 1.85-5.14 4.3m6.35-11.76l1.64-1.8.57.64c.53.6.96.94 1.3 1 .32.08.65-.07.98-.43.35-.38.52-.77.53-1.16 0-.38-.15-.77-.5-1.15-.25-.3-.53-.47-.84-.54-.3-.07-.83-.04-1.54.1l-1.42.24c-1.22.23-2.1.28-2.6.13-.53-.15-1.03-.5-1.52-1.06-.72-.8-1.08-1.7-1.05-2.64.04-.94.44-1.83 1.2-2.67.82-.9 1.67-1.34 2.54-1.32s1.72.5 2.54 1.42c.08.1.14.17.18.23.05.05.1.1.12.14l-1.56 1.7-.23-.27c-.48-.53-.9-.82-1.25-.88-.36-.06-.72.1-1.07.5-.27.3-.4.6-.4.94 0 .34.14.65.4.96.37.4 1.1.5 2.23.26a.1.1 0 0 1 .04 0l1.5-.3c1.07-.24 1.9-.27 2.5-.1.6.17 1.2.58 1.77 1.24.8.9 1.17 1.82 1.14 2.8-.03 1-.47 1.94-1.32 2.87-.88.96-1.77 1.42-2.65 1.4-.88-.05-1.78-.6-2.7-1.63-.1-.1-.26-.3-.46-.57l-.03-.04m9.56-3.85l-9.47-8.8 4.08-5.4 1.57 1.46-2.6 3.45 2.2 2.05 2.42-3.22 1.5 1.4-2.43 3.22 2.6 2.42 2.66-3.53 1.6 1.48-4.13 5.5m2.4-12.3l1.1-1.8-4.85-2.3 3.75 4.1m2.26 6.12l-8.7-10.22 1.73-2.85 11.8 5.08-1.37 2.28-2.92-1.36-1.48 2.44 2.25 2.48-1.3 2.16m1.46-11.15l1.05-2.3.72.42c.67.38 1.18.55 1.5.5.34-.04.6-.3.82-.76.22-.48.28-.9.18-1.28-.1-.38-.37-.7-.8-.93-.32-.2-.64-.26-.96-.22-.32.04-.8.24-1.43.6l-1.28.75c-1.1.65-1.9 1-2.45 1.03-.53.05-1.1-.1-1.72-.46-.92-.53-1.5-1.24-1.75-2.15-.24-.92-.12-1.9.38-2.97.53-1.13 1.2-1.84 2.04-2.12.84-.28 1.78-.12 2.82.47.1.06.18.1.24.15.05.03.1.06.14.1l-1 2.15-.3-.17c-.58-.34-1.06-.47-1.4-.4-.37.07-.66.35-.9.85-.16.36-.2.7-.1 1.03.1.3.3.57.66.76.46.26 1.18.1 2.18-.53a.08.08 0 0 1 .02 0l1.34-.82c.95-.6 1.73-.9 2.35-.95.6-.05 1.3.14 2.02.55 1 .57 1.62 1.33 1.87 2.27.24.95.1 2-.45 3.18-.57 1.23-1.28 1.98-2.13 2.26-.84.26-1.85.06-3.02-.6a11.54 11.54 0 0 1-.6-.4h-.04"/></svg>