<svg xmlns="http://www.w3.org/2000/svg" width="640" height="480"><g fill-rule="evenodd"><path fill="#6fdcff" d="M0 0h640v480H0z"/><g fill="#ffe400"><path d="M60.23 467c3.26 3.18 2.2 8.53 11.23 7.85 13.8 0 14.2-8.45 14.2-14.35s-20.57-14.12-21.5-22.8c-.97-8.66 4.73-11.08 9.5-11.08 4.76 0 8.1 2.77 8.1 5.2s-2.38 3.12-5.72 3.12 1.43-1.74-1.42-3.12-4.77 2.07-4.77 4.16c0 2.08 7.14 2.77 11.9 1.2.96 4.7 1.43 5.04-5.24 13 4.8-3.1 5.24-3.8 10.5-2.07-5.25-4.5-1.32-13.7-1.15-16.02s-1-5.12-3.14-6.5c-3.8-3.47-12.13-3.63-17.13-1.4-7.27 3.25-7.63 12.82-5.72 15.95L80 460.8c1.44 2.44 1.93 9.2-6.63 9.53-9.05.7-12.15-11.64-13.75-15.74-2.16 4.47-4.56 16.83-13.6 16.14-8.58-.34-10.23-7.1-8.8-9.53l20.7-21.07c1.9-3.13 1.55-12.7-5.73-15.95-5-2.23-13.32-2.07-17.13 1.4-2.14 1.38-3.34 4.16-3.16 6.5s4.1 11.52-1.13 16.03c5.26-1.72 5.72-1.03 10.5 2.1-6.68-7.98-6.2-8.33-5.26-13 4.78 1.55 11.92.86 11.92-1.22 0-2.1-1.92-5.55-4.77-4.17-2.84 1.4 1.9 3.14-1.4 3.14-3.36 0-5.74-.7-5.74-3.13s3.35-5.18 8.1-5.18 10.48 2.42 9.52 11.1c-.95 8.66-22.05 18.12-22.05 24 0 5.9 1.47 13.12 15.27 13.12 9.04.7 10.1-4.66 13.4-7.85zM59.14 343.3c3.25-3.2 5.92-12.63 14.97-11.94 13.8 0 19.04 7.63 19.04 13.53 0 5.88-28.07 54.07-29.02 62.74-.96 8.67 4.75 11.1 9.52 11.1 4.75 0 8.08-2.78 8.08-5.2s-2.37-3.12-5.7-3.12 1.42 1.73-1.43 3.12-4.77-2.08-4.77-4.17c0-2.08 7.13-2.76 11.9-1.2.95-4.7 1.42-5.04-5.25-13 4.78 3.1 5.23 3.8 10.5 2.07-5.26 4.5-1.33 13.7-1.15 16.04s-1 5.1-3.14 6.5c-3.83 3.47-12.16 3.62-17.15 1.4-7.28-3.26-7.63-12.83-5.73-15.96l27.13-58.6c1.43-2.43-2.37-10.4-10.93-10.75-9.05-.7-12.15 8.8-13.75 12.9l12.32-.9s.47 1.9 0 3.13c-6.38.4-12.33 1.57-12.33 1.57l-.47 6.24h6.08l-.48 2.78s-5.13-.34-5.6 0c-.48.35-.96 6.26-.96 6.26s-.95.34-1.98.34c-1.04 0-2-.35-2-.35s-.47-5.9-.93-6.25c-.48-.34-5.62 0-5.62 0l-.45-2.76h6.08l-.48-6.25S49.5 351.4 43.12 351c-.46-1.24 0-3.14 0-3.14l12.33.9c-1.6-4.1-4.7-13.58-13.74-12.9-8.57.35-12.37 8.33-10.94 10.76l27.14 58.6c1.9 3.13 1.54 12.7-5.73 15.95-5 2.23-13.32 2.07-17.13-1.4-2.14-1.38-3.34-4.16-3.16-6.5s4.1-11.52-1.14-16.03c5.26 1.73 5.73 1.04 10.5-2.08-6.68 7.97-6.2 8.32-5.25 13 4.75-1.56 11.9-.87 11.9 1.2 0 2.1-1.92 5.56-4.78 4.18-2.84-1.4 1.9-3.13-1.4-3.13-3.36 0-5.73.7-5.73 3.14s3.32 5.2 8.08 5.2 10.47-2.43 9.5-11.1c-.93-8.67-29-56.86-29-62.75 0-5.9 5.22-13.54 19.02-13.54 9.05-.7 12.26 8.75 15.54 11.93zM59.14 319.4c3.25 3.2 5.92 12.63 14.97 11.94 13.8 0 19.04-7.63 19.04-13.53 0-5.88-28.07-54.07-29.02-62.74-.96-8.67 4.75-11.1 9.52-11.1 4.75 0 8.08 2.78 8.08 5.2s-2.37 3.13-5.7 3.13 1.42-1.75-1.43-3.13-4.77 2.07-4.77 4.16c0 2.08 7.13 2.77 11.9 1.2.95 4.7 1.42 5.04-5.25 13 4.78-3.1 5.23-3.8 10.5-2.07-5.26-4.5-1.33-13.7-1.15-16.03s-1-5.12-3.14-6.5c-3.83-3.47-12.16-3.63-17.15-1.4-7.28 3.25-7.63 12.82-5.73 15.95l27.13 58.6c1.43 2.43-2.37 10.4-10.93 10.75-9.05.7-12.15-8.8-13.75-12.9l12.32.9s.47-1.9 0-3.13c-6.38-.4-12.33-1.57-12.33-1.57l-.47-6.24h6.08l-.48-2.78s-5.13.34-5.6 0c-.48-.34-.96-6.25-.96-6.25s-.95-.35-1.98-.35c-1.04 0-2 .35-2 .35s-.47 5.9-.93 6.25c-.48.34-5.62 0-5.62 0l-.45 2.77h6.08l-.48 6.23s-5.96 1.16-12.33 1.57c-.46 1.24 0 3.14 0 3.14l12.32-.9c-1.6 4.1-4.7 13.58-13.73 12.9-8.57-.35-12.37-8.33-10.94-10.76l27.14-58.6c1.9-3.13 1.54-12.7-5.73-15.95-5-2.23-13.32-2.07-17.13 1.4-2.14 1.38-3.34 4.16-3.16 6.5s4.1 11.52-1.14 16.03c5.26-1.73 5.73-1.04 10.5 2.08-6.68-7.97-6.2-8.32-5.25-13 4.75 1.56 11.9.87 11.9-1.2 0-2.1-1.92-5.56-4.78-4.18-2.84 1.4 1.9 3.13-1.4 3.13-3.36 0-5.73-.7-5.73-3.13s3.32-5.2 8.08-5.2 10.47 2.42 9.5 11.1c-.93 8.66-29 56.85-29 62.74 0 5.9 5.22 13.54 19.02 13.54 9.05.7 12.26-8.75 15.54-11.93zM59.14 160.6c3.25-3.17 5.92-12.6 14.97-11.92 13.8 0 19.04 7.63 19.04 13.53 0 5.9-28.07 54.1-29.02 62.76-.96 8.67 4.75 11.1 9.52 11.1 4.75 0 8.08-2.78 8.08-5.2s-2.37-3.13-5.7-3.13 1.42 1.74-1.43 3.12-4.77-2.07-4.77-4.16c0-2.1 7.13-2.78 11.9-1.22.95-4.68 1.42-5.03-5.25-13 4.78 3.12 5.23 3.8 10.5 2.08-5.26 4.5-1.33 13.7-1.15 16.03s-1 5.1-3.14 6.5c-3.83 3.46-12.16 3.62-17.15 1.4-7.28-3.26-7.63-12.83-5.73-15.96l27.13-58.6c1.43-2.43-2.37-10.4-10.93-10.75-9.05-.7-12.15 8.78-13.75 12.88l12.32-.9s.47 1.9 0 3.13c-6.38.43-12.33 1.6-12.33 1.6l-.47 6.23h6.08l-.48 2.77s-5.13-.35-5.6 0c-.48.34-.96 6.25-.96 6.25s-.95.35-1.98.35c-1.04 0-2-.35-2-.35s-.47-5.9-.93-6.25c-.48-.35-5.62 0-5.62 0l-.45-2.77h6.08l-.48-6.24s-5.96-1.17-12.33-1.6c-.46-1.22 0-3.12 0-3.12l12.33.9c-1.6-4.1-4.7-13.58-13.74-12.9-8.57.35-12.37 8.33-10.94 10.76l27.14 58.6c1.9 3.13 1.54 12.7-5.73 15.95-5 2.22-13.32 2.06-17.13-1.4-2.14-1.4-3.34-4.17-3.16-6.5s4.1-11.53-1.14-16.04c5.26 1.73 5.73 1.04 10.5-2.08-6.68 7.97-6.2 8.32-5.25 13 4.75-1.56 11.9-.87 11.9 1.2 0 2.1-1.92 5.56-4.78 4.17-2.84-1.38 1.9-3.12-1.4-3.12-3.36 0-5.73.7-5.73 3.12s3.32 5.2 8.08 5.2 10.47-2.42 9.5-11.1c-.93-8.66-29-56.85-29-62.74 0-5.9 5.22-13.52 19.02-13.52 9.05-.7 12.26 8.75 15.54 11.93zM59.14 136.73c3.25 3.18 5.92 12.62 14.97 11.93 13.8 0 19.04-7.63 19.04-13.53 0-5.9-28.07-54.1-29.02-62.75-.96-8.68 4.75-11.1 9.52-11.1 4.75 0 8.08 2.78 8.08 5.2s-2.37 3.12-5.7 3.12 1.42-1.73-1.43-3.12-4.77 2.08-4.77 4.17c0 2.07 7.13 2.76 11.9 1.2.95 4.68 1.42 5.04-5.25 13 4.78-3.12 5.23-3.8 10.5-2.07-5.26-4.5-1.33-13.7-1.15-16.04s-1-5.1-3.14-6.5c-3.83-3.47-12.16-3.62-17.15-1.4-7.28 3.26-7.63 12.83-5.73 15.96l27.13 58.6c1.43 2.43-2.37 10.4-10.93 10.75-9.05.7-12.15-8.8-13.75-12.9l12.32.9s.47-1.9 0-3.13c-6.38-.42-12.33-1.57-12.33-1.57l-.47-6.25h6.08l-.48-2.76s-5.13.34-5.6 0c-.48-.35-.96-6.26-.96-6.26s-.95-.34-1.98-.34c-1.04 0-2 .34-2 .34s-.47 5.9-.93 6.26c-.48.34-5.62 0-5.62 0l-.45 2.76h6.08l-.48 6.25s-5.96 1.16-12.33 1.57c-.46 1.23 0 3.13 0 3.13l12.32-.9c-1.6 4.1-4.7 13.6-13.73 12.9-8.57-.35-12.37-8.32-10.94-10.75L57.9 74.8c1.9-3.13 1.54-12.7-5.73-15.95-5-2.23-13.32-2.08-17.13 1.4-2.14 1.38-3.34 4.15-3.16 6.5s4.1 11.52-1.14 16.03c5.26-1.74 5.73-1.05 10.5 2.07-6.68-7.96-6.2-8.32-5.25-13 4.75 1.56 11.9.87 11.9-1.2 0-2.1-1.92-5.56-4.78-4.17-2.84 1.4 1.9 3.12-1.4 3.12-3.36 0-5.73-.7-5.73-3.12s3.32-5.2 8.08-5.2 10.47 2.43 9.5 11.1c-.93 8.66-29 56.86-29 62.75 0 5.9 5.22 13.53 19.02 13.53 9.05.7 12.26-8.75 15.54-11.93zM60.23 13c3.26-3.18 2.2-8.54 11.23-7.85 13.8 0 14.2 8.45 14.2 14.35 0 5.88-20.57 14.12-21.5 22.78-.97 8.68 4.73 11.1 9.5 11.1 4.76 0 8.1-2.78 8.1-5.2s-2.38-3.12-5.72-3.12 1.43 1.73-1.42 3.12-4.77-2.07-4.77-4.16c0-2.08 7.14-2.77 11.9-1.2.96-4.7 1.43-5.05-5.24-13 4.78 3.1 5.24 3.8 10.5 2.07-5.25 4.5-1.32 13.68-1.15 16.02s-1 5.12-3.14 6.5c-3.8 3.47-12.13 3.63-17.13 1.4-7.27-3.25-7.63-12.83-5.72-15.96L80 19.2c1.44-2.44 1.93-9.2-6.63-9.54-9.05-.7-12.15 11.64-13.75 15.74-2.16-4.47-4.56-16.83-13.6-16.15-8.58.35-10.23 7.1-8.8 9.53l20.7 21.08c1.9 3.13 1.55 12.7-5.73 15.95-5 2.25-13.32 2.1-17.13-1.38-2.14-1.38-3.34-4.16-3.16-6.5S36 36.4 30.78 31.9c5.26 1.72 5.72 1.03 10.48-2.1-6.66 7.97-6.18 8.33-5.24 13 4.77-1.55 11.92-.86 11.92 1.22s-1.92 5.55-4.77 4.16c-2.84-1.4 1.9-3.12-1.4-3.12-3.36 0-5.74.7-5.74 3.12s3.35 5.2 8.1 5.2 10.48-2.42 9.52-11.1c-.95-8.66-22.05-18.12-22.05-24 0-5.9 1.46-13.13 15.27-13.13 9.04-.7 10.1 4.67 13.4 7.85z"/></g><g fill="#ffe400" transform="translate(-194.73 8.285) scale(1.067)"><rect width="170.24" height="161.3" x="425.9" y="104.45" rx="85.12" ry="80.648"/><path d="M506.94 56.35c-.7 0-4.53 26.85-6 32.88-1.34 13.43 18.06 12.94 14.88-.53l-8.88-32.35zm6.83 259.86c.7.06 6.5-26.47 8.4-32.4 2.3-13.3-17.07-14.1-14.9-.44l6.5 32.85zm-135.6-131.6c-.06.68 27.9 6.3 34.16 8.13 14.03 2.25 14.96-16.1.54-14.1l-34.7 5.98zm271.72 3.2c.02-.67-28.18-5.27-34.5-6.9-14.12-1.74-14.23 16.64.1 14.13l34.4-7.23zM406.8 99.64c-.5.5 17.88 21.25 21.6 26.35 9.58 9.96 22.26-3.96 9.6-10.8l-31.2-15.56zm211.15 171c.43-.53-19.77-19.7-23.94-24.47-10.45-9.15-21.8 5.76-8.58 11.54l32.53 12.94zM448.97 70.62c-.64.28 7.97 26.1 9.34 32.17 4.85 12.67 22.18 4.4 13.25-6.5l-22.58-25.68zm123 232.34c.67-.24-6.02-26.57-6.95-32.7-3.9-12.98-21.8-5.87-13.68 5.6l20.64 27.1zm30.2-214.36c-.52-.46-22.72 16.6-28.16 20.05-10.67 8.92 3.8 21.15 11.24 9.28l16.92-29.33zM419.23 282.33c.48.5 23.87-15.08 29.55-18.14 11.3-8.2-2.25-21.37-10.54-10l-19.02 28.13zm-35.1-144.17c-.28.6 24.13 14.71 29.37 18.42 12.46 6.54 19.78-10.48 5.48-13.14l-34.83-5.28zm253.93 98.44c.33-.6-23-16.27-27.94-20.3-11.94-7.36-20.5 9.15-6.42 12.74l34.37 7.56zm-80.7-172.88c-.66-.25-14.57 23.4-18.28 28.52-6.42 12.04 11.83 18.3 14.07 4.66l4.2-33.18zm-93.85 244.25c.64.3 16.25-22.4 20.32-27.25 7.28-11.6-10.46-19.04-13.7-5.58l-6.62 32.83zm-77.48-69.3c.26.64 28-5.98 34.45-6.92 13.64-3.82 5.95-20.7-6.07-12.9l-28.4 19.83zm252.1-102.56c-.22-.63-28.37 4.14-34.88 4.65-13.9 2.92-7.47 20.26 5.1 13.28l29.77-17.92zM534.62 58.12c-.7-.14-10.14 25.43-12.87 31.06-4.15 12.9 14.95 16.12 14.7 2.3l-1.83-33.36zm-48.47 255.85c.68.2 11.98-24.7 15.12-30.14 5.08-12.6-13.74-17.06-14.5-3.28l-.62 33.42zm-9.77-253.33c-.7.14 1.92 27.12 1.9 33.32 1.88 13.37 20.67 8.78 14.4-3.68l-16.3-29.64zm68 251.82c.7-.1.08-27.18.56-33.36-.9-13.46-19.98-10.12-14.63 2.72l14.1 30.64zM428.17 83.1c-.58.38 12.77 24.34 15.26 30.06 7.15 11.66 22.64.6 11.8-8.63L428.16 83.1zm164.86 207.76c.6-.34-10.95-25.13-13.02-31-6.28-12.1-22.54-2.08-12.4 7.83l25.42 23.16zM393 116.64c-.4.56 21.13 18.4 25.62 22.9 11.1 8.44 21.36-7.15 7.75-12.08L393 116.64zm234.2 139.62c.43-.53-19.74-19.74-23.9-24.52-10.44-9.16-21.83 5.72-8.6 11.53l32.5 13zm-249.63-97.73c-.18.65 26.34 10.78 32.14 13.63 13.42 4.53 17.7-13.4 3.14-13.8l-35.27.17zm267.47 57.82c.23-.64-25.48-12.5-31.07-15.7-13.04-5.4-18.63 12.2-4.13 13.56l35.2 2.15zm-268.34-6.4c.1.67 28.7.27 35.2.76 14.22-.74 10.83-18.84-2.76-13.87l-32.44 13.13zm270.2-44.98c-.04-.67-28.6-2.15-35.06-3.07-14.23-.18-12.17 18.1 1.75 14.03l33.3-10.96zM401.2 263.43c.4.56 25.93-11.64 32.02-13.9 12.43-6.56 1.04-21.44-8.9-11.34l-23.12 25.23zm222.3-152.33c-.35-.58-26.72 9.9-32.96 11.76-12.88 5.73-2.6 21.32 8.04 11.9l24.92-23.66zM442.83 298.77c.6.36 18.87-20.47 23.5-24.85 8.65-10.7-8.07-20.05-12.92-7.03l-10.57 31.87zm139.7-223.7c-.56-.4-20.32 19.18-25.26 23.23-9.4 10.13 6.58 20.54 12.38 7.87l12.9-31.1z"/><g transform="matrix(2.182 0 0 2.063 -405.01 -272.56)"><path d="M360.14 247.9c.62 2.5.78 16.55 14.84 30 14.06 13.43 37.97 16.4 37.97 16.4s.16 1.87-1.56 2.03c-1.73.15-9.86-1.57-13.92-2.82-4.06-1.24-7.66-3.42-8.12-3.27-.47.16-1.25 1.56-2.5 1.4s-7.04-6.24-9.54-7.8c-2.5-1.57-10.93-10.78-13.75-15.32-2.8-4.52-3.43-7.5-4.37-7.5s-4.22 2.2-4.22 2.2-2.97-4.53-5.62-11.72c-2.66-7.18-2.35-11.4-1.72-11.72.62-.3.62 5.32 2.65 10.47 2.02 5.16 4.84 6.72 4.84 6.72s-1.88-2.65-3.28-9.37-1.88-13.13-.94-15.16c.94-2.03 1.87-2.66 2.03-2.5.16.16-1.72 3.13-.47 10.78s4.84 14.22 5.63 13.9c.8-.3-.46-1.87-1.1-6.4s.64-7.34 1.73-7.65c.47-.47 1.25 5 1.4 7.34zm-9.85 12.8c-2.66-2.5-6.88-11.25-7.82-10.78-.94.47 6.87 12.97 7.03 14.06.17 1.1 1.9 4.53.64 4.06s-10.63-10.3-9.54-8.43 8.13 10.47 7.66 10.94-5.78-4.7-5.94-4.06c-.15.63 5.32 5.78 5.16 6.4s-3.44-3.27-3.44-2.5 3.44 4.7 3.44 5.32-2.97-2.8-2.03-.94c.94 1.88 3.6 3.6 3.44 4.22s-2.2-.78-2.2-.47c0 .32 3.9 1.73 4.84 2.82.94 1.1 7.35 8.44 12.2 12.2s18.58 10.15 19.52 10.15c.94 0 2.34-2.03 2.03-2.8-.32-.8-13.76-5.33-17.5-8.76-3.76-3.43-12.98-11.56-13.76-12.03-.78-.46-2.8-.3-2.8-.78s2.65.3 2.5 0c-.17-.32-3.76-1.88-3.6-2.2.15-.3 2.5.63 2.5.32 0-.3-4.22-2.66-4.07-3.13.16-.48 3.13 1.4 3.13 1.1 0-.33-4.06-3.14-3.9-3.6.15-.48 3.12 2.18 2.96 1.56s-2.34-3.9-2.34-4.38c0-.47 3.6 3.44 3.9 2.66.32-.78-1.25-7.2-1.1-7.35s2.65 1.4 3.12.48c.47-.94-1.83-2.24-4.05-4.08zm46.1 49.2c-1.9.25-2.75-.4-1.67-1.93 1.5-.1 5.45-1.38 6.85-1.96s2.9-1.4 4.13-2.53c1.25-1.22 1.92.78 1.3 1.82-.52.72-2.84 2.03-4.55 2.73-2.48.82-4.6 1.97-6.05 1.87zm12.5-5.13c-1.26-1.4-.17-2.34 1.7-3.44 2.82-1.56 2.04-3.6 5.63-5.3 1.56-.95 23.9-10 31.25-14.85s27.8-20.32 33.28-30.94c5.47-10.63 2.82-11.4 3.6-11.88.78-.47 1.56 1.57 1.4 3.9-.15 2.35-1.87 9.38-1.4 10s8.28-5.46 11.4-12.96 5.63-15.3 7.2-15.3c1.55 0-2.67 12.8-5.32 17.8-2.66 5-5.78 7.5-5 8.6.78 1.1 8.6-5.47 11.25-10.32 2.64-4.84 5.14-9.22 5.6-8.28.48.94-2.5 11.25-6.7 16.1-4.23 4.84-9.23 8.28-8.44 9.06.78.78 6.4 1.56 12.34-2.5 5.94-4.07 6.56-10 7.34-9.7.8.32-.78 8.45-6.4 13.45s-13.28 5.48-12.97 6.57c.3 1.1 16.25-4.53 15.94-3.28-.3 1.24-20.62 9.2-20.78 10 0 .6 3.44.77 8.9-.48 5.48-1.25 10.64-5.47 11.42-4.53.15 1.4-3.9 4.83-10.16 6.4-6.25 1.56-9.37 3.74-9.53 4.2-.16.48 11.1-1.4 11.1-.77s-14.7 3.44-14.85 4.22c-.16.78 14.06-2.8 13.75-2.03-.3.78-19.22 6.4-19.06 6.72.14.3 15.77-3.44 15.46-2.8-.32.6-26.4 7.95-26.57 8.42-.16.47 22.96-5.15 22.8-4.68s-12.03 3.43-12.03 3.75c0 .3 9.54-1.57 9.38-1.1-.16.47-24.06 6.56-24.53 7.5-.47.94 12.34-2.5 12.2-.78s-27.67 11.1-27.83 9.38c-.16-1.72 16.7-6.1 16.56-6.57-.16-.47-9.7 1.1-9.85.16-.14-.94 6.26-2.97 5.8-3.44-.48-.47-5.32 1.4-4.85.3.47-1.08 9.53-5.3 9.38-5.6-.16-.32-3.3 1.08-2.97 0 .3-1.1 19.68-6.73 19.37-7.35-.3-.63-8.9 1.4-9.7 1.56-.3-.64 12.05-5.17 11.73-5.95-.3-.78-6.56 2.66-6.87 1.72-.33-.94 10.77-5.3 10.14-5.94s-5.78 1.72-6.4 1.1 10.47-8.44 8.75-8.6c-1.73-.15-3.76 2.35-4.07.78.3-2.02 8.75-5.3 6.87-6.86-2.97-.94-13.13.62-17.34 3.12s-18.13 16.4-21.57 18.6c-3.44 2.18-15 7.03-17.2 7.97-3.43 1.25-4.06 3.12-7.5 4.84-6.25 1.72-6.24 3.6-9.2 4.7-1.1.3-12.36 5.77-12.5 5.3zm-15.8 7.03c-1.87.94-3.6 3.44-2.5 4.37.63 1.25 2.5-2.65 4.07-2.5 1.56.16 3.75.16 7.97.47 4.22.3 6.4-.94 8.75-.78s7.65-1.25 10.15-1.25 2.96.32 3.28-.77c.3-1.1-7.82-.3-11.4-.47-3.6-.16-8.14.78-10.8.78-2.5-.15-6.87-.94-9.52.16z"/><rect width="3.438" height="2.969" x="401.7" y="309.14" rx="1.719" ry="1.484"/><path d="M445.02 307.73c1.72-.3 6.3 1.25 9.48 2.03 5.83 2.2 16.6 1.1 16.6 2.2s-.67 2.5-3.24 2.65-8.76-.93-8.6-.93 4.98 2.2 3.6 2.8-5.47-1.24-6.16-.77 3.77 1.4 3.1 1.72c-.7.3-3.8-.47-4.82-.3-1.03.14.86 1.24-.34 1.7-1.2.47-3.2-.62-4.07-.3-.86.3 1.85 2.02.65 2.18-1.2.16-4.1-.78-5.64-.94-1.54-.15 1.52 1.56.5 1.72-1.04.16-3.83-1.25-4.52-1.25s.06 1.88-.97 1.88c-1.04 0-2.25-1.56-2.77-1.56s0 1.88-1 1.88-1.4-2.03-2.27-1.88c-1 .16.03 2.66-1.34 2.5-1.37-.15-1.56-2.65-2.58-2.5-1.03.16.18 2.5-.85 2.5-1.04 0-1.2-2.34-2.24-2.5-1.02-.15-.52 2.2-1.2 2.2s-1.2-2.2-1.54-2.2c-.34 0 0 2.2-1.2 2.03s-1.2-2.5-1.54-2.34c-.34.16-.35 1.72-1.2 1.72s-.86-1.56-1.2-1.4c-.34.15-1.55 2.18-2.4 1.87-.86-.3.2-1.88-.14-1.88s-1.4 1.1-2.1.94.04-1.4-.13-1.4c-.16 0-1.74.78-2.43.78s-2.57 1.1-3.08.15c-.52-.92 1.33-.92 1.67-1.86.35-.94-1-3.6.38-4.53 1.37-.93 5.65 1.26 12-.3 11.65-3.13 20.65-6.72 21.57-6.57z"/></g></g></g></svg>