<svg xmlns="http://www.w3.org/2000/svg" width="640" height="480"><defs><clipPath id="a"><path fill-opacity=".67" d="M-85.33 0h682.67v512H-85.33z"/></clipPath></defs><g clip-path="url(#a)" transform="translate(80) scale(.938)"><g fill-rule="evenodd"><path fill="#f00" d="M-128 384h767.98v128H-128zm0-384h767.98v128H-128z"/><path fill="#fff" d="M-128 128h767.98v256H-128z"/></g><path fill="#007900" d="M252.1 129.95c-7.8 15.6-13.02 15.6-26.03 26-5.2 5.2-13.02 7.8-2.6 13-10.42 5.18-15.63 7.78-20.83 18.18l2.6 2.6s9.9-4.85 10.4-2.6c1.74 2.08-13 10.05-14.92 11.26-1.9 1.2-11.1 6.92-11.1 6.92-13.02 10.4-20.83 7.8-28.64 23.4l26.04-2.6c5.2 18.2-13.02 20.78-26.04 28.58l-20.83 13c5.2 18.2 20.83 7.8 33.85 2.6l2.6 2.6v5.2l-26.03 13s-30.73 17.57-31.24 18.18c-.2.94 0 5.2 0 5.2 10.4 2.6 26.03 5.2 36.45 0 13-5.2 15.62-10.4 31.24-10.4-18.23 13-31.24 18.2-52.07 20.8v10.4c15.62 0 26.03 0 39.05-2.6l33.84-10.4c7.8 0 15.62 7.8 13.02 15.6-7.8 28.58-39.05 23.38-49.47 46.77l41.65-15.6c10.4-5.2 20.83-10.4 33.84-7.8 15.6 5.2 15.6 15.6 36.44 20.8l-5.2-13c5.2 2.6 10.4 2.6 15.6 5.2 13.03 5.2 15.64 10.4 31.25 7.8-13.02-15.6-15.62-13-26.04-23.4-10.4-15.58-15.62-38.97 0-41.57l18.23 5.2c18.2 2.6 18.2-2.6 44.24 7.8 15.62 5.2 20.83 13 39.05 7.8-7.82-18.2-36.45-31.2-54.68-36.4 20.83-13 15.62 5.2 44.26-2.6v-5.2c-20.83-15.6-28.64-28.58-57.27-28.58l44.26-5.2v-5.2s-43.64-11.45-44.66-11.86c.3-1.32 1.37-3.36 4.27-4.5 8.3 5.37 33.36 4.75 34.78 4.65-.73-6.4-12.6-11.7-23.02-16.9 0 0-44.6-27.47-44.8-29.9.87-6.97 18.3 1.1 37 6.52-5.22-10.4-15.63-15.6-26.05-18.2l15.62-2.6c-10.4-23.38-36.44-20.78-52.06-31.18-10.42-7.8-10.42-13-26.04-20.8z"/><path fill="#fff" fill-rule="evenodd" stroke="#fff" stroke-width="3.219" d="M223.96 303.07c1.93-6.2 4.48-11.67-7.12-16.95-11.6-5.28 5.8 21.1 7.12 16.95zm13.73-12.4c-2.35.3-3.57 8.84 1.1 11.18 5.2.8.92-11.07-1.1-11.17zm13.52-.9c-2.44.7-2.54 12.7 6 10.56 8.54-2.13-.1-11.57-6-10.56zM266.98 259c1.83-2.94-.1-15.02-7.42-9.94-7.33 5.08 5.08 10.76 7.42 9.95zM251 248.97c2.25-.8 2.45-8.22-3.95-6.3-6.4 1.94 2.23 7.82 3.96 6.3zm-14.42 2.94s-4.47-6.2-7.93-4.87c-4.38 4.16 8.24 4.97 7.93 4.87zm-49.6 19.8c1.92.16 16.04-2.34 20.92-7.82 4.88-5.48-25.13 2.35-25.13 2.45 0 .1 2.84 4.84 4.22 5.36zm141.12-34.97c.73-1.3-7.52-7.17-12.42-4.86-1.26 4.34 12.38 5.75 12.42 4.86zm-27.76-13.97c1.53-2.23-3.56-11.37-13.73-6.3-10.16 5.08 10.7 9.85 13.74 6.3zm-32.14-5.38s2.54-8.22 8.64-6.6c6.92 5.28-8.34 6.9-8.64 6.6zm-6-6.2c-.92-2.33-7.32-.9-14.64 3.87-7.33 4.77 16.88 1.42 14.64-3.86zm18.7-22.12s6.53-2.92 8.45 0c2.75 4.37-8.54.1-8.44 0zm-5.46-2.86c-1.32-2.64-8.54-2.9-8.36.93-1.2 2.98 9.38 2.43 8.36-.93zm-17.2 0c-.7-1.5-10.98.04-14.03 6.2 4.9 2.38 16.28-2.33 14.04-6.2zm-21.97 6.3s-13.5 8.27-14.34 14.32c.4 5.23 16.78-9.44 16.78-9.44s1.43-5.78-2.43-4.87zm-14.95-7.5c.38-1.68 6.67-5.57 7.22-5.28.5 1.7-5.14 6.28-7.22 5.28zm4.27 31.57c.3-2.44-16.08-2.23-9.87 5.28 5.16 6.3 10.98-4.16 9.86-5.28zm-14.9 10.78c-.86-1.65-2.1-6.04-4.33-6.44-1.83-.1-11.68 1.94-12.43 3.6-.4 1.32 4.08 9.44 5.6 9.64 1.73.7 10.84-5.98 11.15-6.8zm88.32 55.1c.5-1.72 17.24-7.5 23.02-1.97 6.8 9.34-23.43 4.93-23.02 1.98zM345 293.4c3.67-6.2-11.26-13.57-17.6-6.48 2.17 8.52 14.64 11.6 17.6 6.47z" stroke-linejoin="round" stroke-linecap="round"/></g></svg>