<svg xmlns="http://www.w3.org/2000/svg" width="640" height="480" xmlns:xlink="http://www.w3.org/1999/xlink"><path fill="#002b7f" d="M0 0h640v240H0z"/><path fill="#ce1126" d="M0 240h640v240H0z"/><g fill="#ffd83d" stroke="#000" stroke-width="2" transform="scale(.8)" stroke-linecap="round" stroke-linejoin="round"><g id="a"><path stroke="none" d="M216.38 122.3l-1.84 62.5h-63.42c-7.8-15.18-14.25-28.06-14.25-45.5 0-14.6 11.5-26.2 28.04-26.2 17.53 0 36.78 5.9 51.48 9.2z"/><path d="M144.46 125.16v36.08m5.1-39.76v48.03m5.08-50.55v57.23m5.1-58.4v44.87m5.1-45.1v45.32m5.08-46.9v46.88m5.1-46.9v46.9m5.1-46.43v46.9m5.08-46.44v46.9m5.1-43.9v46.88m5.1-46.43v52.86m5.08-52.87v46.9m5.1-46.9v46.9"/><path fill="#000" d="M176.4 117.92c10.76 1.78 34.4 12.84 31.7 27.8-3.8 21.22-16.2 12.7-32.62 9.66l-12.4 4.13c-4.45 4.55-11 8.7-15.4 3.23h-7.36v28.72h81.34v-69.4z"/><circle cx="212.815" cy="112.983" r="4.94"/><circle cx="201.713" cy="110.311" r="4.94"/><circle cx="190.45" cy="107.482" r="4.94"/><circle cx="179.143" cy="105.596" r="4.94"/><circle cx="167.836" cy="104.481" r="4.94"/><circle cx="156.749" cy="105.113" r="4.94"/><circle cx="146.179" cy="108.732" r="4.94"/><circle cx="137.276" cy="115.28" r="4.94"/><circle cx="130.957" cy="124.414" r="4.94"/><circle cx="127.912" cy="135.156" r="4.94"/><circle cx="128.027" cy="146.301" r="4.94"/><circle cx="130.152" cy="157.215" r="4.94"/><path d="M215 119.53l-.46 6.43c-12.3-1.88-29.72-8.73-45.96-8.73-15 0-26.65 6-26.65 21.14 0 14.92 6.3 28.5 14.7 42.28l-8.73 4.14c-7.8-15.18-14.25-28.06-14.25-45.5 0-14.6 11.5-28.96 31.25-28.96 17.52 0 35.4 5.9 50.1 9.2z"/></g><use width="100%" height="100%" xlink:href="#a" transform="matrix(-1 0 0 1 443.938 0)"/><path d="M221.97 53.13l-5.16 9.65 5.17 9.63 5.15-9.62-5.15-9.65zm0 24.37l-5.16 9.63 5.17 9.65 5.15-9.65-5.15-9.63zm-18.38-2.55l8.12 5.16 8.1-5.15-8.1-5.15-8.14 5.15zm20.5 0l8.12 5.16 8.13-5.15-8.13-5.15-8.1 5.15z"/><circle cx="221.969" cy="75.069" r="3.906"/><circle cx="221.969" cy="100" r="10.455"/><path fill="none" d="M219.34 89.88c0 3.1-.02 4.92-.03 6.62a62.5 62.5 0 0 0-7.43.78m20.2 0a62.13 62.13 0 0 0-7.45-.78v-6.63m-12.78 12.7a61.4 61.4 0 0 1 10.13-.85c3.45 0 6.83.3 10.12.84"/><path d="M211.75 117.7c-1 17.07-3 34.47-9.66 47.1l10.8-4.36c3.78-14.33 4.58-32.84 5.73-41.6l-6.88-1.15zm20.44 0l-6.9 1.14c1.16 8.75 1.95 27.27 5.73 41.6l10.8 4.37c-6.63-12.63-8.65-30.03-9.64-47.1zM221.95 154.7c-12.9 0-22.4 6.07-22.97 21.58-3.15-5.55-16.5-23.02-28.96-20.7-7.4 1.4-13.96 11.68-12.85 23.45-6.13-17.63-24.1-20.52-37.22-10.1 11.65 9.58 16.82 37.84 26.63 50.1h150.75c9.8-12.26 15-40.52 26.65-50.1-13.1-10.42-31.08-7.53-37.2 10.1 1.1-11.77-5.48-22.04-12.9-23.43-12.45-2.34-25.77 15.13-28.93 20.68-.57-15.5-10.08-21.6-23-21.6z"/><path fill="#000" d="M297.1 219.03c0 5.58-33.65 11.7-75.13 11.7s-75.14-6.12-75.14-11.7c0-5.58 33.66-8.5 75.14-8.5 41.47 0 75.14 2.9 75.14 8.5z"/><circle cx="221.969" cy="114.445" r="3.504"/><circle cx="221.969" cy="122.027" r="3.734"/><circle cx="221.969" cy="130.184" r="4.079"/><circle cx="221.969" cy="139.261" r="4.653"/><circle cx="221.969" cy="149.371" r="5.113"/><path fill="#000" stroke="none" d="M219.94 159.2c-.56 0-1.08.47-.94 1.35.16 1.04.37 3 .56 4.3.22 1.5 1.1 1.14 1.3-.02.23-1.16.15-1.9.2-4.06.03-1.08-.57-1.56-1.12-1.56zm4.06 0c-.55 0-1.15.5-1.13 1.57.06 2.15-.03 2.9.2 4.06.2 1.16 1.08 1.53 1.3.03.2-1.3.4-3.27.57-4.3.14-.9-.4-1.36-.94-1.35zm-7.7.57c-.5.07-1.02.58-1 1.12.07 1 .34 2.18.45 3.68.1 1.55 1.2.95 1.3.06.12-.88.25-2.2.14-3.9-.05-.65-.34-.93-.67-.97a.84.84 0 0 0-.22 0zm11.1 0c-.33.04-.6.32-.65.97a20.13 20.13 0 0 0 .12 3.9c.1.9 1.2 1.5 1.32-.06.1-1.5.37-2.7.42-3.7.03-.53-.5-1.04-1-1.1a.84.84 0 0 0-.22 0zm-15.43 1.75c-.47.12-.9.67-.75 1.3.27 1.28.53 2.7.53 3.98 0 1.1.94.7 1-.06a59.76 59.76 0 0 0 .15-3.9c0-1.12-.47-1.44-.93-1.32zm19.68 0c-.33.1-.62.47-.62 1.3 0 1.5.1 3.14.16 3.92.04.77 1 1.17 1 .06 0-1.3.24-2.7.52-3.97.14-.63-.3-1.2-.75-1.3a.55.55 0 0 0-.3 0zm-59.1.17c-.54-.03-.93.72-.55 1.55.6 1.33 1.25 2.17 1.87 3.6.56 1.27 1.4.47 1.13-.4-.28-.9-.58-1.88-1.4-3.76-.32-.72-.7-1-1.04-1zm98.82 0c-.33 0-.72.28-1.03 1-.83 1.87-1.13 2.85-1.4 3.74-.28.88.57 1.68 1.12.4.62-1.42 1.27-2.26 1.88-3.6.38-.82 0-1.57-.57-1.55zm-94.8.05c-.42.13-.66.64-.42 1.25.5 1.22 1.22 2.46 1.72 3.78.44 1.16 1.43.83 1.1-.22-.34-1.05-.43-1.66-1.1-3.65-.33-1-.9-1.27-1.3-1.15zm90.5 0c-.36.08-.76.4-1 1.16-.67 2-.77 2.6-1.1 3.66-.34 1.05.65 1.38 1.1.22.5-1.32 1.2-2.56 1.7-3.78.26-.6 0-1.12-.4-1.25a.6.6 0 0 0-.3 0zm-85.5.97c-.52.1-.92.88-.57 1.84.44 1.22 1.07 2.37 1.62 3.75.56 1.4 1.47 1.12 1.25.23-.22-.88-.5-2.35-1.15-4.56-.3-.97-.76-1.32-1.16-1.25zm80.8 0c-.4-.08-.86.28-1.15 1.25-.67 2.2-.94 3.68-1.16 4.56-.22.9.7 1.17 1.25-.22.56-1.37 1.2-2.52 1.64-3.74.35-.96-.05-1.74-.57-1.84zm-93.18.7c-.57.04-1.08.95-.73 1.64.55 1.1.9 1.5 1.43 2.66.56 1.22 1.16.28.94-.5-.22-.77-.5-1.67-.78-2.78-.2-.8-.54-1.06-.87-1.03zm105.55 0c-.34-.05-.67.2-.88 1.02-.27 1.1-.56 2-.78 2.78-.23.78.38 1.72.93.5.54-1.17.89-1.55 1.44-2.66.34-.7-.16-1.6-.72-1.65zm-67.03 2.8c-.6 0-1.2.76-1 1.5.33 1.15.84 2.18 1.22 3.67.33 1.32 1.27.66 1.2-.23-.04-.88-.2-2.08-.58-3.96-.14-.7-.5-1-.84-1zm28.5 0c-.35 0-.7.28-.85 1-.38 1.87-.53 3.07-.6 3.96-.04.88.9 1.54 1.23.2.37-1.48.9-2.5 1.22-3.67.2-.72-.42-1.5-1-1.5zm-14.25 1.17c-.72 0-.82.96-.85 1.74-.08 2.58-1.15 5.07-2.06 6.32-.9 1.24-2.25.9-3.5.25-1.24-.66-1.98-1.15-3.3-2.15-1.34-1-2.35-.4-.76 1.84 4.62 6.57 9.62 12.2 9.62 22.93 0 1.4.25 1.8.85 1.8s.87-.4.87-1.8c0-10.73 4.98-16.35 9.6-22.94 1.58-2.26.57-2.85-.75-1.85-1.34 1-2.08 1.5-3.33 2.16-1.24.67-2.6 1-3.5-.24-.9-1.25-1.98-3.74-2.06-6.32-.02-.78-.1-1.75-.83-1.75zm-35.28-1.62a.6.6 0 0 0-.2.03c-.27.1-.45.42-.35.98.2 1 .88 2.97 1.16 3.9.3.95 1.44.75 1.17-.52-.28-1.28-.27-1.66-.6-3.1-.18-.78-.74-1.27-1.18-1.28zm70.55 0c-.44 0-1 .5-1.2 1.28-.32 1.44-.3 1.83-.58 3.1-.28 1.27.88 1.47 1.15.53.28-.95.97-2.92 1.16-3.92.1-.56-.08-.88-.34-.97a.6.6 0 0 0-.2-.02zm-91.53.4c-.58.05-1 .78-.4 1.85.62 1.16 1.7 2.6 2.2 3.44.5.83 1.37.27.76-.78-.6-1.06-.8-2.27-1.53-3.76-.27-.56-.68-.78-1.03-.75zm112.5 0c-.35-.02-.76.2-1.03.76-.73 1.5-.94 2.7-1.55 3.75-.6 1.04.26 1.6.75.77.5-.83 1.6-2.28 2.22-3.44.6-1.07.18-1.8-.4-1.84zm-144.2 3.34c-.66-.04-.87 1.17-.24 1.97.9 1.15 1.55 1.76 2.6 2.7.82.75 1.06-.22.65-.97-.4-.74-1-1.5-1.84-2.75-.47-.68-.87-.95-1.17-.96zm175.88 0c-.3 0-.7.28-1.15.97-.83 1.23-1.43 2-1.85 2.74-.4.74-.17 1.7.66.96 1.05-.94 1.68-1.55 2.6-2.72.62-.8.4-2-.26-1.96zm-170.84 1c-.53 0-.88.4-.47 1.3.6 1.32 1.37 2.8 1.87 3.8s2 1.32 1.4-.23c-.6-1.56-.73-2.35-1.28-3.8-.3-.7-1-1.1-1.54-1.08zm165.8 0c-.52 0-1.24.37-1.52 1.1-.55 1.43-.67 2.22-1.28 3.77-.6 1.54.9 1.2 1.4.2.5-.98 1.3-2.46 1.88-3.77.42-.9.07-1.3-.47-1.3zm-175.55.34c-.76 0-.83.78-.14 1.28.9.67 2 1.4 3.06 2.25 1.24 1 1.72.07 1.06-.76-.66-.83-1.3-1.67-2.97-2.5-.4-.2-.73-.28-1-.28zm185.32 0c-.25 0-.58.07-1 .28-1.66.83-2.3 1.67-2.97 2.5-.66.83-.18 1.75 1.07.75 1.06-.86 2.15-1.6 3.06-2.26.68-.5.62-1.27-.16-1.28zm-109.65.72c-.44.06-.8.55-.63 1.2.33 1.15.7 2.38.94 3.58.22 1.16 1.57 1.18 1.34.13-.22-1.06-.33-2.38-.72-3.98-.14-.6-.44-.9-.75-.94a.62.62 0 0 0-.18 0zm33.8 0c-.3.05-.6.34-.74.94-.4 1.6-.5 2.92-.72 3.97-.2 1.04 1.13 1.02 1.35-.14.23-1.2.6-2.43.94-3.6.17-.63-.2-1.12-.63-1.18a.62.62 0 0 0-.2 0zm-63.9-2c-.34.1-.53.76-.28 1.67 1.4 5.06 1.83 7.73 1.6 8.97-.26 1.24-.95 1.4-1.86 1a18.84 18.84 0 0 1-2.8-1.6c-.84-.57-1.7.12-.5 1.1 6.05 4.98 10.24 10.66 11.87 17.56.34 1.4 1.22 1.58.98 0-1.38-8.7-1.64-15.83.43-20.3.8-1.7 0-3.3-1.24-.57-.83 1.83-2.17 2.55-3.25.98-1.07-1.58-3.3-5.78-3.96-7.7-.25-.7-.55-1.04-.8-1.08a.35.35 0 0 0-.16 0zm94.03 0c-.25.06-.56.4-.8 1.1-.67 1.9-2.9 6.12-3.98 7.7-1.08 1.57-2.42.85-3.25-.97-1.24-2.73-2.03-1.12-1.25.57 2.08 4.48 1.8 11.62.44 20.3-.25 1.6.64 1.42.97 0 1.62-6.9 5.82-12.57 11.88-17.55 1.2-.98.33-1.67-.5-1.1-.83.6-1.9 1.2-2.8 1.6-.92.42-1.6.25-1.85-1-.25-1.24.18-3.9 1.6-8.97.25-.9.05-1.56-.3-1.65a.35.35 0 0 0-.15 0zm-124.46 2.44c-.55 0-1 .4-.75 1.22.38 1.32 1.2 2.76 1.5 3.6.26.82 1.15.43 1-.73-.18-1.15-.26-1.84-.48-3.1-.1-.65-.74-1-1.28-.98zm155.06 0c-.55 0-1.17.33-1.28.97-.22 1.26-.3 1.95-.47 3.1-.17 1.17.72 1.56 1 .73.27-.83 1.1-2.27 1.5-3.6.25-.82-.2-1.2-.75-1.2zm-136.28-1.74c-.64-.1-.73 1.53-.2 2.2.73.88 1.73 1.94 2.73 3.15.83 1 1.34.1.84-.72-.5-.82-1.24-1.7-2.57-3.8-.33-.53-.6-.78-.8-.82zm117.5 0c-.2.04-.48.3-.82.8-1.32 2.1-2.06 3-2.56 3.83-.5.84.02 1.72.85.73 1-1.2 2-2.28 2.7-3.16.54-.66.45-2.3-.18-2.2zm-132 3.96c-.4-.03-.73.3-.57 1.1.24 1.1.57 2.03.85 3.08.27 1.05 1 .87 1-.12 0-1-.18-2.1-.35-3.16-.08-.52-.54-.88-.93-.9zm146.5 0c-.4.02-.86.38-.94.9-.17 1.05-.34 2.16-.34 3.16s.72 1.17 1 .12c.27-1.05.6-1.97.84-3.1.17-.8-.17-1.1-.56-1.08zm-133.4 1.42c-.63.1-1.17.7-.45 1.62 1.16 1.5 2.44 2.54 2.88 3.1.44.55 1.56.35.84-.82-.74-1.18-1.85-2.6-2.35-3.5-.2-.33-.57-.46-.94-.4zm120.05 0c-.27.03-.54.16-.68.4-.5.9-1.62 2.32-2.36 3.5-.72 1.16.4 1.37.85.82.43-.56 1.7-1.6 2.86-3.1.73-.93.18-1.53-.44-1.62a.87.87 0 0 0-.25 0zm-140.72 4.17c-.48-.04-.65.35 0 1.25 1.5 2.05 3.14 5.14 3.25 6.47.12 1.33-.54 1.3-1.15 1.3-1.83 0-2.72-1.32-4.38-1.7-1.66-.4-1.9.48-.72 1.34 6.1 4.4 12.18 9.35 14.63 13.83 1 1.83 2.34 2.5 1.6.75-2.3-5.34-2.85-9.86-2.35-12.6.5-2.73 1.18-4.57 1.1-6.15-.1-1.57-.98-1.47-1.35 0-.25 1-.73 2.32-1.06 2.8-.33.5-1.67.8-2.94-.92-1.27-1.7-4.48-5-5.53-5.84-.4-.3-.8-.5-1.1-.53zm161.63 0c-.3.03-.7.22-1.1.53-1.04.83-4.25 4.13-5.52 5.85-1.28 1.72-2.6 1.44-2.94.94-.33-.5-.82-1.8-1.07-2.8-.36-1.48-1.26-1.58-1.34 0-.07 1.57.6 3.4 1.1 6.15s-.05 7.24-2.34 12.58c-.75 1.74.6 1.08 1.6-.75 2.44-4.48 8.54-9.42 14.62-13.84 1.18-.87.94-1.74-.72-1.35-1.66.38-2.55 1.72-4.37 1.72-.62 0-1.28 0-1.17-1.32.1-1.32 1.76-4.42 3.25-6.47.66-.9.5-1.3 0-1.25z"/><path d="M150.13 212.65l1.95 6.17m2.06-7.34l1.73 6.24m2.6-6.95l1.2 6.36m2.82-7.17l1.26 6.35m3.9-6.84l1.02 6.4m4.45-6.4l1.1 6.38m4.25-8.2l.8 6.44m4.24-6.1l.8 6.42m4.08-7.07l.8 6.42m4.1-6.92l.43 6.46m4.8-6.48l.37 6.47m4.36-6.8l.32 6.46m4.9-6.8l.28 6.48m5.74-6.63l.27 6.48m79.04.17l-1.94 6.18m-2.06-7.34l-1.73 6.23m-2.6-6.96l-1.2 6.37m-2.82-7.17l-1.27 6.35m-3.9-6.86l-1.02 6.4m-4.45-6.4l-1.1 6.4m-4.24-8.2l-.8 6.42m-4.24-6.1l-.8 6.43m-4.08-7.07l-.8 6.43m-4.1-6.93l-.43 6.46m-4.78-6.47l-.38 6.46m-4.36-6.8l-.32 6.47m-4.9-6.8l-.27 6.47m-5.76-6.63l-.27 6.48m-7.2-6.9v7.13"/></g></svg>