<svg xmlns="http://www.w3.org/2000/svg" width="640" height="480" xmlns:xlink="http://www.w3.org/1999/xlink"><path fill="#ffb700" d="M0 0h640v480H0z"/><path fill="#ff5b00" d="M26.67 240l88-213.33h88v426.66h-88z"/><path fill="#005641" d="M26.67 26.67h88v426.66h-88z"/><path fill="#8d2029" d="M229.33 26.67H616v426.66H229.33z"/><path id="a" fill="#ffb700" stroke="#000" stroke-width="1.134" d="M579.25 408.56s3.63 7.4 7.64 10.4c5.92 4.45 18.1 4.13 23.26 9.33 6.18 6.12-.5 14.22-.43 14.92l.34 4.28s-4.18.05-5.93.32c-2.65.42-3.68 2.57-8.6 2.25-12.36-.8-11.86-11.95-12.56-21.47-.62-3.63-2.06-8.35-2.88-11.98-.7-3.1-.85-8.06-.85-8.06z"/><use width="100%" height="100%" xlink:href="#a" transform="matrix(-1 0 0 1 845.333 0)"/><use width="100%" height="100%" xlink:href="#a" transform="matrix(1 0 0 -1 0 480)"/><use width="100%" height="100%" xlink:href="#a" transform="rotate(180 422.667 240)"/><g transform="translate(0 -76)"><use width="100%" height="100%" stroke="#000" stroke-width="5.56" xlink:href="#b"/><g id="b" fill="#ffb700"><path d="M363.5 415.76l2.3-1.34 1 1.35c1.33 1.8 5 1.77 7.43-.04l1.86-1.4 1.55 1.4c2.05 1.82 5.87 1.82 8.3 0 1.72-1.27 1.96-1.3 3.1-.33.67.58 2.64 1.24 4.4 1.46 3.12.4 3.17.4 5-2.36 1.54-2.3 1.8-3.24 1.42-5.48a59.4 59.4 0 0 1-.58-5.3c-.15-2.6-.14-2.62 3.64-3.93 2.1-.74 4.5-1.72 5.38-2.18 1.5-.8 5.67-5.7 5.67-6.67 0-.26-1.63-.65-3.62-.87-7.92-.9-9.25-5.14-4.1-13.03 8.37-12.87 13.44-25.4 13.47-33.38 0-3.57.22-4.77.68-4 1.87 3.18-1.5 16.47-6.57 26.02l-2.05 3.84 1.96-.45c1.08-.26 7.4-2.93 14.04-5.94 18.2-8.24 24.45-9.85 36.22-9.36 9.87.42 14.07 2.35 21.03 9.65 3.7 3.87 7.25 6.64 13.75 10.7 13.85 8.68 14.43 9.43 15.1 19.63.66 10.33.33 10.9-7.5 12.62-6.67 1.48-10.85 4.6-11.98 8.92-.6 2.3.66 2.37 4.03.2l2.47-1.58 1.1 1.6c1.44 2.07 4.5 2.08 7.05 0L511 414l1.97 1.57c3.05 2.43 7.1 1.84 8.26-1.2.22-.6.8-.4 2 .63 2.23 1.94 7.96 2.78 8.57 1.25.24-.58-.2-2.02-1-3.2-3.32-5-4.36-7.37-4.4-10.08-.07-3.78 1.06-5.6 5.36-8.68 5.22-3.73 6.83-8.55 2.86-8.55-2.45 0-4.92-2.17-6.5-5.7-3.2-7.18-2.57-15.23 2.24-28.62 4.88-13.6 5.42-16.1 5.44-25.2.02-7.35-.17-8.63-1.84-12.66-1.02-2.46-3.1-6.13-4.6-8.15l-2.76-3.7 3.53-2.92c10.8-8.94 8.58-23.57-4.4-29.2-3.98-1.73-4.98-1.88-11.94-1.84-4.2.03-10.56.58-14.17 1.22-3.68.66-9.9 1.2-14.18 1.2-6.78.03-7.93-.14-10.55-1.53-2.73-1.45-3.2-2.14-3.73-5.5-.1-.68-.6-1.37-1.07-1.52-.93-.28-5.2 3.43-5.84 5.08-.32.8-.57.76-1.5-.33-.6-.72-1.44-2.37-1.87-3.67-1.1-3.27.23-5.73 4.08-7.56l2.98-1.43-1.76-1.1c-3.63-2.26-9.8-.7-12.04 3-.63 1.05-1.32 1.92-1.53 1.92-.2 0-1.4-1-2.67-2.23-4.68-4.6-3.07-11.37 3.2-13.44 3.34-1.1 6.3-.26 6.92 1.97.94 3.4 3.86-1.07 3.34-5.1-.35-2.7-.3-2.8 1.56-2.8 2.58 0 8.1 3.4 9.8 6.04 1.97 3.07 1.82 7.9-.35 11.5l-1.7 2.84 2.22-.43c3.28-.66 6.46-2.7 8.07-5.16 1.7-2.6 1.9-7.68.38-10.42-1.47-2.66-1.3-3.08.86-2.18 3.68 1.52 5.65 3.2 7.12 6.1 1.33 2.6 1.4 3.24.7 5.94-.46 1.67-1.44 3.87-2.2 4.88-1.2 1.58-1.24 1.85-.3 1.85 1.77 0 5.46-1.67 6.76-3.06.66-.7 1.63-2.43 2.14-3.84l.94-2.57 1.08 1.95c1.53 2.77 4.5 5.26 8.1 6.8 3.9 1.68 5.52 1.77 3.48.2-1.37-1.04-3.9-8.46-3.13-9.18.45-.43 5.73 3.64 11.76 9.05 5.72 5.12 9.3 6.8 14.54 6.8 6.7 0 10.6-5.83 7.58-11.34-1.75-3.2-5.66-3.65-7.94-.9-1.05 1.26-1.34 2.27-1.03 3.6.37 1.62.23 1.83-1.26 1.83-1.95 0-5.8-2.47-12.6-8.16-10.38-8.66-23-16-32.1-18.7-5.86-1.7-18.35-2.38-24.3-1.3-6.42 1.18-14.03 4.86-18.18 8.8-7.34 7-7.46 16.28-.3 24.74l2.04 2.43-1.4 2.16c-2 3.14-1.83 7.35.44 10.46 1 1.37 2 2.5 2.25 2.5.23 0 .5-.9.56-1.97.2-2.72 1.38-4.54 3.38-5.26 1.8-.66 2.97-.35 11.23 2.94 8.7 3.47 23 3.7 38.18.64 7.44-1.5 16.23-1.4 20.1.2 7.07 2.97 8.7 10.7 3.5 16.55-2.25 2.54-4.42 3.57-11.72 5.57-5.55 1.53-6.87 1.63-19.5 1.5-10.77-.1-14.65.1-19.05 1.02-4.77 1-7.7 1.1-21.74.74l-16.23-.4 1.8 1.48c1 .82 2.4 1.83 3.1 2.25 1.23.7 1.2.78-.63 1.46-1.07.4-3.44.72-5.27.72h-3.33l-.45 2.83c-.25 1.56-.23 3.38.04 4.05.4.98.24 1.12-.8.74-.7-.26-2.65-.76-4.33-1.12-1.68-.36-3.95-1.1-5.04-1.62-1.82-.9-2.03-.87-2.7.32-.6 1.06-6.24 5.26-7.07 5.26-.13 0-.3-.8-.38-1.8-.08-1-.9-3.56-1.8-5.72-.93-2.16-1.88-4.5-2.14-5.23-.38-1.1-.55-1.15-1-.34-.32.54-.76 2-1 3.27-.24 1.26-1.1 3.3-1.9 4.55l-1.45 2.25-.93-1.93c-1-2.07-2.65-4.22-3.25-4.22-.2 0-.54.67-.76 1.48-.46 1.7-4.37 6.37-5.33 6.37-.35 0-.64-1.32-.64-2.94 0-1.63-.32-2.95-.7-2.95-.38 0-.7.4-.7.93 0 1.24-3.33 4.95-4.46 4.95-.5 0-1.27.44-1.75.98-1.24 1.42-2.25 1.22-1.73-.33.24-.72.1-2.4-.35-3.76-.44-1.33-.9-2.76-1.03-3.17-.18-.5-1.37-.37-3.9.44-4.1 1.32-5.48 1.1-3.38-.57.77-.6 1.95-2.7 2.6-4.64.67-1.95 1.65-3.68 2.18-3.85.74-.22.7.07-.17 1.25-.63.85-1.15 2-1.15 2.54s-.47 1.84-1.05 2.9c-.57 1.03-.93 2-.8 2.1s1.7-.46 3.47-1.3l3.22-1.55v1.38c.02.76.4 2.77.88 4.46l.85 3.06 2.2-1c2.23-1.03 4.36-4.7 4.36-7.56 0-1.4.82-1.2 1.15.3.1.45.6 2.1 1.12 3.67l.95 2.86 1.5-1.8c.83-1 1.87-2.95 2.3-4.34.77-2.42 1.97-3.46 1.97-1.7 0 1.25 3.43 5.78 4.1 5.4.32-.2.96-1.9 1.42-3.78.96-3.93 2.5-6.6 3.5-6.03.36.2.5.62.3.92-.2.3.6 2.85 1.77 5.68a2557.7 2557.7 0 0 1 2.6 6.32c.4 1.05.8.9 3.3-1.3 1.54-1.38 2.95-2.9 3.12-3.42.26-.76.6-.73 2.06.17 2.03 1.26 8.85 3.3 9.38 2.8.2-.2.4-2 .45-4l.1-3.64 1.96.4c1.08.23 3.35.22 5.05-.02l3.1-.43-2.76-1.88c-1.5-1.05-3.04-2.4-3.4-3-.37-.63-1.72-1.18-3.24-1.3-4.1-.36-11.4-4.45-11.4-6.4 0-.37 1 .25 2.24 1.38 2.74 2.5 6.54 4.1 9.87 4.1h2.5l-1.55-2.06c-.88-1.17-1.67-3.4-1.86-5.24-.3-2.92-.6-3.38-3.67-5.5-1.83-1.28-4.1-3.2-5.04-4.25l-1.72-1.93-.88 2.3c-.48 1.25-1.07 2.28-1.3 2.28-.24 0-1.16-.74-2.06-1.64-.9-.9-1.8-1.63-2.02-1.62-.2 0-1 1.2-1.75 2.7l-1.36 2.67-1.04-1.55c-.58-.85-1.94-2.36-3.03-3.35-1.1-1-1.66-1.8-1.27-1.8.4 0 1.73 1.03 2.98 2.3l2.28 2.28.93-1.68c.55-1 .76-2.52.5-3.76-.35-1.8-.3-1.9.4-.77.43.72 1.76 2.1 2.95 3.06l2.17 1.76 1.5-2.75c1.48-2.72 1.5-2.73 2.17-1.1.9 2.17 7.46 7.54 13.03 10.68.86.48.5-1.18-1.1-5-.4-1-.75-2.84-.75-4.06 0-1.8-.52-2.6-2.84-4.37-3.34-2.54-4.42-4.35-5.04-8.45-.26-1.66-.84-3.5-1.3-4.1-.68-.9-.8-.4-.6 2.7.1 2.07-.16 4.65-.6 5.73l-.84 1.96-.64-1.63c-.35-.9-1.9-2.46-3.44-3.47-1.54-1-2.62-2-2.4-2.22.22-.2 1.8.73 3.52 2.06 2.63 2.04 3.2 2.26 3.57 1.36.43-1.05 0-5.63-.82-8.83-.4-1.6-.37-1.6 1.6.37 1.45 1.45 2.26 3.2 2.88 6.2.8 3.86 1.2 4.5 4.74 7.62 2.14 1.86 4 3.3 4.13 3.16.14-.13.4-4.98.6-10.77.37-11.13-.05-13.77-2.72-17.2l-1.37-1.77 2.16-2.34c2.8-3.05 4.1-5.5 4.67-8.8l.46-2.72-2.44 2.3c-2 1.9-2.97 2.32-5.28 2.32-2.3 0-3.2-.38-4.73-2.03-1.86-1.97-5.15-3.87-8.3-4.8-1.17-.34-1.56-.2-1.56.6 0 .58-.64 2.25-1.43 3.7l-1.42 2.67-3-2.97c-1.84-1.82-4.02-3.23-5.65-3.66-4.15-1.08-4.37-.97-4.37 2.12 0 4.7-2 5.56-5.6 2.45-2.76-2.38-5.03-2.9-10.24-2.32l-4.03.44.72 1.8c.6 1.52.46 2.16-.83 3.88-2.1 2.8-4.84 4-9.05 4-1.94 0-4.36.4-5.4.9-1 .5-3.56 1.05-5.65 1.25-2.1.2-4.32.56-4.95.8-1 .37-1.1.06-.78-2.2.5-3.44-1.92-5.98-5.67-5.98-4.86 0-7.1 4.36-5.2 10.1a44.63 44.63 0 0 1 1.07 3.87c.22 1.06 2.42 3.88 5.1 6.57 2.6 2.58 5.03 5.27 5.43 5.97.4.7 1.73 1.84 2.95 2.5l2.22 1.24-.3-2.36c-.3-2.6.26-3.02 1.64-1.18.5.66 1.77 1.72 2.82 2.37 1.64 1 1.9 1.03 1.9.15 0-.56.33-1.84.74-2.86l.75-1.84 1.3 2.5c.7 1.4 3.03 4.52 5.14 6.97 4.1 4.75 6.6 10.06 5.32 11.28-.53.5-1.94.46-4.88-.13-2.27-.45-5.08-.7-6.25-.53-2.38.33-2.56.02-1.1-1.8 1.54-1.94 1.3-2.26-1.73-2.26-3.5 0-12.22-1.67-15.56-3-3.25-1.28-4-.96-4.96 2.12-.43 1.4-1.22 3.9-1.75 5.6l-.97 3.05 3.52-.34c1.93-.2 4.42-.6 5.53-.94 1.1-.34 2.12-.52 2.24-.4.12.1-.37 1.3-1.1 2.66l-1.3 2.45 2.18-.44c1.2-.24 3.02-.85 4.03-1.33 1.76-.85 1.9-.8 3.3 1.44 1.7 2.74 3.06 2.62 3.37-.28.3-3.02 1.3-2.57 3.16 1.4 1.8 3.84 3.65 5.2 4 2.92.12-.76 1.08-1.98 2.14-2.73 2.14-1.52 3.76-1.06 4.68 1.3.96 2.45-1.18 4.98-7.4 8.75-12.43 7.54-19.66 17.85-21.72 31-1.87 11.85 3.95 24.1 15.62 32.9 5.58 4.22 14.45 8.66 13.9 6.97-2.4-7.2-2.33-20.95.12-23.27.37-.34.24 1.1-.28 3.2-1.95 7.82-1.1 14.05 3.88 28.66 4.5 13.23 3.88 18.88-2.5 22.6-2.04 1.2-3.36 1.4-8.87 1.34-5.98-.07-6.63.05-8.55 1.58-1.86 1.48-4.27 6.35-4.27 8.62 0 1.23 1.37 1.07 4.05-.48zM460.5 415.5l2.5-1.6 1.7 1.6c2.24 2.1 4.86 2.06 7-.13.93-.95 1.77-1.62 1.86-1.47.1.15.5.85.93 1.57.52.9 1.6 1.37 3.58 1.5 2.37.18 3-.05 3.94-1.4l1.12-1.63 2.47 1.58c6.77 4.35 10.37-.2 7.35-9.28-1.53-4.62-.7-7.2 4.26-13.08 2.1-2.48 3.8-5.12 3.8-5.87 0-1.22-.38-1.38-3.16-1.32-2.65.05-3.43-.23-4.83-1.77-2.27-2.5-2.13-5.37.4-8.55l2.04-2.54-3.6-2.44c-2-1.35-5.56-4.53-7.95-7.07-5.37-5.73-10.64-8.44-17.6-9.06l-4.66-.4v3.52c.02 4.54 2.15 8.9 7.97 16.3 6.62 8.43 7.1 9.73 7.35 20.73l.23 9.3-1.9 1.8c-1.74 1.65-2.52 1.86-8.1 2.18-5.32.3-6.44.58-8 1.97-2.07 1.83-2.7 2.83-3.33 5.36-.37 1.5-.22 1.8.85 1.8.7 0 2.42-.7 3.8-1.6zm-142.2-24.04c.6-.8 1.08-2.1 1.08-2.87 0-1.2.52-1.5 3.1-1.87l3.12-.44-2.08-1.67c-2.46-1.96-2.7-3.5-.52-3.5 2.17 0 5.83-2.24 6.4-3.9.25-.78.08-1.8-.38-2.34-1.2-1.4-3.5-1.18-3.92.35-.45 1.65-1.2 1.65-2.94.02-2.6-2.46-2.66-7.56-.12-10.53 1.2-1.4 1.18-1.5-.34-2.93-1.64-1.55-2.8-4.62-2.04-5.35.24-.23 1.54-.05 2.88.4 1.9.66 2.65.67 3.43.06 2.37-1.86-.2-4.26-4-3.73-1.53.2-2.17 0-2.4-.8-.15-.6-1.5-1.38-3-1.76-2.7-.68-2.72-.67-2.72 1.2 0 2.03-1.16 2.4-3.37 1.1-1.8-1.06-3.53-.23-3.53 1.68 0 1.78 1.8 2.66 5 2.45 2.47-.16 2.56 1.68.22 4.3l-1.7 1.9 1.35 1.93c1.97 2.83 1.8 7.55-.35 9.9l-1.7 1.82-1.1-1.47c-1.54-2.04-3.65-1.9-4.23.28-.38 1.43-.07 2.1 1.72 3.6 1.2 1.02 2.96 1.85 3.9 1.85 2.34 0 2.25 1.84-.18 3.7l-1.9 1.45 2.94.45c1.6.25 2.93.72 2.93 1.05 0 1.25 2.03 5.13 2.7 5.13.37 0 1.16-.65 1.75-1.45zM356.52 374.9c2.67-1.06 8.44-5.95 8.44-7.15 0-.38-1.6-2.14-3.54-3.9-4.1-3.7-8.55-9.95-9.7-13.6-.6-1.9-3.52-5.16-11.7-13.1l-10.92-10.6-3.14.8c-1.73.45-3.84.82-4.7.83-1.46.02-1.43.1.52 1.6l2.05 1.6 2.88-1.6c2.8-1.55 2.9-1.56 3.24-.3.2.72-.23 1.98-1 2.9-.75.9-1.18 1.93-.95 2.28.22.35-.5 1.08-1.6 1.62-2.05 1-3.48 4.3-1.86 4.3 1.45 0 4.66-3.95 4.3-5.3-.2-.68-.1-1.38.2-1.56 1.24-.73 1.16 2.38-.1 3.9-.75.9-1.18 1.92-.95 2.27.22.34-.5 1.07-1.6 1.6-2.04 1-3.48 4.3-1.88 4.3 1.58 0 4.73-3.77 4.34-5.18-.2-.74-.13-1.5.17-1.67.84-.5 1.3 1.96.6 3.16-.4.66-.4 1.54 0 2.23.7 1.27 0 3.7-1.3 4.44-.55.33-.18.96 1.16 1.97 1.93 1.46 1.96 1.62 1.96 8.07 0 5.4.22 6.8 1.2 7.73 1.12 1.06 1.22 1.06 1.22.05 0-1.1 1.94-2.45 3.52-2.45.47 0 3.4 2.47 6.5 5.5 3.1 3.04 6.38 5.63 7.3 5.8.92.16 1.92.33 2.2.38.3.06 1.7-.35 3.12-.9zm-33.34-26.1c0-1.74-3.6-3.6-7.88-4.08-3.46-.4-3.52-.36-3.52 1.37 0 1.42.55 1.98 2.94 3.02 3.84 1.68 8.46 1.5 8.46-.32zM327.1 348.64c1.76-1.6 2.6-3.48 1.53-3.48-1.2 0-4.42 2.9-4.42 3.97 0 1.7.6 1.6 2.9-.5zm-3.72-5.14c.15-.98-.46-1.64-2.28-2.46-3.92-1.77-8.6-2.6-9.74-1.7-2.08 1.63-.7 3.83 2.67 4.22 1.35.16 3.2.57 4.08.92 2.6 1 5.05.55 5.28-.98zm0-5.25c.2-1.4-.68-1.9-8-4.47-5.44-1.92-7.86-1.02-6.1 2.3.6 1.14 1.6 1.67 3.9 2 1.7.27 4.02.77 5.16 1.12 3.05.94 4.8.6 5.04-.95zm3.66-4.93c1.1-1.12 2-2.43 2-2.93 0-1.6-4.35 1.23-4.9 3.2-.67 2.35.4 2.25 2.9-.28zm-3.66-.33c.24-1.6-2.4-3.04-7.62-4.15-3.83-.8-5.5-.35-5.23 1.43.16.97 1.43 1.68 5.05 2.8 5.78 1.8 7.52 1.8 7.8-.1zm5.1-7.43c6.68-2.97 7.26-10.47.96-12.44-2.62-.82-4.3-.37-5.3 1.4-.75 1.35-.24 3.82.8 3.82.36 0 .65.46.65 1 0 2.62-10.2 3.8-14.4 1.68-1.46-.75-2.1-2.68-.87-2.68.9 0 1.54-1.97 1.08-3.36-.63-1.9-2.55-2.57-5.32-1.84-6.26 1.63-6.1 9 .3 12.1 5.22 2.57 16.67 2.73 22.1.3zM324.32 319.8c.4-.36.22-.92-.43-1.43-1.42-1.12-1.35-2.78.2-4.68 1.18-1.43 1.32-3.57 1.73-25.1.7-37.14 3.45-65.06 7.1-71.76 1.44-2.67 1.24-2.68-2.5-.13-4.83 3.3-8.5 7.56-11.75 13.68-6.15 11.54-8.28 27.08-8.28 60.24 0 18.83.13 21.3 1.2 23.06 1.02 1.68 1.07 2.3.36 4.1-.47 1.17-.68 2.28-.47 2.48 1.36 1.3 11.35.95 12.82-.45zm56.13-35.4c.2-.32-.26-1.94-1.03-3.6-1.2-2.58-1.7-3-3.4-3-5.4 0-14.06-2.4-23-6.4-5.14-2.3-6.93-2.82-7.54-2.23-1.58 1.5 1.04 5.04 5.1 6.9 3.6 1.65 13.67 3.7 18.27 3.7 2.66 0 2.72.1 1.2 2.3l-1.1 1.6 3 .1c1.66.03 3.95.3 5.1.56 2.95.72 2.98.72 3.4.08z"/><path fill="#000" d="M411.92 301.14c0-.96-2.82-3.56-5.67-5.24-2.25-1.32-2.62-1.36-2.62-.28 0 1.63-1.46 5.72-2.03 5.72-.32 0-.8-.8-1.05-1.78-.26-.97-1.35-2.9-2.42-4.28l-1.94-2.5-1.53 2.32c-1.4 2.16-3.85 4.28-4.94 4.28-.26 0-.3-1.14-.1-2.53.2-1.5.04-2.7-.42-2.98-.42-.25-.76-.16-.76.2 0 .8-3.4 4.66-4.12 4.66-.3 0-.7-1.1-.92-2.46-.2-1.35-.57-3.48-.8-4.74-.22-1.26.26-.4 1.08 1.9l1.5 4.2 1.62-2.57c.9-1.4 1.63-2.93 1.63-3.4 0-.47.3-.68.68-.47.38.2.9 1.9 1.15 3.74l.47 3.36 1.8-1.97c.98-1.08 2.14-2.53 2.56-3.22.76-1.22.8-1.22 2.32.07.85.72 2.15 2.44 2.9 3.82.75 1.37 1.46 2.4 1.58 2.28.12-.12.4-1.55.6-3.17.22-1.6.4-3 .42-3.07.1-.4 5.4 3.05 7.37 4.8 1.26 1.1 2.46 1.87 2.66 1.68.2-.18.37-1.84.37-3.66 0-2.84-.3-3.6-2.03-5.15-2-1.8-2.05-1.8-2.8-.5-.95 1.7-2.07 1.72-2.07.05 0-1.22-3.77-5.9-4.75-5.9-.26-.02-1.05 1-1.77 2.27s-1.48 2.3-1.7 2.3c-.97 0-6.3-5.94-6.28-7 0-.86.35-.64 1.3.78.7 1.08 2.1 2.7 3.13 3.58 2.06 1.8 2.8 1.37 3.6-2.1.24-1 .63-1.8.9-1.8.87 0 5.5 4.9 6.15 6.53l.65 1.65.5-1.8c.6-2.2 1.26-2.28 2.23-.27.4.83 2.4 2.58 4.43 3.87l3.68 2.35.74-2.36c.4-1.3.95-2.05 1.2-1.66.38.57-.58 4.5-1.3 5.33-.1.14-1.3-.56-2.66-1.54l-2.47-1.78-.02 3.2c0 1.74-.2 3.83-.42 4.64-.45 1.6-1.64 2.03-1.64.62zm-18.42-25.4c-4.4-3.66-5.05-4.5-4.96-6.23l.1-1.84.3 1.78c.16 1.05 1.33 2.6 2.8 3.76l2.53 1.97 1.55-1.8c.85-.98 1.56-2.15 1.58-2.6.03-1.18.24-1.08 3.2 1.5 2.65 2.3 2.7 2.3 3.1.82.2-.84.13-2.4-.18-3.47-.87-2.96-.7-3.4.6-1.62.66.9 1.7 2.15 2.34 2.8 1.1 1.13 1.16 1.1 1.57-.33.23-.83.43-2.34.43-3.36v-1.85l2.4 2.7c2.2 2.52 2.42 2.6 3.1 1.4.4-.7.73-2.4.74-3.77 0-1.78.2-2.22.64-1.55.75 1.13.23 4.2-1.16 6.82l-1 1.87-1.3-2.04c-1.68-2.6-2.24-2.56-3.32.25-1 2.66-1.67 2.86-2.66.82-.64-1.33-.77-1.16-1.22 1.62l-.5 3.1-3.04-2.36-3.02-2.34-1.37 1.55c-.75.86-1.37 1.92-1.38 2.37-.03.98-.76 1-1.87.08zm39.06-13.64c-1.6-1.44-2.7-2.82-2.45-3.06.26-.24.54-.3.64-.15.1.15 1.4 1.52 2.9 3.04 3.46 3.5 2.75 3.6-1.08.16zm-52.02-5.38c-1.46-1.97-1.35-3.27.4-5.4 1.3-1.54 1.88-1.75 4.1-1.46 1.44.18 4.52 1.45 6.86 2.8 2.7 1.6 5.48 2.64 7.64 2.9 1.87.23 3.4.32 3.4.2 0-.13-.77-1.4-1.72-2.82-2.26-3.38-2.18-3.74.36-1.72 2.6 2.08 5.74 2.7 12.72 2.48l3.4-.1-1.97-1.96c-2.77-2.74-1.92-2.98 1.14-.33 2.86 2.5 2.68 2.67-3.35 3.27-2.56.26-5.3.07-7.6-.5-3.43-.88-3.57-.87-2.92.28.38.67.98 1.2 1.35 1.2.37 0 .67.34.67.75 0 1.26-7.4.15-10.94-1.64-8.08-4.1-9.1-4.44-11.02-3.84-1.07.34-2.14 1.33-2.5 2.32-1.25 3.3 3.43 5.86 5.36 2.95.56-.86.43-1.44-.55-2.47-1.35-1.4-1.22-1.6.6-.95 1.3.47 1.46 3.57.26 4.7-1.37 1.3-4.5.94-5.7-.66zM412.37 248.57c-1-.96-.22-1.2 4.3-1.27 5.6-.1 9.02-1.05 13.03-3.58 3.22-2.03 4.1-1.63 1.04.48-2.8 1.92-7.13 3.4-11.33 3.85-2.02.22-4.33.52-5.13.67-.8.15-1.66.08-1.9-.15z"/></g></g></svg>