<svg xmlns="http://www.w3.org/2000/svg" width="640" height="480"><defs><clipPath id="a"><path fill-opacity=".67" d="M0 0h682.67v512H0z"/></clipPath></defs><g fill-rule="evenodd" clip-path="url(#a)" transform="scale(.938)"><path fill="#fff" d="M0 .08h767.87V512H0z"/><path fill="#006" d="M0 0h232.74v232.75H0z"/><path fill="#c00" d="M0 464.87h767.9V512H0zM0 465.43h767.9V512H0zm0-92.9h767.9v46.2H0zm0-93.27h765.96v46.7H0zM232.67.06h535.17v46.5H232.67zm0 186h535.17v46.8H232.67zm0-92.7h535.17v46.5H232.67z"/><path fill="#fff" d="M166.35 177.47l-50.7-30.98-50.48 31.28 18.77-50.85-50.37-31.4 62.32-.43 19.32-50.7L134.96 95l62.32.07-50.1 31.7 19.17 50.72z"/></g></svg>