<svg xmlns="http://www.w3.org/2000/svg" width="640" height="480"><path fill="#fff" d="M0 0h640v480H0z"/><path fill="#009543" d="M0 336h640v144H0z"/><path fill="#00209f" d="M0 0h640v144H0z"/><path stroke="#000" stroke-width="1.601" d="M319.62 152.9c-2.73.07-5.4 3.1-5.4 3.1l.23 32.37-10.22 10.7h8.28l-.06 18.57-48.95 65.9-7.24-2.5-12.65 27s31.3 19.57 76.7 19.04c49.82-.6 76.9-19.96 76.9-19.96L384.1 280.5l-6.4 2.78-49.57-65.57-.07-19.1h8.27L325.1 188l.06-32.26s-2.8-2.9-5.54-2.85z"/><path fill="none" stroke="#000" stroke-width="8" d="M336.7 230.42h-33.86s-12.28-25.9-10.3-43.98c2.04-18.43 12.57-27.14 26.57-27.3 16.56-.18 25.23 8.1 27.85 26.56 2.6 18.28-10.26 44.7-10.26 44.7z"/><path fill="#fff" d="M260.46 292.1c-.55.75-4.6 8.86-4.6 8.86l7-1.47-2.4-7.4zm4.06 10.52l-7.38 2.4 8.85 3.5-1.48-5.9zm3.32-10.32l3.7 10.88 9.02-2.58-2.4-5.17-10.32-3.14zm5.72 14.75l1.3 4.43 11.97 2.95-4.8-10.15-8.47 2.77zm13.27-9.22l4.25 10.14 9.03-3.5-2.94-4.43-10.33-2.2zm5.9 13.83l1.48 3.87 14.03 2.03-5.9-9.22-9.6 3.32zm13.47-10.88l5.16 9.04 13.1-4.8-1.48-3.5-16.78-.74zm7.56 12.36l2.76 4.8 16.23-.56-6.08-9.04-12.9 4.8zm17.15-12l4.44 7.57 10.32-4.97-2.76-4.06-12 1.48zm16.98 5.72l-10.33 5.17 2.76 4.42 13.85-2.2-6.27-7.38zm3.32-7.93l5.34 6.64 8.67-6.82-2.94-3.14-11.06 3.33zm15.86 3.5l-8.3 6.28 2.2 3.88 11.44-2.95-5.34-7.2zm11.43-13.1l2.02 2.97-5.72 8.48-5.9-7.56 9.6-3.87zm3.86 7.4l3.5 7-7 2.4-.55-3.32 4.06-6.08z"/></svg>