<svg xmlns="http://www.w3.org/2000/svg" width="640" height="480"><g fill-rule="evenodd"><path fill="#00319c" d="M0 0h213.34v480H0z"/><path fill="#ffde00" d="M213.34 0h213.33v480H213.34z"/><path fill="#de2110" d="M426.66 0H640v480H426.66z"/></g><path fill="#ff1900" fill-rule="evenodd" stroke="#000" stroke-width=".73" d="M360.38 320.38l24.26 35c1.35 1.95 2.7 3.9.66 5.2-2.03 1.28-1.37 6.45-.02 8.4 2.7 3.9 6.08 4.55 8.1 3.26l18.33-11.6c2.05-1.28 2.74-4.52.04-8.4-1.55-1.97-6.08-4.55-8.12-3.27-2.03 1.3-3.38-.65-4.73-2.6l-24.28-35"/><path fill="#a77b3b" fill-rule="evenodd" stroke="#000" stroke-width="2.54" d="M177.17 696.26c0 24.46-9.52 44.3-21.26 44.3-11.73 0-21.25-19.84-21.25-44.3s9.52-44.3 21.26-44.3c11.75 0 21.27 19.84 21.27 44.3z" transform="matrix(.527 -.424 .444 .504 -32.42 19.918)"/><path fill="#ff1900" fill-rule="evenodd" stroke="#000" stroke-width=".73" d="M261.95 306.14l-21.42 36.67c-1.2 2.05-2.38 4.08-4.5 2.95-2.14-1.14-6.66 1.8-7.85 3.83-2.38 4.08-1.44 7.25.7 8.4l19.18 10.23c2.13 1.14 5.46.24 7.84-3.83 1.1-2.2 1.44-7.25-.7-8.4-2.13-1.12-.94-3.16.25-5.2l21.43-36.67"/><path fill="#a77b3b" fill-rule="evenodd" stroke="#000" stroke-width="1.711" d="M331.17 280.58h-19.53c-.65.6-6.2 35.6-12.2 49-7.34 16.32-29.27 30.73-29.27 30.73s13.14 4 17.05 6.6c.97-.28 21.94-4.67 24.38-30.33 2.44 25.66-14.6 37.33-14.6 37.33s24.4 7 24.4 23.33c0-16.33 24.42-23.33 24.42-23.33s-12.25-11.67-14.7-37.33c4.9 25.66 23.5 30.05 24.46 30.33 3.9-2.6 17.06-6.6 17.06-6.6s-21.94-14.4-29.26-30.73c-6-13.4-11.56-48.38-12.2-49zM248.12 163.9l36.63 11.67c12.2 0 24.4-11.65 24.4-23.32.42-25.95-9.75-35-12.2-35l4.9-4.67-7.34-7s2.46-12.1 26.87-11.65c24.4.45 24.4 11.66 24.4 23.33s-12.2 11.66-12.2 35c0 11.66 12.2 23.32 24.42 23.32l36.62-11.66v116.65h-146.5V163.9z"/><g fill="none" stroke="#000"><path d="M304.28 168.6l2.44 7 2.44-7 2.44 7 4.88-7 2.38 7.38 2.5-7.4 3.6 7.4 3.73-7.4 2.43 7 2.44-7M314.04 142.93l-4.88 25.66m7.32-25.67v25.66m4.88-25.67v25.66m4.9-25.67l2.43 25.66m2.43-25.67l2.45 25.66"/></g><g stroke="#000" stroke-width="2.54"><path fill="#a77b3b" fill-rule="evenodd" d="M223.7 93.94c-24.4 11.66-24.4 35-24.4 46.66.85 10.6 0 233.3 0 233.3s1.58-13.2 12.2-23.33l12.2-11.67 12.2-11.66c8.94-7.76 12.22-23.33 12.22-35v-163.3s0-11.67-24.4-35z"/><path fill="none" d="M248.13 140.6c-.3 0-12.2-11.67-12.2-11.67L223.7 140.6l-12.2-11.67-12.2 11.67M248.13 152.25c-.3 0-12.2 11.66-12.2 11.66l-12.22-11.65-12.2 11.66-12.2-11.65M248.13 187.26c-.3 0-12.2-11.67-12.2-11.67l-12.22 11.66-12.2-11.67-12.2 11.66M235.77 128.95l.15 198.3M223.7 140.6l.15 197.84M211.5 128.94l.14 221.64"/></g><g stroke="#000" stroke-width="2.54"><path fill="#a77b3b" fill-rule="evenodd" d="M419.03 93.94c24.42 11.66 24.42 35 24.42 46.66-.87 10.6 0 233.3 0 233.3s-1.6-13.2-12.2-23.33l-12.22-11.67-12.2-11.66c-8.93-7.76-12.22-23.33-12.22-35v-163.3s0-11.67 24.43-35z"/><path fill="none" d="M394.6 140.6c.3 0 12.22-11.67 12.22-11.67l12.2 11.67 12.2-11.67 12.22 11.67M394.6 152.25c.3 0 12.22 11.66 12.22 11.66l12.2-11.65 12.2 11.66 12.22-11.65M394.6 187.26c.3 0 12.22-11.67 12.22-11.67l12.2 11.66 12.2-11.67 12.22 11.66M406.96 128.95l-.14 198.3M419.03 140.6l-.14 197.84M431.23 128.94l-.14 221.64"/></g><path fill="#a77b3b" fill-rule="evenodd" stroke="#000" stroke-width="2.54" d="M177.17 696.26c0 24.46-9.52 44.3-21.26 44.3-11.73 0-21.25-19.84-21.25-44.3s9.52-44.3 21.26-44.3c11.75 0 21.27 19.84 21.27 44.3z" transform="matrix(.636 .253 -.265 .608 361.151 -165.211)"/><path fill="#f00" fill-rule="evenodd" d="M248.12 175.6h146.5v69.98H248.1z"/><path fill="#564dff" fill-rule="evenodd" d="M248.12 245.58h146.5v35c0 23.33-36.63 23.33-73.25 46.66-36.63-23.33-73.25-23.33-73.25-46.66v-35z"/><path fill="none" stroke="#ff0" stroke-width="2.032" d="M336.6 485.43h212.6v159.45c0 35.43-53.14 35.43-106.3 70.87-53.14-35.44-106.3-35.44-106.3-70.87V485.43z" transform="matrix(.689 0 0 .658 16.177 -144.034)"/><path fill="#ff0" fill-rule="evenodd" stroke="#000" stroke-width="2.448" d="M385.6 129.9s-50.63 55.45-50.63 108.6c0 53.15 53.15 70.87 53.15 70.87s-17.72 0-17.72 70.86c0 35.43 53.15 17.72 53.15 35.43 0 17.72-.75 60.58 0 88.6 0 17.7-35.43 0-35.43 17.7 0 8.86 26.58 53.15 53.15 53.15s53.15-44.28 53.15-53.14c0-17.7-35.43 0-35.43-17.7v-88.6c0-17.7 53.14 0 53.14-35.43 0-70.86-17.72-70.86-17.72-70.86s53.15-17.72 53.15-70.87-50.62-108.6-50.62-108.6 28.47 73.16 28.47 108.6c0 17.72-13.28 53.15-48.72 53.15 0 0-8.96-17.72-17.7 0 0 0-10.2-17.72-17.73 0-2.6 6.1-7.2-17.72-17.72 0-4.46 4.7-7.98-17.72-17.7 0-17.73 0-53.16-17.72-53.16-53.15s32.9-108.6 32.9-108.6z" transform="matrix(.482 0 0 .309 108.523 140.092)"/><path fill="#ff0" fill-rule="evenodd" stroke="#000" stroke-width="2.448" d="M382.68 248.03c-3.54 3.54 4.58 61.27 7.1 63.78 3.53 3.55 24.8 3.55 28.33 0 2.54-2.52 0-56.68-3.53-60.23-3.54-3.54-29.38-6.05-31.9-3.54z" transform="matrix(.482 0 0 .309 110.363 201.59)"/><path fill="#ff0" fill-rule="evenodd" stroke="#000" stroke-width="2.448" d="M382.68 248.03c-3.54 3.54 4.58 61.27 7.1 63.78 3.53 3.55 24.8 3.55 28.33 0 2.54-2.52 0-56.68-3.53-60.23-3.54-3.54-29.38-6.05-31.9-3.54z" transform="matrix(-.482 0 0 .309 532.374 201.59)"/><path fill="#ff0" fill-rule="evenodd" stroke="#000" stroke-width="2.448" d="M414.57 228.54c0 8.8-7.14 15.95-15.95 15.95-8.8-.02-15.94-7.15-15.94-15.96 0-8.8 7.14-15.95 15.95-15.95 8.8 0 15.94 7.13 15.94 15.94z" transform="matrix(.554 0 0 .385 82.69 183.727)"/><path fill="#ff0" fill-rule="evenodd" stroke="#000" stroke-width="2.448" d="M414.57 228.54c0 8.8-7.14 15.95-15.95 15.95-8.8-.02-15.94-7.15-15.94-15.96 0-8.8 7.14-15.95 15.95-15.95 8.8 0 15.94 7.13 15.94 15.94z" transform="matrix(.554 0 0 .385 118.046 183.727)"/><path fill-rule="evenodd" d="M336.75 307.5c0 1.5-1.9 2.74-4.27 2.74-2.36 0-4.27-1.23-4.27-2.74s1.92-2.74 4.28-2.74c2.36 0 4.27 1.23 4.27 2.74zm-22.22 0c0 1.5-1.9 2.74-4.27 2.74-2.36 0-4.27-1.23-4.27-2.74s1.9-2.74 4.26-2.74 4.27 1.23 4.27 2.74z"/><path fill="#ff0" fill-rule="evenodd" stroke="#000" stroke-width="1.084" d="M439.37 549.92l-7.78-10.26-12.78 1.75 1.76-12.75-10.26-7.78 10.26-7.8-1.76-12.75 12.77 1.76 7.77-10.27 7.78 10.28 12.77-1.76-1.76 12.76 10.26 7.8-10.26 7.77 1.76 12.76-12.77-1.74z" transform="matrix(.672 0 0 .642 26.002 -133.336)"/><path fill="#ff0" fill-rule="evenodd" stroke="#000" stroke-width="1.084" d="M496.06 591.73l21.26 10.63 21.26-10.63-21.26-10.63-21.26 10.63z" transform="matrix(.689 0 0 .658 16.176 -144.034)"/><path fill="#ff0" fill-rule="evenodd" stroke="#000" stroke-width="1.084" d="M496.06 591.73l21.26 10.63 21.26-10.63-21.26-10.63-21.26 10.63z" transform="matrix(.689 0 0 .658 -88.808 -144.034)"/><path fill="#ff0" fill-rule="evenodd" stroke="#000" stroke-width="1.084" d="M535.04 659.06c-3.54-7.1-14.17-10.63-21.26-10.63-7.1 0-14.17 0-21.26 10.63 0-14.17 10.5-21.26 21.26-21.26 10.76 0 21.26 10.5 21.26 21.26z" transform="matrix(.598 -.328 .343 .571 -165.149 86.49)"/><path fill="#ff0" fill-rule="evenodd" stroke="#000" stroke-width="1.084" d="M386.22 651.97a7.1 7.1 0 1 1-14.17 0 7.1 7.1 0 0 1 14.17 0z" transform="matrix(.689 0 0 .658 13.735 -155.7)"/><path fill="#ff0" fill-rule="evenodd" stroke="#000" stroke-width="1.084" d="M386.22 651.97a7.1 7.1 0 1 1-14.17 0 7.1 7.1 0 0 1 14.17 0z" transform="matrix(.689 0 0 .658 8.851 -139.368)"/><path fill="#ff0" fill-rule="evenodd" stroke="#000" stroke-width="1.084" d="M386.22 651.97a7.1 7.1 0 1 1-14.17 0 7.1 7.1 0 0 1 14.17 0z" transform="matrix(.689 0 0 .658 6.41 -148.7)"/><path fill="#ff0" fill-rule="evenodd" stroke="#000" stroke-width="1.084" d="M386.22 651.97a7.1 7.1 0 1 1-14.17 0 7.1 7.1 0 0 1 14.17 0z" transform="matrix(.689 0 0 .658 18.618 -139.368)"/><path fill="#ff0" fill-rule="evenodd" stroke="#000" stroke-width="1.084" d="M386.22 651.97a7.1 7.1 0 1 1-14.17 0 7.1 7.1 0 0 1 14.17 0z" transform="matrix(.689 0 0 .658 21.06 -148.7)"/><path fill="#ff0" fill-rule="evenodd" stroke="#000" stroke-width="1.084" d="M386.22 651.97a7.1 7.1 0 1 1-14.17 0 7.1 7.1 0 0 1 14.17 0z" transform="matrix(.689 0 0 .658 13.735 -146.367)"/><g fill-rule="evenodd"><path fill="#da4500" d="M297.77 120.38c-12.32 0-13.95 1.95-19.53 3.9 0-5.38 13.72-11.68 26.04-11.68 0 3.9-3.25 7.78-6.5 7.78z"/><path fill="#cac9c7" d="M316.48 107.93c0 2.58-2.18 4.67-4.88 4.67s-4.88-2.1-4.88-4.67 2.18-4.66 4.88-4.66 4.88 2.1 4.88 4.66z"/><path fill="#ff0" stroke="#000" stroke-width="1.084" d="M361.42 357.87v10.63h17.72v53.15h10.63V368.5h17.7v-10.63h-17.7V343.7h-10.63v14.17h-17.72z" transform="matrix(.689 0 0 .658 16.176 -144.034)"/><path fill="#da4500" d="M304.26 112.6c-14.37 0-22.78 1.3-29.3 3.9 0-7.16 8.42-15.56 22.8-15.56 3.25 0 6.5 7.78 6.5 11.67z"/></g><g fill-rule="evenodd"><path fill="#008500" stroke="#000" stroke-width=".711" d="M67.32 613c-14.17-14.18-16.63-21.37 3.55-10.1l283.75 247.5-3.37 6.96L67.32 613z" transform="matrix(.388 .297 -.141 .237 237.452 71.286)"/><path fill="#008f00" d="M228.4 330.4c.77-10.58-18.6-22.03-19.38-21.3-.77.76 1.18 6.92 4.85 10.13-7.03-3.62-14.4-5.86-14.56-4.28-.56 2.12 10.95 7.2 11.9 9.14.16 1.4-8.45 1.2-8.3 2.6.16 1.4 24.26 13.58 25.5 3.7zm-19.37-30.83c.77-10.58-18.6-22.04-19.37-21.3-.77.75 1.17 6.92 4.85 10.13-7.03-3.63-14.4-5.86-14.55-4.3-.58 2.13 10.94 7.2 11.9 9.16.15 1.4-8.46 1.22-8.3 2.62.15 1.4 24.24 13.57 25.48 3.7zm-14.8-28c.76-10.58-18.62-22.03-19.4-21.3-.76.76 1.2 6.92 4.86 10.13-7.05-3.62-14.42-5.86-14.57-4.28-.57 2.12 10.94 7.2 11.9 9.14.15 1.4-8.46 1.22-8.3 2.62.15 1.4 24.25 13.57 25.5 3.7zm-14.66-30.33c.77-10.6-18.6-22.04-19.38-21.3-.78.75 1.17 6.92 4.84 10.13-7.03-3.63-14.4-5.86-14.56-4.3-.57 2.14 10.94 7.2 11.9 9.16.15 1.4-8.46 1.22-8.3 2.62.15 1.4 24.25 13.57 25.5 3.7zM184.6 239.87c9.38-5.7 7.54-27.4 6.46-27.54-1.08-.15-5.12 5-5.65 9.74-1.1-7.57-3.6-14.57-5-13.75-2.14.8.4 12.68-.67 14.57-1.1.94-6.04-5.8-7.12-4.84-1.08.95 2.94 26.7 12 21.8zm13.6 26.63c10.8-2.37 16.66-23.4 15.7-23.9-.97-.48-6.58 3.08-8.73 7.38 1.6-7.5 1.7-14.88.07-14.56-2.3.1-4.03 12.08-5.72 13.52-1.35.55-3.67-7.38-5.02-6.83-1.36.56-6.57 26.12 3.7 24.4zm16.2 27.24c9.88-4.86 10.1-26.63 9.02-26.87-1.06-.24-5.56 4.54-6.53 9.2-.42-7.62-2.24-14.8-3.73-14.1-2.2.62-.76 12.65-2.02 14.45-1.17.85-5.47-6.28-6.64-5.43-1.16.84.43 26.84 9.9 22.74zm17.57 35.57c10.34-3.87 12.85-25.5 11.82-25.85-1.05-.35-6.04 3.98-7.5 8.53.4-7.63-.64-14.95-2.2-14.4-2.25.4-2.1 12.5-3.54 14.18-1.25.73-4.78-6.78-6.03-6.04-1.26.73-2.43 26.75 7.44 23.6z"/></g><path fill="#ff1900" fill-rule="evenodd" stroke="#000" stroke-width="1.084" d="M209.06 775.98c0 7.83-10.3 14.17-23.03 14.17-12.72 0-23.03-6.34-23.03-14.17s10.3-14.17 23.03-14.17c12.72 0 23.03 6.35 23.03 14.18z" transform="matrix(.602 .321 -.336 .575 389.583 -146.809)"/><g fill="#ff0" fill-rule="evenodd" stroke="#000"><path d="M453.52 216.15l1.3-3.34 3.53 1.13 1.3-3.34 3.53 1.1-1.3 3.34 3.54 1.1-1.3 3.35-3.53-1.12-3.24 8.35-3.54-1.1 3.24-8.36-3.54-1.12zM446.06 245.65l3.53 1.12-37.54 96.85-3.53-1.1zM407.4 340.3l7.08 2.2-10.35 26.73-7.07-2.23zM449 227.83l10.6 3.34c7.07 2.23-8.9 17.82-8.9 17.82l-7.06-2.23s-1.72-21.15 5.35-18.93zM458.8 228.12c-.54 1.4-2.56 2-4.5 1.4s-3.1-2.24-2.57-3.62 2.55-2 4.5-1.4 3.1 2.24 2.57 3.62z"/></g><path fill="#ff1900" fill-rule="evenodd" stroke="#000" stroke-width="1.084" d="M209.06 775.98c0 7.83-10.3 14.17-23.03 14.17-12.72 0-23.03-6.34-23.03-14.17s10.3-14.17 23.03-14.17c12.72 0 23.03 6.35 23.03 14.18z" transform="matrix(.574 -.364 .38 .549 -2.259 4.212)"/></svg>