<svg xmlns="http://www.w3.org/2000/svg" width="640" height="480"><path fill="#d3ae3b" d="M0 0h640v480H0z"/><path fill="#c40308" d="M24 24h592v432H24z"/><path fill="#b96b29" d="M424.46 236.1c2.8-.8 12.6-3.65 19.47-9.24 6.9-5.6 8.23-10.06 8.8-12.48.54-2.42.78-4.32-1-2.93-1.78 1.38-7.13 5.58-10.77 7.6-3.64 2.03-7 2.98-8.98 3.54-1.98.54-3.57.9-1.66.14 1.9-.75 8.1-2.93 12.9-7.73 4.8-4.78 8.57-11.97 8.65-16.38.08-4.4-.23-4.1-1.65-3-1.42 1.1-6.46 7.33-9.3 9.7-2.84 2.36-7.4 5.5-9.7 6.85-2.28 1.34-5.5 2.84-1.02-.23 4.5-3.08 13-10.33 16.47-19.7 3.47-9.38 2.84-14.9 2.76-15.84-.08-.95-.87-2.84-1.65-1.1-.8 1.73-6.47 13.08-11.04 17.96-4.57 4.9-3.46 3.94-4.5 4.73-1 .78-2.75 2.2-.54-.56 2.2-2.76 6.78-9.14 9.14-15.45 2.36-6.3 3-12.6 3.07-16.24.1-3.62-1.48-8.66-2.2-10.16-.7-1.5-1.4-2.6-1.65-.87-.23 1.73-3.86 12.92-5.83 18.36-1.97 5.43-5.9 11.57-6.7 12.76-.78 1.18-2.83 3.62-.63-.48s6.46-16.15 7-27.57c.56-11.42-1.02-17.72-2.6-20.87-1.57-3.16-2.93-4.27-2.93-4.27s.27 7.8-2.06 19c-2.32 11.2-5.72 17.12-5.72 17.12s-1.43 1.62-.45-1.07c.67-1.8 2.03-5.78 2.66-12.53.65-7.08.72-15.13-1.34-22-2.25-7.46-6.16-11.27-6.16-11.27-1.1 10.7-.87 24.5-4.8 35.7-.73-.66-1.7-1.87-2.1.6-.7 3.68-2.14 10.58-6.97 19.37-4.84 8.78-6.8 9.95-6.8 9.95s-.9-2.15-1.53-3.32c-.62-1.16-.98-1.8-1.8-.18-.8 1.62-3.48 7.8-9.4 14.62-5.9 6.8-9.2 10.13-9.03 15.23.18 5.1 2.87 7.72 6.45 10.04 3.58 2.35 4.2 3.6 3.67 6.38-.55 2.78-3.77 3.76-6.55 3.85-2.77.1-6.26-.18-7.52.54-1.25.72-1.34 2.5-2.6 3.76-1.24 1.26-1.78 1.98-2.95 2.16-.4.05-.74.1-1 .12-.25-13.48 4.97-19.5 4.97-19.5l-14.6-17.14a50.82 50.82 0 0 1-2.26 1.05 4.08 4.08 0 0 0-.44-.65c-1.94-2.48-2.58-4.6-2.58-7.77.73.1 2.18.6 3.5.35 1.33-.27.34-1.6-.06-2.86-.4-1.27-.8-5.65-.53-7.3.26-1.66.4-2.33.4-2.33s2.1 2.33 3.43 2.33c1.32 0 1.2-1.33 1.4-2.8.3-2.2 1.32-4.97 3.03-6.5 0 0 2.3 1.6 4.96 1.6 2.65 0 6.22-.73 9.06-3.45 2.85-2.72 2.78-3.38 2.78-3.38s5.3 1.85 9.33 2.05c4.02.2 8.32-.46 10.37-4.7 2.06-4.25-.6-8.17-1.05-8.83-.47-.68-1.8-1.2-1.8 0 0 1.18.08 4.37-2.37 5.96-2.45 1.6-4.37 1.52-6.68.8-2.32-.73-5.56-1.66-9.26-1.13-3.32.47-3.77.73-3.82.78.17-.16 3.2-3.26 6.14-4.16 3.04-.93 4.83.33 5.82 1.53 1 1.2 1.86 3.12 2.65.33.78-2.8.32-5.97-1-8.03-1.33-2.05-4.17-3.38-7.15-3.05-2.97.33-4.03.8-4.03.8s-1.52-4.32-5.36-5.1c-4.68-.98-9.84.78-13.9 3.04 0 0-3.17.73-6.4-.2-2.13-.6-4.25-1.9-5.46-2.72.37-1.24 1.1-3.53 1.1-3.53s.92-.27 1.9-.63c.96-.37.75-.7.88-1.5.12-.8-1.82-2.2-1.82-2.2s-.28-2.43 2.9-4.1c3.2-1.66 2.85-1.38 2.85-1.38s1.88.33 2.64-.22c.76-.56.76-.9.76-.9s1.42-.47 1.94-1.32c.5-.85.6-2.08.23-3.07-.38-1-.85-1.2-.33-1.67s1-1.6 1.04-2.4c.05-.82.05-1 .05-1s1.08-.4 1.03-2.04c-.05-1.67-.94-2.33-1.46-2.47-.52-.15-.85-.15-.85-.15s-.1-1-.94-2.3c-.84-1.34-1.4-1.9-1.4-1.9s.6-.48.27-1.56-1.08-1.75-1.84-2c-.75-.23-1.55 0-1.55 0s-2.5-1.5-3.68-2.12c-1.18-.62-1.47-.76-1.47-.76s-.04-1.04-.47-1.6c-.42-.58-1.4-.8-1.93-.8-.52 0-1.1.27-1.1.27s-4.23-1.08-5.98-1.36c-1.74-.3-1.84-.43-1.84-.43s-3.76-1.8-5.22-2.07c-1.47-.28-1.9-.43-1.9-.43s1.54-1.84 1.63-3.97c.1-2.13-1.3-4.14-2.82-5.04-.85-.5-1.3-.6-1.6-.77l-.02-1.47 2.84.3.23-4.58-2.76.35.43-2.74-5.8-.08.43 2.75-2.78-.2.24 4.5 2.9-.38-.27 1.7s-1.07.18-1.98.85c-1.5.9-2.78 2.65-2.7 4.78.1 2.13 1.38 4.02 1.38 4.02s-.38.1-1.84.38c-1.48.28-5.25 2.08-5.25 2.08s-.1.15-1.84.44c-1.73.28-5.98 1.37-5.98 1.37s-.57-.28-1.1-.28c-.5 0-1.5.24-1.92.8-.43.58-.47 1.62-.47 1.62s-.3.14-1.47.76c-1.18.6-3.68 2.12-3.68 2.12s-.8-.23-1.55 0c-.76.24-1.5.9-1.84 2-.34 1.08.27 1.55.27 1.55s-.57.57-1.42 1.9c-.85 1.32-.94 2.3-.94 2.3s-.32 0-.84.15-1.4.8-1.46 2.47c-.05 1.64 1.04 2.02 1.04 2.02s0 .2.04 1c.05.8.52 1.94 1.04 2.4.52.48.05.67-.33 1.67-.38.98-.3 2.2.23 3.06.52.85 1.93 1.3 1.93 1.3s0 .36.76.92 2.63.2 2.63.2-.34-.27 2.85 1.4c3.18 1.65 2.9 4.08 2.9 4.08s-1.93 1.4-1.8 2.2c.1.82-.1 1.14.88 1.5.96.37 1.9.65 1.9.65s.72 2.3 1.1 3.54c-1.23.82-3.35 2.1-5.47 2.72-3.23.93-6.4.2-6.4.2-4.05-2.27-9.22-4.03-13.9-3.05-3.83.8-5.36 5.1-5.36 5.1s-1.05-.45-4.03-.78c-2.97-.33-5.8 1-7.14 3.05-1.32 2.06-1.78 5.24-1 8.03.8 2.8 1.67.86 2.66-.33 1-1.2 2.78-2.46 5.82-1.53 2.95.9 5.97 4 6.14 4.17-.06-.04-.5-.3-3.83-.77-3.7-.54-6.94.4-9.26 1.12-2.32.73-4.24.8-6.7-.8-2.44-1.6-2.37-4.77-2.37-5.96 0-1.2-1.32-.68-1.78 0-.47.65-3.1 4.57-1.06 8.8 2.04 4.26 6.34 4.92 10.37 4.72 4.04-.2 9.33-2.06 9.33-2.06s-.07.67 2.78 3.4c2.84 2.7 6.4 3.44 9.06 3.44 2.65 0 4.96-1.6 4.96-1.6 1.7 1.53 2.75 4.3 3.04 6.5.2 1.47.07 2.8 1.4 2.8 1.32 0 3.43-2.33 3.43-2.33s.14.66.4 2.32c.26 1.65-.13 6.03-.53 7.3-.4 1.25-1.4 2.58-.06 2.84 1.32.27 2.77-.26 3.5-.33 0 3.2-.64 5.3-2.58 7.78a4.4 4.4 0 0 0-.4.6 53.88 53.88 0 0 1-2.18-1l-14.6 17.15s5.26 6.04 4.97 19.6v-.1a20.62 20.62 0 0 1-1.07-.14c-1.17-.2-1.7-.9-2.96-2.16-1.25-1.26-1.34-3.05-2.6-3.77-1.24-.72-4.73-.45-7.5-.54-2.8-.1-6-1.07-6.55-3.85-.53-2.78.1-4.03 3.68-6.36 3.58-2.34 6.26-4.94 6.44-10.05.18-5.1-3.13-8.42-9.04-15.23-5.9-6.82-8.6-13-9.4-14.62-.8-1.6-1.16-.98-1.8.18-.62 1.17-1.5 3.32-1.5 3.32s-1.98-1.17-6.8-9.95c-4.85-8.8-6.28-15.7-7-19.37-.38-2.47-1.36-1.25-2.1-.6-3.92-11.2-3.7-25-4.8-35.7 0 0-3.9 3.8-6.15 11.28-2.06 6.86-1.98 14.9-1.32 22 .62 6.74 2 10.72 2.65 12.53.98 2.7-.45 1.08-.45 1.08s-3.4-5.9-5.73-17.12c-2.32-11.2-2.06-19-2.06-19s-1.36 1.1-2.94 4.27c-1.57 3.15-3.15 9.45-2.6 20.88.56 11.43 4.8 23.5 7.02 27.58 2.2 4.1.16 1.66-.63.48-.8-1.2-4.74-7.33-6.7-12.77-1.98-5.45-5.6-16.64-5.84-18.37-.24-1.73-.95-.63-1.66.87-.7 1.5-2.28 6.54-2.2 10.16.08 3.63.7 9.93 3.07 16.23 2.36 6.3 6.93 12.68 9.14 15.44 2.22 2.76.48 1.34-.54.55-1.03-.8.08.15-4.5-4.74-4.56-4.88-10.24-16.23-11.02-17.96-.8-1.74-1.58.15-1.66 1.1-.08.95-.7 6.46 2.76 15.84 3.46 9.37 11.97 16.62 16.47 19.7 4.5 3.07 1.27 1.57-1.02.23-2.28-1.34-6.85-4.5-9.7-6.85-2.83-2.37-7.87-8.6-9.3-9.7-1.4-1.1-1.72-1.42-1.64 3 .08 4.4 3.86 11.6 8.65 16.4 4.78 4.8 11 6.97 12.9 7.72 1.9.75.3.4-1.67-.16-1.98-.55-5.34-1.5-8.98-3.53-3.65-2.02-9-6.22-10.77-7.6-1.78-1.4-1.54.5-1 2.93.57 2.42 1.9 6.9 8.8 12.48 6.88 5.6 16.66 8.45 19.47 9.24 2.8.8.83.8.83.8s-1.1-.17-6.8-1.44c-5.7-1.27-14.34-5.78-16.67-7.25-2.33-1.46-2.68-2-2.37 1.08.32 3.1 3.6 9.7 8.87 12.8 5.26 3.1 14.76 4.68 17.22 4.8 2.45.12 1.82.47.7.55-1.1.08-3.83.08-8.3-.43-3.67-.42-9.1-2.2-10.96-2.83-.2-.8-.4-1.56-.48-2.03-.22-1.18-.83-1-1.22-.74-.4.26-.6.48-1.92 1.13-1.3.66-1.35-.13-1.4-.52-.04-.38-.3-2.1-.34-2.96-.04-.87-.52-.92-1.13-.65-.6.25-3.53 1.47-4.62 1.95-1.1.48-.08 1.36.48 2.4a147.27 147.27 0 0 0 1.44 2.58s-2.74.74-3.62.96c-.87.2-.6.82-.4 1.44.23.6 1.58 3.66 1.93 4.54.35.87 1.13.35 1.13.35l2.75-1.62.96 3.68c-.04.05-1.26.3-2.65 1.26-1.38.97-1.03 2.22.63 2.7 1.66.5 3.6 1.33 5.75 5.23 2.15 3.9 2.7 10.9 4.02 21.97 1.32 11.05 8.4 16.68 9.36 17.38.98.7.42 1.25.42 1.25s-.97 1.4-.55 3.54c.42 2.17 2.3 3.42 3.26 3.77.97.34.7 1.32.7 1.32s-.5 2.35 0 6.66c.47 4.3 4 9.18 4.98 10 .98.85 1.05 1.26.9 1.6-.13.36-.75.08-1.93.98s-2.5 2.16-3.32 3.7c-.84 1.52-.56 2.42-.28 4.5.27 2.1 3.32 3.97 3.32 3.97s-.56.15-.7 1.68c-.14 1.53.97 3.27 2.36 4.38 1.38 1.1 4.02 1.67 4.02 1.67s.2 1.32.34 2.22c.14.9 1.88 1.8 3 2.43 1.1.63 3.24.28 4.14-.14.9-.4 1.53.07 2.08.98.56.9.35 4.38.35 5.77 0 1.38-.84 2.84-.36 3.53.5.7 1.8.2 3.12-.55 1.32-.77 1.66-.2 2.84.55 1.18.77 3.05 1.47 3.54 1.4.48-.08.28-1.33.28-2.37s.18-3.4.67-3.75c.22-.15 2.26-.3 3.82-.97.73-.3 1.66-.62 1.73-1.32.07-.68-.97-.68-3.25-1.86-2.3-1.18-2.7-1.88-4.16-2.85-1.46-1-.76-1.33-.76-1.75 0-.42.7-.9.97-1.46.27-.57.13-1.82.13-1.82s1.18-1.18 1.74-1.8c.55-.63 1.24-1.6 2-2.23.77-.62 1.95-3.6 2.7-4.6.77-.96 2.5-2 3.54-3.33 1.04-1.32 3.82-3.47 5.4-4.52 1.6-1.04 5.9-3.06 5.9-3.06s-.07 2.58 1.04 3.83c1.1 1.25 2.56-.97 7.5-4.45 4.9-3.48 8.65-4.73 8.65-4.73s1.04 1.6 2.35 3.26c1.32 1.67 2.5-.07 8.53-8.4 4.76-6.6 11.02-12.6 13.46-14.86.43.2.88.4 1.32.6-.1.32-.24.7-.37 1.1-.55 1.7-1.45 2.82-2.62 5.24-1.17 2.4-2.97 2.96-5.04 6.2-2.08 3.26-2.36 5.47-2.57 8.78-.2 3.32 1.66 4 1.66 4s-3.05 2.98-3.95 5.2c-.9 2.2-1.38 6.7-1.38 6.7s-.48.2-1.6 2.48c-1.1 2.28-3.1 2.62-6 5.52-2.9 2.9-6.14 4.15-7.66 5.04-1.5.9-1.1 1.8-.68 2.97.4 1.17 2.48 2.35 4.9 3.25 2.42.9 3.25.55 4.9.48 1.66-.07.35 1.24-.34 1.93-.7.7-1.6 3.1-1.45 5.8.14 2.7 2.14 2.07 4.63 1.65 2.48-.4 5.4-1.66 5.4-1.66l-.3.76c-.27.76-.4 1.3-.4 3.45 0 2.15.34 3.2.96 3.74.63.55 1.87-.62 2.77-.9.88-.28 2.4-1.17 4.6-1.66 2.22-.48 3.05-1.45 3.05-1.45s-.55.7-.7 2.2c-.13 1.53-.06 3.8.3 5.13.33 1.3 1.3 2.9 2.82 4.28 1.52 1.38 1.86.76 2.97-.97 1.1-1.73 3.38-3.94 3.38-3.94s.14.55 1.66 5.46c1.52 4.9 6.5 8.97 6.5 8.97s4.96-4.08 6.48-8.98c1.52-4.92 1.66-5.47 1.66-5.47s2.28 2.2 3.38 3.94c1.1 1.73 1.46 2.35 2.97.97 1.52-1.4 2.5-2.97 2.84-4.28.35-1.32.42-3.6.3-5.12-.16-1.52-.7-2.2-.7-2.2s.82.96 3.03 1.44c2.2.5 3.73 1.38 4.63 1.66.9.28 2.14 1.45 2.76.9.62-.55.97-1.6.97-3.73s-.15-2.68-.42-3.44l-.28-.77s2.9 1.24 5.4 1.65c2.47.4 4.47 1.04 4.62-1.66.13-2.7-.77-5.1-1.46-5.8-.7-.7-2-2-.34-1.94 1.65.07 2.48.4 4.9-.48 2.42-.9 4.5-2.08 4.9-3.25.42-1.17.84-2.07-.68-2.97-1.52-.9-4.77-2.14-7.67-5.04-2.9-2.9-4.9-3.24-6-5.52-1.1-2.3-1.6-2.5-1.6-2.5s-.48-4.48-1.38-6.7c-.9-2.2-3.95-5.17-3.95-5.17s1.87-.7 1.66-4c-.2-3.32-.47-5.53-2.54-8.78-2.08-3.24-3.87-3.8-5.05-6.2-1.16-2.43-2.06-3.54-2.6-5.26-.12-.36-.24-.7-.36-1.06a145.97 145.97 0 0 1 1.78-.78c2.4 2.23 8.7 8.27 13.48 14.87 6.03 8.34 7.2 10.08 8.53 8.4 1.3-1.66 2.35-3.26 2.35-3.26s3.74 1.25 8.66 4.73c4.92 3.48 6.38 5.7 7.5 4.45.57-.66.7-1.75.78-2.6 0 0 2.82.83 6.06 1.97 1.94.68 4.1 1.54 5.7 2.2 4.27 1.82 4.73 2.75 8.12 5.43 3.4 2.68 8.22 2.42 12.8 1.03 4.56-1.4 16.74-5.4 21.62-7.53 4.88-2.1 8.38-3.97 8.9-4.95.5-.97 1.07-3.7 1.07-4.68 0-.98-1.1-2.42-1.45-2.68-.35-.26-.2-1.04-.1-1.65.1-.63-.2-2.5-.97-3.3-.77-.84-.67-1.14-.57-3.52.23-5.02-3.36-11.36-8.44-13.38 0 0-.14-.58-.55-.93-.4-.34-1.1-.65-1.1-.65s.1-2.9.08-3.5c-.03-.63.24-.56.6-.4.33.18.88.87 1.7 1.08.82.2 1.34-.38 1.5-1.3.18-.94.87-2.8 1.18-3.73.3-.93-.07-1.06-.45-1.17-.37-.1-1.6-.24-2.2-.38-.57-.13-.57-.17-.43-.48.14-.3.34-.8 1.1-1.96.75-1.17.06-1.2-.66-1.44-.7-.24-3.96-1.24-4.86-1.38-.9-.14-1.1.62-1.1 1s.04 2.03.07 2.65c.05.63-.54.45-.88.28-.34-.17-1.13-.65-1.75-1.13-.62-.48-1.06-.04-1.3.65-.24.7-1 3.5-1.24 4.34-.24.82-.17 1.48.18 1.6.35.15 1.96 0 2.92 0s.4.57.4.57-1.02 1.7-1.36 2.34c-.34.66-.93.76-1.72.76s-2.1 0-2.1 0-5.28.2-9.16 3.08-4.97 5.27-5.57 6.66c-.6 1.4-1.28 1.1-1.88 1.6-.6.5-2.3 2.28-2.3 3.37 0 1.1.4 1.7-1.28 2.8-1.7 1.1-3.08 5.87-.8 8.35 2.3 2.5 3.2 4.97 3.9 6.17.68 1.2 0 1.7-.6 1.7s-1.85-1.02-2.9-1.8c-1.04-.78-6.3-4.88-8.55-6.56-2.27-1.7-.6-1.5-.6-1.5s.57.06 1.9-.5c1.3-.56 1.5-1.25.2-1.67-1.32-.42-3.9-1.88-4.58-2.58-.7-.7-1.04-1.46.28-2.16 1.3-.7 4.23-2.57 1.94-3.2-2.3-.62-5-1.1-7.2-1.73-2.23-.63-2.44-1.25-2.44-1.25l1.46-2.1s1.18-1.65-.2-1.86c-1.4-.2-4.72-.63-7.77-1.95-6.1-2.64-9.92-7.12-11.33-12.58l.1-.14c1.14 2.25 3.78 6.46 7.78 6.6 5.46.17 6.08-1.54 4.83-3.33-1.25-1.8-2.68-3.4-3.04-3.94-.36-.55-.45-1.27.98.08 1.44 1.34 4.16 5.9 12.4 5.38 8.23-.54 8.2-2.16 8.2-2.6 0-1.58-1.7-1.83-2.67-2.83-.52-.5-.83-1.26.83-.63s5.73 1.4 11.28.2c2.2-.47 7.98-3 8.55-5.95 0 0-3.67-.2-6.25-1.3-2.57-1.12-4.1-2.03-1.38-1.47 2.73.55 8.03 1.66 12.7.08 2.73-.93 6.26-3.14 6.26-7.18 0 0-5.07-1.07-6.93-1.74-1.86-.67-2.45-1.2-2.45-1.2s7.24 2.3 13.8-1.02c6.58-3.33 6.85-7.9 6.85-8.96 0-1.07-.15-1.4-.15-1.4s-5.98 1.48-10.45 1.44c-4.47-.04-5.86-.43-5.86-.43s12.5-.36 18.8-4.2c6.3-3.85 6.65-11.42 6.65-11.42s-7.14 2.53-11.6 3.05c-4.48.5-7.2.5-8.32.43-1.1-.07-1.74-.43.72-.55 2.45-.12 11.95-1.7 17.2-4.8 5.28-3.1 8.56-9.7 8.88-12.8.32-3.1-.04-2.53-2.38-1.07-2.33 1.48-10.96 6-16.66 7.26-5.7 1.28-6.8 1.43-6.8 1.43s-2.2-.1.63-.9zM199.3 250.47c-.6.35-2.52 1.44-2.52 1.44s-1-2.04-1.26-2.65c-.26-.62-.13-.88.22-.88s1.4-.3 2.22-.4c.12 0 .23-.02.32-.04.28.78.64 1.64 1.12 2.5-.03.02-.06.04-.1.05zm76.78 44.95c-1.53 2.86-5.68 5.85-8.73 7.17-3.05 1.3-6.38 1.73-7.77 1.93-1.38.2-.2 1.88-.2 1.88l1.45 2.1s-.2.62-2.43 1.25c-2.2.62-4.92 1.1-7.2 1.74-2.3.6.62 2.5 1.94 3.2 1.3.68.97 1.45.27 2.14-.68.7-3.24 2.16-4.56 2.57-1.32.43-1.1 1.13.2 1.68 1.32.56 4.93 1.25 4.93 1.25s-.07.14-2.3 1.8c-2.2 1.68-6.1 2.8-8.65 2.93-2.57.14-6.62.3-11.76.07-5.14-.23-5.73-.35-5.73-.35s-.18-1.72-.54-4.26c-.36-2.54-1.9-6.15-3.08-7.8-1.18-1.65-3.66-4.96-3.66-4.96s.06-.7.23-1.54c.17-.83.05-1.7-.55-3.28-.6-1.56-3.6-3.84-3.6-3.84s-.12-1.68-.12-3.24c0-1.57-1.08-7.7-2.05-10.58-.96-2.88-5.64-10.45-7.8-14.05-2.17-3.6-3.45-8.95-4.1-13.1-.66-4.15-.4-5.5-.18-6.6.1-.47.3-.9.5-1.3a12.9 12.9 0 0 0 3.47 3.13c6.3 3.85 18.8 4.2 18.8 4.2s-1.4.4-5.86.44c-4.46.04-10.44-1.43-10.44-1.43s-.16.32-.16 1.4c0 1.06.28 5.62 6.85 8.95 6.57 3.33 13.8 1.03 13.8 1.03s-.58.5-2.44 1.2c-1.85.66-6.92 1.73-6.92 1.73 0 4.04 3.53 6.25 6.26 7.18 4.67 1.58 9.97.47 12.7-.08 2.73-.56 1.2.35-1.38 1.46-2.57 1.1-6.26 1.3-6.26 1.3.57 2.96 6.37 5.5 8.55 5.96 5.54 1.18 9.62.43 11.28-.2 1.67-.64 1.35.12.83.63-.98 1-2.66 1.25-2.66 2.83 0 .44-.04 2.06 8.2 2.6 8.23.53 10.95-4.04 12.4-5.38 1.42-1.35 1.33-.63.97-.1-.36.54-1.8 2.16-3.04 3.95-1.26 1.8-.63 3.5 4.83 3.32 4.02-.13 6.68-4.4 7.8-6.64l.08.12c.08.1.15.2.22.3-.5 1.3-1.4 3.47-2.37 5.3zM342.5 117.3c-.74-1.43-1.14-2.1-1.14-2.1s3.1 1.46 4.95 3.54c1.85 2.1 1.8 3.2 2.1 4.22.27 1.02 0 2.9-.28 4.68-.28 1.78-.28 2.84.08 3.47.35.64.66.96.66.96s-1.37.35-2.67.86c-1.3.52-3 1-3.93.2-.95-.8-1.18-1.34-.6-1.85.6-.5 2.8-1.14 3.07-4.92.27-3.8-1.5-7.65-2.24-9.06zm-16.92 10.27c.7-1.8 1-3.5.46-7.2-.46-3.08-1.06-5.73-1.2-9.06 0 0 2.28.52 5.58 3.52 3.28 3 4.04 6.1 4.04 7.6 0 1.52-.8 3.36-.92 4.82-.13 1.46.4 2.76.4 2.76s-1.2.5-2.28 1.25c-1.08.75-1.83 1.2-3.5 1.13-1.66-.1-2.66-.84-3.62-1.34-.96-.5-1.58-.58-1.58-.58s1.9-1.1 2.6-2.9zm-16.05-12.75c3.3-3 5.58-3.5 5.58-3.5-.14 3.32-.74 5.97-1.2 9.06-.54 3.68-.24 5.4.46 7.2.7 1.8 2.63 2.88 2.63 2.88s-.64.08-1.6.58c-.95.5-1.95 1.25-3.62 1.34-1.67.08-2.42-.38-3.5-1.13a13.96 13.96 0 0 0-2.3-1.25s.55-1.3.42-2.76c-.12-1.46-.9-3.3-.9-4.8s.75-4.6 4.04-7.62zm-11.87 18.3c-.94.8-2.63.32-3.92-.2-1.3-.5-2.67-.86-2.67-.86s.3-.32.66-.95c.36-.62.36-1.68.08-3.46-.26-1.77-.54-3.66-.26-4.68.27-1.03.23-2.13 2.08-4.22 1.84-2.08 4.95-3.54 4.95-3.54s-.4.67-1.14 2.1c-.75 1.4-2.52 5.26-2.24 9.05.27 3.78 2.47 4.4 3.05 4.92.6.5.35 1.06-.6 1.85zm43.86 31.62c-3.24 1.8-5.1 1.4-4.96 2.72.14 1.32 3.04 2.32 3.04 2.32s-2.97 3.18-5.3 4.65c-2.3 1.45-5.02 2.38-5.02 2.38s-.92.15-.4 1.6c.54 1.47 1.46 2.46 2.2 2.86.72.4 1.12.53 1.12.53s-4.04 4.3-5.83 5.7c-1.78 1.4-2.78 1.85-4.23 2.45-1.46.6-.73 3-.4 4.05.33 1.06 1.6 2.52 2.32 2.72.72.2 1 .73.06 2.2-.7 1.08-3 3.98-4.1 5.57l-.07.03c-1.1-1.6-3.43-4.52-4.13-5.62-.92-1.45-.66-1.98.07-2.18.72-.2 1.98-1.66 2.3-2.72.34-1.06 1.06-3.45-.4-4.05-1.45-.6-2.44-1.06-4.23-2.45-1.78-1.4-5.82-5.7-5.82-5.7s.4-.14 1.13-.54c.73-.4 1.65-1.4 2.18-2.85.53-1.45-.4-1.6-.4-1.6s-2.7-.92-5.02-2.37c-2.32-1.47-5.3-4.65-5.3-4.65s2.9-1 3.05-2.32c.12-1.33-1.73-.93-4.97-2.72-3.25-1.8-4.3-4.05-4.3-4.05s3.77-1.27 5.62-5.05c.65-1.34.8-2.57.74-3.6l.14.06c6.02 1.97 13.06 2.75 19.35 2.75 6.27 0 13.3-.78 19.3-2.74l.15-.04c-.07 1.02.1 2.25.75 3.6 1.85 3.77 5.62 5.03 5.62 5.03s-1.05 2.25-4.3 4.05z"/><path fill="#d4af3a" d="M361.2 237.75c0-10.18 4.7-16.6 4.7-16.6l-12.75-14.6c-12.14 4.68-23.25 4.97-33.15-.07-9.9 5.04-21 4.75-33.14.06l-12.75 14.6s4.7 6.43 4.7 16.6c0 10.2-1.97 17.74-3.12 22.66-1.15 4.93-2.13 14.12.5 20.7 2.62 6.55 5.4 12.3 16.74 17.06 11.32 4.76 17.23 7.22 21.17 10.5 3.93 3.3 5.9 5.9 5.9 5.9s1.97-2.6 5.9-5.9c3.95-3.28 9.86-5.74 21.2-10.5 11.3-4.76 14.1-10.5 16.73-17.07 2.63-6.58 1.64-15.77.5-20.7-1.15-4.9-3.1-12.46-3.1-22.64z"/><path fill="#b96b29" d="M357.2 241.95c-1.6-9.72 4-18.28 4-18.28l-10.9-12.75c-8.4 4.72-20.1 4.08-30.26-.6-10.16 4.68-21.86 5.3-30.26.6l-10.9 12.75s5.6 8.56 4 18.28c-1.6 9.72-5.05 25.1-4.2 31.38.87 6.27 5.3 13.53 9.86 17.35 4.55 3.8 11.32 7 16.1 8.74 4.82 1.72 9.5 5.04 11.7 6.76 2.22 1.73 3.7 3.2 3.7 3.2s1.47-1.47 3.7-3.2c2.2-1.72 6.88-5.04 11.68-6.76 4.8-1.73 11.57-4.93 16.12-8.74 4.55-3.82 8.98-11.08 9.84-17.35.86-6.3-2.6-21.68-4.2-31.4z"/><path fill="#1d5e91" d="M356.15 243.1c-1.58-10.5 3.16-18.95 3.16-18.95l-9.84-10.96c-8.32 4.26-18.43 3.16-29.45-.66-11 3.82-21.12 4.92-29.44.65l-9.85 10.95s4.75 8.46 3.17 18.95-4 22.4-3.53 29.36c.03.48.08.97.15 1.46h8.96s.52-.6 1.52-1.03c1-.44 1.28-.73 1.28-.73s.2-1.8 1.28-2.2c1.1-.37 1.57-.37 2-.37.42 0 .76-.1 1.28-.62.52-.53 1.95-1.8 2.56-3.62.62-1.8 1-2.53 1-3.72 0-1.2.43-3.1.43-3.1s-.23-.57-1.13-.23c-.9.34-1.04-.56-1.14-1.47-.1-.9-.05-2.76.48-3.62.53-.85.72-1.13.72-1.13l-.38-1.43s-5.7 1.14-6.7-3.3c-1-4.42-1.18-6.56-1.33-7.04-.13-.47-.27-.7-1.03-.66-.76.04-2.38-.48-3.52-2.77-1.14-2.28-1.23-3.24-.9-4.14.33-.9.95-.57 1.14-.3.18.3 1.7 2.5 2.32 1.87.6-.62.28-.62-.57-2.33-.86-1.72-.57-2.3-.48-3.15.1-.86-.28-2-.28-2.48 0-.47.5-.85 1.03-.62.53.24 1 .62 1.24.9.23.3.33.73.8.44.48-.28.2-1.86.2-2.38 0-.53.6-.9 1.37-.48.76.43 1.14 1.24 1.14 1.8 0 .58.05 1.1.33 1.1.3 0 .63-.85.68-1.42.05-.57.38-1.43.9-.72.53.72.7 1.77.53 2.86-.18 1.1.2.53-.18 2.43-.38 1.9-.57 2.76-.53 4.2.04 1.42.1 2.23.8 4 .7 1.76 1.28 3.8 2.6 3.85 1.34.05 1.72.05 1.72.05s1.47-2.86 2.6-3.53c1.15-.66 2.77-.76 3.9-.9 1.15-.15 1.62-.48 1.62-.77 0-.28-.38-.37-1.75-.57-1.4-.2-2.53-.52-2.58-1.57-.04-1.04.24-1.94-.66-2-.9-.04-3.14-.75-3.94-2.23-.8-1.48-.62-1.8-.52-2.62.1-.8 1.13-2.43 1.8-.9.67 1.52 1.1 1.7 1.66 2.04.57.33 1.33.43.95-.62-.37-1.05-.6-1.72-.5-2.48.08-.76.6-1.1 1.23-1.24.6-.14 2.47-.7 3.4-.9.96-.2 1-.3 1-.3s.1-.65 1.34-1.03c1.23-.4 2.04-.43 2.94-.43.92 0 1.58.14 2.77-.43 1.2-.57 2.14-.67 2.9-.62.76.05 1.33.33 1.9.7.57.4.38.92.38 1.44 0 .52.1.8.9.8s1.52 0 2.28.3c.76.27 1.8.7 1.14 1.5-.66.82-.7 1.73-1.14 1.68-.43-.05-.38.43-.57.72-.2.28-.33.52.14.8.48.3.52.58 1.2 1.2.65.6 1.65 1.28.65 2.28-1 1-2.75 1.8-2.75 1.8s-1 .5.14 1.16c1.14.66 1.67 2.04 2.1 2.28.42.24.85.62 1.13.76.3.15.24 1.1.24 1.1s-.6.43-1.46.76c-.86.34-1.76.72-2.56.72s-1.24 0-.9.76c.32.76.9 1.57 1.04 2 .14.43.33 1.2.33 1.2s1.33.27 2.52.27c1.18 0 1.7.04 4.32-.24 2.6-.3 3.36-.38 5.88-.1 2.52.3 2.9.2 3.56.43.66.23 1.33.57 1.33.57s3.56-.05 5.5-.48c1.96-.44 2.43-1.68 2.15-2.35-.3-.66-.24-1.66-3.66-2.14-3.42-.47-4.8-.28-7.5-.8-2.7-.53-6.94-1.9-7.7-5.3-.76-3.37 2-4.8 3.38-5.46 1.37-.67 4.36-1.72 5.74-2.3 1.38-.56 3.9-1.13 6.56-.75 2.65.37 4.17 1.08 5.22.46 1.04-.62 1.9-.14 1.7.8-.18.96-1.23 2.92-4.22 3.82-3 .9-6.6 1-8.55.48-1.95-.53-3.42-1.3-4.6-.86-1.2.43-2.53 1.9-1.25 3.67 1.3 1.76 7.84 2.3 9.6 2.47 1.75.2 8.26-.28 10.1 2.96 1.86 3.24.4 6.86-1.8 7.67-2.18.8-4.03 1.33-5.7 1.57l-1.65.24s.76 1.7.76 2.43c0 .72-.1 2.06.7 2.58.82.53 1.96.9 3.34.76 1.37-.14 3.03.8 3.13 2.05.1 1.23.47 2.94.62 5.42.14 2.48 0 4.53 0 4.53s-.1.95-.43 1.85c-.33.9-2.04 4.42-2.04 4.42h9.56c.07-.5.12-.98.15-1.46.38-7.06-2.03-18.94-3.6-29.44z"/><path fill="#6d8c3e" d="M281.63 278.58c1.88 5.36 5.74 10.78 11.62 14.32 8.18 4.93 11.7 4.28 19.42 9.3 7.7 5 7.24 5.85 7.34 5.85.1 0-.36-.84 7.35-5.86 7.7-5.03 11.24-4.37 19.4-9.3 5.9-3.54 9.76-8.96 11.63-14.32h-76.73z"/><path fill="#d4af3a" d="M288.32 237.2c.88.92 1.53 1.2 2.87 1.06 1.33-.14 1.65.83 1.88 1.9.23 1.06.23 3.55 1.2 5.86.97 2.3 4.2 2.45 4.2 2.45.1-1.1.48-2.6.98-3.83.08-.22.5-1.25-.65-1.25s-1.1-.48-1.8-1.58-2.03-4.07-2.35-5.97c-.32-1.9.28-4.7.6-5.72.33-1.02.37-1.7 0-1.9-.37-.18-1.1 0-1.1 0s.27.88-.05 1.02c-.33.14-.6-.46-.83-1.1-.24-.66-.5-.56-.97-.52-.47.05-.47.46-.14.93.32.46.14 1.3.14 1.3s-1.02-.75-1.44-.94c-.4-.18-1.38.2-1.48.74-.1.56.37 2 1.25 2.73s.88 2.25.6 2.95c-.27.7-1.57.6-1.85.28a.8.8 0 0 0-1.2 0c-.37.42-.75.66.14 1.57zm-.5-2.45s-.52-.4-.7-.65a35.12 35.12 0 0 1-.56-.74s-.1.23-.1.8.6 1.14.6 1.14l.74-.55zm1.93-6.42c.4-.18.74-.28.4-.74-.3-.47-.6-.98-.9-1.07-.34-.1-.6-.05-.6-.05s.35.84.45 1.34c.1.5.24.7.64.5zm2.4-1.95c-.04.42.06.6.43.42.37-.2.5-.7.32-1.07-.2-.37-.6-.64-.6-.64l-.28-.2c-.03 0 .17 1.06.12 1.47zm3.46.56c.05-.47-.13-.97-.13-.97s0 .55-.23.88c-.23.32-.18.23.05.5.2.3.26.05.3-.42zm5.44 23.5c.68 1.56 2.4-.9 3.98-2.9 1.56-2 1.5-.47 1.3 1.15-.2 1.62.42 3.35 1.05 4.46.63 1.1 1.15.47 1.4-.32.27-.8.48-2.4 1-3.2.53-.8 1.05-.1 1.1.58.05.68.9 2.2 1.67 3.1.8.88 1.15-.32 1.42-1.42.26-1.1.57-2.8.78-3.47.2-.68.94-.1.94-.1s.53.52 1.57 1.52 1.15-.58 1.26-1.36c.1-.8-.15-2.53.16-2.8.3-.26 1.2.37 2.56 1.06 1.36.68 1.3-.63 1.16-1.37-.16-.74-.94-2.42-2.04-3.37-1.1-.94-1.26-2.04-.9-2.52.37-.46 1.68-.04 2.52-.14.84-.1 1.25-.2 1.88-.3.63-.12.63-.75.63-.75s-.47-.78-1.36-1.56c-.88-.8-1.4-1.42-2.5-1.68-1.1-.27-2.62 0-2.62 0l-.15-.32c-.16-.3-.47-.3-.68 0-.2.32-.73.74-1.15 1.1-.42.37-.68.58-.94.42-.27-.15.2-.52.2-.52s.58-.42 1.1-1.47c.53-1.05.68-2.05.26-2.52-.4-.47-1.56 0-2.2 0-.62 0-1 .1-1.04-.2-.05-.33.63-.17 1.4-.27.8-.1 1.27-1.05 1.53-1.84.27-.8.48-.68.95-.2.47.46.9.36 1 .04.1-.3.52-1.1 1.04-1.9.5-.77.83-1.88.25-2.6-.57-.74-2-.64-2.56-.16-.58.47-.95.94-1.1 2.1-.16 1.15-.48.5-.48.15 0-.37-.47-.95-.26-1.42.2-.47 0-1 0-1s-.1-1-1.2-1.2c-1.1-.2-2.36.05-3.45.3-1.1.27-.88 1.22-.88 1.22s-.84.05-1.73.16c-.9.1-1.95.47-2.78.68-.84.22-1.15.32-1.15.74s.15 1.1.15 1.1.68 0 1.05.2c.37.22.16.6-.26.75-.4.15-.57.2-.57.72 0 .53.2.63.63.63.42 0 1.3 0 2.35.47 1.06.47 1.32 1.42 1.22 1.94-.1.53-1.57 1.2-2.3 1.2s-.95.17-.95.64.9.42.9.42.88.05 2.6.26c1.73.2 2 .58 2.78 1.26.78.68.2.84-.16 1.05-.37.2-.95.67-1.52.88-.58.2-.94.63-1.47.73-.5.12-1.82.07-4.22 1-2.4.96-3.25 4.1-3.25 4.1s.32-.1 1.4-.68c1.1-.57 2.47-1.2 3.73-2 1.25-.77 1.25.38.63 1.48-.64 1.1.56.9.93.58.36-.32.83-.63 2.04-1.26 1.2-.63.78.36.78.36s-.37.74-.47 2.47c-.1 1.73 1.73.1 2.56-1 .84-1.1 1.2 0 .58 1.26-.63 1.27-1.83 2.27-2.5 2.27-.7 0-1.22-.74-1.27-1.16-.05-.4.2-1.67-.2-1.98-.43-.3-1.63.05-2.52.58-.9.52-1.1.1-1.3-.37-.22-.47.3-.63.1-.94-.2-.33-.68 0-1.05.14-.36.16-1.2.63-2.82 1.47-1.62.85-1.52 1.32-1.52 2.53 0 1.2.3 1.48.98 3.06zM316.73 224.16c.34-.22.96-.46.96-.46s.76-.2 1.47-.28c.7-.1.6-.5.43-.83-.15-.36-.43-.48-1.35-.48-.93 0-1.52.47-2.04.68-.52.2-1.14.37-1.14.37s.13.15.47.65c.33.52.85.58 1.18.36zm3.78 3.75c.38 0 .78-.2.78-.2s.68-.35 1.3-.56c.62-.22.86-.3 1.23-1.05.38-.76-.4-.76-1.47-1.03-1.08-.28-1.6.1-1.73.5-.12.4-.1.85-.52 1.63-.44.76.06.7.43.7zm-.34.95c-1.04 0-2.22 1.58-2.65 1.86-.42.3-.18.56-.18.56s.3.65.43 1.27.16 1.67.16 1.67.17.06.78.06c.62 0 1-.3 1.58-.74.6-.43 1.05-.6 1.88-.74.84-.16 1.24-.3 2.16-.8.93-.5-.5-1.36-1.48-2.17-1-.75-1.6-.92-2.65-.92zm-13.96 3.63c.83-.1 1.2-.5 1.2-.96 0-.47-.42-.97-1.48-.88-2.6.23-5.12-.7-5.6-3.28 0 0-.86 1.6.75 3.42 1.64 1.8 4.3 1.8 5.15 1.7zm-8.87 40.98c.14.23.3.38.46.46h3.98c.68-.2.7-.8.72-1.25.04-.5.43-1.97.98-4.62.56-2.65 1.5-4.54 1.9-5.6.4-1.08-.4-1.43-.67-2.1-.27-.68-.7-1.86-.82-2.46-.12-.6-1.07-.52-1.58-.48-.5.04-.6.87-.67 1.66-.08.8-.43 3.12-.83 5.14-.4 2-2.68 4.7-3.3 5.3-.64.6-1.15.82-1.58.82-.44 0-1.38 0-1.86.28-.47.28-.94 1.03-.98 1.62-.04.6.9.9.9.9s.76-.42 1.03-.78c.3-.36.92-.44 1.55-.55.63-.1.7.12.47.44-.24.3-.16.37.32 1.2zm-6.1-.2c-.3.1-.52.4-.66.65h2.6c-.03-.2-.1-.46-.25-.65-.3-.4-1.15-.2-1.7 0zM294.77 273.18c-.32.17-.7.46-.9.73h2.8c.1-.25.14-.6-.2-.88-.64-.52-1.27-.1-1.7.15zm24.33-1.16c-.3 0-.58.28-1.02.58-.44.3-.57.78-.64 1.16a.25.25 0 0 0 .02.16h1.2a.22.22 0 0 0 .07-.16c0-.34.13-.65.64-1.1.53-.44.05-.64-.25-.64zm2.34 1.3c0-.38-.14-.72-.4-.68-.28.03-.72.5-1.1.78a2.37 2.37 0 0 0-.47.5h1.77c.1-.2.2-.43.2-.6zM332.27 260.37c.84-.6.7-.78.74-1.43.05-.64.05-.85-.3-1.08-.33-.24-1.58-.78-2.77-.78-1.18 0-3.42.27-4.27.84-.84.58-1.25 2.65-1.25 3.74 0 1.08.18 1.26.5 1.26.3 0 .8-.8.8-.8s1.1 1.48 1.8 2.5c.67 1 .36 1.42.06 2.2-.3.78-1.42 2.85-2.3 3.3-.88.44-1.56.03-2.6-.14-1.06-.17-1.63.14-2.24.75s-.04 1.1.34 1.1c.37 0 .88-.05 1.28.46.28.34.1 1.15-.05 1.6h5.18c.88-.38 1.5-1.6 1.73-2.26.3-.74 1.4-1.73 1.95-2.24.54-.5.6-.85.6-1.97s-.3-1.76-.7-2.54c-.42-.8-.72-1.92-.6-2.56.1-.7 1.23-1.4 2.07-2zM323.74 247.43c.5.84.26 1-.5 1.16a8.54 8.54 0 0 1-2.7.18c-1.17-.1-1.14.07-1.17.65-.03.58-.13 1.8-.8 2.72-.7.9-1.53.55-2.05.2-.5-.36-.8-.27-1 .38-.2.65-.55 1.1-1.1 2.07-.55.97-.9 1-1.3.9-.38-.1-.74-.67-1.13-.7-.4-.04-1-.8-1.6-1.75-.57-.94-.86.1-1.25.9-.4.8-.78 1.4-1.52 1.3-.75-.1-1.6-1.5-2-2.33-.43-.85-.7-1.65-1.33-1.62-.65.03-1.72 1.4-2.43 1.74-.7.36-.9.23-1.23-.22-.32-.45-.74.16-1.16 1.23-.42 1.07.03 1.97.6 2.26.6.3 1.76-.54 2.54-1.05.77-.52 1.13-.4 1.94-.4.8 0 .74 1.34 1.1 3.27.35 1.95 1.5 2.2 1.5 2.2s.37.33 1.25-1.16c.88-1.5.98-2.94 1.82-2.94.84 0 .9.2 1.74 1.36.85 1.16 1.56 2.03 2.04 1.16.5-.88.9-2.17 1.46-2.62.55-.46 1.06-.58.48.26-.58.84-.84 1.74.36 1.4 1.2-.36 5.75-2.2 7.6-2.57 0 0 2.16-.34 4.66-.47 2.5-.13 3.1-.3 4.07-.3.97 0 1-.1 1.07-.74.06-.65-.45-.52-2.27-.52-1.8 0-3.07.22-4.33.42-1.26.2-1.84.16-1.62-.16.23-.33.58-.55 2.04-.78 1.45-.23 4.43-.4 5.98-.42 1.56-.03 1.07.45.94 1.5-.13 1.02.13 2.54.23 3.5.1.98.13 1.27.97 2.63.84 1.36 3.75 2.2 4.6 2.66.83.45.7 0 .67-.8-.02-.82.66-.8 1.4-.37.74.42 1.97.78 2.85 1 .87.23 1 .4 1 .85 0 .46.1 1.46.2 2.4s.06 1.23-.33 1.8c-.4.6-2.04 2.27-2.04 2.27s-.74 0-2.33.4c-1.58.38-2.07 1.13-2.23 1.77-.16.65.3.85.36 1.1.03.15.02.5 0 .78h.37c.13-.23.32-.52.56-.84.57-.7 1.96-.88 2.86-.46.6.28.6.9.54 1.3h3.62c.5-.94 1.65-3.2 1.96-3.88.38-.88.6-1.43.64-2.62.03-1.2.16-5.83-.06-6.08-.23-.26.06-1.04 0-2.33-.07-1.3 0-2.26-2.4-2.48-2.4-.23-3.13-1.23-3.94-2.04-.8-.8-.62-2.7-1.26-4.95-.65-2.26-2.24-2.62-5.05-3.17-2.8-.55-4.87-.6-6.98-.42-2.1.2-4.72.5-6.17.35-1.43-.2-1.2.23-.68 1.07zM337.32 273.4c-.24.16-.4.35-.5.52h2.43a.95.95 0 0 0-.24-.7c-.35-.46-1.07-.2-1.67.18zm4.38-.16a2.22 2.22 0 0 0-.8.68h2.47a.97.97 0 0 0 0-.3c-.1-.38-.84-.8-1.66-.38zm-61.08 1.54a24.1 24.1 0 0 0 .55 2.33h77.67c.23-.77.4-1.55.54-2.32h-78.75zm52.35-37.1c2.46 1.63 10.25 1.7 13.9 2.45 3.67.73 3.4 3.53 2.3 5-1.13 1.46-6.28 1.63-7.2 1.75.5.35 1.25 1.42 1.25 1.42s.56-.04 2.1-.17c1.56-.13 4.27-.5 6.12-2.06 1.85-1.55 1.72-4.05.1-5.73-1.65-1.68-4.36-1.85-7.1-2.15-2.77-.3-4.92-.53-8.02-1.04-3.1-.52-4.6-1.77-4.6-3.57 0-1.82 1.67-2.77 2.88-3.1 1.2-.36 3.14-.87 4.86-.23 1.72.65 3.75.73 7.15.3 3.4-.43 4.18-2.8 4.18-2.8s-.43.22-2.15.26c-1.72.04-2.97-.73-6.1-.77-3.15-.05-4.27 1.08-5.74 1.6-1.47.5-5.4.9-6.55 3.43-1.15 2.54.18 3.74 2.64 5.38z"/><ellipse cx="312.56" cy="225.96" fill="#b96b29" rx="1.466" ry="1.443"/><path fill="#b96b29" d="M344.03 228.42c-1.94-.17-4.48.34-4.48.34s.47.4 1.12.35c.65-.04 1.8-.08 3.7.26 1.9.35 3.27-.56 3.27-.56s-1.68-.2-3.6-.4z"/><path fill="#1d5e91" d="M325.6 264.57c-.46-.75-.6-.68-1.15-.2-.54.47-1.08-1.16-1.15-2.18-.07-1.02.4-4.14.4-4.14s-2.64.54-4.06 1c-1.43.5-2.78.63-3.94.9-1.15.27-1.76.54-2.37.4-.6-.13-1.9-.2-2.92-.2-1 0-.94.2-1.96 1.22s-1.3 1.56-2.1 3.46c-.82 1.9-1.1 3.66-1.36 5.97-.18 1.52-.47 2.56-.65 3.1h12.16c.13-.38.32-.87.5-1.24.3-.7.98-1.15 1.45-1.37.48-.23.9-.23 1.12-.77.22-.54.83-1 1.47-1.28.63-.28 1.75-.12 2.77.16 1.03.3 1.38-.4 1.66-.78.3-.4.42-.93.96-1.63.54-.7.14-1.35.14-1.35s-.5-.33-.98-1.08zm19.52.33c-.15-.7-.1-.8-.5-.9-.42-.1-1.12-.22-1.72-.47-.6-.26-.54 1.37-.54 1.37s-1.44.16-3.06-.03c-1.63-.2-3.54-1.66-4.2-2.14-.68-.48-1.4-1.56-1.4-1.56s-.52.48-1.03.77c-.5.28-.8 1.3-.9 2.32-.1 1.02 1.2 2.26 1.28 3.28.1 1.03-1.1 3.06-1.72 3.9-.4.56-.95 1.77-1.24 2.48h5.86c.12-.3.32-.7.63-1 .6-.6 1.6-.72 1.6-.72s0-.26.23-.8c.22-.54.83-1.18 2.3-1.75 1.46-.57 3.22-.67 3.22-.67s.7-.57 1.2-1.37c.52-.8.14-2-.02-2.7z"/><path fill="#d4af3a" d="M296.23 329.65c1.1.37 3.13-.43 4.15-1.67 1.02-1.24 1.4-3.14 2.12-4.23.73-1.1 1.26-1.9 1.26-1.9s-.16 1.8-1.13 4.2c-.92 2.3-1.08 5.46-.86 6.8.44 2.7 2.2 3.15 3.2 2.78.8-.27 1.96-1.47 3.04-3.26.35-.57.6-1.36.92-2 .7-1.3 1.3-3.45 1.62-3.4.67.14.24 1.66 0 2.68-.53 2.04-1.55 5.04-1.62 6.86-.07 1.83.15 5.12 1.97 5.26 1.82.15 2.76-1.46 3.78-5.18 1.02-3.72 1.24-4.9 1.68-4.9.44 0 .44 2.57.44 3.66 0 .38 0 1.42.16 2.46.3 2 .87 4.4 1.44 4.9.88.8 1.6.67 1.6.67s.74.15 1.6-.66c.9-.8 1.62-6.26 1.62-7.36 0-1.1 0-3.65.43-3.65.44 0 .66 1.16 1.68 4.88 1.03 3.72 1.97 5.33 3.8 5.18 1.82-.14 2.04-3.43 1.97-5.25-.08-1.8-1.1-4.8-1.6-6.85-.52-2.04.2-1.9 1.6.73.43.82.88 1.83 1.32 2.53.97 1.56 1.9 2.48 2.62 2.73 1.02.37 2.77-.07 3.2-2.77.44-2.7-1.6-10.43-1.6-10.43l.88 1.3c.73 1.1 1.1 3 2.1 4.24 1.03 1.24 3.08 2.05 4.17 1.68 1.08-.36 1.23-2.4.43-6.05s-4.1-5.7-6.42-8.6c-2.14-2.7-3.8-7.42-4.04-8.16-2.94 1.46-5.52 3.1-7.85 5.54-4.82 5.04-5.86 6.3-5.86 6.3s-1.05-1.26-5.88-6.3c-2.35-2.45-4.94-4.1-7.9-5.56-.27.62-2.28 5.13-4.45 7.84-1.07 1.35-2.55 2.37-3.6 3.66-1.24 1.5-1.98 3.3-2.4 5.27-.8 3.62-.64 5.66.45 6.04zM296.1 342c1.4-1.23 2.13-1.9 2.13-1.9s1.03-.87.77.76c-.26 1.62-.8 4.96-.47 6.42.34 1.46.5 2.7 2.3 1.62 1.8-1.06 2.24-1.7 3.1-2.6.85-.9 1.75-1.3 1.53.12-.2 1.4-.85 3.56-.55 6.42.3 2.87 1.72 3.3 3.56.86a32.26 32.26 0 0 0 3.5-5.86c.57-1.2 1.68-2.23 1.68 0 0 4.78 1.1 11.75 6.38 13.6 5.28-1.85 6.38-8.82 6.38-13.6 0-2.23 1.1-1.2 1.66 0 .56 1.2 1.67 3.42 3.5 5.86 1.85 2.44 3.27 2 3.57-.86.3-2.86-.35-5-.56-6.42-.2-1.4.68-1.03 1.54-.13s1.3 1.53 3.1 2.6c1.8 1.08 1.96-.16 2.3-1.62.35-1.46-.2-4.8-.47-6.42-.25-1.63.77-.77.77-.77s.73.67 2.14 1.9c1.4 1.25 3.35 1.33 3.35 1.33s.9-5.03-1.2-8.03c-2.1-3-2.86-3.98-2.86-3.98s-1.18-.07-2.1-.4c-.9-.36-1.78-1.02-1.78-1.02v2.78s2.57 2.44 3.17 3.17c.6.72 1.8 1.97.04.77a50.52 50.52 0 0 1-3.2-2.4s-.35 2.53-1.08 3.17c-.74.63-1.76.7-2.2.54l-.42-.17-.13 1s1.6 2.94 1.8 4.14c.2 1.2-.13 1.08-.86-.46s-2.15-3.5-2.8-4.58c-.63-1.07-1.57-1.8-1.5-.43.1 1.37-.46 3.85-.93 4.75-.47.9-.77 1.2-.77 1.2s1 3.47 1.1 4.1c.14.65.06 1.38-.5.57-.56-.82-2.14-4.24-2.14-4.24s-2.1-.08-2.7-.68c-.6-.6-1.54-2.9-1.54-2.9s-.85 2.94-1.57 3.9c-.7.94-2.36 1.88-2.36 1.88s-.13 5.12-.24 6.03c-.12.9-.16 1.3-.54 1.3s-.43-.4-.55-1.3c-.1-.9-.23-6.03-.23-6.03s-1.66-.94-2.36-1.9c-.7-.94-1.57-3.88-1.57-3.88s-.93 2.3-1.53 2.9c-.6.6-2.7.7-2.7.7s-1.58 3.4-2.14 4.23c-.56.8-.64.08-.5-.56s1.1-4.12 1.1-4.12-.3-.3-.77-1.2c-.47-.9-1.03-3.38-.94-4.75.08-1.37-.86-.64-1.5.43s-2.05 3.04-2.78 4.58-1.07 1.67-.86.47c.22-1.2 1.8-4.14 1.8-4.14l-.13-1-.42.18c-.43.17-1.46.1-2.2-.55-.72-.65-1.06-3.18-1.06-3.18s-1.45 1.2-3.2 2.4c-1.76 1.2-.56-.04.04-.77.6-.73 3.17-3.17 3.17-3.17v-2.78s-.88.66-1.8 1c-.9.35-2.08.42-2.08.42s-.78.98-2.87 3.98c-2.1 3-1.2 8.03-1.2 8.03s1.96-.06 3.37-1.3zm25.74 33.48c-1.35-1.58-1.8-2.37-1.8-2.37s-.45.8-1.8 2.38c-1.36 1.58-4.52 4.06-4.52 4.06s.28 4.18 1.8 6.43c1.3 1.9 2.52 3.65 4.52 4.97 2-1.32 3.23-3.06 4.5-4.97 1.54-2.25 1.82-6.43 1.82-6.43s-3.17-2.5-4.52-4.06z"/><path fill="#b96b29" d="M319.36 380.6c.12.96.04 3.4.63 3.4.58 0 .5-2.44.62-3.4.12-.97.16-3.3.16-3.3h-1.6c.02 0 .06 2.3.18 3.3z"/><path fill="#d4af3a" d="M319.97 151.3c-5.65.1-12.28-.68-15.92-2.04-1.3.3-2.6.58-3.9.86 6.02 2.26 11.04 3.14 19.82 3.23 8.78-.1 13.8-.97 19.8-3.23-1.3-.28-2.58-.57-3.88-.86-3.65 1.36-10.28 2.14-15.94 2.05zm20.55-4.7c-.45-.38-3.02-2.22-3.7-2.55-.66-.34-.14-1.23-.03-1.6.1-.38 3-1.2 4.62-1.6 1.6-.43 1.34-.76 1.34-.76s-.94-1.1-6.75-1.73c-5.8-.64-16-.5-16-.5s-10.22-.14-16.03.5c-5.82.63-6.75 1.72-6.75 1.72s-.26.32 1.34.74c1.6.4 4.5 1.23 4.62 1.6.12.38.64 1.27-.03 1.6-.67.34-3.25 2.18-3.7 2.55-.44.37-.47.96.23 1 .7.04.72.03 2.72-.38 5.98-1.2 11.62-1.52 17.6-1.6 5.97.08 11.6.4 17.58 1.6 2 .4 2 .42 2.72.38.7-.04.68-.63.23-1zM333.9 149.06c-3.98-.47-6.52-1-13.9-.92-7.38.06-9.9.45-13.9.92 2.5 1 6.57 1.5 13.9 1.5s11.4-.5 13.9-1.5zM318.95 91.5l-.18 2.83 3.04-.24-.27-2.67 3.27.45.13-2.62-3.43.3.6-2.83-3.78-.03.66 2.87-3.33-.3v2.6zm6.46 7.14h-4.07v-3.5a6.03 6.03 0 0 0-1.2-.1c-.38 0-.73.03-1.08.1v3.5h-4.23a4.57 4.57 0 0 0-.18 2h10.95c.02-.2.03-.4.03-.6a5.4 5.4 0 0 0-.24-1.4z"/><path fill="#1d5e91" d="M320.12 105.05c2.43 0 4.5-1.43 5.23-3.42H314.9c.73 2 2.8 3.42 5.23 3.42zm2.25-9.58v2.4h2.7c-.54-1.06-1.5-1.9-2.7-2.4zm-4.5 0c-1.2.5-2.17 1.34-2.73 2.4h2.72v-2.4z"/><path fill="#b96b29" d="M323.25 139.97c-1.03-.5-3.28-1.45-3.28-1.45s-2.14 1.05-3.3 1.64c-1.16.58-1 .4-1.37 1.26-.35.84.04 1.14.55 1.37.5.22 4.18 2.1 4.18 2.1s3.64-1.7 4.52-2.1c.88-.42.72-.84.47-1.48-.24-.64-.73-.86-1.75-1.35z"/><path fill="#d4af3a" d="M319.97 139.33l-3.5 1.7 3.6 1.84 3.55-1.83zm0-12.36s-.3 1.27-.7 1.8c-.42.55-.72 1.03-.6 1.7.1.65.86 1.08 1.3 1.08.44 0 1.2-.44 1.3-1.1.12-.65-.18-1.13-.6-1.67-.38-.54-.7-1.8-.7-1.8z"/><circle cx="320" cy="132.84" r=".677" fill="#d4af3a"/><path fill="#d4af3a" d="M317.58 129.36s1.17-1.3 1.6-2.12c.44-.82.8-1.56.8-1.56s.34.74.78 1.56c.43.82 1.6 2.12 1.6 2.12s1.64-.87 2.6-4.03c.95-3.16-.22-6.5-.66-10.08-.43-3.6-.78-9.78-.78-9.78-1.24.7-2.42 1-3.55 1.03-1.13-.02-2.3-.32-3.56-1.03 0 0-.33 6.2-.77 9.78-.43 3.6-1.6 6.92-.65 10.08.96 3.16 2.6 4.03 2.6 4.03z"/><ellipse cx="319.97" cy="122.259" fill="#b96b29" rx="2.841" ry="2.742"/><ellipse cx="319.97" cy="115.83" fill="#b96b29" rx="2.733" ry="2.639"/><ellipse cx="319.97" cy="109.681" fill="#b96b29" rx="2.607" ry="2.516"/><ellipse cx="319.97" cy="121.767" fill="#d4af3a" rx="1.506" ry="1.452"/><ellipse cx="319.97" cy="115.358" fill="#d4af3a" rx="1.449" ry="1.397"/><ellipse cx="319.97" cy="109.23" fill="#d4af3a" rx="1.27" ry="1.226"/><path fill="#b96b29" d="M319.9 336.06c.17.04.2-.4.24-1.25.03-.83.14-2.84.35-4.02.2-1.2-.33-1.12-.64-1.05-.3.07-.5.97-.5 1.5 0 .52.15 3.5.15 4.14 0 .62.22.66.4.7z"/><path fill="#d4af3a" d="M290.42 359.1c1.26-.8 2.36-1.67 5.22-3.57s3.9-4 3.9-4h-1c-.55 0-1-.77-1.05-1.53-.06-.76 0-2.32.2-4.14.2-1.8-.3-3.3-.3-3.3s-1.22 1.15-3.07 2.12c-1.85.97-2.6.5-2.6.5l-.47-1.85s-.8 1.7-1.94 3.67c-1.13 1.98-4.2 4.18-6.4 5.82-2.18 1.65-4.58 3.38-6.4 4-1.8.65-.74 1.5-.74 1.5s1.8 1.8 6.48 2.65c4.67.84 6.9-1.05 8.16-1.86zM306.75 357.3c-1.66-.17-2.66-.8-2.98-2.62-.2-1.18.08-5.7.08-5.7s-.55.47-1.18 1.23c-.63.77-2.06.94-2.06.94s-.2.63-.83 1.64c-.63 1.02-1.43 2.24-3.03 3.25-1.6 1.02-3.45 2.2-4.67 3.2-1.22 1.03-2.65 2.2-4.25 3.1-1.6.88-3.03 2.3-3.58 4.68-.54 2.37-.12 3.13 1.73 3 1.85-.12 2.06.04 5.05-.72 3-.76 7.23-4.1 10.35-6.07 3.1-1.98 5.38-5.9 5.38-5.9zM315.04 360.03s-1.27-1.6-1.73-3.42c-.45-1.8-1.34-5.4-1.34-5.4s-.42 1.15-1.43 3.3c-1 2.15-2.73 2.66-2.73 2.66s-.1.93-1.52 2.74c-1.43 1.82-3.53 3.5-5.68 4.77-2.14 1.27-4.92 3-6.43 5.15-1.52 2.15-1.65 4.4-.93 5.36.72.97 1.73-.13 3.16-.85 1.43-.7 5.5-1.35 11.15-4.38 5.63-3.04 7.48-9.92 7.48-9.92zM317.48 372.66c1.56-2.32 1.8-7.97 1.8-7.97s-.54-.4-1.3-1.03c-.75-.63-2.22-2.87-2.22-2.87s-.93 1.94-1.94 3.76c-1 1.82-1.5 2.45-3.62 4.4-2.1 1.93-4.96 3.83-6.18 5.9-1.22 2.06-.55 6.2.25 7.6.8 1.4 1.94.92 3.1-.22 1.2-1.14 1.57-1.43 3.63-3.2s4.93-4.06 6.48-6.38z"/><path fill="#b96b29" d="M298.97 325.33c.83-1.7 1.76-3.74 2.52-4.78a14.9 14.9 0 0 0 1.28-2.23s-2 1.83-2.8 3.13c-.8 1.3-1.3 2.55-1.66 3.96-.36 1.4-.18 1.62.65-.07zm8 1.44c.32-1.1.5-1.86.5-1.86s.33-1.07.15-1.14c-.18-.07-1 .67-1.6 2.5-.57 1.84-1.43 4.5-1.25 4.6.18.12 1.87-2.97 2.2-4.1zm6.3 5.07c.36-.8.36-.82.36-.82s.64-2.1.64-2.52c0-.43-.2-.94-.75.14-.54 1.08-.58 2.12-.7 2.6-.1.46-.7 2.08-.53 2.23.17.14.6-.83.97-1.63zm-19.56 19.2l-.84-.5s-.5.67-1.22 1.43c-.7.76-1.5 1.06-2.06 1.78a7.95 7.95 0 0 1-2.7 2.27c-1.3.68-1.8.9-1.55 1.1.25.2 1.14-.3 1.14-.3s.37-.04 1.93-.96c1.56-.93 1.94-1.44 2.95-2.32 1-.9 2.35-2.5 2.35-2.5zm6.83 8.07c.6-.62 1.22-1.04.88-1.38-.32-.34-.74-.3-1.3.17-.54.46-2.1 1.93-2.8 2.56-.73.64-1.3 1.02-2.03 1.57-.7.54-2.27 1.4-3.03 1.8-.75.43-.04.48-.04.48s.6-.3 1.22-.5c.63-.2 2.44-1.02 2.44-1.02s.72-.33 1.68-1c.97-.68 2.4-2.03 3-2.66zm7.86 5.46c.5-1-.05-.72-.9-.38-.83.34-2.73 2.4-3.82 3.16-1.1.76-2.02 1.06-2.95 1.53-.92.46-.92.7-.88.92.04.2.42.2.8.04.38-.17 1.68-.93 1.68-.93s.55-.16 1.06-.2c.5-.05 1.2-.6 2.34-1.57 1.14-.97 2.14-1.55 2.65-2.57zm3.65 7.2c-1.4.86-3.8 2.76-4.42 4.02-.63 1.27-1.05 2.16-.84 2.37.2.2.87-.2 1.17-.72.3-.5.92-1.27.92-1.27s2.4-2.36 3.27-2.9c.9-.56 2.32-2.12 2.66-3.05.33-.92.08-1.42.08-1.42s-1.46 2.15-2.85 3z"/><path fill="#c52126" d="M275 169.92c-1.3-.75-4.7-2.2-8.35-2.52-3.64-.3-6.45.24-9.47 1.06-2.17.58-3.92.67-5.65.2-2.6-.7-4.63-3.04-5.32-5.92 0 0-2.4 3.08.07 6.42 1.18 1.6 2.7 2.62 4.28 2.93 5.1 1.02 10.1-2.1 14.35-2.36 4.08-.27 7.28 2.32 7.28 2.32s.96.8 2.32 0c1.36-.8 1.76-1.4.5-2.14z"/><path fill="#d4af3a" d="M260.3 317.5s-.5-.06-1.2-.16-2.2-.6-2.66-.8c-.45-.2-1.15-.26-1.6.24-.46.5-4.12 2.67-4.12 2.67h6.07c2.1 0 3.5-1.96 3.5-1.96zM277.4 316.45v-.6l-.82-1.74s-.95.6-1.87 1.55c-1.17 1.23-2.44 2.96-3 3.68-1.02 1.3-2.44 2.52-1.22.45 1.2-2.07 1.6-2.96 2.58-4.34.97-1.37 1.7-1.98 1.58-2.06-.12-.1-.9-.2-3.44-.53s-4.12-1.3-5.3-2c-1.16-.68-3.26-1.8-3.26-1.8s-4.33 1.8-5.94 2.22c-1.62.4-2.6.65-1 1.42 1.56.76 2.9 1 3.66 1.48.77.5 3.15 1.26 4.6 1.26 1.46 0 3.93.04 2.96 1.05-.97 1-2.06 2.95-3.1 5.9-1.06 2.97-1.1 5.6-1.1 6.9 0 1.3.16 2.6.16 2.6s1.77-2 6.54-5 6.55-4 7.44-4.4c.9-.4 1.33-.4 1.17-1.55-.16-1.13-.64-3.93-.64-4.5zM295.6 301.96a68.5 68.5 0 0 1-.9-.4 1 1 0 0 0-.2.08c-.57.28-3.48 2.24-4.65 4.14-1.18 1.9-2.35 2.07-1.06 0 1.27-2.07 2.22-3.24 3.23-4.14a23.54 23.54 0 0 1 1.02-.85c-2.34-1.14-4.9-2.5-7.34-4.22-.3.64-.92 1.76-1.6 2.5-1.02 1.05-3.26 1.95-3.26 1.95s1.8-1.85 2.4-3.25c.4-.9.66-1.85.8-2.43-1.72-1.33-3.36-2.85-4.83-4.6-.28 1.2-1.25 4.16-4.12 7.37-3.75 4.2-11.24 6.32-11.24 6.32s-2.63.28-.5.84c2.12.56 3.63 1.5 7.77.78 4.15-.72 4.43-.9 5-1.06.55-.17 2.06-.06 0 .73-2.08.78-6.9 1.5-8.74 1.34-1.84-.17-4.36-.56-1.73.84 2.63 1.4 3.75 1.97 5.37 1.97s2.3.5 3.86.5 2-.28 3.13-.5c1.1-.22 1.84.16 1.84.6 0 .46-1.5 1.7-1.46 4.77.06 3.07.28 5.1.56 5.98.28.9.95 2.35 1.4 3.2.45.83.62 1.67 1.06-.12.45-1.8 1.46-4.36 1.85-6.1.4-1.73.6-1.8.78-2.68.17-.9 1.12-1.57.67.05a133.43 133.43 0 0 0-1.28 5.15c-.34 1.46-1.12 4.14.22 2 1.34-2.1 6.38-7.76 7.2-8.77.85-1 1.52-1.96 2.14-2.8.6-.83 2.35-1.95 3.2-3.18.75-1.12 2.97-3.28 3.92-4.06-1.42-.6-2.92-1.23-4.5-1.94zm-69.55-129.12c.14 3.1 3.55 8.98 5.5 12.13 1.93 3.16 2.47 4.43 2.13 4.63-.33.2-1.14-1.4-2.2-2.8-1.08-1.42-3.15-4.7-4.9-7.18-1.73-2.48-4.27-8.38-4.6-8.92-.34-.53-.48-.87-1.34-.2-.87.67-2.55 7.17-.54 11.6 2 4.42 5.02 7.63 6.3 9.17 1.26 1.55 2.93 3.96 2.67 4.16-.27.2-.74-.4-2.28-2-1.55-1.62-4.1-4.37-5.76-6.38-1.36-1.63-3.2-4.94-3.85-6.13-.25-.45-.57-.33-.8-.1-.55.56-1.43 1.85-1.05 5.36.54 4.9 3.08 7.7 5.35 10.2 2.28 2.47 4.55 4.54 4.22 4.88-.34.34-2.68-1.74-4.28-3.28-1.6-1.54-5.56-5.36-6.43-6.44-.86-1.07-2.13-.53-2.06 3.7.06 4.2 4.75 8.5 6.7 10.85 1.93 2.33 4.34 3.74 4.14 4.2-.2.47-2.14-.73-3.4-1.6-1.28-.87-6.04-3.96-6.97-4.63-.93-.67-1.4.6-.2 4.63 1.2 4.02 4.7 7.23 6.76 8.7 2.08 1.48 5.42 3.3 5.22 3.76-.2.47-1.6-.13-3.54-1.07-1.94-.95-4.28-1.82-5.96-2.3-1.67-.46-1.67.74-1.67.74s-.33 3.42 2.15 6.17c2.48 2.76 5.3 3.83 7.96 4.3 2.7.47 3.1.6 3.02 1-.06.4-.33.47-.93.47-.62 0-3.1.27-5.37.27s-3.48.53-3.48 1.54c0 1-.06 2.35 3.35 4.62 3.4 2.28 7.22 2.62 8.83 2.95 1.6.34 1.67.47 1.34.94-.34.46-1.07.4-3.6.66-2.56.27-4.1 1.28-4.43 1.95-.34.68.2 2.7 2.28 4.1 2.07 1.4 4.75 1.87 8.76 1.6 4.02-.27 5.02-.33 5.15.34.14.67-1.2.87-3.2 1.2-2.02.34-3.56.34-4.7 1.28-1.13.94-.26 2.88 1.68 4.3 1.95 1.4 6.77 1.4 8.78 1.26 2-.13 5.08-.87 5.28-.34.2.54-1.47 1.35-3.54 2.08-2.08.74-2.68 1.2-3.08 2.08-.4.87-.07 1.67 2.4 2.6 2.48.95 6.1.95 7.97.08 1.88-.87 2.9-1.2 3.22-.87.33.35 0 .68-.4 1.15-.4.47-2 1.74-4.08 2.28-2.08.53-2.28.53-3 2.2-.75 1.68 1.12 3.03 4.87 3.16 3.76.12 8.78-1.35 10.38-2.3 1.6-.93 2.2-1.13 2.48-.8.26.34.2.54-.6 1.14-.8.6-3.35 2.42-4.62 2.75-1.27.33-1.4 1.27-1.4 2.14 0 .87-.34 2.6 3 3.42 3.35.8 7.3.2 10.9-2.35 1.17-.8 1.85-1.5 2.23-2.07-.3-3.42-.14-5.78.27-7.94-.7-.1-2.05-.3-3.43-.85-2-.8-2.8-2.68-3.27-3.68-.47-1-1.13-1-1.94-.74-.8.27-1.6.6-2.75.54-1.14-.07-3.55-.67-5.3-2.75-1.73-2.08-1.4-4.1-1.46-5.1-.08-1-1.68-.26-2.48-.26s-3.15-.34-5.3-1.8c-2.13-1.5-2.13-3.5-2.33-4.3-.2-.8-1.08-1.34-1.75-1.6-.67-.28-1.74-.54-3.2-1.75-1.5-1.2-2.02-3.54-2.1-4.35-.05-.8-.93-.87-3.94-2.4-3-1.55-2.73-4.77-2.6-6.04.14-1.26 1.54-2.33 1.54-2.8 0-.47-1-.6-2-1.2s-3.55-1.62-3.62-5.37c-.06-3.75 2.4-4.16 2.4-4.16s-.46-.2-1.46-.8c-1-.6-3.75-2.48-3.75-4.7 0-2.2 1.02-3.2 1.75-3.74.74-.54 2.75-1.08 2.75-1.08s-1.28-.8-1.8-2.54c-.55-1.74-.75-3.88.52-5.42s3.42-1.54 4.55-1.54c1.14 0 2.14.6 2.55.27.4-.33.46-.6.06-1.47s-.47-3-.13-3.75c.33-.74.4-2.2 3.28-3.15 2.87-.93 5.9 1 6.82 1.54.94.54.54-.74.54-1.67 0-.94-1.95-3.28-4.16-6.64-2.2-3.35-3.2-5.1-5.7-10.18-2.47-5.1-4.07-11.66-4.4-13.34-.34-1.67-1-.87-1-.87s-.68.27-2.22 4.16c-1.53 3.88-1.8 7.44-1.67 10.5zM276.53 241.38c-1.73-.1-3.96-1.03-5.7-3.54-1.7-2.5-4.3-3.1-8.78-3.02-4.48.1-6.55-2.07-7.67-5.18-1.12-3.1.17-6.65 4.74-8.9 4.57-2.24 6.64-4.74 6.8-8.62.18-3.9-4.56-8.72-9.3-14.16-4.74-5.44-8.45-13.12-8.45-13.12s-1.38 1.8-1.38 3.63c0 1.8.68 3.7 0 4.22-.7.5-.95-.78-3.7-2-2.77-1.2-5-1.37-6.73.6-1.73 2 0 5.45 1.55 7.1 1.55 1.63 2.84 2.84 2.4 3.45-.42.6-2.75-.95-3.52-1.47-.78-.52-2.6-2.5-5.26-2.24-2.67.25-3.62 1.03-3.88 3.28-.26 2.24 2.4 4.22 4.14 5.1 1.72.85 2.4 1.63 1.98 1.97-.43.34-.86 0-1.64-.27-.77-.25-2.93-.5-4.3 0-1.4.52-3.63 2.42-1.56 4.75s6.38 3.2 7.24 3.37c.86.17 1.3-.1 1.38.6.1.7-1.8.7-4.14.78-2.32.1-3 2.33-2.67 4.06.34 1.7 4.2 3.6 6.37 3.96 2.15.34 2.93 0 3.1.6.18.6-.26.86-1.46 1.2-1.2.35-3.53.6-3.96 2.5-.43 1.9-.52 2.77 1.3 4.42 1.8 1.64 4.74 1.38 5.6 1.2.86-.17 1.9-1.12 2.76-.25.86.86-.78 1.55-2.25 2.58-1.46 1.05-1.38 3.04 1.12 4.42s5 .86 6.04.52c1.04-.35 2.42-2 3.1-.95.7 1.02-2.15 1.37-3.35 2.83-1.2 1.47-.78 3.9 1.63 5.35 2.42 1.47 6.38.43 7.07-.17.7-.6 1.55-.85 2.07-.33.52.5-.26 1.9-.78 3.1-.5 1.2-1.46 4.75 2.16 6.13s6.9-1.72 7.5-2.33c.6-.6 1.2-.7 1.72-.43.52.26.26.78-.17 1.38-.43.6-1.38 3.2 1.2 5 1.77 1.25 3.7 1.15 4.74.97.53-2.03 1.23-4.2 1.94-7.2H275c-.34 0-.4.5-.4.7 0 .22.1.4-.22.4-.3 0-.34.16-.8.48-.44.3-.85.68-1.1.5-.24-.16.94-.78 1.25-1.16.3-.38.93-.97.96-1.38.03-.42.23-.66.86-1.18.2-.16.34-.35.46-.53.42-2.02.82-4.37 1.2-7.23.24-1.93.4-3.76.44-5.46l-1.13-.06zm-73.67-53.8c3.85 7.78 9.3 12.17 9.3 12.17s-.72-1.94-1.04-3.27c-.3-1.33-.07-2.83-.07-2.83s-1.36-1.75-3.88-5.64c-2.52-3.88-3.86-9.62-3.86-9.62s2.36 5.74 4.18 8.8c1.82 3.04 3.93 5.52 3.93 5.52s.74-2.7 1.27-2.83c.52-.14.9.28 1.36.87.46.6.84.54.84.54s-.62-1.28-1.58-2.82c-.44-.7-1.08-1.46-1.52-2.17-1.44-2.28-4.53-6.6-6.12-10.9-1.6-4.3-5.06-15.12-5.66-18.3-.6-3.18-1.2-1.44-1.82.9-.6 2.35-1.43 5.68-.9 10.67.53 5 1.73 11.12 5.58 18.9zm4.98 21.02a135.86 135.86 0 0 0 3.55 2.5s-.34-.78-.55-1.72c-.2-.94-.3-2.87-.3-2.87s-1.7-1.47-2.87-2.5c-1.17-1.02-2.65-2.35-5.58-5.98-2.92-3.62-.57-1.45 1.8 1.15s6.95 6.38 6.95 6.38 0-.06.03-.85a3.12 3.12 0 0 1 .7-1.9c.4-.55.2-.62-2.38-2.6-2.56-1.95-9.2-9.44-11.93-13.9-2.72-4.47-5.66-10.52-5.66-10.52s-1.43 8.93 4 18.76c5.45 9.83 10.8 13 12.24 14.07zm28.53 56.3c2.98-1.16 2.17-4.1 2.17-4.14 0-.05-1.83.58-3.5 1.2-1.7.63-5.83 1.83-7.46 1.88-1.63.05-1.63-.2-1.68-.43-.05-.23 1.25 0 3.6-.43 2.36-.43 6.5-2.6 7.2-3.08.73-.5.63-.6-.42-.68-1.06-.1-1.97-.58-2.36-.9-.38-.35-1.48.13-4.18.76-2.7.62-8.26 1.58-12.54 1.58-4.27 0-8.26-.72-8.94-.86-.67-.15-1.4.24.68 3.7 2.06 3.47 9.32 5.35 14.37 5.3 5.05-.05 10.1-2.75 13.07-3.9zm-13.4-7.16c5.2.05 7.14-1.5 7.14-1.5s0-.26-.7-1.32-.57-2.87-.57-2.87-1.23.22-3.4.53c-2.16.3-4.67.62-7.45.13-2.78-.48-1.6-.78.62-.52 2.2.26 6.44-.53 7.8-1.02 1.37-.48.8-.92-.13-1.24-.92-.3-3.44-1.9-3.44-1.9s-6.3.8-12.17.14c-5.87-.67-9.57-2.17-10.76-2.34-1.2-.18-1.15.3-1.15.3s-.3.54 1.72 3.7c2.03 3.2 6 5.27 9.35 6.25 3.35.97 7.94 1.63 13.14 1.68zm-1.34-12.2s-.22-.3-.53-1.36c-.3-1.06.57-1.86.57-1.86s-1.2-.35-5.07-.84c-3.88-.48-4.1-.8-6.48-1.32-2.4-.53-3.97-1.24-3.93-1.5.03-.27.78.13 2.2.66 1.4.53 7.36 1.15 9.88 1.5 2.5.35 3.92.62 4.36.35.44-.26 2-.66 2-.66s-1.07-.3-2.4-.52c-1.32-.22-2.5-.8-3.2-1.28-.72-.5-.94-.62-4.12-.97-3.17-.35-5.73-1.37-11.42-3.45-5.7-2.07-9.97-4.55-11.12-5.47-1.14-.92-1.06-.26-.75.93.3 1.2.27 2.7 3.13 6.05 2.87 3.36 4.28 4.82 11.52 7.47 7.23 2.65 15.35 2.3 15.35 2.3zm-21.4-17.6c6.4 4.5 13.9 6.15 15.5 6.35.35-.43-.4-1.93-.05-2.84.4-1.1 1.1-1.1 2.64-1.2 1.55-.1.53-.4.18-.4-.35 0-.44-.04-3-.7-2.56-.66-5.16-1.06-8.7-2.4-3.52-1.3-4.57-2.28-4.5-2.55.1-.25 1.64.85 4.9 2.1 3.27 1.23 7.07 1.7 9.14 2.16 2.07.43.26-.45-.7-1.02-.98-.58-2.34-2.7-2.34-2.7s-2.3-.4-6.05-1.54c-3.75-1.15-6.88-2.44-10-4.2-1.08-.6-2.13-1.4-3.25-2.2-2.14-1.54-4.3-3.1-5.14-3.72-1.28-.93-.88-.18-.75.4s1.02 3.22 3.05 6.14c2.03 2.9 2.7 3.8 9.1 8.3zm-1.04-12.7c6.3 5 11.72 6.54 12.65 6.94.92.4.84-.13.66-.66-.17-.53-.3-2.25-.3-2.25s-2.25-1.28-4.76-2.74c-2.52-1.46-5.3-3.44-7.15-4.72-1.86-1.28-.76-1.2-.2-.7.6.48 3.15 2 5.7 3.58 2.56 1.6 6.44 3.88 6.44 3.88s.1-.84.62-1.37c.53-.54 1.85-.4 1.85-.4s-.65-.67-1.05-1.28c-.4-.62-2.47-1.28-4.8-2.4-2.34-1.1-6.53-4.2-9.62-6.8-3.1-2.6-9.1-9.14-9.48-9.67-.4-.53-.67-.44-.7.22-.05.66-.27 1.1.4 4.1.65 3.02 3.43 9.3 9.74 14.28zm22.3-47.2c.73 1.5 1.5 2.6 2.07 3.58a52 52 0 0 1 1.33 2.4s.17-.5.04-1.38c-.14-.88-.27-2.1-.03-3.55.13-.8.3-1.56.26-2.25-.05-.78-.3-1.46-.42-1.9-.2-.86-1.1-4.53-1.55-7.13-.45-2.6-.92-6.3-.9-9.6.05-3.26.52-1.6.52-.02 0 1.6.17 4.02.67 7.76.5 3.75 2.08 9.45 2.08 9.45s.1-.86.57-2.1c.48-1.26 1.25-2.68 1.86-4.23.6-1.56.4-1.82.4-1.82s-2.2-10.6-2.8-15.6c-.58-5-1.5-18.18-1.5-18.18-3.25 3.26-5.66 11.84-6.1 19.95-.3 6.12.68 11.77.96 14.07.57 4.53 1.36 8.07 2.55 10.55zm-7.18 16.73c.1-2.4.66-4.22 2.2-4.75 0 0-1.36-2.4-2.56-5.82-.82-2.35-1.5-5.35-1.84-7.66-.85-5.68-1.52-11.53.17-1.95 1.68 9.57 3.7 12.96 3.7 12.96l2.47 4c-.36-1.76-.42-3-.33-4.9.1-1.92.34-4.5.92-6.56 0 0-2.96-5.93-4.82-13.06-1.86-7.12-2.93-13.6-2.97-17.46-.17-3.74-.25-5.18-.25-5.18s-3.05 2.3-4.06 13.9c-1.02 11.62 2.03 22.73 3.55 26.97 1.54 4.24 3.82 9.5 3.82 9.5zm33.24 88.6s-.48-.35-1.92-1.26c-1.44-.9-1-3.65-1-3.65s-.4.3-1.45 1c-1.07.74-2.27 1.55-3.7 2.13-1.45.58-2.17.96-3.08 1.25-.92.3-.67-.1.1-.53.76-.43 1-.67 2.93-1.44 1.92-.77 5.76-4.14 5.76-4.14s-.9-.1-2.5-.15c-1.57-.04-3.6-.86-3.6-.86s-1.58 1.45-7.97 4.2c-6.4 2.74-11.82 3.46-11.82 3.46s.68 3.27 3.76 4.38c2.55 1.1 6.05 1.78 12.93.15 6.86-1.65 11.56-4.54 11.56-4.54zm8.42 6.55c.53-2.7-1-4.58-1-4.58s-.35.2-1.3 1.06c-.97.87-2.36 2.5-5.05 3.85-2.7 1.34-3.65 1.25-1.06-.15 2.6-1.4 6.4-5.34 6.4-5.34l-1.02-.38c-1-.4-2.74.28-9.94 4.6-7.2 4.35-11.43 4.5-11.43 4.5s3.22 3.9 11.96 3.6c8.75-.28 11.92-4.47 12.45-7.16zm16.53-3.14s-.95 1.35-2.25 2.2c-1.3.88-4.76 1.4-4.76 1.4s-.15.4-.82 1.26c-.68.87-2.17 2.94-3.7 4.04-1.54 1.1-3.94 1.83-4.1 1.54-.13-.3 1.4-.86 2.9-1.78 1.5-.9 2.83-2.6 3.84-3.75 1-1.17-.43-.98-.43-.98s-1.84.05-3.52-.1c-1.68-.14-1.35 0-1.83.83s-1.15 1.54-2.4 2.98c-1.52 1.76-2.97 3.36-4.42 5.1-.96 1.16-.24 1.5-.24 1.5s.42.72 4.32 1.15c2.4.27 5-.04 7.74-1.62 1.7-.98 3.45-2.54 5.23-4.5 4.65-5.1 4.4-9.28 4.4-9.28zm2.08 10.53c-.96 1.26-1.5 1.8-1.5 1.8s.68-2.08 1.26-3.04c.3-.5.64-1 .9-1.34-.66-1.45-1.2-3-1.58-4.68-.42 1.4-1.75 5.45-3.4 8.1-2.02 3.2-3.8 4.37-2.65 5.23 1.16.87 3.42 1.06 5.97-.2 2.46-1.2 3.17-3.3 3.52-5a24.77 24.77 0 0 1-1.22-2.1c-.32.2-.78.56-1.3 1.24z"/><ellipse cx="274.01" cy="158.625" fill="#d4af3a" rx="1.788" ry="1.638"/><path fill="#d4af3a" d="M270.25 155.53c1.63-.03 2.5-.8 4.3-.63 2.13.2 5 1.44 8.5 3.3 2.74 1.24 6.35 1.86 9.83.86.98-.28 1.94-.82 2.87-1.34 4.25-2.4 3.22-7.16 3.22-7.16-3.14 2.27-7 3.48-10.63 3.24 0 0 .28.2.9.82.6.62 1.74 1.34 1.37 1.66-.37.3-1.9-1.18-3.22-2.14-1.3-.96-3.22-2.27-6.5-3.23-3.3-.96-7-1.02-9.48.35-2.47 1.38-2.67 3.1-2.33 3.8.2.37.64.5 1.18.48zm46.2 34.67c-.74-.2-2.05-.4-3.76-2-1.73-1.58-5.84-6.12-6.32-6.94-.48-.83-.28-1.6.9-2.07 1.15-.5 1.98-2 1.98-2s-2.54-.97-4.25-2.2c-1.7-1.24-5.7-4.82-6.24-5.72-.55-.9-.27-1.03.55-1.3.84-.28 1.04-.83 1.04-.83s-1.85-1.17-3.56-2.54c-1.72-1.37-4.05-3.64-4.05-3.64-2.57 1.03-6.6.6-8.78.2-3.84-.68-6.65-2.26-6.65-2.26s-.14.62-.62 1.8c-.48 1.15-2.26 1.84-4.05.67-1.78-1.17-1.37-3.7-1.37-3.7s-1.44-.9-4.4-2c-2.94-1.1-5.34-1.25-7.74-.14-2.4 1.1-3.57 4.4-3.57 6.88 0 2.48 1.3 1.45 1.58 1.1.28-.34.83-2.13 3.84-2.6 3.02-.5 5.77.95 9.2 3.77 3.42 2.83 4.18 3.03 5.9 4.82 1.7 1.78.34 2.74-2.6 3.7-2.96.97-6.73-.96-6.87-.9-.57.3 1.27 2.92 3.8 3.9 2.56 1 5.8.36 8.34-.66 1.7-.68 2.03.03 2.54.55 2.78 2.92 3.5 5.67 3.97 9 1.43-.43 2.4-1.85 2.6-3.02.1-.56.28-1.8 1.24-.9.95.9 1.7 5.85 1.7 8.12s-.68 5.3-.68 5.3l.7-.07c.4-.07 1.22-.55 2.32-1.16 1.1-.63 1.17.06 1.17 1.3s.42 3.58 2.07 7.78c1.64 4.2 4.04 5.57 4.04 5.57s.5-.83.97-2.48c.48-1.65.83-4.88.83-7.7 0-2.82-.76-8.88-.76-8.88s3.43 4.2 7 5.23c3.57 1.02 7.13.4 8.64-1.32 1.5-1.72.13-2.47-.62-2.68zM293 201.06s-1.08 2.4-1.67 3.25c-.6.86-.86 1-.86 1s1.1.9 2.66 1.4c1.58.5 3 .8 3 .8s-1.78-2.44-2.4-4.14c-.63-1.7-.73-2.3-.73-2.3zm21.42-1.4a71.58 71.58 0 0 0-.85-2.1c-2.2.43-6.34-.6-8.15-1.7 0 0 1.65 3.36 3.3 4.5 1.63 1.16 1.86 1.23 1.86 1.23s-1.64.25-3.84-1.92c-2.2-2.16-3.2-4.66-3.2-4.66s.5 5.78-.38 9.32c-.9 3.55-1.1 4-1.1 4s4.67.83 9.86-.6c5.2-1.46 5.58-1.92 5.58-1.92s.63-.16-.2-1.25c-.8-1.08-2.36-3.57-2.88-4.92z"/><path fill="#b96b29" d="M305 186.96c-1.6-1.83-1.75-2.27-1.75-2.27s-.56.54-.1 1.34c.5.8 2.77 2.8 4.32 3.67a11.1 11.1 0 0 0 3.1 1.17l-.07-.32s-3.9-1.76-5.5-3.6zM298.67 199s-.4-7.26-.4-8.33-.68-.8-.68-.8l-.8.36 1.56 10.6c.17 1.16.73 1.06 1.02 1-.57-.3-.7-2.5-.7-2.83zm-9.8-31.42c-.6-.6-1.92-1.03-.64.4 1.3 1.43 2.97 3.2 3.46 4.7.48 1.47.78 3.3-.06 2.9-.84-.4-1.43-.4-2.32-1.14-.9-.74-2.57-1.97-3.26-2.17-.7-.2-1.92 0-.93 1.1.98 1.07 2.07 2.1 3.95 3.5 1.87 1.37 2.96 1.97 3.94 2.66a36.88 36.88 0 0 0 1.98 1.28s-.9-5.9-2.52-8.53c-1.63-2.6-3-4.1-3.6-4.7zm-32 99.22c-1.2.92-2.78 1.3-2.78 1.3s-.76-.05-.76.24.87 0 1.78-.16c.9-.17 2.16-1.08 2.6-1.42.47-.33 1.13-.74.93-1.33-.2-.58-.58.46-1.78 1.37zm10.33 5.54c-.25.3-2.24 1.78-2.24 1.78s-.62.42-1.3.67c-.65.24-.82.6-.82.6s.13.18.83-.03c.7-.2 2.78-1.66 3.45-2.24.66-.6.95-.75.7-1s-.37-.08-.62.2zm-41.9-74.44c.38.45.83 1.07 1.04.86.2-.2-.05-.4-.54-1-.5-.57-.78-.86-.78-.86s-.7-1.1-1.12-1.53c-.4-.4-1.03-.62-.25.33.8.96 1.28 1.74 1.65 2.2zm-3.18 6.97c.46.4.87.78 1.36 1.32.5.53.87 1.1 1.16.82.3-.3-.74-.9-1.2-1.5a7.5 7.5 0 0 0-1.4-1.4 9.96 9.96 0 0 0-1.28-.82s.9 1.16 1.37 1.57zm1.2 11.26c.78.83 1.94 1.08 2.1.75.17-.33-.08-.6-.74-.93-.66-.33-1.73-1.03-2.27-1.4-.52-.37-1.06-.8-1.43-1.16-.37-.38-.8-.7-.95-.6-.14.14 1.1 1.46 1.46 1.67.38.2 1.04.83 1.83 1.66zm2.27 9.02c0-.33.07-.5-.6-.54a26.86 26.86 0 0 1-1.57-.15s-1.28-.5-1.37-.25c-.08.25 1.08.75 1.58.83.5.08 1.12.25 1.4.4.3.18.55.05.55-.28zm.98 9.8c-1.4 0-2.6-.34-2.7-.13-.08.2.67.54 1.37.8.7.24 2.04.32 2.95.36.9.04 1.08-.16 1.04-.62-.05-.46-1.25-.42-2.66-.42zm11.04 10.72c-.2-.2-.7-.04-1.5.12-.78.16-2.07.4-2.8.37-.76-.04-2.38-.08-2.38-.08l-.9.2c0 .2 1.2.16 2.93.37 1.75.2 2.9-.17 3.74-.3.84-.12 1.13-.5.92-.7zm4.56 7.63c-.87.34-1.5.42-2.16.42-.66 0-2.24.3-2.24.3s-.74.07-.62.36c.12.3.37 0 1.04-.08.66-.08 1.16 0 2.32-.04s1.82-.33 2.53-.46c.7-.12 1.5-.5 1.12-.95-.37-.46-1.12.12-2 .45zm8.88 5.78c-.5.5-2.4 1.8-2.4 1.8s-.38.28-1.13.65c-.74.37-.7.54-.58.75.13.2.58-.3 1-.46.4-.17 1.78-1.08 2.5-1.66.7-.58 1.6-1.04 1.44-1.45-.18-.4-.34-.12-.84.38zm-14.78-74.78s.17.38 1.7 2.3.7.1.33-.38c-.37-.5-2.62-3.67-3.38-4.54-.77-.88-.88-.44-.5.1.4.55 1.86 2.52 1.86 2.52zm-3.22 9.84c.22-.2-.28-.43-1.15-1.53-.87-1.08-2.62-3.32-2.62-3.32s-.5-1.04-.65-.94c-.17.1.6 1.75 1.3 2.47.72.72 1.65 2.1 2.14 2.7.5.6.77.86 1 .64zm4.24 18.45c0-.54-1.73-.46-2.5-.63-.8-.16-2.2-.45-2.2-.45s-1.65-.3-1.7-.08c-.03.2.34.4 1.25.58.9.16 2.27.57 3.3.74 1.03.16 1.85.37 1.85-.17zm-4.24-9.97c1.15.93 1.9 1.37 2.52 1.7.6.33 1.1.82 1.42.44.33-.4-.27-.66-1.26-1.1-.98-.43-1.48-.82-1.48-.82s-.54-.27-1.04-.54-1.3-.6-.16.33zm9.9-6.57c-.7-.6-1.3-.93-1.3-.93s-.9-.82-1.05-.55c-.16.28 1 1.1 1.54 1.6.55.48 1.53 1.9 2.02 1.63.5-.26-.5-1.13-1.2-1.74zm-6.47 25.7s-.96.26-1.58.43c-.62.16-.67.45.46.45 1.12 0 1.57-.3 2.7-.5 1.1-.2 1.5-.34 1.32-.7-.17-.38-.75-.26-1.2-.13-.46.12-1.7.45-1.7.45zm1.73 9.33c-.08.2.8 0 1.37-.22.58-.2 1.8-.83 2.5-1.04.7-.2.7-.33.7-.74 0-.42-.75-.1-1.66.2-.9.3-2.08 1.2-2.08 1.2s-.74.38-.83.6zm12 5.63c.82-.5 1-.87.7-1.12-.3-.24-.54-.2-1.2.34-.67.54-1.96 1.45-1.96 1.45s-.66.24-1.16.5c-.48.24-1.1.66-.94.9.16.25 1.2 0 1.74-.45.54-.46 2-1.12 2.82-1.62zm5.64 7.48c.34-.28 1.33-.6 1.8-.94.44-.33.74-1.33.36-1.45-.37-.12-.58.42-1.37 1-.8.58-3.48 2.37-3.48 2.37l-.7.3c-.75.28-.42.5.2.4.62-.08 1.04-.08 1.78-.66.75-.57 1.08-.7 1.4-1zm8.37 7.1c.7-.28 1.75-1.2 2.25-1.65.48-.46 1.1-1.04.73-1.33-.37-.3-.78.08-1.37.62-.58.54-2.1 2.16-2.1 2.16s-.22.04-1.05.7c-.82.67.05.55.34.26.3-.3.5-.46 1.2-.75z"/><path fill="#d4af3a" d="M295.22 143.5l3.15 1.38 3.38-2.4-3.98-1z"/><ellipse cx="309.17" cy="142.074" fill="#b96b29" rx="3.219" ry="3.103"/><ellipse cx="309.17" cy="141.417" fill="#d4af3a" rx="1.942" ry="1.855"/><path fill="#d4af3a" d="M302.45 131.4c.83.32 1.9.18 1.9.18s.33-1.42-.46-2.12c-.8-.7-1.5-1.2-1.97-1.66-.46-.46-.58-.62-.58-.62s0 1.24-.06 2c-.06.78.32 1.92 1.15 2.23z"/><ellipse cx="304.16" cy="132.975" fill="#d4af3a" rx=".591" ry=".559"/><path fill="#d4af3a" d="M299.76 132.38c-.25.34-.78.9-.78.9s.65.02 1.2.4c.53.4 1.22.72 1.86.64.63-.08.9-.67.77-1.1-.13-.42-.44-.86-1.48-1.25-1.04-.38-1.3.06-1.56.4zM302 136.13c-2 .18-4.68-2.05-4.68-2.05-.25 1.8-1.36 2.73-3.06 3.07l.16.08s1.58.8 3.45 1.1c.84.12 1.6-.03 2.5-.2 1.1-.23 2.33-.54 3-.95 1.2-.76.85-2.7.85-2.7s-.18 1.47-2.2 1.65zm-7.86-2.02c-.83-.3-2.08-.9-2.6-.93-.5-.03-1.27-.16-1.14.8.13.97 1.12 1.44 2.08 1.46.96.03 1.45-.34 2.02-.62.57-.28.47-.38-.36-.7zm-6.33-3.43c-.9-.65-1.7-.83-1.7-.83s-.6 1.56-.26 2.52c.34.97 1.04 1.22 1.9 1.2.85-.03 2.12-.47 1.75-1.12-.37-.65-.78-1.12-1.7-1.77z"/><ellipse cx="288.635" cy="135.061" fill="#d4af3a" rx=".699" ry=".504"/><path fill="#d4af3a" d="M290.57 127.3c-.56-2.66-.47-5.56 2.06-9.25 2.52-3.7 6.9-5.18 6.9-5.18s.15-.28 1.55-1.77c1.4-1.5 4.25-3.36 4.25-3.36s-3.3.8-5.2 1.4v.1c0 1.3-1 2.32-2.25 2.32-.48 0-.92-.15-1.3-.4-1 .2-4.4 2.22-5.28 2.94.22.36.35.77.35 1.22 0 1.28-1.02 2.3-2.27 2.3-.38 0-.73-.08-1.04-.25a9.6 9.6 0 0 0-.3.5 23.36 23.36 0 0 0-1.6 3.7c.57.4.95 1.16.95 2.02 0 1.26-.87 2.3-1.93 2.3-.07.74-.06 1.27-.04 1.5.1.74.38 1.2 1.68 1.58 1.32.37 3.1 2.66 3.1 2.66.12 0 1.06-1.68.37-4.34zM298.6 110.26c.5-.4.57-.98.2-1.32-.38-.34-1.08-.3-1.55.1-.48.38-.56.97-.18 1.3.37.35 1.07.3 1.54-.08zm-8.45 5.7c.54-.47.63-1.2.2-1.64-.42-.43-1.2-.38-1.74.1-.53.5-.62 1.24-.2 1.67.43.4 1.2.36 1.75-.12z"/><ellipse cx="285.11" cy="123.163" fill="#d4af3a" rx="1.306" ry="1.284"/><path fill="#d4af3a" d="M313.3 105.03c-.67.14-1.92.55-3.8 1.54h.04c1.3 0 2.3.83 2.3 1.9.02 1.1-1.17 2.27-2.47 2.27-1.3 0-2.2-1.14-2.2-2.22 0-.25.06-.5.17-.72-.56.34-1.15.72-1.78 1.15-4.16 2.8-5.14 4.16-7.2 7.98-2.05 3.83-2.8 8.03-1.9 10.5.88 2.48 4.15 3 4.2 3 .04 0-.38-.38-.43-.84-.04-.48.1-.7.24-1.65.14-.93.04-2.05.04-2.05s.76-.1 1.18.42c.42.5 1.03 1.12 1.45 1.63.42.52 1.54 1.5 1.54 1.5s.65-.94.65-2.06c0-1.13-.74-2.34-.88-4.3-.15-1.97.88-5.47 2.8-8.03 1.9-2.57 5.5-4.9 6.58-5.42 1.07-.5 1.26-1.3 1.3-1.78.05-.46.15-.8.24-1.96.1-1.15-.98-1.1-2.05-.87zM309.2 109.46c.72 0 1.4-.66 1.4-1.27 0-.62-.58-1.08-1.32-1.08-.73 0-1.33.5-1.33 1.1 0 .6.5 1.24 1.24 1.24zm6.17 24.4c1 .42 2.13.2 2.66-.16.53-.36.7-1.27.08-1.8-.62-.5-1.55-.5-2.14-.16-.58.32-1.9 1.24-1.9 1.24s.3.5 1.3.9zM318.57 135c-.36.56-.62.9-1.74.94-1.1.05-2.32-.02-3.04-.75-.74-.73-1.25-1.75-1.25-1.75l-1.25-.03s-.4 1.75-.97 2.23c-.56.5-2.5.56-3.34-.07-.85-.63-1.63-1.4-1.77-1.3-.14.1 0 .72.87 1.47s1.47 1.2 2.88 1.2h7.97s1.62.1 2.08-.86c.46-.98.48-1.6.27-1.83-.22-.24-.36.17-.73.73zM306.44 133.65c1.2.66 1.86.26 2.3-.28.43-.53.5-.78.5-.78s-1.12-.4-1.67-.74c-.55-.32-.92-.63-1.47-.56-.55.06-.63.14-.63.14s-.23 1.54.97 2.2z"/><ellipse cx="300.665" cy="121.86" fill="#b96b29" rx="2.662" ry="2.639"/><path fill="#b96b29" d="M305.3 112.72c-1.08-.72-2.64-.43-3.5.63-.88 1.08-.7 2.53.36 3.24 1.06.7 2.63.42 3.5-.64.86-1.07.7-2.52-.38-3.24z"/><ellipse cx="300.56" cy="121.518" fill="#d4af3a" rx="1.546" ry="1.474"/><path fill="#d4af3a" d="M304.18 113c-.7-.18-1.54.16-1.9.76-.35.6.03 1.25.94 1.43 1.68.34 2.48-1.77.96-2.2zM263.5 319s-4.1 1.97-5.4 2.32c-1.3.36-1.6.36-1.6.36s-2.82 2.56-4.88 3.77c-2.16 1.27-4.64 2.2-7.12 2.46-3.2.36-12.04.26-16 .1-3.96-.14-6.42.82-8.13 2.73-1.7 1.9-2.1 4.68.06 6.8 2.15 2.1 4.56 1.05 5.36-.26.8-1.3.4-2.97.04-3.72-.35-.76.7-1 1.8-1.06 1.1-.06 2.97.1 4.67.34 1.72.25 4.73 1.26 6.03 1.96 1.3.7.55.8-.35.66-.9-.15-1.9-.5-3.5-1.1-1.6-.6-2.97-.9-3.97-.96-1-.05-.65.5-.44.85.2.35.75 1.2.9 1.6.15.4-.3 1.92-.3 1.92l.5.96s.6-.96.8-1.46c.2-.5-.05-1.46.15-1.9.2-.47 1.07-.47 1.72.3.65.74 1.4 1.65 1.75 3.56.35 1.9-.3 3.27-.3 3.27s.8.66.96 1.1c.15.46-.2 2.27-.2 2.27s.55.35 1.05-.7c.5-1.06 1.1-2.92 1.25-3.58.15-.66.6-1.87 1.4-.96.8.9 1.36 2 1.5 2.57.16.56.16 1 .16 1s1.8-1.75 2.4-2.76c.6-1 1.85-2.5 3.56-3.92 1.7-1.4 4.66-4.23 6.12-5.18 1.45-.96 5.16-2.97 6.32-3.67 1.15-.7 1.35-.76 1.55-2.72.2-1.97 1.16-3.72 1.6-5.08.44-1.37.55-1.86.55-1.86zm-65.77-73.72c-.03-.34-.7-1.5-.86-2.1-.17-.6-.77-.25-.77-.25s-1.3.74-2.28 1c-.97.28-1.1-.1-1.2-.6-.1-.5-.34-2.07-.5-3.18-.17-1.1-.4-1.04-.8-.87-.4.17-1.6.6-2.45.97-.83.37-.56.77-.3 1.24.27.46 1.24 2.44 1.67 3.14.44.7.04 1-.47 1.25-.5.22-1.23.32-2.24.65-1 .34-.93.57-.83.9.1.35.77 1.72 1.13 2.36.37.64.7.2.7.2s1.08-.96 1.98-1.4c.9-.43.98-.3 1.2.37.25.67 1.3 4.2 1.48 4.86.2.67.54.6 1 .4.48-.2 1.1-.3 1.65-.46.53-.17.73-1.24.73-1.24s-1.97-3.56-2.5-4.46c-.54-.9 0-1.1.4-1.18.4-.07 1.57-.24 2.57-.48 1-.25.72-.82.7-1.17zm22.3 96.57c-.16-.86 0-1.7-.66-2.37-.65-.65-1.45-1.96-1.75-3-.3-1.07.25-1.57.15-2.18-.1-.6-.9-.6-1.7.06-.8.65-1.86 1.25-1.86 3.16 0 1.9.7 4.18 3.37 4.98 2.65.8 2.6.2 2.46-.64zm2.7-.92s-.56-.35-.8.16c-.26.5-.2.74.5 1.85.7 1.1 1.15 1.36 1.95 1.86s.25-.5.15-.8c-.1-.3 0-.7-.2-.95s-.3-.56-.3-1.36-1.3-.76-1.3-.76zM225.98 350c.5-.76.95-.96 2.16-1.5 1.2-.57 3.4-.87 4.16-.92.75-.05 2.46-1.5 2.2-3.02-.25-1.5-1.35-2.1-2.3-2.3-.95-.22-1.8-.22-2.1.24-.3.45-.86 1.05-1.9 1.4s-1.22.7-1.87.9c-.65.2-.15.62-.7 1.07-.55.45-1.3 0-2.16-.25-.85-.26-.9-.4-1.85-.46-.96-.05-3.46-.2-3.46-.2s-.1-.05-.66-.05c-.55 0-.6.1-.85.72-.25.6.05 2.1.65 2.86.6.76 2.56 1.1 3.86 1.5 1.3.4 1.96.57 3.07.77 1.14.2 1.3-.02 1.78-.77zm12.2 1.2c1.05-.7.44-1.92.2-2.67-.25-.76-1.7-.9-2.46-.9s-1.16 0-1.56.34c-.4.35-.95.86-2.05 1.2-1.1.36-1.95.77-3.46 1.37-1.5.6-1.95 1.6-2.6 2-.66.42-1.9 0-1.9 0s-.9-.24-1.2 0c-.3.26 0 .77.6 1.42.6.66 1.74.6 3.05 1 1.3.4 1.54.1 2.04-.24.5-.35.9-1.1 1.8-1.66.9-.56 2.87-.66 3.82-.76.98-.1 2.7-.4 3.74-1.1zm0-4.58c.44.4.95.96 1.35.3.4-.65 1.05-2 .6-2.8-.45-.82-1-1.52-1-1.52s-.75 2.3-1.1 2.9c-.34.63-.3.72.16 1.12zm-4.07-6.95c0-1.3-.9-2.9-.9-2.9s-.3 1.2-.84 2.25c-.56 1.06-1.1 1.6-1.1 1.6s1.3.36 1.8.36 1.06.02 1.06-1.3zm-7.5 2.78c1.4-.3 2.15-.85 2.75-1.36.6-.5.96-1.87.55-2.57-.4-.7-1.4-1.46-1.8-1.46h-.75s-.4 1.3-.96 1.96c-.56.66-1.2 1.1-1.16 1.96.05.83-.06 1.73 1.35 1.43zm2.85-6.4a2.4 2.4 0 0 0-.66-1.8c-.46-.45-.76-.75-.76-.75s-.1 1-.2 1.56c-.1.55-.15.65-.15.65s.4.4.74.56c.35.14.95.45 1-.2zm-17.34-35.68l.95-5.92c-.7-5.93-3.8-11.54-6.24-15.4-2.44-3.9-4.97-9.97-6.08-13.2-1.1-3.25-1.84-7.7-1.84-10 0-2.34 1-3.53 1-3.53s.42-.63.02-1.03c-.4-.4-1.03-.04-1.66.58-.63.63-1.3 1.8-1.55 2.63-.28.84-.28 1.14-.28 1.14s-1.25-.3-3.27-.14c-2.02.17-2.98.34-3.05.77-.06.43.27.76 1.72 1.4 1.46.62 2.4.9 3.1 1.75.74.86 2.6 5.2 3.17 7.3.56 2.08 1.78 7.76 2.27 12.2.5 4.47 2 9.87 4.1 14.37.7 1.48 4.45 8.5 7.63 7.1zm3.68 10.44c-1.37.78-1.32 6.4-.7 9.3.6 2.9 3.44 6.53 4.3 7.5.88.96 1.08.96 1.54.7.46-.24.66-.24.66-.24s1.22-.4 2.13-1.13c.93-.7.57-2.5.42-4.08-.16-1.58-1.37-4.74-3.6-8.4-2.23-3.7-3.36-4.4-4.72-3.64zm1.5-4.53c0-1.83-1.57-3.2-3.4-3.2-.86 0-1.62.2-2.1.63-1.84 1.67-.73 5.83 1.95 5.83.97 0 2.1-.16 2.8-.83.63-.58.77-1.56.77-2.43zm26.53 52.7c-.72-.12-1.15-.42-2.22-1.15-1.08-.73-2.8-2.24-3.1-2.97-.3-.73-.3-.78-1.34-.43-1.03.34-2.5.3-3.6.34-1.13.05.12 1.3.9 2.46.77 1.16.5 5.08.5 5.08s0 .34-.17.9-.04.95.26 1.08c.3.13.47-.13 1.25-1.04.78-.9 2.2-3.26 2.2-3.26s.2.04 1.42.34c1.2.3 3.14.13 4.13-.17 1.02-.3.54-1.04-.2-1.17zM239.2 362c-.5-.08-.72-.12-.98.22-.26.35-.47 1-.6 1.34-.13.34-.1.65.2.9.32.26.75.56.75.56s.43.48.86.7c.43.2.5-.44.5-.9 0-.5.27-1.35.27-1.9s-.45-.83-.97-.9z"/><path fill="#1d5e91" d="M434.93 324.17c-1.26-.3-1.8-.78-1.8-.78s-.53-.07-.95.7c-.42.78-2.03 1.8-2.03 1.8s-2.28.6-2.58 2.16c-.3 1.55.78 2.1 1.86 1.9 1.08-.17 3.7-.7 4.84-2.08 1.14-1.38 1.32-2.16 1.56-2.7.2-.52.34-.7-.92-1zm3.52-12.4c-.8-3.45-3.05-7.73-7.35-9.87 0 0-1.62 5.7-2.1 7.48-.48 1.8-.48 1.74.9 2.1 1.37.35 5.8 1.3 6.7 1.55.9.24 2.4 1 1.86-1.27zm-20.52-3.22c1.02.18.9-.24 1.26-1.6.35-1.4 2.14-8.2 2.14-8.2s-4.54-.2-8.5 1.72c-3.94 1.92-5.67 5.45-5.67 5.45s1 .42 3.7 1.02c2.7.58 6.05 1.42 7.07 1.6zm-10.53 9.4c-1.6-.3-2.2-.5-2.2-.5s1 3.9 2.7 6.05c1.66 2.16 3.52 3.24 6.98 3.3 3.47.05 6.1-1.86 6.52-3.36.42-1.5 1.14-2.63 1.14-2.63s-6.28-.83-8.85-1.42c-2.62-.6-4.7-1.14-6.33-1.44z"/><path fill="#d4af3a" d="M406.32 315.48c1.56.36 14.36 2.8 15.44 3.05 1.08.24 1.97.48 2.27.18.3-.3.48-.47 1.62-.9 1.14-.4 1.08-1.54 1.08-1.54s.3-1.08.4-2.16c.14-1.07.73-1.43 2-.12 1.25 1.32 1.5 3.23 1.72 5.1.24 1.84 3.17 2.32 4.3 2.5 1.15.18 1.68-.18 2.34-1.26.65-1.07 1-3.23 1.2-4.6.17-1.38.05-1.26-1.38-1.62-1.44-.35-8.08-1.85-9.28-2.15-1.2-.3-.96-1.08-.78-1.9.18-.85 2.8-9.3 2.8-9.3-1.86-1.15-4.5-1.84-7.64-2.2 0 0-1.92 8.6-2.28 9.93-.35 1.3-1.2 1.3-2.57 1.07-1.37-.23-11.3-2.56-11.3-2.56l-.78 1.84c-.8 1.85-1.15 4.07-1.15 5.2 0 1.14.4 1.1 1.95 1.46zM440.3 323.26c-1.32-.86-2.3-1.1-2.98.52-.7 1.6-.74 3.96-2.46 5.62-1.72 1.67-4.13 3.4-6.53 3.22-2.4-.18-3.78-.75-3.2-3.5.56-2.76 4.23-3.62 5.1-5.05.85-1.43.62-3.1-.64-4.2-1.27-1.08-3.1-1.3-3.62-.96-.5.35-2 1.6-2.75 3.68-.74 2.06-1.2 3.73-2.8 5.05-1.6 1.3-5.73 2.63-8.94 1.9-3.22-.76-4.36-1.73-5.56-4.9-1.2-3.14-2.64-8.36-3.27-8.94-.63-.58-1.43-1.04-2.8-.06-1.38.97-1.5 2.4-1.67 3.55-.17 1.14 0 2.46 1.38 4.13 1.37 1.66 2.8 3.32 3.32 5.04.52 1.72 2.06 4.36-.1 4.47-2.2.12-3.16.18-4.82-1.43-1.67-1.6-8.14-6-9.9-7.45-1.8-1.43-2.53-1.9-2.53-1.9-3-.04-6-1.27-9-3.3 0 0 1.73 4.4 2.07 6.06.34 1.68.28 2.6.28 2.6s6.53 3.32 9.1 4.58c2.6 1.26 7.8 4.25 10.32 5.8 2.52 1.55 4.64 3.95 9.1 3.04 4.47-.92 13.52-3.67 16.44-4.54 2.92-.86 11-2.86 13.97-4.93 2.98-2.06 3.27-1.95 3.78-4 .52-2.04 0-3.18-1.3-4.05zm-17.23-30.88c.5-.07.7-.13 2.2-.33 1.54-.2.97 1.26.7 1.82-.26.57-.72 1.7-1.35 2.75-.63 1.07.2 1.23.63 1.4.43.17 1.06.23 2.28.56 1.23.33 1-.56 1.03-1.03.04-.46.1-2.88.23-3.74.13-.85.92-.62 1.22-.46.3.17 1.06.6 1.7.93.62.33.9-.04 1.05-.4.13-.36.43-1.03.7-2 .26-.95-.34-.75-.93-.75-.6 0-1.46 0-2.45-.04-1-.03-.38-1-.38-1s.73-1.18 1.3-2.08c.56-.9.36-1.03-.2-1.2-.57-.16-2.32-.56-2.82-.7-.5-.12-.73-.06-.73.28s-.07 2.05-.07 2.7c0 .68-.06 1.07-.92 1.1-.86.04-1.4-.46-2.1-1.22-.7-.76-.98-.46-1.05-.16-.07.3-.63 2.48-.76 3.08-.17.58.16.55.66.48zm4.8 21.73s-.07 1.75-.24 2.35c-.18.6-.6 1.5.12 1.73.7.24 1.37.54 1.8.42.4-.12.23-.96 0-1.67-.25-.72-.6-1.62-1.15-2.22l-.52-.57zm10.53 6.94c.24.54.7.66 1.07.78.36.12.84.12.84-.53s.13-1.5-.4-2.23c-.54-.72-.83-1.24-1.14-.18-.32 1.07-.6 1.63-.36 2.15zm-36.68-7c.3.07 1.43.43 1.43.43s0-1.67.24-2.8c.23-1.14.7-1.92.3-1.92-.42 0-.66.36-.97.83-.3.48-1.13.6-1.43 1.98-.3 1.36.12 1.42.42 1.48z"/><circle cx="408.905" cy="311.175" r="2.334" fill="#b96b29"/><circle cx="415.475" cy="312.795" r="2.392" fill="#b96b29"/><circle cx="434.63" cy="316.86" r="2.394" fill="#b96b29"/><circle cx="422.06" cy="314.355" r="2.394" fill="#b96b29"/><circle cx="423.8" cy="308.61" r="2.394" fill="#b96b29"/><circle cx="425.48" cy="302.865" r="2.394" fill="#b96b29"/><circle cx="409.07" cy="310.95" r="1.165" fill="#d4af3a"/><circle cx="415.655" cy="312.555" r="1.197" fill="#d4af3a"/><circle cx="434.81" cy="316.62" r="1.196" fill="#d4af3a"/><circle cx="422.24" cy="314.115" r="1.196" fill="#d4af3a"/><circle cx="423.98" cy="308.37" r="1.196" fill="#d4af3a"/><circle cx="425.66" cy="302.625" r="1.197" fill="#d4af3a"/><path fill="#d4af3a" d="M349.53 359.1c-1.26-.8-2.36-1.67-5.22-3.57-2.85-1.9-3.9-4-3.9-4h1c.56 0 1.02-.77 1.06-1.53.04-.76 0-2.32-.2-4.14-.22-1.8.28-3.3.28-3.3s1.22 1.15 3.08 2.12c1.85.97 2.6.5 2.6.5l.47-1.85s.8 1.7 1.92 3.67c1.14 1.98 4.2 4.18 6.4 5.82 2.2 1.65 4.6 3.38 6.4 4 1.8.65.75 1.5.75 1.5s-1.8 1.8-6.48 2.65c-4.68.84-6.9-1.05-8.17-1.86zM333.2 357.3c1.66-.17 2.66-.8 2.98-2.62.2-1.18-.08-5.7-.08-5.7s.54.47 1.17 1.23c.64.77 2.07.94 2.07.94s.2.63.84 1.64c.63 1.02 1.43 2.24 3.03 3.25 1.6 1.02 3.46 2.2 4.68 3.2 1.22 1.03 2.65 2.2 4.25 3.1 1.6.88 3.03 2.3 3.57 4.68.55 2.37.13 3.13-1.72 3-1.85-.12-2.06.04-5.05-.72-3-.76-7.24-4.1-10.35-6.07-3.12-1.98-5.4-5.9-5.4-5.9zM324.9 360.03s1.28-1.6 1.74-3.42c.46-1.8 1.34-5.4 1.34-5.4s.43 1.15 1.44 3.3c1 2.15 2.73 2.66 2.73 2.66s.1.93 1.5 2.74c1.45 1.82 3.55 3.5 5.7 4.77 2.14 1.27 4.92 3 6.43 5.15 1.52 2.15 1.64 4.4.93 5.36-.7.97-1.72-.13-3.15-.85-1.43-.7-5.5-1.35-11.15-4.38-5.63-3.04-7.5-9.92-7.5-9.92zM322.47 372.66c-1.56-2.32-1.8-7.97-1.8-7.97s.53-.4 1.3-1.03c.75-.63 2.22-2.87 2.22-2.87s.92 1.94 1.93 3.76c1 1.82 1.5 2.45 3.62 4.4 2.1 1.93 4.96 3.83 6.18 5.9 1.22 2.06.55 6.2-.25 7.6-.8 1.4-1.94.92-3.1-.22-1.2-1.14-1.57-1.43-3.63-3.2-2.06-1.78-4.93-4.06-6.48-6.38z"/><path fill="#b96b29" d="M340.98 325.33c-.83-1.7-1.77-3.74-2.52-4.78a14.9 14.9 0 0 1-1.3-2.23s2.02 1.83 2.8 3.13c.8 1.3 1.3 2.55 1.67 3.96.36 1.4.18 1.62-.65-.07zm-8 1.44c-.32-1.1-.5-1.86-.5-1.86s-.33-1.07-.15-1.14c.18-.07 1 .67 1.6 2.5.56 1.84 1.43 4.5 1.25 4.6-.18.12-1.87-2.97-2.2-4.1zm-6.3 5.07c-.36-.8-.36-.82-.36-.82s-.65-2.1-.65-2.52c0-.43.22-.94.76.14s.58 2.12.68 2.6c.12.46.73 2.08.55 2.23-.18.14-.6-.83-.97-1.63zm19.56 19.2l.85-.5s.5.67 1.2 1.43c.72.76 1.52 1.06 2.07 1.78a7.95 7.95 0 0 0 2.7 2.27c1.3.68 1.8.9 1.55 1.1-.26.2-1.14-.3-1.14-.3s-.38-.04-1.93-.96c-1.56-.93-1.94-1.44-2.95-2.32-1-.9-2.36-2.5-2.36-2.5zm-6.82 8.07c-.6-.62-1.22-1.04-.9-1.38.35-.34.77-.3 1.32.17.55.46 2.1 1.93 2.82 2.56.7.64 1.3 1.02 2.02 1.57.7.54 2.27 1.4 3.03 1.8.76.43.05.48.05.48s-.6-.3-1.22-.5c-.63-.2-2.44-1.02-2.44-1.02s-.73-.33-1.7-1c-.96-.68-2.4-2.03-2.98-2.66zm-7.86 5.46c-.5-1 .04-.72.88-.38.84.34 2.74 2.4 3.83 3.16 1.1.76 2.02 1.06 2.94 1.53.94.46.94.7.9.92-.04.2-.42.2-.8.04-.38-.17-1.7-.93-1.7-.93s-.53-.16-1.04-.2c-.5-.05-1.22-.6-2.35-1.57-1.13-.97-2.14-1.55-2.64-2.57zm-3.66 7.2c1.4.86 3.78 2.76 4.42 4.02.63 1.27 1.05 2.16.84 2.37-.2.2-.9-.2-1.18-.72-.3-.5-.93-1.27-.93-1.27s-2.4-2.36-3.28-2.9c-.88-.56-2.3-2.12-2.65-3.05-.33-.92-.08-1.42-.08-1.42s1.47 2.15 2.86 3z"/><path fill="#c52126" d="M364.96 169.92c1.28-.75 4.7-2.2 8.34-2.52 3.64-.3 6.45.24 9.47 1.06 2.17.58 3.92.67 5.65.2 2.6-.7 4.63-3.04 5.32-5.92 0 0 2.4 3.08-.06 6.42-1.18 1.6-2.72 2.62-4.28 2.93-5.1 1.02-10.1-2.1-14.35-2.36-4.08-.27-7.28 2.32-7.28 2.32s-.96.8-2.32 0c-1.36-.8-1.76-1.4-.5-2.14z"/><path fill="#d4af3a" d="M379.65 317.5s.5-.06 1.2-.16 2.2-.6 2.66-.8c.46-.2 1.16-.26 1.6.24.47.5 4.13 2.67 4.13 2.67h-6.07c-2.1 0-3.5-1.96-3.5-1.96zM362.56 316.45v-.6l.8-1.74s.96.6 1.88 1.55c1.18 1.23 2.45 2.96 3.02 3.68 1 1.3 2.42 2.52 1.2.45-1.2-2.07-1.6-2.96-2.57-4.34-.98-1.37-1.7-1.98-1.6-2.06.13-.1.9-.2 3.45-.53 2.54-.33 4.12-1.3 5.3-2 1.16-.68 3.26-1.8 3.26-1.8s4.33 1.8 5.95 2.22c1.62.4 2.6.65 1 1.42-1.56.76-2.9 1-3.66 1.48-.78.5-3.17 1.26-4.62 1.26-1.45 0-3.92.04-2.95 1.05.97 1 2.06 2.95 3.1 5.9 1.06 2.97 1.1 5.6 1.1 6.9 0 1.3-.16 2.6-.16 2.6s-1.78-2-6.55-5c-4.76-3-6.54-4-7.43-4.4-.9-.4-1.34-.4-1.18-1.55.16-1.13.64-3.93.64-4.5zM344.35 301.96a68.5 68.5 0 0 0 .9-.4c.07.02.14.05.2.08.57.28 3.48 2.24 4.65 4.14 1.17 1.9 2.35 2.07 1.06 0-1.28-2.07-2.24-3.24-3.24-4.14a23.4 23.4 0 0 0-1.02-.85c2.34-1.14 4.88-2.5 7.34-4.22.32.64.93 1.76 1.62 2.5 1 1.05 3.25 1.95 3.25 1.95s-1.78-1.85-2.4-3.25c-.4-.9-.65-1.85-.78-2.43 1.7-1.33 3.35-2.85 4.8-4.6.3 1.2 1.28 4.16 4.15 7.37 3.74 4.2 11.24 6.32 11.24 6.32s2.64.28.5.84c-2.1.56-3.62 1.5-7.76.78s-4.42-.9-4.98-1.06c-.56-.17-2.07-.06 0 .73 2.07.78 6.88 1.5 8.73 1.34 1.83-.17 4.35-.56 1.72.84s-3.75 1.97-5.37 1.97-2.3.5-3.86.5c-1.58 0-2.02-.28-3.14-.5-1.12-.22-1.85.16-1.85.6 0 .46 1.52 1.7 1.47 4.77-.06 3.07-.28 5.1-.56 5.98-.27.9-.95 2.35-1.4 3.2-.44.83-.6 1.67-1.05-.12-.45-1.8-1.46-4.36-1.85-6.1-.4-1.73-.61-1.8-.78-2.68-.17-.9-1.12-1.57-.67.05a133.43 133.43 0 0 1 1.28 5.15c.34 1.46 1.12 4.14-.22 2-1.33-2.1-6.37-7.76-7.2-8.77-.84-1-1.5-1.96-2.13-2.8-.62-.83-2.35-1.95-3.2-3.18-.75-1.12-2.97-3.28-3.93-4.06 1.43-.6 2.93-1.23 4.5-1.94zm69.54-129.12c-.14 3.1-3.55 8.98-5.5 12.13-1.93 3.16-2.47 4.43-2.14 4.63.34.2 1.14-1.4 2.2-2.8 1.1-1.42 3.16-4.7 4.9-7.18 1.74-2.48 4.28-8.38 4.6-8.92.35-.53.5-.87 1.35-.2.88.67 2.56 7.17.55 11.6-2 4.42-5.02 7.63-6.3 9.17-1.26 1.55-2.94 3.96-2.67 4.16.27.2.74-.4 2.28-2 1.54-1.62 4.08-4.37 5.75-6.38 1.37-1.63 3.2-4.94 3.86-6.13.24-.45.56-.33.8-.1.54.56 1.42 1.85 1.04 5.36-.54 4.9-3.08 7.7-5.35 10.2-2.28 2.47-4.55 4.54-4.22 4.88.34.34 2.68-1.74 4.28-3.28 1.62-1.54 5.57-5.36 6.44-6.44.87-1.07 2.14-.53 2.07 3.7-.06 4.2-4.74 8.5-6.68 10.85-1.94 2.33-4.35 3.74-4.15 4.2.2.47 2.14-.73 3.4-1.6 1.28-.87 6.04-3.96 6.97-4.63.94-.67 1.4.6.2 4.63-1.2 4.02-4.68 7.23-6.76 8.7-2.07 1.48-5.4 3.3-5.2 3.76.2.47 1.6-.13 3.53-1.07 1.95-.95 4.3-1.82 5.97-2.3 1.67-.46 1.67.74 1.67.74s.34 3.42-2.14 6.17c-2.48 2.76-5.3 3.83-7.96 4.3-2.68.47-3.08.6-3 1 .05.4.32.47.92.47.6 0 3.08.27 5.36.27 2.27 0 3.47.53 3.47 1.54 0 1 .06 2.35-3.35 4.62-3.4 2.28-7.23 2.62-8.83 2.95-1.6.34-1.67.47-1.34.94.33.46 1.07.4 3.6.66 2.56.27 4.1 1.28 4.43 1.95.34.68-.2 2.7-2.27 4.1-2.07 1.4-4.75 1.87-8.76 1.6-4.02-.27-5.02-.33-5.15.34-.14.67 1.2.87 3.2 1.2 2 .34 3.55.34 4.7 1.28 1.13.94.26 2.88-1.68 4.3-1.94 1.4-6.76 1.4-8.77 1.26-2-.13-5.08-.87-5.28-.34-.2.54 1.46 1.35 3.53 2.08 2.08.74 2.68 1.2 3.08 2.08.4.87.08 1.67-2.4 2.6-2.47.95-6.1.95-7.96.08-1.88-.87-2.88-1.2-3.2-.87-.35.35 0 .68.4 1.15.4.47 2 1.74 4.07 2.28 2.08.53 2.3.53 3.02 2.2.74 1.68-1.13 3.03-4.88 3.16-3.75.12-8.77-1.35-10.37-2.3-1.6-.93-2.2-1.13-2.48-.8-.28.34-.2.54.6 1.14.8.6 3.34 2.42 4.6 2.75 1.28.33 1.4 1.27 1.4 2.14 0 .87.35 2.6-3 3.42-3.34.8-7.3.2-10.9-2.35-1.17-.8-1.84-1.5-2.22-2.07.3-3.42.13-5.78-.28-7.94.7-.1 2.06-.3 3.44-.85 2-.8 2.8-2.68 3.27-3.68.48-1 1.15-1 1.96-.74.8.27 1.6.6 2.74.54 1.13-.07 3.54-.67 5.28-2.75 1.74-2.08 1.4-4.1 1.48-5.1.07-1 1.67-.26 2.47-.26.8 0 3.15-.34 5.3-1.8 2.13-1.5 2.13-3.5 2.33-4.3.2-.8 1.07-1.34 1.74-1.6.67-.28 1.74-.54 3.2-1.75 1.48-1.2 2.02-3.54 2.1-4.35.05-.8.92-.87 3.93-2.4 3-1.55 2.75-4.77 2.6-6.04-.12-1.26-1.52-2.33-1.52-2.8 0-.47 1-.6 2-1.2 1.02-.6 3.56-1.62 3.62-5.37.07-3.75-2.4-4.16-2.4-4.16s.47-.2 1.47-.8c1-.6 3.73-2.48 3.73-4.7 0-2.2-1-3.2-1.73-3.74-.74-.54-2.75-1.08-2.75-1.08s1.27-.8 1.8-2.54c.54-1.74.75-3.88-.52-5.42-1.28-1.54-3.42-1.54-4.56-1.54-1.13 0-2.14.6-2.54.27-.4-.33-.47-.6-.06-1.47.4-.87.46-3 .13-3.75-.34-.74-.4-2.2-3.28-3.15-2.88-.93-5.9 1-6.82 1.54-.94.54-.54-.74-.54-1.67 0-.94 1.94-3.28 4.15-6.64 2.22-3.35 3.22-5.1 5.7-10.18 2.47-5.1 4.08-11.66 4.4-13.34.35-1.67 1.02-.87 1.02-.87s.67.27 2.2 4.16c1.54 3.88 1.8 7.44 1.67 10.5zM363.42 241.38c1.72-.1 3.96-1.03 5.7-3.54 1.7-2.5 4.3-3.1 8.78-3.02 4.48.1 6.55-2.07 7.67-5.18 1.12-3.1-.17-6.65-4.74-8.9-4.57-2.24-6.64-4.74-6.8-8.62-.18-3.9 4.56-8.72 9.3-14.16 4.74-5.44 8.44-13.12 8.44-13.12s1.38 1.8 1.38 3.63c0 1.8-.7 3.7 0 4.22.7.5.95-.78 3.7-2 2.77-1.2 5-1.37 6.73.6 1.72 2 0 5.45-1.55 7.1-1.55 1.63-2.84 2.84-2.4 3.45.42.6 2.74-.95 3.52-1.47.78-.52 2.6-2.5 5.26-2.24 2.68.25 3.63 1.03 3.9 3.28.24 2.24-2.43 4.22-4.15 5.1-1.72.85-2.4 1.63-1.98 1.97.43.34.86 0 1.64-.27.78-.25 2.94-.5 4.3 0 1.4.52 3.63 2.42 1.57 4.75-2.07 2.33-6.38 3.2-7.24 3.37-.87.17-1.3-.1-1.38.6-.1.7 1.8.7 4.13.78 2.33.1 3.02 2.33 2.68 4.06-.35 1.7-4.23 3.6-6.38 3.96-2.16.34-2.93 0-3.1.6-.18.6.25.86 1.46 1.2 1.2.35 3.54.6 3.97 2.5.44 1.9.52 2.77-1.3 4.42-1.8 1.64-4.73 1.38-5.6 1.2-.85-.17-1.9-1.12-2.75-.25-.86.86.78 1.55 2.24 2.58 1.46 1.05 1.37 3.04-1.13 4.42s-5 .86-6.03.52c-1.03-.35-2.4-2-3.1-.95-.7 1.02 2.15 1.37 3.36 2.83 1.2 1.47.78 3.9-1.64 5.35-2.4 1.47-6.38.43-7.07-.17-.7-.6-1.55-.85-2.07-.33-.52.5.26 1.9.77 3.1.52 1.2 1.47 4.75-2.15 6.13s-6.9-1.72-7.5-2.33c-.6-.6-1.2-.7-1.72-.43-.52.26-.26.78.17 1.38.43.6 1.38 3.2-1.2 5-1.77 1.25-3.7 1.15-4.74.97-.54-2.03-1.24-4.2-1.96-7.2h.54c.35 0 .42.5.42.7 0 .22-.1.4.2.4.32 0 .35.16.8.48.45.3.86.68 1.1.5.25-.16-.93-.78-1.24-1.16-.3-.38-.93-.97-.97-1.38-.03-.42-.24-.66-.86-1.18a2.35 2.35 0 0 1-.47-.53 97.9 97.9 0 0 1-1.2-7.23 57.12 57.12 0 0 1-.44-5.46l1.12-.06zm73.66-53.8c-3.85 7.78-9.28 12.17-9.28 12.17s.7-1.94 1.03-3.27c.3-1.33.07-2.83.07-2.83s1.36-1.75 3.88-5.64c2.52-3.88 3.85-9.62 3.85-9.62s-2.34 5.74-4.16 8.8c-1.83 3.04-3.93 5.52-3.93 5.52s-.73-2.7-1.26-2.83c-.52-.14-.9.28-1.36.87-.46.6-.85.54-.85.54s.63-1.28 1.58-2.82c.44-.7 1.07-1.46 1.52-2.17 1.44-2.28 4.53-6.6 6.12-10.9 1.58-4.3 5.05-15.12 5.65-18.3.6-3.18 1.2-1.44 1.82.9.6 2.35 1.43 5.68.9 10.67-.53 5-1.73 11.12-5.6 18.9zm-4.98 21.02a135.86 135.86 0 0 1-3.55 2.5s.34-.78.55-1.72c.2-.94.3-2.87.3-2.87s1.7-1.47 2.87-2.5c1.17-1.02 2.65-2.35 5.58-5.98 2.92-3.62.57-1.45-1.8 1.15-2.4 2.6-6.95 6.38-6.95 6.38s0-.06-.03-.85a3.12 3.12 0 0 0-.7-1.9c-.42-.55-.2-.62 2.37-2.6 2.57-1.95 9.22-9.44 11.94-13.9 2.72-4.47 5.66-10.52 5.66-10.52s1.43 8.93-4 18.76c-5.44 9.83-10.8 13-12.24 14.07zm-28.53 56.3c-2.98-1.16-2.16-4.1-2.16-4.14 0-.05 1.84.58 3.52 1.2 1.68.63 5.8 1.83 7.45 1.88 1.63.05 1.63-.2 1.68-.43.05-.23-1.25 0-3.6-.43-2.36-.43-6.5-2.6-7.2-3.08-.73-.5-.64-.6.42-.68 1.06-.1 1.97-.58 2.35-.9.4-.35 1.5.13 4.18.76 2.7.62 8.27 1.58 12.55 1.58 4.27 0 8.26-.72 8.93-.86.68-.15 1.4.24-.67 3.7-2.06 3.47-9.3 5.35-14.36 5.3-5.04-.05-10.1-2.75-13.07-3.9zm13.4-7.16c-5.2.05-7.13-1.5-7.13-1.5s0-.26.7-1.32.57-2.87.57-2.87 1.25.22 3.4.53c2.17.3 4.7.62 7.47.13 2.78-.48 1.58-.78-.62-.52s-6.44-.53-7.8-1.02c-1.37-.48-.8-.92.12-1.24.93-.3 3.44-1.9 3.44-1.9s6.32.8 12.2.14c5.85-.67 9.56-2.17 10.75-2.34 1.2-.18 1.15.3 1.15.3s.3.54-1.72 3.7c-2.03 3.2-6 5.27-9.35 6.25-3.36.97-7.94 1.63-13.15 1.68zm1.35-12.2s.22-.3.53-1.36c.3-1.06-.58-1.86-.58-1.86s1.2-.35 5.08-.84c3.88-.48 4.1-.8 6.48-1.32 2.38-.53 3.97-1.24 3.93-1.5-.05-.27-.8.13-2.2.66-1.42.53-7.37 1.15-9.9 1.5-2.5.35-3.9.62-4.35.35-.44-.26-1.98-.66-1.98-.66s1.06-.3 2.38-.52c1.33-.22 2.52-.8 3.22-1.28.7-.5.93-.62 4.1-.97 3.18-.35 5.74-1.37 11.43-3.45 5.7-2.07 9.97-4.55 11.1-5.47 1.16-.92 1.07-.26.76.93-.3 1.2-.25 2.7-3.12 6.05-2.86 3.36-4.28 4.82-11.5 7.47-7.25 2.65-15.36 2.3-15.36 2.3zm21.4-17.6c-6.4 4.5-13.9 6.15-15.5 6.35-.35-.43.4-1.93.05-2.84-.4-1.1-1.1-1.1-2.65-1.2-1.54-.1-.53-.4-.17-.4.35 0 .44-.04 3-.7 2.56-.66 5.16-1.06 8.68-2.4 3.53-1.3 4.6-2.28 4.5-2.55-.08-.25-1.63.85-4.9 2.1-3.26 1.23-7.05 1.7-9.12 2.16-2.07.43-.26-.45.7-1.02.98-.58 2.35-2.7 2.35-2.7s2.3-.4 6.04-1.54c3.74-1.15 6.87-2.44 10-4.2 1.08-.6 2.12-1.4 3.24-2.2 2.15-1.54 4.3-3.1 5.15-3.72 1.27-.93.87-.18.74.4s-1.02 3.22-3.05 6.14c-2.03 2.9-2.7 3.8-9.1 8.3zm1.04-12.7c-6.3 5-11.73 6.54-12.66 6.94-.93.4-.84-.13-.66-.66.17-.53.3-2.25.3-2.25s2.26-1.28 4.77-2.74c2.53-1.46 5.3-3.44 7.16-4.72 1.85-1.28.75-1.2.17-.7-.57.48-3.13 2-5.68 3.58-2.56 1.6-6.44 3.88-6.44 3.88s-.08-.84-.6-1.37c-.54-.54-1.86-.4-1.86-.4s.66-.67 1.05-1.28c.4-.62 2.47-1.28 4.8-2.4 2.34-1.1 6.53-4.2 9.62-6.8 3.1-2.6 9.1-9.14 9.48-9.67.4-.53.66-.44.7.22.05.66.27 1.1-.4 4.1-.66 3.02-3.43 9.3-9.74 14.28zm-22.32-47.2c-.72 1.5-1.5 2.6-2.06 3.58-.86 1.46-1.34 2.4-1.34 2.4s-.17-.5-.03-1.38c.14-.88.28-2.1.04-3.55-.12-.8-.3-1.56-.25-2.25.04-.78.3-1.46.4-1.9.2-.86 1.12-4.53 1.56-7.13.44-2.6.9-6.3.88-9.6-.04-3.26-.5-1.6-.5-.02 0 1.6-.18 4.02-.68 7.76-.5 3.75-2.1 9.45-2.1 9.45s-.1-.86-.57-2.1c-.48-1.26-1.25-2.68-1.86-4.23-.6-1.56-.4-1.82-.4-1.82s2.22-10.6 2.8-15.6c.6-5 1.52-18.18 1.52-18.18 3.24 3.26 5.65 11.84 6.08 19.95.32 6.12-.67 11.77-.96 14.07-.56 4.53-1.35 8.07-2.54 10.55zm7.18 16.73c-.1-2.4-.65-4.22-2.2-4.75 0 0 1.37-2.4 2.57-5.82.8-2.35 1.48-5.35 1.83-7.66.84-5.68 1.52-11.53-.17-1.95-1.7 9.57-3.73 12.96-3.73 12.96l-2.45 4c.36-1.76.42-3 .32-4.9-.1-1.92-.33-4.5-.92-6.56 0 0 2.97-5.93 4.83-13.06 1.87-7.12 2.94-13.6 2.97-17.46.17-3.74.26-5.18.26-5.18s3.04 2.3 4.06 13.9c1 11.62-2.04 22.73-3.56 26.97-1.53 4.24-3.82 9.5-3.82 9.5zm-33.24 88.6s.48-.35 1.92-1.26c1.45-.9 1-3.65 1-3.65s.4.3 1.46 1c1.05.74 2.25 1.55 3.7 2.13 1.44.58 2.16.96 3.07 1.25.9.3.67-.1-.1-.53-.76-.43-1-.67-2.93-1.44-1.92-.77-5.76-4.14-5.76-4.14s.9-.1 2.5-.15c1.58-.04 3.6-.86 3.6-.86s1.58 1.45 7.98 4.2c6.4 2.74 11.82 3.46 11.82 3.46s-.68 3.27-3.75 4.38c-2.56 1.1-6.07 1.78-12.94.15-6.87-1.65-11.58-4.54-11.58-4.54zm-8.4 6.55c-.54-2.7 1-4.58 1-4.58s.33.2 1.3 1.06c.95.87 2.35 2.5 5.04 3.85 2.7 1.34 3.65 1.25 1.06-.15-2.6-1.4-6.4-5.34-6.4-5.34l1-.38c1.02-.4 2.75.28 9.96 4.6 7.2 4.35 11.44 4.5 11.44 4.5s-3.22 3.9-11.97 3.6c-8.73-.28-11.9-4.47-12.43-7.16zm-16.54-3.14s.96 1.35 2.26 2.2c1.3.88 4.75 1.4 4.75 1.4s.15.4.82 1.26c.67.87 2.16 2.94 3.7 4.04s3.94 1.83 4.08 1.54c.15-.3-1.4-.86-2.88-1.78-1.5-.9-2.83-2.6-3.84-3.75-1-1.17.43-.98.43-.98s1.82.05 3.5-.1c1.7-.14 1.35 0 1.83.83s1.15 1.54 2.4 2.98c1.52 1.76 2.97 3.36 4.42 5.1.96 1.16.24 1.5.24 1.5s-.44.72-4.33 1.15c-2.4.27-5-.04-7.74-1.62-1.7-.98-3.46-2.54-5.24-4.5-4.66-5.1-4.42-9.28-4.42-9.28zm-2.07 10.53c.96 1.26 1.5 1.8 1.5 1.8s-.68-2.08-1.26-3.04c-.3-.5-.63-1-.88-1.34.64-1.45 1.17-3 1.56-4.68.43 1.4 1.76 5.45 3.4 8.1 2.03 3.2 3.8 4.37 2.66 5.23-1.16.87-3.4 1.06-5.96-.2-2.46-1.2-3.17-3.3-3.52-5a24.77 24.77 0 0 0 1.2-2.1c.33.2.8.56 1.3 1.24z"/><ellipse cx="-365.939" cy="158.625" fill="#d4af3a" ry="1.638" rx="1.788" transform="scale(-1 1)"/><path fill="#d4af3a" d="M369.7 155.53c-1.63-.03-2.5-.8-4.3-.63-2.13.2-5 1.44-8.5 3.3-2.75 1.24-6.36 1.86-9.83.86-.98-.28-1.94-.82-2.87-1.34-4.25-2.4-3.23-7.16-3.23-7.16 3.14 2.27 7.02 3.48 10.64 3.24 0 0-.27.2-.9.82-.6.62-1.73 1.34-1.36 1.66.38.3 1.92-1.18 3.23-2.14 1.3-.96 3.22-2.27 6.5-3.23 3.3-.96 7-1.02 9.48.35 2.47 1.38 2.67 3.1 2.33 3.8-.2.37-.65.5-1.18.48zm-46.2 34.67c.74-.2 2.04-.4 3.76-2 1.72-1.58 5.83-6.12 6.3-6.94.5-.83.3-1.6-.88-2.07-1.17-.5-2-2-2-2s2.55-.97 4.26-2.2c1.72-1.24 5.7-4.82 6.24-5.72.55-.9.28-1.03-.54-1.3-.83-.28-1.03-.83-1.03-.83s1.86-1.17 3.57-2.54c1.72-1.37 4.05-3.64 4.05-3.64 2.57 1.03 6.6.6 8.78.2 3.84-.68 6.65-2.26 6.65-2.26s.14.62.62 1.8c.48 1.15 2.26 1.84 4.04.67 1.8-1.17 1.4-3.7 1.4-3.7s1.43-.9 4.38-2c2.94-1.1 5.34-1.25 7.75-.14 2.4 1.1 3.56 4.4 3.56 6.88 0 2.48-1.3 1.45-1.58 1.1-.28-.34-.83-2.13-3.85-2.6-3-.5-5.76.95-9.2 3.77-3.42 2.83-4.17 3.03-5.88 4.82-1.73 1.78-.36 2.74 2.6 3.7 2.94.97 6.7-.96 6.85-.9.57.3-1.27 2.92-3.82 3.9-2.54 1-5.8.36-8.32-.66-1.7-.68-2.02.03-2.53.55-2.78 2.92-3.5 5.67-3.98 9-1.43-.43-2.4-1.85-2.6-3.02-.1-.56-.3-1.8-1.25-.9-.96.9-1.7 5.85-1.7 8.12s.68 5.3.68 5.3l-.7-.07c-.4-.07-1.23-.55-2.32-1.16-1.1-.63-1.16.06-1.16 1.3s-.4 3.58-2.06 7.78c-1.64 4.2-4.04 5.57-4.04 5.57s-.5-.83-.97-2.48-.82-4.88-.82-7.7c0-2.82.76-8.88.76-8.88s-3.42 4.2-7 5.23c-3.56 1.02-7.12.4-8.63-1.32-1.5-1.72-.14-2.47.62-2.68zM346.95 201.06s1.08 2.4 1.67 3.25c.6.86.86 1 .86 1s-1.1.9-2.66 1.4a35.45 35.45 0 0 1-3 .8s1.78-2.44 2.4-4.14c.63-1.7.73-2.3.73-2.3zm-21.42-1.4a71.58 71.58 0 0 1 .85-2.1c2.2.43 6.34-.6 8.14-1.7 0 0-1.64 3.36-3.28 4.5-1.64 1.16-1.87 1.23-1.87 1.23s1.64.25 3.84-1.92c2.2-2.16 3.2-4.66 3.2-4.66s-.5 5.78.4 9.32c.88 3.55 1.07 4 1.07 4s-4.66.83-9.85-.6c-5.18-1.46-5.58-1.92-5.58-1.92s-.62-.16.2-1.25c.82-1.08 2.36-3.57 2.9-4.92z"/><path fill="#b96b29" d="M334.95 186.96c1.6-1.83 1.75-2.27 1.75-2.27s.56.54.08 1.34c-.47.8-2.75 2.8-4.3 3.67-1.56.9-3.1 1.17-3.1 1.17l.06-.32s3.9-1.76 5.5-3.6zm6.33 12.04s.4-7.26.4-8.33.67-.8.67-.8l.8.36-1.56 10.6c-.18 1.16-.74 1.06-1.03 1 .57-.3.68-2.5.7-2.83zm9.8-31.42c.6-.6 1.92-1.03.63.4-1.27 1.43-2.95 3.2-3.44 4.7-.5 1.47-.8 3.3.05 2.9.85-.4 1.44-.4 2.33-1.14.9-.74 2.56-1.97 3.26-2.17.68-.2 1.9 0 .92 1.1-.98 1.07-2.07 2.1-3.95 3.5-1.87 1.37-2.96 1.97-3.95 2.66a36.88 36.88 0 0 1-1.97 1.28s.9-5.9 2.52-8.53c1.63-2.6 3-4.1 3.6-4.7zm32 99.22c1.2.92 2.78 1.3 2.78 1.3s.75-.05.75.24-.86 0-1.77-.16c-.92-.17-2.16-1.08-2.62-1.42-.44-.33-1.1-.74-.9-1.33.2-.58.58.46 1.78 1.37zm-10.33 5.54c.25.3 2.24 1.78 2.24 1.78s.6.42 1.27.67c.67.24.83.6.83.6s-.12.18-.83-.03c-.7-.2-2.78-1.66-3.44-2.24-.66-.6-.95-.75-.7-1 .24-.25.37-.08.62.2zm41.9-74.44c-.38.45-.83 1.07-1.04.86-.2-.2.05-.4.55-1 .5-.57.78-.86.78-.86s.7-1.1 1.12-1.53c.4-.4 1.03-.62.24.33-.8.96-1.3 1.74-1.66 2.2zm3.17 6.97c-.45.4-.86.78-1.36 1.32-.5.53-.86 1.1-1.15.82-.28-.3.75-.9 1.2-1.5.46-.57.83-.94 1.4-1.4a9.96 9.96 0 0 1 1.3-.82s-.92 1.16-1.38 1.57zm-1.18 11.26c-.8.83-1.95 1.08-2.12.75-.16-.33.1-.6.75-.93.66-.33 1.73-1.03 2.27-1.4.53-.37 1.07-.8 1.44-1.16.37-.38.8-.7.95-.6.14.14-1.1 1.46-1.47 1.67-.37.2-1.03.83-1.82 1.66zm-2.28 9.02c0-.33-.08-.5.58-.54.66-.03 1.58-.15 1.58-.15s1.28-.5 1.37-.25c.07.25-1.1.75-1.6.83-.5.08-1.1.25-1.4.4-.3.18-.54.05-.54-.28zm-1 9.8c1.42 0 2.62-.34 2.7-.13.1.2-.66.54-1.37.8-.7.24-2.04.32-2.95.36-.9.04-1.08-.16-1.04-.62.05-.46 1.26-.42 2.67-.42zm-11.03 10.72c.2-.2.7-.04 1.5.12.78.16 2.07.4 2.8.37.76-.04 2.38-.08 2.38-.08l.92.2c0 .2-1.2.16-2.95.37-1.74.2-2.9-.17-3.73-.3-.83-.12-1.12-.5-.9-.7zm-4.56 7.63c.87.34 1.5.42 2.15.42.67 0 2.24.3 2.24.3s.75.07.63.36c-.14.3-.4 0-1.05-.08-.66-.08-1.16 0-2.32-.04s-1.83-.33-2.53-.46c-.7-.12-1.5-.5-1.12-.95.37-.46 1.12.12 2 .45zm-8.88 5.78c.5.5 2.4 1.8 2.4 1.8s.37.28 1.1.65c.76.37.72.54.6.75-.13.2-.6-.3-1-.46-.4-.17-1.78-1.08-2.5-1.66-.7-.58-1.6-1.04-1.44-1.45.16-.4.33-.12.83.38zm14.76-74.78s-.16.38-1.7 2.3c-1.53 1.92-.7.1-.32-.38.38-.5 2.62-3.67 3.4-4.54.76-.88.87-.44.48.1-.38.55-1.86 2.52-1.86 2.52zm3.23 9.84c-.23-.2.26-.43 1.14-1.53.87-1.08 2.62-3.32 2.62-3.32s.5-1.04.66-.94c.16.1-.6 1.75-1.3 2.47-.72.72-1.65 2.1-2.15 2.7-.5.6-.76.86-.98.64zm-4.26 18.45c0-.54 1.74-.46 2.52-.63.78-.16 2.2-.45 2.2-.45s1.64-.3 1.68-.08c.04.2-.33.4-1.24.58-.9.16-2.27.57-3.3.74-1.03.16-1.86.37-1.86-.17zm4.25-9.97c-1.16.93-1.93 1.37-2.53 1.7-.6.33-1.1.82-1.42.44-.33-.4.27-.66 1.26-1.1 1-.43 1.48-.82 1.48-.82s.55-.27 1.04-.54c.5-.27 1.32-.6.17.33zm-9.9-6.57c.7-.6 1.3-.93 1.3-.93s.88-.82 1.04-.55c.17.28-.98 1.1-1.53 1.6-.54.48-1.52 1.9-2 1.63-.5-.26.48-1.13 1.2-1.74zm6.45 25.7s.96.26 1.58.43c.62.16.66.45-.46.45s-1.57-.3-2.7-.5c-1.1-.2-1.5-.34-1.32-.7.16-.38.75-.26 1.2-.13.46.12 1.7.45 1.7.45zm-1.74 9.33c.1.2-.77 0-1.36-.22-.58-.2-1.78-.83-2.48-1.04-.7-.2-.7-.33-.7-.74 0-.42.74-.1 1.65.2.92.3 2.08 1.2 2.08 1.2s.75.38.83.6zm-11.97 5.63c-.83-.5-1-.87-.7-1.12.28-.24.53-.2 1.2.34.66.54 1.94 1.45 1.94 1.45s.67.24 1.17.5c.5.24 1.12.66.95.9-.18.25-1.2 0-1.75-.45-.54-.46-2-1.12-2.82-1.62zm-5.66 7.48c-.33-.28-1.32-.6-1.78-.94-.47-.33-.76-1.33-.38-1.45.37-.12.58.42 1.36 1 .8.58 3.5 2.37 3.5 2.37l.7.3c.74.28.4.5-.2.4-.64-.08-1.05-.08-1.8-.66-.74-.57-1.07-.7-1.4-1zm-8.37 7.1c-.7-.28-1.74-1.2-2.24-1.65-.5-.46-1.12-1.04-.75-1.33.4-.3.8.08 1.38.62.58.54 2.12 2.16 2.12 2.16s.2.04 1.04.7c.83.67-.04.55-.33.26-.28-.3-.5-.46-1.2-.75z"/><path fill="#d4af3a" d="M338.2 142.5l3.98-1.03 2.55 2.03-3.15 1.38z"/><ellipse cx="-330.779" cy="142.074" fill="#b96b29" transform="scale(-1 1)" ry="3.103" rx="3.219"/><ellipse cx="-330.779" cy="141.417" fill="#d4af3a" ry="1.855" rx="1.942" transform="scale(-1 1)"/><path fill="#d4af3a" d="M337.5 131.4c-.83.32-1.9.18-1.9.18s-.33-1.42.45-2.12c.8-.7 1.5-1.2 1.97-1.66.46-.46.57-.62.57-.62s0 1.24.05 2c.06.78-.32 1.92-1.15 2.23z"/><ellipse cx="-335.788" cy="132.975" fill="#d4af3a" ry=".559" rx=".591" transform="scale(-1 1)"/><path fill="#d4af3a" d="M340.18 132.38c.25.34.8.9.8.9s-.66.02-1.2.4c-.54.4-1.23.72-1.87.64-.62-.08-.9-.67-.76-1.1.14-.42.44-.86 1.48-1.25 1.04-.38 1.3.06 1.56.4zM337.93 136.13c2.02.18 4.7-2.05 4.7-2.05.25 1.8 1.36 2.73 3.06 3.07l-.17.08s-1.58.8-3.45 1.1c-.84.12-1.6-.03-2.5-.2-1.1-.23-2.33-.54-3-.95-1.2-.76-.85-2.7-.85-2.7s.18 1.47 2.2 1.65zm7.88-2.02c.84-.3 2.08-.9 2.6-.93.52-.03 1.27-.16 1.14.8-.13.97-1.1 1.44-2.07 1.46-.96.03-1.45-.34-2.02-.62-.57-.28-.47-.38.36-.7zm6.34-3.43c.9-.65 1.7-.83 1.7-.83s.6 1.56.27 2.52c-.33.97-1.03 1.22-1.88 1.2-.86-.03-2.13-.47-1.77-1.12.37-.65.78-1.12 1.7-1.77z"/><ellipse cx="-351.314" cy="135.061" fill="#d4af3a" ry=".504" rx=".699" transform="scale(-1 1)"/><path fill="#d4af3a" d="M349.38 127.3c.56-2.66.46-5.56-2.06-9.25-2.52-3.7-6.9-5.18-6.9-5.18s-.15-.28-1.55-1.77c-1.4-1.5-4.25-3.36-4.25-3.36s3.3.8 5.2 1.4v.1c0 1.3 1 2.32 2.25 2.32.48 0 .92-.15 1.3-.4 1 .2 4.4 2.22 5.27 2.94a2.33 2.33 0 0 0-.34 1.22c0 1.28 1.02 2.3 2.27 2.3.37 0 .73-.08 1.04-.25.1.17.2.33.3.5a23.36 23.36 0 0 1 1.62 3.7c-.58.4-.97 1.16-.97 2.02 0 1.26.86 2.3 1.92 2.3.08.74.07 1.27.04 1.5-.08.74-.36 1.2-1.67 1.58-1.3.37-3.08 2.66-3.08 2.66-.13 0-1.06-1.68-.37-4.34zM341.34 110.26c-.48-.4-.56-.98-.18-1.32.37-.34 1.06-.3 1.54.1.48.38.56.97.18 1.3-.37.35-1.07.3-1.54-.08zm8.46 5.7c-.54-.47-.63-1.2-.2-1.64.42-.43 1.2-.38 1.74.1.53.5.63 1.24.2 1.67-.42.4-1.2.36-1.74-.12z"/><ellipse cx="-354.839" cy="123.163" fill="#d4af3a" ry="1.284" rx="1.306" transform="scale(-1 1)"/><path fill="#d4af3a" d="M326.64 105.03c.68.14 1.93.55 3.8 1.54h-.03c-1.3 0-2.3.83-2.3 1.9 0 1.1 1.18 2.27 2.48 2.27s2.2-1.14 2.2-2.22c0-.25-.06-.5-.17-.72.56.34 1.16.72 1.8 1.15 4.15 2.8 5.13 4.16 7.18 7.98 2.06 3.83 2.8 8.03 1.92 10.5-.9 2.48-4.16 3-4.2 3-.05 0 .37-.38.42-.84.04-.48-.1-.7-.24-1.65-.14-.93-.04-2.05-.04-2.05s-.75-.1-1.17.42c-.42.5-1.03 1.12-1.45 1.63-.42.52-1.54 1.5-1.54 1.5s-.66-.94-.66-2.06c0-1.13.75-2.34.9-4.3.13-1.97-.9-5.47-2.8-8.03-1.92-2.57-5.52-4.9-6.6-5.42-1.07-.5-1.25-1.3-1.3-1.78-.05-.46-.14-.8-.23-1.96-.1-1.15.97-1.1 2.04-.87zM330.76 109.46c-.73 0-1.4-.66-1.4-1.27 0-.62.57-1.08 1.3-1.08.74 0 1.34.5 1.34 1.1 0 .6-.5 1.24-1.24 1.24zm-6.18 24.4c-1 .42-2.13.2-2.66-.16-.54-.36-.72-1.27-.08-1.8.62-.5 1.56-.5 2.14-.16.6.32 1.9 1.24 1.9 1.24s-.3.5-1.3.9zM321.37 135c.36.56.63.9 1.74.94 1.13.05 2.33-.02 3.06-.75s1.23-1.75 1.23-1.75l1.25-.03s.4 1.75.97 2.23c.55.5 2.5.56 3.34-.07.84-.63 1.62-1.4 1.76-1.3.14.1 0 .72-.87 1.47s-1.47 1.2-2.88 1.2H323s-1.62.1-2.08-.86c-.46-.98-.48-1.6-.27-1.83.22-.24.36.17.72.73zM333.5 133.65c-1.2.66-1.85.26-2.3-.28-.42-.53-.5-.78-.5-.78s1.13-.4 1.68-.74c.55-.32.92-.63 1.47-.56.55.06.63.14.63.14s.22 1.54-.97 2.2z"/><ellipse cx="-339.284" cy="121.86" fill="#b96b29" ry="2.639" rx="2.662" transform="scale(-1 1)"/><path fill="#b96b29" d="M334.66 112.72c1.07-.72 2.63-.43 3.5.63.86 1.08.7 2.53-.37 3.24-1.07.7-2.64.42-3.5-.64-.87-1.07-.7-2.52.36-3.24z"/><ellipse cx="-339.388" cy="121.518" fill="#d4af3a" ry="1.474" rx="1.546" transform="scale(-1 1)"/><path fill="#d4af3a" d="M335.77 113c.7-.18 1.54.16 1.9.76.35.6-.03 1.25-.94 1.43-1.68.34-2.48-1.77-.96-2.2z"/></svg>