<svg xmlns="http://www.w3.org/2000/svg" width="640" height="480"><path fill="#c4272f" d="M-.05 0h640.1v480H-.05z"/><path fill="#015197" d="M213.32 0h213.36v480H213.32z"/><circle cx="107" cy="189.056" r="35" fill="#f9cf02"/><circle cx="107" cy="173.147" r="38.182" fill="#c4272f"/><path fill="#f9cf02" fill-rule="evenodd" d="M91.1 131.8c0 8.78 7.13 15.9 15.9 15.9s15.9-7.12 15.9-15.9c0-6.35-4-7.15-4-9.53.02-2.38 2.4-5.56-2.37-9.53 2.4 3.97-1.6 4.77-1.6 8.74 0 3.97 1.6 3.97 1.6 7.15a3.18 3.18 0 0 1-6.35 0c0-3.18 3.17-6.36 3.17-11.12 0-4.76-.8-6.35-3.17-10.32-2.4-3.97-6.36-7.15-3.18-10.33-4.77 1.6-2.38 7.95-2.38 11.92 0 3.97-3.18 6.35-3.18 11.12 0 4.76 2.38 5.55 2.38 8.73a3.18 3.18 0 0 1-6.35 0c0-3.18 1.6-3.18 1.6-7.15s-4-4.77-1.6-8.74c-4.77 3.97-2.4 7.15-2.4 9.53.02 2.4-3.96 3.18-3.96 9.54z"/><circle cx="107" cy="179.51" r="25.455" fill="#f9cf02"/><path fill="#f9cf02" d="M37 230.42v152.73h31.82V230.42zm108.18 0v152.73H177V230.42zm-70 25.45v12.73h63.64v-12.73zm0 89.1v12.72h63.64v-12.73zm0-114.55h63.64L107 249.52zm0 133.64h63.64L107 383.16z"/><circle cx="107" cy="306.783" r="33.727" fill="#f9cf02" stroke="#c4272f" stroke-width="3.818"/><path fill="none" stroke="#c4272f" stroke-width="3.818" d="M107 273.06a16.86 16.86 0 0 1 0 33.72 16.86 16.86 0 1 0 0 33.73"/><circle cx="107" cy="289.919" r="6.364" fill="#c4272f"/><circle cx="107" cy="323.647" r="6.364" fill="#c4272f"/></svg>