<svg xmlns="http://www.w3.org/2000/svg" width="640" height="480" xmlns:xlink="http://www.w3.org/1999/xlink"><path fill="#00785e" d="M0 0h640v480H0z"/><path fill="#fbd116" d="M294.92 108.73l40.58 29.48L320 90.5l-15.5 47.7 40.59-29.47z"/><g id="a"><path fill="#fff" d="M320 331.63H217.52a146.33 146.33 0 0 1-3.8-4H320a2.14 2.14 0 0 1 1.43 1.9c.04.9-.54 1.77-1.43 2.1zm0-31.34c.6-1.23 1.75-4.04 1.23-7.56a12.4 12.4 0 0 0-1.23-3.8c-5.75 5.43-16.55 14.15-32.5 18.97a81.04 81.04 0 0 1-23.5 3.47h-63.13a144.4 144.4 0 0 0 5.85 8h61.03c19.9 0 38.13-7.18 52.25-19.08zm-109.6-24.7a32.3 32.3 0 0 1-9.7 2.1c14.88 16.8 36.6 27.42 60.8 27.42 22.98 0 43.74-9.57 58.5-24.94a440.94 440.94 0 0 0 4.55-58.9A440.92 440.92 0 0 0 320 153.6c-6.6 5.9-18.95 18.68-24.77 38.27a81.05 81.05 0 0 0-3.35 23.13c0 16.68 5.04 32.18 13.68 45.08-10.6-13.7-16.93-30.9-16.93-49.58 0-12.4 2.8-24.16 7.77-34.68a32.5 32.5 0 0 1-7.53-12.98c-6.68 11.8-10.5 25.4-10.5 39.9 0 18.05 5.9 34.72 15.88 48.2-17.37-18.22-41.87-29.57-69-29.57-1.46 0-2.9.04-4.35.1a32.64 32.64 0 0 1 6.75 8.9c27 .04 51.36 11.32 68.7 29.4-16.56-13.82-37.87-22.15-61.1-22.15-12.98 0-25.36 2.6-36.65 7.3 11.6 30.64 41.22 52.45 75.9 52.45 2.25 0 4.48-.1 6.68-.28-4.68.83-9.5 1.27-14.42 1.27-21.9 0-41.75-8.68-56.35-22.78zM320 364.36h-53.1c16.43 6.54 34.35 10.13 53.1 10.13a10.9 10.9 0 0 0 1.25-4.96 10.93 10.93 0 0 0-1.25-5.17zm0-24.5h-93.63a143.8 143.8 0 0 0 7.82 6.25H320c.2-.22 1.27-1.34 1.27-3.12s-1.05-2.9-1.27-3.13zm0 12.5h-76.7a143.62 143.62 0 0 0 14.45 8H320a7.56 7.56 0 0 0 1.16-4.2 7.53 7.53 0 0 0-1.16-3.8z"/><path fill="#fbd116" d="M200.48 174.77l25.4 23.67-6.64-34.07-14.66 31.46L234.93 179zm36.9-32l34.7.6-27.72-20.9 10.15 33.2 11.3-32.83z"/></g><use width="100%" height="100%" xlink:href="#a" transform="matrix(-1 0 0 1 640 0)"/></svg>