<svg xmlns="http://www.w3.org/2000/svg" width="640" height="480"><defs><clipPath id="a"><path fill-opacity=".67" d="M0 0h640v480H0z"/></clipPath></defs><g clip-path="url(#a)"><path fill="#0071bc" fill-rule="evenodd" d="M-160 0h960v480h-960z"/><path fill="#fff" fill-rule="evenodd" stroke="#000" stroke-width="1.857" d="M369.93 365.66s15.22-16.1 29.86-13.03c4.38-16.98 20.92-18.3 20.92-18.3s-1.6-18.73 19.6-22.83c.6-12.73 13.48-23.27 13.48-23.27s-2.63-19.76 10.83-24.3c-8.2-15.66 2.78-27.08 2.64-27.37-.15-.3-13.9-24.74-1.6-31.77-13.04-10.98-8.8-23.43-8.8-23.43s-14.2-3.66-9.07-20.64c-11.7-2.04-14.05-20.93-14.05-20.93s-18 3.66-20.2-12c-11.86 1.9-13.18-9.8-13.32-9.8-.15 0-23.57 6.3-28.25-11.42-9.08 4.68-13.03-3.66-13.03-3.66s-13.03 6.44-20.8-6c-15.5 9.66-24.14-.44-24.14-.44s-20.33 13.46-27.07 3.07c-12 12.15-22.7 6.88-22.7 6.88s-9.06 16.1-23.7 12c-3.36 14.93-20.2 15.22-20.2 15.22s1.76 13.18-18.44 16.7c-2.65 15.5-13.18 18.14-13.18 18.14s1.02 15.07-8.5 19.9c3.37 8.5-5.4 18.88-5.4 18.88s9.36 11.7-3.38 24.9c12.3 3.2 3.37 24.43 3.37 24.43s17 7.62 6.3 21.67c12.15 3.96 8.35 13.62 8.5 19.33 7.75 3.5 14.63 1.75 11.26 17.4 23.86 2.65 12.6 15.82 12.6 15.82s11.12.44 6.73 9.23c20.33-.44 23.26 15.22 23.26 15.22s18.88-4.98 21.37 2.34c2.5 7.33-8.2 56.66-8.2 56.66s-15.95 0-27.8-12.74c-27.82-.73-21.67-19.02-22.1-19.02-.45 0-9.23 3.36-13.77-11.86-18.6 3.8-18-11.86-18.15-12-.14-.15-8.33-3.8-5.26-11.57-19.18 1.76-17.7-16.98-17.7-16.98-4.2-1.7-5.77-5.62-5.14-9.52-2.48-.88-19.46-1.17-10.68-23.57-16.25-9.8-6.15-21.07-6.15-21.07s-22.4-11.56-5.12-24.88c-12.88-19.03 1.02-28.54 1.02-28.54s-17.86-18.14.3-31.02c-2.93-27.52 13.46-34.1 13.46-34.1s-8.63-22.4 14.8-31.77c1.45-22.68 17.84-23.27 17.84-23.27s.44-18 26.2-16.24c4.98-16.1 22.55-12.9 22.55-12.9s5.4-19.46 29.27-10.1c12.14-23.7 30.15-11.56 30.15-11.56s11.4-7.46 17.12-5.12c7.25-12.46 22.68-.5 32.66 1.93 3.62-1.4 16.52-11.15 26.48 1.14 13.18-8.64 24.45 6.87 24.45 6.87s18.15-9.22 26.64 11.86c38.5-3.52 32.93 21.66 32.93 21.66s30.3-6.9 23.7 23.26c27.53 1.9 24.75 20.06 24.75 20.06s17.42 13.17 9.8 25.03c15.52.73 9.8 15.66 9.8 15.66s11.87 4.55 2.06 23c22.7 18.14 4.4 36.15 4.25 36-.16-.15 12.14 14.64 1 31.62 3.38 26.93-10.23 33.8-10.23 33.8s3.5 17.43-11.7 22.4c-.3 20.5-19.63 23-19.63 23s5.12 8.9-14.05 18.26c-.77 13.7-20.8 14.8-20.8 14.8s-1.9 25.2-27.37 18.45c-6.18 20.2-36 14.2-36.6 13.9-.58-.28-5.7-43.32-5.7-43.47z"/><path fill="#217900" fill-rule="evenodd" stroke="#000" stroke-width="1.857" d="M184.94 124.08c.07 0 6.46 5.54 5.26 13.88-1.2 8.34-6 19.93-5.04 28.57.6 3.46.37 9.67.37 9.67s-5.78-8.22-5.86-17 6.27-17.14 6.27-23.62-1.15-11.65-1-11.5zm-3.17 2.5s-8.37 8-9.45 15.75c-.8 4-1.1 22.66-1.2 30.95-.2 2.54-1.24 12.57-1.46 16.2-.23 3.66 6.16-6.2 6.52-14.26-.2-8.32-.2-25.86.65-28.5.75-3.38.6-7.12 1.75-10.52 1.54-4.72 3.27-9.55 3.2-9.63z" stroke-linejoin="round"/><g fill="#ffd200" fill-rule="evenodd" stroke="#ef8a10"><path d="M365.96 100.45s10.86-5 13.96-14.33-9.4-9.42-11.04-6.45c-1.65 2.96 1.4 10.34.62 12.3-.8 1.94-5.2 6.65-3.54 8.48zM269.75 103.86s7.04-9.66 5.22-19.32c-1.83-9.66-12.8-3.66-12.8-.26 0 3.4 6.27 8.35 6.53 10.44.26 2.1-1.3 8.35 1.05 9.13zm-19.06 5.74s7.04-9.66 5.2-19.32c-1.82-9.65-12.78-3.65-12.78-.26 0 3.4 6.27 8.35 6.53 10.44.26 2.1-1.3 8.36 1.04 9.14zm-21.15 6.52s7.05-9.65 5.22-19.3c-1.83-9.67-12.8-3.67-12.8-.27s6.27 8.35 6.54 10.44c.27 2.08-1.3 8.34 1.05 9.12zM214.67 131s7.05-9.66 5.22-19.3c-1.83-9.67-12.8-3.67-12.8-.28 0 3.4 6.27 8.36 6.53 10.44.26 2.1-1.3 8.36 1.04 9.14zM199 145.36s7.06-9.66 5.23-19.32c-1.83-9.66-12.8-3.65-12.8-.26 0 3.4 6.28 8.35 6.54 10.44.26 2.1-1.3 8.35 1.04 9.14zM235.02 61.73s-9.4 7.4-10.22 17.2c-.84 9.8 11.33 6.96 12.24 3.7.92-3.28-3.78-9.74-3.47-11.82.3-2.08 3.5-7.7 1.45-9.07zm31.32-9.66s-9.38 7.4-10.22 17.2c-.84 9.8 11.33 6.96 12.25 3.7.9-3.28-3.8-9.74-3.48-11.82.3-2.08 3.5-7.7 1.44-9.08zm-116.72 84.55s1.98 11.8 10.16 17.24c8.2 5.44 11.56-6.6 9.13-8.97s-10.34-1.37-12.02-2.64c-1.68-1.27-5.06-6.77-7.26-5.64zm-15.65 40.04s.1 11.95 7.32 18.62c7.22 6.66 12.44-4.7 10.42-7.42s-10-2.97-11.46-4.5c-1.46-1.5-3.93-7.47-6.3-6.7zm36.1 44.72s-4.27-11.17-13.37-14.9c-9.1-3.7-10.03 8.75-7.18 10.6 2.85 1.84 10.42-.7 12.3.2 1.9.92 6.3 5.64 8.24 4.1zm-7.5-19.33s7.23-9.52 5.6-19.2c-1.65-9.7-12.72-3.9-12.8-.52-.06 3.4 6.1 8.47 6.33 10.57.22 2.1-1.47 8.32.87 9.15zm225.58-91.94s10.86-5 13.96-14.32-9.4-9.42-11.04-6.46c-1.65 2.97 1.4 10.35.62 12.3-.8 1.95-5.2 6.66-3.53 8.5zm32.83 16.38s6.38-10.1 3.9-19.62c-2.46-9.5-13-2.8-12.77.6.24 3.38 6.82 7.9 7.22 9.98.4 2.06-.74 8.42 1.65 9.04zm89.6 93.03s-4.28-11.15-13.38-14.86c-9.1-3.7-10.02 8.75-7.17 10.6 2.85 1.84 10.42-.73 12.3.2 1.9.9 6.32 5.62 8.25 4.07zm-43.82 6.94s.25-11.95 7.56-18.53c7.3-6.56 12.4 4.86 10.33 7.56-2.06 2.7-10.04 2.85-11.52 4.35-1.47 1.5-4.02 7.44-6.37 6.64zM459.7 99.68s-11.16-4.24-20 .07c-8.83 4.32-.14 13.3 3.13 12.4 3.28-.9 6.4-8.24 8.35-9.05 1.94-.8 8.4-.94 8.53-3.42zm-25.56-21.4s-11.18-4.25-20 .07c-8.84 4.3-.15 13.3 3.12 12.4 3.27-.9 6.4-8.25 8.34-9.05 1.95-.8 8.4-.95 8.54-3.42zM396 57.88s-9.47 7.28-10.43 17.06c-.96 9.78 11.25 7.1 12.2 3.84.95-3.25-3.67-9.77-3.33-11.85.33-2.08 3.6-7.65 1.56-9.06zm-24.84-6s-4.32 11.16-.07 20.02 13.3.24 12.42-3.04c-.88-3.28-8.2-6.46-9-8.4-.8-1.96-.9-8.42-3.36-8.57zm-70.44 42.97s7.72-9.12 6.6-18.88c-1.12-9.77-12.5-4.58-12.74-1.2-.24 3.4 5.65 8.8 5.76 10.9.1 2.1-1.9 8.23.38 9.18z"/></g><path fill="#8c8a8c" fill-rule="evenodd" stroke="#000" stroke-width="1.857" d="M342.77 114.43s18.53 1.17 19.44 11.8-4.4 17.1-4.4 17.1 2.33 22.92-15.8 29.66c-19.44 2.32-49.88.5-49.88.5s-8.94 2.2-12.57-16.32c-3.62-18.52-4.66-31.6-4.66-31.6s1.8-10.37 14.9-11.02c13.07-.65 52.85.13 52.98-.13z"/><path fill="none" stroke="#000" stroke-width="1.857" d="M357.67 143.2s-9.97 12.43-8.94 17.48" stroke-linecap="round"/><path fill="#8c8a8c" fill-rule="evenodd" stroke="#000" stroke-width="1.857" d="M344.33 172.34c2.47 2.07 4.8 4.4 5.32 12.05l1.03 15.27 12.96 116.6 11.4 84.34.77 13.1s-2.7 9.58-10.35 10.36c-5.57 11.66-35.76 15.02-38.74 14.9-2.7-.14-12.3-4.15-18.12-3.63-5.83.5-15.94 4.4-20.47 3.75-4.53-.64-14.76-4.14-16.57-11.53-12.7-4-14.77-13.73-14.77-13.73l13.73-97.55 13.33-123.33s1.56-16.46 8.16-18.92c6.86-.65 42.36.65 52.33-1.68z"/><path fill="none" stroke="#000" stroke-width="1.857" d="M274.38 341.15l-2.73 86.28m86.55-74.88l7.64 71.12"/><path fill="none" stroke="#000" stroke-width=".968" d="M136.57 296.3l-.28 1m358.67-4.1l.3.98"/><path fill="none" stroke="#6b18b5" stroke-width="1.857" d="M126.97 179.83s5.67 7.86 6.7 12.37c1 4.5 2.9 13.4 5.37 17.03 2.48 3.64 16.6 23.87 17.32 32.3.15 5.54-5.82 15-14.7 15.14-5.53-.14-19.8-3.78-20.37-16-.6-12.23 4.35-12.52 4.94-19.94.58-7.43.72-40.75.72-40.9z" stroke-linejoin="round"/><path fill="none" stroke="#6b18b5" stroke-width=".968" d="M224.47 72.8s-5.88.43-10.4 2.9c-3.5 2.15-9.45 5.26-13.6 11-10.55 8.24-26.43 12.08-31.43 18.9-3 4.66-2.82 15.84 4.7 20.58 4.8 2.75 18.87 7.05 25.72-3.1 6.85-10.14 2.77-12.96 6.13-19.6 5.53-15.23 18.8-30.54 18.87-30.67zM367 57.98s-4.38-3.93-9.3-5.48c-3.98-1.02-10.62-.58-17.5-1.25-13.25-1.86-26.92-11.45-35.3-10.3-5.43 1.1-13.34 9-11.52 17.7 1.37 5.35 7.36 16.2 19.4 14.06 12.07-2.12 11.96-4.75 19.07-6.96C349.2 56 366.87 58 367 57.97zm141.37 137.4c1-2.27-.83-6.52-2.12-11.5-1.26-3.92-3.14-10-7.72-15.42-5.46-12.22-4.52-28.97-9.95-35.48-3.8-4.02-14.7-6.53-21.1-.38-3.82 4-11.38 16.62-3.17 25.7 8.2 9.1 11.78 5.67 17.43 10.53 13.45 9.03 20.04 24.88 26.64 26.53zm-4.82 106.75c1.84-2.55 5.13-7.45 4.74-11.53-.32-3.25 1.47-13.05 1.67-17.33 1.2-13.32 9.55-24.14 7.28-35.72-1.34-5.36-9.2-13.02-17.8-10.78-5.28 1.62-17.05 8.1-14.34 20.03 2.73 11.94 6.58 11.74 9.13 18.73 7.32 14.46 2.64 31.64 9.32 36.6z" stroke-linejoin="round"/><path fill="none" stroke="#000" stroke-width="1.857" d="M405.5 386.83s-2.27 4.35 6.76 8.17m11.3-18.42s10.08-2.43 16.86 0m13.2-25.37c0 .18-1.4 4.53 6.6 10.78m-.87-22.06s5.9 4.34 15.8 4.17m-75.4 8.5s.35 11.47-5.56 16.85m25.36-34.58s9.73 2.44 17.72-1.56m44.66-15.28s2.1 2.96 12.86 2.44m-54.9-9.2c.34.16 12.68 4.16 20.5.5m4.17-47.78s.52-.7 4.34 12.7m5.22-50.4s-.52 7.12-6.26 10.25m42.92-39.45s-8.34 6.78-6.77 9.56m-34.74-14.43s4.34 7.3-2.78 12.35m-18.25-43.6s7.47-.36 10.77 6.07m-24.84-27.28h5.73m23.97-26.06c0 .17 1.56 1.56-1.4 4.5m-51.95-3.8s4 6.25 3.3 13.9m19.82-35.1c1.73-.18 7.64-2.8 7.64-2.8m-33.36-22.06c-.17 0-2.26 7.82 1.57 10.6m-11.14 25.02c0 8.34 6.6 6.26 2.08 14.25M382.2 97c-.18 0-10.43 8-10.43 9.38m-16.33-13.73s4.34 4.34 3.3 10.25m-15.98-13.73s-2.26 6.6-5.2 8.34m-17.92-10.06c-.17.34-3.64 7.82-6.08 9.2m-25.54-9.03c.17 0 3.48 6.96-.87 12m-6.43-47.96c.17.17.7 5.4-2.6 9.9m-28.68 1.92c0 .17 1.4 5.9-7.82 7.82m-9.9 45.17c.18.35 8.87 1.74 8.87 1.74M210 136.6c.18-.16 10.6-3.3 10.6-3.3m-27.45 16.34c.34 0 7.3 1.22 9.03.35m-13.9 6.07s2.26 1.22.35 12.86M154.4 125.5l4.16 6.25m-18.4 25.9c0-.18 4.16 6.24 9.72 7.46m23.1 25.2c.18 0 6.8-1.38 7.83-2.08m-10.77 25.72c.18 0-.17-4.35 5.22-7.3M162.9 224.7c0 .18 5.04 6.44 8.52 7.3m-11.47 4.7c.53-.17 5.9-4.86 12.17-4.52m-13.9 20.68s.17 5.4 16.15 4m-14.6 14.94c0-.18 4.7-10.78 14.26-14.77m-1.4 28.33s1.4-4.52 9.4-7.65m-.53 25.55s5.74-4.7 7.82-5.4m-.7 19.3s3.48 3.65 12.17-2.6m-54.06 5.55c1.05-.17 13.73-3.12 18.08 3.48m-13.03 6.95s13.37-1.74 15.1-.35m32.68 3.13s-1.74 3.66 14.77-2.42m5.73 9.04c-2.95 5.04.7 9.04-3.13 11.3m-47.1-4.36c.53-.34 6.1-2.26 5.22-10.25m-.17 22.26c.7-.18 9.9-4.17 11.8-2.1m6.27 13.74s1.22-8.17 3.82-9.04m10.07 21.37s7.65-.17 10.95-2.6m3.82-25.02c.17.18 7.12 3.83 21.9.18m-16.34 33s2.08 10.6 1.9 13.05"/><g fill="#de2010" fill-rule="evenodd" stroke="#000" stroke-width="1.483"><path d="M494.06 225.4c-.43-3.5-2.12-6.56-4.4-8.05-2.32-1.5-4.88-1.17-6.74.84s-2.74 5.4-2.3 8.9c.43 3.5 2.12 6.56 4.42 8.05 2.3 1.5 4.86 1.17 6.72-.84s2.74-5.4 2.3-8.9zM492.63 207.76c-.44-3.5-2.12-6.57-4.42-8.06-2.3-1.5-4.86-1.17-6.72.84s-2.74 5.4-2.3 8.9c.44 3.5 2.12 6.56 4.42 8.05 2.3 1.48 4.86 1.16 6.73-.85s2.74-5.4 2.3-8.9zM489.04 188.9c-.74-3.44-2.7-6.35-5.1-7.63-2.43-1.3-4.96-.74-6.63 1.42s-2.25 5.62-1.5 9.06c.74 3.44 2.68 6.35 5.1 7.64 2.43 1.28 4.95.73 6.63-1.43s2.25-5.62 1.5-9.07zM482.5 169.2c-1.6-3.14-4.22-5.46-6.88-6.1-2.67-.6-4.98.56-6.05 3.08s-.74 6 .86 9.15c1.6 3.15 4.2 5.46 6.88 6.1 2.68.6 4.98-.56 6.05-3.08s.75-6-.85-9.15zM475.53 153.4c-1.6-3.15-4.22-5.47-6.9-6.1-2.66-.6-4.96.56-6.03 3.08s-.75 6 .85 9.15c1.6 3.14 4.22 5.46 6.88 6.08 2.67.63 4.98-.54 6.05-3.06s.74-6-.85-9.15zM465.6 137.5c-1.86-3-4.67-5.1-7.38-5.48-2.7-.4-4.9.97-5.76 3.57s-.24 6.04 1.62 9.04c1.85 3 4.67 5.08 7.38 5.47 2.7.4 4.9-.95 5.76-3.56s.23-6.05-1.63-9.04zM454.55 122.18c-2.13-2.8-5.13-4.6-7.87-4.74-2.74-.13-4.8 1.44-5.4 4.1s.36 6.06 2.5 8.85c2.14 2.8 5.14 4.6 7.87 4.73 2.74.13 4.8-1.43 5.4-4.1s-.36-6.05-2.5-8.85zM441.38 107.9c-2.52-2.47-5.75-3.82-8.48-3.55-2.72.27-4.53 2.12-4.73 4.85s1.22 5.93 3.74 8.4c2.53 2.45 5.76 3.8 8.5 3.54 2.72-.27 4.52-2.12 4.73-4.85s-1.23-5.94-3.75-8.4zM426.54 94.76c-2.73-2.22-6.07-3.27-8.77-2.75-2.7.53-4.3 2.53-4.26 5.27s1.77 5.8 4.5 8c2.74 2.23 6.08 3.28 8.77 2.77 2.7-.52 4.32-2.53 4.27-5.27s-1.76-5.8-4.5-8zM410.83 84.28c-3.06-1.74-6.53-2.22-9.1-1.26-2.57.95-3.84 3.2-3.34 5.9s2.7 5.42 5.76 7.15c3.07 1.73 6.54 2.2 9.1 1.26 2.57-.96 3.84-3.2 3.34-5.9s-2.7-5.42-5.77-7.15zM393.25 74.95c-3.2-1.45-6.7-1.6-9.18-.43-2.47 1.2-3.53 3.55-2.8 6.18s3.2 5.16 6.4 6.6c3.22 1.45 6.72 1.6 9.2.43 2.46-1.2 3.52-3.55 2.77-6.18s-3.18-5.15-6.4-6.6zM376 68c-3.3-1.23-6.8-1.15-9.2.2-2.38 1.35-3.28 3.77-2.36 6.35s3.52 4.92 6.83 6.15c3.3 1.23 6.8 1.16 9.18-.2 2.4-1.34 3.3-3.76 2.37-6.34S379.3 69.23 376 68zM358.47 62.52c-3.4-.98-6.88-.64-9.15.9-2.27 1.52-3 4-1.87 6.5s3.88 4.64 7.27 5.62c3.4.97 6.87.63 9.15-.9 2.27-1.52 2.98-4 1.87-6.5s-3.9-4.65-7.27-5.62zM339.17 59.23c-3.5-.45-6.88.43-8.9 2.28-2 1.88-2.33 4.44-.84 6.74s4.55 4 8.05 4.43c3.5.44 6.88-.43 8.9-2.3 2-1.85 2.33-4.42.84-6.72s-4.55-4-8.05-4.42zM320.13 58.15c-3.52-.14-6.83 1.02-8.68 3.04-1.84 2.02-1.94 4.6-.27 6.76s4.88 3.6 8.4 3.73c3.52.13 6.83-1.03 8.67-3.05 1.85-2.02 1.95-4.6.28-6.77s-4.88-3.6-8.4-3.73zM302.68 58.77c-3.52-.14-6.83 1.02-8.67 3.04-1.84 2.04-1.94 4.62-.26 6.78s4.88 3.6 8.4 3.73c3.52.15 6.82-1 8.67-3.03 1.85-2.03 1.96-4.6.28-6.77s-4.88-3.6-8.4-3.73zM282.22 61.2c-3.44.78-6.32 2.76-7.58 5.2-1.25 2.44-.67 4.96 1.5 6.6s5.66 2.2 9.1 1.4c3.43-.78 6.32-2.76 7.57-5.2 1.26-2.44.7-4.96-1.5-6.6s-5.65-2.2-9.08-1.4zM263.62 65.85c-3.36 1.06-6.07 3.27-7.12 5.8-1.05 2.54-.27 5 2.05 6.46s5.8 1.73 9.17.66c3.35-1.07 6.07-3.28 7.1-5.8 1.06-2.54.28-5-2.04-6.47s-5.8-1.72-9.16-.65zM246.65 73.13c-3.2 1.45-5.64 3.97-6.38 6.6-.74 2.65.33 5 2.8 6.18s5.98 1.02 9.18-.44c3.2-1.46 5.64-3.98 6.38-6.62.74-2.64-.33-5-2.8-6.17s-5.98-1-9.18.46zM229.7 81.8c-3.06 1.73-5.27 4.45-5.78 7.14-.5 2.7.76 4.95 3.32 5.9s6.04.5 9.1-1.23c3.08-1.7 5.3-4.43 5.8-7.12.5-2.7-.76-4.95-3.32-5.9s-6.04-.5-9.1 1.23zM213.7 92.66c-2.87 2.05-4.77 5-4.98 7.73-.22 2.72 1.3 4.82 3.94 5.5s6.05-.17 8.92-2.22c2.86-2.05 4.76-5 4.98-7.72.2-2.73-1.3-4.83-3.95-5.5s-6.04.15-8.9 2.2zM198.87 103.9c-2.68 2.28-4.32 5.37-4.3 8.1.02 2.75 1.7 4.72 4.4 5.17s6-.67 8.7-2.96c2.67-2.27 4.32-5.37 4.3-8.1-.02-2.75-1.7-4.7-4.4-5.17s-6.02.68-8.7 2.97zM185.8 117.57c-2.53 2.47-3.94 5.67-3.73 8.4.22 2.73 2.03 4.58 4.76 4.83s5.95-1.1 8.46-3.58c2.5-2.47 3.92-5.67 3.7-8.4-.2-2.73-2.02-4.57-4.75-4.83s-5.95 1.1-8.46 3.57zM174.52 132.76c-2.3 2.67-3.43 5.98-3 8.7.45 2.7 2.4 4.37 5.15 4.4s5.84-1.6 8.13-4.27c2.3-2.68 3.44-6 3-8.7-.44-2.7-2.4-4.4-5.14-4.4s-5.84 1.6-8.14 4.26zM164.23 148.3c-2 2.9-2.8 6.33-2.06 8.97.73 2.64 2.86 4.1 5.58 3.84s5.64-2.2 7.64-5.1c2-2.9 2.77-6.32 2.04-8.96-.73-2.65-2.86-4.1-5.58-3.85s-5.64 2.2-7.63 5.1zM155.65 165.96c-1.47 3.2-1.66 6.7-.5 9.17 1.2 2.48 3.54 3.56 6.17 2.83s5.18-3.15 6.64-6.35c1.47-3.2 1.66-6.7.5-9.17-1.18-2.48-3.53-3.55-6.17-2.83s-5.18 3.15-6.65 6.36zM148.85 184.38c-1.17 3.32-1.04 6.82.35 9.18 1.4 2.36 3.83 3.22 6.4 2.26s4.86-3.6 6.03-6.93c1.17-3.33 1.04-6.83-.35-9.2-1.4-2.36-3.83-3.22-6.4-2.25s-4.86 3.6-6.03 6.93zM142.95 219.3c-.33 2.8.65 5.5 2.58 7.06 1.92 1.56 4.5 1.75 6.75.5s3.83-3.76 4.16-6.57c.32-2.82-.66-5.52-2.58-7.08-1.93-1.56-4.5-1.75-6.75-.5s-3.83 3.76-4.15 6.57zM144.53 203c-.8 3.43-.25 6.9 1.4 9.08 1.65 2.18 4.17 2.75 6.6 1.5s4.43-4.14 5.2-7.57c.8-3.43.26-6.9-1.4-9.08-1.65-2.18-4.17-2.75-6.6-1.5s-4.42 4.14-5.2 7.57z"/></g><path fill="#ffe300" fill-rule="evenodd" d="M480 194.65c2.16-2.3 4.16-2.95 6.68-2.1-.9-6.07-2.8-8.13-5.14-7.4-2.34.73-3.4 3.85-1.53 9.5zm3.3 18.28c2.3-2.13 4.35-2.62 6.8-1.6-.43-6.1-2.2-8.3-4.57-7.75-2.4.55-3.67 3.58-2.24 9.35zm-7.77-34.98c1.5-2.77 3.26-3.9 5.92-3.73-2.4-5.64-4.78-7.14-6.86-5.84-2.08 1.3-2.3 4.58.93 9.57zm-8.14-16.64c1.5-2.76 3.25-3.9 5.9-3.72-2.4-5.64-4.77-7.14-6.84-5.84-2.08 1.3-2.3 4.58.93 9.57zm-19.53-30.48c1.03-2.97 2.6-4.38 5.24-4.64-3.26-5.17-5.85-6.27-7.7-4.66s-1.53 4.9 2.47 9.3zm-12.75-13.3c.9-3 2.42-4.46 5.06-4.82-3.47-5.05-6.1-6.05-7.88-4.37-1.77 1.7-1.35 4.95 2.82 9.2zM408.3 94.9c-.07-3.15.9-5 3.3-6.16-4.84-3.73-7.65-3.88-8.82-1.73-1.17 2.16.23 5.13 5.5 7.9zm13.95 10.46c.5-3.1 1.78-4.76 4.34-5.48-4.15-4.52-6.9-5.15-8.4-3.24-1.54 1.92-.67 5.1 4.05 8.72zm-29.9-19.25c-.37-3.1.42-5.06 2.68-6.46-5.2-3.2-8.02-3.07-8.96-.8-.94 2.25.76 5.06 6.3 7.27zM376.1 79c-.83-3.03-.34-5.07 1.7-6.78-5.6-2.43-8.37-1.9-8.98.48-.6 2.37 1.48 4.9 7.27 6.3zm-17.55-5.43c-1.07-2.96-.75-5.03 1.14-6.9-5.8-1.95-8.52-1.17-8.92 1.24-.4 2.42 1.9 4.78 7.77 5.67zm-17.22-3.34c-1.3-2.86-1.1-4.96.64-6.96-5.93-1.53-8.57-.56-8.8 1.88-.24 2.44 2.23 4.62 8.16 5.08zm-18.24-1.4c-1.6-2.7-1.63-4.8-.1-7-6.06-.9-8.58.35-8.56 2.8.02 2.45 2.7 4.36 8.65 4.2zm-35.72 2.7c-2.2-2.26-2.74-4.3-1.78-6.77-6.1.58-8.24 2.4-7.63 4.77.6 2.37 3.67 3.58 9.4 2zm17.57-2.32c-1.86-2.52-2.13-4.6-.84-6.93-6.1-.25-8.48 1.26-8.2 3.7.3 2.42 3.16 4.03 9.06 3.24zm-34.82 6.05c-2.5-1.92-3.32-3.85-2.73-6.44-5.95 1.46-7.8 3.56-6.87 5.82.95 2.26 4.15 3.02 9.6.63zm-33.03 15.2c-2.8-1.43-4-3.16-3.9-5.82-5.56 2.56-7 4.98-5.64 7 1.36 2.05 4.64 2.2 9.54-1.2zm15.93-8.15c-2.62-1.74-3.58-3.6-3.17-6.24-5.83 1.87-7.55 4.1-6.45 6.28 1.1 2.2 4.36 2.72 9.63-.04zm-45.55 28.76c-3.04-.8-4.56-2.25-5.02-4.87-4.9 3.66-5.8 6.32-4.06 8.03 1.75 1.7 5 1.16 9.08-3.17zM221.6 99.5c-2.96-1.04-4.36-2.6-4.62-5.25-5.18 3.27-6.28 5.85-4.67 7.7 1.62 1.83 4.9 1.54 9.3-2.46zm-26.68 23.93c-3.1-.52-4.74-1.82-5.44-4.4-4.56 4.1-5.2 6.84-3.3 8.38 1.9 1.55 5.07.7 8.74-3.97zm-11.25 14.6c-3.14-.23-4.9-1.38-5.82-3.88-4.17 4.5-4.57 7.28-2.54 8.64 2.04 1.36 5.14.23 8.37-4.77zm-9.42 14.94c-3.13.24-5.04-.62-6.34-2.94-3.42 5.07-3.4 7.88-1.18 8.92 2.22 1.04 5.1-.55 7.53-5.98zM166 168.92c-3.1.65-5.1.04-6.7-2.1-2.73 5.48-2.34 8.27 0 9 2.33.75 4.98-1.2 6.7-6.9zm-6.63 16.37c-2.93 1.12-5 .83-6.92-1.02-1.84 5.84-1 8.53 1.4 8.9 2.43.35 4.74-2 5.52-7.9zm-4.43 18.22c-2.85 1.32-4.94 1.18-6.97-.54-1.44 5.95-.44 8.57 2 8.77 2.44.2 4.6-2.3 4.97-8.23zm-1.8 15.18c-2.68 1.42-4.77 1.6-6.97.52-.8 4.85.48 6.77 2.92 6.6 2.43-.18 4.3-2.42 4.04-7.12zm307-72.22c1.06-2.95 2.64-4.33 5.3-4.55-3.2-5.23-5.77-6.37-7.64-4.78-1.86 1.6-1.6 4.87 2.33 9.33zm25.15 85c2.3-2.14 4.35-2.64 6.8-1.6-.43-6.12-2.2-8.32-4.57-7.76-2.38.55-3.67 3.57-2.23 9.35z"/><path fill="#217900" fill-rule="evenodd" stroke="#000" stroke-width="1.857" d="M461.32 132c-.07 0-6.93 6.86-5.74 15.2 1.2 8.34 6.48 18.62 5.52 27.26-.97 8.64-2.54 14.37-2.54 14.37s8.05-9.16 8.12-17.95c.08-8.78-5.5-20.33-5.5-26.8s.3-12.22.14-12.07zm12.73 28s-5.36 3.95-4.84 13.04c.53 9.08 9.92 25.77 9.92 25.77s6.85 14.08 6.62 17.73c-.22 3.65 1.27-3.5.6-11.54s-11.02-25.78-11.02-25.78-2.24-3.65-2-9.68c.2-6.03.8-9.46.73-9.53z" stroke-linejoin="round"/><path fill="#6b18b5" fill-rule="evenodd" d="M312.93 47.43c0-1.88-2.12-3.4-4.73-3.4s-4.72 1.52-4.72 3.4 2.1 3.4 4.72 3.4 4.73-1.52 4.73-3.4zm2 7.92c0-1.8-2.16-3.27-4.85-3.27-2.68 0-4.86 1.47-4.86 3.27s2.18 3.26 4.86 3.26c2.7 0 4.87-1.45 4.87-3.25zm6.05-9.38s-5.55 4.17-3.26 5.84c2.3 1.67 8.6-3.6 8.6-3.6L321 45.97zm163.34 95.43c0-1.18-.55-2.28-1.46-2.87a2.62 2.62 0 0 0-2.92 0c-.9.6-1.45 1.7-1.45 2.87 0 1.2.54 2.28 1.44 2.87a2.62 2.62 0 0 0 2.92 0c.9-.6 1.46-1.7 1.46-2.87zm-2.12-7.95c0-1.97-1.37-3.57-3.05-3.57s-3.05 1.6-3.05 3.58 1.36 3.57 3.05 3.57 3.05-1.6 3.05-3.57zm1.46 16.17c0-1.03-.54-1.86-1.2-1.86s-1.2.83-1.2 1.86.55 1.85 1.2 1.85 1.2-.83 1.2-1.85zm4.9-14.45c0-1.17-.54-2.12-1.2-2.12-.65 0-1.2.95-1.2 2.12s.55 2.12 1.2 2.12c.66 0 1.2-.96 1.2-2.13zm-13.4 1.46c0-.95-.52-1.72-1.18-1.72s-1.2.78-1.2 1.73.54 1.72 1.2 1.72 1.2-.77 1.2-1.72zm2.14 11.4c0-1.54-1.13-2.78-2.52-2.78s-2.52 1.24-2.52 2.78c0 1.54 1.13 2.8 2.52 2.8s2.52-1.26 2.52-2.8zm-6.63-5.04c0-1.32-.95-2.4-2.12-2.4-1.18 0-2.12 1.08-2.12 2.4s.94 2.38 2.12 2.38c1.17 0 2.12-1.07 2.12-2.4zm-1.06-6.77c0-.7-.34-1.37-.9-1.72a1.75 1.75 0 0 0-1.87 0c-.58.36-.93 1.02-.93 1.73 0 .7.35 1.37.93 1.73a1.75 1.75 0 0 0 1.86 0c.56-.36.9-1.02.9-1.73zm30.22 34.37c-2.74-3.62-7.12-5.14-9.8-3.4-2.66 1.73-2.6 6.07.13 9.68 2.74 3.6 7.12 5.13 9.8 3.4 2.66-1.74 2.6-6.07-.13-9.68zm7.78 66.65c.53-4.43-1.63-8.34-4.83-8.72-3.2-.38-6.22 2.9-6.75 7.33-.53 4.44 1.63 8.34 4.83 8.72 3.2.4 6.22-2.9 6.75-7.33zm1.64 38.8c.9-4.38-.9-8.45-4.06-9.1-3.15-.67-6.44 2.34-7.35 6.7-.9 4.38.9 8.46 4.05 9.12 3.16.66 6.45-2.35 7.36-6.73zm7.48-36.32c0-1.76-1.2-3.18-2.65-3.18s-2.65 1.42-2.65 3.18c0 1.76 1.18 3.18 2.65 3.18s2.65-1.4 2.65-3.17zm-6.5 7.3l-5.43 6.15s-5.1.14-4.84 1.8c.26 1.65 7.02 6.62 6.95 8.6-.05 2 4.52-.46 4.52-.46s3.64-11.06 3.64-11.13c0-.07-.2-7.7-2.18-7.56-2 .13-2.53 2.44-2.65 2.58zm-357.38-2.44a2.6 2.6 0 1 0-5.18 0 2.6 2.6 0 0 0 5.18 0zm2.43-7.92c0-1.5-1.15-2.73-2.58-2.73s-2.6 1.23-2.6 2.73 1.16 2.73 2.6 2.73c1.42 0 2.57-1.2 2.57-2.72zm-21.23-37.57c-.97-2.17-3-3.38-4.5-2.7-1.53.68-1.98 3-1 5.17.96 2.17 2.98 3.38 4.5 2.7 1.52-.68 1.97-3 1-5.16zm6.4 23.42c-1.32-2.82-4.1-4.4-6.18-3.5s-2.7 3.87-1.38 6.68 4.1 4.4 6.2 3.5 2.7-3.87 1.37-6.68zm6.88 17.17c.43-3.53-1.03-6.77-3.26-7.23-2.23-.47-4.4 2-4.82 5.52-.43 3.5 1.03 6.74 3.26 7.2 2.23.48 4.4-2 4.82-5.5zm-11.02 2.5c1.38-3.27.86-6.78-1.15-7.84s-4.77.72-6.15 4-.86 6.76 1.15 7.82 4.77-.72 6.15-4zM131.28 234.8c0-1.65-1.28-3-2.87-3s-2.87 1.35-2.87 3 1.3 3.03 2.88 3.03 2.88-1.35 2.88-3.02zm-2.3-7.45c0-1.5-1.15-2.73-2.58-2.73-1.43 0-2.6 1.22-2.6 2.73 0 1.5 1.17 2.73 2.6 2.73s2.58-1.23 2.58-2.74zm2.45-14.37c0-2.54-1.13-4.6-2.52-4.6-1.37 0-2.5 2.06-2.5 4.6 0 2.54 1.13 4.6 2.5 4.6s2.53-2.06 2.53-4.6zm7.73-1.1c.34-2.52-.5-4.7-1.88-4.9-1.38-.18-2.76 1.7-3.1 4.23-.33 2.53.5 4.72 1.9 4.9 1.36.18 2.75-1.7 3.08-4.23zm55.13-110c1-3.55-.05-7.13-2.37-8-2.33-.84-5.05 1.36-6.08 4.92-1.02 3.56.04 7.15 2.36 8 2.34.86 5.06-1.34 6.1-4.9zm-10.48 15.88c3.07-2.62 4.38-6.23 2.93-8.07-1.45-1.86-5.12-1.24-8.2 1.38s-4.37 6.22-2.92 8.07c1.45 1.84 5.12 1.22 8.2-1.4zm-6.1-8.8c3.02-2.25 4.32-5.35 2.9-6.94s-5.08-1.04-8.1 1.2c-3.05 2.24-4.35 5.34-2.9 6.93s5.05 1.05 8.1-1.2zm23.54-15.5c2.05-1.56 2.92-3.72 1.95-4.83-.96-1.1-3.4-.73-5.45.84s-2.92 3.73-1.95 4.83c.96 1.1 3.4.73 5.46-.83zM188.98 108.47c1.4-2.16 1.5-4.5.2-5.2-1.28-.72-3.45.45-4.85 2.62s-1.5 4.48-.2 5.2c1.27.7 3.45-.46 4.85-2.63zm17.72-9.27c2.2-1.86 3.06-4.32 1.9-5.5-1.13-1.17-3.84-.62-6.05 1.24s-3.06 4.3-1.9 5.5c1.13 1.16 3.84.6 6.05-1.24zm-32.02 21.63c2.06-.1 3.6-1.13 3.47-2.3-.14-1.16-1.93-2-3.98-1.9-2.06.1-3.62 1.12-3.47 2.28.14 1.17 1.92 2.03 3.98 1.93zm38.76-33.13c1.4-2.16 1.5-4.5.2-5.2-1.27-.72-3.45.45-4.85 2.62s-1.5 4.5-.22 5.2c1.28.72 3.46-.45 4.86-2.62z"/><path fill="#ffd200" fill-rule="evenodd" stroke="#ef8a10" stroke-width=".968" d="M446.83 153.38s6.4-10.1 3.92-19.63c-2.47-9.5-13-2.8-12.78.6.22 3.38 6.8 7.9 7.2 9.98.4 2.07-.74 8.42 1.66 9.04z"/><path fill="#217900" fill-rule="evenodd" stroke="#000" stroke-width="2.322" d="M324.88 69.3s23 .9 23.16 15.8c-.07 2.3 0 5.05-.82 11.68 4.55-2.46 7.6-9.3 7-13.7.08-15.12-20.55-25.47-29.34-13.78zM310.3 68.63s18.53-3.87 18.68 11.02c.15 14.9-5.88 17.28-5.88 17.28s14.22-3.05 14.3-18.17c.07-15.12-18.32-21.82-27.1-10.13z" stroke-linejoin="round"/><path fill="#f7df73" fill-rule="evenodd" stroke="#000" stroke-width="2.477" d="M373.28 389.95s86.8-24.52 113-131.04C471.1 368.26 376.1 402.93 376.1 402.93l-2.82-12.97z" stroke-linejoin="round"/><path fill="#8c1800" fill-rule="evenodd" d="M382.2 396.58c2.67 0 9.3-7.34 13.12-8.2 3.8-.83 4.23-4.65-.14-4.8-4.38-.13-8.2 4.96-8.2 4.96s-3.8 3.24-7.76 3.67c-3.95.43-1.4 5.37 2.97 4.38z"/><path fill="#8c1800" fill-rule="evenodd" stroke="#8c1800" stroke-width="2.477" d="M432.17 359.3s-9.04 5.22-7.77 6.5c1.27 1.26 9.32-4.95 9.46-5.1.14-.13 3.4-4.08-1.7-1.4z"/><path fill="#8c1800" fill-rule="evenodd" d="M400.68 383.04s-2.7-1 4.23-3.67c6.93-2.7 6.5-5.8 8.77-7.07 2.26-1.27 7.06-4.66 8.05-2.68s-5.1 5.93-6.5 6.36c-1.4.42-8.33 6.77-10.3 7.34-1.98.56-3.4.28-4.24-.28z"/><path fill="none" stroke="#8c1800" stroke-width="3.019" d="M445.58 346.04c-5.93 6.63-5.93 6.5-5.93 6.5" stroke-linecap="round"/><path fill="none" stroke="#8c1800" stroke-width="2.786" d="M454.5 335.16l-5.66 6.92" stroke-linecap="round"/><path fill="none" stroke="#8c1800" stroke-width="2.554" d="M463.37 321.04l-6.35 10.17" stroke-linecap="round"/><path fill="none" stroke="#8c1800" stroke-width="2.322" d="M470.86 306.64l-5.23 10.45m8.62-18.1l-1.7 3.68" stroke-linecap="round"/><path fill="none" stroke="#8c1800" stroke-width="1.393" d="M478.06 289l-1.42 4.36" stroke-linecap="round"/><path fill="#f7df73" fill-rule="evenodd" stroke="#000" stroke-width="1.483" d="M160.26 215.97s51.96-14.68 67.65-78.44c-9.1 65.45-65.95 86.2-65.95 86.2l-1.7-7.76z" stroke-linejoin="round" transform="matrix(-1.655 0 0 1.701 524.795 20.382)"/><path fill="#8c1800" fill-rule="evenodd" d="M250.7 394.42c-2.66 0-9.24-7.48-13-8.34-3.8-.86-4.2-4.74.13-4.9 4.33-.13 8.1 5.04 8.1 5.04s3.8 3.3 7.7 3.74c3.92.43 1.4 5.46-2.93 4.46z"/><path fill="#8c1800" fill-rule="evenodd" stroke="#8c1800" stroke-width="1.483" d="M195.5 197.62s-5.4 3.13-4.64 3.9c.76.75 5.58-2.97 5.66-3.06.1-.08 2.03-2.45-1-.84z" transform="matrix(-1.655 0 0 1.701 524.795 20.382)"/><path fill="#8c1800" fill-rule="evenodd" d="M232.37 380.62s2.66-1-4.2-3.73-6.43-5.9-8.67-7.2c-2.24-1.3-7-4.74-7.97-2.73s5.03 6.04 6.43 6.47c1.4.43 8.26 6.9 10.22 7.47 1.95.6 3.35.3 4.2-.28z"/><path fill="none" stroke="#8c1800" stroke-width="1.807" d="M203.54 189.68c-3.55 3.97-3.55 3.9-3.55 3.9" stroke-linecap="round" transform="matrix(-1.655 0 0 1.701 524.795 20.382)"/><path fill="none" stroke="#8c1800" stroke-width="1.668" d="M208.87 183.17l-3.38 4.14" stroke-linecap="round" transform="matrix(-1.655 0 0 1.701 524.795 20.382)"/><path fill="none" stroke="#8c1800" stroke-width="1.529" d="M214.2 174.72l-3.8 6.1" stroke-linecap="round" transform="matrix(-1.655 0 0 1.701 524.795 20.382)"/><path fill="none" stroke="#8c1800" stroke-width="1.39" d="M218.67 166.1l-3.13 6.25m5.16-10.82l-1 2.2" stroke-linecap="round" transform="matrix(-1.655 0 0 1.701 524.795 20.382)"/><path fill="none" stroke="#8c1800" stroke-width=".834" d="M222.98 155.53l-.84 2.62" stroke-linecap="round" transform="matrix(-1.655 0 0 1.701 524.795 20.382)"/><path fill="#217900" fill-rule="evenodd" stroke="#000" stroke-width="2.322" d="M490.42 239.3c.43 6.68 6.97 13.08 4.4 24.74-3.26 13.22-14.78 44.64-12.8 50.2-3.4-4.7-2.83-9.1-3.1-15.65-.3-6.55 9.5-30.86 10.36-39.1 0-7.4.7-17.5 1.14-20.2zM490.42 239.44s10.66 13.5 10.1 24.17c-.57 10.67-6.55 23.18-4.56 28.73-3.4-4.7-4.26-7.68-4.54-14.22-.3-6.53 5.26-13.78 4.12-20.9-1.14-7.1-5.26-17.76-5.12-17.76zm-349.3 3c-.42 6.67-5.4 12.64-2.84 24.3 3.27 13.22 14.93 30 13.08 49.2 3.4-4.7 4.4-9.96 4.7-16.5.28-6.54-12.95-28.58-13.8-36.82 0-7.4-.7-17.5-1.14-20.2zM141.12 242.57s-10.38 13.08-9.8 23.75c.13 7.1 13.2 36.82 11.22 42.36 3.42-4.7 4.4-4.12 4.27-11.23-3.83-18.2-10.65-29.85-9.52-36.96 1.14-7.12 3.98-17.92 3.84-17.92z" stroke-linejoin="round"/><path fill="#fff" stroke="#000" stroke-width="1.17.661" stroke-dashoffset="1" d="M318.44 122.96l25.83 79.5h83.6l-67.63 49.16 25.83 79.5-67.63-49.1-67.63 49.13 25.84-79.52L209 202.5h83.6z" stroke-linejoin="round" stroke-linecap="square"/></g></svg>