<svg xmlns="http://www.w3.org/2000/svg" width="640" height="480"><path fill="#006" d="M0 0h640v480H0z"/><g fill-rule="evenodd"><path fill="#fff" d="M408.3 192.25h214.3l-.26 153.44c1.78 61.67-36.42 99.95-106.72 117.2-49.93-12.47-107.5-38.27-107.57-115.46l.25-155.2z"/><path fill="#00a2bd" stroke="#000" stroke-width="1pt" d="M44.07 22.7h169.3l-.2 120.8c1.4 48.56-28.78 78.7-84.32 92.28-39.44-9.82-84.9-30.13-84.98-90.9l.2-122.17z" transform="matrix(1.21 0 0 1.217 359.74 169.23)"/><path fill="#a53d08" d="M616.25 361.33c-7.45 56.42-50.63 81.07-100.65 94.15-44.28-11.95-91.9-31.03-101.14-93.87l201.8-.27z"/></g><g fill-rule="evenodd" stroke="#000"><path fill="#ffc6b5" d="M548.16 409.23c.1.1.8 11.3-5.22 18.17 5.33 1.7 8.97-.35 10.67-2.52 1.72-2.17 2.28-4.9 2.28-4.9s1.48-.93 1.7-2.98c.12-2.86-1.13-2.86-2.15-3.43l.23-6.4s-6.14-3.77-7.5 2.06z"/><path fill="#ff9a08" d="M547.82 425.23l-1.82-1.48"/></g><path fill="#ffc6b5" fill-rule="evenodd" stroke="#000" stroke-width="1pt" d="M141.64 69.4s.12 5.62-.23 6.2c-.35.6-3.55 2.07-3.55 2.07l2.73 5.82s7.7-1.1 7.74-1.1 3.32-8.7 3.32-8.7-1.72-2.9-1.3-5.9c-2.57-8.17-8.58 1.63-8.7 1.6z" transform="matrix(1.21 0 0 1.217 359.74 169.23)"/><path fill="#005121" fill-rule="evenodd" stroke="#000" stroke-width="1.25" d="M131.45 203.1s4.32 4.3 9.3 3.75c11.26-1.22 14.55-11.27 18.02-11.36s5.64 6.1 8.92 5.34c-2.82-5.17-5.83-16.62-5.36-24.7.47-8.07.47-42.06.47-42.06s-5.62-17.56-8.25-20.47c2.63-2.8 4.4-7.78 4.32-13.23-.1-5.45 0-11.45 0-11.45s1.3-1.5 1.22-5.73c-.1-4.24-7.15-10.34-8.1-10.06-.93.28-9.75 7.9-10.5 9.67-.76 1.8-1.8-6.47-.1-7.22s-3.94-1.22-7.5 3c-3.58 4.23-2.54 124.7-2.45 124.5z" stroke-linejoin="round" transform="matrix(1.21 0 0 1.217 359.74 169.23)"/><path fill-rule="evenodd" d="M467.52 224.12l39.97.15-.3-18.53 14.56.14.15 18.4h39.83l.15 14.35-39.97.15-.3 169.4-14.22.1-.18-169.65-39.7.15.02-14.65z"/><path fill="#ffc6b5" fill-rule="evenodd" stroke="#000" stroke-width="1pt" d="M122.03 81.96s-2.26-.4-3.98.13 2.65-19.6 2.65-21.25c1.53-.73 9.16-2.13 8.97-7.5-.54-3.26-11.82.2-11.62 4.3-.73 2.07-8.1 23.05-6.64 29.95 2.6 2.06 7.38 1.66 10.63 1.13v-6.77z" transform="matrix(1.21 0 0 1.217 359.74 169.23)"/><path fill="none" stroke="#000" stroke-width=".625" d="M124.22 53.2s-.66 3.73 2.72 4.26" stroke-linecap="round" transform="matrix(1.21 0 0 1.217 359.74 169.23)"/><path fill="none" stroke="#000" stroke-width=".375" d="M129.2 53.14c-.13.07-4.38 2.73-4.38 2.73m4.12-1.07l-3 2.2m1.87-4.65l-3.3 2" transform="matrix(1.21 0 0 1.217 359.74 169.23)"/><path fill="#ff9a08" fill-rule="evenodd" stroke="#000" stroke-width="1pt" d="M95.5 163.56l30.13 31.27c10.42-11.46 3.2-54.28-10.52-62.16-1.63 5.07-4.42 11.15-7.4 13.1-6.53 4.46-22.54 9.67-17.2 13 1.23-1.7 4.43-3.3 5.93.47 1.78 5.92-6.67 6.3-6.67 6.3s-5.35-.67-6.3-6.1c-.93-5.46 7.98-10.43 8.74-10.8.76-.3 12.4-3.4 14.37-13.72 2.44-10.14 4.98-8.64 5.45-8.82 15.2 1.5 25.16 28.73 25.72 47.88.57 19.16-7.8 31.83-9.3 32.68-1.5.84-36.24-41.22-36.24-41.22l3.3-1.88z" transform="matrix(1.21 0 0 1.217 359.74 169.23)"/><path fill="none" stroke="#000" stroke-width="1pt" d="M117.46 134.45l.2 56.43m-3.58-55.4l.2 51.27m-3.86-43.85l.2 40.75m-3.2-37.84l.2 33.72m-3.4-32.2v28.45m-3.47-26.2v22.53m-3-20.75v17.28" transform="matrix(1.21 0 0 1.217 359.74 169.23)"/><path fill="none" stroke="#ffdf00" stroke-width="1.25" d="M95.02 167.13l31.08 35.58m1.5-58s14.1 30.8 1.03 56.14m-37.27-40.2s1.03-2.7 2.35-1.6m-4.78-6.28s-5.64 4.98-2.54 8.17" stroke-linecap="round" transform="matrix(1.21 0 0 1.217 359.74 169.23)"/><path fill="none" stroke="#000" stroke-width="1pt" d="M141.03 83s.47 4.32-.47 7.6 3.57 12.4 1.88 14.28m.47 8.82l11.84-.1" transform="matrix(1.21 0 0 1.217 359.74 169.23)"/><path fill="none" stroke="#000" stroke-width="1pt" d="M138.6 118.5c.08.18 1.4 6.2 1.02 10.32m2.82-8.17c-.37 1.22-5.26 15.12-5.07 15.68m7.98-21.97c.1.28-.37 8.83-1.7 10.05m7.7-10.7s7.7 17.84 7.62 24.88 2.63 21.32.84 27.6m-6-27.78s-.56 13.24-6.1 18.4c-5.54 5.17 13.24 19.9 13.24 19.9" stroke-linecap="round" transform="matrix(1.21 0 0 1.217 359.74 169.23)"/><path fill="none" stroke="#000" stroke-width="1.25" d="M153.6 175.86s2.08 18.21 5.55 19.53m-22.53-50.06c.1.2-1.88 12.3-.28 14.27 1.6 1.98 14.83 20.48 14.27 39.64m-3.75-5.73s-.38 11.56-11.08 12.5m7.9-20.1s3.18 12.03-7.7 19.63" stroke-linecap="round" transform="matrix(1.21 0 0 1.217 359.74 169.23)"/><path fill="none" stroke="#000" stroke-width="1pt" d="M147.88 156.9s12.3 12.76 12.86 18.4m-9.3-61.32s2.17 9.1 1.32 10.7" stroke-linecap="round" transform="matrix(1.21 0 0 1.217 359.74 169.23)"/><path fill="#ffc6b5" fill-rule="evenodd" stroke="#000" stroke-width="1pt" d="M113.5 132.7s-1.3-2.3-1.14-4.87-.4-6.5 7.82-9.7c5.02-5.1 10.62-8.16 13.66-9.72 4.45-2.87 7.33-2.22 9.96-3.2 1.73-1.98 1.65-6.34 3.46-10.2 1.8-3.88 5.02-11.86 8.48-10.63 3.45 1.24.74 11.6-.58 15.23s-2.47 7.4-4.77 9.63c-2.32 2.22-12.77 6.26-14.83 7s-11.44 2.88-13.83 6.17c-2.4 3.3-2.22 8.15-8.23 10.3z" transform="matrix(1.21 0 0 1.217 359.74 169.23)"/><path fill="none" stroke="#000" stroke-width="1pt" d="M112.85 125.78c.25-.08 4.12-1.32 5.93 2.14" transform="matrix(1.21 0 0 1.217 359.74 169.23)"/><path fill="#ffc6b5" fill-rule="evenodd" stroke="#000" stroke-width="1.25" d="M141.9 55.2s-1.73 2.84-2.2 4.56c-.4 1.3-1.6-.1-2.23 2.7l1.03.2c-.4.8-.54 2.2-.62 2.53-.1.32-.66 1.83-.58 2.96.05.58 1.15 3.13 10.13-.74 8.97-3.87-2.9-14.85-5.52-12.22z" stroke-linejoin="round" transform="matrix(1.21 0 0 1.217 359.74 169.23)"/><path fill="#c59200" fill-rule="evenodd" stroke="#000" stroke-width="1.261" d="M140.9 55.56c.92-.5 7.46-1.07 6.37 11.7 1.25-.17 2-.34 2.76.9.76 1.23.67 2.7 2 2.7 1.35 0 1.52-.23 1.86-1.22.32-1 5.52 1.15 6.86-3.46-.24-.9-3.2-2.3-3.52-3.95.75-2.3-.34-9.8-9.9-10.2-4.93-.1-5.94 1.97-6.44 3.53z" stroke-linejoin="round" stroke-linecap="round" transform="matrix(1.21 0 0 1.217 359.74 169.23)"/><path fill="none" stroke="#000" stroke-width="1pt" d="M140.42 58.12c.08.08 2.96.9 3.3 2.3" stroke-linecap="round" transform="matrix(1.21 0 0 1.217 359.74 169.23)"/><path fill-rule="evenodd" d="M531.73 244.1c0 .52-.4.94-.9.94s-.9-.42-.9-.95.4-.96.9-.96.9.43.9.95z"/><path fill="none" stroke="#000" stroke-width="1.25" d="M154.38 61.54s-1.05 5.08 3.6 7.07m-7.04-6.43s1.72.07 1.72 1.68c0 1.6-1.4 1.8-1.3 3.08.12 1.3 2.43 1.72 2.5 2.8M143.4 52.8c.08 0 8.24.93 7.77 2.96-.46 2.03-1.75 1.2-1.7 2.97s3.27.7 3.27.7.2-1.48 1.56-1.36.74 1.67 2.62 1.63" stroke-linejoin="round" stroke-linecap="round" transform="matrix(1.21 0 0 1.217 359.74 169.23)"/><path fill="none" stroke="#000" stroke-width="1.25" d="M138.4 65.46l1.95-.07" stroke-linecap="round" transform="matrix(1.21 0 0 1.217 359.74 169.23)"/><path fill="none" stroke="#000" stroke-width="1pt" d="M143.45 73.7s.72 3.36-2 3.04" stroke-linecap="round" transform="matrix(1.21 0 0 1.217 359.74 169.23)"/><path fill="#fff" d="M0 .06V28.5l343.65 225.93h43.25V226L43.26.06H0zm386.9 0V28.5L43.26 254.43H0V226L343.65.05h43.25zM161.2.06v254.37h64.5V.06h-64.5zM0 84.86v84.78h386.9v-84.8H0z"/><path fill="#c00" d="M0 101.8v50.9h386.9v-50.9H0zM174.1.07v254.37h38.7V.06h-38.7zM0 254.43l128.97-84.8h28.83l-128.96 84.8H0zM0 .06l128.97 84.8h-28.84L0 19V.06zm229.1 84.8L358.07.05h28.83l-128.96 84.8H229.1zm157.8 169.57l-128.96-84.8h28.83l100.13 65.84v18.96z"/></svg>