<svg xmlns="http://www.w3.org/2000/svg" width="640" height="480"><g fill-rule="evenodd"><path fill="#ce0000" d="M320 0h320v480H320z"/><path fill="#fff" d="M0 0h320v480H0z"/></g><g transform="translate(-12.38 -30.751) scale(1.599)"><path fill="#f1eeee" fill-rule="evenodd" d="M104.82 108.07c0 .8-.9 1.46-2.04 1.46-1.14 0-2.05-.65-2.05-1.46 0-.8.9-1.47 2.04-1.47 1.14 0 2.05.66 2.05 1.47z"/><path fill="#c00" fill-rule="evenodd" d="M40.73 100.98v37.2h37.2c0 6.2 6.2 12.4 12.4 12.4v37.22h37.22v-37.2c6.2 0 12.4-6.2 12.4-12.4h37.2v-37.22h-37.2c0-6.2-6.2-12.4-12.4-12.4v-37.2h-37.2v37.2c-6.2 0-12.4 6.2-12.4 12.4H40.72z"/><path fill="#ffe600" fill-rule="evenodd" d="M41.97 102.22v34.73h37.2c0 6.2 6.2 12.4 12.4 12.4v37.2h34.74v-37.2c6.2 0 12.4-6.2 12.4-12.4h37.23v-34.73H138.7c0-6.2-6.2-12.4-12.4-12.4v-37.2H91.6v37.2c-6.2 0-12.4 6.2-12.4 12.4h-37.2z"/><path fill="#707070" fill-rule="evenodd" d="M43.2 103.46v32.25h37.22c0 6.2 6.2 12.4 12.4 12.4v37.22h32.25v-37.2c6.2 0 12.4-6.2 12.4-12.4h37.2v-32.26h-37.2c0-6.2-6.2-12.4-12.4-12.4v-37.2H92.82v37.2c-6.2 0-12.4 6.2-12.4 12.4h-37.2z"/><path fill="#a0a0a0" fill-rule="evenodd" d="M44.45 104.7v29.77h37.2c0 6.2 6.2 12.4 12.4 12.4v37.2h29.78v-37.2c6.2 0 12.4-6.2 12.4-12.4h37.2V104.7h-37.2c0-6.2-6.2-12.4-12.4-12.4V55.1H94.06v37.2c-6.2 0-12.4 6.2-12.4 12.4h-37.2z"/><g fill-rule="evenodd"><path fill="#d0d0d0" d="M94.37 89.22c2.18 2.18.4 7.48-3.95 11.84s-9.66 6.13-11.84 3.95c-2.18-2.17-.4-7.47 3.95-11.83s9.66-6.13 11.84-3.95z"/><path fill="#808080" d="M91.74 91.85c2.18 2.18 1.6 6.3-1.32 9.2s-7.03 3.5-9.2 1.33c-2.2-2.18-1.6-6.3 1.3-9.2s7.04-3.5 9.22-1.33z"/><path fill="#d0d0d0" d="M80.77 98.43l.88-.88 3.5 1.76-1.75-3.5.88-.88 3.5 7.02-7-3.5zm5.27-5.26l.87-.88 5.28 5.25-.88.88z"/></g><g fill-rule="evenodd"><path fill="#d0d0d0" d="M139.3 105c-2.17 2.2-7.47.42-11.83-3.94s-6.13-9.66-3.95-11.84c2.18-2.18 7.48-.4 11.84 3.95s6.13 9.66 3.95 11.84z"/><path fill="#808080" d="M136.68 102.38c-2.18 2.18-6.3 1.6-9.2-1.32s-3.5-7.03-1.33-9.2c2.18-2.2 6.3-1.6 9.2 1.3s3.5 7.04 1.33 9.22z"/><path fill="#d0d0d0" d="M130.1 91.4l.88.9-1.76 3.5 3.5-1.76.9.88-7.03 3.5 3.5-7zm5.26 5.28l.88.87-5.26 5.27-.88-.88z"/></g><g fill-rule="evenodd"><path fill="#d0d0d0" d="M123.52 149.95c-2.18-2.18-.4-7.48 3.95-11.84s9.66-6.12 11.84-3.94c2.2 2.18.42 7.48-3.94 11.84s-9.66 6.13-11.84 3.95z"/><path fill="#808080" d="M126.15 147.32c-2.18-2.18-1.6-6.3 1.32-9.2s7.03-3.5 9.2-1.33c2.2 2.17 1.6 6.3-1.3 9.2s-7.04 3.5-9.22 1.32z"/><path fill="#d0d0d0" d="M137.12 140.74l-.88.88-3.5-1.76 1.74 3.5-.87.9-3.5-7.03 7.02 3.5zm-5.27 5.26l-.87.88-5.27-5.26.9-.88z"/></g><g fill-rule="evenodd"><path fill="#d0d0d0" d="M78.58 134.16c2.18-2.18 7.5-.4 11.84 3.94s6.13 9.66 3.95 11.84c-2.18 2.18-7.48.42-11.84-3.94s-6.12-9.66-3.95-11.84z"/><path fill="#808080" d="M81.22 136.8c2.18-2.2 6.3-1.6 9.2 1.3s3.5 7.03 1.32 9.2c-2.18 2.2-6.3 1.6-9.2-1.3s-3.5-7.03-1.33-9.2z"/><path fill="#d0d0d0" d="M87.8 147.75l-.88-.87 1.75-3.5-3.5 1.74-.9-.88 7.03-3.5-3.5 7zm-5.27-5.26l-.88-.9 5.26-5.25.9.88z"/></g><path fill="none" stroke="#707070" stroke-width="1pt" d="M269.3 414.57c0 41.1-34.12 74.4-76.2 74.4s-76.17-33.3-76.17-74.4 34.1-74.4 76.18-74.4 76.2 33.3 76.2 74.4z" transform="matrix(.342 0 0 .35 42.921 -25.527)"/><path fill="none" stroke="#707070" stroke-width="1pt" d="M269.3 414.57c0 41.1-34.12 74.4-76.2 74.4s-76.17-33.3-76.17-74.4 34.1-74.4 76.18-74.4 76.2 33.3 76.2 74.4z" transform="matrix(.261 0 0 .267 58.641 9.023)"/><path fill="#d0d0d0" fill-rule="evenodd" d="M100.27 140.67a1.24 1.24 0 1 1-2.5 0 1.24 1.24 0 0 1 2.5 0zm19.84 0a1.24 1.24 0 1 1-2.47 0 1.24 1.24 0 0 1 2.48 0zm-11.98 0v1.3h-1.65c-1.66 0-1.66 1.3 0 1.3h1.65v1.28c0 1.34 1.44 1.5 1.55.1l.1-1.4h1.66c1.65 0 1.65-1.3 0-1.3h-1.66v-1.28c0-1.3-1.65-1.3-1.65 0z"/><path fill="#d0d0d0" fill-rule="evenodd" stroke="#707070" stroke-width=".146" d="M102.77 122.35v.73s-.4.56-2.87.74c-2.48.17-2.87 0-2.87 0 .07.64.55 1.85.4 3.3.1 1.68-.46 3.2-.46 3.2.06.1-.23.14-.75.1.4-.37.36-1.43.4-2.94.05-1.5-1.56-3.77-1.23-4.4.33-.62 7.37-.73 7.37-.73zm9.84-2.66c2.42-.12 6.47-.1 6.47-.1s.95 1.92.9 2.97c-.03 1.06-.35 1.96-.8 1.5-.45-.44.2-.35.3-1.5.07-1.14-.8-2.32-.8-2.32s-1.72.75-4.32.6c-2.6-.15-1.45-1.12-1.74-1.16zM113.43 121.58c2.4-.1 4 .26 4 .26s.95 1.9.9 2.97c-.03 1.07-.36 1.97-.8 1.52-.46-.45.2-.37.28-1.5.1-1.15-.76-2.34-.76-2.34s-1.73.76-4.33.6c-2.6-.15-1.85-.3-2.14-.35-.3-.04-.37.72-4.3.83-3.94.1-5.95-.83-5.95-.83s-.38.56-2.85.74c-2.48.17-2.87 0-2.87 0 .06.64.55 1.85.4 3.3.1 1.68-.47 3.2-.47 3.2.08.1-.22.14-.74.1.4-.37.36-1.43.4-2.94.06-1.5-1.56-3.77-1.22-4.4.33-.62 2.12-.04 2.46-.36.34-.33-1.6-2.62-1.23-4.77.36-2.14 2.4-1.54 4.92-1.46 2.5.07 8.06.72 9.4 0 1.35-.73.77-3.4 2.06-5.14.82-1.1 2.05-1.46 3.27-1.46.82 0 2.05 2.93 2.05 3.66l-.4.37h-.42v.37c-.93.1-1.06-.8-1.64-1.47-.24 1.03.82 4.4.82 6.6 0 1.83-.76 2.64-.8 2.5zM105.54 118.4c.03.73-3.17 2.37-3.43 3.02-.25.65.83 1 .5 1.37-.34.37-.6.23-.68.3-.07.07-1.2-2.54-1.2-2.54s3-1.36 2.88-1.94c-.1-.6-2.2-.94-2.6-2.4s-.16-4.33-.47-4.92c-.32-.6-4-1.16-4-2.06 0-.9 3.78-3.37 4.2-3.74.4-.36.8.37.4.74-.4.36-3.37 2.63-3.37 3 0 .36 2.45.73 3.27.73.82 0 1.23-.37 1.23-.73 0-.32-.82-.37-.82-1.1s.4-1.1 1.23-1.1c.4 0 1.2.47 1.23 1.1s-.73.68-.82 1.1c-.1.4.82.73 1.64.73s3.62 2.13 4.03 2.5c.4.36.82.36.4.73-.4.37-.16.8-.57.44a1.5 1.5 0 0 1-.4-.74c-.05-.33-3.05-1.83-3.46-1.47-.4.37 0 4.77 0 5.14 0 .73.85.73.82 1.83z"/><path fill="#a7a7a7" fill-rule="evenodd" d="M100.32 109.9h4.92v5.13h-4.92z"/><rect width="30.647" height=".399" x="138.6" y="-25.672" fill="#808080" fill-rule="evenodd" transform="matrix(.554 .832 -.882 .471 0 0)" rx=".445" ry=".199"/><path fill="#d0d0d0" fill-rule="evenodd" stroke="#707070" stroke-width="1pt" d="M180.7 42.52a7.1 7.1 0 1 1-14.16 0 7.1 7.1 0 0 1 14.17 0z" transform="matrix(.116 0 0 .103 80.65 101.47)"/><path fill="#808080" fill-rule="evenodd" d="M115.88 112.54c0 .3-1.9.66-4.1.66-2.2 0-4.1-.36-4.1-.66 0-.3 1.9.44 4.1.44 2.2 0 4.1-.74 4.1-.44z"/><path fill="#a7a7a7" fill-rule="evenodd" d="M100.73 115.03h4.1v1.47h-4.1z"/><path fill="#808080" fill-rule="evenodd" d="M114.05 111.42c-.4.74-.78 1.27-.84 1.18-.06-.1.2-.76.6-1.5.4-.75.78-1.28.85-1.2.06.1-.2.77-.6 1.52zm1.03 1.92c-.45.4-.83.66-.84.58 0-.08.35-.47.8-.87.45-.4.83-.65.84-.57 0 .08-.34.47-.8.86zM114.56 112.4c.34.62.56 1.13.5 1.16-.07.03-.4-.44-.72-1.05-.34-.6-.56-1.1-.5-1.14.07-.02.4.45.72 1.05zm-.32 3.18c0 .1-1.28.2-2.86.2s-2.87-.1-2.87-.2 1.3-.18 2.88-.18c1.58 0 2.86.08 2.86.18zm-9.42-.36c0 .1-.9.18-2.04.18-1.14 0-2.05-.08-2.05-.2 0-.08.9-.17 2.04-.17 1.14 0 2.05.08 2.05.18z"/><path fill="#d0d0d0" fill-rule="evenodd" stroke="#808080" stroke-width=".078" d="M95.8 127.96s.7 1.64 3.57 1.67c2.88.02 3.87-.5 2.7-1.37s-3.33-.6-3.05.15c.28.77-.8 1.02-1.07.5-.25-.54-1.3-2.1.57-2.2 1.85-.1 5.78-.68 6.77.4.97 1.1-1.12 2.1.46 2.32 1.58.23 1.8-.27 4.53-.42 2.7-.15 3.75.5 4.68.42.93-.1.8-1.7.06-2.1-.74-.4-2.15-.48-2.52-.93-.36-.46-1.35-.1-1.25-.6.1-.5 1.4.35 1.4.1 0-.02.23-.2.27-.23-.16-.04-.26.02-.38.1.13-.12.13-.17.17-.26-.02-.02-.2.14-.2.1-.04-.03.18-.25.08-.17-.03.02-.28.15-.3.06.02-.04.15-.13.1-.18-.04-.05-.23.04-.26.05.12-.15.1-.14 0-.26-.1-.1-.16-.1-.32.03.07-.18.08-.22-.07-.3-.13-.06-.14-.12-.3.2.07-.34-.1-.36-.03-.52.04-.14.25-.2.6-.17.68 0 1.04.8 1.26.8.22 0 .47-.85 1.42-.5.94.35 1.06.42 1.54.62s-.34.52-.06.93c.27.4 2.13 1.77 1.6 3.18-.53 1.42-1.9 1.64-2 2.25-.14.63 4.3.38 5.43.58 1.14.2 1.85 1.05 1.9 1.2.05.14-1.98.13-1.98.13s-1.04-.53-3.53-.58c-2.5-.05-3.44-1.05-4.37-1.18-.93-.12-2.9.2-4 .16-1.12-.05-2.24-.22-2.96-.32-.72-.1-4.3 1.6-4.28 2-.75-.02-2.5-.1-2.43-.06.07.04.32-.78 1.68-.92 1.37-.15 2.7-.8 2.65-1.23-.04-.43.27-1.9.38-2.54.1-.63.62-.94.5-1.27-.12-.33-1.68-.67-3.18-.66-1.5 0-3.15.1-3.4.45-.24.37-.05 1.4.26 1.3.3-.13-.08-.8.25-.95.34-.14 1.17-.27 1.96-.3.8 0 2.15.68 2.14.9 0 .22.44.95-.2 1.23-.62.28-1.9.4-3.14.34-1.23-.06-2.47-.48-2.92-.75-.45-.28-.73-1.1-.73-1.16z"/><path fill-rule="evenodd" d="M114.05 125.53a.33.33 0 1 1-.65 0 .33.33 0 0 1 .65 0z"/><path fill="#d0d0d0" d="M129.5 120.77l1.6.34 2.67-1.8-.2.95-1.4.92c-.25.17-.5.33-.76.47.17.22.34.5.53.8l.86 1.4-.2.9-1.66-2.84-1.6-.34.17-.8zm-2.7-11.73l3.08-1.42-.84-1.82.4-.2 2.03 4.4-.4.18-.86-1.83-3.07 1.42-.34-.73zm-4.8-5.8l2.85-2.6.56.6-.06 4.4 2.23-2.05.52.56-2.85 2.6-.56-.6.06-4.4-2.23 2.04-.52-.57zm-12.4-5.03l.46-3.8.8.1-.42 3.36 2.98.36-.06.45-3.77-.46zm-6.12.56l-.7-3.8.8-.13.6 3.34 2.96-.54.08.45-3.74.68zm-11.28 5.57l-.3-.35 2.02-1.62.9 1.12a5.7 5.7 0 0 1-.67 1.12 5.66 5.66 0 0 1-.92.92c-.47.38-.94.65-1.43.83-.48.18-.9.23-1.3.14a1.6 1.6 0 0 1-.93-.57 1.7 1.7 0 0 1-.37-1.05c0-.4.12-.83.38-1.24.27-.4.64-.8 1.1-1.2a4.8 4.8 0 0 1 1.02-.62c.34-.16.64-.23.9-.24.25 0 .5.07.75.2l-.5.56a1.3 1.3 0 0 0-.54-.15c-.17 0-.38.04-.62.15a3.2 3.2 0 0 0-.7.44c-.3.22-.53.45-.7.67-.16.22-.27.43-.33.63-.05.2-.07.37-.06.53.02.3.12.54.3.75.2.27.46.44.75.5.3.07.6.03.96-.1.36-.14.7-.34 1-.6.28-.2.52-.45.72-.72.2-.28.35-.5.42-.7l-.45-.55-1.4 1.13zm-.13 27.7l-3.14 2.23-2.38-3.35.37-.25 1.9 2.7.98-.7-1.65-2.33.37-.26 1.65 2.33 1.43-1.03.47.66zm-4.63-5c.45-.14.75-.42.9-.88.15-.45.14-.96-.02-1.53-.17-.6-.43-1.03-.8-1.33-.36-.32-.78-.4-1.26-.27a1.36 1.36 0 0 0-.72.47c-.18.22-.3.5-.33.85-.02.35 0 .7.12 1.1.16.55.4 1 .76 1.32.35.32.8.4 1.36.25zm.22.8c-.62.16-1.17.04-1.67-.4-.5-.4-.87-1.03-1.1-1.86-.15-.54-.2-1.05-.17-1.53s.18-.87.4-1.18a1.63 1.63 0 0 1 .9-.63 1.63 1.63 0 0 1 1.12.08c.36.16.68.44.96.84.3.4.5.84.64 1.35.15.54.2 1.06.16 1.54-.04.48-.18.88-.4 1.18-.24.3-.52.5-.84.6zm.32-7.83l-3.85-.1.06-2.68c0-.55.05-.96.12-1.24.08-.28.2-.5.38-.67a.82.82 0 0 1 .6-.23c.26 0 .5.15.67.44.18.3.3.73.33 1.3.07-.2.14-.36.2-.47.14-.23.32-.45.53-.66l1.07-1.03-.02 1-.82.8c-.24.23-.42.42-.54.57a1.7 1.7 0 0 0-.27.4c-.05.13-.1.25-.1.37-.03.1-.03.24-.04.45v.94l1.7.04-.02.8zm-2.13-.85l.04-1.73a4.07 4.07 0 0 0-.06-.87c-.05-.2-.12-.37-.22-.48a.48.48 0 0 0-.35-.17c-.18 0-.33.1-.45.3-.13.2-.2.54-.2 1l-.05 1.92 1.28.03zm10.7-16.95l.03-4.5.74-.45 4.12 2.03-.8.47-1.2-.64-2.18 1.32.02 1.34-.73.44zm.7-2.26L99 98.88l-1.08-.6a8.26 8.26 0 0 1-.78-.45c.06.25.1.52.1.8v1.3zm18.6-1.2L120 97l.7.5-.25 4.6-.74-.55.12-1.36-2.05-1.5-1.23.54-.7-.5zm2.35-.25l1.67 1.2.1-1.23a8.44 8.44 0 0 1 .13-.9 3.7 3.7 0 0 1-.7.4l-1.2.52zm10.3 14.33l3.75-.9.63 2.63c.12.52.18.93.18 1.22 0 .3-.07.54-.2.75a.82.82 0 0 1-.5.38c-.27.07-.53 0-.77-.24-.26-.23-.48-.62-.66-1.18a2.46 2.46 0 0 1-.08.52c-.07.26-.2.52-.34.77l-.77 1.27-.24-.98.6-.97c.17-.3.3-.52.4-.7.07-.18.12-.33.14-.46.02-.13.03-.25.02-.38a3.72 3.72 0 0 0-.1-.44l-.2-.9-1.67.4-.2-.8zm2.28.28l.4 1.7c.1.35.18.63.27.82.1.2.2.32.34.4.12.08.24.1.36.08.18-.04.3-.18.37-.4.06-.24.04-.57-.06-1l-.45-1.88-1.24.3z"/></g></svg>