<svg xmlns="http://www.w3.org/2000/svg" width="640" height="480" xmlns:xlink="http://www.w3.org/1999/xlink"><path fill="#cc0001" d="M0-.05h640v480.1H0z"/><path id="a" fill="#fff" d="M0 445.76h640v34.3H0z"/><use width="100%" height="100%" xlink:href="#a" transform="translate(0 -68.586)"/><use width="100%" height="100%" xlink:href="#a" transform="translate(0 -137.17)"/><use width="100%" height="100%" xlink:href="#a" transform="translate(0 -205.757)"/><use width="100%" height="100%" xlink:href="#a" transform="translate(0 -274.343)"/><use width="100%" height="100%" xlink:href="#a" transform="translate(0 -342.93)"/><use width="100%" height="100%" xlink:href="#a" transform="translate(0 -411.514)"/><path fill="#010066" d="M0-.05h372.65V274.3H0z"/><g fill="#fc0"><path d="M149.7 48.53c-49.05 0-88.88 39.7-88.88 88.6 0 48.9 39.83 88.58 88.9 88.58 17.72 0 34.23-5.17 48.1-14.1a78.86 78.86 0 0 1-25.77 4.3c-43.5 0-78.8-35.18-78.8-78.54 0-43.36 35.3-78.55 78.8-78.55 9.62 0 18.83 1.72 27.35 4.87-14.2-9.56-31.3-15.14-49.7-15.14zM297.1 183.24L259.7 163.7l11.07 40-25.04-33.46-7.8 40.7-7.7-40.72-25.14 33.37 11.2-39.96-37.5 19.42 27.85-31.25-42.42 1.64 39-16.37-38.95-16.5 42.43 1.77L178.9 91l37.44 19.54-11.07-39.98L230.3 104l7.82-40.7 7.7 40.73 25.13-33.37-11.2 39.94 37.5-19.42-27.85 31.25 42.43-1.63-39 16.37 38.95 16.5-42.43-1.77z"/></g></svg>