<svg xmlns="http://www.w3.org/2000/svg" width="640" height="480"><defs><clipPath id="a"><path fill-opacity=".67" d="M0 0h682.67v512H0z"/></clipPath></defs><g clip-path="url(#a)" transform="scale(.938)"><path fill="#009a00" fill-rule="evenodd" d="M0 0h768v160H0z"/><path fill="#fff" fill-rule="evenodd" d="M0 159.96h768v16.02H0z"/><path fill-rule="evenodd" d="M0 175.98h768v160H0z"/><path fill="#fff" fill-rule="evenodd" d="M0 335.98h768V352H0z"/><path fill="#ffca00" fill-rule="evenodd" d="M0 352h768v160H0z"/><path fill="#f00" fill-rule="evenodd" d="M0 0v512l336.02-256L0 0z"/><path fill="#ffca00" fill-rule="evenodd" d="M198.53 332.97l-51.23-37.5-51.16 37.5 19.84-60.3-51.5-37.07 63.5.23 19.34-60.42 19.4 60.47 63.44-.3-51.5 37.14z"/><path fill="#fff" fill-rule="evenodd" stroke="#000" stroke-width="1.103" d="M102.84 290.9h36.9c2.97 3.34 9.6 4.7 15.9-.04 11.57-6.33 33.95.04 33.95.04l4.4-4.68-10.74-35.25-3.86-4.13s-8.26-4.96-23.96-3.3c-15.7 1.65-21.2-.56-21.2-.56s-13.78 1.66-17.63 3.58c-.42.35-4.4 4.4-4.4 4.4l-9.36 39.94z" stroke-linejoin="round" stroke-linecap="round"/><path fill="none" stroke="#000" stroke-width="1.103" d="M110.27 281.82s35.26-4.4 45.45 9.1c-5.76 3.93-10.83 4.25-16.25.26.86-1.44 12.67-13.77 42.7-9.64" stroke-linejoin="round" stroke-linecap="round"/><path fill="none" stroke="#000" stroke-width="1.176" d="M148 246.57l-.27 38.83m31.67-38.3l6.6 30.86"/><path fill="none" stroke="#000" stroke-width="1.103" d="M116.97 246.63l-3.67 15.9" stroke-linejoin="round" stroke-linecap="round"/><path fill-rule="evenodd" stroke="#000" stroke-width="1.103" d="M78.87 295.14l8.68 10.18c1.02.6 1.92.57 2.83 0l12.86-15.44 5.4-6.7c.84-.98 1.1-2.08 1.03-3.07l10.33-9.17c.84.06 1.35.15 2.2.2-1-.25-1.74-.74-.95-1.83l2.3-1.8 1.8 2.3s-2.56 3.36-2.82 3.36h-2.83l-5.4 4.9 2.36 2.07 3.56 9.75 4.37-3.1-2.84-10.02 6.17-6.7-2.3-3.6 1.53-2.05s21.37 13.47 29.6 9.86c.23.08.5-9.6.5-9.6s-22.12-2.3-22.64-6.68c-.5-4.37 4.9-4.9 4.9-4.9l-2.33-3.33.5-1.8 3.87 4.9 8.75-7.47 51.44 58.65c2.8-1.14 3.4-1.83 3.6-4.63-.07-.07-50.4-57.88-50.4-57.88l3.84-4.12c.76-.86 1.03-1.22 1.03-2.57l5.92-5.15c1.78.6 2.9 1.68 3.86 3.1l16.28-13.8c.42.43 1.73.86 2.6.38l26.9-25.82-29.3 20.7-1.04-.76c0-.86 1.06-1.07 0-2.58-1.14-1.36-2.83 1.3-3.1 1.3-.24 0-4.23-1.42-5.1-3.2l-.3 4.73-7.45 6.95-5.67-.26-8.23 7.98-1.03 3.08 1.3 2.58s-4.4 3.85-4.4 3.6c0-.26-.87-1.14-.9-1.25l3.74-3.37.53-2.32-1.25-1.94c-.38.27-5.18 5.3-5.44 4.78-.43-.48-13.9-15.7-13.9-15.7l.78-2.82-8.75-9.52c-3.2-1.1-8.23-1.28-9.26 5.66-.8 1.63-7.45.26-7.45.26l-3.6.77L85.23 241l11.3 13.64 23.17-29.33.68-8.3 4.86 5.43c1.62.2 3.16.23 4.63-.5l13.72 15.3-2.3 2.23c.78.86 1.3 1.4 2.08 2.26.77-.5 1.5-1.13 2.28-1.65.26.35.7 1 .94 1.34-1.15.64-1.95 1.47-3.1 2.1-1.84-1.2-3.62-2.7-3.48-5.07l-7.72 6.43-.26 1.3-22.9 19.02-2.05.26-.52 5.92L121.5 259v-1.8l1.54 1.3 11.58-9.27s.77 1.03.5 1.03-10.28 9.26-10.28 9.26l-.26 1.03-1.8 1.55-1.03-.78-13.9 12.35h-2.05l-7.7 7.72c-2 .16-3.73.37-5.4 1.53l-13.84 12.2z" stroke-linejoin="round" stroke-linecap="round"/></g></svg>