<svg xmlns="http://www.w3.org/2000/svg" width="640" height="480"><g fill-rule="evenodd"><path fill="#fff" d="M194.8 0h250.44v480H194.8z"/><path fill="#198200" d="M0 0h194.8v480H0zm445.23 0H640v480H445.23z"/><path fill="#198200" stroke="#000" stroke-width=".742" d="M313.5 351.3v52.62l21.27.22s-6.8-45.83-3.07-51.97c3.73-6.14 7.24-5.27 7.24-5.27s13.8 4.17 15.35 3.5c1.52-.64-.23-5.25 7.22-4.6 2.42-.87 1.1-5.04 3.3-5.25 2.2-.22 44.5 11.84 53.72.43-2.4-6.36-10.74-.44-12.94-.22-1.97 0-10.3-3.94-15.13 0-4.4-3.28-24.34-5.48-24.34-5.48-2.63-2.63 47.6 1.32 50.44-.66 5.92-5.92-10.97-5.26-13.6-3.3-4.68-2.84-10.54-2.62-14.13-.64-1.7-4.1-18.03-2.34-27.1-3.5-2.9-1.7-2.4-2.68-.44-3.74 18.94.8 37.78 3.26 56.8 2.4 5.14-6.7-6.48-9.2-13.6-3.5-4.17-6.87-12.7-.22-18.42-.87-5.7-.66-3.07-7.68 4.17-6.58 7.24 1.08 20.18-.45 22.6-3.74 2.4-3.3-1.45-6.63-13.4-3.5-4.03-3.96-12.93 0-17.1 1.3-5.54-3.08-18.4-.43-22.8.67-4.3-2.67 22.6-7.02 22.6-7.02 10.36-.18 16.22-1.97 19.5-2.84 15.7-8.4-.22-9.3-8.45-3.2-5.1-3.98-9.96.35-14.57 1.88-4.6 1.54-13.38 2.63-13.38 1.98 0-.66 12.5-8.34 12.5-8.34s15.35-1.1 18.42-1.53c3.07-.44 18.78-8.5-2.63-3.07-7.45.65-11.84.22-14.7.44-16.52-1.7 1.54-3.3 1.54-3.3s23.4-2.15 23.7-3.28c.45-9.13-19.1-4.83-19.3-4.83.05-6.5-18.2.23-18.2 0-3.5-2.04 1.96-4.15 1.96-4.15 4.83-1.17 12.04-1.52 13.93-3.05 0 0 13.62-.13 15.24-3.75-3.33-9.22-28.82 1.63-32.23 3.3-4.6 0 3.07-7.47 3.3-7.7.2-.2 21.04-1.08 30.9-14.46.7-8.15-11.6 4.6-11.6 4.6-.93-10.57-13.4.65-20.62 1.53-7.24.88-7.46-3.3-2.4-3.95 5.03-.66 10.73-.22 13.58-7.9 2.85-7.67 11.4.45 12.94-2.4 1.53-2.85-3.07-5.27-3.07-5.27s6.36-6.57-3.95-6.35c-10.3.22-23.68-1.3-23.68-1.3s10.74-4.18 20.83-3.96c10.1.2 4.6-7.25-5.04-7.25-9.65 0-14.7-3.3-14.7-3.3l16.45-6.13-1.08-4.6s9.64-7.68-3.95-5.92c-13.6 1.75-15.13 1.97-15.13 1.97s-27.2 4.17-27.4 4.17c-.23 0-7.47-2.2-.45-3.95 7-1.76 31.78-6.8 35.5-5.5 3.74 1.32-.43-9.2-13.58-10.52-13.16-1.3-21.27 3.3-21.27 3.3s-8.56-3.08-.66-5.7c7.88-2.64 20.38.87 20.38.87s14.04-4.17 2.4-5.92c-11.6-1.76-15.27 1.57-20.6 1.75-2.12-2.65 18.25-3.3 19.52-5.48-2.15-3.95-14.77 0-22.15 0-3.14-1.33-3.34-3.5.22-4.82 7.53-.3 14.6.15 22.13-.15-.22-4.02.02-8.77-.2-12.8-9.55-1.74-20.76 1.27-26.12 1 1.44-4.37 22.07-5.5 24.36-6.7 4.78-5.96-20.17 0-20.4 0-4.34-.64-4.06-3.38-1.3-5.04 6.35-.74 20.6.92 19.53-3.4-.82-4.03-9.9-1.87-13.62-1-3.72.88-9.2.23-9.2.23-2.4-3.22 21.48-1.9 21.27-4.4-.32-2.84-15.14-.87-20.18-.65-3.94-2.72 18.93-4.5 19.3-4.82.83-7.3-15.35 0-18.42 0-3.07 0-1.54-4.6-1.54-4.6s6.36-2.86 6.14-3.3c-.22-.43-4.82-1.97-5.26-1.97-.44 0 0-5.05 0-5.05s5.26-3.95 4.83-5.05c-.45-1.1-6.15.88-6.15.88v-4.4s4.16-.42 4.6-2.4c.44-1.97-5.04-2.2-5.04-2.2l-2.2-23.02-1.96 21.5-7.24 1.1s5.05 2.84 5.92 5.7c.88 2.84-6.14 1.97-6.14 1.97s5.7 4.82 6.14 6.57c.44 1.76-7.9 2.2-7.9 2.2s7.03 5.04 7.47 7.9c.43 2.84 0 4.38 0 4.38s-11.64-10.1-19.1-7.24c-3.87 2.03 8.88 2.96 17.33 10.3-.02 1.64-20.52-4.98-21.27-.87.48 1.15 21.9 4.22 23.46 7.02-7.82.28-24-1.72-23.46.86-1.63 3 15.28 1.3 22.37 3.73 2.07 2.35 1.86 4.35-1.76 4.6-6.83-3.27-22.1-5.7-22.15-1.54.1 1.12 15.8.4 21.5 4.17-7.6 1.73-33.4-3.52-33.55-.96.73 1.2 4.82 6.44 11.83 6.22 7.02-.23 23.25 2.84 24.35 5.04 1.1 2.2-21.06-4.6-29.4-.66-8.32 3.95 23.9 1.53 29.18 6.36 5.26 4.82-10.53-.44-10.53-.44s-21.93-3.07-25.22-1.54c-3.3 1.54-7.02 5.05-7.02 5.05s2.2 4.4 4.4 3.52c2.18-.88-.67 2.63-.67 2.63s30.7 7.45 37.5 14.03c6.8 6.58-39.04-10.3-39.04-10.3s-18.42 6.8 1.1 7.23c-2.25 3.3 1.1 5.28 1.1 5.28s32.45 6.8 35.73 12.06c3.28 5.26-22.15-5.05-27.86-7.9-5.7-2.85-21.93 1.76-21.7 2.85.2 1.1 7.9 2.62 8.1 4.6.23 1.97-9.42 2.63-9.42 4.38 0 1.76 41 10.3 51.97 19.52 10.96 9.2-32.24-10.96-32.24-10.96s2.4 3.3 0 4.16c-2.42.88-10.97-12.28-25-4.16-2.56 3.33 12.24 6 16 6.36-1.28 3.3-2.4 4.38 2.86 7.67 5.26 3.3-10.3-4.82-10.3-4.4 0 .45 1.1 5.72 1.1 5.72-4.87-3.96-10.74-5.15-16.24-1.1 0 0-.22 3.94 5.48 6.35-3.1 6.36 3.5 4.4 14.03 10.3-15.65-4.08-16.9 3.52-5.7 5.27s41.88 2.85 49.1 12.28c7.25 9.43-10.27-3.62-12.27-3.95-.43.22-.87 4.83-.87 4.83-4.68-2.7-9-5.14-14.6-6.3-.43.9-.3 2.13-.75 3-5.07-3.66-9.5-6.22-16.88-6.57l-.88 3.52s-6.14-7.68-18.2 0c-6.73 4.83 25.44 1.75 30.7 7.45 5.27 5.7 1.1 6.58 1.1 6.58-4.4-1.6-8.77-3.2-13.16-4.82 0 0-15.57-2.85-19.95.65-4.4 3.5 64.03 12.07 66 21.5 1.33 5.1-16.08-5.37-31.14-9.87l-1.76 5.05s-5.98-6-12.72-7.02c-.22 0 1.32 5.92 1.32 5.92s-16.9-7.9-25.44-3.72c-8.55 4.16 29.82 6.36 33.33 10.3 3.5 3.95-11.62-2.63-12.94 0-1.32 2.64-19.96-4.82-19.74-1.3.22 3.5 2.63 5.47 2.63 5.47s38.8 3.73 40.12 8.33c1.3 4.6-21.5-2.63-21.5-2.63s-2.2 3.3-.43 4.83c1.74 1.53-13.17-8.78-11.85-1.98-4.84-1.92-17.33-7.9-15.57-3.3 1.75 4.62 35.3 11.2 35.3 11.2s-14.7 1.1-14.03 4.82c-18.9-11.5-18.42-4.17-17.98-3.95.44.22-24.34-6.14-5.7 3.95 18.64 10.1 10.08 8.33 10.3 8.55.22.22 1.98 5.05 1.54 5.05-.43 0-12.7-6.58-16.88-7.02-4.17-.44-23.9 5.48-2.85 14.7s34-2.2 45.6-.88c11.63 1.3 17.12 3.3 16.02 7-1.1 3.74-11.88-12.2-23.22 1.6-12.9-2.56-21.66-4.05-15 5.44-21.07-7.87-33.94 2.4-7.4 6.58 26.07.77 42.1-6.36 42.1-6.36s4.4 8.1 10.75 2.4c6.36-5.7 6.58 2.2 6.8 2.2.2 0 6.14-2.63 6.14-2.63h1.53z" stroke-linejoin="round" stroke-linecap="round"/><path fill="#fff" stroke="#000" stroke-width=".792" d="M316.07 320.16v-3.67s-8.28-1.48-12.32-.66c-2.4-1.37-4.66-3.17-7.5-1.65-.57 1.2 5.22 4.3 7.15 4.3 2.26 1.44 12.67 1.84 12.67 1.66zm-.1 5.97s-8.28-3.03-11.6.46c.55 3.7 9.76 5.5 11.7 4.5 1.92-1.02 0-4.8-.1-4.97zm13.96 1.47v2.57s9.92 1.93 11.66-.18c1.74-2.12-7.9-3.5-11.67-2.4zm-.45-10.25l.37 2.9s8.53 1.93 11.84-2.75c3.3-4.7-7.5.03-12.22-.15zm.45-9.95v1.93s6.43 1 7.9-1.75c1.47-2.75-7.72 0-7.9-.18zm-13.42-5.94c-.98-1.4-4.47-4.9-13.84-5.9-6.5-.04 11.76 9.56 13.85 5.9zm13.25-9.77s-.37 2.65-.28 2.65c.1 0 22.04-6.52 27.18-6.06 4.6-1.3 5.5-4.5 5.33-4.5-3.92-2.86-22.86 2.3-32.23 7.9zm.46-7.8c-.08.45-.27 2.56-.27 2.56s15.52-3.03 19.65-5.97c4.14-2.95-19.2 3.48-19.37 3.4zm-.63-7.63v2.6s10.36-.33 12.5-2.42c1.35-2.1-9.14-.3-12.5-.18zm21.6 21.74s5.4.76 6.4-.8c-.2-2.77-6.4.9-6.4.8zm-21.15-31.37c-.1.46.1 5.7.1 5.7s24.88-7.9 26.44-9.37c1.56-1.47 5.02-5.9-26.54 3.67zm-.73-7.9v4.13s10-.73 14.6-4.5c4.58-3.76-14.6.46-14.6.37zm-12.04-9.37l.64 3.77s-32.96-10.66-32.87-10.66c.1 0-1.66-5.42 32.23 6.9zm.55-13.22c-.08.37-.08 3.58-.17 3.5-.1-.1-22.87-9.56-23.7-8.73-3.02-7.08 23.88 5.42 23.88 5.24zm11.12 5.88c0 .1.37 3.2.37 3.2s13.94-2.92 14.77-4.3c.83-1.38-15.15 1.2-15.15 1.1zm.33 7.43c.13.8.4 3.3.4 3.3s5.6-.45 6.43-1.74c.83-1.27-6.83-1.46-6.83-1.55zm-.88-16.98c0 .28.1 3.12.1 3.12s15.33-3.04 16.98-4.5c1.65-1.48-17.36 1.37-17.08 1.37zm.1-8.45c0 .18-.56 3.12-.2 3.12s18.65-3.12 21.5-5.7c2.84-2.56-21.04 2.86-21.3 2.58zm-.28-14.88v3.2s11.84-2.46 14.04-4.94c2.2-2.48-14.05 1.92-14.05 1.74zm-2.03-21.67l.28 4.87s15.88-2.2 18.18-4.87c2.3-2.66-18.55 0-18.46 0zm-7.35-36.45v3.03s-7.53-.37-5.7-1.65 5.7-1.1 5.7-1.38zm6.98 4.04l.18 4.13s9.74-.93 10.47-2.5c.74-1.55-10.47-1.64-10.65-1.64zm-.55 5.97s.18 2.57.37 2.57c.18 0 3.85-.27 4.68-1.28.83-1-4.68-1.1-5.05-1.3zM317 172.78c0 .28.26 3.95.08 3.86s-21.3-6.16-23.23-6.06c-1.93.1-2.48-4.87 23.14 2.2zm1.73 6.9c0 .73.46 4.58-.28 4.4-.73-.2-14.32-4.5-12.94-5.8 1.38-1.27 13.23 1.67 13.23 1.4zm-1.2 29l.1 3.5s-23.7-7.17-24.52-8.37c-.8-1.18-3.1-6.78 24.44 4.88zm.92 8.54c0 .1.18 3.3.1 3.3s-32.24-11.3-32.24-11.3-2.56-8.44 32.15 8z" stroke-linejoin="round" stroke-linecap="round"/><path fill="#fff" stroke="#000" stroke-width=".792" d="M280.26 328.68c0 .1-.1 3.52-.1 3.52s-6.27-1.76-8.25-5.28c3.63-1 8.47 1.87 8.36 1.76z" stroke-linejoin="round"/></g></svg>