<svg xmlns="http://www.w3.org/2000/svg" width="640" height="480" xmlns:xlink="http://www.w3.org/1999/xlink"><defs><linearGradient id="f" x1="498.738" x2="500.626" y1="289.055" y2="283.42" gradientUnits="userSpaceOnUse"><stop offset="0" stop-color="#510000"/><stop offset=".3" stop-color="#8a0000"/><stop offset="1" stop-color="#a00"/></linearGradient><linearGradient id="g" x1="501.444" x2="502.927" y1="291.373" y2="287.449" gradientUnits="userSpaceOnUse"><stop offset="0" stop-color="#ff2a2a"/><stop offset="1" stop-color="#f00"/></linearGradient><linearGradient id="b" x1="484.764" x2="484.764" y1="311.709" y2="317.647" gradientUnits="userSpaceOnUse"><stop offset="0" stop-color="#F5F549"/><stop offset="1" stop-color="#97C924"/></linearGradient><linearGradient id="a"><stop offset="0" stop-color="#025"/><stop offset=".5" stop-color="#04a"/><stop offset="1" stop-color="#025"/></linearGradient><linearGradient id="h" x1="444.509" x2="634.411" y1="317.486" y2="317.486" gradientUnits="userSpaceOnUse" xlink:href="#a"/><clipPath id="c"><path d="M500 226.38L436.3 336.7h127.4z"/></clipPath><linearGradient id="o" x1="444.509" x2="634.411" y1="317.486" y2="317.486" xlink:href="#a" gradientUnits="userSpaceOnUse"/><linearGradient id="p" x1="444.509" x2="634.411" y1="317.486" y2="317.486" xlink:href="#a" gradientUnits="userSpaceOnUse"/><linearGradient id="q" x1="444.509" x2="634.411" y1="317.486" y2="317.486" xlink:href="#a" gradientUnits="userSpaceOnUse"/><linearGradient id="r" x1="444.509" x2="634.411" y1="317.486" y2="317.486" xlink:href="#a" gradientUnits="userSpaceOnUse"/><linearGradient id="u" x1="484.764" x2="484.764" y1="311.709" y2="317.647" xlink:href="#b" gradientUnits="userSpaceOnUse"/><linearGradient id="x" x1="98.901" x2="124.971" y1="1440.155" y2="1440.155" xlink:href="#a" gradientTransform="scale(4.457 .224)" gradientUnits="userSpaceOnUse"/><linearGradient id="j" x1="444.509" x2="634.411" y1="317.486" y2="317.486" xlink:href="#a" gradientUnits="userSpaceOnUse"/><linearGradient id="l" x1="444.509" x2="634.411" y1="317.486" y2="317.486" xlink:href="#a" gradientUnits="userSpaceOnUse"/><linearGradient id="m" x1="444.509" x2="634.411" y1="317.486" y2="317.486" xlink:href="#a" gradientUnits="userSpaceOnUse"/><linearGradient id="i" x1="444.509" x2="634.411" y1="317.486" y2="317.486" xlink:href="#a" gradientUnits="userSpaceOnUse"/><linearGradient id="s" x1="484.764" x2="484.764" y1="311.709" y2="317.647" xlink:href="#b" gradientUnits="userSpaceOnUse"/><linearGradient id="v" x1="484.764" x2="484.764" y1="311.709" y2="317.647" xlink:href="#b" gradientUnits="userSpaceOnUse"/><linearGradient id="y" x1="47.855" x2="61.745" y1="3054.214" y2="3054.214" xlink:href="#a" gradientUnits="userSpaceOnUse" gradientTransform="scale(9.124 .11)"/></defs><path fill="#0067c6" d="M0 0h640v480H0z"/><path fill="#fff" d="M0 160h640v160H0z"/><path fill="#c8a400" d="M248 239.46l7.98.54c.03-.4.05-.78.08-1.17l-3.14-.2c.08-1.3.2-2.57.25-3.86 1.1-.8 2.22-1.6 3.33-2.4l.1-1.5-3.52 2.56c-.12-.83-.57-1.7-1.4-1.98-.74-.26-1.63-.3-2.27.22-.8.6-.93 1.64-1.04 2.56-.14 1.74-.24 3.5-.36 5.23zm1.22-1.1c.1-1.3.15-2.6.28-3.92.1-.64.2-1.4.78-1.8.5-.34 1.27-.1 1.48.5.4 1 .23 2.1.18 3.13l-.15 2.27-2.6-.17zm-.18-11.16c2.6.6 5.2 1.22 7.8 1.82l1.76-7.58c-.37-.08-.74-.17-1.1-.26l-1.5 6.45-2.38-.55c.45-1.94.9-3.88 1.35-5.8l-1.1-.27-1.36 5.82-2.08-.5 1.45-6.2-1.12-.26c-.57 2.45-1.14 4.9-1.7 7.34zm2.8-10.46l7.56 2.63.4-1.1c-1-.35-2-.7-3-1.04.4-1.14.83-2.27 1.18-3.42.26-.93.46-2.04-.1-2.9-.45-.66-1.25-1.07-2.04-1.05-.87.04-1.58.68-1.96 1.42-.57 1.08-.9 2.26-1.3 3.4l-.73 2.07zm1.47-.73c.4-1.12.78-2.27 1.2-3.4.3-.6.62-1.3 1.3-1.5.57-.12 1.17.32 1.22.9.14 1.07-.33 2.07-.66 3.07l-.62 1.8-2.43-.86zm2.72-8.93c1.42.82 2.84 1.67 4.27 2.48.8.44 1.82.68 2.67.2 1.15-.64 1.87-1.82 2.44-2.97.45-.97.78-2.17.2-3.16-.6-1-1.72-1.44-2.67-2.03l-2.76-1.63c-.2.34-.4.67-.6 1 1.37.8 2.73 1.6 4.08 2.4.65.4 1.18 1.1 1.07 1.9-.13.93-.67 1.76-1.2 2.52-.45.6-1.2 1.1-1.98.94-.82-.16-1.5-.7-2.2-1.1l-2.73-1.58c-.2.34-.38.67-.58 1zm5.76-9.42l6.36 4.86c.98-1.28 1.96-2.57 2.96-3.85.57-.8 1.1-1.88.7-2.88-.35-.8-1.17-1.42-2.05-1.46-.4-.04-.9.26-1.13.4.23-.86-.47-1.66-1.26-1.9-.94-.33-1.9.28-2.53.95-.73.8-1.35 1.7-2.02 2.56l-1.02 1.35zm1.6-.24c.76-.94 1.46-1.93 2.24-2.85.36-.4.94-.86 1.5-.56.52.2.64.85.4 1.32-.4.83-1.03 1.5-1.57 2.24-.3.38-.58.76-.87 1.14-.56-.43-1.13-.86-1.7-1.3zm2.6 2c.77-1 1.5-2.02 2.3-2.97.43-.43.95-.98 1.6-.86.58.13 1 .74.8 1.3-.33 1.06-1.1 1.86-1.74 2.73l-1 1.3-1.96-1.5zm3-10.24l5.5 5.82 4.7-4.45-.78-.82-3.76 3.56-.1.1-.07-.08-4.64-4.9zm7.05-6.16l4.87 6.34.96-.73-4.88-6.33zm7.16-4.86c-.8.5-1.43 1.06-1.92 1.74-.5.67-.76 1.37-.8 2.1-.03.72.16 1.43.6 2.12a4.12 4.12 0 0 0 1.57 1.48 3.6 3.6 0 0 0 2.14.4c.76-.1 1.64-.44 2.6-1.04.94-.58 1.6-1.25 2-2.02.4-.74.5-1.53.34-2.36l-1.1.43c.28 1.6-.75 2.36-1.9 3.1-1.8 1.1-3.57 1-4.65-.64-1.13-1.86.1-3.4 1.63-4.4 1.1-.68 2.17-1.15 3.2-.5l.86-.77a3.2 3.2 0 0 0-2.05-.57c-.8.05-1.66.34-2.55.9zm9.45-4.72l-.84 8.96 1.25-.5.26-2.78 4.06-1.63 2.1 1.83 1.25-.5-6.8-5.88-1.25.5zm1.1.92l2.65 2.3-2.98 1.2.32-3.5zm16.43-5.87l.5 8c1.44-.1 2.9-.18 4.33-.3 1.15-.13 2.36-.42 3.14-1.33 1-1.1 1.14-2.77.7-4.15-.36-1.22-1.46-2.14-2.7-2.38-1.22-.23-2.46-.05-3.7 0l-2.26.15zm1.23 1.06c1.16-.06 2.3-.17 3.46-.18a2.94 2.94 0 0 1 1.83.56c.8.56 1.26 1.55 1.16 2.5-.06 1.13-.88 2.15-1.96 2.43-.62.16-1.26.2-1.9.28l-2.23.15c-.12-1.9-.24-3.8-.36-5.72zm9.93-1.53c-.15 2.66-.3 5.33-.46 8l7.78.43.06-1.13c-2.2-.13-4.4-.26-6.6-.38l.14-2.43c2 .1 3.97.2 5.96.33l.06-1.13c-1.98-.1-3.97-.23-5.96-.34.04-.72.1-1.44.13-2.15 2.12.13 4.24.25 6.36.37l.06-1.14-7.53-.43zm20.9 3.33l-2.9 7.46 1.03.4 2.3-5.92.1-.3.13.33 2.75 7.95 1.35.52 2.9-7.46-1.04-.4-2.3 5.92-.1.3-.13-.33-2.77-7.94zm10.74 4.62l-3.64 7.13-1.07-.55 3.64-7.13zm6.03 3.54c-.78-.53-1.57-.87-2.38-1.03-.8-.17-1.56-.12-2.24.15-.68.27-1.24.74-1.7 1.42a4.12 4.12 0 0 0-.67 2.06c-.03.74.14 1.44.55 2.1.4.67 1.07 1.32 2.03 1.95.9.6 1.8.93 2.67.98a3.45 3.45 0 0 0 2.28-.68l-.86-.83c-1.33.93-2.46.32-3.6-.43-1.76-1.2-2.42-2.83-1.37-4.5 1.23-1.8 3.13-1.32 4.68-.34 1.08.7 1.95 1.5 1.78 2.7l1.07.46c.12-.7 0-1.4-.35-2.1-.38-.7-1-1.35-1.88-1.93zm7.62 5.73l-8.37 3.34 1.02.88 2.6-1.04 3.3 2.87-.68 2.7 1 .9 2.13-8.76-1-.87zm-.32 1.4l-.84 3.4-2.43-2.1 3.27-1.3zm6.36 4.16l-6.17 5.08.73.9 2.43-2c.82 1 1.62 2 2.46 2.96-.26 1.35-.5 2.7-.76 4.04l.94 1.15c.27-1.42.53-2.85.8-4.27.7.57 1.7.85 2.53.4.7-.33 1.34-.98 1.37-1.8.1-1.1-.7-2-1.33-2.8-1-1.23-2-2.45-3-3.67zm-.14 1.62c.87 1.06 1.77 2.1 2.6 3.2.38.56.86 1.36.42 2.02-.36.56-1.15.5-1.63.15-.97-.67-1.62-1.68-2.38-2.56l-.98-1.2 1.98-1.62zm9.5 11.1l-9 .4.67 1.18 2.78-.14 2.18 3.8-1.52 2.33.67 1.15 4.9-7.57-.68-1.16zm-.76 1.2l-1.9 2.96-1.6-2.78 3.5-.17zm5.9 9.4c-.5-1.37-1.3-2.76-2.63-3.44-1.5-.74-3.47-.38-4.52.93-.9 1.1-.95 2.63-.7 3.97.28 1.53.98 3 2.04 4.15-.2.07-.4.14-.6.2l.4 1.08c1.24-.45 2.5-.9 3.73-1.35-.48-1.35-.97-2.7-1.45-4.05-.3.1-.58.2-.87.3l1.07 3c-.42.15-.84.3-1.27.45-1.12-.96-1.74-2.38-2.07-3.8-.24-1.06-.25-2.33.56-3.17.92-.96 2.56-1.25 3.67-.44 1.1.8 1.72 2.1 2.03 3.4.22.84.18 1.85-.46 2.5-.18.15.1.33.15.5l.3.5a2.82 2.82 0 0 0 1.08-2.24c.02-.85-.16-1.7-.45-2.5zm2.3 6.24l-4.5.87c-.82.16-1.44.42-1.85.77-.4.35-.67.84-.8 1.5-.13.65-.1 1.44.08 2.4a.2.2 0 0 1 0 .03c.2.96.47 1.7.83 2.26.38.55.8.9 1.32 1.08.52.17 1.2.18 2.02 0l4.48-.86-.22-1.14-4.37.85c-1.96.38-2.62-.65-2.96-2.4v-.04c-.35-1.77-.13-2.97 1.83-3.35l4.37-.85-.22-1.14zm2.44 13.6l-8.28-3.53.1 1.34 2.57 1.1.3 4.35-2.38 1.45.1 1.34 7.68-4.7-.1-1.33zm-1.2.77l-3 1.83-.24-3.2 3.23 1.37zm-136.5 19.94l-1.16.3 1.28 4.88 1.16-.3zm131.63 0l1.16.3-1.3 4.88-1.16-.3zM266.57 275.2l-8.94 1.02.75 1.12 2.77-.33 2.43 3.64-1.35 2.44.75 1.1 4.34-7.87-.75-1.1zm-.67 1.25l-1.7 3.08-1.8-2.67 3.5-.4zm4.1 3.63l-5.7 5.33.76.82 4.8-4.5-2.52 6.95.88.93 6.9-2.1-4.73 4.42.75.82 5.7-5.33-1.16-1.23-7 2.1 2.6-6.78zm8.3 8.47l-4.8 6.4 6.2 4.68.7-.9-5.3-4 1.47-1.94 4.77 3.58.68-.9-4.77-3.6 1.3-1.72c1.7 1.28 3.4 2.56 5.1 3.84l.67-.9-6.02-4.55zm7.83 5.73l-3.77 7.06 1.03.55 1.47-2.8c1.14.6 2.26 1.24 3.4 1.82.3 1.34.56 2.68.84 4.02l1.32.7-.88-4.25c.86.25 1.9.13 2.5-.6.5-.56.84-1.35.6-2.1-.28-1.05-1.3-1.6-2.18-2.1-1.44-.78-2.9-1.55-4.33-2.32zm.5 1.56c1.2.65 2.43 1.26 3.6 1.97.56.37 1.26.88 1.2 1.63-.07.65-.78 1-1.38.86-1.16-.2-2.15-.9-3.2-1.42l-1.44-.77 1.22-2.26zm8.54 3.16l-3.03 7.4 1.1.46 3.04-7.4zm7.2 2.5c-.87-.3-1.72-.42-2.55-.37-.83.05-1.54.3-2.12.73-.6.44-1 1.04-1.26 1.8a4.12 4.12 0 0 0-.13 2.17c.16.73.5 1.36 1.07 1.9.56.54 1.38 1 2.47 1.35 1.04.35 1.98.43 2.83.25a3.44 3.44 0 0 0 2.03-1.25l-1.04-.57c-1.05 1.25-2.3.95-3.6.53-2-.7-3.06-2.1-2.48-3.98.72-2.05 2.68-2.1 4.43-1.55 1.23.4 2.28.94 2.43 2.14l1.15.18a3.2 3.2 0 0 0-.88-1.93c-.55-.6-1.32-1.07-2.32-1.4zm8.05 1.8l-5.23 7.32 1.32.2 1.62-2.28 4.32.63.9 2.64 1.33.2-2.95-8.5-1.33-.2zm.5 1.34l1.13 3.33-3.18-.46 2.04-2.86zm18.26-1.3c-.92.2-1.72.5-2.42.95-.7.44-1.2 1-1.5 1.67-.28.66-.36 1.4-.2 2.2.14.72.46 1.37.95 1.94.5.57 1.1.94 1.86 1.14.75.2 1.7.2 2.8-.03 1.1-.2 1.95-.58 2.6-1.16a3.44 3.44 0 0 0 1.16-2.08h-1.2c-.3 1.6-1.53 1.96-2.87 2.23-2.08.37-3.7-.34-4.1-2.27-.4-2.14 1.3-3.14 3.1-3.52 1.26-.23 2.43-.28 3.15.7l1.1-.42a3.18 3.18 0 0 0-1.72-1.25c-.77-.25-1.67-.27-2.7-.07zm5.34-.93c.76 2.56 1.5 5.12 2.27 7.68 2.48-.74 4.97-1.48 7.46-2.22-.1-.36-.22-.72-.33-1.1l-6.35 1.9c-.23-.78-.46-1.56-.7-2.34 1.92-.56 3.83-1.13 5.73-1.7l-.3-1.08-5.73 1.7-.6-2.07 6.1-1.8-.33-1.1-7.22 2.14zm8.65-2.7c1.12 2.4 2.24 4.83 3.36 7.25l1-.46-2.8-6.07c2.6 1.17 5.17 2.38 7.75 3.57.17.15.34.05.52-.04l1-.47c-1.12-2.43-2.24-4.85-3.36-7.27l-1 .47 2.8 6.04c-2.66-1.2-5.3-2.44-7.96-3.66-.44.2-.87.4-1.3.6zm8.8-4.14l.6.95 2.87-1.87.1-.07.06.08 3.72 5.65.97-.65-3.72-5.65-.06-.08.1-.07 2.88-1.9-.62-.94zm8.04-5.5l5.43 5.87c.28-.26.57-.53.86-.8l-2.15-2.3c.94-.88 1.9-1.73 2.83-2.63 1.36.2 2.72.37 4.08.55l1.1-1-4.3-.58c.5-.72.74-1.74.25-2.54-.37-.7-1.05-1.28-1.87-1.27-1.1-.03-1.96.8-2.74 1.48l-3.5 3.2zm1.64.04c1.02-.92 2-1.9 3.05-2.77.53-.4 1.3-.93 2-.53.57.33.56 1.12.23 1.62-.6 1-1.58 1.72-2.42 2.53L363.4 292c-.58-.64-1.16-1.27-1.74-1.9zm7.67-9.37l3.6 8.27.84-1.04-1.1-2.56 2.75-3.38 2.72.58.85-1.04-8.8-1.87-.85 1.03zm1.42.28l3.44.75-2.04 2.5-1.4-3.24zm2.08-4.8l6.7 4.35 3.53-5.43-.95-.62-2.82 4.35-.07.1-.1-.04-5.67-3.67z"/><g clip-path="url(#c)" transform="matrix(.8 0 0 .8 -80 0)"><path fill="#fff" d="M500 226.4l-31.48 54.54-15.42 26.7h93.8l-14.71-25.48-32.2-55.75z"/><g id="e"><g id="d"><path fill="#17c0eb" stroke="#17c0eb" stroke-width=".129" d="M500 226.4l-2.36 4.1 2.36 54.97 2.36-54.98z" opacity=".62"/><path fill="#fff" d="M500 277.48h-.13l.13 3.1.14-3.1c-.05 0-.1 0-.14 0z"/></g><use width="100%" height="100%" xlink:href="#d" transform="rotate(72 500 285.467)"/><use width="100%" height="100%" xlink:href="#d" transform="rotate(144 500 285.467)"/><use width="100%" height="100%" xlink:href="#d" transform="rotate(-144 500 285.467)"/><use width="100%" height="100%" xlink:href="#d" transform="rotate(-72 500 285.467)"/></g><use width="100%" height="100%" xlink:href="#e" transform="rotate(8 500 285.467)"/><use width="100%" height="100%" xlink:href="#e" transform="rotate(16 500 285.467)"/><use width="100%" height="100%" xlink:href="#e" transform="rotate(24 500 285.467)"/><use width="100%" height="100%" xlink:href="#e" transform="rotate(32 500 285.467)"/><use width="100%" height="100%" xlink:href="#e" transform="rotate(40 500 285.467)"/><use width="100%" height="100%" xlink:href="#e" transform="rotate(48 500 285.467)"/><use width="100%" height="100%" xlink:href="#e" transform="rotate(56 500 285.467)"/><use width="100%" height="100%" xlink:href="#e" transform="rotate(64 500 285.467)"/><path fill="#f00" d="M500 265.84a44.24 44.24 0 0 0-28.97 10.75L456.38 302c-.5 2.67-.75 5.43-.75 8.25h5.03c0-21.73 17.62-39.34 39.34-39.34 21.73 0 39.34 17.62 39.34 39.35h5.03c0-2.8-.24-5.58-.75-8.25l-14.65-25.4A44.25 44.25 0 0 0 500 265.83z"/><path fill="#f60" d="M500 266.66c-11.76 0-22.44 4.67-30.28 12.25l-12.03 20.85a43.6 43.6 0 0 0-1.3 10.5h4.26c0-21.73 17.6-39.34 39.34-39.34 21.73 0 39.34 17.62 39.34 39.35h4.25a43.86 43.86 0 0 0-1.3-10.53l-12.02-20.8c-7.84-7.6-18.52-12.26-30.28-12.26z"/><path fill="#ff0" d="M500 267.47c-12.7 0-24.1 5.52-31.94 14.3l-8.72 15.1a42.73 42.73 0 0 0-2.12 13.38h3.43c0-21.73 17.62-39.34 39.35-39.34 21.72 0 39.34 17.62 39.34 39.35h3.44c0-4.67-.74-9.16-2.12-13.37l-8.72-15.1c-7.84-8.8-19.24-14.3-31.94-14.3z"/><path fill="#0f0" d="M500 268.25c-14.55 0-27.37 7.4-34.9 18.66l-2.82 4.88a41.82 41.82 0 0 0-4.28 18.47h2.66c0-21.73 17.6-39.34 39.34-39.34 21.73 0 39.34 17.63 39.34 39.35H542a41.82 41.82 0 0 0-4.28-18.44l-2.85-4.92c-7.53-11.23-20.33-18.63-34.87-18.63z"/><path fill="#0cf" d="M500 269.06c-22.75 0-41.2 18.44-41.2 41.2h1.86c0-21.74 17.6-39.35 39.34-39.35 21.73 0 39.34 17.62 39.34 39.35h1.85c0-22.75-18.45-41.2-41.2-41.2z"/><path fill="#00f" d="M500 269.84c-22.3 0-40.38 18.1-40.38 40.4h1.35c0-21.55 17.47-39.02 39.03-39.02 21.56 0 39.03 17.47 39.03 39.03h1.38c0-22.3-18.1-40.4-40.4-40.4z"/><path fill="#800080" d="M500 270.66c-21.86 0-39.6 17.72-39.6 39.6 0 .23.02.48.02.72h.8c0-.25 0-.5 0-.74 0-21.42 17.36-38.78 38.78-38.78s38.8 17.36 38.8 38.8c0 .23 0 .48-.02.72h.8c0-.25 0-.5 0-.74 0-21.86-17.72-39.6-39.58-39.6z"/><path fill="#510000" d="M500.4 288.13c-.65-.12-1.23-.48-1.78-.6-.76.72-.83 1.45-.73 2.07.25.14.3.36.87.86s.5.78.46 1.97c-.02.5.07 1.58.58 1.68.55.12.94-.34 1.1-1.15.15-.8.4-1.22.7-1.7.3-1.85-.2-2.5-1.2-3.12z"/><path fill="#f00" d="M497.17 283.52c-.6.02-1.53 1.02-1.95.48-.24-.3-.28-.9-.03-1.4.55-1.15 1.1-1.72 2.16-2.33 2.37-1.4 3.9-.95 5.07 1.06 1.1 1.77 2.15 3.73 2.24 5.37.03.5.3 1.4-.15 1.86-1.35 1.4-4.6-1.43-6.5-1-.64.16-1.38.63-1.98.23-.47-.32-.08-1 .27-1.3.62-.52 1.5-2.37 1.4-3.17-.07-.44-.1.18-.53.2z"/><path fill="url(#f)" d="M496.93 282.55c-1.1.44-.97 1.07-1.5 1.6.14.05.75.3 1.35-.3.26-.23.55-.3.68-.38-.3.22-.52.56-.68.7-.4.32-1.04 1.07-1.34 1.83-.3.77-.43 1.68-.38 1.8.06.1.43.77 1.57 1.22 2.03.8 2.4 2.44 4.47 2.44 1.62 0 1.36-1.06 2.65-.84 1.12.2 1.7-.7.63-1.23-1.37-.48-4.1-.2-5.37.03-.4-4.1-.04-2.65-.14-4.4-.1-1.76-.62-1.87.07-3.3-.57.88-1.27.74-2 .82z"/><path fill="#ff2a2a" d="M500.94 279.8c-.04.22-.08.5-.06.6.1.34.18.7.28 1 .1.32.16.57.24.92.08.36.4.5.7.72.36.28.08 1.03.3 1.07.2.03.5-1.06.5-1.24 0-.24 0-.43-.04-.65a15.3 15.3 0 0 0-.42-.86 3.65 3.65 0 0 0-.2-.34 4.2 4.2 0 0 0-.8-.86s-.03-.03-.05-.05a3.94 3.94 0 0 0-.27-.2c-.06-.03-.13-.07-.2-.1z"/><path fill="url(#g)" d="M501.25 287.4c-.72-.2-1.43-.54-2.04-.73-1.2-.36-2.47-1.13-3.35-.8-.32.13-.3.44-.4.9-.04.53-.6 1.32-.13 1.06.7-.38 2.5.73 3.1 1.1.28.18.9.53 1.08 1.03.2.5.1 1.75.04 2.3-.05.56.12 1.83.68 1.98.6.16 1.08-.32 1.32-1.23.23-.87.4-1.38.76-1.9s.75-.76 1.32-.87c.56-.1 1.38.46 1.38-.2 0-.44-.4-.85-.22-1.45.13-.48-.4-.38-.84-.58-1.04-.32-1.97-.42-2.7-.6z"/><path fill="#910000" d="M498.36 288.9c-.32-.18-2.3-1.48-3.04-1.07-.23.13-.32 0-.32-.26 0-.24.1-.6.18-.86.08-.26.2-.78.52-1.05.7-.58 2.27.57 3.1.88-.06.44-.46 2.36-.44 2.37z"/><path fill="#ff3a3a" d="M501.76 291.36c.92-1.6 1.5-1.4 2.62-1.37.37 0 .47-.34.4-.68-.3.62-1.67-.07-2.43.26-1.57.7-1.28 3.77-2.02 4.07.77.65 1.12-1.74 1.43-2.3z"/><g fill="url(#h)"><path fill="#fff" d="M453.1 307.64l-9.95 17.24h113.7l-9.95-17.23h-93.8z"/><g id="n" fill="url(#i)"><path id="k" fill="url(#j)" d="M449.7 321.36c-1.65 0-3.2.17-4.7.36l-.5.84c2.44-.2 4.7-.65 7.15-.7 3.3.07 6.28.82 9.78.82 1.52.02 3.03-.03 4.53 0 3.5 0 6.5-.75 9.78-.83 3.3.08 6.3.83 9.8.83 1.53 0 3.2-.02 4.54 0 3.5 0 6.47-.75 9.76-.83 3.3.08 6.27.83 9.77.83 1.54.02 3.04-.03 4.55 0 3.5 0 6.5-.75 9.8-.83 3.3.08 6.27.83 9.77.83 1.52.02 3.03-.03 4.53 0 3.5 0 6.48-.75 9.77-.83 2.55.07 4.92.52 7.5.73l-.53-.9c-1.4-.16-2.85-.3-4.38-.3-1.53-.04-3.04.02-4.55 0-3.5 0-6.47.73-9.76.8-3.3-.07-6.27-.82-9.78-.82-1.5-.02-3.03.04-4.52 0-3.5 0-6.5.75-9.8.83-3.28-.1-6.27-.84-9.77-.84-1.52-.02-3.04.04-4.55 0-3.5 0-6.47.75-9.76.83-3.3-.1-6.27-.84-9.77-.84-1.52-.02-3.03.04-4.53 0-3.5 0-6.5.75-9.78.83-3.3-.1-6.3-.84-9.8-.84-1.5-.02-3.03.04-4.53 0z"/><use width="100%" height="100%" y="-1.113" fill="url(#l)" xlink:href="#k"/><use width="100%" height="100%" y="-2.23" fill="url(#m)" xlink:href="#k"/></g><use width="100%" height="100%" y="-3.344" fill="url(#o)" xlink:href="#n"/><use width="100%" height="100%" y="-6.691" fill="url(#p)" xlink:href="#n"/><path fill="url(#q)" d="M453.23 307.46l-.12.2h93.8l-.13-.2h-93.54zm-.22.38l-.12.22h94.24l-.13-.22h-94zm-.2.34l-.2.36h94.8l-.2-.36h-94.4zm-.3.55l-.26.44h95.52l-.25-.44h-95zm-.4.7l-.26.43h96.32l-.25-.44h-95.8zm-.4.7l-.25.42h97.1l-.24-.43h-96.6zm-.4.68l-.25.44h97.9l-.24-.43h-97.4zm-.43.75l-.3.53h98.87l-.3-.53h-98.27z"/><path fill="url(#r)" d="M457.36 312.3c3.45.65 3.78 0 3.78 0zm81.5 0s.33.65 3.78 0z"/></g><g fill="#ccd11e"><g id="t"><path fill="url(#s)" d="M530.63 297.04c-1.7 0-2.23.86-2.23.86-2.74 10.58-11.8 21.34-22.6 21.34h-8.08V330h61.5l-6.17-10.95c-9.7-1.45-17.64-11.37-20.17-21.14 0 0-.54-.86-2.25-.86z"/><path fill="#97c924" d="M530.63 297.46c-.78 0-1.26.18-1.54.36-.27.17-.32.28-.33.3 0 0 0 0-.02 0-1.4 5.33-4.35 10.67-8.33 14.7-4 4.08-9.07 6.84-14.6 6.84h-7.68v9.92H559l-5.68-10.05c-4.7-.62-8.98-3.17-12.46-6.7-4-4.03-6.93-9.38-8.33-14.7l-.02-.02s-.06-.1-.33-.26c-.28-.18-.75-.37-1.54-.37z"/><path fill="#ede71f" d="M530.63 297.46c.15 0 .28.02.4.04.03 3 0 8.1 0 10.8-.02 2.34-.82 4.22-2 6.44-.55 1.55-1 .96-2.36 2.86-1.83.65-3.18.9-5.13 1.2-2.52.4-8.12.76-10.9.15 3.65-1.07 6.97-3.27 9.78-6.12a30.57 30.57 0 0 0 2.13-2.4 33.66 33.66 0 0 0 3-4.48c.36-.63.7-1.25 1-1.9a33.86 33.86 0 0 0 1.26-2.93c.13-.33.25-.67.36-1 .22-.67.42-1.33.6-2 .02-.03.07-.14.33-.3.13-.1.32-.17.57-.24.27-.07.57-.12.96-.12z"/><path fill="#c6cb24" d="M529.94 298.9c-.4 6.04-2.28 13.2-6.65 17.8-1.6 1.35-3.67 2.56-5.65 2.27 6.77-5.5 10.88-13.95 12.3-20.07z"/><path fill="#9ecb34" d="M524.5 309.28c-1 2.72-4.8 6.75-8.85 10.05-1.15.03-1.76.1-2.8.03 2.47-.22 8.22-5.08 11.64-10.08z"/></g><use width="100%" height="100%" x="-15.341" xlink:href="#t"/><g fill="#c6cb24"><path fill="url(#u)" d="M502.22 297.9c2.73 10.6 11.8 21.34 22.58 21.34h8.1V330c0 .02-.02 0-.03 0h-65.8s0 .02 0 0v-10.76h8.07c10.8 0 19.86-10.75 22.6-21.33 0 0 .53-.85 2.24-.85 1.7 0 2.24.86 2.24.86z"/><path fill="#97c924" d="M499.98 297.46c.78 0 1.25.2 1.53.38.28.16.35.26.35.27l.02.02c1.4 5.33 4.35 10.67 8.33 14.7 4.02 4.08 9.1 6.84 14.62 6.84h7.64v9.92h-64.98v-9.92h7.68c5.53 0 10.6-2.76 14.6-6.83 4-4.04 6.94-9.38 8.34-14.7 0 0 0-.02 0-.02.02 0 .07-.1.33-.28.28-.17.76-.35 1.54-.35z"/><path fill="#ede71f" d="M499.26 297.53a3.4 3.4 0 0 0-.24.06H499c-.24.05-.43.13-.57.22-.26.17-.3.28-.32.3a28.88 28.88 0 0 1-.95 3 34.22 34.22 0 0 1-1.25 2.94 34.2 34.2 0 0 1-1 1.9 33.63 33.63 0 0 1-3 4.47 30.73 30.73 0 0 1-2.14 2.4c-2.8 2.85-6.13 5.05-9.77 6.12 2.75.6 4.02-.06 6.54-.46 1.95-.3 4.2-.57 6.04-1.22 1.37-1.9.9-1.3 1.45-2.86 1.18-2.2 2.9-4.22 3.33-6.68 1.62-3.02 1.9-8.6 1.9-10.2z"/><path d="M499.27 298.9c-.4 6.04-2.27 13.2-6.64 17.8-1.6 1.35-3.66 2.56-5.64 2.27 6.76-5.5 10.87-13.95 12.28-20.07z"/><path fill="#9ecb34" d="M493.83 309.28c-1 2.72-4.8 6.75-8.84 10.05-1.16.03-1.77.1-2.8.03 2.46-.22 8.2-5.08 11.63-10.08z"/><path fill="#ede71f" d="M500.95 297.58h.02c.24.07.43.15.57.24.26.17.3.27.32.3 0 0 .02 0 .02 0 .17.67.37 1.34.6 2 .1.33.22.66.35 1a33.6 33.6 0 0 0 1.25 2.94c.3.64.64 1.26 1 1.9a33.63 33.63 0 0 0 3 4.47 30.73 30.73 0 0 0 2.13 2.4c2.82 2.85 6.14 5.44 9.78 6.5-7.24.04-10.4-.62-13.02-4-2.63-3.4-3.6-4.87-4.14-6.94-.53-2.08-2.02-6.58-1.87-10.82z"/><path d="M501.48 298.9c.4 6.04 2.22 12 6.58 16.63 1.6 1.33 3.66 2.55 5.65 2.25-7.33-5-10.82-12.76-12.23-18.88z"/></g><g id="w"><path fill="url(#v)" d="M484.75 297.04c-1.7 0-2.25.86-2.25.86-2.52 9.75-11.82 22.32-21.5 23.82l-4.8 8.3h49.03v-11.36c-8.83-2.37-15.9-11.63-18.25-20.75 0 0-.52-.85-2.23-.85z"/><path fill="#97c924" d="M484.75 297.46c-.79 0-1.26.2-1.54.38-.26.16-.32.26-.33.27v.02c-1.42 5.33-4.7 10.7-8.1 15-3.4 4.28-9.7 8.6-14.04 9.07l-4.28 7.38h48.06v-10.7c-3.54-1.08-6.8-3.26-9.54-6.05-3.98-4.04-6.93-9.38-8.33-14.7 0 0-.02-.02-.02-.02s-.05-.12-.3-.28c-.3-.17-.77-.36-1.55-.36z"/><path fill="#93bc30" d="M483.44 298.9c-.6 9.05-5.65 20.46-11.34 22.42-1.85.64-5.1.87-6.22 1 9.95-4.72 15.83-15.84 17.57-23.42z"/><path fill="#ede71f" d="M484.75 297.46c-.15 0-.28.02-.4.04-.03 3 0 8.1 0 10.8.02 2.34.82 4.22 2 6.44.07.2.14.35.2.5.4 1.08.72 1.45 2.3 2.64 4.97 3.8 11.16 4.36 14.8 4.04-1.15-.9-2.36-1.7-3.44-2.46 1.72-.06 3.36-.25 4.53-.5-3.64-1.08-6.96-3.28-9.77-6.13a30.52 30.52 0 0 1-1.4-1.55c-.22-.3-.5-.7-.6-.82-1.12-1.4-2.26-2.94-3.14-4.5a34.16 34.16 0 0 1-1-1.9 34.02 34.02 0 0 1-1.6-3.94 31.68 31.68 0 0 1-.6-2s0 0-.02 0c0-.03-.05-.14-.32-.3a2.2 2.2 0 0 0-.57-.24 3.6 3.6 0 0 0-.96-.12z"/><path d="M485.45 298.9c.4 6.04 2.27 13.2 6.64 17.8 1.6 1.35 3.65 2.56 5.64 2.27-6.77-5.5-10.9-13.95-12.3-20.07z"/><path fill="#9ecb34" d="M489.6 307.25c2.38 5.83 8.38 11.3 14.56 14.95 1.15.04 1.5 0 2.53-.06-4.43-2.37-11.55-5.75-17.1-14.9z"/></g><use width="100%" height="100%" x="-15.43" fill="#c6cb24" xlink:href="#w"/></g><path fill="#fff" d="M556.5 324.7c-.57.2-4.42-.2-6.43-.05l-1.28.33c-1.14 0-2.25.03-3.34 0-3.6 0-6.65.95-10.08.95-3.43 0-6.47-.95-10.07-.95-1.1 0-2.23.03-3.32 0-3.6 0-6.65.95-10.08.95-3.43 0-6.47-.95-10.07-.95-1.13 0-2.25.03-3.35 0-3.6 0-6.63.95-10.06.95-3.43 0-6.46-.95-10.06-.95-.26 0-.5 0-.77.02-.2 0-.4 0-.57 0-.12 0-.22-.02-.34 0-.13-.02-.25 0-.37 0-.18 0-.34 0-.52 0-.25 0-.5 0-.77 0-3.6 0-6.64.94-10.07.93-3.43 0-6.48-.94-10.08-.94-.26 0-.52 0-.77 0-.17 0-.33 0-.52 0-.12 0-.25-.02-.37 0-.1-.02-.23 0-.35 0-.18 0-.36 0-.54 0-.25 0-.5 0-.76 0-2.88 0-6.22.6-8.94.84l-6.27 10.86h127.35z"/><path fill="url(#x)" d="M548 323.1c-.2 0-.4 0-.6.02-3.24.1-5.57 1.1-11.2 1.1-5.64 0-6.22-1-12.6-.87-5.93.13-8.43 1.27-11.66 1.22-3.22-.04-8.47-.7-12.5-.27-4.04.42-8.83 1.28-11.98 1.3-3.9-.03-7.82-.74-11.9-.34-4.1.4-6 1.5-11.07 1.5-4.36-.02-9.1-.7-12.75-.7-3.44 0-7.27.95-10.1 1.44l-.83 1.46c2.24-.26 8.55-1.22 10.8-1.28 2.34-.06 10.72.5 15.33.33 4.62-.15 5.16-1.16 10.62-1.16 3.8 0 6.67.4 10.57.4 2.43 0 4.64-1.25 8.34-1.25.94-.03 1.87-.07 2.8-.1 3.12-.5 8.38.05 12.04.23 3.32.18 5.46-.6 8.92-.73 1.5-.06 3-.06 4.47-.14 3.47-.12 6.43.64 9.7.62 3.24-.2 6.4-.92 9.85-1.04 1.5-.07 3-.07 4.5-.14 2.28-.08 5.83.07 8.26.5l-.83-1.45c-2.38-.08-5.3-.64-8.18-.64z"/><g id="A"><path id="z" fill="url(#y)" d="M450.3 334.75c-3.44 0-6.4.85-9.64.94-1.2-.04-2.37-.2-3.54-.35l-.5.85c.5.03 1 .06 1.5.06 1.5.02 3-.03 4.48 0 3.45 0 6.38-.85 9.63-.94 3.26.1 6.2.94 9.67.94 1.5.02 3-.03 4.47 0 3.46 0 6.4-.85 9.67-.94 3.25.1 6.23.94 9.7.94 1.48.02 2.98-.03 4.46 0 3.45 0 6.4-.85 9.65-.94 3.25.1 6.2.94 9.65.94 1.5.02 3-.03 4.5 0 3.44 0 6.4-.85 9.65-.94 3.26.1 6.2.94 9.67.94 1.5.02 3-.03 4.47 0 3.45 0 6.4-.85 9.64-.94 3.26.1 6.2.95 9.67.95 1.5.02 3-.04 4.48 0 .6 0 1.2-.04 1.78-.08l-.46-.8c-1.06.14-2.13.27-3.23.3-3.26-.1-6.2-.95-9.66-.95-1.5-.02-2.98.03-4.48 0-3.45 0-6.4.86-9.65.95-3.25-.1-6.2-.95-9.66-.95-1.5-.02-2.98.03-4.46 0-3.46 0-6.42.86-9.67.95-3.26-.1-6.2-.95-9.67-.95-1.5-.02-3 .03-4.5 0-3.45 0-6.4.86-9.64.95-3.25-.1-6.2-.95-9.65-.95-1.5-.02-2.98.03-4.46 0-3.46 0-6.4.86-9.67.95-3.25-.1-6.2-.95-9.67-.95-1.5-.02-3 .03-4.5 0z"/><use width="100%" height="100%" y="-1.289" xlink:href="#z"/><use width="100%" height="100%" y="-2.575" xlink:href="#z"/></g><use width="100%" height="100%" y="-3.867" xlink:href="#A"/><use width="100%" height="100%" y="-7.729" xlink:href="#A"/><path fill="#97c924" d="M443.85 324.7l-2.43 4.2c2.84-.47 7.1-1.7 10.63-1.7 3.66 0 8.08.9 12.44.9 5.06.02 6.97-1.07 11.05-1.48 4.1-.4 8 .53 11.9.55 3.15 0 7.95-1.1 11.98-1.52 4.04-.42 7.74.3 12.6.37 4.87.08 5.64-1.18 11.58-1.3 6.38-.15 6.96.87 12.6.87 4.24.22 7.88-.86 11.66-1.13 3.8-.27 5.54.04 8.3.1l-1.83-3.24c-.03 0-.06 0-.1 0L453 323.56z"/><path fill="#fff" d="M550.07 324.65s2.7.15 3.84.27a91.4 91.4 0 0 0 2.97.26l-.37-.5c-.57.22-4.42-.18-6.43-.03z"/></g><path fill="#c8a400" d="M320 179.9l-25.7 44.55-26.3 45.52h104l-25.72-44.55L320 179.9zm0 2.4l25.24 43.72 24.68 42.75h-99.84l25.24-43.72z"/></svg>