<svg xmlns="http://www.w3.org/2000/svg" width="640" height="480"><defs><clipPath id="a"><path fill-opacity=".67" d="M-54.67 0H628v512H-54.67z"/></clipPath></defs><g fill-rule="evenodd" clip-path="url(#a)" transform="translate(51.25) scale(.938)"><path fill="#002170" d="M-140 0H884v512H-140z"/><path fill="#ffb20d" d="M-140 234.1H884v43.8H-140z"/><path fill="#fff" d="M161.8 438L128.9 405l-10.6 45.36-12.02-45-31.87 33.96 12.1-44.98-44.58 13.5 32.98-32.9-45.37-10.63 45.02-12-34-31.88 45 12.1-13.5-44.58 32.92 32.97 10.6-45.37 12.02 45.02 31.85-34-12.1 45 44.6-13.5-32.98 32.9 45.36 10.62-45.02 12 34 31.9-45-12.12z"/></g></svg>