<svg xmlns="http://www.w3.org/2000/svg" width="640" height="480"><defs><clipPath id="a"><path fill-opacity=".67" d="M0 0h496.06v372.05H0z"/></clipPath></defs><g transform="scale(1.29)" clip-path="url(#a)"><path fill="#fff" fill-rule="evenodd" d="M0 0h499.56v248.1H0z"/><path fill="#c00" d="M0 0v18.62l119.2 61.25 44.86 1.3L0 0z"/><path fill="#006" d="M51.05 0l144.53 75.5V0H51.06z"/><path fill="#c00" d="M214.86 0v96.37H.02v55.07h214.84v96.37h66.1v-96.36h214.85V96.37H280.98V0h-66.1z"/><path fill="#006" d="M300.24 0v71.13L441.64.55 300.23 0z"/><path fill="#c00" d="M304.7 78.9l39.77-.33L498.95.55l-41 .67L304.72 78.9z"/><path fill="#006" d="M0 167.5v52.77l99.17-52.22L0 167.5z"/><path fill="#c00" d="M381.85 169.68l-41.34-.32 155.83 77.58-1.02-17.75-113.45-59.52zM38.73 248.25l146.1-76.7-38.37.25L0 248.14"/><path fill="#006" d="M497.9 21.8l-118 58.5 116.43.45v87.2h-99.16l98.24 53.22 1.46 27.08-52.48-.63-143.62-70.5v71.13H196.1v-71.13L61.36 248.06l-60.84.2v247.8h991.6V.43L498.94 0M.55 27.97L0 79.44l104.4 1.3L.54 27.98z"/><g fill="#ffd900" fill-rule="evenodd"><path d="M496.06 0h496.06v496.06H496.06zM0 248.03h523.5v248.03H0z"/></g><g fill-rule="evenodd"><path fill="#000067" d="M290.9 125.3c0 23.6-19.15 42.76-42.77 42.76-23.62 0-42.77-19.15-42.77-42.77S224.5 82.5 248.13 82.5c23.62 0 42.77 19.15 42.77 42.77z"/><path fill="#fff40d" d="M240.2 114.32l8.2-24.6 8.24 24.6 26.68-.02-21.6 15.18 8.27 24.58-21.6-15.22-21.57 15.2 8.27-24.56-21.6-15.2zm148.54 4.03l4.07-11.52 4.1 11.52h13.22l-10.7 7.1 4.1 11.5-10.7-7.12-10.7 7.12 4.1-11.5-10.7-7.12zM244.06 203.9l4.07-11.53 4.08 11.52 13.23-.02-10.7 7.1 4.1 11.5-10.7-7.1-10.7 7.1 4.1-11.5-10.7-7.1zm0-167.06l4.07-11.52 4.08 11.52h13.23l-10.7 7.1 4.1 11.5-10.7-7.12-10.7 7.12 4.1-11.5-10.7-7.12zm-145.13 81.5l4.08-11.5 4.08 11.5h13.23l-10.7 7.1 4.1 11.5-10.7-7.1-10.7 7.1 4.1-11.5-10.7-7.1z"/></g></g></svg>