<svg xmlns="http://www.w3.org/2000/svg" width="640" height="480" xmlns:xlink="http://www.w3.org/1999/xlink"><defs><g id="b"><g id="a"><path d="M0-.33v.5l1-.5zM0 0l-.3-.4L.8-.6z"/></g><use transform="scale(-1 1)" xlink:href="#a"/><use transform="rotate(72 0 0)" xlink:href="#a"/><use transform="rotate(-72 0 0)" xlink:href="#a"/><use transform="scale(-1 1) rotate(72)" xlink:href="#a"/></g><clipPath id="c"><path d="M0 0h600v300H0z"/></clipPath><clipPath id="d"><path d="M0 0l300 150H0zm300 0h300L300 150zm0 150h300v150zm0 0v150H0z"/></clipPath></defs><path fill="#00247d" fill-rule="evenodd" d="M0 0h640v480H0z"/><g transform="translate(-92.947 36.115) scale(.668)"><use width="100%" height="100%" fill="#fff" xlink:href="#b" transform="matrix(45.4 0 0 45.4 900 120)"/><use width="100%" height="100%" fill="#cc142b" xlink:href="#b" transform="matrix(30 0 0 30 900 120)"/></g><g transform="rotate(82 534.179 124.977) scale(.668)"><use width="100%" height="100%" fill="#fff" xlink:href="#b" transform="rotate(-82 519.022 -457.666) scale(40.4)"/><use width="100%" height="100%" fill="#cc142b" xlink:href="#b" transform="rotate(-82 519.022 -457.666) scale(25)"/></g><g transform="rotate(82 534.179 124.977) scale(.668)"><use width="100%" height="100%" fill="#fff" xlink:href="#b" transform="rotate(-82 668.57 -327.666) scale(45.4)"/><use width="100%" height="100%" fill="#cc142b" xlink:href="#b" transform="rotate(-82 668.57 -327.666) scale(30)"/></g><g transform="translate(-92.947 36.115) scale(.668)"><use width="100%" height="100%" fill="#fff" xlink:href="#b" transform="matrix(50.4 0 0 50.4 900 480)"/><use width="100%" height="100%" fill="#cc142b" xlink:href="#b" transform="matrix(35 0 0 35 900 480)"/></g><path stroke="#fff" stroke-width="60" d="M0 0l600 300M0 300L600 0" clip-path="url(#c)" transform="matrix(.607 0 0 .731 .004 0)"/><path stroke="#cc142b" stroke-width="40" d="M0 0l600 300M0 300L600 0" clip-path="url(#d)" transform="matrix(.607 0 0 .731 .004 0)"/><path fill="#fff" d="M151.7 0v79.37H0v60.68h151.7v79.37h60.7v-79.37h151.7V79.37H212.4V0z" style="line-height:normal;text-indent:0;text-align:start;text-decoration-line:none;text-decoration-style:solid;text-decoration-color:#000;text-transform:none;block-progression:tb;isolation:auto;mix-blend-mode:normal" clip-path="url(#c)" color="#000" font-weight="400" font-family="sans-serif" overflow="visible"/><path fill="#cc142b" d="M163.84 0v91.5H0v36.4h163.84v91.5h36.4v-91.5H364.1V91.5H200.24V0z" style="line-height:normal;text-indent:0;text-align:start;text-decoration-line:none;text-decoration-style:solid;text-decoration-color:#000;text-transform:none;block-progression:tb;isolation:auto;mix-blend-mode:normal" color="#000" font-weight="400" font-family="sans-serif" overflow="visible"/></svg>