<svg xmlns="http://www.w3.org/2000/svg" width="640" height="480"><defs><clipPath id="a"><path fill-opacity=".67" d="M0 0h640v480H0z"/></clipPath></defs><g clip-path="url(#a)"><path fill="#ef2d29" fill-rule="evenodd" d="M-3.3-21.6h702.27v553H-3.3z"/><path fill="#009025" fill-rule="evenodd" d="M174.57 317.33h535.76V524.9H174.57z"/><path fill="#fff" fill-rule="evenodd" d="M174.57-35.41h564.88v190.06H174.57z"/><g stroke="#ef2d28" stroke-width=".983"><g fill="#fff" fill-rule="evenodd" transform="matrix(.198 0 0 .177 111.26 -13.444)"><rect width="138.19" height="85.039" x="17.717" y="467.72" rx="11.298" ry="11.851"/><rect width="131.1" height="77.953" x="21.26" y="471.26" rx="10.719" ry="10.864"/><path d="M82.22 492.52l6.62.26.3 3.36 5.42 3.1 4.2-3.87 5.13 3.1-4.82 3.36 1.2 4.66 6.02-.27v6.2l-4.82-.25-2.4 3.88 5.4 4.4-4.2 3.6-4.52-3.87-6.62 1.55.3 5.7-7.22.5-.9-5.43-6.02-2.84-3.3 3.88-5.13-2.85 3-4.4-3.6-2.83h-5.12l-.3-8.02 5.12.52 3.6-4.66-4.2-3.6 5.4-4.14 3.92 3.36 6.62-1.04.9-3.36z"/><ellipse cx="68.944" cy="426.78" transform="matrix(.658 0 0 .702 38.845 209.62)" rx="11.049" ry="9.944"/><path d="M38.98 474.8l-10.63 10.63m17.7-10.63l-10.62 10.63m17.72-10.63l-10.63 10.63m17.72-10.63L49.6 485.43m17.72-10.63L56.7 485.43m17.7-10.63L63.8 485.43M81.5 474.8l-10.63 10.63m17.7-10.63l-10.62 10.63m17.72-10.63l-10.63 10.63m17.7-10.63l-10.62 10.63m17.72-10.63L99.2 485.43m17.73-10.63l-10.63 10.63M88.58 474.8l-10.63 10.63M124 474.8l-10.62 10.63m17.72-10.63l-10.63 10.63m17.72-10.63l-10.64 10.63m17.72-10.63l-10.63 10.63m0-10.63l10.62 10.63m-17.7-10.63l10.62 10.63m-17.73-10.63l10.63 10.63m-17.72-10.63L124 485.43m-17.7-10.63l10.63 10.63M99.2 474.8l10.64 10.63M92.12 474.8l10.63 10.63m-17.7-10.63l10.62 10.63M77.95 474.8l10.63 10.63M70.86 474.8l10.63 10.63M63.77 474.8l10.63 10.63M56.7 474.8l10.62 10.63m17.72-10.63l10.63 10.63M49.6 474.8l10.64 10.63M42.52 474.8l10.63 10.63M35.43 474.8l10.63 10.63m-17.7-10.63l10.62 10.63m0 49.6l-10.63 10.64m17.7-10.63l-10.62 10.63m17.72-10.63l-10.63 10.63m17.72-10.63L49.6 545.67m17.72-10.63L56.7 545.67m17.7-10.63L63.8 545.67m17.72-10.63l-10.63 10.63m17.7-10.63l-10.62 10.63m17.72-10.63l-10.63 10.63m17.7-10.63l-10.62 10.63m17.72-10.63L99.2 545.67m17.73-10.63l-10.63 10.63m-17.72-10.63l-10.63 10.63m46.07-10.63l-10.63 10.63m17.7-10.63l-10.63 10.63m17.72-10.63l-10.64 10.63m17.72-10.63l-10.63 10.63m0-10.63l10.62 10.63m-17.7-10.63l10.62 10.63m-17.73-10.63l10.63 10.63m-17.72-10.63L124 545.67m-17.7-10.63l10.63 10.63M99.2 535.04l10.64 10.63m-17.72-10.63l10.63 10.63m-17.7-10.63l10.62 10.63m-17.72-10.63l10.63 10.63m-17.72-10.63l10.63 10.63m-17.72-10.63l10.63 10.63m-17.7-10.63l10.62 10.63m17.72-10.63l10.63 10.63M49.6 535.04l10.64 10.63m-17.72-10.63l10.63 10.63m-17.72-10.63l10.63 10.63m-17.7-10.63l10.62 10.63"/></g><g fill="#fff" fill-rule="evenodd" transform="matrix(.198 0 0 .177 19.131 -14.073)"><rect width="138.19" height="85.039" x="17.717" y="467.72" rx="11.298" ry="11.851"/><rect width="131.1" height="77.953" x="21.26" y="471.26" rx="10.719" ry="10.864"/><path d="M82.22 492.52l6.62.26.3 3.36 5.42 3.1 4.2-3.87 5.13 3.1-4.82 3.36 1.2 4.66 6.02-.27v6.2l-4.82-.25-2.4 3.88 5.4 4.4-4.2 3.6-4.52-3.87-6.62 1.55.3 5.7-7.22.5-.9-5.43-6.02-2.84-3.3 3.88-5.13-2.85 3-4.4-3.6-2.83h-5.12l-.3-8.02 5.12.52 3.6-4.66-4.2-3.6 5.4-4.14 3.92 3.36 6.62-1.04.9-3.36z"/><ellipse cx="68.944" cy="426.78" transform="matrix(.658 0 0 .702 38.845 209.62)" rx="11.049" ry="9.944"/><path d="M38.98 474.8l-10.63 10.63m17.7-10.63l-10.62 10.63m17.72-10.63l-10.63 10.63m17.72-10.63L49.6 485.43m17.72-10.63L56.7 485.43m17.7-10.63L63.8 485.43M81.5 474.8l-10.63 10.63m17.7-10.63l-10.62 10.63m17.72-10.63l-10.63 10.63m17.7-10.63l-10.62 10.63m17.72-10.63L99.2 485.43m17.73-10.63l-10.63 10.63M88.58 474.8l-10.63 10.63M124 474.8l-10.62 10.63m17.72-10.63l-10.63 10.63m17.72-10.63l-10.64 10.63m17.72-10.63l-10.63 10.63m0-10.63l10.62 10.63m-17.7-10.63l10.62 10.63m-17.73-10.63l10.63 10.63m-17.72-10.63L124 485.43m-17.7-10.63l10.63 10.63M99.2 474.8l10.64 10.63M92.12 474.8l10.63 10.63m-17.7-10.63l10.62 10.63M77.95 474.8l10.63 10.63M70.86 474.8l10.63 10.63M63.77 474.8l10.63 10.63M56.7 474.8l10.62 10.63m17.72-10.63l10.63 10.63M49.6 474.8l10.64 10.63M42.52 474.8l10.63 10.63M35.43 474.8l10.63 10.63m-17.7-10.63l10.62 10.63m0 49.6l-10.63 10.64m17.7-10.63l-10.62 10.63m17.72-10.63l-10.63 10.63m17.72-10.63L49.6 545.67m17.72-10.63L56.7 545.67m17.7-10.63L63.8 545.67m17.72-10.63l-10.63 10.63m17.7-10.63l-10.62 10.63m17.72-10.63l-10.63 10.63m17.7-10.63l-10.62 10.63m17.72-10.63L99.2 545.67m17.73-10.63l-10.63 10.63m-17.72-10.63l-10.63 10.63m46.07-10.63l-10.63 10.63m17.7-10.63l-10.63 10.63m17.72-10.63l-10.64 10.63m17.72-10.63l-10.63 10.63m0-10.63l10.62 10.63m-17.7-10.63l10.62 10.63m-17.73-10.63l10.63 10.63m-17.72-10.63L124 545.67m-17.7-10.63l10.63 10.63M99.2 535.04l10.64 10.63m-17.72-10.63l10.63 10.63m-17.7-10.63l10.62 10.63m-17.72-10.63l10.63 10.63m-17.72-10.63l10.63 10.63m-17.72-10.63l10.63 10.63m-17.7-10.63l10.62 10.63m17.72-10.63l10.63 10.63M49.6 535.04l10.64 10.63m-17.72-10.63l10.63 10.63m-17.72-10.63l10.63 10.63m-17.7-10.63l10.62 10.63"/></g><path fill="#fff" fill-rule="evenodd" d="M65.67 100.55C31.55 134 17 138.25 23.82 140.95s28.8-14.58 51.68-37.52 36.87-43.35 30.04-46.05-3.57 7.58-39.87 43.17zM36.94 124.87l11.96 3.15c-11.25 10.7-23.9 15.1-27.43 13.2-3.52-1.9 6.33-6.3 15.47-16.35zM36.94 126.13l9.85 2.52c-10.97 10.28-21.82 13.2-24.62 11.95-2.82-1.26 5.85-4.8 14.76-14.47z"/><path fill="none" d="M73.67 99.1c-.03.15-.1.87-.18 1.16 0 .4-.05.7-.1 1-.1.28-.1.53-.43.63-.24.32-.4.4-.7.53-.2.17-.54.33-.87.47-.35.13-.67.15-1.05.07-.3-.18-.54-.38-.8-.54-.05-.24-.1-.6-.16-.85.08.25.15.65.16 1-.03.4-.18.56-.35.86M70.44 104.3l-.1-.08c.22.18.13.1-.34-.16-.34-.15-.7-.24-1.14-.3h-1.22c-.48 0-.8.05-1.14.15-.24.22-.6.35-.87.55-.27.16-.38.35-.52.62-.23.2-.4.54-.6.7-.1.35-.3.34-.44.62.4.02.74.07.96.3.36.17-.3-.17-.44-.3-.28-.1-.36-.17-.78-.17-.4-.1-.64.1-1.05.16-.24.1-.3.14-.6.14M65.72 108.17c-.18 0-1 .15-1.3 0-.37-.08-.58-.25-.8-.54-.1-.2 0 .37 0 .62-.04.46-.2.46-.44.78-.25.14-.52.35-.78.46-.22.16-.5.28-.8.38-.25.1-.56.23-.77.4-.3.17-.27.4-.44.7.02.37.1.58.34.76.1.27.33.53.52.7.22.36.46.53-.08.62-.3.12-.47.03-.8 0M60.2 113.6c-.2-.04-.96-.27-1.3-.38h-1.22c-.47.03-.56.15-.96.3-.26.24-.43.4-.8.55-.17.22-.54.58-.7.85-.1.27-.16.63-.16 1 0 .47.14.54.17.94.1.34.26.64.53.93.03.1.06.12.17.15M56.05 118.96c-.03 0-.12.2-.25.37-.28.28-.3.3-.74.3-.38 0-.35-.15-.62-.24-.13-.2-.3-.36-.43-.62-.1-.16-.18-.4-.3-.55-.12-.2-.26-.32-.38-.5-.1-.04-.16-.1-.3-.12.35.07.38.2.6.38.12.18.23.36.32.55.04.26.12.47.13.8 0 .34 0 .57-.13.86-.14.14-.25.3-.43.4-.13.15-.3.34-.42.5-.2.12-.34.22-.56.37-.2.1-.4.22-.68.25-.37-.03-.48-.13-.75-.25-.24-.17-.42-.28-.63-.43-.16-.1-.33-.33-.43-.5-.34-.07-.55-.04-.75.14a-1.64 1.62 0 0 1-.44.42c-.1.05-.27.2-.37.25M49.22 121.5c.1.04.46.3.62.38.1.32.25.5.3.84.1.33.08.7.08 1.07-.08.38-.25.67-.38.98-.25.17-.37.3-.7.46-.3.04-.6.08-1 .08-.23.08-.7.1-.92 0-.35-.05-.6-.2-.85-.3-.3-.17-.46-.32-.77-.47-.15-.22-.4-.42-.62-.68-.2-.26-.33-.4-.46-.7.1.33.28.62.38.92.18.32.28.44.3.84.12.3.1.7.1 1.07-.05.25-.06.72-.17.92v.23M37.82 128.37v.1c0-.3 0-.14.12.45.24.26.78.34 1.24.23.4-.3.4-.53 1.12-.67.7.05.97.23 1.36.44.47.2.7.32 1 .78.15.38.24.63-.25.78-.38.24-.84.38-1.36.44-.57 0-.98-.06-1.24.22-.4.37-.37.58-.37 1.22-.13.2-.16.78-.25 1-.34.15-.54.22-1.1.22-.15-.34-.3-.96-.4-1.33-.08-.4-.1-.95-.36-1.22a-3.3 2.94 0 0 1-.87-.78c-.15-.2-.44-.34-.74-.44.5.23.56.47.63 1-.43.2-.54.33-1.24.34-.7-.05-.86-.2-1.13-.55-.05.54-.24.73-.37 1.2-.26.34-.36.7-.62 1.12.1.53.34.56.37 1.22.16.43.15.84.5 1.1.16.18.27.2.62.23-.72 0-1.14-.07-1.6-.34-.38-.2-.66-.45-1-.66-.45-.3-1-.55-1.5-.67-.57 0-.98-.06-1.24.23-.35.22-.58.6-.74 1.1-.13.58-.17.96.1 1.34.22.42.27.6 0 1.1-.27.36-.7.4-1.35.56-.47-.02-.93-.12-1.24-.22"/><g fill-rule="evenodd" transform="matrix(-.198 0 0 .177 145.247 -13.446)"><path fill="#fff" d="M204.75 472.26c-76.3-147.72-126.92-273.43-113.02-280.6 13.9-7.2 87.1 106.86 163.4 254.58l-50.38 26.02zM209.8 469.66C136.2 327.16 85.5 206.84 96.62 201.1c11.12-5.75 79.88 105.24 153.48 247.74"/><path fill="#fff" d="M222.45 395.33c8.95 16.66 18.45 35.7 27.65 53.52l-40.3 20.8c-9.2-17.8-19.24-36.57-27.64-53.5l40.3-20.82zM219.03 401.08c8.95 16.66 15.2 29.4 24.4 47.22l-30.23 15.6c-9.2-17.8-15.98-30.27-24.4-47.2l30.23-15.62zM197.1 420.38l20.16-10.4 17.88 34.63L215 455zm0 0l38.04 24.23M215 455.03l2.26-45.04m-111.2-165.9l20.14-10.4"/><ellipse cx="545.67" cy="92.126" fill="#ef0000" transform="matrix(1.605 .454 -.362 1.579 -734.9 -170.85)" rx="3.543" ry="3.543"/></g><path fill="#fff" fill-rule="evenodd" d="M98.7 99.93c34.13 33.46 48.7 37.7 41.86 40.4s-28.8-14.6-51.68-37.53S52 59.45 58.84 56.75s3.57 7.6 39.87 43.18zM127.44 124.25l-11.96 3.14c11.25 10.68 23.9 15.08 27.43 13.2 3.52-1.9-6.32-6.3-15.46-16.35zM127.44 125.5l-9.85 2.52c10.95 10.28 21.8 13.2 24.6 11.95 2.82-1.26-5.86-4.8-14.76-14.46z"/><path fill="none" d="M90.7 98.47c.04.16.12.88.2 1.16 0 .4.03.7.07 1 .1.28.1.53.44.63.25.33.4.4.7.54.22.17.55.33.88.47.35.13.67.15 1.05.08.3-.2.53-.4.8-.55.05-.24.1-.6.16-.85-.1.25-.17.65-.18 1 .03.4.17.57.35.86M93.94 103.67l.1-.08c-.22.17-.13.08.34-.17.34-.15.7-.23 1.14-.3h1.22c.47 0 .8.06 1.13.15.25.22.62.34.88.54.26.16.38.35.52.62.24.2.4.54.6.7.1.36.3.34.45.62-.4.03-.74.08-.96.3-.36.18.3-.15.44-.3.28-.08.36-.15.78-.15.4-.1.64.1 1.05.16.24.12.3.16.6.16M98.66 107.55c.18 0 1 .14 1.3 0 .37-.1.58-.26.8-.55.1-.2 0 .38 0 .62.04.46.2.47.43.78.25.14.52.35.78.47.22.17.5.28.8.38.25.12.56.23.77.4.3.18.27.4.44.7-.04.37-.1.58-.36.77-.1.26-.33.52-.52.7-.22.35-.46.52.08.62.3.1.47.02.8 0M104.16 112.98c.22-.05.98-.28 1.3-.4h1.24c.47.04.56.16.96.32.26.23.43.4.8.54.17.22.54.58.68.86.1.26.18.62.18 1 0 .46-.14.53-.18.94-.1.33-.25.63-.52.93-.04.1-.06.12-.17.15M108.32 118.33c.04 0 .12.2.25.37.28.3.32.3.75.3.38 0 .35-.14.62-.24.12-.2.28-.35.43-.6.1-.17.2-.4.3-.56.12-.18.27-.32.38-.5.12-.04.16-.1.3-.1-.34.04-.38.17-.6.35-.12.18-.22.36-.32.56-.03.27-.12.47-.12.8 0 .34 0 .58.13.86.15.15.26.3.44.43.14.13.32.3.43.48.2.12.34.2.56.36.2.1.4.22.68.25.37-.04.47-.14.75-.26.22-.16.4-.27.6-.42.17-.12.33-.34.44-.5.34-.08.55-.04.74.13a1.64 1.62 0 0 1 .44.43c.1.05.27.2.37.24M115.16 120.87c-.1.04-.46.3-.62.38-.1.32-.26.5-.3.84-.1.32-.08.7-.08 1.06.08.4.24.68.38 1 .24.16.37.28.7.45.3.05.6.1 1 .1.23.07.7.1.92 0 .35-.06.6-.2.85-.32.3-.16.47-.3.78-.45.15-.23.4-.43.62-.7.2-.25.33-.4.46-.68-.1.33-.3.6-.38.92-.18.32-.28.44-.3.84-.12.33-.1.7-.1 1.08.04.25.06.7.16.9v.24M126.56 127.74v.1c0-.3 0-.13-.12.46-.24.26-.8.33-1.24.22-.4-.3-.4-.52-1.12-.67-.7.05-.97.23-1.37.45-.45.2-.67.3-.98.77-.15.38-.24.63.25.78.4.25.85.38 1.36.44.58 0 1-.07 1.25.2.4.38.37.6.37 1.23.13.2.16.78.25 1 .34.15.54.22 1.1.22.15-.34.3-.96.38-1.33.1-.4.13-.95.38-1.22a3.3 2.94 0 0 1 .86-.77c.16-.2.45-.35.75-.45-.5.23-.56.47-.62 1 .43.2.54.33 1.24.33.68-.04.84-.2 1.1-.54.05.56.25.74.38 1.22.25.34.36.68.62 1.1-.1.54-.35.57-.37 1.23-.16.44-.15.86-.5 1.12-.16.17-.27.2-.62.22.73 0 1.15-.07 1.62-.33.37-.2.65-.45 1-.66.43-.28.98-.55 1.48-.66.58 0 1-.06 1.24.22.36.22.6.6.75 1.1.1.58.15.97-.14 1.34-.2.43-.25.6 0 1.1.3.37.72.4 1.37.56.47-.02.93-.12 1.24-.22"/><g fill-rule="evenodd" transform="matrix(.198 0 0 .177 19.131 -14.073)"><path fill="#fff" d="M204.75 472.26c-76.3-147.72-126.92-273.43-113.02-280.6 13.9-7.2 87.1 106.86 163.4 254.58l-50.38 26.02zM209.8 469.66C136.2 327.16 85.5 206.84 96.62 201.1c11.12-5.75 79.88 105.24 153.48 247.74"/><path fill="#fff" d="M222.45 395.33c8.95 16.66 18.45 35.7 27.65 53.52l-40.3 20.8c-9.2-17.8-19.24-36.57-27.64-53.5l40.3-20.82zM219.03 401.08c8.95 16.66 15.2 29.4 24.4 47.22l-30.23 15.6c-9.2-17.8-15.98-30.27-24.4-47.2l30.23-15.62zM197.1 420.38l20.16-10.4 17.88 34.63L215 455zm0 0l38.04 24.23M215 455.03l2.26-45.04m-111.2-165.9l20.14-10.4"/><ellipse cx="545.67" cy="92.126" fill="#ef0000" transform="matrix(1.605 .454 -.362 1.579 -734.9 -170.85)" rx="3.543" ry="3.543"/></g><g fill="#fff" fill-rule="evenodd" transform="matrix(.198 0 0 .177 19.131 -14.073)"><path d="M265.73 396.85c0 124.02.65 170.76-7.5 177.17-7.7 6.86-222.8 0-222.8 35.43s177.14 70.87 230.3 70.87c70.86 0 106.3-35.43 106.3-106.3V396.85h-106.3zM265.75 432.28V450c35.43 5.9 70.87 5.9 106.3 0v-17.72c-35.43 5.9-70.87 5.9-106.3 0zM265.75 396.85v17.72c35.43 5.9 70.87 5.9 106.3 0v-17.72c-35.43 5.9-70.87 5.9-106.3 0zM265.75 414.57v17.7c35.43 5.92 70.87 5.92 106.3 0v-17.7c-35.43 5.9-70.87 5.9-106.3 0zM265.75 450v17.72c35.43 5.9 70.87 5.9 106.3 0V450c-35.43 5.9-70.87 5.9-106.3 0z"/><ellipse cx="256.89" cy="210.83" transform="matrix(.545 0 0 .144 130.46 394.32)" rx="8.858" ry="26.575"/><ellipse cx="292.32" cy="246.26" transform="matrix(.545 0 0 .144 130.46 391.13)" rx="8.858" ry="26.575"/><ellipse cx="327.76" cy="263.98" transform="matrix(.545 0 0 .144 130.46 390.49)" rx="8.858" ry="26.575"/><ellipse cx="363.19" cy="263.98" transform="matrix(.545 0 0 .144 130.46 390.49)" rx="8.858" ry="26.575"/><ellipse cx="398.62" cy="246.26" transform="matrix(.545 0 0 .144 130.46 391.13)" rx="8.858" ry="26.575"/><ellipse cx="434.06" cy="210.83" transform="matrix(.545 0 0 .144 130.46 394.32)" rx="8.858" ry="26.575"/><path d="M265.75 485.43l106.3 95.67m-95.67-95.67l95.67 85.04m-81.5-81.5l81.5 70.88m-70.87-70.87l70.87 60.24m-60.24-60.24l60.25 49.6m-49.6-49.6l49.6 38.98m-38.98-38.98l38.98 28.35m-28.35-28.35l28.35 21.26m-17.72-21.26l17.72 14.17m-7.1-14.17l7.1 7.1m-106.3-.02l106.3 95.67m0-106.3l-116.93 106.3m106.3-106.3l-102.76 92.13m88.6-88.58l-81.5 70.87m70.86-70.87l-70.87 60.24M326 488.98l-60.25 49.6m49.6-49.6l-49.6 38.98m38.98-38.98l-38.98 28.35m28.35-28.35l-28.35 21.26m17.72-21.26l-17.72 14.17m7.1-14.17l-7.1 7.1m106.3-.02l-116.93 106.3m116.93-95.67L255.12 613m116.93-95.68l-116.93 106.3m116.93-95.67l-116.93 106.3m116.93-95.67l-116.93 106.3m116.93-95.67L255.12 655.5m116.93-95.66l-116.93 106.3m116.93-95.67l-116.93 106.3m116.93-95.67L262.2 680.3m109.85-88.57l-99.2 88.58m95.65-74.4l-77.95 70.87m74.4-56.7l-63.77 56.7m56.7-38.98l-31.9 28.34M265.75 506.7L368.5 598.8m-102.75-81.5l102.76 92.13m-102.75-81.5l99.2 88.6m-99.2-77.96l99.2 88.57m-99.2-77.96l95.67 85.05M262.2 556.3l95.67 85.04m-95.67-74.4l88.6 77.95M258.65 574l88.6 77.97M255.1 581.1l85.05 74.4m-85.04-63.77l81.5 70.86m-81.5-60.24L326 666.14"/><path d="M265.75 467.72v17.7c35.43 5.92 70.87 5.92 106.3 0v-17.7c-35.43 5.9-70.87 5.9-106.3 0zM255.1 613l63.8 56.68m-63.8-46.06l56.7 49.6m-56.7-38.97l49.62 42.52m-49.6-31.9l35.43 31.9M255.1 655.5l28.36 24.8m-28.35-14.16l17.73 14.17"/><ellipse cx="256.89" cy="210.83" transform="matrix(.545 0 0 .144 130.46 447.47)" rx="8.858" ry="26.575"/><ellipse cx="292.32" cy="246.26" transform="matrix(.545 0 0 .144 130.46 444.28)" rx="8.858" ry="26.575"/><ellipse cx="327.76" cy="263.98" transform="matrix(.545 0 0 .144 130.46 443.64)" rx="8.858" ry="26.575"/><ellipse cx="363.19" cy="263.98" transform="matrix(.545 0 0 .144 130.46 443.64)" rx="8.858" ry="26.575"/><ellipse cx="398.62" cy="246.26" transform="matrix(.545 0 0 .144 130.46 444.28)" rx="8.858" ry="26.575"/><ellipse cx="434.06" cy="210.83" transform="matrix(.545 0 0 .144 130.46 447.47)" rx="8.858" ry="26.575"/><path d="M113.4 651.97l127.54-74.4M106.3 648.42l120.47-70.87m-124 63.78l109.83-63.78m-113.38 56.7l95.67-56.7m-102.77 49.6l88.58-49.6m-85.03 38.98l60.23-35.44m-63.77 28.35l46.06-28.34M92.1 598.83l31.9-17.72m0 74.4l120.46-70.85m-109.83 74.4l113.38-67.32M145.28 662.6l106.3-63.78m-95.67 67.32L244.5 613m-74.42 53.14l77.95-46.07m-67.32 49.6l67.34-38.97m-56.7 42.53l53.15-31.9m-39 31.9l42.53-24.8m-28.35 28.35l28.35-17.72m-14.17 17.7l17.72-10.62"/><path d="M258.66 574.02h-17.7c-5.92 35.43-5.92 70.87 0 106.3h17.7c-5.9-35.43-5.9-70.87 0-106.3zM49.6 623.62l42.53-35.43M49.6 598.8l42.53 42.52"/><path d="M113.4 581.1l-21.27 3.54c-4.73 22.45-4.73 41.34 0 63.78l21.26 7.1c-4.74-22.45-4.74-51.98 0-74.42zM371.92 403.94v-17.87c-15.93.15-26.55-10.48-26.55-21.26l-53.1.16c0 10.63-10.6 21.26-26.53 21.26v17.72h106.18zM296.1 343.7h45.5v21.26h-45.5zm3.78-21.26h37.92v21.26h-37.92zm0-21.26h37.92v21.26h-37.92zm3.8-28.35H334v28.35h-30.33zM302.36 248.03h32.95v24.8h-32.94z"/><ellipse cx="237.4" cy="161.22" transform="matrix(1.033 0 0 1 75.354 63.779)" rx="42.52" ry="33.661"/><path d="M342.63 223.23c0 9.3 10.98 24.8 10.98 24.8-7.94 6.1-20.8 10.63-32.94 10.63s-27.23-2.53-32.95-10.63c0 0 11-15.5 11-24.8s-11-21.26-11-21.26c7.96-6.1 20.83-10.63 32.96-10.63 12.13 0 25 4.54 32.95 10.63 0 0-10.97 11.97-10.97 21.26zM335.3 223.23c0 9.3 11 28.34 11 28.34-7.96 6.1-13.5 7.1-25.63 7.1s-19.9 1-25.63-7.1c0 0 10.98-19.05 10.98-28.34s-10.98-24.8-10.98-24.8c7.95-6.1 13.5-7.1 25.63-7.1 12.12 0 17.67 1 25.63 7.1 0 0-11 15.5-11 24.8z"/><ellipse cx="194.88" cy="166.54" transform="matrix(1.033 0 0 1 75.354 60.236)" rx="10.63" ry="10.63"/><ellipse cx="194.88" cy="166.54" transform="matrix(1.033 0 0 1 163.23 60.236)" rx="10.63" ry="10.63"/><ellipse cx="194.88" cy="166.54" transform="matrix(1.033 0 0 1 119.29 60.236)" rx="10.63" ry="10.63"/><ellipse cx="194.88" cy="166.54" transform="matrix(1.033 0 0 1 119.29 24.803)" rx="10.63" ry="10.63"/><ellipse cx="194.88" cy="166.54" transform="matrix(1.07 0 0 1 79.931 226.77)" rx="10.63" ry="10.63"/><ellipse cx="194.88" cy="166.54" transform="matrix(1.07 0 0 1 140.61 226.77)" rx="10.63" ry="10.63"/><path d="M292.3 364.96h53.08l-26.55 31.9-26.54-31.9z"/><ellipse cx="194.88" cy="166.54" transform="matrix(1.427 0 0 1.333 40.745 167.72)" rx="10.63" ry="10.63"/></g><g fill="#fff" fill-rule="evenodd" transform="matrix(.198 0 0 .177 18.78 -19.095)"><rect width="81.496" height="21.26" x="262.2" y="524.41" rx="4.349" ry="3.687"/><path d="M368.5 506.7c-9.8 0-17.7 8.25-17.7 18.5v16.12c0 10.26 7.9 18.52 17.7 18.52 9.82 0 17.73-8.26 17.73-18.52v-16.1c0-10.27-7.9-18.53-17.72-18.53zm0 7.08c-5.88 0-10.62 6.6-10.62 14.8v9.36c0 8.2 4.74 14.8 10.63 14.8 5.9 0 10.64-6.6 10.64-14.8v-9.35c0-8.2-4.74-14.82-10.63-14.82zm-92.12-3.54c-5.9 0-10.63 6.6-10.63 14.82v16.43c0 8.2 4.74 14.8 10.63 14.8 5.9 0 10.63-6.6 10.63-14.8v-16.44c0-8.2-4.73-14.82-10.62-14.82zm0-7.1c-9.8 0-17.72 8.27-17.72 18.53v23.2c0 10.26 7.9 18.52 17.72 18.52 9.8 0 17.72-8.27 17.72-18.53v-23.2c0-10.26-7.9-18.52-17.72-18.52zM248.03 517.32c-5.9 0-10.63 6.6-10.63 14.82V536c0 8.2 4.74 14.82 10.63 14.82 5.9 0 10.63-6.6 10.63-14.82v-3.86c0-8.2-4.74-14.82-10.63-14.82zm0-7.1c-9.8 0-17.72 8.27-17.72 18.53v10.63c0 10.26 7.9 18.52 17.73 18.52 9.8 0 17.72-8.26 17.72-18.52v-10.63c0-10.26-7.9-18.52-17.72-18.52zM205.52 507.52c-10.6 0-19.13 7.38-19.13 16.56v18.36c0 9.17 8.52 16.56 19.12 16.56 10.6 0 19.13-7.4 19.13-16.56v-18.36c0-9.18-8.53-16.56-19.13-16.56zm0-7.92c-17.67 0-31.9 9.23-31.9 20.7v25.92c0 11.47 14.23 20.7 31.9 20.7 17.67 0 31.9-9.23 31.9-20.7V520.3c0-11.47-14.23-20.7-31.9-20.7zM435.83 511.06c-10.6 0-19.13 7.38-19.13 16.56v18.36c0 9.17 8.53 16.56 19.13 16.56s19.13-7.4 19.13-16.56v-18.36c0-9.18-8.53-16.56-19.13-16.56zm0-7.92c-17.67 0-31.9 9.23-31.9 20.7v25.92c0 11.47 14.23 20.7 31.9 20.7 17.67 0 31.9-9.23 31.9-20.7v-25.93c0-11.46-14.23-20.7-31.9-20.7z"/><rect width="42.52" height="21.26" x="375.59" y="524.41" rx="2.269" ry="3.687"/><rect width="24.803" height="28.346" x="336.61" y="520.87" rx="1.324" ry="4.916"/><rect width="24.803" height="28.346" x="219.69" y="520.87" rx="1.324" ry="4.916"/><rect width="49.606" height="35.433" x="141.73" y="517.32" rx="2.647" ry="6.145"/><rect width="46.063" height="35.433" x="450" y="520.87" rx="2.458" ry="6.145"/></g></g></g></svg>