<svg xmlns="http://www.w3.org/2000/svg" width="640" height="480" xmlns:xlink="http://www.w3.org/1999/xlink"><path fill="#d91023" d="M0 0h640v480H0z"/><path fill="#fff" d="M213.33 0h213.34v480H213.33z"/><g fill="#00a854" stroke="#d4af37" stroke-width="2" transform="translate(245.333 154.089) scale(.178)"><g id="g" transform="matrix(.447 -.207 .258 .358 89.404 -67.294)"><path d="M480.2 566.87c31.3 33.04 62.38 68.15 78.94 111.2 25.2 69.72 18.34 151.54-22.52 214-34.4 51.78-85.32 91.5-141.97 116.4-51.95 21.52-112.1 23.77-164.83 3.53-20.1-7.37-38.9-17.9-57.5-28.3-8.45-1.45-13.88 8.64-7 13.28 62.35 40.62 130.86 42.25 202.06 28.2 36.1-9.54 69.76-27.28 99-50.4 44.35-33.23 82.6-77.44 99.75-130.9 26.13-79 9.28-171.35-45.17-234.65-13.72-16.8-28.87-32.36-44.7-47.17l3.95 4.8zM170.57 983.3c-8.08-.85-12.17 11.8-5.08 13.63 4.17-1 10.66-12 5.07-13.64zm304.26-430.9c-4.5-5.6-14.06-2.88-17.75-7.3-3.94-4.7 2.88-6.5-.23-10-3.1-3.47-7.75-1.73-12-6.48s-.42-8.78-4.1-12.1c-3.65-3.33-4.16.88-8.36-3.73-4.2-4.62-1.73-12.72-6.3-18.57-4.5-5.7-3-12.5 2.48-11.25 3.65.82 5.07 4.38 10.47 5.75 5.4 1.38 7.58-2.57 11.12.9 3.54 3.5.3 9.13 4.1 13.98 3.8 4.86 5.83 1.3 8.52 5.63 2.67 4.33.5 6.6 2.22 11.67 1.73 5.06 8.37 3.1 10.87 10.75 2.48 7.64-1.06 20.76-1.06 20.76zM478.15 564.8c-5.56-26.2-26.97-56.92-52.6-79.48 15.22 11.96 44.85 40.53 54.36 79.28l-1.75.2zM460.18 524.43c-4.16-2.9-7.25-2.85-10.5-3.26 2.96-.16 5.87-.47 9.48 1.16l1.02 2.1zM445 505.48c-4.5-1.46-7.44-.4-10.62.3 2.8-1.16 5.5-2.43 9.26-2.03l1.36 1.73zm4.38 3.38c-2.2-5.54-2.2-9.68-2.53-14.03-.1 3.96-.3 7.86.95 12.7l1.58 1.33zm13.52 18.18c-2.2-5.54-2.2-9.68-2.53-14.03-.1 3.98-.3 7.88.95 12.7l1.58 1.34zm92.28 155.02c-8.26-3.18-17.17-.03-23.88-2.45-7.15-2.57 1.14-8.57-4.4-10.36-5.56-1.8-10.22 5.65-17.8 3.2-7.57-2.44-6.32-10.12-12.54-11.4-6.2-1.3-6.37 7.18-13.82 4.85s-7.5-12.34-15.97-15.73c-8.28-3.32-9.1-11.35-1.33-13.33 5.16-1.32 10.3 1.93 18 .13s6.98-8.64 13.1-7.1c6.1 1.53 4.35 10.42 11.37 13.24 7.02 2.83 11.37-4.9 16.7-1.96 5.33 2.93.26 9.42 4.63 13.7 4.37 4.28 7.73-2.34 14.17 4.2 6.44 6.54 11.78 23.02 11.78 23.02zM563.5 691.58c-22.9-25.57-58.65-41.4-101.83-49.72 25.06 3.43 76.7 14.95 105.24 49.97l-3.4-.25zM524.28 661.45c-6.7-.54-10.76 1.35-15.23 2.88 3.85-1.95 7.57-4.02 13.03-4.48l2.2 1.6zm-27.87-10.8c-6.54 1.16-10 4.04-13.92 6.66 3.23-2.87 6.3-5.83 11.42-7.67l2.5 1zm7.2.9c-5.2-4.5-6.9-8.84-9.13-13.2 1.5 4.2 2.84 8.43 6.48 12.75l2.64.46zm25.35 11c-5.18-4.5-6.9-8.84-9.12-13.2 1.5 4.2 2.84 8.43 6.48 12.75l2.65.46zm25.8 223.05c6.9-5.37 9.12-14.93 14.62-19.4 5.85-4.74 6.26 5.9 10.64 2.08 4.4-3.8.9-12.1 6.87-17.3 5.98-5.22 11.47.25 15.8-4.42 4.34-4.68-2.38-9.65 3.43-14.8 5.82-5.17 13.86.5 21.07-4.96 7.05-5.32 13.92-1.45 11.4 6.44-1.68 5.24-7 7.86-9.66 15.6-2.63 7.74 3.24 11-1.23 15.45-4.47 4.44-10.67-2.16-16.65 2.34-5.98 4.5-2.1 12.7-7.27 15.66-5.18 2.97-7.7-5.14-13.43-3.78-5.75 1.37-2.23 8.07-10.9 9.95-8.64 1.9-24.68-2.86-24.68-2.86zM542.7 887.43c32.64-5.37 64.27-27.5 93.84-60.33-16.03 19.86-52.66 58.27-95.85 63.15l2-2.82zM587.64 870.45c3.98-5.52 4.62-10.14 5.77-14.9-.47 4.46-.78 8.88-3.3 13.9l-2.46 1zm23.45-18.1c2.52-6.38 2.04-11.03 2.02-15.93.6 4.44 1.35 8.8.1 14.3l-2.13 1.63zm-4.56 5.72c6.36-1.95 10.75-.96 15.44-.4-4.2-1.1-8.28-2.35-13.67-1.64l-1.76 2.04zm-22.27 15.8c6.36-1.93 10.75-.94 15.44-.4-4.18-1.1-8.27-2.33-13.66-1.62l-1.77 2.03zm2.23-83.93c5.85-6.62 6.32-16.43 10.93-21.87 4.92-5.8 7.2 4.57 10.83-.02 3.63-4.58-1.27-12.06 3.67-18.33 4.95-6.26 11.32-1.94 14.75-7.37 3.42-5.43-4.06-9.02.74-15.2 4.8-6.2 13.7-2.2 19.83-8.93 5.98-6.58 13.42-4.1 12.34 4.14-.73 5.47-5.5 9.06-6.73 17.18-1.23 8.12 5.13 10.2 1.52 15.42-3.6 5.24-10.87-.06-15.95 5.52-5.08 5.58.2 12.88-4.37 16.8-4.56 3.9-8.47-3.6-13.87-1.14-5.4 2.44-.75 8.36-8.92 11.87-8.17 3.52-24.78 1.94-24.78 1.94zM574.98 794.05c31.13-11.55 58.3-39.37 81.53-77.33-12.23 22.6-41.4 67.4-82.98 80.5l1.46-3.17zM616.15 768.72c2.93-6.2 2.74-10.86 3.02-15.76.32 4.48.8 8.88-.8 14.3l-2.22 1.46zm19.82-22.3c1.36-6.75.06-11.23-.83-16.05 1.38 4.26 2.9 8.4 2.64 14.05l-1.8 2zm-3.45 6.5c5.9-3.14 10.4-3 15.1-3.37-4.3-.27-8.55-.7-13.73 1.02l-1.38 2.35zm-19.08 19.82c5.9-3.13 10.4-3 15.1-3.37-4.3-.27-8.54-.7-13.72 1.03l-1.38 2.34zM567.3 741.2c-7.9-5.63-18.28-4.85-24.73-9.25-6.87-4.7 3.66-8.63-1.73-12.05-5.4-3.43-12.48 3.02-19.85-1.65-7.37-4.67-3.85-12.33-10.1-15.42-6.25-3.1-8.83 5.7-16.1 1.2s-4.46-14.97-12.5-20.88c-7.87-5.78-6.45-14.4 2.38-14.28 5.86.07 10.4 4.9 19.12 5.18 8.72.28 5-4.33 11.08-1 6.08 3.3 4.84 12.08 11.5 17 6.67 4.9 15.2-4.67 20.04-.12s-2.4 9.9 1 15.6 8.9-.28 13.9 8.35c5 8.62 5.97 27.32 5.97 27.32zM573.43 753.47c-17.08-33.1-50.62-59.63-94.2-80.42 25.7 10.6 77.4 37.1 97.76 81.63l-3.57-1.2zM540.3 711.03c-6.98-2.43-11.86-1.6-17.05-1.26 4.65-.96 9.2-2.08 15.14-1.03l1.88 2.3zm-26.6-19.1c-7.3-.6-11.8 1.44-16.72 3.07 4.25-2.1 8.36-4.33 14.34-4.8l2.38 1.74zm7.38 3c-4.23-6.17-4.8-11.18-5.94-16.37.4 4.83.62 9.6 3.26 15.14l2.68 1.22zm23.86 18.57c-4.23-6.15-4.8-11.16-5.94-16.35.4 4.83.62 9.6 3.26 15.14l2.68 1.2zm43.08 36.86c4.44-7.7 3-17.42 6.45-23.72 3.7-6.7 7.95 2.96 10.6-2.3 2.66-5.25-3.6-11.54.03-18.72s10.7-4.3 13-10.33c2.3-6.05-5.72-7.98-2.22-15.06 3.5-7.08 13-5.02 17.68-12.9 4.58-7.7 12.35-6.85 12.9 1.44.35 5.52-3.62 10.04-3.25 18.25.4 8.2 7.02 8.9 4.5 14.78-2.5 5.9-10.65 2.24-14.53 8.77-3.9 6.53 2.7 12.57-1 17.36-3.72 4.8-9-1.72-13.82 1.82-4.82 3.53.88 8.34-6.44 13.5-7.3 5.16-23.88 7.1-23.88 7.1zM577.54 756.8c28.24-17.86 49.43-50.82 64.8-92.9-7.6 24.7-27.44 74.72-65.62 96.32l.82-3.4zM612.93 723.34c1.66-6.68.57-11.22-.1-16.07 1.18 4.32 2.5 8.53 2 14.16l-1.9 1.9zM628 697.32c.02-6.9-2.12-11-3.93-15.54 2.18 3.88 4.46 7.62 5.32 13.2l-1.4 2.34zm-2.1 7.1c5.16-4.32 9.58-5.14 14.12-6.5-4.27.65-8.5 1.12-13.24 3.9l-.9 2.6zm-14.84 23.42c5.18-4.3 9.6-5.13 14.13-6.47-4.28.64-8.5 1.1-13.25 3.9l-.9 2.57zM557.4 638.9c3.6-8.64.84-18.53 3.6-25.57 2.97-7.5 8.67 1.96 10.75-3.88 2.08-5.85-5.25-11.5-2.4-19.48S579.9 584 581.5 577.4c1.6-6.62-7-7.5-4.28-15.35 2.7-7.85 12.87-7.06 16.72-15.92 3.76-8.66 11.95-8.85 13.6-.3 1.1 5.68-2.46 10.94-1 19.42 1.47 8.48 8.45 8.27 6.6 14.74-1.85 6.47-10.8 3.82-13.98 11.16-3.2 7.34 4.44 12.7 1.2 18.2-3.22 5.5-9.57-.52-14.12 3.83-4.55 4.35 2 8.54-4.94 14.95-6.94 6.4-23.93 10.76-23.93 10.76zM547.33 647.1c27.05-22.57 44.8-59.85 55.3-105.77-4.66 26.77-18.8 81.58-55.7 109.42l.4-3.65zM579.8 607.3c.85-7.2-.88-11.75-2.22-16.7 1.8 4.32 3.72 8.5 3.93 14.44l-1.72 2.25zm12.28-29.2c-.88-7.17-3.64-11.15-6.12-15.6 2.77 3.72 5.64 7.3 7.26 12.98l-1.14 2.62zm-1.28 7.68c4.82-5.22 9.32-6.7 13.86-8.73-4.36 1.27-8.7 2.35-13.27 5.92l-.6 2.8zm-12.37 26.46c4.82-5.2 9.3-6.7 13.86-8.73-4.37 1.28-8.72 2.36-13.28 5.93l-.6 2.8zM533.38 605.3c4.26-6.57-1.07-18.7 2.26-24.1 3.54-5.73 7.22 2.95 9.78-1.55 2.57-4.5-.43-10.34 3.07-16.5 3.5-6.14 8.52-1.65 10.78-6.85 2.25-5.2-2.04-5.34 1.34-11.4 3.37-6.07 12.05-3.85 16.53-10.58 4.4-6.57 11.5-5.47 11.8 1.84.2 4.86-2.92 7.17-2.76 14.4.14 7.22 4.64 9.56 2.2 14.63-2.46 5.05-8.92 1.54-12.64 7.1-3.72 5.58.34 7.78-3.18 11.84-3.5 4.05-6.37 1.48-10.88 4.38-4.5 2.9-.72 11.33-7.56 15.54s-20.76 1.25-20.76 1.25zM522.1 611.2c24.25-10.57 48.6-42.4 63.7-78.7-7.55 21.38-27.47 63.67-63.02 80.98l-.7-2.28zM556.88 582.65c1.7-5.8.8-9.83.3-14.13.98 3.85 2.1 7.6 1.5 12.54l-1.8 1.6zm14.46-22.2c.18-6.07-1.7-9.78-3.24-13.84 1.9 3.5 3.9 6.9 4.57 11.85l-1.33 2zm-2.1 6.13c4.84-3.57 8.9-4.1 13.1-5.08-3.93.38-7.82.6-12.23 2.85l-.88 2.23zm-14.18 19.95c4.85-3.57 8.93-4.1 13.13-5.08-3.95.38-7.85.6-12.26 2.85l-.88 2.23zM381.8 1012.27c3.56-9.03.92-19.7 3.66-27.08 2.93-7.85 8.4 2.5 10.46-3.6 2.06-6.13-5.03-12.53-2.22-20.9 2.8-8.35 10.32-5.82 11.92-12.78 1.6-6.96-6.76-8.33-4.07-16.56 2.68-8.24 12.56-6.88 16.36-16.13 3.7-9.04 11.68-8.84 13.23.35 1.03 6.1-2.45 11.55-1.08 20.66 1.38 9.1 8.17 9.23 6.33 16.04-1.83 6.8-10.52 3.53-13.67 11.2-3.14 7.66 4.26 13.74 1.1 19.45-3.2 5.7-9.33-1.03-13.78 3.38-4.45 4.42 1.9 9.23-4.9 15.7-6.78 6.48-23.33 10.27-23.33 10.27zM375.22 1016.42c26.44-22.7 40.67-57.46 51.16-105.87-4.7 28.3-15.52 81.92-51.6 109.74l.44-3.88zM403.76 979.7c.88-7.6-.78-12.56-2.05-17.9 1.74 4.7 3.58 9.26 3.75 15.6l-1.7 2.3zm12.13-30.5c-.82-7.68-3.5-12.06-5.87-16.93 2.67 4.1 5.44 8.05 6.98 14.2l-1.1 2.74zm-1.3 8.12c4.72-5.3 9.1-6.66 13.53-8.6-4.25 1.13-8.48 2.07-12.94 5.64l-.6 2.96zm-12.2 27.6c4.73-5.33 9.1-6.68 13.54-8.62-4.25 1.13-8.48 2.07-12.94 5.64l-.6 2.97zM561.1 832.16c-7.13-7.46-19.24-10.08-25.14-16-6.3-6.32 7.03-6.43 2-11.16-5-4.72-15.23-1.3-22.1-7.75-6.86-6.45-.3-12.07-6.4-16.78-6.1-4.7-11.97 2.22-18.77-4.07-6.8-6.28-.14-14.58-7.37-22.35-7.06-7.58-2.58-14.7 7.46-11.8 6.67 1.93 10.24 7.62 20.1 10.65 9.86 3.02 13.63-3.06 19.46 1.78 5.84 4.85-2.1 11.17 3.87 17.6 5.97 6.45 16.04 2.6 20.05 8.15 4 5.55-6.03 7.95-4 14.04 2.02 6.1 10.24 2.6 13.08 11.77 2.84 9.18-2.25 25.93-2.25 25.93zM540.26 797.04c-7.15-4.36-13-5.18-19.03-6.54 5.63.65 11.2 1.1 17.63 3.92l1.4 2.62zm-24-25.25c-8.15-2.88-13.96-2.52-20.12-2.64 5.55-.5 10.98-1.16 17.97.33l2.14 2.3zm7.42 4.95c-2.8-6.76-1.8-11.35-1.36-16.27-1.14 4.37-2.48 8.64-1.3 14.35l2.66 1.92zm21.07 23.95c-2.8-6.76-1.78-11.36-1.35-16.28-1.15 4.38-2.48 8.65-1.3 14.35l2.65 1.93zM561.7 840.05c-8.53-34.55-35.7-63.7-78.54-95.86 25.8 17.5 73.7 52.4 82.2 98.05l-3.66-2.2z"/><g id="d"><path d="M527.3 890.54c-3.36-8.85-19.8-13.1-22.68-20.18-3.06-7.54 9.13-5.23 6.55-10.93-2.6-5.7-13.35-4.1-16.88-11.88-3.54-7.78 4.8-12.27 1.23-18.15-3.58-5.88-11.85.07-15.4-7.53-3.54-7.6 6.03-14.8 2.72-23.97-3.23-8.97 3.86-15.36 11.78-10.6 5.27 3.17 6.13 9.6 13.84 14.44 7.72 4.86 13.72-.62 17 5.35 3.26 5.96-6.65 10.9-3.9 18.52 2.72 7.6 13.52 5.55 14.84 11.9 1.32 6.33-8.85 6.94-9.57 13.47-.73 6.53 8.25 4.48 6.96 14.3-1.3 9.8-6.5 25.24-6.5 25.24zM520 853.1c-4.66-5.7-13.02-8.93-17.95-11.4 4.86 1.68 13.1 4.5 17.8 8.5l.16 2.9zm-9.92-24.88c.3-7.35 3.17-11.82 5.64-16.72-2.9 4.22-5.9 8.3-7.25 14.3l1.6 2.43zm12.42 26.07c.3-7.36-.15-9.82 2.32-14.72-2.9 4.22-2.6 6.3-3.92 12.28l1.6 2.43zM525.2 906.63c6.8-36.53-12.82-78.38-38.3-118.74 16.13 22.4 52.23 73.85 40.7 121.62l-2.4-2.9zM505.4 821.85c-6.2-4.4-11.66-5.08-17.22-6.32 5.27.5 10.5.83 16.24 3.6l.98 2.72z"/></g><path d="M493.56 566.12c-1.93-7-11.72-8.6-13.37-14.18-1.77-5.97 5.17-4.73 3.7-9.23-1.5-4.48-6.4-4.86-8.43-11-2.03-6.14 3.04-8.2 1-12.8-2.06-4.57-4.17-.94-6.2-6.93-2.04-6 3.4-12.34 1.5-19.63-1.87-7.1 2.15-12.68 6.67-9.22 3 2.3 2.92 6.15 7.32 9.7 4.4 3.53 7.93.84 9.8 5.52 1.88 4.68-3.28 8.46-1.7 14.5 1.56 6.04 4.8 3.66 5.57 8.74.76 5.1-2.13 6.25-2.53 11.6-.4 5.36 6.44 6.4 5.73 14.43-.7 8.04-9.07 18.52-9.07 18.52zM491.74 578.84c5.16-26.27-2.4-63.4-16.98-94.87 9.23 17.37 25.13 56 18.67 95.44l-1.7-.56zM491.1 534.36c-2.67-4.4-5.5-5.68-8.32-7.43 2.77 1.1 5.55 2.06 8.22 5.08l.1 2.36zm-6.45-23.74c-3.54-3.24-6.65-3.5-9.8-4.23 2.98.12 5.96.1 9.23 2.06l.57 2.16zm2.68 4.94c.16-6 1.77-9.77 3.17-13.9-1.64 3.6-3.35 7.07-4.1 12l.93 1.9zm5.24 22.34c.16-6 1.77-9.78 3.17-13.9-1.64 3.6-3.35 7.07-4.1 12l.93 1.9zm17.1 37.32c-.2-6.9-6.92-11.4-7.2-16.9-.3-5.85 14.64-4.37 14.25-8.8-.4-4.4-5.46-4.8-6-10.82-.54-6.03 5.33-8.03 4.36-12.53-.97-4.5-4.13-.95-4.7-6.84-.6-5.88 1.95-12.4 1.83-19.54-.1-7 5.58-12.44 9.44-9.04 2.56 2.27 1.46 6.04 5.18 9.53 3.7 3.48 8.35 1 11.3 4.52 2.9 3.5 2.3 6.34 2.38 12.27.1 5.9 4.12 3.6 3.6 8.58-.5 5-3.86 6.12-5.66 11.37-1.8 5.25 5.12 6.28 2.28 14.16-2.83 7.9-31.05 24.02-31.05 24.02zM499.22 585.58c24.42-21.57 36.5-63.2 18.32-94 8.18 15.14 12.47 31.13 8.1 50.28-3.14 13.85-10.8 30.45-24.8 44.3l-1.62-.58zM522.27 550.76c-1.67-4.32-6.17-9.78-8.68-11.5 2.62 1.1 7.14 6.23 9.17 9.2l-.5 2.3zm4.02-26.8c-2.9-3.2-6.1-3.48-9.24-4.2 3.12.15 6.26.14 9.2 2.07l.03 2.12zm1.14.2c1.72-5.9 4.4-9.6 6.94-13.62-2.65 3.5-5.35 6.9-7.42 11.75l.48 1.85zm-4.27 27.5c1.72-5.86 7.86-3.77 12.46-5.2-3.5.04-10.87-1.5-12.94 3.35l.47 1.87zm-44.27 24.2c-6.5-4.6-4.56-15.68-9.7-19.48-5.48-4.06-6.72 3.84-10.8.6-4.06-3.2-2.67-8.62-8.23-13.02-5.56-4.4-9.5.28-13.47-3.58-3.96-3.87.53-4.8-4.88-9.17-5.4-4.35-13.87-.83-20.65-5.52-6.62-4.58-13.78-2.3-11.87 3.8 1.26 4.07 5.25 5.37 7.28 11.38 2.04 6-2 8.8 2.13 12.52 4.13 3.7 9.87-.45 15.5 3.44 5.6 3.88 2 6.5 6.93 9.16 4.94 2.67 7.18 0 12.8 1.5 5.63 1.53 4.22 9.23 12.7 11.4 8.5 2.15 22.27-3 22.27-3zM492.6 578.55c-28.8-4.03-64.13-25.62-91.1-52.7 14.47 16.2 48.32 47.3 91.07 54.72l.03-2.02zM447.24 561.7c-3.54-4.47-3.83-7.98-4.6-11.63.13 3.37.1 6.7 2.23 10.66l2.37.97zm-22-15.56c-2.03-4.98-1.2-8.4-.78-12.06-.95 3.26-2.04 6.45-1.22 10.67l2 1.4zm4.1 4.67c-6.2-2-10.66-1.64-15.38-1.64 4.26-.45 8.44-1.02 13.77-.03l1.6 1.68zm21 13.75c-6.2-2-10.66-1.65-15.4-1.65 4.28-.45 8.46-1.02 13.8-.02l1.6 1.67zm50.18 41.03c-8.06-3.5-6.62-15.42-13-18.35-6.82-3.1-7.7 5.37-12.77 2.84-5.08-2.54-3.85-8.45-10.78-11.9-6.94-3.47-11.26 2.22-16.26-1-4.98-3.24.27-5.12-6.48-8.57s-16.53 1.94-24.94-1.57c-8.2-3.43-16.53.4-13.8 6.4 1.8 3.96 6.64 4.5 9.52 10.35 2.87 5.84-1.7 9.6 3.47 12.62 5.18 3.03 11.68-2.47 18.64.43 6.98 2.9 2.9 6.36 8.96 8.14 6.06 1.78 8.5-1.47 15.3-1.03 6.8.44 5.7 8.76 15.96 9.28 10.25.53 26.2-7.64 26.2-7.64zM516.98 605.58c-34.5 1.66-78.08-13.66-112.15-36.4 18.4 13.95 60.96 39.48 112.27 38.5l-.12-2.1zM461.84 597.24c-4.54-3.94-5.14-7.53-6.34-11.18.4 3.5.63 6.96 3.46 10.65l2.88.54zm-27.3-11.74c-2.78-4.77-2.05-8.52-1.84-12.4-.88 3.58-1.93 7.13-.64 11.36l2.5 1.04zm5.23 4.03c-7.5-.83-12.78.45-18.4 1.4 5.04-1.33 9.96-2.77 16.36-2.82l2.04 1.43zm25.97 10.05c-7.5-.83-12.78.45-18.38 1.4 5.03-1.33 9.94-2.77 16.35-2.8l2.04 1.4zM517.5 629.67c-8.28-2.96-7.62-14.95-14.2-17.45-7-2.67-7.3 5.85-12.55 3.65-5.24-2.2-4.4-8.18-11.55-11.18s-11.1 2.94-16.3.05c-5.2-2.9-.07-5.12-7.04-8.12-6.96-3-16.38 3-25 .05-8.42-2.9-16.48 1.47-13.37 7.25 2.06 3.85 6.92 4.08 10.18 9.72 3.25 5.65-1.07 9.67 4.3 12.36 5.36 2.7 11.5-3.2 18.64-.76 7.14 2.45 3.3 6.16 9.46 7.54 6.17 1.38 8.4-2 15.23-2 6.82-.02 6.27 8.35 16.54 8.2 10.27-.13 25.66-9.3 25.66-9.3zM533.94 628.6c-34.33 3.9-78.87-8.57-114.38-29.05 19.3 12.73 63.47 35.44 114.64 31.16l-.26-2.1zM478.33 623.86c-4.8-3.63-5.63-7.18-7.07-10.74.65 3.45 1.1 6.9 4.16 10.4l2.9.34zm-28.02-9.95c-3.1-4.57-2.6-8.35-2.66-12.25-.63 3.64-1.45 7.25.12 11.38l2.55.88zm5.48 3.7c-7.55-.35-12.73 1.26-18.26 2.58 4.93-1.66 9.75-3.4 16.14-3.87l2.12 1.3zm26.6 8.34c-7.55-.34-12.73 1.27-18.27 2.6 4.95-1.67 9.76-3.42 16.15-3.88l2.13 1.28z"/><g id="a"><path d="M207.2 997.38c6.6-4.26 15.18-3.23 20.57-6.55 5.75-3.54-2.93-7.12 1.58-9.7 4.5-2.56 10.3 2.93 16.46-.57s3.33-9.84 8.54-12.1c5.2-2.27 7.25 4.96 13.32 1.58 6.08-3.38 3.87-11.95 10.6-16.44 6.6-4.38 5.5-11.4-1.8-11.65-4.86-.17-8.67 3.58-15.9 3.47-7.23-.1-8.1-6.1-13.18-3.64-5.07 2.46-1.52 9.74-7.1 13.46-5.57 3.72-11.15-2.08-15.2 1.42-4.07 3.5 1.87 8.12-1.03 12.6s-7.37-.57-11.6 6.23c-4.23 6.78-5.25 21.88-5.25 21.88zM201.96 1007.08c14.53-26.15 42.62-46.35 78.95-61.54-21.38 7.6-64.5 27.1-81.9 62.4l2.96-.86zM229.9 973.98c5.8-1.7 9.84-.85 14.14-.38-3.85-.95-7.6-2.02-12.54-1.4l-1.6 1.78zm22.25-14.45c6.06-.22 9.76 1.6 13.82 3.12-3.5-1.87-6.88-3.83-11.83-4.44l-2 1.33zm-6.15 2.13c3.58-4.82 4.1-8.86 5.1-13-.38 3.88-.6 7.74-2.86 12.12l-2.24.88zm-19.97 14.15c3.57-4.8 4.1-8.85 5.1-13-.4 3.9-.62 7.74-2.87 12.12l-2.23.9z"/></g><g id="b"><path d="M210.3 1024.48c9.08 3.6 19.3 0 26.67 2.74 7.86 2.92-1.83 9.73 4.28 11.75 6.12 2.03 11.83-6.42 20.18-3.66 8.36 2.77 6.45 11.5 13.35 12.94 6.9 1.46 7.62-8.17 15.84-5.54 8.22 2.62 7.63 13.97 16.92 17.8 9.08 3.75 9.48 12.87.64 15.13-5.88 1.5-11.44-2.18-20.2-.12-8.8 2.07-8.4 9.83-15.18 8.1-6.77-1.73-4.22-11.82-11.92-15-7.7-3.2-13.08 5.58-18.88 2.26-5.8-3.32.32-10.7-4.3-15.54-4.63-4.84-8.84 2.67-15.66-4.74-6.8-7.4-11.73-26.1-11.73-26.1zM201.57 1013.7c24.08 28.97 63.2 46.85 111.16 56.23-27.92-3.85-85.2-16.83-114.97-56.5l3.8.26zM243.68 1047.82c7.48.6 12.18-1.56 17.3-3.3-4.46 2.22-8.77 4.58-14.93 5.1l-2.37-1.8zm30.6 12.2c7.44-1.33 11.5-4.6 16.07-7.6-3.8 3.3-7.44 6.66-13.32 8.75l-2.75-1.14zm-8-1.02c5.53 5.1 7.17 10.03 9.4 15-1.43-4.8-2.66-9.6-6.46-14.5l-2.94-.5zm-27.78-12.44c5.53 5.1 7.17 10.03 9.4 15-1.43-4.8-2.65-9.6-6.46-14.5l-2.94-.5z"/></g><use width="744.094" height="1052.362" transform="translate(43.941 17.372)" xlink:href="#a"/><use width="744.094" height="1052.362" transform="translate(59.27 11.24)" xlink:href="#b"/><g id="e"><path d="M353.52 1034.12c9.75.94 18.8-5.3 26.67-4.7 8.4.63.7 9.8 7.17 10.04 6.47.26 9.88-9.37 18.72-9.03 8.83.34 9.2 9.18 16.3 8.68 7.1-.5 5.33-9.88 14-9.63 8.7.25 11 11.25 21.04 12.36 9.8 1.1 12.5 9.68 4.47 14.26-5.34 3.04-11.68 1.05-19.7 5.42-8.04 4.37-5.7 11.68-12.72 11.9-7.04.2-7.13-10.14-15.44-11.07-8.3-.93-11.32 8.92-17.82 7.34s-2.4-10.3-8.16-13.66c-5.74-3.35-7.93 4.98-16.45-.23-8.5-5.2-18.08-21.68-18.08-21.68zM342.26 1026.22c30.84 21.06 73.52 27.4 122.63 23.18-28.2 4-87.3 7.3-126.42-22.4l3.78-.78zM391.98 1047.24c7.44-1.48 11.47-4.83 16-7.9-3.76 3.35-7.36 6.78-13.22 8.98l-2.78-1.08zm32.93 3.26c6.9-3.32 10.04-7.56 13.73-11.66-2.87 4.17-5.56 8.4-10.75 12l-2.97-.34zm-8.05 1.2c6.7 3.36 9.54 7.62 12.97 11.74-2.6-4.18-5.02-8.4-9.98-12.05l-3 .3zm-30.23-4.24c6.7 3.35 9.54 7.6 12.97 11.73-2.62-4.2-5.03-8.42-10-12.06l-2.98.32z"/></g><path d="M292.72 1024.55c4.98-5.07 13.17-6.26 17.3-10.28 4.37-4.27-4.55-5.16-1.06-8.34 3.5-3.18 10.25-.04 15.03-4.38 4.76-4.35.52-8.9 4.74-12 4.22-3.1 7.96 2.37 12.7-1.85 4.72-4.22.48-10.74 5.54-16.03 4.93-5.16 2.13-10.68-4.68-9.15-4.52 1.02-7.07 5-13.76 6.63-6.7 1.63-9.05-3.08-13.1.14-4.04 3.2 1.12 8.35-3.07 12.73-4.18 4.4-10.82.95-13.66 4.8-2.83 3.83 3.84 6.2 2.3 10.58-1.5 4.38-6.93 1.3-9.08 7.9-2.15 6.6.8 19.25.8 19.25zM292.1 1030.32c6.65-24.95 25.65-44.8 55.23-65.9-17.76 11.33-50.8 34.16-57.75 67.3l2.5-1.4zM307.63 999.9c4.9-2.77 8.85-3.02 12.93-3.65-3.8.13-7.53.13-11.92 1.82l-1 1.84zm16.78-17.15c5.55-1.62 9.43-1 13.56-.72-3.7-.7-7.33-1.52-12.05-.84l-1.5 1.55zm-5.1 3.2c2.05-4.8 1.5-8.25 1.35-11.9.65 3.3 1.43 6.52.48 10.65l-1.83 1.26zm-14.78 16.38c2.06-4.8 1.5-8.26 1.36-11.9.64 3.3 1.42 6.5.48 10.65l-1.84 1.26zM345.42 1017.3c4.02-6.24 12.08-9.13 15.44-14.1 3.58-5.32-5.64-4.43-2.75-8.42 2.9-4 10.4-2.13 14.35-7.58 3.96-5.46-1.26-9.3 2.4-13.35 3.64-4.06 8.54.82 12.48-4.5 3.94-5.32-1.68-11.2 2.38-17.7 3.97-6.33 0-11.46-6.58-8.5-4.38 1.97-6.16 6.6-12.6 9.65-6.46 3.04-9.8-1.35-13.25 2.8-3.44 4.14 2.82 8.4-.53 13.8-3.36 5.37-10.78 3.16-12.88 7.7-2.1 4.56 5.13 5.67 4.47 10.5-.66 4.8-6.77 2.73-7.62 9.98-.83 7.25 4.72 19.73 4.72 19.73zM345.95 1023.4c1.7-27.13 16.94-51.5 42.65-79.32-15.7 15.33-44.6 45.63-44.9 81.28l2.25-1.95zM355.55 988.83c4.4-3.87 8.35-4.93 12.36-6.42-3.8.92-7.6 1.7-11.7 4.32l-.65 2.1zm13.53-21.14c5.28-2.8 9.34-2.96 13.6-3.5-3.9.02-7.75-.1-12.4 1.56l-1.2 1.93zm-4.53 4.34c1.1-5.4-.15-8.84-1.04-12.58 1.33 3.27 2.77 6.45 2.65 10.9l-1.6 1.68zm-11.66 19.92c1.1-5.4-.16-8.84-1.05-12.58 1.32 3.27 2.76 6.45 2.64 10.9l-1.6 1.68z"/><g id="f"><path d="M515.27 940.88c7.67-4.14 11.34-13.2 17.45-16.67 6.53-3.7 5.27 6.87 10.2 3.84 4.9-3.02 2.75-11.8 9.46-15.92 6.7-4.13 11.27 2.2 16.27-1.7 5-3.87-.85-9.9 5.7-14.02 6.54-4.1 13.6 2.83 21.56-1.33 7.8-4.06 13.97.92 10.25 8.28-2.48 4.9-8.14 6.57-11.96 13.76-3.83 7.2 1.46 11.4-3.64 15.05-5.1 3.63-10.2-3.92-16.8-.5-6.6 3.45-4.04 12.18-9.6 14.24-5.58 2.05-6.8-6.4-12.68-6-5.88.37-3.45 7.58-12.3 7.97-8.82.4-23.9-7-23.9-7zM503.1 940.64c33.05.2 67.7-16.27 102-43.7-18.9 16.9-61.04 48.62-104.42 46.15l2.42-2.46zM550.1 931.48c4.78-4.78 6.14-9.24 8.02-13.74-1.17 4.32-2.17 8.63-5.44 13.15l-2.58.58zm25.95-13.92c3.5-5.86 3.75-10.53 4.5-15.37-.1 4.48-.05 8.9-2.14 14.13l-2.35 1.23zm-5.38 4.88c6.58-.84 10.76.88 15.3 2.2-3.96-1.78-7.8-3.7-13.23-3.9l-2.07 1.7zm-24.43 11.85c6.58-.85 10.75.87 15.3 2.2-3.97-1.8-7.8-3.7-13.24-3.92l-2.06 1.7z"/></g><path d="M583 716.2c3.6-8.64.84-18.53 3.62-25.57 2.96-7.5 8.65 1.96 10.73-3.88s-5.25-11.5-2.4-19.48 10.57-5.97 12.17-12.58c1.6-6.62-7-7.5-4.28-15.35 2.72-7.85 12.87-7.06 16.72-15.92 3.76-8.66 11.95-8.85 13.6-.3 1.1 5.68-2.46 10.94-1 19.42 1.47 8.48 8.45 8.27 6.6 14.75-1.84 6.47-10.8 3.82-13.98 11.16-3.2 7.34 4.44 12.7 1.2 18.2-3.22 5.5-9.57-.52-14.12 3.83-4.55 4.35 2 8.54-4.93 14.95-6.95 6.4-23.94 10.76-23.94 10.76zM572.93 724.4c27.05-22.57 44.8-59.85 55.3-105.77-4.66 26.77-18.8 81.58-55.7 109.42l.4-3.65zM605.4 684.6c.85-7.2-.88-11.75-2.22-16.7 1.8 4.32 3.73 8.5 3.94 14.44l-1.73 2.25zm12.28-29.2c-.88-7.17-3.64-11.15-6.12-15.6 2.78 3.72 5.64 7.3 7.26 12.98l-1.14 2.62zm-1.28 7.68c4.82-5.22 9.32-6.7 13.86-8.73-4.36 1.27-8.7 2.35-13.27 5.9l-.6 2.83zm-12.37 26.46c4.82-5.2 9.32-6.7 13.86-8.73-4.37 1.28-8.72 2.36-13.28 5.93l-.6 2.8zM572.26 672.08c4.45-7.72 3-17.42 6.45-23.72 3.7-6.7 7.96 2.96 10.62-2.3 2.66-5.25-3.6-11.55.03-18.72 3.63-7.18 10.7-4.3 13-10.33 2.3-6.03-5.72-7.97-2.23-15.04 3.5-7.08 13-5.03 17.7-12.9 4.56-7.72 12.33-6.85 12.88 1.44.36 5.5-3.62 10.04-3.24 18.24.38 8.2 7 8.9 4.5 14.78-2.52 5.9-10.66 2.23-14.55 8.76-3.88 6.53 2.7 12.57-1 17.37-3.7 4.8-9-1.72-13.8 1.8-4.82 3.54.88 8.35-6.44 13.52s-23.9 7.1-23.9 7.1zM561.8 678.53c28.22-17.87 49.4-50.84 64.78-92.9-7.58 24.7-27.44 74.7-65.62 96.3l.83-3.4zM597.17 645.05c1.67-6.67.57-11.2-.1-16.07 1.18 4.32 2.5 8.53 2 14.17l-1.9 1.9zm15.08-26c.02-6.9-2.12-11.02-3.94-15.55 2.2 3.87 4.48 7.6 5.34 13.2l-1.4 2.34zm-2.12 7.08c5.17-4.32 9.6-5.14 14.13-6.48-4.27.64-8.5 1.1-13.24 3.9l-.9 2.58zm-14.82 23.43c5.18-4.3 9.6-5.13 14.14-6.48-4.28.64-8.5 1.1-13.24 3.9l-.9 2.58zM566.74 775.93c-7.88-5.63-18.26-4.84-24.7-9.25-6.88-4.7 3.65-8.62-1.75-12.05-5.4-3.42-12.48 3.03-19.85-1.64-7.37-4.68-3.84-12.35-10.1-15.44-6.24-3.1-8.82 5.72-16.1 1.2-7.26-4.5-4.46-14.96-12.5-20.88-7.87-5.77-6.44-14.38 2.38-14.28 5.87.07 10.4 4.9 19.12 5.2 8.72.27 5.02-4.34 11.1-1.03 6.06 3.32 4.83 12.1 11.5 17 6.66 4.9 15.2-4.66 20.02-.1 4.84 4.55-2.4 9.9 1.02 15.6 3.42 5.68 8.9-.28 13.88 8.34 5 8.64 5.96 27.33 5.96 27.33zM572.9 788.2c-17.1-33.1-50.63-59.62-94.2-80.42 25.68 10.6 77.37 37.1 97.74 81.64l-3.55-1.22zM539.74 745.77c-6.97-2.44-11.85-1.6-17.04-1.27 4.66-.95 9.2-2.07 15.15-1.02l1.9 2.3zm-26.58-19.1c-7.3-.6-11.8 1.43-16.73 3.07 4.26-2.1 8.37-4.34 14.35-4.8l2.38 1.74zm7.38 3c-4.24-6.17-4.8-11.18-5.94-16.37.4 4.83.62 9.6 3.26 15.14l2.68 1.2zm23.85 18.57c-4.24-6.15-4.8-11.17-5.94-16.35.4 4.82.6 9.6 3.25 15.12l2.7 1.22zM574.7 843.4c5.84-6.63 6.3-16.44 10.92-21.88 4.92-5.8 7.2 4.57 10.83-.02 3.63-4.58-1.27-12.06 3.68-18.33 4.94-6.26 11.3-1.94 14.74-7.37 3.43-5.43-4.06-9.02.74-15.2 4.8-6.2 13.72-2.2 19.84-8.93 5.98-6.58 13.42-4.1 12.34 4.14-.72 5.48-5.5 9.07-6.72 17.2-1.22 8.1 5.13 10.18 1.52 15.4-3.6 5.25-10.86-.05-15.94 5.53s.2 12.87-4.36 16.8c-4.56 3.9-8.48-3.6-13.88-1.14-5.4 2.43-.75 8.35-8.93 11.86-8.17 3.5-24.78 1.93-24.78 1.93zM563.18 847.5c31.13-11.55 58.3-39.37 81.52-77.34-12.23 22.6-41.4 67.4-83 80.5l1.48-3.16zM604.34 822.17c2.93-6.2 2.74-10.86 3.02-15.76.33 4.5.8 8.9-.8 14.3l-2.22 1.47zm19.82-22.3c1.36-6.75.07-11.23-.83-16.05 1.38 4.26 2.9 8.4 2.65 14.05l-1.82 2zm-3.45 6.5c5.92-3.14 10.4-3 15.1-3.37-4.3-.27-8.54-.7-13.7 1.02l-1.4 2.35zm-19.07 19.82c5.9-3.14 10.4-3 15.1-3.38-4.3-.27-8.54-.7-13.72 1.03l-1.37 2.34z"/><use width="744.094" height="1052.362" transform="rotate(15 310.012 758.36)" xlink:href="#c"/><use id="c" width="744.094" height="1052.362" transform="rotate(5 93.23 577.125)" xlink:href="#d"/><use width="744.094" height="1052.362" transform="rotate(-10 274.952 690.264)" xlink:href="#e"/><use width="744.094" height="1052.362" transform="rotate(10 225.439 653.89)" xlink:href="#f"/></g><use width="1" height="1" transform="matrix(-1 0 0 1 840 .113)" xlink:href="#g"/></g><g stroke="#d4af37" stroke-width=".533"><path fill="#007ea8" d="M291.02 195.6l-14.06 17.5c4.66 4.43 7.3 11.85 7.3 17.88.02 7.55-1.22 12.77-2.74 17.54l-.05.15H320v-52.7c-8.5 5.25-20.15 7.35-28.98-.37z"/><path fill="#fff" d="M348.98 195.6c-8.83 7.72-20.5 5.62-28.98.36v52.7h38.53l-.05-.14c-1.52-4.77-2.76-10-2.75-17.54 0-6.03 2.65-13.44 7.3-17.88L349 195.6z"/><path fill="#d91023" d="M281.47 248.67c-2.1 6.52-4.74 12.2-5.56 21.62-1.2 13.92 10 21.54 14.63 23.73 7.13 3.36 14.6 2.2 22.22 3.18 3.54.46 5.52 2.7 7.25 4.53 1.73-1.83 3.7-4.07 7.25-4.52 7.63-.97 15.1.2 22.22-3.17 4.63-2.2 15.83-9.8 14.62-23.74-.83-9.44-3.47-15.1-5.57-21.63h-77.06z"/></g><g stroke="#d4af37" stroke-width="3"><g fill="#00a854" transform="matrix(.084 0 0 .089 232.827 247.511)"><g id="j"><path d="M1074.73-201.4s5.85-20.37 17.93-29.3c12.1-8.95 25.22-5.68 33.2-8.86-5.32 6.75-5.92 20.26-17.93 29.3-12 9.04-33.2 8.86-33.2 8.86zm48.7-36.35c-8.33 2.22-13.52-.3-24.95 3.9m17.28 1.82c-8.33 2.22-14.1-1.33-25.33 3.4m16.13 3.47c-7.9 2.78-11.63-1.2-22.47 4.03m13.26 2.84c-7.9 2.8-9.57-1.7-17.5 4.3m9.32 1.82c-5.17 1.66-7.53-.17-12.14 5.07m46.4-30.65c-4.5 7.36-3.56 13.05-10.84 22.8m3.16-17.08c-4.5 7.36-2.74 13.92-10.45 23.33m1.26-16.46c-4.92 6.8-2.16 11.5-10.26 20.4m1.06-13.53c-4.92 6.8-1.08 9.67-9.1 15.56m.92-9.44c-3.07 4.48-1.98 7.26-8.32 10.18M1130.78-243.63s-13.54 10.03-24.16 18.03c-10.6 8-31.63 24-31.63 24s21.32-15.6 32-23.5c10.7-7.9 24.16-18.02 24.16-18.02M1108.12-317s16.75 12.98 20.58 27.52c3.82 14.53-4.07 25.52-4.07 34.1-4.3-7.43-16.63-13-20.58-27.5-3.96-14.5 4.07-34.1 4.07-34.1zm15.72 58.7c1.03-8.56 5.3-12.44 5.62-24.62m-8.1 15.38c1.03-8.56 6.47-12.62 6.24-24.8m-9.2 13.7c.34-8.37 5.42-10.35 4.57-22.35m-7.55 11.27c.35-8.38 5.14-8.25 2.5-17.83m-5.14 7.97c.37-5.4 2.95-6.92-.22-13.14m11.28 54.44c-5.17-6.9-10.8-8.13-17.18-18.5m14.7 9.26c-5.16-6.9-11.9-7.7-17.8-18.35m14.83 7.27c-4.5-7.1-9.88-6.27-15.15-17.08m12.17 5.97c-4.5-7.08-8.57-4.58-11.07-14.2m8.43 4.34c-3.03-4.5-6.02-4.52-6.38-11.48M1126.6-249.3s-4.32-16.28-7.82-29.1c-3.5-12.83-10.58-38.3-10.58-38.3s6.58 25.6 9.97 38.46a5074.4 5074.4 0 0 0 7.8 29.1"/><g id="h"><path d="M1206.42-261.85s16.75 12.98 20.58 27.5c3.83 14.55-4.07 25.53-4.07 34.13-4.3-7.45-16.62-13-20.58-27.5-3.95-14.5 4.07-34.13 4.07-34.13zm15.73 58.7c1.02-8.56 5.3-12.45 5.62-24.62m-8.1 15.38c1.03-8.55 6.47-12.6 6.24-24.78m-9.2 13.7c.35-8.4 5.42-10.37 4.58-22.37m-7.55 11.27c.35-8.38 5.14-8.25 2.5-17.84m-5.14 7.98c.35-5.4 2.93-6.93-.23-13.15m11.28 54.45c-5.17-6.9-10.8-8.13-17.18-18.5m14.7 9.26c-5.16-6.9-11.9-7.7-17.8-18.34m14.83 7.25c-4.5-7.07-9.87-6.25-15.14-17.06m12.17 5.98c-4.5-7.08-8.58-4.58-11.07-14.2m8.43 4.34c-3.04-4.5-6.03-4.53-6.4-11.5M1224.9-194.14s-4.32-16.3-7.8-29.12c-3.5-12.82-10.6-38.28-10.6-38.28s6.6 25.6 9.98 38.45a5154.98 5154.98 0 0 0 7.8 29.12m-53.78 57.26s2.86-21 13.54-31.58c10.67-10.58 24.13-9.23 31.57-13.53-4.28 7.44-2.94 20.9-13.52 31.58-10.58 10.67-31.58 13.53-31.58 13.53zm42.97-42.97c-7.93 3.4-13.43 1.65-24.13 7.45m17.37-.67c-7.92 3.4-14.16.7-24.58 7m16.46 1.12c-7.43 3.9-11.68.48-21.65 7.22m13.53.9c-7.43 3.9-9.7-.32-16.7 6.76m9.5.45c-4.9 2.4-7.5.92-11.3 6.77m41.5-37c-3.38 7.94-1.63 13.44-7.43 24.14m.67-17.36c-3.4 7.92-.7 14.16-7 24.58m-1.12-16.46c-3.9 7.43-.48 11.68-7.2 21.65m-.92-13.53c-3.9 7.43.32 9.7-6.76 16.7m-.45-9.5c-2.4 4.9-.92 7.5-6.77 11.3M1219.9-186.57s-11.95 11.88-21.32 21.32c-9.35 9.43-27.85 28.3-27.85 28.3s18.87-18.5 28.3-27.85a5074.4 5074.4 0 0 0 21.32-21.32"/></g><path d="M1057.07-278.6s20.57-5.1 34.35.9c13.78 5.98 17.5 19 24.26 24.3-8.5-1.23-20.5 5-34.34-.87-13.84-5.88-24.27-24.32-24.27-24.32zm55.83 24c-6.1-6.1-6.5-11.85-15.85-19.65m7.06 15.88c-6.08-6.1-5.9-12.9-15.6-20.25m5.06 15.72c-6.37-5.46-4.78-10.68-14.73-17.44m4.18 12.9c-6.36-5.46-3.3-9.14-12.46-13m3.1 8.97c-4.04-3.64-3.63-6.6-10.47-7.97m49.73 24.85c-8.62-.2-13.08 3.46-25.18 2.04m16.4-5.8c-8.63-.22-13.43 4.57-25.44 2.6m14.88-7.14c-8.35-.86-11.03 3.87-22.8 1.3m12.25-5.84c-8.33-.86-8.9 3.9-18-.1m8.63-3.93c-5.4-.42-7.28 1.92-12.98-2.1M1121.67-251.16s-15.46-6.7-27.7-11.9c-12.23-5.2-36.6-15.4-36.6-15.4s24.16 10.68 36.35 15.98a5135.66 5135.66 0 0 0 27.7 11.9M1072.28-383.9s14.7-15.28 29.55-17.54c14.86-2.26 24.94 6.76 33.5 7.68-7.87 3.48-14.72 15.15-29.56 17.53-14.84 2.4-33.5-7.68-33.5-7.68zm60.04-9.4c-8.4-1.92-11.8-6.58-23.88-8.2m14.43 9.7c-8.4-1.95-11.86-7.8-23.98-8.86m12.62 10.62c-8.3-1.24-9.72-6.5-21.75-6.94m10.4 8.7c-8.3-1.23-7.66-5.98-17.47-4.36m7.4 5.95c-5.36-.93-6.6-3.66-13.1-1.17m55.32-5.42c-7.4 4.4-9.24 9.9-20.24 15.12m10.8-13.63c-7.43 4.4-8.94 11-20.15 15.72m8.8-13.96c-7.53 3.7-7.3 9.15-18.6 13.24m7.25-11.47c-7.53 3.7-5.47 8.04-15.3 9.5m5.2-7.92c-4.8 2.53-5.14 5.5-12.1 5.13M1141.57-395.06s-16.66 2.55-29.78 4.65c-13.14 2.1-39.2 6.44-39.2 6.44s26.15-3.82 39.3-5.82c13.12-2 29.77-4.65 29.77-4.65M1102.13-454.9s20 7.04 28.2 19.64c8.2 12.6 4.16 25.5 6.87 33.66-6.42-5.72-19.88-7.12-28.2-19.64-8.3-12.52-6.87-33.66-6.87-33.66zm33.4 50.76c-1.72-8.45 1.1-13.48-2.4-25.14m-2.86 17.15c-1.72-8.45 2.16-14-1.88-25.5m-4.44 15.9c-2.3-8.06 1.9-11.53-2.7-22.66m-3.6 13.08c-2.32-8.06 2.27-9.45-3.26-17.7m-2.36 9.18c-1.36-5.26.6-7.5-4.35-12.42m27.83 48.12c-7.08-4.92-12.82-4.3-22.13-12.16m16.87 4.17c-7.08-4.92-13.72-3.56-22.66-11.82m16.36 2.23c-6.5-5.3-11.34-2.84-19.75-11.45m13.45 1.85c-6.5-5.3-9.58-1.65-14.98-10m9.37 1.48c-4.3-3.33-7.14-2.4-9.68-8.9M1140.97-396.45s-9.22-14.1-16.57-25.18-22.1-33-22.1-33 14.3 22.22 21.57 33.35a5079.77 5079.77 0 0 0 16.57 25.18"/><g id="i"><path d="M1213.67-401.8s16.75 12.98 20.58 27.5c3.83 14.55-4.07 25.53-4.07 34.13-4.3-7.45-16.63-13-20.58-27.5-3.95-14.5 4.07-34.13 4.07-34.13zm15.72 58.7c1.02-8.56 5.3-12.45 5.62-24.62m-8.1 15.38c1.02-8.56 6.46-12.62 6.24-24.8m-9.2 13.7c.33-8.38 5.4-10.36 4.56-22.36m-7.55 11.27c.35-8.38 5.14-8.25 2.5-17.84m-5.14 7.98c.37-5.4 2.95-6.92-.22-13.14m11.3 54.44c-5.17-6.9-10.8-8.13-17.18-18.5m14.7 9.26c-5.17-6.9-11.9-7.7-17.8-18.35m14.83 7.26c-4.5-7.08-9.88-6.26-15.15-17.07m12.17 5.97c-4.5-7.08-8.57-4.58-11.07-14.2m8.43 4.34c-3.02-4.5-6.02-4.52-6.38-11.5M1232.14-334.1s-4.3-16.28-7.8-29.1c-3.5-12.83-10.6-38.3-10.6-38.3s6.6 25.6 9.98 38.46a5074.4 5074.4 0 0 0 7.8 29.1m-64.4 39.03s8.2-19.55 21.24-27c13.05-7.47 25.7-2.68 34-4.9-6.07 6.07-8.26 19.42-21.24 27-12.98 7.56-34 4.9-34 4.9zm52.62-30.4c-8.54 1.24-13.4-1.88-25.24.95m16.95 3.84c-8.53 1.22-13.86-2.98-25.56.4m15.6 5.34c-8.18 1.83-11.4-2.56-22.78 1.36m12.84 4.38c-8.18 1.83-9.3-2.83-17.87 2.2m9.02 2.9c-5.33 1.05-7.46-1.05-12.64 3.62m49.66-25c-5.33 6.8-5.06 12.56-13.44 21.4m5.15-16.6c-5.33 6.77-4.35 13.5-13.12 21.93m3.18-16.2c-5.67 6.18-3.48 11.17-12.57 19.05m2.63-13.3c-5.68 6.17-2.2 9.47-10.85 14.37m2.02-9.27c-3.57 4.1-2.82 7-9.45 9.14M1227.73-330.27s-14.62 8.38-26.1 15.07c-11.5 6.7-34.24 20.13-34.24 20.13s23-12.98 34.54-19.58a5074.4 5074.4 0 0 0 26.1-15.07"/></g><path d="M1182.24-442s19.63-7.98 34.12-4c14.5 4 20.03 16.35 27.46 20.66-8.6-.02-19.6 7.85-34.13 3.98-14.53-3.86-27.46-20.65-27.46-20.65zm58.65 15.87c-6.9-5.18-8.1-10.83-18.48-17.22m9.23 14.72c-6.88-5.18-7.66-11.93-18.3-17.84m7.22 14.84c-7.07-4.5-6.24-9.9-17.04-15.2m5.96 12.2c-7.1-4.5-4.57-8.6-14.2-11.1m4.33 8.43c-4.5-3.03-4.5-6.03-11.48-6.4m52.74 17.57c-8.57 1-12.47 5.27-24.65 5.56m15.4-8.06c-8.56 1-12.63 6.43-24.8 6.17m13.72-9.17c-8.38.33-10.37 5.4-22.37 4.52m11.3-7.53c-8.4.32-8.28 5.1-17.86 2.44m8-5.1c-5.43.35-6.95 2.93-13.16-.25M1250.06-423.98s-16.26-4.45-29.1-7.87c-12.84-3.43-38.42-10.07-38.42-10.07s25.44 7.16 38.26 10.68a5074.4 5074.4 0 0 0 29.1 7.88M1215.13-497.14s19.52 8.25 26.95 21.32c7.42 13.07 2.6 25.7 4.8 34-6.05-6.08-19.4-8.3-26.94-21.3-7.53-13-4.8-34.02-4.8-34.02zm30.25 52.7c-1.2-8.53 1.93-13.38-.88-25.23m-3.88 16.94c-1.2-8.54 3-13.86-.33-25.56m-5.4 15.6c-1.8-8.18 2.6-11.4-1.3-22.78m-4.4 12.83c-1.83-8.2 2.83-9.3-2.18-17.88m-2.92 9.02c-1.03-5.34 1.08-7.46-3.58-12.66m24.86 49.73c-6.77-5.35-12.53-5.1-21.35-13.5m16.6 5.2c-6.78-5.35-13.5-4.4-21.92-13.18m16.2 3.2c-6.15-5.7-11.15-3.5-19-12.62m13.3 2.67c-6.17-5.7-9.48-2.24-14.36-10.9m9.26 2.04c-4.08-3.6-6.97-2.84-9.1-9.5M1250.34-436.43s-8.34-14.64-15-26.14-20.05-34.3-20.05-34.3 12.9 23.06 19.48 34.6a5040.78 5040.78 0 0 0 15 26.16"/><use width="744.094" height="1052.362" transform="translate(-32 -18)" xlink:href="#h"/><path d="M1142.42-297.85s16.75 12.98 20.58 27.5c3.83 14.55-4.07 25.53-4.07 34.13-4.3-7.45-16.62-13-20.58-27.5-3.95-14.5 4.07-34.13 4.07-34.13zm15.73 58.7c1.02-8.56 5.3-12.45 5.62-24.62m-8.1 15.38c1.03-8.55 6.47-12.6 6.24-24.78m-9.2 13.7c.35-8.4 5.42-10.37 4.58-22.37m-7.55 11.27c.35-8.38 5.14-8.25 2.5-17.84m-5.14 7.98c.35-5.4 2.93-6.93-.23-13.15m11.28 54.45c-5.17-6.9-10.8-8.13-17.18-18.5m14.7 9.26c-5.16-6.9-11.9-7.7-17.8-18.34m14.83 7.25c-4.5-7.07-9.87-6.25-15.14-17.06m12.17 5.98c-4.5-7.08-8.58-4.58-11.07-14.2m8.43 4.34c-3.04-4.5-6.03-4.53-6.4-11.5M1160.9-230.14s-4.32-16.3-7.8-29.12c-3.5-12.82-10.6-38.28-10.6-38.28s6.6 25.6 9.98 38.45a5154.98 5154.98 0 0 0 7.8 29.12m-53.78 57.26s2.86-21 13.54-31.58c10.67-10.58 24.13-9.23 31.57-13.53-4.28 7.44-2.94 20.9-13.52 31.58-10.58 10.67-31.58 13.53-31.58 13.53zm42.97-42.97c-7.93 3.4-13.43 1.65-24.13 7.45m17.37-.67c-7.92 3.4-14.16.7-24.58 7m16.46 1.12c-7.43 3.9-11.68.48-21.65 7.22m13.53.9c-7.43 3.9-9.7-.32-16.7 6.76m9.5.45c-4.9 2.4-7.5.92-11.3 6.77m41.5-37c-3.38 7.94-1.63 13.44-7.43 24.14m.67-17.36c-3.4 7.92-.7 14.16-7 24.58m-1.12-16.46c-3.9 7.43-.48 11.68-7.2 21.65m-.92-13.53c-3.9 7.43.32 9.7-6.76 16.7m-.45-9.5c-2.4 4.9-.92 7.5-6.77 11.3M1155.9-222.57s-11.95 11.88-21.32 21.32c-9.35 9.43-27.85 28.3-27.85 28.3s18.87-18.5 28.3-27.85a5074.4 5074.4 0 0 0 21.32-21.32"/><use width="744.094" height="1052.362" transform="translate(-62 -40)" xlink:href="#i"/><use width="744.094" height="1052.362" transform="translate(-31 -20)" xlink:href="#i"/></g><use width="744.094" height="1052.362" transform="matrix(-1 0 0 1 2501 0)" xlink:href="#j"/><path fill="#947245" d="M1250.5-437.13c-8.62 41.67-8.6 79.16-8.6 79.16-.5 13.95-7.4 23.68-13.78 20-54.88-31.7-60.3-37.57-89.12-59.67 24.3 26.46 31.23 38.23 86.72 70.27 10.73 6.2 12.06 16.38 11.62 29.47l-1.68 61.7c-.3 9.05 5.74 50.1-22.57 34.23-65.38-36.64-63.78-33.58-95.1-51.67 38.07 32.33 24.37 23.47 90.6 61.7 11.94 6.9 24.53 24.5 24.53 32.85 0 124.34 1.86 101.5-12.82 139.1h60.4c-14.7-37.6-12.83-14.76-12.83-139.1 0-8.34 12.6-25.94 24.54-32.84 66.23-38.23 51.53-29.37 89.6-61.7-31.32 18.1-28.72 15.03-94.1 51.67-28.3 15.87-22.25-25.18-22.56-34.22l-1.68-61.7c-.44-13.1.9-23.28 11.62-29.47 55.5-32.04 62.4-43.8 86.72-70.27-28.83 22.1-34.24 27.98-89.13 59.67-6.37 3.68-13.27-6.05-13.78-20 0 0 .02-37.5-8.6-79.15z"/></g><path fill="#e3e4e5" d="M293.9 225.27c-.04.2.3 2.43.12 3.07-.1.9-.13 1.03-.34 2.18-.2 1.16-.46 3.4-.85 4.74-.04.12-.08.27-.1.4-.1.7-.1 1.18-.03 2.04l.68 3.8s.32.38.37.54c.05.16-.03.4 0 .44.18.27.2.53.42.76.04.03.18.02.22.07.02.05.28.06.33.1.15.14.13.25.2.47h-1.23c.03-.55-.4-.77-.4-.77-.05-.06-.55-.2-.6-.53-.1-.46-.02-.56-.02-.56s-.4-1.77-.58-2.2c-.1-.36-.12-.52-.17-.82-.15-.83-.2-1.2-.65-2.43-.1-.22-.4-.3-.36-.57.03-.1.08-.2.13-.3l.02-.2c.06-1.02.12-2.05.2-3.06a.36.36 0 0 0 .05-.14c.12-1.73-.8-3.34-1.38-4.9-.1-.27-.02-.58-.14-.86-.63-.2-1.06-1.27-1.28-1.93-.22-.66-.3-1.63-.15-2.28.06-.2.1-.36.2-.5m12.33 7.2c.2-.05.28-.06.5-.06 0 0 .14.2.18.3.3.53.66 3 .86 4.15.07.37.22 1.18.28 1.55 0 0-.07.4.06.86.04.14.08.28.12.42.15.6.33.74.33.74.04.15.3 1.33.33 1.47.36 1.62.53 2.6.5 3.27 0 .92 0 .83.07.9.2.22.3.1.73 1.2.03.1.06-.04.1.05.06.1.15.1.23.1.13.02.1.05.22.06a1.22 1.23 0 0 0 .3.02h1.08c-.14-.4-.57-.66-.95-.66-.16-.1-.36-.25-.42-.45-.24-.38-.3-.47-.44-.64 0-.15-.1-.34-.13-.5l-.38-4.55s.07-.44.06-.92c-.03-2.5.1-5.02.2-7.54.04-.2.8-.92.8-.92"/><path fill="#fff" d="M311.9 205.48a1.43 1.44 0 0 0-1.06.5c-.35.48-.58 1.48-.6 2.08 0 .16.06.28 0 .42-.16.48-.3.9-.3.97-.16.85-.2 3.9-.4 5.05-.22 1.16-1.2 2.86-1.56 3.4-.24.27-.73.4-.88.44-.15.04-1.4-.1-1.4-.1-1.65-.1-4.1-1.03-5.76-1.25-1.64-.23-3.63-.13-5.2-.3 0 0-1.93-.72-3.7-.2-1.77.52-2.76 1.47-4.3 3.84 0 0-.65.8-.66 1.07-.02.88.35 1.98 1.02 2.53.2.2.15.02.14-.03.06.14.13.48.22.6.22.3.46.67.64 1.02.15.3.07.63.2.93.76 1.63.4 3.3.4 5.2a.4.4 0 0 1-.04.16c-.02 1.13-1.1 2.62-1.1 3.73v.24c-.05.1-.1.2-.13.33 0 .3-.42.36-.3.6.6 1.3.67 1.7.9 2.58.06.32.1.5.23.87.22.47.8 2.37.8 2.37s-.08.1.04.6c.1.36.65.46.7.53 0 0 .52.32.53.92 0 .08.5.05.55.05.2 0 .4-.03.6-.03-.03-.27-.1-.42-.27-.56-.05-.03-.28-.1-.32-.15-.04-.06-.08-.16-.12-.2-.25-.22-.3-.5-.5-.78-.05-.05.02-.3-.04-.48-.07-.17-.44-.55-.44-.55l-1-4.1c-.15-.93.55-1.46.62-2.22 0-.15.9-2.38.94-2.5.64-1.75 1.7-4.5 1.7-5.64-.04-1.3-.06.25.05-.73.08-.72-.35-2.7-.3-2.9 2.4 4.07 4.77 5.54 8.66 5.16.2-.02.3-.03.5 0 0 0 .1.22.1.3.14.57-.2 3.02-.34 4.16-.04.35-.12 1.15-.16 1.53 0 0-.2.38-.2.83 0 .14 0 .28 0 .4 0 .62.12.78.12.78 0 .15-.1 1.32-.1 1.47-.1 1.6-.22 2.37-.44 3.03-.04.1-.13.28-.25.3-.12.1-.3.27-.33.43 0 .12 0 .24.04.35.03.1.12.23.17.3.07.35.04.72.04 1.07 0 .1.05.23.07.33.02.1.12.1.2.13.13.03.1.12.2.15.1.02.2.02.3.02h1.05c-.02-.4-.4-.6-.67-.78-.14-.13-.12-.16-.13-.35 0-.26-.02-.54-.02-.8 0-.13.06-.18.1-.3.07-.13.02-.33.02-.48.2-1.35.42-2.73.78-4.05.3-.38.4-.85.5-1.32 0 0 .23-.63.15-.96l.97-5.92c.1-.2.25-.38.46-.43 1.2-.54 2.4-.9 3.53-1.7 1.24-.86 1.98-2.26 2.85-3.52.2-.38.42-.7.64-1.06.74-1.1 1.7-3.94 1.94-5.35.3-1.66.18-3.3.66-5.28.1-.43.46-.77.54-1.2V211l.23-.05c.26-.03.58-.08.76-.08.2-.03.58-.02.6-.02.05 0 .25.04.37.04.1 0 .26.1.36.1.1 0 .2-.02.26-.1.12-.17.14-.12.17-.26 0-.05.05 0 .08 0 .1-.04.16-.16.27-.2.08 0 .13-.04.15-.12 0-.1 0-.2 0-.3 0-.16 0-.16-.1-.2-.02 0-.03 0-.04-.02-.12-.03.02-.26.02-.4 0-.12 0-.22-.04-.3-.05-.1-.07-.13-.16-.2-.07-.07-.1-.14-.18-.18-.55-.48-.8-.83-1.18-1.2.07-.08.06-.12.03-.25-.17-.54-.5-.63-1.08-1.07-.53-.3-1.23-.65-1.97-.7h-.32a1.3 1.3 0 0 0-.08-.02z"/><path fill="#d18219" stroke="none" d="M311.9 205.48a1.42 1.42 0 0 0-1.06.5c-.35.48-.58 1.48-.6 2.08 0 .15.06.28 0 .42-.16.48-.3.9-.3.97-.16.84-.2 3.88-.4 5.05-.2 1.16-1.17 2.88-1.56 3.4-.2.3-.73.4-.88.44-.15.03-1.4-.1-1.4-.1-1.65-.1-4.1-1.03-5.76-1.25-1.64-.24-3.63-.13-5.2-.3 0 0-1.93-.72-3.7-.2-1.77.52-2.76 1.47-4.3 3.84 0 0-.65.8-.66 1.07-.02.87.34 1.94.98 2.5 0 0 .2.14.22.15.03-1.38.25-2.04.25-2.04a5.7 5.7 0 0 0 .34 2c.14.43.5.82.72 1.22.33.93.6 3.67.77 4.8.1.6-.35 2.57-.65 3.45-.56 1.72-.8 3.27-.15 2.1.3-.5 1.44-2.7 2.02-4.72.58-2.02 1.15-3.2.97-3.6-.06-.14-.22-2.95-.26-3.06a1.68 1.68 0 0 1-.04-.18c0-.07-.06-.12 0-.34l.26-1.44c2.87 5.35 7.43 6 10.52 2.27-.46 1.53-.48 3.74-.43 4.67.06.93.06.53.04.86l-.54 5.1-.05.1s-.13.3-.13.55c0 .12 0 .27 0 .43 0 .25 0 .38.03.42l.1.1c0 .2 0 .37-.03.56v.2l.06-.08c.2-.24.3-.6.37-1.04 0 0 0-.04 0-.06l.03-.05s.05-.13.08-.3c.04-.14.05-.28.05-.28l-.02-.13.02-.13s.97-5.88.97-5.9a.55.55 0 0 1 .05-.17c.18-.26.6-.55.75-.73.16-.18.73-2.57.64-4.07-.2-3.42 4.32-4.4 5.83-2.7.56-.3 1.04-.75 1.44-1.28a7.85 7.85 0 0 0 .96-1.74c.04-.12.08-.26.1-.38a11.7 11.7 0 0 0 .2-.87 14.6 14.6 0 0 0 .17-1.25c.04-.42.07-.84.1-1.28.03-.43.07-.87.13-1.33a14.75 14.75 0 0 1 .27-1.43c.03-.1.07-.2.12-.3s.1-.2.16-.3c.05-.1.1-.2.16-.3.04-.1.08-.2.1-.3V211l.15-.03v-.02c-.74.15-.4.04-1.12.13-.2 0-.38 0-.55-.1-.35-.24-.65-.56-.8-1 0-.48.15-1.4.28-1.65.45-.82.8-.2 1.68.04.83.24 2.07.88 2.54 1.33.05.06.68.1.75.05.04-.02.1-.02.14-.03 0 0 .02-.03.02-.04 0 0 0-.02 0-.03.02-.08.06-.17.06-.24a1.7 1.7 0 0 0 0-.16.46.46 0 0 0-.04-.13c-.02-.03-.03-.05-.05-.08a.45.45 0 0 0-.12-.13c-.07-.07-.1-.14-.18-.18-.55-.48-.8-.83-1.18-1.2.07-.08.06-.12.03-.25-.17-.54-.5-.64-1.08-1.07-.53-.3-1.23-.65-1.97-.72h-.32a1.3 1.3 0 0 0-.08 0z"/><path fill="none" d="M311.9 205.48a1.43 1.44 0 0 0-1.06.5c-.35.48-.58 1.48-.6 2.08 0 .16.06.28 0 .42-.16.48-.3.9-.3.97-.16.85-.2 3.9-.4 5.05-.22 1.16-1.2 2.86-1.56 3.4-.24.27-.73.4-.88.44-.15.04-1.4-.1-1.4-.1-1.65-.1-4.1-1.03-5.76-1.25-1.64-.23-3.63-.13-5.2-.3 0 0-1.93-.72-3.7-.2-1.77.52-2.76 1.47-4.3 3.84 0 0-.65.8-.66 1.07-.02.88.35 1.98 1.02 2.53.2.2.15.02.14-.03.06.14.13.48.22.6.22.3.46.67.64 1.02.15.3.07.63.2.93.76 1.63.4 3.3.4 5.2a.4.4 0 0 1-.04.16c-.02 1.13-1.1 2.62-1.1 3.73v.24c-.05.1-.1.2-.13.33 0 .3-.42.36-.3.6.6 1.3.67 1.7.9 2.58.06.32.1.5.23.87.22.47.8 2.37.8 2.37s-.08.1.04.6c.1.36.65.46.7.53 0 0 .52.32.53.92 0 .08.5.05.55.05.2 0 .4-.03.6-.03-.03-.27-.1-.42-.27-.56-.05-.03-.28-.1-.32-.15-.04-.06-.08-.16-.12-.2-.25-.22-.3-.5-.5-.78-.05-.05.02-.3-.04-.48-.07-.17-.44-.55-.44-.55l-1-4.1c-.15-.93.55-1.46.62-2.22 0-.15.9-2.38.94-2.5.64-1.75 1.7-4.5 1.7-5.64-.04-1.3-.06.25.05-.73.08-.72-.35-2.7-.3-2.9 2.4 4.07 4.77 5.54 8.66 5.16.2-.02.3-.03.5 0 0 0 .1.22.1.3.14.57-.2 3.02-.34 4.16-.04.35-.12 1.15-.16 1.53 0 0-.2.38-.2.83 0 .14 0 .28 0 .4 0 .62.12.78.12.78 0 .15-.1 1.32-.1 1.47-.1 1.6-.22 2.37-.44 3.03-.04.1-.13.28-.25.3-.12.1-.3.27-.33.43 0 .12 0 .24.04.35.03.1.12.23.17.3.07.35.04.72.04 1.07 0 .1.05.23.07.33.02.1.12.1.2.13.13.03.1.12.2.15.1.02.2.02.3.02h1.05c-.02-.4-.4-.6-.67-.78-.14-.13-.12-.16-.13-.35 0-.26-.02-.54-.02-.8 0-.13.06-.18.1-.3.07-.13.02-.33.02-.48.2-1.35.42-2.73.78-4.05.3-.38.4-.85.5-1.32 0 0 .23-.63.15-.96l.97-5.92c.1-.2.25-.38.46-.43 1.2-.54 2.4-.9 3.53-1.7 1.24-.86 1.98-2.26 2.85-3.52.2-.38.42-.7.64-1.06.74-1.1 1.7-3.94 1.94-5.35.3-1.66.18-3.3.66-5.28.1-.43.46-.77.54-1.2V211l.23-.05c.26-.03.58-.08.76-.08.2-.03.58-.02.6-.02.05 0 .25.04.37.04.1 0 .26.1.36.1.1 0 .2-.02.26-.1.12-.17.14-.12.17-.26 0-.05.05 0 .08 0 .1-.04.16-.16.27-.2.08 0 .13-.04.15-.12 0-.1 0-.2 0-.3 0-.16 0-.16-.1-.2-.02 0-.03 0-.04-.02-.12-.03.02-.26.02-.4 0-.12 0-.22-.04-.3-.05-.1-.07-.13-.16-.2-.07-.07-.1-.14-.18-.18-.55-.48-.8-.83-1.18-1.2.07-.08.06-.12.03-.25-.17-.54-.5-.63-1.08-1.07-.53-.3-1.23-.65-1.97-.7h-.32a1.3 1.3 0 0 0-.08-.02z"/><path fill="#d39044" d="M316.88 209.4c0 .08-.04.17-.06.25 0 0 0 .02 0 .03.02-.08.06-.17.06-.24 0 0 0-.02 0-.03z"/><path fill="#fff" fill-rule="evenodd" d="M307.65 226.9c-.4 1.62-1.4 1.95-.66 3.34 0 0-.33-.03-.52-.56-.1-.27-.16-.66-.14-1.24.02-.3.05-.63.1-1.03.04-.18.08-.4.12-.62M308.4 226.2c-.4 1.64-1.4 1.98-.67 3.36 0 0-.4 0-.6-.54-.08-.26-.15-.7-.16-1.05 0-.34.1-.92.16-1.16.06-.24.24-.64.24-.64M309.76 224.04c-.57 1.08-1.03 2-1.27 2.8-.25.8-.4 1.24.05 2.1 0 0-.3-.17-.7-.92-.13-.24-.22-.76-.16-1.3a5.96 6 0 0 1 .14-.85 5.86 5.9 0 0 1 .16-.5M310.3 223.36c-.36.54-.48 1.07-.67 1.5-.4.9-.6 1.57-.6 2.06 0 .4-.07.73.37 1.4 0 0-.2-.02-.34-.1s-.3-.24-.45-.5c-.12-.3-.23-.7-.24-1.3 0-.3.1-.73.17-1.02.08-.3.36-.9.36-.9"/><path fill="#d18219" fill-rule="evenodd" d="M311.22 207.6c.03-.05-2.25-.72-2.58-2.73.45-.42 2.78 1.12 2.82 2.55"/><path fill-opacity=".502" fill-rule="evenodd" d="M308.72 204.9c.02.04 1.22.04 2.17 2.08-.22-.24-1.2.33-2.17-2"/><path fill-rule="evenodd" d="M314.23 207.8c.03-.04.08-.1.03-.16-1-.62-.95.14-1.65.14.34 0 .34.05.47.18.45.5.76.45 1.16-.03"/><path fill="none" d="M316.67 210.58c-.1.13-.5-.16-.78-.2"/><path fill-rule="evenodd" d="M316.9 209.83s-.12-.1-.85-.2c0 .03.5-.5.55.07"/><path fill="#fff" fill-rule="evenodd" d="M301.36 227.67a6.55 6.6 0 0 0-.18.36c-.2.46-.27.9.1 1.58 0 0-.32 0-.5-.55-.1-.26-.17-.66-.15-1.24 0-.14.02-.3.04-.46"/><path fill="none" d="M287.33 224.18s-.3-1.2.4-2.55"/><g fill="#e7ca00"><path d="M346.48 261.5c-.37.47-1.45.85-2 .62-.55.6.3 2.4 1.77 1.7 1.47-.68 1.44-1.82.24-2.32h-.02zm1.7-4.52c-.8-.2-2.15-.03-2.5 1.46-.36 1.5.84 2.08 2.13 1.9-.65-1.15-.14-2.85.37-3.36zM347.17 260.1c-1.03-.36-1.23-1.55-1.03-2.7-.8.66-2.06 1.3-1.44 2.4.5.85 1.25 1.5 2.47.3zM346.52 260.7c-.78-.23-1.82-.68-2.18-1.68-.74.76-.7 2.8.67 3.1 1.37.27 1.7-.6 1.52-1.44zm8.52 4.7c.3-1.27-.16-3.04-2.82-2.8-2.53.22-3.3 2.18-2.7 2.4.45-1.13 3.96-.65 5.53.4zM354.9 263.45c.32-1.27-.2-3.38-2.84-2.7-2.6.66-2.45 2.76-1.82 2.96.5-1.1 3-1.3 4.68-.24zM354.54 268.33c.84-.87 1.3-3.27-1.18-4.3-2.34-.95-3.17-.36-3.63.55 1.3-.35 4.68 1.7 4.8 3.75zm.27-6.2c-.33-.84-.9-2.7-3.42-1.76-2.05.77-1.32 2.35-1 2.78.47-1 2.67-1.74 4.43-1.03zM354.38 260.34c-.4-.78-1.36-2.76-3.84-1.48-2.44 1.26-1.05 3.38-.4 3.44.25-.85 2.36-2.14 4.24-1.97zM352.9 258.36c-.58-.55-2-1.95-3.7-.18-1.7 1.74.14 3.15.7 3.02-.03-.78 1.36-2.47 3-2.84zM350.56 257.05c-.78-.2-2.74-.77-3.37 1.4-.63 2.13 1.7 2.5 2.14 2.18-.44-.62-.04-2.6 1.22-3.58zm3.16 12.63c.98-.73 1.8-3.12-.56-4.63-2.26-1.43-3.2-.98-3.8-.13 1.37-.12 4.53 2.62 4.36 4.76zM351.72 271.95c1.5-.64 3.46-4.4.9-6.17-2.42-1.68-4.84-.7-5.83.4 2.63-.32 6.3 3.57 4.9 5.77h.02zM349.73 273.84c3.93-1.55 3.57-5.57.93-7.18-2.5-1.52-4.06-1.3-5.42.02 3.27 1.32 5 3.47 4.48 7.17zM346.37 276.1c4.85-1 4.67-6.22 2.13-8.67-1.8-1.73-3.26-1.32-4.16-.62 1.68 1.88 3.06 4.96 2.02 9.3zM343.4 276.77c4.84.3 5.86-5.84 3.3-8.85-1.8-2.13-3.25-2.12-4.14-1.68 1.67 2.23 3.57 6.53.84 10.54zM338.74 277.62c6.17 1.54 8.84-6.3 5.38-10.15-1.85-2.06-3.26-2.1-4.16-1.67 1.94 3.7 1.73 9.77-1.22 11.83zM332.8 277.85c6.57 2.95 9.53-3.82 9.2-8.45-.24-3.67-3.93-6.07-4.82-5.64 2.53 4.8-.65 13.52-4.37 14.1zM327.54 277.45c6.34 3.7 10.74-2.75 10.8-8.44.03-3.72-1.04-6.9-3.8-7.02 1.34 5.7-2.3 14.06-7 15.48zM322.1 276.7c6.5 3.74 12.56-2.4 13.24-9.4.35-3.55-.4-5.26-2.4-6.9.37 5.13-7.4 15.22-10.84 16.3zM319.97 276.6c7.7 3.52 19.24-17.86 9.03-19.98 2.12 5.57-6.1 19.47-9.03 19.98zM317.8 276.9c4.06 4.16 18.98-21.02 8.06-22.66.92 2.48-.42 7.3-2.72 11.83-2.3 4.53-5.66 7.6-5.33 10.83zM316.5 280.84c.48-4.77 7.98-14.3 9.63-21 1.05-4.27-.3-7.98-7.37-6.6 5.87 7.53-5.5 19.8-3.6 27.06-.38.7 1.84.02 1.34.53zM317.54 280c-2.23-4.86 3.33-13.98 4.12-20.73.48-4.14-3.37-9.73-9.9-6.93 7.87 6.12.08 20.34 3.96 27.02.9.56 2.2.42 1.82.66zM317.67 281.9c-2.87-5.24-.2-15.12-.17-21.62 0-4.3-6.22-11.32-12.3-6.02 11.6 4.74 4.8 16.27 10.8 27.33 1.18.63 1.98 0 1.66.3zM316.75 280.02c-3.15-4.38-2.14-14.33-4.4-20.5-1.53-4.16-9-8.93-13.46-2.37 12.43 1.9 7.53 14.26 16.17 23 1.3.3 1.9-.5 1.68-.12zM315.13 279.44c-4.63-3.47-5.13-12.82-8.8-18.2-3.26-4.82-9.76-6.65-12.45.68 13 1.88 9.45 11.66 16.97 16.5 1.66.96 4.48.82 4.3 1.02h-.02zM310.34 276.7c-4.2-3.52-2.48-5.7-6.65-11.04-3.6-4.6-12.88-6.77-13.67.62 11.42-.03 11.17 4.8 17 8.76 1.35 0 3.43 1.23 3.3 1.64z"/><path fill-rule="evenodd" d="M286.73 273.27l.73 2.2 22.86 13.1 6.36-2.8.6-3.37.04-4.16-20.78-8.96-8.5-2.87-2.18 3.96.87 2.9z"/><path d="M285.92 273.4c.32-.05.64-.1.96-.14-.92-2.1.23-4.08 2.7-4.34 2.44-.25 5.9 1.4 8.47 3.88 2.15 1.63 4.74 3.58 8.38 4.54 2.85.74 6.4.48 9.54 1.73 1.5.7 1.3 1.75 1.06 3.8 1.1-.7 1.74-1.65 1.8-3-.3-2.93-2.16-5.25-6.5-6.6-3.7.38-7.37-.33-10.9-3.42-1.67-2.56-3.6-4.98-7.3-6.26-1.83-.63-3.85-.43-6.1 1.12-2.8 1.93-3 3.78-2.88 5.57.25 1.02.5 2.06.77 3.1z"/><path fill-rule="evenodd" d="M308.7 283.44c-1.32 3.03-.36 6.18 2.15 7.02 2.5.84 5.6-.93 6.9-3.97l-9.05-3.06z"/><path d="M311.13 280c1.52 1.03 2.12 2.9 1.32 4.2-.8 1.26-2.7 1.46-4.23.44-1.53-1.03-2.12-2.9-1.32-4.2.8-1.26 2.7-1.46 4.23-.44zm-18.42 3.48c-.82.6-1.38 1.47-1.3 2.45.04.6.32 1.18.74 1.68-.08.03-.16.04-.23.05-1.72.23-3.6-1.4-3.73-3.03-.06-.73.23-1.4.74-1.95.6.35 1.28.52 1.93.43.27-.03.55-.1.8-.2.34.25.7.44 1.08.58zM291.26 277.57c-.85.64-1.42 1.56-1.36 2.6.04 1 .65 2 1.5 2.72-.3.1-.6.18-.93.2-2 .23-4.1-1.73-4.2-3.62-.02-.47.1-.93.3-1.34.28.06.58.07.88.04.9-.1 1.72-.5 2.33-1.1.46.27.97.44 1.48.5zm9.1 10.94c.04.04.1.1.13.12-.17.78-.6 1.48-1.2 2.02.58-.57.97-1.32 1.06-2.13zm-2.87-1.82c-.6.96-1.65 1.67-2.87 1.8-1.94.2-3.98-1.68-4.07-3.5 0-.2 0-.37.03-.55.76.7 1.78 1.15 2.77 1.04.64-.06 1.23-.3 1.74-.63.55.84 1.43 1.54 2.38 1.84zM302.97 288.6c.1.5.02 1-.28 1.42-.73 1.03-2.43 1.2-3.8.4-1.35-.8-1.87-2.3-1.15-3.34.28-.4.7-.67 1.2-.8-.15.42-.16.9-.02 1.3.4 1.2 1.76 1.87 3.06 1.53.35-.07.7-.25.98-.5zM304.1 287.68c-.27.73-.87 1.37-1.74 1.7-1.6.63-3.45 0-4.15-1.43-.34-.72-.32-1.5 0-2.2.68.17 1.44.15 2.14-.13.74-.3 1.3-.8 1.6-1.42-.2.6-.16 1.3.14 1.9.38.8 1.14 1.35 2 1.57h.02zm10.8 1.93c-1.12 1.66-3.3 2.6-4.84 2.08-1.3-.42-1.73-1.75-1.17-3.14 1.08.7 2.55.96 3.97.6 1.18-.28 2.1-.96 2.66-1.8.1.68-.1 1.5-.64 2.27zM320.63 291.35c-.07.07-.15.14-.23.2-1.53 1.3-3.84 1.5-5.13.48-1.2-.97-1.1-2.7.17-3.97 1.38.8 3.33.76 4.92-.1-.4.78-.47 1.66-.17 2.53.1.3.25.6.43.84zM324 287.54c-.17 1.3-1.6 2.53-3.43 2.84-2.05.35-3.86-.56-4.03-2.04v-.06c1.1-.64 1.8-1.65 1.93-2.76 0 0 .02 0 .04-.02.9 1.7 3.2 2.62 5.38 2.07.04 0 .08-.02.12-.03zm-14.64-.22c.34 1.64-.87 3.48-2.7 4.1-1.8.64-3.58-.2-3.92-1.83-.08-.43-.06-.87.03-1.3 1.08-.3 1.94-.92 2.47-1.7.98.4 2.12.5 3.25.2.2-.04.4-.1.6-.2.1.23.2.46.25.72zM311.7 286.3c-1.1 1.65-3.28 2.58-4.82 2.07-1.54-.5-1.87-2.27-.75-3.92.32-.47.74-.9 1.2-1.24 1.12 1.1 2.95 1.6 4.7 1.18.1-.03.23-.06.34-.1.03.63-.18 1.34-.66 2.03zM317.06 283.02c1.6 1 2.1 2.88 1.08 4.17-1 1.27-3.15 1.5-4.77.5-1.6-1-2.1-2.88-1.08-4.17 1-1.28 3.14-1.5 4.76-.5zm-10.7 1.6c.35.95.33 1.96-.13 2.76-.85 1.46-2.9 1.67-4.55.48-1.15-.84-1.82-2.17-1.8-3.4.47-.5.74-1.18.7-1.88.04-.04.1-.08.13-.12.6 2 2.7 3.16 4.7 2.6.33-.1.66-.23.96-.43zM298.36 281.97c1.77-.2 3.3 1.22 3.36 2.78.08 1.55-1.3 2.97-3.07 3.16-1.25.14-2.54-.6-3.22-1.62 1-.57 1.67-1.6 1.6-2.7 0-.38-.1-.77-.3-1.13.52-.25 1.07-.4 1.63-.47zM307.16 281.8c.54 1.4-.54 2.94-2.4 3.38-1.87.45-3.83-.35-4.38-1.78-.16-.44-.17-.9-.06-1.33.24.18.5.33.75.46 1.94.95 4.4.7 5.43-.58.18-.2.3-.44.38-.68.1.16.2.33.27.5v.02zM299.17 277.04c.6-.07 1.2.08 1.7.37-.8 1.24-.22 2.98 1.3 4-.47 1-1.5 1.74-2.7 1.87-1.7.18-3.52-1.48-3.62-3.1.07 0 .15 0 .22 0 1.66-.2 2.98-1.57 3-3.13h.1zM305.47 277.68c1.95 1.17 2.7 3.33 1.67 4.8-1.04 1.5-3.48 1.75-5.44.58-1.95-1.17-2.7-3.33-1.66-4.8 1.03-1.5 3.47-1.75 5.43-.58zm-9.4 2.87c.64.4 1.15.97 1.4 1.65.58 1.57-.33 3.4-2.03 4.05-1.7.66-4.06-.48-4.65-2.06-.25-.68-.15-1.38.16-2 .03 0 .06 0 .1.02 2.1.54 4.27-.2 5.02-1.67zm-8.45-8.2c.58-.05 1.14.07 1.62.33-.73.56-1.2 1.35-1.16 2.25.05 1.06.84 2.15 1.86 2.73-.53.5-1.24.86-2.02.95-1.74.2-3.56-1.5-3.64-3.14-.08-1.63 1.6-2.92 3.33-3.1h.02zM291.3 272.14c1.45-.16 2.74.95 3.05 2.3-.8.53-1.36 1.34-1.3 2.27 0 .26.05.5.13.72-.45.34-1 .57-1.6.63-1.64.17-3.38-1.43-3.45-2.98-.08-1.55 1.5-2.77 3.15-2.95v.02zM295.97 279.6c.35.78.34 1.64-.13 2.3-.84 1.2-2.83 1.43-4.4.48-1.6-.95-2.2-2.7-1.37-3.9.45-.65 1.22-1 2.1-1.06.72 1.32 2.26 2.35 3.74 2.2h.07v-.02zm31.08 10.98c.35 1.44-.75 2.9-2.58 3.36-1.95.47-4-.4-4.58-1.92-.54-1.43.42-2.95 2.14-3.53.86 1.57 2.95 2.45 5 2.08zM328.45 287.2c.5 1.57-.5 3.2-2.23 3.67-1.73.45-3.58-.46-4.1-2.04-.44-1.37.23-2.8 1.54-3.45.93 1.5 2.9 2.3 4.78 1.82zM331.5 288.14c.46 1.42-.42 2.9-1.98 3.32-1.05.27-2.15 0-2.9-.67.83-.93 1.14-2.16.73-3.35-.1-.27-.23-.52-.38-.76.27-.18.56-.3.86-.38.54-.14 1.1-.13 1.6 0 .46.53 1.08.96 1.8 1.23.1.18.2.38.27.6zm6.63-1.67c.52 1.6-.47 3.27-2.23 3.73-1.75.46-3.62-.46-4.14-2.06-.04-.1-.07-.23-.08-.36.7.1 1.4.08 2.1-.1 1.6-.4 2.76-1.5 3.1-2.82.58.38 1.04.93 1.26 1.6zM338.56 284.27c.5 1.53-.46 3.15-2.15 3.6-.73.18-1.5.13-2.18-.15.87-.93 1.2-2.2.78-3.4-.23-.68-.67-1.26-1.24-1.7.26-.14.54-.26.82-.33 1.7-.46 3.48.43 3.98 1.97zM342 282.53c.5 1.54-.47 3.15-2.16 3.6-.46.1-.92.13-1.37.07.13-.57.1-1.2-.1-1.8-.37-1.04-1.24-1.86-2.33-2.3.36-.72 1.07-1.3 1.98-1.54 1.7-.45 3.47.44 3.98 1.97zm-17.4 3.85c-.45.65-1.15 1.17-2.02 1.4-1.87.48-3.84-.5-4.4-2.2-.55-1.68.5-3.47 2.38-3.96 1.4-.37 2.88.1 3.76 1.1-.5.73-.67 1.66-.37 2.56.14.4.36.78.64 1.1zm-28.74-13.3c1.47-.18 3.62 1.56 3.8 3.22.2 1.65-.6 2.63-1.62 3.3-1.02.7-2.3.92-3.4.44-1.1-.48-2.16-1.63-2.5-2.72-.34-1.1-.12-1.82.6-2.64.7-.83 1.66-1.44 3.12-1.6zM329.78 283.7c.5 1.55-.46 3.17-2.15 3.6-1.7.45-3.48-.44-3.98-1.97-.5-1.54.46-3.15 2.15-3.6 1.7-.44 3.47.45 3.98 1.98zM335.38 284.57c.5 1.5-.46 3.1-2.12 3.54-1.67.45-3.43-.42-3.93-1.94s.45-3.12 2.12-3.55c1.67-.42 3.44.45 3.93 1.97z"/></g></g><path fill="#e7ca00" stroke="#d4af37" stroke-width=".533" d="M290.95 194.83l-.35.44-14.06 17.5-.3.38.35.34c4.5 4.3 7.12 11.6 7.13 17.48 0 7.5-1.2 12.64-2.72 17.38-2.08 6.54-4.8 12.3-5.62 21.9-.62 7.1 1.94 12.65 5.24 16.65 3.3 4 7.3 6.5 9.68 7.6 7.3 3.46 14.85 2.27 22.38 3.23 3.35.43 5.2 2.53 6.93 4.37l.4.4.4-.4c1.72-1.84 3.57-3.94 6.92-4.37 7.53-.96 15.07.23 22.38-3.22 2.38-1.1 6.4-3.6 9.68-7.6 3.3-4 5.86-9.54 5.24-16.65-.83-9.6-3.54-15.35-5.63-21.9-1.53-4.73-2.75-9.88-2.73-17.37 0-5.87 2.62-13.2 7.14-17.5l.36-.33-.3-.38-14.06-17.5-.35-.44-.42.37c-4.3 3.77-9.28 5.13-14.25 4.92-4.96-.22-9.92-2.03-14.1-4.62l-.28-.17-.28.17c-4.18 2.6-9.14 4.4-14.1 4.62-4.97.2-9.94-1.15-14.25-4.92l-.42-.37zm.15 1.5c4.43 3.7 9.53 5.07 14.56 4.85 4.87-.2 9.67-1.87 13.8-4.3v51.25H282.2c1.45-4.65 2.6-9.83 2.6-17.15 0-6.03-2.56-13.3-7.13-17.9l13.43-16.74zm57.8 0l13.43 16.75c-4.57 4.6-7.12 11.87-7.13 17.9 0 7.32 1.15 12.5 2.6 17.15h-37.27V196.9c4.14 2.4 8.94 4.07 13.8 4.28 5.04.22 10.14-1.16 14.57-4.84zm-67.05 52.87h76.3c2.1 6.4 4.6 11.96 5.4 21.14.6 6.8-1.83 12.05-5 15.9-3.15 3.83-7.06 6.24-9.3 7.3-6.97 3.3-14.34 2.15-22.07 3.14-3.47.44-5.53 2.52-7.18 4.28-1.66-1.76-3.7-3.84-7.18-4.28-7.73-1-15.1.15-22.06-3.14-2.25-1.06-6.16-3.47-9.32-7.3s-5.6-9.1-5-15.9c.8-9.17 3.32-14.74 5.4-21.14z"/><g fill="#008f4c"><path fill="#00a854" d="M373.3 171.42c-.07 0-.12.04-.15.1-.1.34-.4 2.25-.6 4.2-.16 1.97-.4 3.58-.46 3.58s-1.13-.46-2.4-1c-3.1-1.36-9.54-2.12-9.9-1.16-.25.6.46 4 1.63 7.93.25.85-.05 1.1-1.88 1.66-1.22.35-2.6.95-3.1 1.35-.86.6-.76.8 1.42 2.8l2.4 2.17-1.13.9c-1.07.86-1.07.86 2.8 4.52 4.26 4.02 6.48 5.25 9.37 5.25.9 0 1.9.17 2.6-.04.95-.16 1.7-.48 4.03-.73 2.52.22 5 1.46 6 2 .25.54.46 1.03.6 1.43-1.8-1.95-5.8-2.73-6.62-2.76-.83-.03-1.25.2-2.14.46s-1.24.7-2.1 1.87c-.6 1.55.6 3.17 2.08 3.37 1.83.25 3.2-.75 3.2-2.4 0-1.37-.78-2.34-.14-2.3 2.23.17 5.57 1.94 6.23 4.2.76 2.8.6 2.96-.76 1.06-1.27-1.66-3.25-3.42-3.86-3.47-.45 0-1.46 2.47-1.46 3.62 0 .76-.2.9-.86.66-.5-.25-1.63-.5-2.5-.6l-1.56-.26.4 2.5c.2 1.37.87 3.43 1.42 4.53l1.07 2.06-2.43-.74c-5.23-1.6-4.87-1.66-4.52 1.1.16 1.35.46 2.86.6 3.3.32.77.06.92-1.7.92-1.18 0-2.1.15-2.1.3 0 1.16 4.12 6.63 6.15 8.23 2.5 1.92 7.2 4.03 9.1 4.03.55 0 2.22.45 3.8 1.05l2.8 1v3.02c0 3.3-1.03 10-1.6 10-.14 0-1.05-1.4-1.97-3.17-2.08-3.82-1.98-3.76-2.54-2.86-.4.6-.5.55-.5-.3 0-1.46-2.35-5.83-3.82-7.23l-1.22-1.16-.6 1.36-.62 1.3-2.74-3c-1.52-1.67-2.94-2.92-3.14-2.77-.26.1-.56 1.46-.77 2.96-.5 4.37-.72 4.62-2.4 3l-1.42-1.34-.35 1.34c-.6 2.4.15 10.9 1.22 13.86.56 1.56 1.27 4.42 1.62 6.38.6 3.77 2.8 8.08 5.5 10.8.95 1 1.1 1.4.5 1.4-.42 0-1.12.4-1.58.9-2 2.16-.16 4.97 2.83 4.42 1.48-.25 1.78-.15 2.3.95.75 1.6.8 4.52.1 5.78-.52.95-3.52 2.2-4.02 1.7-.15-.15-.25-1.85-.2-3.76l.06-3.47-2.6 1.36c-6.24 3.32-11.5 11.85-12.83 18.43-.44 2.2-1.7 2.43-3.3 5.03-1.54.88-3.05 2.03-4.52 3.54-2.53 2.46-3.2 2.82-7 3.77-4.68 1.16-14.67 2.76-22.2 3.5-6.54.67-27.15 3.98-28.42 4.53a89.97 89.97 0 0 1-2.9 1.2c-1 .4-2.23 1.3-2.73 2.07-.7 1.1-.76 1.45-.2 2.5 1.37 2.52 4 2.47 9.64-.2 2.48-1.2 5.52-2.2 7.76-2.56 1.98-.3 4.92-.9 6.45-1.25 1.53-.4 5.8-1.16 9.4-1.76 20.5-3.26 28.02-4.87 36.4-7.78 5.58-1.97 5.53-1.97 10.66-1.47 5.8.56 13.1-1.25 16.1-3.96.65-.6 2.38-2.72 3.9-4.72 1.47-2 3.3-4.02 4-4.47 1.94-1.26.83-1.7-4.15-1.7h-4.16l1.43-3.12c1.62-3.6 3.3-8.4 3-8.7-.1-.1-1.58.1-3.2.5-1.68.36-3.1.62-3.15.57-.1-.1.1-.86.4-1.7.4-1.1.97-1.72 1.88-1.92.76-.14 1.68-.4 2.08-.5.36-.1 1.53 0 2.6.3 1.87.5 1.92.6 1.67 2.17-.3 1.96.76 3.37 2.6 3.37 1.3 0 2.83-1.46 2.83-2.67 0-1.35-1.98-2.96-3.2-2.66-.6.1-2.34-.14-3.86-.64l-2.74-.95 2.64-.55c4-.85 5.33-.7 5.9.56.35.8 1 1.2 2.12 1.3 3.2.3 4.22-4.2 1.17-5.16-1.1-.35-3.55.85-3.55 1.76 0 .3-.86.5-1.87.5a17.3 17.3 0 0 0-5.97 1.1l3.9-1.9c2.33-.7 5.38-1.8 6.75-2.46 4.52-2.1 8.98-7.33 10.66-12.3 1.08-3.17 2.7-13.06 2.2-13.06-.26 0-1.94.65-3.7 1.46-3.26 1.5-3.3 1.5-3.3.4.04-2.06.9-8.14 1.25-9.04.26-.55.16-.85-.3-.85-1.52 0-6.45 2.7-9.7 5.32-3.14 2.5-3.45 2.66-3.45 1.6 0-.64.46-1.9 1.02-2.8.9-1.5 1.16-1.6 3-1.3 1.77.3 2.07.14 2.83-1.02 1.07-1.6.46-3.5-1.26-4.06-.98-.3-.88-.46.95-1.37 2.28-1.1 4.72-3.66 6.55-6.98l1.22-2.06-1.83.2c-1.03.1-1.83.15-1.83.1 0-.06.35-1.06.76-2.2.4-1.17.76-3.07.76-4.18 0-2.1-1.9-9.8-2.6-10.6-.25-.3-1.27.16-2.44 1.1l-1.98 1.57-1.88-4.13c-1.02-2.26-1.98-4.22-2.08-4.32-.1-.15-.76.3-1.47.96-1.57 1.46-1.68.66-.3-2.3 1.2-2.6 1.77-2.97 3.2-2 1.72 1.1 3.65.04 3.85-2.07.1-1.25-.1-1.76-1.07-2.4-.66-.4-1.57-.66-1.93-.5-.45.14-.9-.27-1.32-1.22-.35-.94-1-1.6-1.87-1.84-2.63-.65-4.46 2.66-2.53 4.56.76.7.76 1.26.2 4.93-.9 5.92-1.22 6.47-1.93 3.8-.8-2.95-.46-11.18.6-13.6 1.84-4.16.77-10.74-2.27-14.16-2.53-2.83-9.5-7.8-10.66-7.68zm-3.52 13.74c.44.02 2.34 1.62 5.42 5.26 2.58 3.06 5.64 8.33 7.63 12.26-.7-.8-1.17-.86-3.2-3.64-1.67-2.3-4.4-7.4-6.98-10.06-2.33-2.35-3.23-3.73-2.9-3.8a.14.14 0 0 1 .03-.02z"/><path d="M382.48 239.08c-.5 1.9-.88 2.24.14 3.7.45.7 1.32 1.1 2.18 1.1 1.37 0 2.13 1 3.3 4.52.15.55.25.55.25-.15.05-.5-.4-1.76-.96-2.86-.62-1.22-.82-2.07-.52-2.27.97-.6.56-3.16-.6-3.97-1.58-1.1-2.1-.8-3.8-.08z"/></g><path fill="#9eab05" d="M288.64 321.42c-1.06.86-1.34 2.22-.55 3 1.14 1.14 5.12.12 5.56-1.44.55-2.2-2.84-3.24-5.02-1.56z"/><path fill="#75b52b" d="M374.5 175.6c.4 2.5 2.84 7.62 4.66 9.73.77.9 1.48 1.55 1.63 1.45.1-.15-1.33-3.16-3.2-6.67-2.65-5-3.36-6.02-3.1-4.5zm-16.9 13.5c.55.6 8.1 2.75 8.1 2.3 0-.9-2.43-1.96-5.32-2.26-1.67-.2-2.94-.2-2.8-.05zm3.14 6.12c.6.6 9.5 4.67 11.93 5.47 1.47.5 3.4.8 4.3.7 1.54-.16 1.38-.26-1.82-1.3-1.93-.66-4.57-1.72-5.83-2.37-3.1-1.56-9.5-3.42-8.58-2.5zm28.88 12.9c-.76 2.3-1.98 10.04-2.33 15.06-.27 3.27-.22 4.37.4 5.12.65.9.76.5 1.3-4 .78-6.4 1.6-17.43 1.38-17.68-.1-.1-.45.6-.76 1.5zm-8.53 4.17c.25 4 1.97 8.32 2.58 6.4.2-.6-.3-2.8-1.22-5.46l-1.57-4.47.2 3.52zm-5.7.1c.36.5 1.23 1.55 1.84 2.3l1.16 1.45v-1.3c0-.75-.5-1.66-1.32-2.26-1.62-1.32-2.6-1.37-1.67-.2zm-7.15 12.4c0 .24 5.53 4.46 7.36 5.6 1.48.92 1.48.92-.4-1.3-1.92-2.25-5.07-4.5-6.3-4.5-.35 0-.65.1-.65.2zm2.8 10.84c1.3 5.57 2.33 8.73 2.9 9.08.34.2.7.35.75.25.25-.25-2.4-7.88-3.2-9.28l-.76-1.32.3 1.25zm5.83 4.36c0 .76.46 2.3 1.02 3.42.55 1.1.9 1.65.8 1.2-.1-.45-.4-1.85-.55-3.16-.4-2.6-1.27-3.62-1.27-1.46zm-10.3 3.77c.96 3.2 3.45 8.28 6.95 13.96 2.6 4.26 2.6 4.26 2.74 2.5.1-1.4-.4-2.65-2.28-5.82-1.33-2.2-3.57-6.1-5-8.62-1.36-2.56-2.68-4.62-2.88-4.62-.2 0 0 1.2.45 2.6zm31.52.75c-2.23 2.4-6.7 8.64-8.17 11.5-.5 1-.66 2-.46 2.8.3 1.17 1.02.26 6.04-7.67 3.1-4.97 5.5-9 5.3-9-.26 0-1.43 1.07-2.7 2.37zm-8.02 37.3c-.76 1.4.2 3.02 1.83 3.02 1.48 0 2.4-1.76 1.63-3.16-.6-1.16-2.8-1.1-3.45.15z"/><path fill="#d91023" d="M375.15 205.16c-1.93 1.35.1 4.77 2.14 3.56 1.2-.8 1.4-2.76.3-3.56-.52-.35-1.08-.65-1.23-.65-.15 0-.7.3-1.22.66zm13.3-10.85c-1.16.3-1.62 1.87-.9 3.18 1 1.86 3.54 1.1 3.54-1.06 0-1.5-1.17-2.4-2.65-2.1zm3.36 3.88c-.15.4-.2 1.25-.1 1.9.1.9.46 1.16 1.63 1.16 1.83 0 2.84-1.35 2.03-2.66-.7-1.1-3.15-1.4-3.55-.4zm-19.03 75.06c-1.88 1.5-.1 4.17 2.23 3.26 1.07-.4 1.47-1.6.86-2.7-.7-1.36-1.82-1.56-3.1-.56zm10.33-33.66c-.56.55-.4 2.4.25 3.06 1.52 1.5 3.8 0 3.25-2.16-.25-.95-.66-1.25-1.78-1.25-.76 0-1.57.15-1.72.35zm9.4-.07c-.35 1.47.52 2.78 1.84 2.78 1.22 0 2.13-1.2 1.93-2.62-.1-.9-.5-1.2-1.78-1.3-1.43-.15-1.7.05-2 1.15zm1.34 37.05c-.36 1.46.5 2.77 1.82 2.77 1.22 0 2.14-1.2 1.93-2.6-.1-.92-.5-1.22-1.78-1.32-1.43-.15-1.68.05-1.98 1.16zm-3.1 4.65c-1.87 1.5-.1 4.17 2.24 3.26 1.07-.4 1.47-1.6.86-2.7-.7-1.36-1.82-1.56-3.1-.56z"/><path fill="#75b52b" d="M369.7 185.58c.2.32 1.18 1.48 2.16 2.57 1.88 2.04 3.42 4.16 6.26 8.6 2 3.12 4.53 6.3 4.53 5.73 0-.6-4.5-8.15-6.27-10.53-2.35-3.12-6.1-6.98-6.8-6.98-.15 0-.1.23.12.6z"/><path fill="#eac102" fill-opacity=".502" d="M382.68 249.04c-.06.35-.6 3.73-.8 7.7-.54 9.17-1 14.1-2.06 20.03-.45 2.6-.87 5.15-.94 5.66l.14.84.84-1.17c.9-1.24 1.84-2.13 3.2-3.04.44-.32 1.9-1.68 3.17-3.05 6.46-6.8 8.26-8.92 13.82-16.28 5.15-6.85 6.4-8.57 6.3-8.7-.2-.18-1.8 1.35-8.23 9.3-1.78 2.2-4.8 5.65-6.6 7.67-4.48 4.93-9.48 9.5-10.8 11.28-.13.17.18-1.15.43-2.12 1.14-4.83 1.6-10.15 1.75-20.54.06-4.52.1-8.22.02-8.22-.06 0-.16.28-.24.64zm-12.54 33.18c-.4.65-1.6 2.77-2.7 4.7-3.43 6.16-7.4 11.72-10.4 14.6-1.1 1.06-.78 1.15-1 1.38-1.2 1.22 3.6 2.08 7.23 2.45 4.9.48 7.63-.5 20.73-7.4 3.06-1.62 3.88-2.12 3.27-2.02-1.2.2-3.1.65-8.8 3.35-5.55 2.63-8.04 3.78-10.55 4.35-1.96.44-4.84.48-6.54.08l-1.15-.07.6-.2c.52-.12 1.3-.15 1.58-.37.27-.25 1.32-1 2.32-1.5 2.27-1.15 4.77-3.23 8.2-6.3 2.64-2.34 7.7-7.46 7.7-7.78 0-.22-2.37 1.72-5.4 4.4-6.3 5.58-12.48 9.73-15.12 10.15l-.77.12.8-.72c.28-.4 1.27-1.86 2.3-3.35 2.45-3.58 3.4-5.28 5.68-9.95 2.1-4.3 2.98-6.88 2.84-7-.04-.04-.4.45-.8 1.1zm.15-64.8c-.07.36 2.62 3.6 5.7 7.15 3.17 3.63 5.03 5.06 7.55 8.22 2.52 3.16 2.78 3.4 5.6 5.93 3.5-4.6 5.64-10.9 7.13-14.88 1.46-3.95 2.64-7.33 2.68-12.54-2 4.36-2.07 5.93-3.64 10.67-1.58 4.8-5.1 13.08-6.43 14.85-.13.17-7.42-8.78-10.6-12.5-3.38-3.93-8.02-7.3-8-6.88z"/><path fill="#cab313" fill-opacity=".502" d="M372.68 174.8l-.6 4.54-1.85-.9c-1.93-.9-6.92-1.97-9.32-1.97-1.3 0-1.36.1-1.1 1.6.3 1.62 1.57 6.2 2.03 7.22.1.3-.77.8-1.94 1.15-1.23.35-2.6.95-3.1 1.36-.93.66-.83.8 1.1 2.53 2.3 2.06 2.5 2.62 1.23 3.52-.77.56-.46 1 2.9 4.23 2.1 2.02 4.7 4.1 5.7 4.6 2.6 1.35 7.65 1.35 10.35 0 1.9-.97 2.04-.97 3.26-.16 1.22.75 1.27.75.6-.05-.4-.46-2.8-1.92-5.3-3.18-7.02-3.63-12.77-9.98-15.22-17-1.22-3.46-1.22-5.33.05-5.33 2.1 0 6.52 1.1 9.02 2.22 3.7 1.7 10.33 8.05 12.17 11.73 1.32 2.57 1.47 3.48 1.52 7.3 0 4.44.7 6.3.8 2.27.2-5.1.37-6.24 1.13-8.16 1.53-3.73.76-9.42-1.68-12.8-.82-1.06-3.47-3.37-5.96-5.14-2.46-1.7-4.65-3.32-4.8-3.62-.2-.26-.66 1.56-1.02 4.03zm6.52.76c3.4 2.37 4.38 3.38 5.45 5.54 1.63 3.38 2.14 7.46 1.23 10.48l-.72 2.27-1.32-2.82c-.87-1.9-2.7-4.18-5.7-7.15-2.4-2.42-4.65-4.4-4.95-4.4-.57 0-.37-3.4.4-6.4.3-1.3 0-1.45 5.6 2.48zm-16.35 12.35c.46.8 1.27 1.67 1.73 2.02.5.35 1.02 1.1 1.17 1.66.26.9 0 1-2.4 1s-2.8-.14-4.63-2c-1.07-1.1-1.9-2.12-1.73-2.22.4-.4 3.7-1.76 4.32-1.8.35 0 1.02.6 1.53 1.35zm6.77 7.82c2.96 2.72 3.82 3.27 7.4 4.68 1.88.76 1.98.86 1.16 1.6-1.12 1.12-6.72 1.53-9.27.67-2.18-.7-10.13-7.86-9.3-8.36.85-.55 3.5-1.1 5.44-1.15 1.37-.05 2.24.45 4.58 2.57zm14.73 9.27c-.2.24 0 1.35.4 2.46.92 2.57.87 3.32-.05 5.08-.4.8-.76 2.37-.76 3.43 0 1.1-.26 2.72-.6 3.63l-.57 1.6-1.68-1.05c-.93-.6-1.8-1.56-1.95-2.1-.46-1.52-.25-4.75.36-7.82.47-2.17.82-2.77 1.54-2.72.76.1.8-.04.25-.65-.52-.65-.72-.65-1.28.15-.36.5-.82 1.6-.97 2.52-.3 1.66-.3 1.66-1.78.96-2.2-1.16-3-.96-3 .7 0 1.67.86 4.34 1.93 6 1.17 1.76 1.22 1 .05-1.26-1.38-2.77-1.84-5.7-.92-5.7.4 0 1.22.36 1.83.76.92.66 1.07 1.2.97 4.2-.05 4.02-.4 4.22-5.2 2.6-1.57-.55-3-.9-3.15-.8-.2.25.6 4.48 1.17 5.84.2.6-.15.76-2.1.56l-2.4-.15 1.44 2.4c3.15 5.5 7.74 8.78 14.05 10.1 2 .4 4.38 1.1 5.25 1.55 1.22.66 1.43.66.97.1-.3-.4-1.48-1.05-2.55-1.4-2.9-1.06-5.7-3.08-9.37-6.96s-5.56-7.15-5.56-9.67c0-1.3.15-1.62.76-1.36.46.14 2.2.64 3.92 1.1 4.28 1.05 5.4 1.7 8.15 4.63 2.9 3.07 3.87 4.9 4.74 9.02.4 1.8.8 3.37.97 3.53.66.7.86-1.62.3-3.58-.9-3.33.46-9.78 3.37-15.47 1.28-2.52 5.2-6.35 5.8-5.64.22.2.88 2.36 1.54 4.77 1.38 5.14 1.17 6.65-1.27 11.74-1.78 3.64-3.47 5.76-6.12 7.67-1.98 1.4-1.42 1.87 1.33 1.16 2.44-.65 6.37-4.23 8.5-7.76l1.13-1.9-1.98.34-1.93.3.9-2.66c1.17-3.42 1.17-4.78 0-8.87-.56-1.86-1.12-4.03-1.32-4.78l-.3-1.42-1.64 1.16c-.92.6-1.78 1.3-1.93 1.56-.6.85-1.32-.1-3.05-3.93-.92-2.07-1.83-3.78-2.04-3.78-.24 0-1 .6-1.77 1.35l-1.33 1.4.3-1.4c.26-.96.16-1.3-.2-1.1-.25.14-.5.8-.5 1.4 0 2.42-.87 2.42-1.63.05-.4-1.3-.87-2.16-1.02-1.9zm7.38 12.68c-1.47 2.93-2.5 5.95-2.9 8.27l-.6 3.63-.83-2.02c-.46-1.16-1.47-2.77-2.2-3.68-1.36-1.56-1.36-1.66-.8-5.24.86-5.7 1.98-8.76 4.02-10.98l1.84-2.07 1.88 3.72 1.9 3.68-2.3 4.7zm-19.3 8.32c6.2 6.45 8.35 8.97 7.28 8.6-4.63-1.35-7.9-3.77-10.33-7.54-.97-1.47-1.73-2.83-1.73-2.98 0-.15.6-.25 1.32-.25.92 0 2.04.7 3.46 2.17zm28.98 3.98c-2.02 3.22-3.25 4.43-5.5 5.54l-2.03 1.06 2.04-2.22c1.13-1.2 2.6-3.07 3.22-4.08 1.02-1.6 1.73-2.12 3.3-2.37.22 0-.24.92-1 2.08z"/><path fill="#005000" d="M382.87 208.97c.7 1.5 2.04 3.07 2.1 2.52 0-.32-.62-1.22-1.34-2.03-.7-.85-1.07-1.06-.76-.5z"/><path fill="#cab313" fill-opacity=".502" d="M369.42 235.27c-.2 1.06-.56 2.77-.87 3.88l-.46 1.9-1.48-1.35-1.43-1.36-.42 2.37c-.46 3.28.1 8.17 1.53 12.76.67 2.1 1.4 5 1.6 6.4.6 4.63 4.42 10.07 9.36 13.45.92.66 1.28 1.52 1.58 3.8l.4 2.9-.1-2.76c-.04-1.5-.65-5.24-1.32-8.3-1.57-7.32-1.12-10.4 2.55-17.85l2.65-5.35 2.7 5.4c3.62 7.2 3.98 9.6 2.04 15.5-.76 2.38-1.63 4.54-1.9 4.9-.24.35-.34.8-.24 1.05.15.2.05.7-.26 1.1-.4.62-.45.57-.2-.24.2-.55-.5-.05-1.68 1.26-1.12 1.26-2.14 2.72-2.3 3.27-.25.9-.2.9.62-.1.46-.6 1.27-1.72 1.78-2.43.5-.7 1.12-1.15 1.33-1 .77.4 1.48-.9 3.17-5.6 2.34-6.55 3.82-9.12 7.03-12.34 2.14-2.12 4.22-3.48 7.8-5.2 2.7-1.25 4.98-2.3 5.1-2.3.4 0-1.13 8.76-2 11.33-.97 3.07-3.72 7.4-5.9 9.42-2.15 1.97-6.43 4.08-10.46 5.2-1.73.5-3.3 1.05-3.46 1.3-.25.45 3.77-.65 7.5-2.06 5.4-1.97 10.48-7.2 12.57-12.75.92-2.42 2.9-12.9 2.5-13.25-.1-.1-1.78.6-3.82 1.56l-3.62 1.7.32-3.36c.15-1.87.56-4.44.9-5.8.63-2.32.63-2.37-.44-2.06-2.55.75-7.14 3.52-9.9 6.04l-3 2.67.16-4.63c.15-3.13.05-4.34-.26-3.63-.25.56-.5 2.03-.5 3.28-.06 2.57-1.13 7.56-1.64 7.56-.2 0-1.12-1.46-2.03-3.27-1.67-3.13-2.44-3.98-2.54-2.67 0 .35-.5-.7-1.17-2.42-.62-1.66-1.8-3.88-2.6-4.94l-1.5-1.9-.8 1.55-.82 1.55-1.93-2.52c-1.07-1.4-2.4-2.77-2.9-3.02-.82-.45-.98-.24-1.23 1.37zm3.46 1.56c1.94 2.37 6.17 10.33 6.73 12.7l.3 1.26-.9-1.27c-1.63-2.32-6.07-6.3-8.77-7.86-1.32-.76-1.37-1-1-2.67.2-1 .5-2.42.7-3.23.15-.75.46-1.36.66-1.36.2.06 1.2 1.12 2.28 2.43zm7.1 4.9c1.46 3.06 1.77 4.98.95 6.24-.66 1.05-4.84-7.7-4.43-9.32.3-1.1.46-1.2 1.17-.6.46.34 1.48 2 2.3 3.67zm-9.03 1.6c3.26 2.17 6.57 5.44 7.44 7.4.44.9.3 1.62-.52 3.23-1.38 2.67-2.14 8.16-1.63 11.8.2 1.6.2 2.9 0 2.9-.67 0-4.33-4.67-6.02-7.6-3.36-5.9-5.75-15.5-4.94-19.8l.35-1.9 1.12.95c.6.56 2.5 1.92 4.18 3.03zm30.77 0c-.26 1.36-.56 3.68-.7 5.2-.32 2.7-.37 2.8-3.33 4.63-1.7 1.05-3.98 3.07-5.2 4.63-1.17 1.5-2.3 2.66-2.5 2.5-.25-.1-.56-1.3-.76-2.6-.16-1.32-.67-3.13-1.02-4.1-.66-1.5-.6-1.8.35-3.16 2.14-2.98 11.2-9.48 13.25-9.48.15 0 .1 1.06-.1 2.37zm-27.36 24.64c1.9 1.9 3 3.42 2.85 3.98-.1.7-.65.4-2.74-1.56-2.8-2.63-5.04-6.06-5.55-8.53-.3-1.3-.14-1.2 1.03.76.7 1.26 2.7 3.68 4.43 5.34zM369.37 280.46c-5.5 3.68-10.15 11.34-11.56 17.5-.1 1.55-1.76 2.86-1.5 2.7.2.76 1.77-.03 2.47-2.5 1.34-4.72 5.04-13.16 9.88-16.54 1.48-1 2.96-1.86 3.2-1.86.27 0 .37 1.9.27 4.38-.1 3.38-.46 5-1.38 6.85-1.53 3.07-5.65 7.6-8.56 9.26-2.44 1.42-2.64 2.02-.4 1.16 2.5-.95 8.4-7.05 9.98-10.33.82-1.67 1.48-3.33 1.48-3.68 0-.36.6-.9 1.43-1.2 1.83-.72 10.95-2.98 11.15-2.73.4.4-3.48 8.55-4.75 10.2-1.94 2.48-6.58 6-8.87 6.7-1.07.3-3.37 1.56-5.07 1.87-1.86.34-2.4.37-4.58.6l-1.8 1.07 1.8-.3c.96-.15 3.4-.45 5.34-.65 5.6-1.96 7.75-3.17 11.43-6l2.38-2 4.58.23 3.72.3-1.73 2.07a481.35 481.35 0 0 0-3.97 4.83c-1.18 1.5-2.86 3.13-3.72 3.63-2.45 1.4-7.8 2.57-12.28 2.57-4.08.05-4.18 0-6.22-1.8-2.1-1.88-2.9-2.23-3.2-1.42-.06.26-1.84 1-3.83 1.77-3.97 1.36-4.84 1-2.55-1.1.87-.82 1.78-.8 3.6-.9 0 0 3.87.84 3.9.05.04-.78-3.83-.72-3.83-.72-1.8.1-2.23.04-.8-1.8 1.66-1.06 2.32-3.1 1.4-2.66-2.22 2.7-3.66 3.76-7.02 7.03-3.2 2.22-3.6 2.37-8 3.58-2.8.65-7.43 1.4-10.18 1.76-5.34.6-7.6 1.96-2.45 1 2.6-.46 5.96-.84 10.24-1.6 6.17-1.5 6.58-1.6 9.63-3.22 2.48-2.56 2.88-2.86 1.57-.76-.46 1.56.3 1.5 5.2-.35 3.87-1.5 3.97-1.5 4.94-.55.97.95.92 1-1 1.8-4.14 1.72-12.2 3.94-20.4 5.55-4.68.96-8.65 1.87-8.8 2.07-.4.4 5.55-.25 6.82-.8.56-.2 4.8-1.32 9.43-2.38 4.63-1.1 9.93-2.62 11.82-3.37 3.16-1.27 3.67-1.32 6.37-.82 3.4.6 9.06.05 13.2-1.3 3.15-1.02 5.34-2.88 8.55-7.37 1.3-1.85 3-3.8 3.7-4.32l1.33-.96-4.48-.3c-2.44-.15-4.6-.4-4.7-.55-.1-.1.17-.9.62-1.77.4-.85 1.48-3.42 2.3-5.64l1.53-4.13-1.8.35c-.96.15-2.6.46-3.55.6l-1.8.36.78-1.86c.4-1 .66-1.82.5-1.82-.1 0-.55.8-.96 1.77-.87 1.96-1.9 2.36-1.53.6.15-.8 0-.66-.6.5-.52.9-1.5 1.82-2.2 2.12-.72.25-1.73.6-2.3.8-.86.4-.9.16-.7-3.42.1-2.47 0-3.88-.36-3.88-.3 0-1.7.76-3.1 1.7zM321.78 313.87c-2.95.25-8.9 1.16-18.85 2.77-5.2.8-9.68 1.5-10.03 1.56-.36 0-.5.2-.4.4.14.2-.57.5-1.54.66-2.24.45-4.84 2.57-4.84 4.03 0 1.45 1.68 2.96 2.9 2.66.82-.2.77-.25-.1-.3-2.24-.1-3.1-2.72-1.37-4.23 1.42-1.3 8.15-3.28 11.97-3.58 4.84-.4 18.8-2.32 19.4-2.72.32-.15 2.15-.56 4.14-.9 3.36-.56 2.7-.76-1.28-.36zM313.38 318.76c-9.17 1.76-14.88 3.22-17.63 4.63-3.57 1.75-3.06 1.9.76.2 1.8-.8 4.85-1.72 6.8-2.02 1.88-.3 6.1-1.1 9.3-1.77 3.22-.64 7.15-1.4 8.67-1.65l2.8-.45-2.3-.05c-1.26 0-5.03.5-8.4 1.1z"/><path fill="#fff" d="M353.55 305.38c-1.6.96-3.23 2.86-1.45 2.57 1.35-.12 6.4-1.66 6.8-2.66-1.93.16-3.52-.3-5.35.08z"/><g stroke="#d4af37" stroke-width=".904"><path fill="#fff" d="M360.32 315.73c-.9.27-1.48.53-5.4.26-2.7-.2-6.07-.66-7.82-.7-3.3-.05-3.33.2-9.24 4.15-4.16 2.78-9.53 2.58-13.5 1.7-2.4-1.07-3.45-1.3-3.1-.72.68 1.07 5.37 2.57 7.97 2.57 4.2 0 7.3-1.03 12.35-4.13 3.9-2.43 5.63-2.66 11-1.44 6.32 1.23 7.26.7 12.43-1.58-1.53-.05-1.9 0-2.4.2.88-.95.9-1.84 1.1-2.44.24-.33-.44.12-1.27.7-.83.56-1.8 1.25-2.1 1.43z"/><path fill="#d91023" d="M352.17 314.2c-2.9-.44-4.9-.83-6.72-.63-2.03.22-3.48 1.2-5.9 2.7-2.4 1.52-4.58 2.62-4.85 2.62-.32 0-3.43.7-5.8.7-1.12 0-3.53-.72-5.14-1.3-3.4-1.26-4.64.77-1.1 2.26 3.14 1.05 6.32 1.46 9.3 1.03 2.97-.45 5.73-1.73 8.02-3.4 4.54-3.28 1.88-1.7 3.7-2.45 1.8-.75 3.47-.5 3.47-.5 2.38.1 7.08.86 9.45.9 4.34-.38 3.6-.4 5.03-1.2.5-.27 2.07-1.3 2.17-1.53.1-.23.83-1.58.7-1.63-4.45 3-6.68 2.98-12.33 2.4zM344.43 317.46c-.62.27-2.5 1.35-4.25 2.34-3.67 2.2-7.12 3.25-11.16 3.3-1.84.27-7.8-2.1-6.9-1.84.97 1.77 2.36 2 5.77 2.63 2.37.44 3.9.07 6.58-.5 3-.35 4.2-1.68 5.33-2.5 2.6-1.87 7.1-3.12 8.35-3.12.58 0 2.83 1.2 5.3 1.73 2.46.53 3.66.67 6.2.27s5.2-2.46 7.66-4.05c-.4.12-1.26.12-2.45.16-3.5 2.03-9.46 2.8-12.6 1.42-3.17-.77-6.25-.56-7.82.16z"/></g><path fill="#00a854" d="M276.42 176.35c-6.47 2.13-13.3 7.25-17.54 13.13-.93 1.27-1.75 2.23-1.85 2.13-.05-.1.4-2.68 1.13-5.72.72-3.04 1.28-6.1 1.23-6.8 0-1.16-.1-1.1-2.06 1.02-2.46 2.74-5.7 8.77-6.92 12.93-.67 2.23-.93 4.72-.93 9.33l.04 6.34-1.23-4.46c-1.27-4.77-2.6-8-3.94-9.7-.66-.85-.87-.9-1.33-.24-.97 1.47-.3 7.76 1.34 12.42.15.56-.47-.25-1.4-1.77-.96-1.52-2-2.7-2.25-2.54-.6.32-.66 5.3-.05 7.37.46 1.47.46 1.47-1.28-.5-2.88-3.3-3.55-3.56-3.55-1.28 0 .85.36 2.37.77 3.4.4.95.77 1.87.77 1.92 0 .05-.73.25-1.65.45-2.26.46-2.97 1.17-2.97 3.05 0 2.02 1.38 6.74 2.1 7.2.77.45 1.02 0 1.7-2.94l.6-2.64 1.9 2.43c2.72 3.55 6.77 11.67 8.82 17.7 2.16 6.44 2.26 7.7.26 3.76-.82-1.58-2.26-3.96-3.13-5.28-1.95-2.74-12.66-13.84-13.38-13.84-.77 0 0 3.45 1.38 6.35.67 1.42 2.67 4.2 4.36 6.23 1.73 1.98 3.02 3.65 2.86 3.65-.15 0-1.38-.8-2.66-1.77-2.62-1.98-5.3-3.5-5.64-3.2-.1.16.92 2.3 2.3 4.82l2.46 4.62-1.64-.26c-.92-.15-2.15 0-2.77.3-.9.52-1.06 1.07-1.06 3.5 0 3.25.82 6.7 1.6 6.7.7 0 2-3.2 2-4.92 0-1.37.04-1.32 2.6 1.12 3.64 3.55 8.52 9.58 13.34 16.58l4.05 5.94-4.77-3.55c-4.57-3.34-13.95-8.57-15.5-8.57-.4 0-.76.2-.76.46 0 .24 3.03 3.3 6.72 6.8l6.67 6.33-3.5-1.17c-1.9-.6-4.3-1.27-5.28-1.47-1.75-.37-1.75-.26 2.15 3.34 2.15 2.02 6.05 5.02 8.72 6.7 2.6 1.6 4.3 2.78 3.73 2.63-4.66-1.32-11.54-2.44-11.54-1.83 0 .7 3.53 3.5 6.04 4.77 1.4.67 4.88 2.1 7.8 3.05 5.95 2.08 9.54 3.96 12.56 6.6l2.05 1.82-3.6-1.57c-4.1-1.83-15.22-5.53-16.5-5.53s3.85 5.02 8.82 8.72c4.57 3.4 13.23 7.7 19.5 9.73 5.22 1.67 9.63 2.54 17.94 3.6 3.7.46 7.2 1.02 7.85 1.27.62.3 5.13.96 10 1.52 14.26 1.67 24.67 4.1 30.77 7.2 1.64.8 3.44 1.12 7.18 1.32 5.54.25 5.8.1 4.2-2.94-1.33-2.54-3.7-3.85-8.7-4.77-2.53-.5-6.68-1.32-9.24-1.82-5.4-1.1-15.75-2.94-28.87-5-14.12-2.3-20.22-4.73-26.83-10.66-9.8-8.73-14.93-22.88-13.34-36.87.36-3 .57-5.48.46-5.58-.47-.42-3.75 6.33-4.62 9.37l-.92 3.35.2-5.38c.36-8.37 3.5-16.18 8.2-20.7 1.03-.95 1.85-1.92 1.85-2.12 0-.2-.96-.1-2.14.2-1.54.36-3.03 1.32-4.87 3.2l-2.68 2.63 1.23-2.38c1.9-3.75 5.18-7.5 8.3-9.58l2.93-1.9-1.7-.14c-3.37-.36-9.48 4.05-12.86 9.33-1.95 3.08-1.95 2.12.05-2.6 1.9-4.6 4.82-9.13 8-12.47 1.8-1.88 2.1-2.5 1.44-2.5-2.66 0-7.18 3.46-10.92 8.38-1.07 1.48-1.07 1.38.16-1.5 1.53-3.46 3.9-7.32 6.1-9.75 1.6-1.83 1.13-2.08-1.54-.86-2.4 1.15-6.3 5.47-8.56 9.62-1.08 1.93-1.85 3.05-1.7 2.5a60.9 60.9 0 0 0 .77-3.3c1.9-8.43 6.53-16.64 12.78-22.68 2.4-2.28 3.03-3.2 2.36-3.2-1.95 0-6.5 2.6-9.54 5.43-3.13 2.95-3.18 2.95-1.95.92 4.3-7.26 10.77-13.86 18.2-18.57 2.37-1.53 4.32-2.9 4.37-3.05 0-.76-7.8 1.58-11.34 3.35-.82.46-2.77 1.83-4.4 3.14-2.47 1.98-2.72 2.13-1.8.82 1.74-2.45 7.64-7.67 10-8.9 1.74-.9 1.95-1.16 1.08-1.3-2.36-.36-8.93 3.1-14.05 7.35l-2.25 1.92 1.23-2.03c4-6.54 8.92-11.76 14.72-15.5 2.05-1.33 4.05-2.5 4.4-2.65.3-.1.52-.37.37-.52-.16-.15-2 .26-4.06.97zM353.5 321.4c.7.75 1.32 1.56 1.32 1.77 0 .25-1.13.45-2.56.45-2.46 0-2.57-.05-2.57-1.42 0-2.6 1.64-2.9 3.8-.8z"/><path fill="#9eab05" d="M350.25 320.48c-1.23 1.17-1.02 3.1.36 3.45 2.16.56 5 .36 5-.4s-3.3-3.86-4.12-3.86c-.25 0-.82.36-1.23.8z"/><path fill="#cab313" fill-opacity=".502" d="M279.08 175.47c-5.42.94-10.15 4.17-14.3 7.62-.58.52-.9.83-.92.9-.3.35-3.05 2.8-4.75 5.16-.8.95-1.95 2.57-2.54 3.55.12-.95.85-3.84 1.58-7.1.82-3.85 1.2-7 1.08-7.14-.5-.46-4.23 4.4-6.08 8.12-2.73 5.35-3.53 9.03-3.53 16.66l-.04 6.35-1.25-4.83c-1.33-5.04-3.63-10.3-4.7-10.6-.37-.1-.78.63-1 1.7-.3 1.68 0 3.3 2.15 11.95.16.7-.4.06-1.28-1.47-1.95-3.4-2.62-4.18-3.2-3.83l1.4 2c.77 1.12 2.16 3.77 3.08 5.9 2.52 5.96 6.3 18.58 5.67 19.2-.16.1-.47-.32-.72-.98-.26-.66-.97-2.6-1.6-4.27-.6-1.68-2-4.7-3.07-6.68-2.42-4.44-4.17-9.32-4.53-12.68l-.28-2.47c-.7.55-.42 3.5.6 6.74.5 1.72.9 3.1.85 3.1-.1 0-1.22-1.43-2.56-3.1-1.84-2.35-2.57-2.96-2.93-2.45-.46.76-.2 2.28.9 5.13l.68 1.94h-1.7c-.92 0-2.1.3-2.6.66-.88.6-.93 1.02-.42 3.72.6 3.33 1.42 5.78 2.06 5.82 1 .06.97-1 1.5-3.9.2-.84.55-1.36.62-1.84.22.3.53.68.98 1.14 4.33 5.9 8.22 13.96 10.02 19.4 1.44 4.33 4.12 15.72 3.8 16.03-.1.15-.73-1.78-1.3-4.27-2.05-8.65-4.96-13.77-13.97-22.62 0 0-3.1-3.7-5.58-5.13.04 2.08.47 2.44.47 2.44.62 3.15 2.2 5.9 6.95 11.45 2.1 2.5 3.8 4.7 3.8 4.9 0 .16-1.18-.78-2.68-2.1-2.72-2.4-6.95-5.12-7.36-4.72-.15.1.86 2.34 2.25 4.94 1.76 3.25 2.3 4.58 1.74 4.38-2-.82-2.75-.82-4.03 0-1.33.86-1.33.94-1.02 4.4.15 1.94.58 4.03.9 4.64.6 1 .6 1.02 1.2-.2.37-.66.78-2.1.98-3.16.2-1.02.52-1.88.67-1.88.17 0 2.78 2.7 4.06 3.96a80.88 80.88 0 0 0 1.7 2.13c3.04 3.73 11.43 14.43 13.6 17.84l1.07 1.77-1.75-1.34c-5.8-4.98-15.34-10.55-18.94-11.62-1-.3-1.28 0-.8.53-.02 0-.05 0-.06 0 2.47 3.34 9.73 9.43 11.64 11.03 1.9 1.6 1.88 2.2 1.83 2.3-.1.05-1.44-.57-3.7-1.33-5.82-2.03-7.33-2.08-6.56-1.16.36.4 1.23.7 2.06.76 2.98.05 10.55 3.36 15.8 6.87 3.4 2.3 11.53 10.02 12.6 12.06.58 1.1.38 1-1.68-.68-2.78-2.24-10.5-6.62-11.1-6.26-.22.15-2.03-.2-3.98-.7-2-.5-5-1.07-6.7-1.27l-3.03-.37 1.82 1.64c2.37 2.13 6.33 4.05 12.92 6.34 2.93 1.03 6.28 2.4 7.4 3.06 2.48 1.43 7.57 5.4 7.32 5.66-.1.1-1.98-.6-4.14-1.58-3.66-1.68-12.7-4.83-15.9-5.54-1.17-.26-.77.24 2.32 3.3 2.05 1.93 5.56 4.8 7.83 6.32 10.9 7.17 20.8 10.33 39.22 12.47 2.92.35 5.12.8 4.96 1.04-.15.26 4.48.94 9.47 1.5 13.38 1.58 21.73 3.4 29.4 6.46 3.34 1.37 5.3 1.82 8.85 2.02 3.4.2 4.56.16 4.56-.3 0-1.17-1.47-3.46-3.22-5-1.55-1.3-2.57-2.1-8.64-3.12-3.8-.6-7.23-1.44-7.7-1.7-.46-.25-8.1-1.32-16.8-2.74-19.1-3.05-24.96-4.43-30.06-6.88-12.6-6.1-21.2-19.4-21.9-34.82-.17-3.1-.07-7.16.24-9.14.3-1.94.52-3.62.4-3.72-.45-.46-4.34 7.3-4.96 10.3l-.25 1.93-.2-3.5c-.04-7.93 2.5-14.85 6.8-20.65 0 0 2.84-2.8 3.24-3.55 0-.02 0-.05 0-.08.03-.04.03-.07 0-.08 0-.02 0-.04-.04-.03 0 0-.02-.02-.03-.03-2.04-.62-4.23 1.05-7.2 3.7-1.83 1.85-2.1 2.3-2.2 2.16.13-1.33 5.46-9.42 6.54-9.42.2 0 1.52-1.54 2-2 .62-1.58-3.2 1.92-5.86 5.68-6 8-7.36 16.08-7.05 26.87.1 3.3-.14 5.9-.2 5.9-.25 0-1.8-3.86-2.58-6.36-1.95-6.3 1.05-19.47 6.14-26.14.9-1.12 3-3.55 3.35-4.1.72-1.38-3.52 3.4-5.06 5.73-.36.7-.84 1.14-.93.97-.08-.16.2-.92.6-2.16 1.9-5.54 5.18-11.27 9.35-15.74 1.54-1.68 1.6-1.66.3-1.3-3.03.86-5.77 3.2-8.75 6.6-.72 1.1-1.37 1.7-2.2 2.65.3-1.4 2.97-7.02 5.23-10.17 1.4-1.88 2.72-3.16 2.67-3.58-.06-.42-1.5.03-3.58 1.58-3.15 2.3-4.94 4.7-7.63 9.1-1.23 2.5-1.05 1.8-1.47 2.24 1.4-7.02 2.38-10.33 4.7-14.9 2.1-4.14 4.17-6.92 8.14-11.05 2.77-2.85 3.33-3.66 2.36-3.35-3.04.9-6.26 2.95-9.2 5.85-1.7 1.73-2.4 2.25-2.4 2s.84-1.68 2.54-4.28c3.6-5.5 8.8-11.2 14.1-14.73 2.64-1.78 6.78-3.74 6.32-4.04a.5.5 0 0 0-.23-.06c.28-.45-1.17-.13-4.86 1-3.65 1.12-7.56 3.3-11.52 6.35-1.54 1.43-1.23.25 2.52-3.47 2-2.03 5.1-4.5 6.64-5.38 2.58-1.52 2.38-1.88.73-1.52-3.86.76-11.28 4.98-13.44 7.68-.02 0-.03 0-.04.03-.1.03-.17.04-.3.1-1.17.72-2.3 2.34-2.03 1.64s.86-1.28 2.22-3.5c4.17-6.7 9.7-11.62 16.75-15.8 1.74-1.04 1.8-1.56.58-1.43zm-38.86 27.08c.02 0 .04-.02.06-.03l-.06-.05v.08zm34.8-25.17c.07 0 .12.03.15.05.1.16-.55.72-1.53 1.28-1.9 1.23-8.33 7.55-10.4 10.3-2.6 3.4-5.68 8.94-7.32 13.22-.93 2.4-1.64 3.95-1.64 3.55-.05-1.12 1.4-8.64 1.97-10.62.17-.54.26-1.05.3-1.44.26-.15.67-.6 1.34-1.66a42 42 0 0 1 2.6-3.52c1.15-1.42 4.74-5.17 4.64-5.26 0-.02-.07 0-.1.02.34-.25.7-.52 1.24-.9 3.38-2.5 7.82-5.03 8.75-5zm-16.9 2.74c.03 0 .06.02.08.06.1.3-.54 4.73-1.73 9.87-2.36 10.84-4.1 19.34-4.6 25.14-.37 3.56-.48 3.87-.8 2.3-.24-.97-.53-5.92-.73-10.96-.36-9.97.03-12.88 2.6-18.43 1.45-3.2 4.6-7.94 5.17-7.98zm13.85 8.35c.16 0-1.22 1.37-3.02 3.1-7.36 6.82-12.72 16-15.8 27.2l-.98 3.55.3-3.3c.16-1.83.53-4.7.9-6.38.46-2.03 1.55-5.4 2.66-8.4 1.1-3 2.16-5.56 4.42-7.82.5-.5 1.52-1.44 1.77-1.85.54-.4 1.35-.97 2.8-2.1 2.07-1.64 6.18-4 6.95-4zm6.1 2.58c.23-.02.35.02.35.16 0 .1-1.35 1.05-2.95 2.12-3.9 2.54-11.16 10.03-13.9 14.06-2.46 3.66-6.2 10.86-7.8 15.44-1.43 4.22-1.34 1.95.2-4.1 1.4-5.35 4.85-13.3 7.45-17.17.48-.7.77-1.13 1.47-2.08.7-.78.9-1.17 1.16-1.02.25.15 1.43-.56 2.66-1.58 2.7-2.27 9.65-5.74 11.34-5.82zm-34.5 3.8c.14-.05.32.17.62.6.36.5 1.34 2.85 2.22 5.24 2.36 6.6 5.5 24.3 4.53 25.28-.16.2-.3-.14-.3-.7 0-.56-1.15-4.6-2.54-8.92-4-12.32-5.4-18.4-4.88-20.6.16-.56.24-.87.36-.92zm26.5 10.92c.12 0-1.02 1.23-2.5 2.66-6.9 6.97-11.43 16.44-13.12 27.64-.42 2.8-1 5.3-1.25 5.54-.2.22-.6-.9-.8-2.54-.68-5.3 1.12-13.9 4.2-20.2.68-1.38.75-1.98 1.3-2.84.35-.3.7-1.02 1.32-1.85 2.3-2.53 6.1-6.3 8.56-7.43 1.18-.5 2.2-.97 2.3-.97zm-33.35 1.27l1.03 1.28a84.54 84.54 0 0 1 3.14 4.32c2.15 3.16 7.8 14.3 8.38 16.55.2.7-.5-.4-1.58-2.45-1.08-2.03-3.46-5.64-5.3-8.04-4.18-5.48-5.68-8.15-5.68-10.13v-1.53zm-1.16 7.4c.16 0 .35 0 .55 0 1.5 0 4.65 2.8 7.48 6.6 3.25 4.38 7 13.6 8.8 21.38.88 3.97 2.37 14.15 2.37 16.44v1.63l-.83-1.53c-.47-.87-1.12-3.43-1.53-5.77-1.2-6.72-3.05-13.22-5.32-19.02-2.26-5.75-7.1-13.9-9.27-16.05-.32-.3-.58-.5-.74-.55-.35-.58-1.1-1.17-1.45-1.47-1.1-1.02-1.16-1.54-.04-1.66zm-2.53.86l1.22.75c1.7 1.2 2.37 1.7 1.97 3.25-.22 1.52-.47 2.98-.77 3.43-.36.72-.8.2-1.2-1.44-.3-1.13-.65-2.96-.86-4.03l-.37-1.97zm33.8 6.8c.15 0 .12.2-.1.55-.48.4-1.64 1.9-2.26 2.77-3.3 4.43-8.07 16.65-9 23.68-.5 3.66-1.14 2-1.2-3.05-.1-7.28 3.16-15.42 8.15-20.46 2.04-2.1 3.97-3.54 4.4-3.5zm-34.33 3.18c.48.1 1.93 1.5 5.36 4.94 3.2 3.26 6.6 7.16 7.6 8.8 1.94 3.3 4 8.14 4.5 10.63.27 1.43-.25.86-3.18-3.16-1.96-2.65-4.7-6.2-6.14-7.88-5.56-6.4-7.6-9.57-8.28-12.73-.1-.42-.08-.66.14-.62zm38.06 1.36c.1 0-1.15 1.53-2.7 3.4-1.54 1.95-3.64 5.1-4.66 7.08-2.06 4.07-5.12 13.3-6.2 19.05-1.13 5.9-1.23 5.8-.97-.78.46-12.63 5-22.84 12.05-27.32 1.3-.76 2.37-1.44 2.48-1.44zm-37.53 9.07l1.55.8c.88.47 2.97 1.96 4.6 3.34 1.7 1.42 3.25 2.4 3.46 2.2.26-.2.32-.18.17.13-.15.25 1.15 2.45 2.95 4.8 3.45 4.47 7.25 11.53 9 16.52.57 1.67.96 3.1.86 3.15-.04.1-1.58-2.24-3.38-5.2-3.9-6.45-8.54-12.2-11.83-14.8-1.8-1.42-3.15-3.17-4.95-6.42l-2.42-4.52zm40.55 6.72h.1c-.93.75-2.87 2.96-2.87 2.96-2.57 2.8-5.5 8.04-6.58 12.67-1.18 5.3-.8 18.9.75 24.6.57 2.08 1 3.85.9 3.9-.37.36-3.4-8.13-3.98-11.03-.9-4.43-.83-14.82 0-18.33.97-3.98 3.18-8.6 5.18-10.85 1.75-1.98 4.96-3.93 6.5-3.93zm-39.38 1.74c.77.04 1.68.45 3.1 1.36 5.5 3.46 12.45 12.62 20.48 26.92 6.43 11.55 10.14 20.26 4.9 11.56-7.47-12.32-19.62-28.75-24.4-33.74-.5-.52-.75-.72-.8-.7l-.1-.13c-.66-.8-2.65-2.43-3.57-3-2.05-1.27-2.1-1.78-.35-2.18.24-.07.5-.1.75-.1zm-1.95 2.33c.4 0 1.03.3 1.33.7.62.78.28 4.68-.5 5.14-.56.4-.83-.18-1.25-3.2-.3-2.12-.2-2.65.42-2.65zm36.08 13.74s-.06 2.68-.1 6c-.47 14.14 4.43 26.05 14.16 34.7 5.8 5.14 12.38 7.95 22.88 9.73 3.5.6 6.7 1.12 7.1 1.28.42.15 5.26.65 4.95 1.16-.15.2.3.33 1.03.18 2.06-.36 8.44 1.03 10.14 1.08 2.62.05 19.75 3.6 23.72 5 1.4.57 4.42 4.07 4.42 5.14 0 .3-1.6.42-4.47.17-3.5-.25-5.3-.7-8.5-2.13-6.64-2.96-15.9-5.06-27.17-6.08-5.8-.5-24.66-3.8-30.1-4.88-6.75-1.37-11.6-3-17.76-6-6.6-3.22-10.3-5.7-14.42-9.58l-3.33-3.18 2.82.8c8.3 2.4 14.98 5.4 23.42 10.64 6.64 4.13 8.84 5.2 12.44 6.1 3.3.87 4.28.92 4.28.36 0-.2-1.7-.9-3.8-1.52-14.36-4.43-25.17-19.24-25.17-34.46 0-2.54.24-5.6.6-6.87.52-2 2.63-7.63 2.83-7.63zm-33.38 1.64c.25.1.5.2.75.25 3.03.46 15.24 8.18 19.36 12.3 1.44 1.43 3.4 4.04 4.33 5.72l1.63 3.1-2.83-2.3c-1.6-1.27-4.5-3.26-6.4-4.38-2-1.17-6.26-4.94-9.97-8.45-2.6-2.45-5.42-5.08-6.88-6.24zm8.4 21.43c.23 0 .6.05 1.15.15.98.15 3.6.7 5.86 1.27 8.13 1.88 17.87 8.03 22.8 14.4l2.23 2.84-2.3-1.16c-1.22-.6-2.2-1.27-2.1-1.47.3-.5-4.83-4.8-7.6-6.26-1.4-.77-5.3-2.34-8.76-3.6-6.28-2.25-10-4.1-11.22-5.53-.36-.44-.42-.62-.06-.63zM272.2 234.2c-1.12.4-2.85 2.04-3.97 2.87-2.26 1.67-2.56 2.28-.42.77 1.6-1.1 4.26-3.1 6.65-3.4.22-.03-.95 1.14-1.57 1.8-.84.95-.62.9 1.35-.38 1.3-.84 2.36-1.62 2.36-1.73 0-.44-2.43-.65-4.4.07zm-34.7 37.95c0 1.28 15.78 12.9 16.5 12.2.1-.1-1.95-1.52-4.63-3.15-2.62-1.58-6.02-4.33-7.77-5.85-1.7-1.53-3.85-4-4.1-3.2z"/><g stroke="#d4af37" stroke-width=".904"><path fill="#fff" d="M287.94 315.66c-3.26 1-7.65 1.17-9.75.4-.77-.26-3.1-.12-3.7-.03 2.13 1.4 1.27.8 1.7 1.1.76.45.44.36 1.82.96-.24.25-.35.36-1.43.74 1.42.33 3.2.47 4.93.4a22.06 21.66 0 0 0 5.2-.86c2.25-.62 4.66-1.03 5.37-1.03.67 0 3.18.73 5.6 2 5.08 2.76 8.64 3.47 12.22 3.47 2.46 0 5.02-.54 7.93-2.4 2.16-1.4.34-1.35-1.8-.43-2.95 1.16-9 1.68-16.03-1.87-4.25-2.15-7.56-3.4-8.72-3.32-.23 0-1.75.4-3.36.86z"/><path fill="#d91023" d="M272.28 314c.87.72.74.87 2.25 2.07 2.12.2 6.34.65 7.9.65 1.4 0 4.07-.24 5.9-.73 3.72-.78 5.5-.56 12.25 2.36 7.83 3.95 12.23 3.23 16.25 1.3 5.62-2.1.16-1.2-1.88-1.78-.67.23-1.53 1.08-3.13 1.65-2.23.8-3.43.78-6.12-.57-1.7-.86-3.2-1.26-4.73-2.08-1.5-.85-1.87-.75-4.38-1.56l-3.7-.7-5.58-.3c-4.83.98-9.58.23-12.8-.76-3.23-1-3.8-.8-2.24.45zM286.86 318.3c-3.84 1.12-8.54 1.18-10.28.55-.9.36 0 0-2.3.8-3 .98-3.03 1.03-1.73 1.4.76.2 3.76.4 6.7.35 5.1 0 5.55-.1 8.37-1.44 1.66-.8 3.5-1.44 4.12-1.44.58 0 2.74 1.2 4.62 2.16 5.23 2.7 7.22 3.48 11.56 3.44 4.34-.05 9.94-3.1 10.64-4.14-3.33 2-6.1 3.02-10.3 2.85-4.23-.17-7.5-1.66-11.78-4.04-3.44-1.9-4.65-1.94-9.62-.5z"/><path fill="#fff" d="M302.5 302.6c1-.85 1.54-.8 2.66.53 2.94 3.27 9.66 6.7 14.7 7.5 2.56.4 2.98.78 1.3 1.2-1.76.44-8.74-1.1-12.02-2.64-2.93-1.34-6.72-3.98-7.3-5.2-.2-.35.02-.92.65-1.4z"/><path fill="#d91023" d="M299.72 304.63c.3-.2 2.25-.36 3.34.67 2.65 2.57 7.75 4.92 12.88 5.95 3.9.76 4.6 1.44 1.47 1.64-4.47.3-12.95-3.72-15.38-5.5-2.53-1.8-3.18-2.2-2.3-2.77z"/><path fill="#ed1c24" d="M304.17 301.2l1.1-.66 3.14 1.17c1.5 1.86 5.98 4.78 10.02 6.48 1.8.77 3.43 1.7 3.6 2.06.33.65.35.7-1.74.38-4.76-.73-11.5-4.07-14-7.03-.83-.95-2.85-1.6-2.1-2.4z"/><path fill="#fff" d="M338.8 303.5c-.96-.9-1.5-.9-2.7.38-3.15 3.08-10.08 6.1-15.17 6.57-2.58.23-3.02.58-1.36 1.1 1.72.55 8.8-.54 12.15-1.87 3.02-1.14 6.97-3.54 7.64-4.7.2-.36.03-.94-.56-1.47z"/><path fill="#d91023" d="M340.3 306.23c-.17-.13-1.07-1-2.25-.05-2.8 2.4-8.06 4.42-13.24 5.13-5.08.48-6.42 1.1-1.57 1.54 4.45.6 13.18-2.88 15.72-4.5 2.64-1.63 2.2-1.5 1.36-2.1z"/><path fill="#ed1c24" d="M337.2 302.03l-1.03-.74-3.22.96c-1.62 1.75-6.28 4.38-10.42 5.83-1.84.64-3.53 1.45-3.74 1.8-.37.64-.4.68 1.72.5 4.8-.43 11.75-3.33 14.42-6.13.9-.9 2.95-1.42 2.26-2.24z"/><path fill="#fff" d="M332.57 301.6c-3.8.94-6.9 3.2-10.16 7.36-1.28 1.64-2.48 2.46-1.66 2.9.9.47 1.75-.77 3.45-2.32 4.26-3.94 7.6-5.55 12.08-5.46l3.55.12-1-1.48c-1.25-1.78-2.67-2.02-6.26-1.12zm-30.06.44c-.78.84-.56 1.16 1.5 1.5 5.14.98 11.62 4.23 14.18 7.12 1.28 1.47 1.9 1.63 1.93.5.05-1.2-4.04-5.1-7.02-6.7-2.6-1.47-7.17-3.12-8.93-3.18-.52 0-1.2.26-1.64.76z"/><path fill="#d91023" d="M331.98 299.73c-1.02.3-2.47.9-3.27 1.25-2.15 1.1-5.52 4.72-6.03 5.4-.54.75-1.32 1.6-1.86 2.4-.8 1.2-.93 1.85-.56 1.94.38.08 1.28-.4 2.15-1.53 3.74-4.83 7.1-6.94 12.02-7.75 2.55-.4 2.92-.4 3.77.5.66.66-.2-.14-.33-.58-.3-1.07-1.1-1.63-2.64-1.97-.74-.12-2.22-.02-3.25.33zM304.18 301.07c-.15.23 1.07.7 2.66 1.08 3.96.93 8.33 3.36 11.08 6.1 2.07 2.12 3.1 2.36 2.46.48-.88-2.7-8.32-6.7-11.23-7.7-2.95-1.04-4.52-.62-4.97.04zm28.8 3.28c-2.93.92-5.9 2.62-8.27 4.72-2.42 2.2-3.53 3.6-2.6 3.63.18 0 1.64-1.05 2.64-1.84 4.3-3.4 11.94-5.14 15.27-3.83 1.6.63.9-1.14-.15-2.77-.66-1.04-4.76-.57-6.86.1zm-31.6-1.15l-2.02 1.77 2.92.56c3.02.47 8.45 2.6 12.07 4.76 1.63.94 3.4 1.76 3.97 1.78 1 .03 1.06.03-.03-1.24-2.53-2.9-9.26-6.37-14.1-7.2-1.56-.28-1.98-1.13-2.8-.44zM322.07 311.6c-1 3.18-.86 6.1-.58 8.28.95-.12 1.58-.14 3.13-.43.16-1.28.4-2.77.34-4.34.2-2.16 0-1.03 1.3-2.76-1.42-.9-1.8-.97-4.2-.73z"/><path fill="#fff" d="M317.13 315.26c-.05 2.46.2 3 .16 4.17 1.4.23 4.4.63 4.23.13 0 .54-.04-2.87 0-4.67l.5-3.24-2.13-.32-1.92.23-.85 3.7z"/><path fill="#d91023" d="M314.03 315.37c.1 1.96-.3 2.63-.07 3.77.62.2 3 .1 3.74.33-.1-2.54-.1-.32-.36-3.64l.76-4.26-2.14.17s-1.33-.4-2.23-.42c.78 1.33.3 4.05.3 4.05z"/></g></svg>