<svg xmlns="http://www.w3.org/2000/svg" width="640" height="480" xmlns:xlink="http://www.w3.org/1999/xlink"><path fill="#0038a8" d="M0 0h640v240H0z"/><path fill="#ce1126" d="M0 240h640v240H0z"/><path fill="#fff" d="M415.7 240L0 480V0"/><g fill="#fcd116" transform="translate(149.333 240) scale(5.333)"><circle r="9"/><g id="d"><g id="c"><g id="b"><path d="M-19 0l1.18 1.18L0 0l-17.82-1.18z"/><path id="a" d="M-17 2.23l.96.96L0 0z"/><use width="100%" height="100%" xlink:href="#a" transform="scale(1 -1)"/></g><use width="100%" height="100%" xlink:href="#b" transform="rotate(45)"/></g><use width="100%" height="100%" xlink:href="#c" transform="rotate(90)"/></g><use width="100%" height="100%" xlink:href="#d" transform="scale(-1)"/><g transform="translate(-2.02)"><g id="f" transform="translate(37.962)"><path id="e" d="M5 0L1.62 1.18l-.07 3.58L-.62 1.9l-3.42 1.04L-2 0z"/><use width="100%" height="100%" xlink:href="#e" transform="scale(1 -1)"/></g><use width="100%" height="100%" xlink:href="#f" transform="rotate(120)"/><use width="100%" height="100%" xlink:href="#f" transform="rotate(-120)"/></g></g></svg>