<svg xmlns="http://www.w3.org/2000/svg" width="640" height="480"><defs><clipPath id="a"><path fill-opacity=".67" d="M-52.33 0h682.67v512H-52.33z"/></clipPath></defs><g fill-rule="evenodd" clip-path="url(#a)" transform="translate(49.063) scale(.938)"><path fill="#0c590b" d="M-95 0h768v512H-95z"/><path fill="#fff" d="M-95 0H97.52v512H-95z"/><g fill="#fff"><path d="M403.7 225.4l-31.16-6.56-16.4 27.3-3.4-31.66-31.02-7.15 29.06-13-2.8-31.73 21.37 23.62 29.3-12.46-15.85 27.6 20.9 24.04zM415.45 306.1c-27.66 60.95-100.27 87.57-161.4 59.26-61.15-28.33-87.78-100.93-59.46-162.08 14.44-31.18 38.08-52.6 71.46-64.3-3.84 3.24-7.64 6.6-11.8 10.9-43.1 44.5-42 115.6 2.5 158.7 44.5 43.1 115.6 42 158.7-2.5z"/></g></g></svg>