<svg xmlns="http://www.w3.org/2000/svg" width="640" height="480" xmlns:xlink="http://www.w3.org/1999/xlink"><path fill="#f00" d="M256 0h384v480H256z"/><path fill="#060" d="M0 0h256v480H0z"/><g fill="#ff0" fill-rule="evenodd" stroke="#000" stroke-width=".573" stroke-linecap="round" stroke-linejoin="round"><path d="M339.46 306.18c-32.23-.97-180-93.2-181-107.9l8.15-13.6c14.67 21.3 165.73 111 180.57 107.8l-7.7 13.7"/><path d="M164.9 182.83c-2.9 7.78 38.56 33.4 88.43 63.73 49.87 30.33 92.87 49.08 96.05 46.4.2-.36 1.57-2.72 1.45-2.7-.6.9-2.06 1.18-4.32.53-13.47-3.9-48.6-20.03-92.13-46.42-43.52-26.4-81.38-50.7-87.26-61.05-.4-.7-.7-2.02-.63-3.04h-.15l-1.25 2.18-.17.35zM340.2 306.6c-.53 1-1.55 1.03-3.5.8-12.04-1.32-48.62-19.1-91.9-45-50.35-30.16-91.94-57.62-87.43-64.8l1.23-2.17.24.07c-4.06 12.17 82.08 61.42 87.15 64.56 49.83 30.88 91.85 48.9 95.56 44.22l-1.35 2.33zM256.18 207.18c32.25-.26 72.06-4.4 94.96-13.54l-4.94-8c-13.53 7.48-53.55 12.4-90.3 13.14-43.44-.4-74.12-4.44-89.48-14.75l-4.66 8.53c28.25 11.96 57.2 14.5 94.42 14.62M352.47 193.82c-.8 1.26-15.73 6.42-37.73 10.22-14.92 2.27-34.38 4.22-58.67 4.24-23.08.02-41.93-1.62-56.2-3.56-23.1-3.62-35.02-8.66-39.43-10.44.42-.84.7-1.42 1.1-2.2 12.7 5.05 24.67 8.1 38.7 10.25 14.18 1.92 32.8 3.6 55.76 3.57 24.18-.03 43.42-2.12 58.26-4.33 22.56-3.64 34.9-8.32 36.62-10.5l1.6 2.75zm-4.33-8.13c-2.45 1.96-14.63 6.28-36.07 9.7-14.3 2.05-32.5 3.9-55.75 3.9-22.1.03-40.13-1.45-53.85-3.45-21.78-2.85-33.37-7.98-37.55-9.47.42-.72.84-1.43 1.28-2.15 3.25 1.64 14.43 6.18 36.5 9.3 13.57 1.93 31.64 3.36 53.62 3.34 23.13-.03 41.12-1.9 55.34-3.94 21.55-2.96 33.15-8.47 34.9-9.85l1.58 2.6zm-197.87 60.34c19.84 10.67 63.9 16.04 105.6 16.4 37.96.07 87.42-5.85 105.9-15.66l-.5-10.67c-5.78 9.05-58.78 17.72-105.82 17.37-47.03-.36-90.7-7.62-105.26-17.03l.07 9.6M362.8 244.5v2.55c-2.78 3.32-20.2 8.34-42.07 11.88-16.64 2.55-38.32 4.48-65.35 4.48-25.67 0-46.14-1.82-62.02-4.26-25.1-3.66-41.15-10.06-44.38-11.97l.02-2.97c9.68 6.44 35.9 11.15 44.7 12.6 15.78 2.4 36.14 4.22 61.68 4.22 26.9 0 48.46-1.9 65-4.44 15.67-2.27 38-8.16 42.4-12.08zm0-9.06V238c-2.77 3.3-20.2 8.34-42.06 11.87-16.64 2.55-38.32 4.48-65.35 4.48-25.68 0-46.15-1.83-62.03-4.27-25.1-3.66-41.15-10.06-44.38-11.97v-2.96c9.7 6.44 35.9 11.15 44.72 12.6 15.78 2.4 36.13 4.23 61.67 4.23 26.9 0 48.46-1.9 65-4.45 15.67-2.27 38-8.16 42.4-12.08zm-107.02 68.9c-45.63-.27-84.72-12.44-92.97-14.45l6.03 9.42c14.58 6.13 52.7 15.27 87.38 14.26 34.68-1 64.98-3.7 86.34-14.1l6.17-9.76c-14.54 6.86-64.06 14.55-92.93 14.62"/><path d="M344.85 297.3a143.02 143.02 0 0 1-2.77 4.1c-10.07 3.54-25.94 7.27-32.63 8.35-13.68 2.82-34.85 4.9-53.63 4.9-40.4-.58-73.5-8.5-89.06-15.24l-1.26-2.15.2-.32 2.14.82c27.68 9.9 58.76 13.86 88.2 14.57 18.72.06 37.44-2.15 52.6-4.86 23.2-4.65 32.6-8.16 35.48-9.75l.73-.4zm5.35-8.83c.03.03.05.06.07.1a287.23 287.23 0 0 1-2.1 3.47c-5.36 1.92-19.94 6.18-41.23 9.16-14.02 1.9-22.74 3.76-50.64 4.3-52.28-1.33-86.13-11.55-94.17-14.07l-1.2-2.3c30.3 7.92 61.25 13.44 95.37 14 25.53-.54 36.4-2.42 50.3-4.3 24.82-3.87 37.33-7.96 41.08-9.14a2.85 2.85 0 0 0-.16-.22l2.7-1zM350.75 237.6c.15 30.02-15.2 56.96-27.58 68.84-17.5 16.8-40.7 27.62-67.8 28.12-30.27.55-58.8-19.17-66.45-27.84-14.97-16.95-27.15-38.46-27.54-67.46 1.85-32.76 14.7-55.57 33.35-71.22 18.64-15.65 43.46-23.27 64.13-22.72 23.85.63 51.7 12.33 70.96 35.55 12.6 15.22 18.07 31.73 20.93 56.74zm-95.13-102.75c58.12 0 105.92 47.3 105.92 105.28 0 58-47.8 105.28-105.92 105.28-58.12 0-105.52-47.28-105.52-105.27 0-58 47.4-105.28 105.52-105.28"/><path d="M255.9 134.5c58.17 0 105.62 47.44 105.62 105.6 0 58.18-47.45 105.63-105.62 105.63S150.3 298.28 150.3 240.1 197.72 134.5 255.9 134.5zM152.62 240.1c0 56.82 46.65 103.3 103.28 103.3 56.64 0 103.3-46.48 103.3-103.3 0-56.8-46.66-103.3-103.3-103.3s-103.28 46.5-103.28 103.3zM256 143.26c53.04 0 96.73 43.55 96.73 96.75 0 53.22-43.7 96.76-96.74 96.76-53.06 0-96.75-43.54-96.75-96.75 0-53.2 43.7-96.74 96.74-96.74zM161.56 240c0 51.94 42.65 94.44 94.42 94.44 51.76 0 94.4-42.5 94.4-94.43 0-51.92-42.64-94.4-94.4-94.4-51.78 0-94.43 42.48-94.43 94.4zM260.25 134.06h-9.05v212.22h9.1zM259.34 132.85h2.3l.02 214.67h-2.3l-.02-214.67zm-8.98 0h2.32v214.67h-2.32V132.85zM361.6 244.2v-7.85l-6.4-5.95-36.27-9.6-52.26-5.33-62.94 3.2-44.8 10.66-9.04 6.7v7.85l22.9-10.28 54.4-8.53h52.27l38.4 4.26 26.66 6.4zM255.95 223.75c24.94-.04 49.14 2.37 68.33 6.1 19.8 3.96 33.75 8.92 38.52 14.48v2.76c-5.76-6.94-24.52-12-38.96-14.9-19.05-3.72-43.1-6.1-67.9-6.06-26.17.04-50.54 2.52-69.3 6.2-15.07 2.97-35.16 8.9-37.67 14.77v-2.86c1.38-4.05 16.34-10.1 37.32-14.3 18.9-3.7 43.32-6.14 69.65-6.18zm0-9.06c24.95-.05 49.15 2.36 68.34 6.1 19.8 3.96 33.74 8.9 38.5 14.47v2.76c-5.75-6.92-24.5-12-38.95-14.9-19.05-3.7-43.1-6.1-67.9-6.05-26.17.04-50.42 2.53-69.2 6.2-14.53 2.74-35.43 8.9-37.76 14.77v-2.87c1.36-4 16.62-10.28 37.3-14.3 18.9-3.7 43.33-6.13 69.66-6.18zm-.5-46.2c39.3-.2 73.6 5.5 89.27 13.52l5.72 9.9c-13.63-7.35-50.62-15-94.94-13.84-36.1.22-74.7 3.97-94.05 14.3l6.83-11.42c15.9-8.24 53.36-12.42 87.17-12.47M255.97 176.66c22.42-.06 44.08 1.2 61.3 4.32 16.05 2.98 31.35 7.46 33.54 9.87l1.7 3c-5.32-3.48-18.56-7.34-35.56-10.57-17.07-3.2-38.72-4.27-61-4.2-25.32-.1-44.97 1.24-61.85 4.18-17.85 3.34-30.23 8.1-33.28 10.38l1.66-3.17c5.93-3.03 15.35-6.68 31.17-9.53 17.45-3.2 37.32-4.14 62.32-4.28zm0-9.05c21.44-.05 42.63 1.15 59.14 4.12 13.03 2.53 25.9 6.5 30.62 10l2.48 3.96c-4.2-4.7-20.08-9.13-34.1-11.62-16.4-2.83-36.7-3.95-58.14-4.13-22.52.07-43.32 1.45-59.47 4.4-15.4 2.92-25.35 6.4-29.56 9.1l2.18-3.3c5.8-3.05 15.18-5.86 27-8.15 16.26-2.96 37.2-4.3 59.84-4.37zM308.42 284c-19.44-3.62-38.9-4.14-52.5-3.98-65.5.76-86.66 13.45-89.24 17.3l-4.9-8c16.67-12.08 52.34-18.86 94.48-18.17 21.9.36 40.78 1.8 56.66 4.9l-4.52 7.96"/><path d="M255.55 278.9c18.22.26 36.1 1.02 53.37 4.23l-1.25 2.2c-16.03-2.95-33.13-4.08-52.06-4-24.16-.18-48.6 2.08-69.9 8.2-6.7 1.86-17.83 6.18-18.97 9.75l-1.24-2.05c.35-2.1 7.07-6.5 19.63-10.02 24.38-6.97 47.2-8.15 70.42-8.3zm.83-9.18c18.88.35 38.37 1.23 57.32 4.98l-1.3 2.3c-17.1-3.4-33.46-4.53-55.9-4.88-24.26.05-49.98 1.78-73.37 8.58-7.55 2.2-20.6 6.95-21.02 10.72l-1.23-2.2c.28-3.42 11.56-7.88 21.7-10.84 23.58-6.85 49.37-8.6 73.8-8.66zM349.42 290.54l-7.87 12.2-22.62-20.07-58.66-39.47-66.14-36.27-34.33-11.74 7.3-13.58 2.5-1.35 21.33 5.33 70.4 36.27 40.54 25.6L336 272l13.87 16zM158.56 195.5c6.02-4.08 50.28 15.64 96.6 43.57 46.18 28 90.3 59.65 86.33 65.57l-1.32 2.06-.6.47c.13-.1.8-.9-.07-3.1-1.95-6.47-33.26-31.46-85.2-62.82-50.65-30.2-92.85-48.4-97.07-43.2l1.33-2.54zm192.47 94.86c3.8-7.52-37.24-38.44-88.14-68.55-52.08-29.5-89.6-46.87-96.46-41.7l-1.52 2.78c-.02.15.05-.2.38-.44 1.24-1.1 3.3-1 4.24-1.03 11.8.2 45.5 15.7 92.8 42.8 20.73 12.08 87.55 54.94 87.3 67 0 1.02.08 1.24-.3 1.75l1.7-2.6z"/></g><g transform="translate(0 26.667) scale(1.067)"><path fill="#fff" stroke="#000" stroke-width=".67" d="M180.6 211c0 16.28 6.66 31 17.46 41.75 10.8 10.78 25.5 17.58 41.8 17.58 16.4 0 31.25-6.65 42.02-17.4 10.77-10.72 17.45-25.54 17.45-41.87v-79.2l-118.74-.13V211z"/><path fill="#f00" stroke="#000" stroke-width=".507" d="M182.82 211.12v.04c0 15.56 6.44 29.73 16.77 40 10.35 10.32 24.6 16.72 40.2 16.72 15.7 0 29.92-6.36 40.23-16.62 10.3-10.27 16.7-24.43 16.7-40.04V134.4l-113.84-.03-.08 76.75m91.02-53.75v48.9l-.04 5.16c0 1.36-.08 2.92-.24 4.24-.92 7.73-4.48 14.47-9.74 19.7-6.17 6.14-14.67 9.95-24.05 9.95-9.33 0-17.64-3.94-23.83-10.1-6.35-6.32-10.03-15-10.03-23.95v-54.02l67.94.12z"/><g id="e"><g id="d" fill="#ff0" stroke="#000" stroke-width=".5"><path stroke="none" d="M190.2 154.43c.13-5.52 4.04-6.83 4.07-6.85.03-.02 4.23 1.4 4.22 6.9l-8.3-.05"/><path d="M186.8 147.7l-.67 6.34h4.14c.04-5.25 3.97-6.12 4.07-6.1.1 0 4 1.16 4.1 6.1h4.14l-.75-6.4-15.02.05zm-.95 6.36h16.95c.35 0 .65.35.65.78 0 .43-.3.78-.65.78h-16.95c-.36 0-.65-.35-.65-.78 0-.43.3-.78.65-.78zM192 154.03c.03-3.3 2.27-4.25 2.28-4.25 0 0 2.35.97 2.36 4.25H192m-5.8-8.98h16.25c.35 0 .63.32.63.7 0 .4-.28.7-.63.7H186.2c-.33 0-.6-.3-.6-.7 0-.38.27-.7.6-.7zm.35 1.42h15.54c.3 0 .58.32.58.7 0 .4-.27.7-.6.7h-15.53c-.33 0-.6-.3-.6-.7 0-.38.27-.7.6-.7zm5.02-10.6h1.23v.88h.9v-.9l1.25.02v.88h.9v-.9h1.25v2.02c0 .32-.25.52-.55.52h-4.4c-.3 0-.58-.24-.58-.53v-2zm4.62 2.7l.27 6.45-4.3-.02.28-6.45 3.74.02"/><path id="a" d="M190.94 141.56l.13 3.48h-4.12l.1-3.48h3.9z"/><use width="100%" height="100%" x="10.609" xlink:href="#a"/><path id="b" d="M186.3 139.04h1.2v.87h.88v-.88h1.23v.9h.9v-.9h1.22v2.02c0 .3-.26.5-.54.5h-4.32c-.3 0-.56-.22-.56-.5v-2z"/><use width="100%" height="100%" x="10.609" xlink:href="#b"/><path fill="#000" stroke="none" d="M193.9 140.6c-.03-.62.88-.62.87 0v1.55h-.87v-1.54"/><path id="c" fill="#000" stroke="none" d="M188.57 142.84c0-.6.84-.62.83 0v1.2h-.83v-1.2"/><use width="100%" height="100%" x="10.641" xlink:href="#c"/></g><use width="100%" height="100%" y="46.32" xlink:href="#d"/><use width="100%" height="100%" xlink:href="#d" transform="rotate(-45.202 312.766 180.004)"/></g><use width="100%" height="100%" x="45.714" xlink:href="#d"/><use width="100%" height="100%" xlink:href="#e" transform="matrix(-1 0 0 1 479.792 0)"/><g id="f" fill="#fff"><path fill="#039" d="M232.64 202.4a8.34 8.34 0 0 0 2.2 5.7c1.37 1.47 3.25 2.38 5.3 2.38 2.08 0 3.95-.9 5.3-2.37 1.37-1.45 2.2-3.46 2.2-5.68v-10.77h-14.98l-.03 10.75"/><circle cx="236.074" cy="195.735" r="1.486"/><circle cx="244.392" cy="195.742" r="1.486"/><circle cx="240.225" cy="199.735" r="1.486"/><circle cx="236.074" cy="203.916" r="1.486"/><circle cx="244.383" cy="203.905" r="1.486"/></g><use width="100%" height="100%" y="-26.016" xlink:href="#f"/><use width="100%" height="100%" x="-20.799" xlink:href="#f"/><use width="100%" height="100%" x="20.745" xlink:href="#f"/><use width="100%" height="100%" y="25.784" xlink:href="#f"/></g></svg>