<svg xmlns="http://www.w3.org/2000/svg" width="640" height="480"><path fill="#0038a8" d="M0 319.7h640V480H0z"/><path fill="#fff" d="M0 160h640v160H0z"/><path fill="#d52b1e" d="M0 0h640v160H0z"/><g fill="none" stroke="#000" transform="translate(-116.364) scale(1.455)"><circle cx="300" cy="165" r="42.2"/><circle cx="300" cy="165" r="34.67"/><circle cx="300" cy="165" r="26.56"/></g><path d="M287.32 263.68l-7.12 4.23-2.17-3.66c-.4-.68-.66-1.23-.75-1.66a1.93 1.93 0 0 1 .13-1.25c.2-.4.5-.75.96-1.02.4-.22.8-.34 1.17-.34a2.3 2.3 0 0 1 1.1.28c.24.12.5.32.75.6-.06-.3-.1-.55-.07-.73.02-.1.07-.3.17-.56.1-.27.2-.46.26-.57l1.43-2.3 1.48 2.5-1.48 2.46c-.2.32-.3.56-.3.73-.03.22.02.43.14.63l.12.2 2.9-1.73zm-5.55.3l-.55-.92c-.06-.1-.2-.28-.44-.53a.68.68 0 0 0-.44-.22.77.77 0 0 0-.5.1c-.22.15-.36.33-.4.55-.03.2.07.52.3.93l.58.96zm-6.7-5.5l-2.16-6.5 1.68-.55 1.36 4.07 1.25-.42-1.27-3.77 1.6-.53 1.26 3.78 1.54-.5-1.4-4.2 1.78-.6 2.2 6.63zm-2.84-9.67l-.48-4.2c-.1-.93.04-1.64.42-2.15.4-.5.98-.8 1.8-.9.82-.1 1.5.08 2.02.52.52.45.84 1.18.95 2.2l.16 1.4 3.06-.35.3 2.55zm3.22-2.94l-.07-.62c-.06-.5-.18-.83-.38-1a.83.83 0 0 0-.68-.23.92.92 0 0 0-.63.35c-.17.2-.22.52-.17 1l.08.72zm-3.48-12.58l.28-2.54 4.9.53a4.16 4.16 0 0 1 1.36.38c.42.2.77.47 1.06.83.3.36.48.73.58 1.1.13.5.15 1.1.08 1.8-.04.4-.12.84-.23 1.3-.1.47-.27.86-.47 1.16-.2.3-.47.56-.8.8-.34.22-.67.37-1 .43-.55.1-1.02.13-1.43.1l-4.9-.54.27-2.54 5.02.53c.44.05.8-.03 1.1-.26.27-.22.43-.55.48-1 .04-.43-.04-.8-.26-1.06-.23-.27-.57-.43-1.02-.48zm1.1-6.07l1.6-4.5c.25-.76.64-1.27 1.15-1.54a1.92 1.92 0 0 1 1.6-.12c.46.16.8.44 1.04.84.15.27.23.6.23 1.03.32-.5.7-.84 1.1-1 .43-.14.9-.13 1.4.05.4.14.73.36 1 .66.24.3.4.66.48 1.05.05.25.03.58-.06 1-.12.58-.2.95-.27 1.13l-1.46 4.16zm3.92-1.35l.36-1.05c.13-.38.16-.66.08-.85-.08-.2-.24-.33-.48-.42-.23-.08-.43-.07-.6.03-.2.1-.35.34-.47.7l-.4 1.07zm3.06 1.08l.43-1.23c.14-.42.17-.74.08-.96a.8.8 0 0 0-.5-.47.73.73 0 0 0-.65.06c-.2.12-.37.4-.52.82l-.42 1.22zm-3.07-9.66l1.3-2.2 5.35 3.23 2.07-3.42 1.74 1.06-3.38 5.6zm5-7.58l1.63-1.98 6.36 5.3-1.65 1.97zm11.12-4.3l2.14-.93c.3.57.46 1.12.5 1.65.02.53-.08 1.04-.3 1.5-.23.5-.62.97-1.18 1.45-.68.6-1.33.97-1.93 1.14-.6.18-1.28.15-2.02-.08-.74-.23-1.45-.73-2.12-1.5-.88-1.05-1.3-2.08-1.22-3.12.07-1.03.6-1.98 1.62-2.85.8-.68 1.55-1.05 2.28-1.12.73-.07 1.5.13 2.28.6l-1.4 1.86c-.2-.15-.4-.24-.54-.27a1.47 1.47 0 0 0-.7 0 1.5 1.5 0 0 0-.62.33c-.44.38-.62.85-.55 1.4.04.42.3.9.8 1.47.6.7 1.1 1.08 1.54 1.16.43.07.83-.06 1.22-.4.37-.3.56-.65.57-1.03 0-.37-.12-.8-.38-1.26zm8.82-3.16l-2.57 1.37.3 1.4-2.32 1.24-1.15-8.77 2.46-1.3 6.64 5.83-2.36 1.26zm-1.32-1.33l-2.2-2.18.6 3.05zm7.82-8.46l3.74-.65c.74-.14 1.35-.14 1.84-.02.5.12.92.35 1.28.67.36.32.65.72.87 1.2.22.47.38.98.47 1.54.15.86.17 1.56.06 2.07a3.4 3.4 0 0 1-.62 1.35 2.73 2.73 0 0 1-1.02.84 5.93 5.93 0 0 1-1.47.5l-3.75.63zm2.84 1.4l.77 4.46.6-.1c.54-.1.9-.22 1.1-.37.2-.16.35-.4.43-.7.07-.32.05-.8-.06-1.45-.15-.87-.4-1.43-.73-1.7-.35-.27-.84-.35-1.5-.24zm7.8-2.83l6.84.3-.08 1.77-4.28-.18-.06 1.3 3.98.17-.08 1.7-3.97-.18-.07 1.62 4.4.2-.07 1.86-6.98-.3zm9.95.8l2.5.6-1.5 6.07 3.88.95-.47 1.97-6.36-1.56zm13.28 4.4l3.67 2.17c.8.47 1.28 1 1.46 1.63.17.6.05 1.27-.36 1.97-.43.72-.98 1.15-1.65 1.3-.67.15-1.45-.04-2.34-.56l-1.2-.7-1.57 2.64-2.2-1.3zm.43 4.35l.54.32c.42.25.77.35 1.02.3a.83.83 0 0 0 .6-.4.92.92 0 0 0 .1-.7c-.06-.25-.3-.5-.7-.74l-.63-.37zm7.18 9.65l-2.13-2-1.22.74-1.92-1.78 7.92-3.94 2.04 1.9-3.37 8.18-1.96-1.82zm.83-1.68l1.36-2.8-2.7 1.56zm1 5.5l6.82-4.68 2.4 3.5c.46.67.74 1.2.87 1.62.12.42.1.84-.05 1.26-.16.42-.46.78-.9 1.08-.37.26-.75.4-1.14.43a2.3 2.3 0 0 1-1.12-.2c-.22-.1-.48-.3-.77-.56.1.3.13.55.13.72 0 .1-.05.3-.13.57a3.25 3.25 0 0 1-.22.6l-1.27 2.36-1.63-2.38 1.3-2.56c.18-.34.27-.58.27-.75a1.08 1.08 0 0 0-.2-.62l-.12-.2-2.77 1.9zm5.5-.66l.62.9c.06.08.22.25.47.48.13.12.28.18.45.2a.76.76 0 0 0 .5-.15c.2-.16.33-.34.35-.56.03-.22-.1-.53-.36-.9l-.63-.94zm2.57 12.4l-1.08-2.72-1.42.14-.97-2.43 8.84-.18 1.04 2.6-6.53 5.95-1-2.5zm1.46-1.17l2.43-1.97-3.1.26zm2.16 9.03l1.7-.25.6 3.9-3.5.53c-.62-.66-1.07-1.27-1.34-1.82s-.47-1.22-.58-2c-.15-.98-.1-1.8.14-2.46.24-.66.66-1.2 1.26-1.64.6-.44 1.33-.72 2.18-.85.9-.13 1.7-.06 2.42.2a3.62 3.62 0 0 1 1.74 1.4c.35.52.6 1.25.73 2.18.14.92.16 1.6.06 2.08a2.67 2.67 0 0 1-.6 1.23c-.3.36-.7.65-1.2.87l-.8-2.37c.3-.15.5-.35.63-.62s.16-.58.1-.95c-.07-.56-.33-.97-.77-1.24-.44-.28-1.08-.36-1.9-.23-.9.13-1.5.4-1.83.78-.33.4-.45.88-.36 1.48.05.28.13.55.25.8.12.23.3.5.55.8l.77-.1zm5.4 12l-.22 2.56-4.9-.45a4.16 4.16 0 0 1-1.37-.35 3 3 0 0 1-1.07-.82c-.3-.35-.5-.7-.6-1.08-.14-.5-.18-1.1-.1-1.8.02-.4.1-.84.2-1.3.1-.48.23-.87.43-1.17a3 3 0 0 1 .78-.8c.33-.25.66-.4 1-.47.54-.1 1-.15 1.4-.1l4.93.42-.22 2.55-5.03-.45c-.45-.04-.8.05-1.1.28-.26.22-.42.56-.46 1-.05.44.04.8.27 1.07s.57.42 1.03.47zm-9.14 8.77l.9-2.77-1.16-.8.82-2.5 6.9 5.55-.88 2.65-8.84.37.84-2.54zm1.87.05l3.1.06-2.53-1.78zm2.96 6.73l-1.45 2.44h-3.26l1.53 2.86-1.45 2.42-2.47-5.23-2.96-1.78 1.3-2.2 3 1.77z"/><g fill="#009b3a" stroke="#000" stroke-width=".145"><path d="M328.12 211.35s23.35 10.06 19.27 30.84c-4.1 20.78-17.1 20.64-22.18 22.94-5.1 2.3-8.62 5.58-10.63 5.12-2.02-.46-4.68-2-4.68-2s-.2 3.4 3.88 4.03c4.1.6 9.48-5.4 12.06-6.07 2.6-.67 18.46-2.4 22.32-23.54 4.5-22.6-19.92-30.7-20.06-31.35zM339.9 215.77a3.2.76 75.1 0 1-1.54.12 3.2.76 75.1 1 1 1.54-.13zM339.1 216a3.3.74 63.34 1 1-1.4.5 3.3.74 63.34 0 1 1.4-.5zm-2.34 1.53a3.13.78 17.05 0 1-.15 1.58 3.13.78 17.05 0 1 .16-1.57zM337.1 216.67a3.3.74 34.23 1 1-.66 1.33 3.3.74 34.23 1 1 .67-1.33zM338.1 216.26a3.34.73 46.2 1 1-1.02 1.04 3.34.73 46.2 0 1 1.02-1.04zM339.73 219.2s-.9.5-1.1.58c-.22.08-.5-.27-1.1.03-.6.32-1 .87-1.13 1.2-.13.33.17.47.9.12.7-.35.9-.9 1.24-1.12.35-.22.93-.54 1.26-.66.15-.3.6-.98.85-1.37.24-.38 1.2-1.02 1.53-1.76.3-.6.2-1.12-.2-.9-.4.2-.93.83-1.18 1.27-.24.44-.03 1-.3 1.42-.2.3-.72 1.2-.78 1.2zm7.22 2.4a1.08 4.8-1.58 1 1-2.17-.53 1.08 4.8-1.58 1 1 2.17.52zM345.75 221.54a5 1.04 77.5 1 1-2.1.1 5 1.04 77.5 1 1 2.1-.1zM342 222.7a4.67 1.1 34.9 1 1-.72 2.2 4.67 1.1 34.9 1 1 .73-2.2zM342.76 221.64a5 1.04 50.9 0 1-1.37 1.6 5 1.04 50.9 1 1 1.37-1.6zM344.28 221.5a5.1 1.02 61.84 1 1-1.75 1.04 5.1 1.02 61.84 1 1 1.75-1.04zM345.56 226.43c0 .03-1.42.32-1.73.34-.3 0-.58-.62-1.5-.45-.93.17-1.68.8-1.97 1.2-.3.4.08.74 1.2.56 1.1-.18 1.55-.9 2.1-1.04.55-.16 1.46-.35 1.96-.37.3-.4 1.17-1.14 1.63-1.58.46-.46 1.98-.95 2.7-1.85.62-.74.64-1.54 0-1.4-.62.12-1.54.77-2.02 1.3-.5.52-.38 1.42-.9 1.9-.4.33-1.4 1.4-1.47 1.38zm5.2 4.84a1.07 4.83 8.74 1 1-2.04-.93 1.07 4.83 8.74 1 1 2.03.93zM349.6 230.98a1.03 5.04-2.05 1 1-2.07-.3 1.03 5.04-2.05 1 1 2.07.3zM345.73 231.42a4.7 1.1 46.03 1 1-1.1 2.03 4.7 1.1 46.03 1 1 1.1-2.03zM346.66 230.52a5.03 1.03 61.8 1 1-1.63 1.32 5.03 1.03 61.8 1 1 1.63-1.32zM348.15 230.66a5.14 1 72.54 1 1-1.9.7 5.14 1 72.54 1 1 1.9-.7zM348.52 235.77c0 .03-1.44.05-1.75 0-.3-.05-.46-.72-1.4-.73-.92 0-1.77.46-2.12.8-.36.36-.06.75 1.06.8 1.13.03 1.7-.6 2.26-.63.57-.04 1.5-.06 1.98 0 .37-.3 1.35-.9 1.88-1.24.53-.35 2.1-.54 2.97-1.3.73-.6.9-1.4.25-1.38-.63 0-1.65.47-2.22.9-.56.42-.63 1.33-1.2 1.7-.45.26-1.63 1.13-1.7 1.1m2.5 6.3a1.07 4.83 31.3 0 1-1.46-1.7 1.07 4.83 31.3 0 1 1.47 1.7M350.1 241.32a1.02 5.07 20.62 0 1-1.76-1.13 1.02 5.07 20.62 0 1 1.76 1.12m-3.67-1.2a4.76 1.1 69.93 0 1-1.8 1.44 4.76 1.1 69.93 0 1 1.8-1.43M347.62 239.68a1 5.1-4.86 0 1-2 .55 1 5.1-4.86 1 1 2-.55M348.92 240.44a1 5.2 5.55 1 1-2-.15 1 5.2 5.55 1 1 2 .14M347.27 245.32c0 .03-1.32-.55-1.58-.72-.27-.17-.15-.85-1-1.25-.84-.4-1.78-.3-2.24-.13-.46.17-.34.67.66 1.16 1 .5 1.75.16 2.28.35.53.2 1.38.56 1.8.83.45-.15 1.57-.27 2.18-.38.62-.1 2.12.37 3.2.03.9-.26 1.35-.92.77-1.17-.58-.26-1.68-.25-2.36-.1-.7.17-1.1 1-1.77 1.1-.5.04-1.9.36-1.96.3m.86 7.7a1.26 5.5 48.46 1 1-1.06-2.42 1.26 5.5 48.46 1 1 1.06 2.42M347.33 251.87a1.2 5.8 37.47 1 1-1.56-1.9 1.2 5.8 37.47 1 1 1.56 1.9M343.7 249.22a1.25 5.54-3.48 1 1-2.44.93 1.25 5.54-3.48 1 1 2.44-.93M345.15 249.15a1.17 5.9 11.63 0 1-2.37-.1 1.17 5.9 11.63 1 1 2.37.1M346.33 250.44a1.16 5.98 22.12 1 1-2.14-.88 1.16 5.98 22.12 1 1 2.13.88M342.9 255.26c0 .03-1.27-1.1-1.5-1.37-.23-.3.13-1-.67-1.75-.8-.74-1.86-1-2.42-.96-.55.02-.6.6.35 1.52.94.9 1.87.8 2.4 1.2.52.4 1.33 1.12 1.7 1.57.55 0 1.82.25 2.53.36.7.1 2.2 1.17 3.5 1.2 1.1.02 1.8-.54 1.24-1.04-.55-.5-1.77-.88-2.57-.94-.8-.07-1.5.68-2.28.55-.57-.12-2.23-.28-2.26-.37m-2.3 7.34a1.4 6.07 79.75 1 1 .3-2.9 1.4 6.07 79.75 1 1-.3 2.9M340.5 261.05a1.34 6.36 68.5 0 1-.48-2.7 1.34 6.36 68.5 0 1 .48 2.7M338.42 256.42a1.4 6.1 26.24 0 1-2.86-.53 1.4 6.1 26.24 1 1 2.86.52M339.87 257.2a1.32 6.45 41.82 0 1-2.23-1.47 1.32 6.45 41.82 0 1 2.23 1.48M340.3 259.13a1.3 6.54 52.67 1 1-1.6-2.08 1.3 6.54 52.67 0 1 1.6 2.08M334.36 261.72c-.03.02-.64-1.78-.7-2.18-.07-.4.66-.87.3-2.03-.37-1.16-1.26-2.02-1.82-2.3-.56-.3-.9.23-.5 1.64.4 1.4 1.36 1.85 1.65 2.53.27.7.67 1.83.77 2.47.53.32 1.6 1.3 2.24 1.82.64.5 1.5 2.4 2.75 3.15 1.03.68 2.03.55 1.76-.24-.26-.8-1.22-1.87-1.95-2.4-.74-.52-1.84-.22-2.5-.8-.5-.43-2-1.54-2-1.64M330.76 268a1.76 6.14 89.07 0 1 0-3.54 1.76 6.14 89.07 0 1 0 3.53M329.95 262.47a1.7 6.35 37.6 0 1-2.62-2.18 1.7 6.35 37.6 1 1 2.62 2.17M330.8 265.28a1.74 6.2 66.47 0 1-1.24-3.25 1.74 6.2 66.47 0 1 1.25 3.25m1.68-53.4a3.8.78 41.13 0 1-1.45.78 3.8.78 41.13 1 1 1.45-.8m-1.88 1.6a3.86.77 8.16 0 1 .3 1.58 3.86.77 8.16 1 1-.3-1.6M331.36 212.45a4.04.73 26.82 1 1-.77 1.25 4.04.73 26.82 0 1 .76-1.25M303.7 262s5.14 1.1 9.6 2.74c4.48 1.62 11.27 7.2 13.1 7.52 2.05.1 4.9-.6 5.97-3.57-3.16.83-5.05 2.1-8.06.46-1.05-.4-4.54-3.58-8.36-5.28-3.82-1.7-11.52-3.63-11.52-3.63l-.72 1.76m5.48-46.5c-.02-.04 5.92-3.12 5.92-3.12l-6.53 1.67-.76 1.15 1.38.3M314.8 216.95c-2.3-.42-5.82-1.2-8.07-1.37 1.55-1.72 3.7-4.63 5-6.4-.86 1.7-2.23 3.94-2.77 5.56 1.58.86 4.07 1.52 5.83 2.2M308.12 215.87c-.03-.04 5.26-4.07 5.26-4.07l-6.1 2.73-.56 1.26 1.4.07M313.73 216.9c-2.3-.45-5.86-1.26-8.1-1.45 1.5-1.77 3.6-4.77 4.9-6.6-.85 1.75-2.18 4.06-2.7 5.74 1.6.88 4.12 1.58 5.9 2.3M307.25 216.2c-.02-.04 6.2-2.6 6.2-2.6l-6.68 1.1-.86 1.08 1.35.42M313.03 216.95c-2.33-.2-5.94-.63-8.2-.58 1.3-1.97 3.02-5.24 4.08-7.25-.62 1.87-1.66 4.37-1.96 6.13 1.7.73 4.24 1.17 6.1 1.7M306.6 216.23c-.03-.03 4.2-5.1 4.2-5.1l-5.32 3.97-.24 1.35 1.37-.22M313 217.28c-2.5-.05-6.38-.27-8.77-.06 1.2-2.23 2.68-5.93 3.6-8.2-.47 2.1-1.33 4.9-1.48 6.84 1.87.68 4.64.97 6.65 1.42M305.76 217.44c-.03-.04 5.1-4.9 5.1-4.9l-6.17 3.42-.43 1.46 1.5.02M311.9 217.44c-2.7 0-6.84-.14-9.46.16 1.74-2.5 4.1-6.6 5.58-9.12-.95 2.31-2.45 5.42-3.02 7.57 1.88.7 4.8.95 6.88 1.4M304.05 217.8c-.03-.04 6.5-5.5 6.5-5.5l-7.36 3.9-.76 1.62 1.6-.02M310.9 217.6c-2.65.39-6.77.82-9.33 1.47 1.37-2.67 3.13-7 4.22-9.67-.6 2.4-1.66 5.63-1.9 7.8 1.95.42 4.88.26 7 .4M303.17 218.9c-.04-.04 5.02-6.95 5.02-6.95l-6.27 5.66-.34 1.74 1.57-.44M309.44 218.43c-2.68.25-6.82.47-9.4 1 1.5-2.6 3.5-6.84 4.75-9.44-.75 2.34-1.97 5.52-2.35 7.68 1.94.5 4.87.5 7 .75M302.27 219.62c-.03-.05 6.4-5.52 6.4-5.52l-7.26 3.9-.72 1.63h1.6M308.66 218.7c-2.68.57-6.82 1.28-9.37 2.1 1.23-2.73 2.8-7.12 3.77-9.82-.5 2.4-1.38 5.66-1.53 7.82 2 .27 4.96-.08 7.12-.1M301.2 219.9c-.03-.02 4.1-7.56 4.1-7.56l-5.53 6.55-.1 1.72 1.54-.7M308.66 219.14c-2.87.75-7.34 1.73-10.04 2.75 1.04-3.1 2.22-8.08 2.96-11.14-.25 2.7-.84 6.38-.73 8.8 2.23.22 5.43-.3 7.8-.42M300.4 221.66c-.03-.04 5.15-7.6 5.15-7.6l-6.57 6.14-.28 1.92 1.7-.46M307.52 220c-2.82.9-7.22 2.1-9.86 3.26.9-3.12 1.84-8.1 2.43-11.16-.14 2.68-.55 6.35-.33 8.73 2.23.1 5.4-.6 7.75-.83M299.38 222.78c-.05-.04 3.9-8.38 3.9-8.38l-5.55 7.22.02 1.92 1.62-.76M306.44 221.15c-2.88.66-7.37 1.5-10.1 2.44 1.16-3.05 2.56-7.93 3.42-10.94-.36 2.66-1.1 6.3-1.1 8.68 2.2.28 5.42-.15 7.78-.2M298.44 223.58c-.03-.05 6.4-6.56 6.4-6.56l-7.54 4.86-.6 1.84 1.75-.14M305.17 222.28c-2.86.4-7.3.8-10.03 1.5 1.32-3 3-7.82 4.02-10.8-.52 2.68-1.47 6.3-1.62 8.73 2.15.5 5.3.4 7.62.58M297.18 222.92c-.05-.04 4.34-8.2 4.34-8.2l-5.9 6.9-.08 1.96 1.64-.66M305.5 221.3c-3.1 1.28-7.95 3.06-10.87 4.63.96-3.7 1.97-9.54 2.6-13.14-.12 3.1-.54 7.4-.28 10.13 2.47-.07 5.96-1.15 8.56-1.62M296.58 225.4c-.05-.03 5.2-9.4 5.2-9.4l-6.86 7.96-.2 2.23 1.86-.8M304.32 222.47c-3.05 1.44-7.82 3.46-10.65 5.18.8-3.7 1.53-9.52 2-13.1.02 3.08-.2 7.33.17 10 2.46-.2 5.9-1.46 8.48-2.08M295.52 226.84c-.06-.04 3.8-10.14 3.8-10.14l-5.68 9.05.14 2.2 1.74-1.1M302.98 223.32c-3.04 1.45-7.8 3.52-10.63 5.25.77-3.7 1.48-9.5 1.92-13.1.04 3.08-.16 7.32.24 10 2.47-.23 5.9-1.52 8.48-2.15M294.66 228.04c-.04-.05 5.87-8.93 5.87-8.93l-7.4 7.32-.36 2.22 1.9-.6M302.7 222.85c-2.7 2.17-7 5.35-9.44 7.72 0-3.73-.5-9.48-.8-13 .68 2.92 1.35 7.03 2.3 9.5 2.4-.86 5.53-2.96 7.95-4.22M294.95 228.47c-.06 0 .68-10.7.68-10.7l-2.82 10.4.8 1.96 1.35-1.66M301.94 223.84c-2.72 2.15-7.02 5.3-9.47 7.67 0-3.72-.47-9.47-.76-13 .68 2.92 1.34 7.04 2.28 9.5 2.4-.83 5.53-2.9 7.95-4.16M294.27 230.28c-.06-.02 2.73-10.46 2.73-10.46l-4.73 9.62.38 2.15 1.62-1.32M301.63 224.1c-2.57 2.52-6.66 6.27-8.93 9-.4-3.83-1.53-9.68-2.22-13.27 1 2.92 2.15 7.07 3.4 9.5 2.37-1.16 5.38-3.67 7.75-5.24M294.3 231.62c-.08 0 .5-11.12.5-11.12l-2.74 10.8.85 2.05 1.4-1.73M300.8 225.94c-2.74 2.27-7.1 5.6-9.56 8.1-.08-3.87-.73-9.84-1.12-13.5.77 3.02 1.56 7.3 2.6 9.84 2.44-.9 5.63-3.1 8.1-4.44M293.47 232.9c-.06-.05 3.87-10.48 3.87-10.48l-5.8 9.28.15 2.3 1.77-1.1M300.77 225.98c-2.43 2.57-6.3 6.4-8.46 9.16-.37-3.88-1.45-9.8-2.1-13.45.96 2.96 2.04 7.15 3.22 9.6 2.25-1.17 5.1-3.72 7.35-5.32M293.6 233.43c-.05 0-.44-11.07-.44-11.07l-1.8 11.02 1.03 1.92 1.22-1.87M299.58 226.8c-2.35 2.6-6.1 6.46-8.18 9.25-.5-3.9-1.75-9.8-2.5-13.44 1.04 2.97 2.25 7.16 3.5 9.6 2.2-1.2 5-3.77 7.18-5.4M293 234.53c-.07-.02 1.23-11.24 1.23-11.24l-3.3 10.62.66 2.2 1.4-1.6M299.07 227.24c-2.15 2.82-5.6 7.02-7.46 10-.78-3.82-2.48-9.6-3.5-13.13 1.26 2.85 2.78 6.9 4.2 9.2 2.13-1.4 4.7-4.23 6.77-6.06M292.95 235.58c-.07 0-.72-11.26-.72-11.26l-1.4 11.17 1 1.96 1.12-1.88M298.85 227.88c-2.02 2.95-5.28 7.36-7 10.45-.98-3.8-2.97-9.5-4.2-13.03 1.43 2.8 3.16 6.8 4.72 9.04 2.06-1.52 4.5-4.5 6.48-6.46M293.64 236.63c-.06-.02 1.15-11.3 1.15-11.3l-3.23 10.62.68 2.22 1.4-1.54M298.44 228.93c-1.74 3.2-4.58 8.05-6 11.36-1.32-3.65-3.82-9.06-5.35-12.38 1.66 2.58 3.74 6.3 5.5 8.33 1.9-1.8 4.05-5.1 5.85-7.32M293.25 237.56c-.06 0-3.16-10.72-3.16-10.72l1.06 11.3 1.42 1.6.67-2.18M298.37 230.18c-1.8 3.2-4.77 8.03-6.25 11.33-1.33-3.62-3.86-9-5.4-12.33 1.7 2.58 3.8 6.3 5.58 8.32 1.97-1.8 4.2-5.1 6.07-7.32M293.4 239.58c-.07 0-1.16-11.27-1.16-11.27l-1.05 11.28 1.12 1.93 1.08-1.92M298.56 231.17c-1.86 3.16-4.9 7.9-6.44 11.18-1.27-3.66-3.7-9.1-5.2-12.46 1.65 2.6 3.7 6.37 5.45 8.43 2-1.75 4.3-5 6.2-7.16M293.3 240.48c-.07 0-2.1-11.07-2.1-11.07l-.1 11.35 1.3 1.78.9-2.05M297.76 232.77c-2 3.02-5.27 7.56-6.96 10.72-1.1-3.75-3.26-9.36-4.6-12.82 1.53 2.73 3.4 6.64 5.04 8.8 2.08-1.6 4.53-4.68 6.52-6.7M292.32 241.72c-.06-.02.94-11.32.94-11.32l-3.1 10.73.76 2.2 1.4-1.6M297.88 233.05c-1.72 3.27-4.54 8.22-5.93 11.58-1.43-3.57-4.1-8.85-5.75-12.1 1.76 2.5 3.98 6.14 5.82 8.07 1.92-1.87 4.06-5.27 5.86-7.55M291.94 242.66c-.06.02-3.47-10.54-3.47-10.54l1.34 11.2 1.5 1.54.64-2.2M297.4 233.9c-1.2 3.58-3.22 9.06-4.08 12.66-1.95-3.2-5.38-7.8-7.48-10.62 2.1 2.07 4.84 5.15 6.94 6.65 1.6-2.27 3.2-6.08 4.63-8.7M295.03 243.52c-.07.02-3.76-10.4-3.76-10.4l1.64 11.15 1.55 1.47.58-2.22M297.38 235c-1.17 3.6-3.16 9.1-4 12.7-1.97-3.16-5.43-7.72-7.56-10.53 2.13 2.04 4.88 5.1 7 6.58 1.58-2.28 3.16-6.1 4.56-8.75M295.06 245.3c-.06.03-4.84-9.73-4.84-9.73l2.8 10.8 1.7 1.2.34-2.28M297.02 235.9c-.75 3.74-2.1 9.47-2.5 13.18-2.33-2.86-6.3-6.9-8.72-9.37 2.35 1.73 5.42 4.37 7.7 5.53 1.3-2.5 2.43-6.5 3.52-9.33M295.38 246.82c-.07.02-2.6-10.9-2.6-10.9l.42 11.32 1.36 1.7.8-2.12M297.03 237.06c-.4 3.83-1.2 9.72-1.26 13.46-2.57-2.54-6.87-6-9.5-8.16 2.48 1.4 5.78 3.6 8.13 4.46 1.08-2.65 1.82-6.8 2.64-9.76M295.5 247.62c-.04.05-6.9-7.87-6.9-7.87l5.2 9.53 1.9.65-.2-2.3M297.18 238.4c-.4 3.82-1.23 9.7-1.3 13.45-2.57-2.55-6.86-6.05-9.5-8.2 2.5 1.4 5.78 3.63 8.13 4.5 1.1-2.65 1.85-6.8 2.68-9.75M296.28 249.44c-.06.04-5.3-9.5-5.3-9.5l3.33 10.66 1.75 1.14.23-2.3M297.5 239.97c-.27 3.85-.84 9.78-.76 13.52-2.66-2.4-7.1-5.64-9.8-7.64 2.52 1.26 5.9 3.3 8.3 4 .96-2.7 1.54-6.9 2.24-9.9M296.95 251.2c-.06.03-6.55-8.3-6.55-8.3l4.78 9.84 1.86.77-.1-2.3M297.56 241.75c-.23 3.85-.77 9.78-.67 13.52-2.68-2.37-7.13-5.57-9.86-7.54 2.54 1.24 5.93 3.24 8.32 3.94.96-2.72 1.5-6.9 2.2-9.92M297.54 252.6c-.06.03-4.6-10-4.6-10l2.55 10.94 1.65 1.32.4-2.26M297.73 242.9c.13 3.86.15 9.84.6 13.55-2.87-2-7.58-4.6-10.48-6.18 2.64.9 6.2 2.42 8.63 2.8.7-2.84.85-7.1 1.25-10.18M298.34 252.2c-.04.07-8.38-5.73-8.38-5.73l7.1 7.83 1.98.1-.7-2.2M298 243.3c.33 3.85.66 9.8 1.3 13.5-2.98-1.9-7.83-4.3-10.8-5.78 2.68.8 6.3 2.2 8.77 2.47.55-2.86.48-7.1.72-10.2M299.25 254.34c-.06.05-7-8.02-7-8.02l5.3 9.63 1.9.7-.2-2.3M298.6 244.77c.5 3.83 1.08 9.77 1.88 13.42-3.05-1.7-8-3.82-11.02-5.13 2.7.63 6.4 1.8 8.85 1.94.44-2.88.2-7.12.3-10.23M300.64 255.7c-.04.06-8.3-5.88-8.3-5.88l7 7.94 1.97.14-.66-2.2M298.87 246.4c.74 3.78 1.72 9.68 2.75 13.25-3.15-1.42-8.2-3.06-11.3-4.08 2.75.37 6.48 1.2 8.94 1.1.23-2.92-.3-7.15-.4-10.27M301.56 256.86c-.05.05-6.88-8.15-6.88-8.15l5.16 9.74 1.9.73-.18-2.3M299.32 247.45c1.1 3.68 2.6 9.43 3.96 12.86-3.24-.98-8.38-1.95-11.54-2.55 2.74 0 6.5.34 8.93-.1-.05-2.95-.96-7.1-1.35-10.2M301.92 256.87c0 .08-9.6-2.06-9.6-2.06l9.13 4.56 1.85-.7-1.38-1.8M299.94 248.6c1.08 3.68 2.57 9.44 3.9 12.88-3.22-1-8.36-2-11.52-2.63 2.74.02 6.5.37 8.93-.04-.03-2.95-.93-7.1-1.3-10.2M303.5 257.9c-.04.06-9.2-4.45-9.2-4.45l8.24 6.7 1.98-.2-1.03-2.06M299.46 249.24c1.83 3.35 4.5 8.65 6.53 11.7-3.38-.25-8.6-.06-11.8.05 2.67-.6 6.42-1.12 8.7-2.07-.67-2.9-2.4-6.74-3.44-9.7M304.95 258.9c-.02.07-9.56-2.64-9.56-2.64l8.96 5.07 1.88-.57-1.3-1.87M300.45 250.66c1.85 3.35 4.55 8.62 6.6 11.67-3.37-.23-8.58 0-11.78.14 2.67-.63 6.4-1.17 8.67-2.14-.68-2.88-2.45-6.72-3.5-9.67M306.15 259.68c-.03.07-8.9-5.33-8.9-5.33l7.78 7.45 2 .02-.88-2.14M301.2 251.5c2.13 3.13 5.3 8.08 7.6 10.87-3.33.2-8.42 1.12-11.55 1.68 2.56-.98 6.18-2 8.3-3.28-.94-2.8-3.05-6.44-4.36-9.26M306.8 260.47c0 .08-9.6-.23-9.6-.23l9.5 2.8 1.7-1.04-1.6-1.53m5.58-46.56c0-.02 6.9-1.15 6.9-1.15l-6.87.16-1.2.63 1.18.38M316.18 215.38c-2-.6-5.04-1.62-7.1-2.07 2.2-.87 5.43-2.4 7.42-3.35-1.54.96-3.76 2.2-4.95 3.15 1.15.78 3.23 1.58 4.63 2.28M312.07 214.14c0-.03 6.7-1.84 6.7-1.84l-6.94.88-1.04.72 1.27.24M316.5 215.87c-2.35-.22-5.94-.67-8.26-.7 1.75-1.54 4.2-4.12 5.7-5.7-1.04 1.5-2.63 3.46-3.32 4.87 1.57.63 4.1 1.06 5.88 1.53M309.6 214.62c0-.03 6.94-.8 6.94-.8l-6.78-.2-1.26.55 1.1.45M314.74 216.13c-2.14-.4-5.37-1.12-7.53-1.37 2.06-1 5.04-2.73 6.88-3.8-1.37 1.04-3.4 2.4-4.42 3.4 1.3.65 3.54 1.23 5.08 1.77M309 214.55c-.03-.03 6.1-2.64 6.1-2.64l-6.7 1.78-.8.82 1.4.05M314.53 216.9c-1.77-.73-4.5-1.97-6.24-2.5 1.35-1.25 3.26-3.47 4.44-4.83-.82 1.36-2.08 3.12-2.63 4.46 1.2 1 3.1 2 4.43 2.87M309.34 215c0-.04 4.76-2.07 4.76-2.07l-5.2.7-.62.94 1.06.43m-4 44.58c.02.08-9.85.07-9.85.07l9.98 2.45 1.64-1.08-1.77-1.44M307.13 260.22c0 .07-10.02-2.33-10.02-2.33l9.63 4.7 1.9-.6-1.5-1.78M308.77 260.9c0 .06-9.95-.5-9.95-.5l9.95 2.98 1.7-.96-1.7-1.53M302.46 253.86c2.6 2.85 6.46 7.4 9.18 9.92-3.34.5-8.37 1.85-11.47 2.68 2.46-1.2 5.98-2.52 7.96-3.95-1.33-2.65-3.96-6-5.67-8.64M310.14 261.4c-.02.07-9.95-3.26-9.95-3.26l9.34 5.56 1.96-.42-1.36-1.9M303.38 254.52c2.82 2.57 7.07 6.7 9.98 8.9-3.2.94-7.96 2.92-10.9 4.14 2.28-1.5 5.57-3.3 7.35-4.98-1.57-2.52-4.48-5.6-6.42-8.06M310.95 262c.02.08-9.43 1.86-9.43 1.86l9.94.68 1.4-1.38-1.9-1.15M309 261.4c0 .1-9.85.77-9.85.77l10.15 1.74 1.56-1.17-1.87-1.32"/><path d="M310.8 261.94c0 .07-10.17-1.63-10.17-1.63l9.96 4.04 1.83-.73-1.62-1.67zM312.5 262.5c0 .06-9.97.17-9.97.17l10.15 2.3 1.63-1.07-1.8-1.4zM305.66 255.9c2.8 2.68 7 6.94 9.9 9.26-3.3.73-8.2 2.43-11.24 3.46 2.37-1.34 5.78-2.92 7.65-4.48-1.53-2.56-4.4-5.72-6.3-8.23zM313.9 262.9c0 .07-10.16-2.56-10.16-2.56l9.74 4.9 1.92-.55-1.5-1.8zM306.63 256.5c3 2.37 7.57 6.2 10.64 8.2-3.13 1.14-7.73 3.45-10.56 4.86 2.16-1.65 5.3-3.66 6.96-5.47-1.76-2.42-4.9-5.3-7.03-7.6zM314.76 263.45c.02.07-9.28 2.5-9.28 2.5h9.98l1.3-1.5-2-1z"/></g><path fill="#fedf00" stroke="#000" stroke-width=".435" d="M327.58 249.48l-7.58-5.23-7.58 5.23 2.84-8.38-6.63-5.24h8.53l2.84-8.38 2.84 8.38h8.53l-6.64 5.24 2.85 8.38z"/></svg>