<svg xmlns="http://www.w3.org/2000/svg" width="640" height="480"><defs><clipPath id="a"><path fill-opacity=".67" d="M-85.33 0h682.67v512H-85.33z"/></clipPath></defs><g fill-rule="evenodd" clip-path="url(#a)" transform="translate(80) scale(.938)"><path fill="#199d00" d="M-128 0h768v512h-768z"/><path fill="#fff" d="M65.54 145.13c-.9 11.96-1.95 33 8.2 35.17 12.3 1.18 5.53-20.8 9.98-24.8.84-1.96 2.4-1.97 2.52.5v18.66c-.12 6.07 3.87 7.85 6.97 9.1 3.23-.24 5.38-.13 6.65 3l1.5 32.26s7.5 2.14 7.84-18.14c.35-11.9-2.4-21.88-.78-24.2.05-2.28 2.96-2.4 4.98-1.3 3.2 2.26 4.64 5.06 9.64 3.94 7.6-2.1 12.16-5.8 12.27-11.62-.43-5.55-1.05-11.1-3.45-16.64.33-1-1.47-3.62-1.14-4.63 1.38 2.14 3.46 1.96 3.93 0-1.3-4.26-3.3-8.34-6.55-10.1-2.7-2.38-6.63-1.9-8.07 3.05-.66 5.7 2.06 12.45 6.2 17.97.9 2.15 2.13 5.73 1.58 8.95-2.2 1.26-4.4.74-6.26-1.22 0 0-6.05-4.53-6.05-5.54 1.6-10.28.36-11.44-.53-14.3-.62-3.93-2.5-5.2-4-7.88-1.5-1.6-3.56-1.6-4.54 0-2.67 4.63-1.43 14.58.5 19.04 1.4 4.1 3.53 6.67 2.52 6.67-.82 2.3-2.54 1.78-3.8-.9-1.77-5.52-2.13-13.76-2.13-17.47-.54-4.6-1.13-14.42-4.16-16.92-1.85-2.5-4.58-1.3-5.54 1-.2 4.58-.22 9.15.3 13.36 2.07 7.38 2.72 13.87 3.73 21.43.28 10.13-5.85 4.4-5.57-.62 1.4-6.53 1.04-16.8-.2-19.4-1-2.6-2.2-3.24-4.6-2.8-1.94-.13-6.9 5.28-8.28 14.25 0 0-1.2 4.62-1.7 8.72-.67 4.63-3.72 7.9-5.86-.65-1.85-6.22-3-21.53-6.08-17.94zM98.94 194.2c-10.84 5.3-21.33 10.26-32 15.4.38-7.27 15.2-20.37 25.32-20.55 6.6.18 4.93 2.55 6.68 5.16zM93.35 204.24c-16.87 43.5 39.5 49.55 45.8 1.78.6-1.96 2.98-3.92 3.4-.7-1.3 43.24-43.6 46.2-50.8 32.6-1.78-3.2-2.32-10.33-2.5-14.6-1.07-8.5-5.52-5.24-6.23 3.2-.72 4.7-.54 6-.54 10.5 2.26 34.17 56.74 19.5 65.6-8.72 4.68-15.63-.78-27.15 1.77-27.1 5.4 5.83 12.95.78 14.6-1.24.73-1 2.5-1.66 3.76-.35 4.23 3.04 11.65 1.6 13.2-3.74.9-5.23 1.6-10.63 1.78-16.2-3.45 1.06-6 1.77-6.24 3.2l-.7 4.63c-.3 1.47-3.28 1.53-3.4-.37-1.3-5.94-6.7-6.7-9.98 2.5-2.2 1.78-6.18 2.13-6.6-.54.54-6.2-1.95-7.02-6.94-4.1-1.6-12.25-3.2-23.95-4.82-36.2 2.08-.05 4 1.5 5.9-.88-2.1-6.47-6.5-19.72-8.93-20.67-1.18-1.43-2.2-.54-3.74-.18-2.6.83-5.05 3.1-4.28 7.48 3.1 18.78 5.1 33.1 8.2 51.87.48 2.2-1.36 5.1-3.74 4.8-4.03-2.72-5.04-8.25-11.93-8-5 .05-10.7 5.45-11.4 10.68-.84 4.16-1.14 8.67 0 12.3 3.5 4.22 7.72 3.8 11.4 2.85 3.03-1.25 5.52-4.28 6.6-3.56.7.88.17 10.86-14.27 18.52-8.73 3.92-15.68 4.8-19.42-2.32-2.32-4.45.18-21.38-5.53-17.46zM164.9 160.03c3.4-1.25 19.44-19.6 19.44-19.6-.83-.72-1.58-1.25-2.4-1.97-.9-.77-.8-1.54 0-2.3 3.97-2.33 2.7-7.4.62-9.72-3.45-1.55-6.45-1.04-8.65.08-2.78 2.68-3.43 6.95-1.24 9.63 2.14 1 4.28 3.18 2.85 4.36-6.55 7.02-24.52 19.1-22.44 19.53.44.6 11.5.56 11.85 0zM68.05 225c-6.02 9.58-6.54 23.9-3.22 28.17 1.76 2.02 4.66 2.9 6.8 2.27 3.78-1.64 5.44-9.3 4.54-12.1-1.26-1.97-2.26-2.3-3.52-.6-2.66 5.4-3.76 1.7-4-1.33-.4-5.7.14-10.98.76-15.16.66-4.28 0-2.97-1.36-1.24zm257.08-15.35c-5.82-12.52-13.87-24.9-16.43-29.65-2.57-4.75-21.92-32.82-24.76-35.98-6.3-7.47 10.2 3.1-2.1-11.72-4.68-4.02-4.95-4.26-8.84-7.54-1.96-1.4-6.75-3.94-7.6.28-.42 3.7-.2 5.73.43 8.82.48 2.07 3.48 5.52 4.96 7.52 19.62 26.4 37.02 53.03 53.8 86.52 2.65-1.26 2.07-16.15.52-18.25zM299.6 251.54c-1.15 1.28 2.8 6.78 7.97 6.77 8.62-1 16.21-5.83 23.24-18.6 1.9-2.96 5.2-9.32 5.3-14.25.65-28.93-1.45-51.43-5.8-72.34-.27-2.03-.1-4.42.25-5.03.56-.67 2.45 0 3.46-1.65 1.48-1.5-3.9-13.97-6.98-18.77-1.1-2.14-1.47-3.57-3.28.26-1.9 3.1-3.17 8.54-3.02 13.6 4.1 28.5 5.38 53.4 8.06 81.9.22 2.75-.18 6.75-2 8.35-6.78 7.07-16.56 15.78-27.2 19.8zm116.48-.15c-6.2 3.57-6.2 7.68-1.2 7.83 8.63-1 18.82-1.72 25.85-12.33 1.88-2.97 4.1-11 4.2-15.95.67-28.92-.37-50.5-4.7-71.42-.28-2.03-1.18-6.72-.84-7.33.55-1.43 3.36.15 4.37-1.5 1.47-1.5-7.28-12.74-10.35-17.54-1.1-2.14-1.47-3.58-3.28.25-1.9 3.12-2.56 8.7-1.8 13.62 4.57 30.93 7.98 54.16 8.68 81.58-.4 2.6-.5 4-1.7 7.28-2.7 3.46-5.7 7.78-8.5 9.88-2.8 2.1-8.8 4.08-10.74 5.63zM420.72 223.66c-.07-7.23.1-13.48-.14-18.87-.23-5.4-1.2-9.8-3.05-13.63-1.77-4.1-.67-7.4-1.5-11.78-.83-4.38-.63-10.93-1.88-16.12-.34-2.02-1.4-8.5-1.07-9.13.5-1.45 2.45.04 3.4-1.64 1.43-1.54-4.93-18-8.16-22.7-1.16-2.1-3.27-1.38-5.86 2.05-2.4 2.25-1.52 7.4-.6 12.28 6.2 32.3 10.8 61.52 9.8 92.26-.3 2.6 9.12-7.8 9.06-12.74zM375 183.6c-3.9-.06-12.04-7.56-14.42-11.96-.9-2.52-.32-4.98.47-6.42 1.44-.94 3.66-2 5.3-.98 0 0 1.73 2.4 1.4 2.7 2.12 1.03 3.03.44 3.24-.42.14-1.52-.64-2.42-.64-4.1.9-4.5 6.06-5.2 8-2.33 1.43 1.75 1.96 5.5 2.17 8-.02 1.3-2.1-.22-3.3.1-1.18.3-1.46 1.67-1.56 2.9-.2 3.3-.6 8.55-.67 12.5zm-71.83 48.08c1.07-9.83-.4-27.33-.5-33.13-.4-13.7-2.63-40.16-3.7-44.58-1.2-8.34 3.44.9 2.8-3.93-1.5-8.32-6.12-13.96-11.55-21.6-1.75-2.47-1.7-2.97-4.4.62-2.98 6.78-.4 11.45.38 16.73 3.9 17.2 6.2 33.02 7.25 48.67 1.07 15.65 1.4 32.58.42 49.06 2.94.1 7.65-4.75 9.3-11.85zM433.97 215.94c-6.86-11.52-17.22-24-20-28.62-2.75-4.64-26.15-34.83-29.13-37.86-8.56-9 3.92-1.47-1.64-8.4-4.7-5.18-6.08-6.8-10.1-9.9-2.03-1.32-3.26-3.8-3.92.44-.26 3.73-.54 8.05-.3 11.2 0 1.74 1.82 5.03 3.38 6.96 20.76 25.5 43.4 51.54 61.62 84.27 2.6-1.37 1.73-16.06.1-18.1z"/><path fill="#1ba400" d="M122.6 194.7c-.5.86-1.6 1.98-1.23 3.14.77 1.04 1.38 1.25 2.67 1.3 1.1 0 2.67.28 3-.38.6-.66 1.05-2 .56-3.28-1.16-2.9-4.4-1.82-5-.8z"/><path fill="#fff" d="M354.17 362.54c9.18.34 15.2.42 23.35 1.4 0 0 7.04-.7 9.55-1.08 10.63-1.02 11.1 15.17 11.1 15.17-.12 9.5-3.78 10-8.46 11-2.67.34-4.07-1.6-5.48-3.67-1.76.74-4.16.84-7.06.44-3.83-.24-7.65-.23-11.47-.46-4.08-.36-6.24.42-10.3.06-.84 1.32-1.93 3.14-4.4 2.55-2.08-.23-4.53-6.03-3.8-10.45 1.5-3.16 1.08-2.14.92-3.53-37.53-.96-75.4-2.63-112.22-2.15-28.8.12-57.24 1.3-85.7 2.5-15.16-.23-26.76-2.62-34.76-14.33.7 0 38.72 2.14 49.83 1.42 20.56-.24 39.32-1.9 60.23-2.5 41.23.7 82.1.7 123.33 3.58-3.94-2.7-4.08-9.08 2-10.63.5-.36.77 3.16 1.68 3.1 4.86-.37 2.73 6.2 1.67 7.57zM188.64 135.28c-6.25 17.86 3.58 37.4 10.4 35.5 4.9 2.03 8.04-7.33 10.05-17.57 1.37-2.87 2.4-3.17 3.12-1.7-.18 13.63.98 16.65 4.48 20.78 7.8 6.03 14.28.77 14.78.27l6.1-6.1c1.34-1.4 3.14-1.5 5.06-.24 1.86 1.7 1.6 4.62 5.57 6.64 3.36 1.34 10.52.3 12.18-2.57 2.24-3.83 2.77-5.14 3.8-6.6 1.6-2.12 4.32-1.17 4.32-.5-.26 1.18-1.85 2.36-.76 4.5 1.9 1.4 2.33.5 3.45.18 3.95-1.9 6.93-10.5 6.93-10.5.18-3.22-1.62-2.96-2.8-2.3-1.5.93-1.6 1.23-3.13 2.16-1.94.3-5.7 1.58-7.56-1.3-1.9-3.45-1.92-8.28-3.37-11.77 0-.26-2.52-5.5-.18-5.84 1.18.2 3.7.88 4.1-1.25 1.24-2.07-2.65-7.93-5.32-10.9-2.32-2.54-5.52-2.84-8.62-.25-2.17 2-1.86 4.23-2.28 6.34-.56 2.42-.44 5.4 2.03 8.62 2.17 4.26 6.12 9.76 4.82 17.5 0 0-2.3 3.64-6.32 3.16-1.68-.36-4.4-1.07-5.85-11.8-1.1-8.1.26-19.45-3.18-24.77-1.24-3.22-2.15-6.32-5.18-.82-.83 2.15-4.32 5.43-1.8 12.17 2.1 4.27 2.93 11.22 2 18.95-1.45 2.2-1.77 2.94-3.65 5.14-2.65 2.83-5.52 2.1-7.72 1.04-2.05-1.38-3.66-2.1-4.6-6.5.17-7 .56-18.5-.72-20.93-1.88-3.76-5-2.4-6.33-1.25-6.4 5.85-9.56 15.7-11.5 23.57-1.76 5.73-3.65 4.1-4.98 1.78-3.24-3.03-3.46-26.7-7.36-22.82zM207.45 174.1c2.84-2 1.5-3.4 5.75.83 5.32 9.08 8.73 20.84 9.24 31.26-.22 2.56 1.6 4.2 2.42 3.63.5-6.03 15.15-14.43 28.6-15.66 2.05-.45 1.05-4.4 1.38-6.4-.8-7.46 4.2-14.25 11.2-14.8 9.54 1.42 12.72 6.5 12.88 14.28-1.03 14.92-16.57 17.45-25.3 18.64-1.35.5-1.9 1.12 0 1.85l36.6.16 1.85 1.1c.23.87-.53.14-1.97 2.52-1.45 2.38-3.58 7.86-3.7 11.52-10.9 3.5-22.17 5.05-33.63 6.43-3.98 2.02-5.96 4.7-5.14 7.72 1.34 3.34 10.16 6.7 10.16 6.84 1.67 1.05 3.65 3.5-.48 8.53-17.85-.8-31.7-8.38-36.48-19.1-1.44-1.12-3 0-4 1.44-6.96 9-13.8 17.08-25.7 21.38-7.08 1.77-14.34-1.1-17.76-5.73-2.3-2.64-2.2-5.56-3.05-6.2-3.83 1.7-36.78 15.7-32.6 9.2 8-8.6 21.9-14.9 34.16-23.38.88-2.84 2.5-12.44 7.33-15.57.28.03-.77 5.64-.66 8 .05 1.95-.15 2.72.28 2.22.83-.53 15.7-12.22 16.86-15.8 1.46-2.06.44-7.27.44-7.43-2.8-7.2-6.7-7.8-8.15-11.4-1.32-4.73-.73-10.15 1.98-11.66 2.4-2.2 5.27-1.92 7.9.47 3 2.7 5.67 7.97 6.44 11.88-.5 1.55-3.93-1.03-5.1-.26 2.08 2.18 3.06 4.68 3.82 7.75 1.94 8.2 1.35 11.4-.6 16.7-6.6 13.9-15.05 18.04-22.44 23.2-.2.06-.33 3.5 2.45 5.38.96 1 4.8 1.52 9.34.07 8.75-4.77 17.84-13.57 22.35-23.37 1.3-7.4-.5-15.27-2.44-22.12-2.9-6.7-6.3-16.26-6.3-16.42-.12-4.17.22-5.62 2.05-7.7zm-95.8-38.63c4.2 2 12.12 1.15 11.8-5.64 0-.6-.17-2.63-.23-3.18-.86-2-3.2-1.5-3.73.56-.18.7.28 1.8-.33 2.13-.35.35-1.7.14-1.64-1.73 0-.6-.44-1.24-.7-1.62-.27-.18-.44-.22-.92-.22-.58.02-.57.17-.9.67-.13.5-.32 1-.32 1.56-.07.66-.33.9-.82 1-.55 0-.42.06-.87-.23-.27-.3-.6-.4-.6-.9s-.12-1.33-.27-1.67c-.23-.3-.6-.45-1.03-.56-2.3 0-2.46 2.64-2.33 3.63-.17.2-.27 4.9 2.87 6.2zM235.1 187.73c4.22 2 14.25.85 11.8-5.64 0-.6-.15-2.64-.2-3.2-.87-2-3.2-1.5-3.74.57-.17.68.3 1.78-.32 2.12-.35.34-1.7.14-1.64-1.74 0-.6-.44-1.24-.7-1.62-.27-.18-.44-.22-.92-.22-.6.02-.58.17-.9.67-.14.5-.33.98-.33 1.55-.07.67-.32.9-.82 1-.54 0-.42.06-.87-.22-.26-.3-.6-.4-.6-.9s-.1-1.33-.26-1.67c-.23-.3-.6-.45-1.03-.56-2.3 0-2.46 2.64-2.33 3.63-.17.2-.27 4.9 2.87 6.2zm72-21.63c4.22 2 12.14 1.15 11.8-5.64 0-.6-.15-2.63-.2-3.18-.87-2-3.2-1.5-3.74.56-.17.68.3 1.78-.32 2.12-.35.35-1.7.14-1.64-1.73 0-.6-.44-1.24-.7-1.62-.27-.16-.44-.2-.92-.2-.6 0-.58.16-.9.66-.14.5-.33 1-.33 1.56-.07.67-.33.9-.82 1-.54 0-.42.06-.87-.22-.26-.3-.6-.4-.6-.9s-.1-1.33-.26-1.67c-.23-.3-.6-.45-1.03-.56-2.3 0-2.46 2.64-2.33 3.63-.17.2-.27 4.9 2.87 6.2zm37.3 54.33c-7.34 8.27-4.1 21.95-2.45 24.9 2.42 4.84 4.37 7.95 9.08 10.34 4.3 3.16 7.63 1.2 9.48-1.02 4.32-4.47 4.37-15.9 6.4-18.16 1.42-4.17 5-3.46 6.74-1.6 1.68 2.4 3.66 3.97 6.14 5.28 4.02 3.56 8.83 4.2 13.57.97 3.23-1.82 5.34-4.16 7.23-8.82 2.1-5.63.93-31.65.5-47.07-.15-1.2-4.17-21.2-4.17-21.43 0-.22-.52-10.2-.96-12.58-.08-.96-.32-1.24.7-1.12 1.06.9 1.2.96 1.88 1.26 1.08.2 2.05-1.66 1.4-3.35l-10.05-18.54c-.8-.78-1.85-1.65-3.13.24-1.22 1.07-2.52 3-2.48 5.5.3 4.4 1.07 8.86 1.37 13.25l4.02 22.55c1.26 16.07 1.58 29.23 2.84 45.3-.18 6.8-2.3 12.75-4.3 13.6 0 0-3 1.75-5.03-.18-1.47-.6-7.37-9.83-7.37-9.83-3-2.76-5-1.97-7.14 0-5.92 5.72-8.6 16.4-12.6 23.77-1.05 1.65-3.98 3.06-7.22-.1-8.24-11.27-3.4-27.3-4.44-23.17zM309 126.67c3.77 1.58 6.43 9.22 5.57 12.96-.75 4.6-2.75 9.6-4.2 8.95-1.56-.58 1.07-4.6-.43-8.8-.84-2.73-5.98-7.74-5.44-9.2-1.07-3.1 2.2-4.46 4.5-3.9zM356.55 224.96c.8-9.18-.55-14.78-.78-20.17s-6.1-46.57-7.3-50.65c-1.43-7.72 5.7-1.04 4.92-5.53-2.47-5.66-8.62-13.9-10.54-18.8-1.16-2.12-.68-4-3.28-.57-2.4 7.88-3.24 14.32-2.32 19.2 6.2 32.3 12.53 59.15 11.53 89.9 2.92 0 6.3-6.73 7.75-13.4zm64.47-85.28c3.44 1.7 5.46 11.3 5.08 14.03-.7 5-2.52 10.4-3.83 9.7-1.42-.63.3-7.4-.4-9.52-.76-2.97-5.45-8.38-4.96-9.98-.95-3.35 2-4.8 4.12-4.22zM165.35 207.6c3.3 1.26 5.22 8.3 4.86 10.3-.65 3.68-2.4 7.65-3.65 7.13-1.36-.46.27-5.45-.38-7-.28-3.76-4.85-5.7-4.75-7.33-.85-2.98 1.9-3.53 3.93-3.1z"/><path fill="#1b9d00" d="M244.86 218.17c4.25.27 6.37 3.6 2.4 5-3.93 1.34-7.7 2.4-7.72 8.06 1.45 7.9-2 5.2-4.05 4.12-2.43-1.74-9.2-5.92-10.18-14.95-.15-2.15 1.53-3.97 4.24-3.96 4.07 1.1 10.1 1.2 15.3 1.73z"/><path fill="#fff" d="M77.4 124.4c4.85 1.45 5.14 8.6 4.78 10.68-.64 3.8-2.36 7.92-3.6 7.38-1.34-.48-.05-5.65-.7-7.26-.72-2.25-4.82-6.38-4.35-7.6-.92-2.54 1.88-3.66 3.87-3.2zm95.88 33.63c-3.73 2.02-5.17 8.02-2.85 11.52 2.17 3.08 5.6 1.94 6.04 1.94 3.65.44 5.82-6.86 5.82-6.86s.1-2.05-4.23 1.83c-1.82.34-2.05-.34-2.5-1.37-.4-1.9-.3-3.8.56-5.7.65-1.83-.76-2.62-2.85-1.37zm27.94-36.4c-1.87 1.25-5.6 5.12-5.7 9.56-.13 2.5-.6 2.5 1.05 4.1 1.2 1.7 2.38 1.55 4.78.3 1.38-1.02 1.84-1.7 2.3-3.4.58-2.84-3 1.36-3.46-1.8-.8-2.96 1.5-4.17 3.66-7.02.07-1.95.03-3.33-2.64-1.75zm22.5 4c-.8 1.78-1.76 11.1-1.6 11.1-.65 2.77 2.9 3.95 4.5.4 2.43-6.55 2.43-9.32 2.6-12.1-.76-4.22-3.6-4.1-5.5.6zm141.93 72.22c.48-.48 20-14.35 20-14.35 2-.7 1.56 7.15.64 7.1.37 1.55-19.25 14.88-20.65 14.35-.97.7-1.94-5.38 0-7.1zm17.8-.12c3.43 1.7 4.8 11.77 4.42 14.5.12 5.33-3.31 9.6-4.63 8.9-1.42-.63.13-6.6-.56-8.72-.76-2.95-3.68-8.53-3.2-10.13-.95-3.34 1.85-5.13 3.96-4.54zm-116.08 43.34c1.36-1.98 5.55-4.84 5.64-4.84 1.95-.97 3.84.76 3.72.65.33 1.93-1.22 3.73-.74 6.3.43 1.05.74 2.2 2.64 1.77 3.1-2.44 5.97-2.6 9.07-2.75 2.36.14 2.46 4.16.96 4.2-5.72 1.24-8.3 2.77-12.37 4.33-1.95 1.13-3.6-.3-3.6-.47s-1.14-1.1-.35-3.66c.14-2.06-.7-3.18-2.4-2.95-1.3.7-2.43 1.16-3.07-.32-.26-1.1-.34-1.63.5-2.26zm136.6 5.42c.84 1.05 1.38 2.04-.07 3.8-1.37 1.24-2.33 1.93-3.7 3.2-.64 1.1-1.06 2.76.92 3.3 3.65 1.02 12.1-4.46 12.1-4.57 1.36-1.02.9-2.96.78-2.96-.8-.92-2.6-.37-3.8-.52-.58 0-2.46-.3-1.57-1.96.75-1.05 1.02-1.7 1.53-2.97.57-1.25.08-2.1-1.97-2.77-2.1-.38-2.94-.2-5.26 0-1.25.26-1.68.82-1.9 2.34.08 2.3 1.5 2.18 2.93 3.1z"/><path fill="#259f00" d="M268.12 189.74c-.54.93-2.35.88-4.04-.1s-2.64-2.52-2.1-3.45 2.34-.9 4.03.1 2.65 2.52 2.12 3.44zm-89.07-53.6c-1.02.26-2.34-.65-2.96-2s-.32-2.68.7-2.93 2.34.67 2.96 2.03.3 2.67-.7 2.92z"/><path fill="#209000" d="M355.24 374.97c9.35.46 18.14.1 27.5.56 1.68 1.44.47 4.98-.66 4.73-3.04-.08-4.8-.16-7.83-.23-.1-2.98-7.7-2.5-7.5.1-4.1.5-7.8-.15-11.9-.3-1.2-1.5-1.06-4.24.4-4.86z"/></g></svg>