<svg xmlns="http://www.w3.org/2000/svg" width="640" height="480"><defs><clipPath id="a"><path fill-opacity=".67" d="M0 0h640v480H0z"/></clipPath></defs><g fill-rule="evenodd" clip-path="url(#a)"><path fill="#fff" d="M-20 0h720v480H-20z"/><path fill="#df0000" d="M-20 0h720v240H-20z"/><path fill="#fff" d="M146.05 40.23c-33.24 7.62-57.94 32.23-64.93 65.7-9.48 45.47 20.13 90 65.7 99.5-46.04 13.1-93.6-13.35-106.6-58.95S53.68 53.32 99.28 40.32c16-4.56 30.74-4.6 46.77-.1zM132.98 109.95l4.9 15.12-12.94-9.23-12.87 9.32 4.78-15.15-12.83-9.34 15.88-.14 4.93-15.1 5.03 15.07h15.9zM150.54 162l4.9 15.13-12.94-9.23-12.87 9.32 4.78-15.14-12.82-9.36 15.88-.14 4.93-15.1 5.02 15.07 15.9.02zm58.42-.36l4.9 15.12-12.93-9.23-12.87 9.3 4.78-15.13-12.83-9.35 15.88-.14 4.93-15.1 5.05 15.07 15.88.03zM226.4 110l4.9 15.12-12.95-9.23-12.87 9.3 4.8-15.14-12.85-9.35 15.88-.13 4.94-15.1 5.03 15.06 15.9.03zm-46.26-34.26l4.9 15.12-12.94-9.23-12.87 9.32L164 75.8l-12.82-9.35 15.87-.14L172 51.2 177 66.3l15.9.02z"/></g></svg>