<svg xmlns="http://www.w3.org/2000/svg" width="640" height="480"><path fill="#006" d="M640 480.02V.02H0v480h640z"/><path fill="#fff" d="M0 73.34h76.03L0 26.77V.03h43.5l106.36 64.72V.03h59.9v64.72L316.1.03H360v26.74l-76.42 46.57h76.4v73.37h-76.4l76.4 46.58v26.75h-43.87L209.76 155.3v64.73h-59.9V155.3L43.5 220.03H0v-26.75l76.03-46.57H0V73.35z"/><path fill="#ce1126" d="M331.7.03L211.5 73.4h28.76L359.97.02h-28.3zm28.3 220L240.18 146.7h28.9L360 202.56v17.48zM120.38 73.37L-.02 0v17.53l91.38 55.84h29.02zm-.25 73.32L0 220h28.73l120.16-73.3h-28.77zM0 88.56H162.6V.03h35.2v88.53h162.17v42.96H197.8v88.5h-35.2v-88.5H.02V88.56z"/><path fill="#8fc5ff" stroke="#fff" stroke-width="4.49.112" d="M602.1 265.94c-.2 73.28-11.77 152.22-106.6 189.83-94.86-37.6-106.42-116.55-106.63-189.83H602.1z"/><path fill="#366cc9" stroke="#000" stroke-width="4.49.102" d="M495.46 455.78c43-17.05 68.88-42.6 84.34-72.26-2.3.1-7.16-.05-9.26-.2-2.33-.14-90.94-9.05-101.43-12.9-9.12-3.34-43.95 2.85-60.2 8.66 15.16 31.55 41.43 58.8 86.56 76.7z"/><path fill="#5d3100" stroke="#000" stroke-width=".6196200000000001" d="M429.2 410.32c1.45-.47 4.22-.35 5.3-.16 1.3.24 1.52.35 2-1.05s1.5-1.04 2.32-.34 2.92.35 3.73-.8c.82-1.18 1.05-1.06 1.87-.25.82.83 1.17.6 1.98.36.82-.23 2.22-1.16 2.92-2.44s1.74-1.75 2.33-1.05 1.16 1.05 1.98.93 1.05.7.93 1.75c-.1 1.05.35 1.28 2.33-.35 1.74 1.75 2.32 1.05 2.32-.82 0-1.86-.46-8.74-1.16-9.67s-1.4-3.6-1.52-5.7c-.22-3.97-.23-4.2-5-6.65 0-1.4-.36-2-3.74-1.75.12-.47-.47-1.87-1.17-2.45s-.8-.82-.46-2.45c1.4.12 2.9-.12 3.73-1.28.8-1.17 3.5-.94 5.13-.24s3.73.82 6.88.35c1.17-.93 3.16-1.98 5.25-3.14 2.1-1.18 2.68-1.65 2.8-3.28.3-4.2-1.17-8.98-2.33-11.2-1.17-2.2-1.52-5-3.15-8.5-1.77-3.82-1.75-4.8-3.73-7.12-.54-.64-1.17-1.16-1.28-2.44-.12-1.3-.6-3.04-1.98-4.32-3.53-3.23-4.9-13.64-6.3-21.34-.8-4.4-.23-14.8-2.1-16.44-3.15-2.56-4.66-2.1-6.76-2.9-1.52-2.1-2.2-6.3-3.6-10.04-2.23.35-3.74 2.68-5.26 3.5s-1.75.8-1.75 2.9c0 2.1-1.16 5.03-3.25 8.3-2.1 3.25-5.6 2.33-8.5 7.22-6.43-7.8-6.54-10.03-7-12.24-.48-2.22-1.53-2.68-5.14-5.83 0-.94-.46-4.66-.1-6.76-2.7-2.2-4.67-1.86-5.95-.23-1.28 1.64-2.22 4.08-4.2 5-1.2 1.53-4.77 5.34-7.7 9.88 2.66 40.58 11.82 80.86 39.35 113.07z"/><path fill="#ff0" stroke="#fff" stroke-width="4.49.08" d="M602.1 265.94c.08-27.6-1.45-54.4-.75-77.88-35.45-15.86-82.08-19.12-105.86-19.12-23.8 0-70.43 3.26-105.87 19.12.7 23.48-.83 50.28-.76 77.88H602.1z"/><path fill="#cf6200" d="M394.6 297.9c1.18 1.85 3.28 5.06 3.5 6.8.83-1.68 1.47-2.44 1.65-3.5s1.4-3.08.93-4.2-.82-1.97.46-1.15c1.28.8 1.04 2.23.76 4.3-.76 5.72-3.15 6.9-3.5 10.74 3.44 8.1.88 11 4.6 18.94.6.35 2.15-.28 2.6-.16 2-1.4 3.47-.9 6.27-.3 2.8.57 4.3 2.55 4.3 4.3s0 2.22.6 3.27 1.75 2.68 1.5 3.85c-.22 1.16.25 1.86.6 2.44s-.12 1.87-.47 2.7-.23 1.85 1.17 3.6 4.66 9.1 4.66 13.4c0 4.33.23 6.3 1.98 7.12 1.76.82 2.34 1.52 2.1 3.38s.83 11.55 1.06 13.06.82 1.17 1.52 2c.7.8 1.16 1.73 3.5 1.73s4.57-.3 6.1-.07c2.1 2.9 3.37 6.87 3.84 9.32s.43 5.8 1.24 5.8 1.64.1 1.4-2.92-.46-3.5-1.5-5c-1.06-1.53-1.65-2.23-1.06-3.16s.7-2.45.46-3.62-.58-2.9 1.4-.58c2 2.33 2.57 2.92 3.15 3.73s.82 2.34.7 3.74c-.1 1.4.12 1.97.94 1.27s1.87.47 1.4 2 .12 2.44 1.52 2.9 1.98.82 2.33 1.87 1.5 1.52 1.5-.57c0-2.1-.8-6.54-1.4-7.93-.58-1.4-1.04-4.43-1.16-6.18s-.47-2.22-1.28-2.57-1.52-.93-1.64-1.75-.8-1.1-1.34-1.1-.98-.4-1.28-1-.58-.64-1.16-.7-1.52.3-1.8-.64-.7-2.27-1.3-3.03-1.1-1-1.16-3.6c-.06-2.64-.12-3-.93-3.92s-2.22-3.37-2.8-4.42c-.58-1.05-1.16-2.1-1.16.12 0 2.2 0 3.38 1.38 4.2 1.4.8 1.75.8 1.17 1.98s0 1.98.23 2.8.7 1.63 0 2.44c-.7.82-1.4.6-1.28-.7.1-1.28-.35-2.8-.93-3.84-.58-1.05-1.05-1.75-1.75-1.17s-1.28-.1-.82-.57.35-.82 0-1.17-.46-.7.12-1.4.58-1.05.23-2.68c-.35-1.63-2.9-9.8-4.08-11.66s-1.05-3.27.47-1.4 2.8 3.5 2.9 5c.13 1.53.48 2.46.95 3.05s.8.35 1.04-.94 1.16-.8-.47-3.26c-1.63-2.45-4.67-6.53-5.83-13.88s-1.64-12.25-2.8-14.23c-1.16-1.98-1.5-2.45-1.63-4.32s0-3.73-.8-5.12c-.82-1.4-1.4-1.64-1.52.46-.12 2.1.1 6.75.7 7.57s.23 2.9.1 4.08-1.94 2.32 1.88 4.67c1.52.93 1.28 2.2 1.05 3.03-.22.8-.46.7-1.27-.58-.82-1.3-1.64-2.34-2.45-3.04s-.94-1.16-.82-2.8.47-2.8 0-3.38c-.47-.58-.7-.1-.93.82-.24.93-.47 3.5-.94 4.2s-.7.23-1.06-1.3.12-3.83.94-6.52 1.28-5.48.58-8.97c-.7-3.5-.35-4.55-3.03-7.47-2.68-2.9-5.7-5.7-7-9.3-1.28-3.63-1.5-6.78-2.9-8.4-1.4-1.64-3.4-3.74-4.67-4.32v-5.37c0-1.27-.6-2.1-2.1-1.85s-2.45 1.5-3.38 3.26c-.93 1.76-1.63.94-2.92 3.98s-3.15 4.54-3.15 7.8zM403.05 332.08c.93.58 1.82.97 3.22.27s3.08-2.72 4.94-.73c1.87 1.97 2.92 5.24 2.92 7.8 0 2.57 0 7.35 2.92 10.03 2.92 2.68 4.43 5.48 4.54 8.98.12 3.5 1.4 8.86 1.75 10.26.35 1.4 1.17 3.02 2.1 3.95s1.64 3.62 1.75 6.42c.12 2.8-.35 4.78 0 6.18s0 2.56-1.05 1.86-1.28-1.04-1.86-2.2-1.3-.94-.7.8 2.33 3.4 3.85 3.4 1.98.23 2.9 1.16c.94.93 1.06 1.4 2.7 1.4s1.86 0 3.37.47 1.5.23 2.33 0 1.62.46 2.2 1.98 2 5.72 2 6.9 0 2.32.8 3.5.6 2.32-.34 1.62-.95-.47-1.65-.35-1.16-.23-2.1-.82c-.92-.58-.34-.46-1.27-1.86s-1.52-1.88-1.52-.83-.12 2.33-.82 1.75-1.05-.58-1.63 0-.8 1.05-1.5-.12-1.52-1.16-2.22-1.4-.7-.23-1.05-1.28c-.35-1.05-1.4-1.28-2.33-1.28s-1.4-.47-1.52-1.17c-.1-.7-.7-1.16-1.16-1.5s-.24-1.18-.35-2-.82-.46-1.3-.7-.8-.1-.8-1.28-.47-1.52-.82-2.34c-.35-.82 0-1.63.23-2.56.24-.94.12-1.52-.57-2.34-.7-.8-.1-1.63-1.98-3.26s-2.8-.23-3.38-4.08c-.58-3.85-1.75-11.78-2.8-13.06s-1.75-2.22-2.8-2.57-1.75-.12-1.86-2.34c-.12-2.2-.82-5-2.22-6.4s-1.98-1.88-2.68-2.46-.93-1.63 0-3.6c.93-2 .58-4.68.47-5.96-.12-1.28-.47-2.9-.24-4.3s.13-3.16-.22-4.1-.82-1.16-.23-1.86zm28.08-33.16c-1.58 2.03-3.26 3.73-5.44 5.3-2.18 1.54-4.98 2.8-3.43 5.43 1.56 2.64 2.8 2.95 3.1 4.97.32 2.02.8 3.74 2.34 4.2 1.57.47 2.2.16 2.2 3.42s0 4.5 1.4 5.75 1.23 2.48 1.85 5.44c.62 2.95.62 9.32 2.5 13.68s6.05 12.6 5.6 14.3-1.1 2.95.76 4.97c1.88 2.02 3.12 4.97 3.28 6.68.15 1.7.47 2.33 2.33 1.7 1.87-.6 2.8-1.24 3.43-2 .62-.8 1.86-.63 3.58.3 1.72.93 4.36 1.86 5.9.93 1.57-.92 2.34-2.32 3.74-2.32 2.18-1.56 2.95-4.82 3.42-5.75.47-.93.16-.93-.78-1.87s-.46-2.5-.62-4.04c-.15-1.56-.77-3.9-2.64-7.3-1.86-3.43-2.95-7.63-4.2-8.7-1.24-1.1-1.86-3.75-2.02-5-.15-1.23-1.55-2.32-2.48-3.25-.94-.93-1.87-2.33-2.96-7.78-1.1-5.45-1.86-9.33-1.86-10.27s-.16-1.1-1.1-1.4-1.4-1.86-1.08-2.64c.3-.8-.3-1.56-.62-2.5s0-2.64.62-3.57c.62-.94.47-3.58-.15-5.75s-1.25-4.05-3.74-4.36c-2.48-.3-2.95-.93-3.88-2.95-.93-2.02-1.87-5.6-2.18-6.38-.3-.78-.77-.94-2.64.62-1.87 1.55-2.5 2.06-2.5 4.97 0 1.86.32 2.48.94 3.57.63 1.08.78 1.4 1.25 4.35s3.1 7.62-.3 10.26c-3.43 2.64-2.97 3.27-2.8 5.13.14 1.88-.94 3.12-1.57.48-.62-2.65 0-4.2 1.87-5.44 1.87-1.25 3.58-2.8 2.33-4.5-1.24-1.72-1.7-5.76-1.86-7.63s-.48-2.48-1.57-1.08z"/><path fill="#00b800" d="M403.4 338.54c-.08 1.26.2 2.65.3 3.77.12 1.3.47 3.98-.46 5.96-.94 1.98-.7 3.03 0 3.6.04.04.07.08.1.1 1.9-.63 2.16-2.75 1.65-3.78-.56-1.1-.4-2.4.22-3.5s.62-1.7.08-2.5c-.55-.76-.55-.76.07-2.94.55-1.9-.83-1.9-1.97-.7zm19.92 30.15c-.35-1.4-1.63-6.78-1.75-10.27-.1-3.5-1.62-6.3-4.54-8.98-2.27-2.1-2.77-5.46-2.88-8.06-1.7-1.05-2.43-.58-2.3 1.36.17 2.1 2.26 3.1 1.96 6.14-.3 3.04-.3 2.26 1.17 3.74s2.02 2.87 1.24 3.5c-.76.6-.84 1.7.25 2.1 1.08.38 1.16 1.55 1 2.63-.15 1.1.86 1.33 1.48 2.1.63.78.7 2.65.08 3.74-.6 1.1-.7 2.8.4 1.87 1.1-.93 1.56-.08 2.4 1.4.75 1.27 1.37.87 2.17.5a9.84 9.84 0 0 1-.65-1.78zm15.17 27.13c-.7 1.4-1.53.94-2.23.24s-1.5-.7-1.16-2 .24-1.5-.7-2.2c-.1-.08-.2-.16-.32-.23-.3 0-.63 0-1.07 0-1.63 0-1.74-.47-2.67-1.4a7.84 7.84 0 0 0-.58-.53c0 .24 0 .53 0 .88 0 1.3 0 1.05-1.3 1.4s-1.04-1.28-1.27-2.33a3.85 3.85 0 0 0-.2-.63c-1.4-.27-2.9-1.75-3.42-3.33-.58-1.76.12-2 .7-.83s.82 1.52 1.87 2.22 1.4-.48 1.05-1.88c-.1-.45-.14-.97-.13-1.55-.25-.45-.6-.82-1.04-1-1.85-.83-1.27-1.06-1.15-2.58.1-1.52-.24-1.52-1.4-.7-1.17.8-1.3-.13-1.3-2.46s-1.5-2.33-1.85-.7c-.35 1.64-.93.6-1.63-1.75s-1.63-2.92-1.75-.7c-.1 1.87-.62 2.32-1.84 1.28.2 1.35.4 2.62.56 3.6.58 3.86 1.5 2.46 3.38 4.1s1.28 2.44 1.98 3.26c.7.82.8 1.4.58 2.33-.23.93-.58 1.75-.23 2.56.35.82.8 1.17.8 2.34s.36 1.05.83 1.28c.3.14.67.06.94.18.3-.4.58-.88.93-1.23 1.4-1.4 3.5.12 4.2 1.87s1.5 2.2 2.56.8.7-1.15 1.87.13 1.63 1.05 1.63 1.05 1.17-.47 2 .23 1.27.6 2.78-1.63c1.52-2.22-.7-1.52-1.4-.12zm4.1-63.98c.48-3.42.17-6.84 1.57-8.08 1.4-1.24 3.1-3.73 2.95 1.55-.15 5.3-.3 4.98-1.4 6.22-1.1 1.25-2.02 1.55-.93 3.58 1.08 2.02 1.23 2.18 1.08 5.28-.16 3.1-.16 4.36 1.1 5.9 1.23 1.57 1.54 1.72 1.85 3.43.3 1.7 1.4 4.04 2.8 5.3s2.95 4.8 3.1 7.3c.16 2.48 2.34 3.1 4.36 4.82 2 1.7-.47 2.95-2.03 2.17-1.55-.77-.93 0-1.87 1.1-.93 1.08-1.24 1.23-2-.63s-3.44-3.12-4.68-3.6-2.33-2.48-3.42-4.5c-.93-1.73-2.78-3-4.47-3.13.47 1.3.72 2.33.6 2.82-.48 1.7-1.1 2.95.76 4.96 1.86 2.03 3.1 4.98 3.26 6.7.15 1.7.46 2.32 2.33 1.7 1.85-.62 2.8-1.24 3.4-2.02.63-.78 1.87-.62 3.58.3 1.7.94 4.36 1.88 5.9.94 1.57-.93 2.34-2.33 3.74-2.33 2.18-1.55 2.95-4.82 3.42-5.75.47-.93.16-.93-.78-1.86s-.46-2.5-.62-4.05c-.15-1.56-.78-3.9-2.64-7.32-1.86-3.4-2.95-7.6-4.2-8.7-1.24-1.1-1.86-3.73-2.02-4.98-.15-1.24-1.55-2.33-2.5-3.26-.92-.93-1.85-2.33-2.94-7.77-.85-4.26-1.5-7.55-1.76-9.24-1.1 1.78-1.88 2.22-2.28 1-.47-1.4-1.1-2.18-1.7-1.25-.63.94-.8-.77-.8-1.55s-.14-.93-.92-.93-.16-1.25-.47-3.58c-.3-2.33-.77-2.64-1.07.16-.3 2.8-1.87 4.5-1.25 5.13.62.63.3 1.87-.3 3.74-.63 1.86-.32 2.95.15 4.2s-.3 3.57-.63 5.6c-.3 2 1.25 4.03 1.72.6zm-28.38-27.9c-1.16.08-1.95 1.1-1.3 4.62.43 2.2-1.23 1.7-1.85.62-.62-1.1-1.1-3.43-2.33-5.45-1.25-2.02-.62 1.4-.78 3.26-.15 1.88 1.1 1.88 2.18 3.43 1.08 1.56.15 2.18-1.1 2.18s-.6 2.5-.3 4.2-.3 2.03-1.25.63c-.94-1.4-.32-3.57-.16-6.22.15-2.63.3-2-1.4-2.63-1.7-.62-1.4-.93-.78-2.5.62-1.54 1.25-2.32.47-3.1-.78-.78-.62-1.24.62-1.4 1.24-.15.78-1.08 1.87-1.4 1.1-.3 1.55.16 1.7-1.86.14-1.68.7-2.7 1.97-2.2.75 2.6 1.74 6.64 2.42 7.85zm15.65 18.3c0 3.27 0 4.5 1.4 5.75s1.25 2.5 1.87 5.44c.62 2.96.62 9.33 2.5 13.68.54 1.3 1.3 2.95 2.1 4.66 1.03-.8 1.92-2.2 2.24-2.94.46-1.1-.93-3.27-2.02-5.13-1.1-1.86.15-2.48 1.24-4.82 1.1-2.33-.15-2.48-1.86-3.1-1.7-.63-1.7-2.18-2.65-4.67s-.78-3.56-.16-4.96.15-2.5-1.1-2.8c-1.23-.3-.92-1.25-.46-2.8.47-1.56.78-1.87-1.08-1.4-1.42.35-1.76.62-2.18 1.13.1.45.15 1.07.15 1.98z"/><path fill="#5d3100" d="M447.77 328.76c-.17 1.86-.15 2.8-.62 3.42-.46.62-.15 1.55.32 2.5s.77 2.16.3 3.87.3 3.1 1.25 3.58 1.4 0 1.1 2.17c-.33 2.18.92 4.5 2 5.45 1.1.93 1.87 2.48 1.72 3.42-.16.93.78 1.86 1.86 2.33 1.1.46.94.62.94 1.24s.46.62 1.7.93 2.18 1.1 3.58 2.8 3.42 2.65 3.1.78 0-3.1-1.86-4.04c-1.86-.93-3.26-5.44-4.04-8.54-.78-3.1-3.26-7.3-4.66-8.08-.16-2.2.16-3.27-1.24-4.36-1.4-1.1-1.87-2.5-1.87-3.58s-.78-2.48-1.4-2.8c-.62-.3-.93-1.08-.93-2.02s-1.1-.77-1.25.94z"/><path fill="#00d860" d="M439.52 412.16c2.8-.23 10.38-2.45 11.2-3.15 1.85 1.3 5.12 3.05 6.52 3.05-2.68.58-4.43.23-5.13-.24.36.83 1.3 2.1 1.87 2.23-2.56-.12-5.47-.7-6.4-1.63-2.22.93-5.96 1.16-8.05-.24zm5.02 3.5c1 .3 5.95 1.1 6.6 1.1-1.64 1.4-.24 2.75 2.5 2.52-1.34.17-2.8.68-1.8.87 2.38.47 8.85-1.28 10.13-1.98-2.2 2.86-13 5.48-17.43-2.5zm4.45 7.1c1.32-.7 4.65-.47 6.22.28-1.75.65-5.2.65-6.23-.3z"/><path d="M453.96 422.66c2.4-.4 9.16 1.23 11.55-.23-.8 2.16-5.07 2.45-6.52 1.98-1.46-.45-2.86-1.04-3.85-.98.53-.3-.35-.35-1.16-.76z"/><path fill="#00d860" d="M456.43 425.98c1.8.3 8.28-.52 10.26-1.28 2.1.7 6.23 1.8 7.16 1.7-1.98 1.2-5.77.5-7 0-3.5 1.15-6.35 1.5-10.43-.42zM459.53 427.06c2.6.58 4.8.17 7.34-.7.8.35 2.67.77 4.43.7 1.17.66 2.74 1.6 4.26 1.7-1.58.65-7.35 0-8.5-.64-2.93.06-7.94.7-9.16 1.7-.06-.82.47-1.96 1.63-2.76z"/><path d="M456.43 413.9c2.02.7 9.33.36 13.06-1.4 1.46-.68 2.37.48.7 1.06-6.07 2.1-10.86 2.92-14.35 1.05-1.38-.72-1.52-1.4.58-.7z"/><path fill="#00d860" d="M492.23 404c-8.97 4.2-14.92 5.48-27.4 1.63-1.16-.36-1.98 0-.7.82 1.3.8 8.16 2.68 9.8 2.8s1.05.87.06 1.16-1.3 1 .04.48 8.84-.73 11.9.87c1.33.7 1.68.58 1.57.06s.6-.87 1.58-.98 1.58-.47.82-.76-.88-.47-.3-.76.65-.58-.23-.76-1.45-.4-.64-.8c.82-.42 2.04-.7 2.98-.83.24-.63-.17-2.32.53-2.9z"/><path d="M477.3 405.07c5.13.37 14.57-1.98 19.58-6.87 1.75 1.04 4.2 2.2 5.48 2.44s2.45 1.4.47 1.4-4.78-.8-6.06-1.4c-6.65 4.1-14.43 5.43-19.36 5.02-1.4-.12-1.74-.7-.1-.6z"/><path fill="#00d860" d="M462.13 377.08c1.75 1.22 4.84 3.26 8.86 2.97 1.97 1.57 5.06 2.9 6.46 3.2-2.68 1.12-5.6 2.05-6.35 2.92-1.22-1.16-2.8-1-3.2-1.57-1.16.93-1 1.5-.23 1.98s6.64 1.46 8.1 1.05 1.85.8.64 1.22c-3.14 1.1-9.25.06-11.35-3.32-2.1-3.38-3.9-4.66-9.62-1.57-.64-1.64-.64-2.04-1.75-2.04s-3.15-1.46-1.58-1.4 6.24-.65 10.03-3.44zM463.52 384.57c-.97.24-3.73 1.75-4.72 1.87-1 .1-2.74 1.5-.93 1.57 1.8.07 4.13-1.9 5.42-2.1s1.4-1.62.22-1.33zm5.65 5.92c-.7.1-3.67.8-4.48.75s-1.65.18-1.6.76.3.94-.92.83-2.28.35-2.57.7-.5.7.7.8 1.88.25 3.28-.4 2.74-1.63 4.26-1.7c1.5-.05 3.03-2.03 1.33-1.74z"/><path d="M465 394.08c1.27.83 7.58 2.98 9.85 2.8s1.85.9.12 1.3c-3.56.74-7.9-.8-10.84-3.16-1.46-1.17-.12-1.58.87-.94z"/><path fill="#00d860" d="M494.83 397.18c-4.82 1.54-9.73 1-11.7.46s-3.8-.64-2.46.65c1.34 1.27 5.65 2.14 8.1 1.5-8.7 1.98-10.96 1.8-13.1 1.46-2.17-.35-6.22-.28-7.94-.12-1.28.12-3.03-.06-3.8-.52s-.98-1.35 1.3-1.1c2.26.22 2.56-.25.57-.54s-4.72.53-2.04 2.22 8.57-.12 12.3.93c3.73 1.05 11.66 1.8 19.18-4.26.4-.3 1.05-1.16-.4-.7zm-23.68-7.1c.17.6.17 1.23 0 1.64s-.18.94.58.35 1.22-1.28 1.98-.87 2.7.35 3.57.23c.88-.12 1.16-.3-.12-.82-1.28-.5-2.56-.7-3.26-.63s-1.6-.1-2.17-.35-.76-.1-.58.47zM483.57 392.33c-1 .06-2.74-.58-3.67-1s-2.27-.45-1.28.9c1 1.33 5.3 2.1 6.82 1.45s.88-1.35 2.4-.4c1.5.92 3.08 1.56 4.2 1.56s1.5 0 .28-.7-1.8-.87-1.93-1.46-.3-.93.8-.58 2.4 1 3.28.53 2.5-1.52 3.96-1.52l.35-.87c-2.1-.17-3.45.47-4.03.7s-1.64.35-2.74.18-2.57-.28-2.92-.58-.34-.52.6-.7 1.22-.8-.06-.58-4.72.12-6.53-.47c-1.8-.57-2.56-.63-3.32-.35-.75.3-.64 1.1.47 1.17s3.62.28 4.5 1.1.75.87-.24.47-2.8-.18-.93 1.16zM498.78 390.22l-.35.88c2.16-.06 7.4.47 9.1 1.52 1.63-1.3 1.34-1.7 2.5-1.46s2.63.64 3.27.3 1.1-.3 1.8-.2c.7.13 2.22-.16 3.1-.7s2.68-1.2 3.73-1.2 2.32-.24.4-.54c-1.92-.3-4.84.3-5.83.65-.98.35-3.96.58-5.7.58s-4.14.87-6.13.35-4.72-.18-5.9-.18z"/><path d="M525.8 389.2c-3.5 2.56-7.7 3.14-12.72 3.5-1.45.1-1 .5.24.63 5.24.53 11.3-1.4 13.3-3.5.56-.6.5-1.6-.83-.64z"/><path fill="#00d860" d="M501.97 395.16c1.5.06 6.76 1.4 8.45 1.98 1.28-.1 1.63-.4 1.4-.87s-.4-1 1.92-.88c2.33.1 7.7.05 8.7.05.8-.35 2.6-1.75 3.43-1.8-2.1.1-10.84.58-11.95.46s-1.7 0-2.4.42-1.1.58-1.98.23-2.45-.8-3.32-.3c-.87.54-2.68.07-4.25.7zM522.42 395.43c.82-.35 2.62-1.75 3.44-1.8 1.52-.13 3.27.52 4.08.63s1.7-.06 1.1-.7-.05-1.75 2.34-1.46c2.4.3 3.62.7 5.95.47s3.38 1.52 7.8-.23c-.34 1.75.48 1.86 1.3 1.5s1.74-.22 3.14.83 9.9 1.17 11.9.82c1.97-.36 3.02.7 1.5 1.15-1.5.47-1.86 1.17-1.5 1.64.34.45.7 1.03-1.17.8-1.87-.23-2.22.35-3.15 1.05s-1.17.93-3.73.47c-2.57-.47-3.03-.12-4.43.1s-1.76.25-3.16-.22-4.43-.93-6.3-.35-3.26 1.16-4.9.7-1.74-.23-.7-1.28 1.3-.94 3.27-1.17c2-.23 3.5-.8 2.1-1.63s-1.85-.7-3.72.23-2.8 1.52-4.9.35c-2.1-1.16-3.14-.93-4.54-.58s-3.73-.47-5.7-1.34zm7 3.5c-2.67.38-3.38-1.34-6.17-1-.94.13-2.5 1.3-.35 1.1 2.15-.16 4.48 1 6.58.83s1.17-1.1-.06-.93zm-3.1 2.02c1.4-.5 4.32.46 5.55.23s2.4.53 1.1.93-4.37-.74-5.77-.34-2.8-.1-.87-.8zm-27.85 7.53c1.92.07 8.86-.23 11.6-6.06.2-.45.4-.64 1.28-.06s4.08 2.5 10.1 3.04c1.67.15 3.5 1 .1.76S512.8 405 511 403.88c-3.03 4.78-8.48 5.35-12.53 5.25-2.45-.06-1.86-.7 0-.64zM513.45 400.54c-.93 1.3-4.14 3.5-5.6 3.62-1.45.12-5.82-.3-6.93-.7s-2.45-.3-.88.82 5.48 1.86 7.05 1.5c1.57-.34 3.38-.86 4.6-.1s3.5 2.2 4.84 1.92c1.34-.3 4.08-.3 4.96.1.87.42 2.4 1.65.1.95s-4.13-.12-5.18-.6c1.17 1.65 3.8 4.27 6.07 4.27.5 0 .86.94-.25 1.46 1.1.52 3.67.93 5-.3-.34.48-.16.77.42 1.06s1.3.7.24.8-3.43.42-4.13.13c2.27 1.46 8.16 3.8 14.16 2.62 1.15-.23 1.75-.7-.1-.65-3.86.12-4.1.06-4.8-.35-.7-.4-.57-.75.53-1.1 1.1-.35 3.9-.76 5.07-.76s2.34-.47-.05-.47-5.3 0-6.47-.4-2.04-.94-.8-1.76 2.5-.57 3.08-1.33c-3.85-.06-8.57-2.1-5.95-3.96.6-.43.4-.46-.58-.57s-3.9-.94-5.13-1.64-.4-1.3.58-1.46c-2.27.4-6.82-.82-9.85-3.1zm34.2-.1c-2.1 1.6-6.07 2.23-7.77 2.23s-1.92.58-.58.76 2.8.35 3.38.17.94-.23 1.8.18c.88.4 2.75.64 4.38.12s4.3-.76 5.42-.7 2.33.1.12-.53c-2.2-.64-5.83-.17-6.7.06s-3.27.06-2-.35 2.4-1.05 3.04-1.58c-.46-.1-.75-.23-1.1-.35zm-1.1 4.55c-1.8 1.33-4.42 2.6-7.1 2.72 2.45.88 4.5 3.38 6.06 3.27-.75.45-1.68 1.15-2.67 1.27 1.52.4 4.08-.06 6.18-1.22 3.5 1 8.05.35 9.57-.94-2.28 0-5-.8-6.24-1.85 1.1 0 2.16-.7 2.68-1.34-2.6.47-7.1-.8-8.44-1.9zM542.84 412.3c1-.12 1.92-.82 2.67-1.28-1.9.64-10.3-.7-12.8-2.92-2.5-2.2-2.5-.53-.77 1.05s4.84 3.97 10.9 3.15zm6.14 5.34c-1.05.58-6.06.93-7.7.58s-2.32-.17-1.9.47.57 1.2-.77 1.04-3.73.1-4.7.46c-1 .35-2.23 1.23-.13.88s4.02-.76 5.6-.35 7.16.52 8.27.06.35-.48-.17-.48-.76-.35 0-.7 1.34-1.34 1.5-1.98zm-48.5-6.78c-2.1.94-9.1 2.8-10.95 2.92-2.33 1.05-4.2 1.63-5.36 1.63.8.7 3.96 1.4 5.24 1.06-.7.7-2.32 1.5-2.9 1.86 1.86-.23 4.08.24 5 .35-2.44 1.4-5.82 1.87-7.57 1.64.6.82 1.4 1.64 2.45 1.64-2.2.58-4.9.58-6.3.12.6 1.16 1.17 1.86 2 1.98-1.88.23-4.2.58-6.2-.58 1.52 1.98 4.9 2.68 9.92 2.1 5-.6 9.2-2.8 10.38-3.74-2.1.24-4.9.35-6.3.12 2.8-.7 8.86-3.27 9.9-4.32-1.16 0-2.32-.35-3.14-.93 1.63.22 7.35-.47 9.1-1.17-2.1-.47-3.4-1.75-3.97-2.57 7.34 2.34 15.52 1.57 19.47.6.93-.25 1.05-1.43-.82-1.3-3.26.24-9.56-.7-11.2-1.5 1.53 1.15 3.4 1.85 4.68 2.1-3.04.8-7.23 1.4-13.4-2zM486.5 418.36c.57-.35 2.2-1.17 2.9-1.87-1.28.34-4.43-.36-5.24-1.06 1.16 0 3.03-.58 5.36-1.63-4.2-.1-7.1-.1-8.63-.92s-4.32-.6-5.37-.35-.7 1.98 3.73 1.5c-1.87 1.3-6.88 1.76-8.75 1.3.48 1.5.83 3.03.36 3.84 2.45 1.4 8.86 3.15 12 2.92-2.8-1.06-4.3-2.23-1.97-2.46s3.6-.7 5.6-1.28z"/><path d="M479.27 425.94c5.58-.47 13.05-.57 19-5.6 1.52-1.28 2.54-.85 1.05.47-3.14 2.8-10.96 6.65-18.42 6.77-3.04.05-4.43-1.4-1.63-1.63z"/><path fill="#00d860" d="M521.08 416.7c-1.4.52-5.3 1.16-6.47 1-1.16-.2-2.85-.25-3.78.34s-1 .93.3 1.05 2.9.22 3.72.16c-1.05.6-1.75 1.4-1.98 1.75 1.87-.45 5.3.36 6.3.95-.76.23-1.64-.06-2.28-.4 3.15 3.3 12.48 3.3 14 2.73-.7.52-1.35 1.05-2.05 1.22 2.62.47 5.65.4 8.63-1.34-1 .18-3.96-.1-4.72-.17a5.6 5.6 0 0 1 2.27-1.35c-1.15-.24-4.83-.12-5.7.35.35-.7 1-1.58 1.7-1.87-4.62 0-10.2-.06-12.25-1.17 3.26.35 6.88-1.57 8.4-1.57-2.57-.07-5.37-.65-6.07-1.7zm-11.7 2.55c-2.3.47-5.72 1.4-6.65 1.93s-1.93.82.1.82 7.6.23 8.8.4c-3.08-.46-7.27-.58-8.1-.58s-1.74-.06-.22-.52 3.5-1.52 6.07-2.05zm-4.63 5.43c.8 0 4.37 0 5.77-1.22 1.46 1.1 4.26 2.68 6.06 2.68 1.8 0 1.63.46.06.64-1.57.17-4.66-.76-6.24-1.92-2.1.75-3.84.1-5.65-.18zm-27 15.7c3.6 1.4 8.4 2.46 11.88 1.3 1.98 1.74 6.07 1.86 8.28 1.4 2.22-.48 4.2-.7 6.66.1 2.44.82 7.46.88 8.86 2.04-1.3.06-4.03 0-4.67.18-.64.17-.3.58.88 1.22-3.97-.23-10.8 1.46-12.88 3.27.75-1.82 3.08-4.27 6.76-4.27-2.1-.75-8.8-.8-10.95.53-.65-.7-1.4-1.87-1.46-2.33-3.57 2.03-10.56-.88-13.36-3.44zm-9.25-6.54c4.3-.62 7.23-2 8.5-3.27.77.7 3.92 1.4 7.36.35-.7.52-.76 1.52-.47 2.04-2.28.06-6.6 1.17-8.05 1.93-1.46.74-5.72 1.26-7.1.5-1.4-.75-1.47-1.4-.25-1.56zM483.9 432.98c-2.3.06-6.6 1.17-8.06 1.93.3.6.47 1.52.53 2.16 4.2-1.52 13.8-2.44 17.5-1.86-1.76.12-5.1 1.92-6.95 2.15 4.54-.35 8.98.6 10.14.88 1.17.3 1.4 1.16.53 1.98s-1.3.94.57 1c1.86.06 5.7-.17 7.46-1.86-.7-.76-2.5-.47-3.03-1 1.22-.4 2.62-1.28 3.15-1.92-3.15-.06-4.32-.12-5.37-.35-1.05-.23-1.8-.53-.52-1.22 1.28-.7 1.86-1.28 2.27-1.75-2.27.64-5.82 1.17-8.8-1.17 1.1.3 3.73.12 4.66-.3-1-.5-1.8-.92-2.63-.92 2.4-1.16 7.1-2.2 12.94.12 2.93-.23 6.08-.1 8.3.47.92-.94 2.9-3.16 3.95-3.74-6.87.58-19.23-.7-19-4.3-2.22 2.9-7.34 4.53-9.56 4.06-.24 1.05.7 2.34 1.5 3.04-2.33.46-6.3.8-8.15.46 1.05 1.05 3.02 2 4.2 1.87-2.45 0-3.74.46-5.66.28zM498.15 441.2c1.87.05 5.72-.18 7.47-1.87-.7-.76-2.5-.47-3.03-1 1.2-.4 2.6-1.28 3.14-1.92 4.9-.4 9.26-.16 11.36-.8 2.1-.64 7.46-.3 8.5-.6-4.65.77-5.58 1.18-5.82 1.93s1.52 1.4 2.63 1.4c-2.1-.1-4.72 2.1-4.95 2.98-2.8-1.62-4.14.3-4.43.94-1.16-.46-5-.35-7 1.34-2.56-.75-4.25-1.16-6.82-.75 1.58-.35 1.3-1.4-1.05-1.64zm22.4-13.65c1.57-.06 5 .12 6.23-.06-.82.4-1.87 1.16-2.1 1.5 3.96-.46 9.38-.75 10.96-.5-1.92-.3-3.9.92-4.9 1.56s-.4 1.05.93 1.23 3.15 1.2.7.86-7.28-.35-8.45-.17-1.8-.42-.1-.66 2.84-.8 3.66-1.28c-1.4.35-4.08.35-4.9.12s-1.34-.7-.4-.94.3-.58-.7-.46-3.5 1.16-4.9 2.5c1.5-1.57 2.85-2.97 3.96-3.73z"/><path d="M502.77 430.2c1.93 2.16 4.2 3.38 7.8 3.5.77.02 2.2 1.04.36 1.1-4.9.18-7.34-.98-9.5-4.13-.44-.65.38-1.55 1.35-.47zm29.2-40.78c2.58 1.2 7.76 2.27 11.8 2.1.7-.03 2.1.7.33.87-4.54.4-8.62-.24-12.4-2.34-1.06-.6-.7-1.1.28-.64z"/><path fill="#00d860" d="M534.58 389.37c3.96-.1 6.94-.06 8.16 1.1 2.27-.7 6.35-1.1 7.3-.92s1.97-.24-.2-.76c-2.15-.53-7.16-.7-8.73-.4-1.57.27-6.46.45-8.1.27.7.12 1.17.24 1.58.7zm15.4 1.57c1.86-1 7.22-.06 8.85-.76-1.17 1.4 3.73 1.52 8 .4-1.65 1.06-5.14 1.24-6.66 1.88s-2.33.17-3.5-.35-4.13-1.57-6.7-1.16zM566.84 390.58c-4.26 1.1-9.15 1-8-.4-1.62.7-6.98-.24-8.85.75 1.92-1.16 3.37-.23 4.77-2.62.88.2 2.92.3 3.62-.63 1.2.3 3.37.82 4 1.45.65.65 1.64-.17.82-1.16 1.93-.7.7.83 5.2-.3.93-.22 3.2-.63 3.96-.7-1.52 1.24-3.33 2.57-5.54 3.62z"/><path fill="#ff0" stroke="#000" stroke-width=".6196200000000001" d="M484.07 371.02c-.08-8.82-.93-82.65-.93-99.72 0-4.08-2.1-3.27-2.1 0v99.25c.96.18 2.26.35 3.03.47zm32.43-105.08l3.65 105.27-.64.85-2.1.03-2.3-106.14h1.4zm30.7 88.88c-.3-10.7-1.65-60.33-2.17-84.8-.07-3.26-2-2.7-1.98.12.2 19.7 1.38 74.8 1.6 84.74.76 0 2.07-.07 2.54-.06z"/><path fill="#fff" stroke="#000" stroke-width=".6196200000000001" d="M498.6 283.44l-31-.47c-1.76 6.3 6.06 6.18 8.97 4.55 3.38 2.57 5.95 2.33 7.8.23 2.7 2.22 6.07 1.64 7.47.24 3.73 2.8 7.58 0 6.76-4.56zm2.34 15.6l-31.72-.1c-5.47 5.24 1.64 7.8 7.7 4.2.82 1.74 4.55 2.8 7.46 1.4 2.68 2.1 6.06.58 7.8-1.17 3.28 1.5 7.12 1.98 8.76-4.32zm-.9 19.85l-30.55-.25c-.6 5.48 5.6 4.78 8.04 3.4 2.33 3.6 7.46 2.78 9.44.68 2.92 1.98 5.6 1.52 7.1-.35 3.4 2.92 6.2-.8 5.96-3.5zm1.52 19.82l-34.15-.6c-1.86 5.84 3.38 6.9 5.83 5.5.82 3.37 5.36 2.2 6.53-.24 1.75 1.75 3.97.82 5.02-.35.46 3.15 4.42 3.27 7.46.58 6.17 4.33 12-.7 9.32-4.88zm30.3-8.17l-28.46-.23c1.28 5.83 4.08 7.34 8.63 3.96 3.38 3.5 8.97 2.22 10.37.47 6.18 5 9.56-.82 9.45-4.2zm-2.93-19.47l-27.5-.82c.45 7 7.1 6.76 10.48 3.73 2.58 3.26 7.12 2.32 8.75 0 3.5 3.5 9.2 1.4 8.28-2.92zm3.63-21.94h-29.6c.34 4.9 6.87 7.7 11.88 3.03 1.4 5.6 6.76 3.85 9.1 1.63 3.37 4.32 11.2-.58 8.62-4.66zm-1.75-14.9l-26.45.35c-.47 4.3 5.83 6.17 8.16 2.67 1.3 2.22 5.72 1.98 7-.1 2.1 3.25 4.67 1.03 5.48 0 3.03 2.2 6.3 1.15 5.83-2.93zm31 9.65l-32.4-.36c-.12 3.38 3.38 4.78 5.48 3.38 0 3.26 4.55 4.3 7.46 1.75 2 2.8 7.8 3.6 10.15-.24 4.76 3.97 9.9 1.17 9.3-4.54zm-.44 26.6l-31.7-.12c.23 4.43 5.35 5.94 8.27 3.6.7 3.74 4.66 3.98 7 2.1 2.8 3.16 7.46 3.4 10.02-.1 3.85 1.4 6.76-1.87 6.4-5.48zm-1.66 23.9l-25.06-.34c0 4.43 5.24 5.02 7.58 2.68 2.44 2.92 6.18 2.92 8.27.6 3.37 2.9 8.5 2.1 9.2-2.93z"/><path stroke="#000" stroke-width=".6196200000000001" d="M519.5 372.05c-13.5.24-27.27.24-36.6-1.16s-12.26-2.72-18.65-6.54c-9.56-5.7-11.9-7.1-25.42-15.04-2.07-1.22-4.32.3-1.4 2.2 13.64 9 18.8 12.32 25.3 16.57 6.76 4.42 11.12 8.35 15.27 13.05 5.37 6.06 9.33 6.18 11.78 5.25s6.3-2.22 10.14-1.3c3.85.95 8.98 1.06 11.66.6 2.45 2.2 8.05 1.75 11.2 1.05 3.14-.7 5.47-1.05 7.7-.6s5.58.13 7.8-.22 8.04-.93 12.13-.35c4.08.58 8.28.23 10.96-.58 2.68-.82 7.58-.6 9.22-.12 2.32-1.75 3.5-3.97 4.07-6.3 2.74-.34 3.65-.7 4.26-2.27 1.12-2.9 2.16-5.76 2.52-7.04h1.1l.35-2.63-2.27-2.62.82-5 2.44-.6c.12-1.5-.58-3.84-1.05-4.77-14.67.58-29.08 1.05-39.4 1.28-1.16.95-2.44 3.4-2.67 4.9-6.3 1.06-10.03 1.53-11.66 1.88s-2.54.48-3.85 2.2c-2.1 2.8-4.08 6.07-5.7 8.17zM566.7 354.24c.72-2.47 2.62-9.13 6.08-21.7.58-2.1-1.46-2.94-2.2-.25-4.12 14.7-5.68 20.2-6.2 22.03.8 0 1.92-.1 2.32-.1z"/><path fill="#fff" stroke="#000" stroke-width=".6196200000000001" d="M589.45 329.6c-4.96 2.57-7.35 3.56-9.62 2.7-2.1-.82-5.16-1.27-6.96-.38a2.35 2.35 0 0 1-.1.6 2212.98 2213.23 0 0 1-4.7 16.9c3.67 1.3 10 1.48 11.47-.1 1.5-1.64 5.65-1.3 7.75-1.17 1.33-1.75 1.86-3.9 1.5-4.96s-.23-2.92.3-4.38 1.22-6.18.35-9.2z"/><path fill="none" stroke="#000" stroke-width=".6196200000000001" d="M476.58 287.52c-5.5 15.86-24.5 51.43-35.96 62.88m8.8 5.2c13.03-10.08 45.93-42.76 51.53-56.52m-31.46 19.58c-1.52 12-5 33.44-6.86 44.75m11.92-18c-4.43 4.32-10.7 11.85-15.38 15.93m57.1-39.9c-3.73 3.63-8 7.84-11.7 8.9m13.85-8.3c3.28 3.5 7.94 7.44 11.8 8.5m-14.36-27.84c-3.37 2.9-8.4 6.33-12.93 7.6m14.86-6.94c2.92 2.45 6.02 6.02 9.75 7.66m-23.92-21.88c3.6-1.05 9-3.85 11.8-6.76m1.6-.55c3.17 3.6 9.23 6.52 12.27 7.34m-24.95-14.57c3.72-.8 8.34-2.8 10.8-6.3m1.4-.97c3.14 2.7 8.67 6.56 12.28 6.9m14.32 3.56c-2.02 2.1-6.98 5.86-10.12 5.8m12.18-6c1.47 2.34 5.15 5.9 7.25 6.2m-21.55 26.56c4.08-1.4 9.8-4.74 12.65-8.18m2.25.28c1.2 2.16 5.74 7.03 8.3 8.02m-18.35 23.57c1.86-.4 6.94-2.92 8.33-5.9m2.35-1.64c1.92 2.4 6.64 6.77 9.56 7.82m-84.4 3.86c5.7-1.8 17.25-8.82 22.97-15.47m-10.95 8.43c4.78 3.38 10.33 6.77 14.58 7.52m-27.68-20c3.15-1.33 7.28-3.62 10.5-6.94m2.42-.44c1.28 1.8 10.7 7.56 14.73 7.62m-17.15-26.24c-2.45 1.98-8.34 5.54-11.2 6.3m13.44-6.17c3.27 2.27 9.72 6.28 14.15 6.28m-16.38-24.63c-2.63 2.97-7.06 7.56-10.73 8.6m12.83-7.92c2.04 3.26 7.5 7.68 11.06 8.26m36.12 11.34c8.17 15.07 23.33 33.5 38.66 43.17M505.78 278c12.4 17.85 36.78 56.97 59.97 71.4m4.27-15.26a82.67 82.68 0 0 1-21.5 20.67m20.1-15.72c-7.8-12.48-11.84-28.25-17.68-49.02m-63.33 55.48l9.63 26.46m-11.4-27.1l8.5 27m-10.35-28.25l7.9 28.1m-8.7-27.65l6.1 27.5m-.23-.98h7.62m-.98-2.87h-7.2m6.38-2.25h-6.94m6.13-2.24h-6.62m5.72-2.42h-6.3m-.42-2.16h5.97M486 356.7h5.67m-6.17-2.14h5.4m-5.8-1.93h5.1m-5.55-1.98h4.84m-5.25-1.84h4.57m-5.02-1.7h4.44m-4.7-1.43h4.13m-11.63.05l-5.42 22.12m7-22.53l-4.66 23.4m5.9-24.24l-3.76 24.9m5.38-25.4L477.75 370m3.27-1.5h-8.63m8.62-2.37h-9.98m9.98-2.47h-9.4m9.4-2.33h-8.82m8.82-2.38h-8.25m8.25-2.65h-7.6m7.6-2.28h-7.04m7.04-2.34h-6.45m6.45-2.24h-5.9m5.9-1.97h-5.44m5.44-1.57H476m5.02 24.67V344.2m29.02-8.7l-18.07 36.24m19.2-36.84l-15.4 37.04m16.52-37.44l-12.22 37.6m12.97-36.93l-9.5 36.96m.44-1.7H492.6m12.26-3.3H494.3m11.08-2.7h-9.74m10.68-2.92h-9.2m9.65-2.32h-8.5m9.3-2.7h-8m8.8-3.14h-7.25m7.9-2.37h-6.68m7.34-2.74h-6.04m6.54-1.84h-5.6m6.05-1.76h-5.13m5.57-1.8h-4.72m5.13-1.57h-4.34m4.74-1.57h-3.98m4.43-1.6h-3.6m3.96-1.5h-3.24m14.98-.53l7.9 25.04m-6.37-24.5l9.6 24.03m-8.26-23.98l11.25 23.5m2.72-2l-12.4-21.94m12.4 21.9h-9.84m8.13-2.96h-9.06m7.4-2.96h-8.3m6.6-3h-7.58m5.92-2.97h-6.86m5.15-2.95h-6.1m4.44-2.96h-5.35m3.65-3.02h-4.63m14.77.72l-7.73 23.2m10.07-24.23l-7.18 23.8m3.32-.56l5.27-22.4m1.37.78l-4.43 21.3m-7.5-1.33h7.75m-6.78-2.92h7.4m-6.45-2.87h7.05m-6.1-2.87h6.68m-5.7-2.93h6.32m-5.34-2.87h5.97m-5.03-2.87h5.6m-4.65-2.92h4.6m4.15.5l3.8 15.92m-2.4-16.68l5.23 16.6M551.45 338l5.72 16.6m-3.4-15.7l5.74 15.6m-.5-1.38h-7.36m6.5-2.33h-7m6.14-2.35h-6.7m5.85-2.33H550m5.53-2.33h-6.1m5.25-2.35h-5.76m4.9-2.33h-5.46"/><path fill="#00b800" d="M479.63 380.3c3.6-2.32 9.8-1.85 12.94.48 3.73-2.1 10.5-1.52 13.64 1.28 4.8-3.26 8.87-3.73 13.53-.58 3.62-2.57 9.2-2.8 13.53.23 4.2-1.97 8.86-3.6 12.94.7-2.45-1.74-7.7-3.26-12.94.83-4.08-4.1-11.2-2.57-13.53.23-3.03-3.62-9.44-4.2-13.3.23-4.18-3.5-10.48-3.63-13.86-.94-2.68-2.1-6.64-3.85-12.94-2.45z"/><path fill="#cf6200" d="M543.33 375.33c-18.54 3.2-58.94.93-67.8-1.28-3.04-.77-2.2-1.87.36-1.3 10.2 2.33 32 2.35 44 1.76 2.33-3.08 6-8.32 7.1-9.78s1.6-1.6 3.9-2c4.15-.7 6.5-1.06 10.1-1.68.06.47.06 1.05.06 1.4-.3.24-.6.64-.82.76 0 2.4.47 8.22.93 10.32.47-.06 1.05-.23 1.34-.3.83-.23 1.64 1.87.83 2.1zM573.7 376.23c.67-.02 2.07-.05 2.45-.06.76-.02 1.82-.54 2.3-1.7s1.9-5.5 2.43-7.3l-1.87-2.8c.42-2.33.94-5.47 1-6.1.93-.36 1.92-.7 2.4-.9.1-.5-.12-1.94-.6-2.4-7.98.3-31.88 1.13-36.25 1.2-1.05 0-1.52-.06-1.92 1.45-2.22 8.27.84 19.9 9.2 26.58.6.47 1.33.08.35-.82-1.4-1.28-3.55-3.9-5-6.5 1.62-.03 4.94-.08 5.93-.12.48 1.96 1.97 6.1 2.26 6.8s1 .8.67-.25c-.8-2.44-1.22-5.23-1.57-6.57 1.5-.04 4.37 0 6.12-.1.1 2.2.32 5.18.38 6s.76.87.77-.06c.02-.94.04-4.88.02-6.04 1.98-.06 4.5-.14 5.43-.14-.13 1.25-.37 5.33-.46 5.97-.14.95.36 1.4.6.06s.7-4.48.82-6.06c.8-.03 2.87-.1 3.75-.13-.1 1.24-1.27 5.02-1.62 6s.22 1.03.6.1c.43-.97 1.7-4.76 1.82-6.1z"/><path d="M547.23 375.28c-.64-1.28-2.62-5.84-2.8-9.16 1.7-.03 5.93-.1 7.97-.16.3 2.5 1.07 7.9 1.48 9.18-2.4.05-5.3.13-6.65.14zm6.55-9.37c.22 1.92 1.22 8.48 1.38 9.24 1.74-.1 5.75-.12 6.44-.17-.07-1.76-.35-8.32-.38-9.25-1.82.05-6.53.16-7.44.2zm-9-8.1c-.34 1.66-.4 5.25-.3 6.78 2.04.04 7.06-.08 7.75-.14-.17-1.74-.44-4.9-.6-6.86-1.68.07-5.76.17-6.86.2zm8.33-.24c.07 1.63.43 5.63.55 6.85 1.76-.04 6.08-.13 7.53-.18-.07-1.5-.3-6.3-.34-6.9-2.34.07-6.25.22-7.73.24zm9.25-.27c.07 1.5.27 5.8.2 6.9 1.88-.05 5.45-.1 6.56-.18.1-1.52.34-5.87.23-6.98-2.1.1-5.45.2-6.98.25zm8.26-.32c0 1.28-.16 5.8-.2 7 1.84-.06 6.05-.2 7.14-.23.3-1.5.88-5.4 1.05-7.06-1.76.05-6.72.24-8 .28zm7.23 8.3c-2.4.07-6.24.18-7.54.23-.2 2.96-.58 8.06-.75 9.23 2.1-.05 6.35-.18 7.3-.2.7-1.4 2.2-5.78 2.55-7.12-.52-.8-.93-1.27-1.57-2.12zm-15.2.4c0 1.05.17 8.57.22 9.2 1.37-.04 4.92-.1 5.45-.14.26-2.93.66-8.53.73-9.23-2.42.07-4.8.15-6.4.18zm-30.96-1.8l-3.04.55c-1.4 2.26-6.6 9.25-7.23 10.07 3.6-.1 9.26-.2 10.62-.34-.1-1.88-.35-9.34-.35-10.27zm1.34-.26c.08 2.4.3 8.76.37 10.45 1.8-.1 5.1-.32 6.43-.43-.3-3-.88-10.2-1-11.06-1.5.27-4.45.8-5.8 1.04z"/><path stroke="#000" stroke-width=".6196200000000001" d="M501.7 338.45c.4 0 .46.35 0 .35l-34.45-.43c-.47 0-.4-.35 0-.35l34.45.43zm27.1-27.6c.4.02.45.37 0 .35l-27.3-.74c-.47-.02-.4-.37 0-.35l27.3.75zm-28.8 7.9c.4 0 .46.36 0 .35l-30.55-.22c-.47 0-.4-.35 0-.35l30.54.22zm.9-19.83c.4 0 .46.35 0 .35l-31.96-.17c-.46 0-.4-.35 0-.34l31.95.16zm-2.2-15.66c.4 0 .45.36 0 .35l-31.05-.46c-.47 0-.4-.35 0-.35l31.04.46z"/><path fill="#fff" stroke="#000" stroke-width=".6196200000000001" d="M530.8 274.1c.42 0 .48.35.02.36l-26.64.25c-.47.02-.4-.33 0-.34l26.63-.25z"/><path stroke="#000" stroke-width=".6196200000000001" d="M532.47 289c.4 0 .47.35 0 .35h-29.43c-.47 0-.4-.35 0-.35h29.43zm28.9 21.23c.4 0 .46.35 0 .35h-31.73c-.47 0-.4-.35 0-.35h31.72zm.44-26.52c.42 0 .48.36 0 .36l-32.4-.32c-.47 0-.4-.35 0-.35l32.4.3zm-29.95 46.63c.4 0 .46.35 0 .35l-28.52-.2c-.47 0-.4-.35 0-.34l28.52.2zm27.85 3.86c.4 0 .47.34 0 .34l-25.06-.34c-.47 0-.4-.35 0-.35l25.06.34z"/><path fill="#ef072d" stroke="#000" stroke-width=".6196200000000001" d="M582.32 339c.7-1.58.8-5.18.4-6.54a4.96 4.96 0 0 1-2.9-.18 13.34 13.34 0 0 0-1.54-.48c-.1 1.8-.75 6.4-1.56 8.18-1.4.4-4.25-.07-5.86-.58l-1.18 4.23a15.48 15.48 0 0 0 6.52-.04c-.16 2.7-.52 5.14-1.97 6.84 2.38.05 4.5-.3 5.3-1.13a1.8 1.8 0 0 1 .23-.2c1.1-1.85 1.13-4.25 1.4-5.86.8.06 1.86-.18 2.32-.64s1.23-.7 1.98-.64c.7.05 1.77-.1 3.14-.65.04-.8.2-1.7.48-2.5.15-.4.32-1.12.46-1.98-1.74.83-5.6 2.22-7.22 2.17z"/><path stroke="#000" stroke-width=".6196200000000001" d="M471.06 187.1c-3.55.1-11.28.2-12.9 1.1-1.62.9-2.33 1.32.5 1.82s7.65 1.86 10.28 3.48c2.64 1.62 4.85 4.5 4.12 8.6-2.18 12.3 4.26 24.14 13.58 28.6.9.43 1.12.76.9 2.43s-.8 4.47-1.3 5.17c-.5.72-.76 1.88.86 1.32-1.12 2.1-3.6 6.24-4.36 7.3-7.45-.9-13.53.1-14.1 7.92-.05.76.2 1.98 1.38.05 1.16-1.94 2.48-3.76 5.67-4.27-1.88 2.9-2.5 5.48-2.18 7.15.3 1.67.75 2.7 1.57.56.8-2.13 2.3-4.12 3.9-5.33.6-.44 1-.54.55.77s.2 4.16 1.1 5.13c.92.96 1.38.55 1.13-1.02-.26-1.57.14-4.86 2.07-5.88 2.8-1.47 5.17-.7 6.3 1.22 1.1 1.92 2.06.1.85-2.08s-2.5-3.7-4.5-3.86c1.76-3.14 3.84-6.95 4.3-7.7.45-.77 1.16-1.12 1.77-.67.6.47 1 .42 1.62-.85.6-1.27 1.66-5.02 3.18-6.54.77-.2 1.98-.5 2.43-.9 2 2.9 3.76 6.08 4.22 6.8.46.7.97 1 .5 2.48s-2.02 6.14-2.27 7.15c-5.53.2-8.06.3-9.83 3.4-.78 1.35.45 1.87 1.77 1.16 1.3-.7 3.18-1.32 4.15-1.17.96.15 1.4.64.45 1.1-3.4 1.7-5.5 3.82-5.37 6.76.05 1.05.5 1.58 1.32.14 1.17-2.03 3.3-4.05 5.88-4.62-.16 2.5.4 6.14 1.92 6.9 1.52.76 1.63 0 1.06-1.47-.9-2.33.05-4.68 1.18-5.93 2.38-2.64 7.8 1 8.82 1.93 1 .9 1.94 1.3 1.37-1.07-.76-3.14-5.22-4.97-9.02-5.48 1.06-5.12 3.9-15.47 5.42-19 2.23 1.2 3.97-2 7.7-.62 6.28 2.33 15.7 8.2 17.33 9.53 1.62 1.33 2.23 1.02 3.05.3.8-.7 2.22 0 3.34.22 1.1.2 2.12.5.7-2.34-1.42-2.84-4.87-7.8-10.64-11.66 3.44.3 8.1.3 8.1-.6 0-.92-5.37-2.65-7.6-2.85 2.13-.5 5.38-1.72 6.9-3.45.9-1.02-.2-1.25-3.35-1.32-9.72-.2-14.58-.12-19.65-3.04-8.1-4.67-12.75-9.58-16.73-11.66-2.12-1.12-3.42-3.7-4.24-5.92-2.63-7.1-2.5-10.3-8.7-12.63s-13.28.52-16.52 3.46z"/><path fill="#fff" stroke="#000" stroke-width=".6196200000000001" d="M471.46 188.73c-1.57-.06-4.66-.43-7.23-.18-.58.06-1.28.35.12.53s5.2 1.1 6.53 1.57.76 1.16-.4.87-1.6.14-.65.82c4.96 3.5 5.48 4.84 4.2 16.85.93.63 1.7 1.1 2.5 1.5s.6 1-.3.76-1.68.3-.28.58 2.04.94.7.88c-1.34-.06-2.9 1.1-.3.82 2.63-.3 3.68.93.6 1-3.1.05-1.93 1.04-.3 1.04 2.9 0 2.04.8 1.28.8-.75 0-1.1 1 .82.83 1.92-.16 2.68-.22 3.38-.1s1 .7-.06.75c-1.05.06-1 .8.58.8s2.23.5.82.77c-.58.12-1.4.4.3.64 2.9.4 3.03 1.1 2.1 1.23s-1.06.63.28.75c1.34.1 2.5.52 1.4.8-1.1.3-1.7.95-.3 1.06 1.4.13 2.57.65 1.52 1s-1.28 1 .06.94 1.87.7.94 1.22c-.94.52-1.58.87-2.16-.06-.57-.93-.92-1.22-1.1-.52-.17.7-.58.23-1.05-.82s-1.28-1.34-1.05-.52-.8.93-1.8.52c3.67 3.73 9.1 7.1 17.72 3.6.73-.28.87 0 1.45 1.24s2.22 3.9 2.8 4.9 1.05.1 1.34-.88c1.18-3.85 2.05-6.7 2.4-7.75.35-1.05 1.98-2.1 1.46 1.57 1.28-.87 6.97-1.7 11.37-.06 4.83 1.8 9.7 4.62 12.18 6.48a2.8 2.8 0 0 0 2.22.64c1.17-.12 1.46-.3-.75-2.33-2.22-2.05-1.28-3.04.1-2.05 1.4 1 2.17.4 1.12-.8s-3.56-3.62-4.38-4.2-.93-.82-2.8-.94-5.83-.12-7-.12-1.5.12 1.06 1.05c2.56.94 7.8 4.32 8.97 5.14s2 2.68-.58 1.05-10.6-6.65-15.97-8.52c-12.24.82-21.92 2.45-29.15-5.48-3.46-3.8-3.6-12.48 2.22-16.1-1.17-.98-1-1.57-.53-1.8s.64-.47.18-1.05c-.47-.58-.4-1.1 0-1.34-1.28-.7-1.87-1.5-1.8-2.38-1.58-.35-2.28-2.22-4.38-1.63s-3.15.1-3.8-.42c-.63-.52-1.15-.76-2.32-.64s-2.1-.35-2.16-.93 1-.86 2.57-.17c3.32 1.46 6 2.16 8.04-.58 2.04-2.74-.58-5.3-4.5-6.06-3.9-.77-6.75 2.1-8.2 3.43zM491.07 187.7c-1.18-1.28-3.27-2.46-4.32-2.8-1.04-.35-1.16.7-.58 1.22-.46.7-.64 2.4.18 2.86s.82 1.13.05 1.5c-1.16.6-.77 3.7 1 2.8.58-.28 1.04-.17.93.3s.1 1.05.64 1.17.46.87.35 1.16.05.42.64.48.64 1.46-.4 1.93c1.27 0 1.62-.23 1.97.82.35 1.05 1.75 1.28 1.75 2.56s-.23 1.52-1.75 1.3-2.1.22-2.56.8-.6 1.17.58 1.23 1.4.6.23 1.12-3.08.17-3.38 1.28c-.3 1.1 0 1.63.88 1.22.87-.4 2.68-1.16 3.38-1.57s1.34-.47 1.92.47.12 1.98-.87 1.16c-.98-.8-1.45-.06-2.03.4s-1.46.77-2.4.77c-.92 0-1.56.12-1.45 2.2.35 6.3 5.25 10.97 14.22 10.86s13.4-.23 14.75-.05c-2.98-1.64-4.85-2.5-5.9-2.4s-1.92.3-1.45-.52-.06-.8-.53-1.16-1.04-.82-1.98.17-3.15 2.1-4.26 2.33-2.44.18-1.4-.87 3.4-1.4 4.1-1.87.7-.75.7-1.1-.2-1.34 1.15-.6c2.68 1.53 6.88 3.8 8 3.74s1.86-.52.86-1.16-1.3-1.56-1-1.9.47-.7 2.22.28c1.74 1 4.6 2.27 5.65 2.73s2.45.3.3-1.27c-2.17-1.57-8.87-6-10.73-7.4s-1.05.3-.88.82-1.28 1.16-2.04.52-1.28-1.34-.23-1.92 1.27-.65-.3-2.05-2.04-1.27-1.7-.1c.36 1.15.48 2.44-1.16 1.8s-2.45-1.4-1.4-2.05c1.05-.63 2.4-.98.64-2.44s-1.22 0-1.63.83-1.75.8-2.5.17-1.1-1.28-.6-1.8.48-.82 1.23-.42 1.93.18.53-1.05-1.92-.7-1.62 0-.82 1.93-2.57.3c-.8-.78-.8-1.8.07-2 .87-.16.96-.62.35-1.5-3.55-5.2-2.1-9.4-5.65-13.24z"/><path fill="#cf6200" d="M491.65 188.4c-.3.47-.42.45-.98.83-.7.46-.86 1.8.3 1.63.82-.1 1.3-.6 1.6-.98a9.98 9.98 0 0 0-.92-1.47zm-3.63-2.9c-.9.87-1.06 1.26-.6 1.26.54 0 .3.07-.08.7-.4.62.78.93 1.25.46s.53-.62.76 0c.2.5.96.03 1.44-.46-.8-.77-1.86-1.47-2.8-1.96zm-1.62 5.02c-1.17.6-.77 3.68 1 2.8.57-.3 1.04-.17.92.3-.06.24-.02.52.1.75a5.4 5.4 0 0 0 1.94-1.4c1.1-1.24.08-1.16-1.55-1.16-1.62 0-2.1-.3-.54-1.24 1.4-.83.5-1.4-1.44-1.14.28.4.14.82-.42 1.1zm6.68 6.87c-.85-.95-.3-1.4.62-1.88a1.2 1.2 0 0 0 .5-.43c-.26-1.03-.47-2.02-.75-2.98-.5.14-1.06 1.23-1.22 1.77-.24.76-.47 1.23-1.25 1-.7-.2-1.38.57-1.52 1.4.1.04.27.07.5.1.32.03.48.47.38.93 2.1-.06 2.46 1.4 2.82 2.4.4 1.08.86.92 1.17.3.3-.62-.4-1.7-1.25-2.64z"/><path fill="#ff0" d="M493.67 209.6c-.38.85-.4.77-1.64.84-1.24.08-2.8.3-3.5 1.02-.36.38-2.5.5-2.5 1.43-.02.94 0 1.74.92 1.8.93.06 1.04.18.7.88-.36.7-.6 1.86 1.04 1.98 1.63.12 2.8-.4 3.2.52.4.93-.03 2.42.3 2.97s1.42.9 3.13 1.44c1.14.34 5.44.55 6.76.4 1.3-.16.82-.95-.5-1.07-1.32-.12-2.3-.3-2.6-1.28-.32-.97-.6-1.48.15-2.3.74-.8 1.48-1.43 1.05-2.8-.43-1.35-1.13-2.95-2.68-3.37-1.56-.43-1.07-2.56-2.6-2.76-.6-.08-1.1-.08-1.25.27z"/><path fill="#cf6200" d="M486.13 222.24c1.34.12 2.5.53 1.4.82-1.1.3-1.7.93-.3 1.05 1.4.13 2.57.65 1.52 1s-1.28 1 .06.93 1.88.7.94 1.22c-.93.53-1.57.88-2.16-.05-.57-.93-.92-1.22-1.1-.52-.17.7-.58.23-1.05-.82s-1.28-1.34-1.05-.53-.82.94-1.8.53c.97 1 2.07 1.95 3.32 2.77 1.43-.5 3-.1 3.55-.03.58.05 2.4.46 3.38 1s1.64-.42 1.23-1.47c-.4-1.05-.47-.7-1-.12-.52.6-.64-.22-.58-1.44.05-1.03-.64-.76-.87-.12s-.75-.4-.46-1.05-.06-.88-.58-.7-.58 0-.64-1.17-.6-1-.76-.53-.64-.17-1.34-1.1c-.6-.82-1.32-.34-2.54.14.16.1.43.17.85.2z"/><path fill="#ff0" d="M500.3 229.47c-6.36 2.58-10.96 1.43-14.42-.86 1.43-.48 3.05-.06 3.58 0 .6.05 2.4.46 3.4.98s1.62-.4 1.2-1.46c.9 1.1 1.53 1.87 2.57 1.8 1.05-.05 2.8-.22 3.68-.45zm-13.6-29.35c-.38-1.32-.76-1.63-1.46-1.55-.7.08-1-.08-1.8-.4-.77-.3-1.78.1-1.93 1.5s-1 2.1-2.17 2.94c-1.17.87-1.87 1.57-1.87 2.97s-.3 1.78-1.08 2.8c-.35.44-.84.96-1.3 1.5.5.3.98.58 1.47.82.82.4.6 1-.3.75s-1.68.3-.28.6 2.04.92.7.86c-1.34-.05-2.92 1.12-.3.83 2.63-.3 3.68.93.6 1-3.1.05-1.93 1.04-.3 1.04 2.9 0 2.04.82 1.28.82-.75 0-1.1.98.82.8.03 0 .05 0 .08 0 .28-.3.5-.65.64-1.1.3-.94.6-3.66 1.7-4.44 1.08-.78 1.63-1.87 1.63-2.64s1.63-4.2 2.72-5.05 1.56-2.72 1.16-4.05z"/><path fill="#cf6200" d="M484.43 200.17c-1.1-.74-2.18-.3-2.18 1.1s-.7 1.77-1.63 2.24c-.93.48-1.8 1.64-1.94 2.73-.16 1.1.15 1.8-.62 2.65-.78.85-.86 1.55-.3 2.02.53.46.53.54.76 1.24.24.7 1.56-.08 1.56-.85s.3-.8 1.16-1.26c.86-.46 2.26-2.72 1.94-3.34-.3-.62-1.08-1.17-.07-2.02 1.02-.86 2.1-.94 2.1-1.8 0-.85.32-1.15.63-1.46.3-.32-.7-.78-1.4-1.25z"/><path d="M484.43 199.05c-.73-.3-1.16 1.24-.16 1.47s1.17-1.1.16-1.47zm-.18 1.97c-.77.1-1.64 1.1-.35.93s1.8-1.1.35-.93zm-1.53 1.88c-.8.4-.64 1.46.53.7s1.46-1.7-.53-.7zm-1.25 1.62c-.8.4-.65 1.45.52.7 1.16-.76 1.45-1.7-.53-.7zM479.85 205.28c-.8.4-.3 1.46.88.7s1.1-1.7-.88-.7zm1 1c-.8.4-.3 1.45.86.7s1.12-1.7-.86-.7zM479.45 206.67c-.8.4-.3 1.46.87.7s1.1-1.7-.87-.7zm.9 1.13c-.8.4-.3 1.45.86.7 1.18-.76 1.12-1.7-.86-.7zM479 208.47c-.8.4-.3 1.45.87.7s1.1-1.7-.87-.7zM479.1 209.5c-.8.4-.3 1.46.86.7s1.1-1.7-.87-.7z"/><path fill="#cf6200" d="M478.46 219.33c-.8.1-1.32 1.24-.3 1.48s1.23.32 1.23 1.1.3 1.86 1.4 1.93c1.08.08 2.02-1.16 1.08-1.55-.93-.4-1.8-.7-1.86-1.55-.08-.86-.94-1.48-1.56-1.4z"/><path fill="#ff0" d="M507.08 212.64c.15.18.33.38.53.55.77.63 2.23 0 2.05-.53s-1-2.22.88-.82 8.57 5.83 10.72 7.4c2.16 1.58.76 1.75-.3 1.3s-3.9-1.76-5.64-2.75c-1.74-1-1.92-.64-2.2-.3-.25.3-.06 1 .6 1.6-1.06.15-2.75-.08-3.23-1.18-.58-1.34-1.98-2.98-2.98-4.26-.37-.48-.48-.77-.42-1.02z"/><path fill="#00d860" d="M564.9 403.64c-1.44 1-3.37 2.74-2.1 5.2.16-.1.3-.2.45-.27 5.7-6.9 10.6-14.16 14.77-21.7.05-.26.1-.5.12-.72-1.63 1.4-4.2 2.8-5.25 3.15.7 1.86-2.57 4.3-4.32 5 .7 1.18.47 2.93-1.05 3.28.35 1.04-.8 1.04-2.2 1.63s-2.1 1.06-2.57 1.76c.75-.4 1.8-.76 2.38-.6s.7 1.06-.35 1.3-1.75.8-2.1 1.28c1.5-.58 3.67-.3 2.2.7z"/><path stroke="#000" stroke-width=".6196200000000001" d="M495.78 210.5c-1.73-1.52-2.16-.6-1.46.34s.17 1.4-1.34 1.63-3.8.53-4.73.53-2.03 1.28.18 1.16c2.2-.1 5.95-.87 6.94-1.28s1.8-1.17.4-2.4zm3.36 2.63c-1.42-1.27-1.92-.93-1.57 0s-.3 1.1-1.22 1.4c-.94.3-4.6 1.52-6.2 1.7s-1.9 1.28.42 1.22 6.82-1.92 7.35-2.27.7-1.05 1.28-.7 1.1-.3-.06-1.35zm1.08 3.73c-1.03.6-3.6 1.74-4.66 2.04s-1.93 1.45.3 1.28c2.2-.18 4.82-2.22 5.52-2.62.7-.4 1.05-.7 1.64-.64s1.63-.76-.3-1.8-3.1-.54-2.15.28.23 1.1-.35 1.46z"/><path d="M482.05 187.5c-2.85-1.86-6.1 2.06-2.95 4.2 2.76 1.9 5.67-2.4 2.95-4.2z"/><path fill="#fff" d="M478.5 189.22l.85.06c-.18.87.7 2.18 2.04 1.86-1.1.82-3.2-.12-2.9-1.92zm11.04 42.5c.86.24 3.85.55 4.87.6-.5 1.06-.96 1.77-1.26 2.54-.3.75-.45.8-.5-.36-.06-1.17-.72-1.93-1.32-.7-.6 1.2-.92 1.66-1.22 2.17-.3.5-.76.7-.6-.56s.1-2.58.04-3.7z"/><path fill="none" stroke="#000" stroke-width="1.2347500000000002" d="M602.1 265.94c-.2 73.28-11.77 152.22-106.6 189.83-94.86-37.6-106.42-116.55-106.63-189.83H602.1zm0 0c.08-27.6-1.45-54.4-.75-77.88-35.45-15.86-82.08-19.12-105.86-19.12-23.8 0-70.43 3.26-105.87 19.12.7 23.48-.83 50.28-.76 77.88H602.1z"/></svg>