<svg xmlns="http://www.w3.org/2000/svg" width="640" height="480"><defs><clipPath id="a"><path fill-opacity=".67" d="M-15.07 0H667.6v512H-15.07z"/></clipPath></defs><g fill-rule="evenodd" clip-path="url(#a)" transform="translate(14.125) scale(.938)"><path fill="#fff" d="M-62 0H962v512H-62z"/><path fill="#de2918" d="M-62 341.33H962V512H-62z"/><path fill="#08399c" d="M-62 170.67H962v170.67H-62z"/><path fill="#de2918" d="M228.37 92.98c-4.02 61.65-6.32 95.43-15.7 111.07-10.16 16.78-20.03 29.08-59.64 43.88-39.6-14.8-49.48-27.1-59.63-43.9C84 188.42 81.7 154.64 77.7 93L83.53 91c11.78-3.6 20.58-6.48 27.08-7.76 9.3-1.97 17.23-4.2 42.26-4.72 25.02.43 32.98 2.8 42.3 4.77 6.44 1.36 15.6 4.07 27.3 7.73l5.9 1.95z"/><path fill="#08399c" d="M222.6 90.95c-3.8 61.52-6.98 89.7-11.94 103.24-9.63 23.2-24.87 35.9-57.67 48.03-32.8-12.14-48.05-24.86-57.67-48.05-4.96-13.54-8.1-41.64-11.8-103.3 11.54-3.6 20.6-6.4 27.1-7.7 9.3-1.97 17.22-4.3 42.25-4.72 25.03.43 33.03 2.75 42.35 4.72 6.5 1.28 15.73 4.1 27.37 7.76z"/><path fill="#fc0" d="M152.96 109.8l1.57 3.7 6.9.96-4.46 2.7 4.33 2.9-6.3 1.05-1.92 3.38-2.15-3.47-6-.84 4.08-2.96-4.2-2.7 6.65-1 1.5-3.7z"/><path fill="#fff" d="M208.28 179.62l-3.83-3.03-2.77-4.56-5.42-4.7-2.83-4.76-5.42-4.85-2.64-4.75-2.9-2.33-1.9-1.83-4.9 4.3-2.66 4.66-3.32 3-3.66-2.84-2.76-4.87L153 134.85l-10.26 18.22-2.76 4.87-3.66 2.85-3.32-3.02-2.67-4.67-4.9-4.28-1.9 1.83-2.9 2.33-2.64 4.75-5.43 4.85-2.83 4.75-5.42 4.7-2.77 4.56-3.82 3.1c1.98 16.88 12.75 30.1 18.6 36.16 6.56 6.35 20.05 14.86 36.55 20.5 16.55-5.52 30.23-14.15 36.78-20.5 5.86-6.05 16.62-19.28 18.62-36.24z"/><path fill="#fc0" d="M169.45 83.9l1.57 3.7 6.9.96-4.46 2.7 4.32 2.9-6.3 1.05-1.9 3.38-2.17-3.47-5.98-.84 4.08-2.96-4.2-2.7 6.63-1 1.52-3.7zm-32.98-.07l1.57 3.73 6.9.94-4.46 2.7 4.33 2.9-6.3 1.05-1.9 3.38-2.16-3.48-6-.85 4.08-2.95-4.2-2.7 6.64-1 1.5-3.72z"/><path fill="#08399c" d="M199.72 203.03l-7.47.02-6.9-.5-8.34-4.1-9.4.05-8.15 3.98-6.42.57-6.43-.57-8.15-3.98-9.4-.05-8.36 4.1-6.9.5-7.56-.1-3.65-6.2.12-.13 11.18 1.85 6.9-.5 8.34-4.1 9.4.05 8.15 3.98 6.42.57 6.43-.57 8.15-3.98 9.4-.06 8.35 4.1 6.9.5 10.87-1.9.14.3-3.64 6.17zm-86.47 9.5l7.4-.5 8.34-4.1 9.4.06 8.15 3.97 6.43.57 6.42-.57 8.15-3.98 9.4-.07 8.36 4.1 7.5.5 4.84-5.95-.17-.14-5.18 1.5-6.9-.5-8.35-4.1-9.4.06-8.15 4-6.43.55-6.43-.56-8.15-4-9.42-.05-8.34 4.1-6.9.5-5.07-1.27-.06.25 4.55 5.6z"/></g></svg>