<svg xmlns="http://www.w3.org/2000/svg" width="640" height="480"><path fill="#ee1c25" d="M0 0h640v480H0z"/><path fill="#0b4ea2" d="M0 0h640v320H0z"/><path fill="#fff" d="M0 0h640v160H0zM233 370.8c-43.02-20.72-104.56-61.86-104.56-143.23 0-81.37 3.9-118.37 3.9-118.37h201.34s3.9 37 3.9 118.37S276.02 350.07 233 370.8z"/><path fill="#ee1c25" d="M233 360c-39.47-19-95.93-56.75-95.93-131.4s3.57-108.6 3.57-108.6h184.73s3.57 33.95 3.57 108.6c0 74.65-56.46 112.4-95.94 131.4z"/><path fill="#fff" d="M241.45 209.03c10.68.17 31.54.6 50.1-5.63 0 0-.5 6.65-.5 14.4 0 7.73.5 14.38.5 14.38-17.03-5.7-38.06-5.82-50.1-5.67v41.24h-16.9V226.5c-12.03-.14-33.06-.02-50.1 5.67 0 0 .5-6.64.5-14.38 0-7.75-.5-14.4-.5-14.4 18.57 6.22 39.43 5.8 50.1 5.63v-25.9c-9.73-.08-23.77.38-39.64 5.7 0 0 .5-6.65.5-14.4 0-7.73-.5-14.38-.5-14.38 15.86 5.3 29.88 5.78 39.62 5.7-.5-16.4-5.28-37.07-5.28-37.07s9.83.76 13.76.76c3.94 0 13.77-.76 13.77-.76s-4.78 20.66-5.28 37.06c9.73.1 23.75-.4 39.6-5.7 0 0-.5 6.65-.5 14.4 0 7.74.5 14.38.5 14.38-15.87-5.3-29.9-5.78-39.65-5.7v25.9z"/><path fill="#0b4ea2" d="M233 263.27c-19.88 0-30.52 27.58-30.52 27.58s-5.9-13.08-22.13-13.08c-10.97 0-19.06 9.77-24.2 18.8 19.96 31.77 51.8 51.37 76.85 63.43 25.04-12.06 56.9-31.66 76.88-63.42-5.14-9.04-13.23-18.8-24.2-18.8-16.22 0-22.15 13.07-22.15 13.07s-10.65-27.58-30.53-27.58z"/></svg>