<svg xmlns="http://www.w3.org/2000/svg" width="640" height="480"><g fill-rule="evenodd"><path fill="#19b6ef" d="M0 240h640v240H0z"/><path fill="#fff" d="M0 0h640v240H0z"/></g><path fill="#fd0" fill-rule="evenodd" stroke="#7d6c00" stroke-width="2.369" d="M317.07 339.22c52.45-39.24 108.96-119.3 42.74-161.4-12.33-2.4-26.1-1.68-32.7 3.57-3.5-2-6.3-1.84-9.8 1.9-2.46-3.02-4.93-4.38-10.02-2.86-10.2-5.18-19.42-6.3-31.52-3.1-57.62 34.6-22.36 116.75 41.3 161.88z"/><g stroke="#3a9d4f"><path fill="#4fd46b" fill-rule="evenodd" d="M414.08 250.1s5.9-7.93 6.1-7.93c5.9-3.46 6.52-7.94 6.52-7.94 5.9-1.83 4.07-6.72 4.48-7.33 2.85-3.05 1.83-6.1 1.42-7.12 0-.82 2.04-8.35-.8-9.37.12-8-4.83-7.25-8.76-2.02-4.2 1.22-5.16 4.68-3.67 8.55-5.5 0-5.7 7.94-4.07 12.4-7.33-.2-3.26 7.95-3.46 8.36-2.44 1.2 1.83 12.8 2.24 12.4zm-46.22 68.2l3.66 2.24c.75 2.78 3.33 4.55 5.3 4.07.95 4.28 5.56 3.68 8.95 1.23 2.72 3.94 6.04 4 10.6 2.65 4.06 2.98 9.35 1.7 12.8-1.43 3.74 3.06 6.25.82 8.15-2.44 2.92.76 5.23.28 6.3-2.64 5.7-.47 2.86-5.83-1.82-8.14 3.73-3.26 7.87-9.97 2.04-11-1.83-1.35-5.3-1.07-7.94.2-.68-2.97-4.82-3.72-9.37-.4-1.56-3.32-6.98-1.76-9.56.62-3.26-2.85-7.13-2.85-12.83.4l-16.28 14.66zm0-8.74c.68-3.74-1.9-10.52 2.03-11.2-.75-6.24.33-13.3 7.52-12.62 1.16-5.9.9-11.4 7.74-12.22 0 0 5.5-19.13 11.2-5.9 2.24 3.87 1.83 10.18-2.65 8.96.9 4.75-.67 8.9-5.9 8.75 2.3 3.33 1.57 7.87-1 9.98-6.32 4.76-12.63 9.5-18.94 14.26zm33.18-23.82l5.9-1.22c6.1-4.08 8.55-5.7 11.6-1.23 5.1-1.1 9.98-.55 9.78 3.45 6.04.4 5.97 4.28 5.3 7.33.94 5.36-1.37 12.35-5.1 3.87-11.8-7.2-18.53-6.25-37.25-2.04l9.77-10.17zm3.06-5.92c.2-.2 17.5-4.68 15.68-9.97 4.88-.82 5.9-5.7 6.1-5.7 10.18-3.26 9.57-9.16 9.57-9.16 2.92-3.13 8.08-6.26 6.92-11.82.34-6.3.9-10.18-7.53-6.1-6.3-.62-8.55 3.05-10.38 8.54-3-3.52-7.8 2.1-8.35 7.13 0 0-7.72 7.53-7.72 7.73s-6.52 12-6.52 12l2.24 7.34zM404.5 266.4c-4.14-3.12-6.44-6.86-5.7-10.6-2.7-3.65-4.6-5.9-2.03-9.15 0 0-2.04-7.33-2.04-7.53-5.3-2.04-3.05-6.5-1.63-8.14-2.5-3.46-2.58-7.13-.2-10.4-.07-6.5 4.55-4.06 8.34 0 0 0 6.32 4.5 1.63 8.56 4.7 1.63 6.1 5.7 3.46 7.33 4.08 1.83 4.7 5.5 2.45 7.94 4.14 3.34 2.58 7.48 3.86 11.2l-8.14 10.8zM411.83 236.06c-.2-.2-6.92-8.75-5.1-9.36-.4-2.65-2.43-5.5-1.2-8.14-3.33-3.33-3.4-7.26-.82-10.38-2.23-3.06-1.2-7.13 1.84-9.77-.95-5.02 2.58-6.17 5.7-7.12 2.3-8.07 6.04-5.97 8.14.2 3.2 2.8 2.72 7 1.63 10.18 3.8 2.58 1.5 5.77-.2 7.13l-9.97 27.26zM410.8 193.1l-5.7-5.7c1.5-3 2.67-8.34-1.6-10.78-2.38-5.76-14.2-12.9-16.1.8-1.8-4.12-5.56-8.2-8.34-3.45-6.18-5.3-9.5-3.66-6.3 3.06 0 0-2.86 4.47 4.67 7.93.6.6-2.44 8.15 6.52 8.35-1.7 2.6 1.08 6.18 4.68 5.9-2.58 3.2 1.76 6.6 4.47 5.3-1.15 3.53-1.08 5.23 3.87 5.7l5.5 6.32 4.48 6.1 3.86-29.5z"/><path fill="none" d="M414.28 246.5c.3-.28 10.94-24.75 12.38-32.23m-11.23-11.22s1.73 19.86-3.17 34.55m-29.64-54.7s21.87 21 23.9 29.65m-8.65-31.95s1.44 17.27 7.5 34.26m31.08 28.48s-21.88 18.43-32.53 34.55m11.8 29.94s-28.8 4.03-41.46 4.32m31.96 8.06s-35.7-.87-38.3-3.46m20.44-42.9c0 .3-18.14 30.23-18.7 40"/></g><path fill="#65c7ff" fill-rule="evenodd" stroke="#7d6c00" stroke-width="2.369" d="M316.87 333.44c-37.77-35.62-76.45-102.48-37.97-136.27 6.84 3.88 14.9.4 26.03-3.98 3.37 3.66 7.65 4.58 11.94 1.83 4.8 2.04 8.37.4 10.72-2.15 10.9 6.33 24.9 9.6 28.16 3.37 37.87 35.93-.5 103.1-38.9 137.2z"/><path fill="#8fc753" fill-rule="evenodd" d="M317.1 332.4c-16.23-16.3-31.03-34.38-42.36-57.65 1.94-1.63 2.84-2.14 3.86-5 5.82.82 8.88 1.02 16.54-.3 1.53 5.7 1.83 10.5 5.5 15.3l7.66-15c5.2 1.23 11.64 1.53 16.54 0 3.16 4.3 2.04 10.72 7.65 15.62 3.36-9.9 6.73-10.62 10.1-15.92 5 1.73 8.17 1.02 12.25-.3 2.14 2.44 1.07 2.4 4.98 6-10.24 20.32-24.27 40.72-42.74 57.26z"/><path fill="#fff" fill-rule="evenodd" stroke="#000" stroke-width="1.111" d="M272.65 164.3a3.35 3.35 0 1 1-6.7 0 3.35 3.35 0 0 1 6.7 0zm-3.5-7.7a3.35 3.35 0 1 1-6.68 0 3.35 3.35 0 0 1 6.7 0zm-4.07-7.13a3.35 3.35 0 1 1-6.7 0 3.35 3.35 0 0 1 6.7 0zm-2.76-7a3.35 3.35 0 1 1-6.7 0 3.35 3.35 0 0 1 6.7 0zm.44-7.55a3.35 3.35 0 1 1-6.7 0 3.35 3.35 0 0 1 6.7 0zm17.66-12.5a3.35 3.35 0 1 1-6.7 0 3.35 3.35 0 0 1 6.7 0zM273.8 123.57a3.35 3.35 0 1 1-6.68 0 3.35 3.35 0 0 1 6.7 0zm-7.26 4.37a3.35 3.35 0 1 1-6.7 0 3.35 3.35 0 0 1 6.7 0zm22.4-5.4a3.35 3.35 0 1 1-6.7 0 3.35 3.35 0 0 1 6.7 0zm9.3.74a3.35 3.35 0 1 1-6.68 0 3.35 3.35 0 0 1 6.7 0zm8.3-.44a3.35 3.35 0 1 1-6.7 0 3.35 3.35 0 0 1 6.7 0z"/><path fill="#fd0" fill-rule="evenodd" stroke="#7d6c00" stroke-width="1.111" d="M325.87 117.5a8.58 8.58 0 1 1-17.16 0 8.58 8.58 0 0 1 17.17 0z"/><path fill="#fff" fill-rule="evenodd" stroke="#000" stroke-width="1.111" d="M334.9 122.7a3.35 3.35 0 1 1-6.68 0 3.35 3.35 0 0 1 6.7 0zm8.74.72a3.35 3.35 0 1 1-6.7 0 3.35 3.35 0 0 1 6.7 0zm8.44-.43a3.35 3.35 0 1 1-6.7 0 3.35 3.35 0 0 1 6.7 0zm7.13-.3a3.35 3.35 0 1 1-6.68 0 3.35 3.35 0 0 1 6.7 0zm8.88 1.02a3.35 3.35 0 1 1-6.7 0 3.35 3.35 0 0 1 6.7 0zm6.98 4.36a3.35 3.35 0 1 1-6.7 0 3.35 3.35 0 0 1 6.7 0z"/><path fill="#e40000" fill-rule="evenodd" stroke="#ac0000" stroke-width="2.369" d="M269.4 151.7c2.86 5.42 5.7 11.05 8.56 16.47h79.23l9.17-15.85c-5.36-3.68-9.04-6.53-16.68-4.8-4.32-6.18-9.05-7.36-16.07-6.67-2.08-2.15-3.96-3.47-7.5-3.96l-16.68.4c-4.38.43-7.72 3.76-7.93 3.76-7.1-.83-13.55-.62-15.22 6.26-6.46-1.6-11.05.14-16.9 4.38z"/><path fill="#fff" fill-rule="evenodd" stroke="#000" stroke-width="1.111" d="M377.97 135.35a3.35 3.35 0 1 1-6.7 0 3.35 3.35 0 0 1 6.7 0zm.6 7.86a3.35 3.35 0 1 1-6.7 0 3.35 3.35 0 0 1 6.7 0zm-2.5 7.28a3.35 3.35 0 1 1-6.68 0 3.35 3.35 0 0 1 6.68 0zm-3.04 5.97a3.35 3.35 0 1 1-6.7 0 3.35 3.35 0 0 1 6.7 0zM369.4 164a3.35 3.35 0 1 1-6.7 0 3.35 3.35 0 0 1 6.7 0zm-46.83-9.58a4.95 4.95 0 1 1-9.9 0 4.95 4.95 0 0 1 9.9 0zM323.55 143.04a5.96 5.96 0 1 1-11.93 0 5.96 5.96 0 0 1 11.93 0z"/><path fill="#fff" fill-rule="evenodd" stroke="#000" stroke-width="1.109" d="M322.7 132a5.38 5.38 0 1 1-10.78 0 5.38 5.38 0 0 1 10.77 0z"/><path fill="#fd0" fill-rule="evenodd" stroke="#7d6c00" stroke-width="1.111" d="M315.5 109.06c0-.93-.04-4.17.02-4.3l-3.57-.06.1-3.18 3.1-.04.04-2.77h4.4v2.55h3.46l-.08 3.38-3.6-.04-.03 4.52-3.86-.07z"/><path fill="none" stroke="#fd0" stroke-width="3.331" d="M277.56 168.17c-7.1-12.02-17.5-28.37-11.05-35.44 8.96-10.15 29.96-.98 43.37-6.88.98 11.46-2.22 30.44 2.92 34.4l-4.8 4.17c-2.92-3.76-8.42-8.78-15.22.2-3.9-3.4-8.32-2.8-10.4 1.73-1.98.26-1.87 1.06-4.82 1.82zm80.12-.42c7.1-12.02 17.5-28.36 11.05-35.44-8.95-10.13-29.95-.96-43.37-6.87-.97 11.47 2.23 30.44-2.92 34.4l4.8 4.17c4.6-6.5 10.37-6.7 15.22.2 3.9-3.4 7.93-2.93 10.4 1.73 1.98.27 1.87 1.06 4.82 1.82z"/><path fill="#fd0" fill-rule="evenodd" stroke="#7d6c00" stroke-width="2.369" d="M277.34 177.13c28.5-2.92 54.9-1.87 79.23 0l3.13-8.96c-27.66-5-46.77-5.63-82.98-.63l.62 9.6z"/><path fill="#c76e2e" fill-rule="evenodd" d="M314.12 329.38c.2-1.43.4-2.76.6-4.2 2.85.77 5 .47 7.36-.4.82-1.22 1.64-2.45 2.45-3.67l-1.83-2.13c-1.62.34-2.95 1.85-3.98 3.15-1.63.08-3.07-.7-4.6-1l-1.53-6.44c-1.53-1.8-4.68-1.67-4 1.53l.32 2.46c.6 1.53.84 3.64 1.83 4.78v2.52c1.13 1.14 2.25 2.28 3.37 3.42zm1.22-18.3c-2.13 1.06-4.66-.77-7.35-1.83-2.46-.17-4.43 1.87-7.36 1.22.53-1.6 1.84-1.83 2.76-2.75-.68-4.13 1.53-5.5 2.14-5.5.6 0 3.06.6 3.06.6l2.45.3c1.43 2.66 3.43 5.02 4.3 7.97z"/><path fill="#ffe100" fill-rule="evenodd" stroke="#e9bf00" stroke-width="2.369" d="M300.78 366.1c7.07-11.48 56.26-34.52 102.42-84.26-47 45.24-76.36 56.35-114.8 83.97l12.38.3z"/><path fill="#9d4916" fill-rule="evenodd" stroke="#68300e" stroke-width="1.111" d="M368.4 313.2a3.58 3.58 0 1 1-7.16 0 3.58 3.58 0 0 1 7.17 0zm34.4-34.88a4.06 4.06 0 1 1-8.13 0 4.06 4.06 0 0 1 8.12 0zm11.45-29.6a3.58 3.58 0 1 1-7.16 0 3.58 3.58 0 0 1 7.15 0zm-11.23-38.44a3.58 3.58 0 1 1-7.16 0 3.58 3.58 0 0 1 7.16 0z"/><path fill="#fff" fill-rule="evenodd" stroke="#a9a9a9" stroke-width="1.111" d="M279.13 269.6v-15.15l-1.54-1.3v-3.58l2.8-.26.52-16.93-1.8-1.03-.25-2.82s2.05.77 2.05.25.5-3.33.5-3.33-1.27-.26-1.27-.77 1.54-1.8 1.54-1.8-.78-.77-1.03-1.3-.77-2.8-.77-2.8l.77-2.83-.52-1.54-1.28-2.3 1.8-1.8s-.52-2.32-.52-2.84 1.28-2.56 1.54-2.82c.25-.26 2.3-3.08 2.3-3.08l4.37-1.03 5.13.77 2.83 1.8.5 4.62s-.5 2.82-.76 2.82-2.3 1.03-2.3 1.03-2.58.26-2.84 0 .77 3.08.77 3.08v3.08l-.25 3.85s0 1.8-.26 2.06c-.27.26-.78 1.03-.78 1.03l-.26 3.85 4.1 1.02-.24 2.32-2.83.25.5 15.67 4.1.77v4.37l-1.78 1.03-.52 15.66h-14.38zm62.4.26V254.7l-1.55-1.27v-3.6l2.83-.25.52-16.94-1.8-1.03-.26-2.82s2.06.77 2.06.26.5-3.34.5-3.34-1.27-.25-1.27-.77 1.54-1.8 1.54-1.8-.78-.77-1.04-1.28-.77-2.82-.77-2.82l.76-2.83-.5-1.54-1.3-2.3 1.8-1.8s-.5-2.32-.5-2.83 1.27-2.57 1.53-2.82c.25-.25 2.3-3.07 2.3-3.07l4.36-1.03 5.14.77 2.82 1.8.52 4.62s-.52 2.8-.77 2.8-2.3 1.04-2.3 1.04-2.58.26-2.84 0 .77 3.08.77 3.08V218l-.25 3.85s0 1.8-.26 2.06c-.27.26-.78 1.03-.78 1.03l-.26 3.85 4.1 1.03-.25 2.32-2.8.26.5 15.66 4.1.77v4.37l-1.8 1.03-.5 15.66h-14.38zm-31.6.52v-15.15l-1.53-1.28v-3.6l2.83-.25.5-16.95-1.8-1.03-.25-2.82s2.06.77 2.06.26.5-3.34.5-3.34-1.27-.26-1.27-.77 1.54-1.8 1.54-1.8-.76-.77-1.02-1.28-.77-2.83-.77-2.83l.78-2.82-.5-1.54-1.3-2.3 1.8-1.8s-.5-2.32-.5-2.83 1.27-2.57 1.53-2.83c.27-.25 2.32-3.08 2.32-3.08l4.36-1.03 5.14.8 2.82 1.78.52 4.62s-.52 2.83-.78 2.83-2.3 1.03-2.3 1.03-2.57.25-2.83 0 .77 3.08.77 3.08v3.08l-.25 3.85s0 1.8-.26 2.05c-.25.26-.76 1.03-.76 1.03l-.26 3.85 4.1 1.03-.25 2.3-2.82.26.52 15.65 4.1.77v4.37l-1.8 1.02-.5 15.66h-14.38z"/><path fill-rule="evenodd" d="M282.92 269.5v-11.94h6.7v12.4l-6.7-.46zm31.52.94l.24-12.17h5.97v11.93l-6.2.24zm31.05-.23l-.5-11.45 6.46-.24v11.95l-5.97-.24zm-60.9-36.05h3.8v6.2h-3.8zm30.32.25h5.25v5.97h-5.25zm31.03.46h4.54v5.73h-4.55z"/><path fill="none" stroke="#a8a8a8" stroke-width="1.111" d="M286.57 206.97c4.1 4.62 4.37 4.62 4.37 4.62m26.18-4.63c.77 1.53 2.05 4.87 3.6 5.13m29.26-4.37s1.3 3.6 3.08 4.1"/><path fill="#b97700" fill-rule="evenodd" d="M282.2 194.02c12.02-3.88-2.8-11.65-5.26 0-3.9.63-4.4 3.5-12.8 2.26-20.3 33.1-5.26 86.52 54.18 141.82-106.46-90.6-63.2-157.6-33.7-155.08 16.02 1.1 7.93 21.1-2.4 11z"/><path fill="none" stroke="#7d6c00" stroke-width="2.369" d="M285.55 177.05s9.78 2.63 9.78 6.77m0-7.52s6.77 3 8.28 5.64m45.15-4.5s-8.65 1.12-10.53 3.75m-2.65-3.02s-4.88 4.14-4.5 5.27m3.4 12.8c-.76-.4-4.15-4.9-3.4-10.55m-29.73 7.54s2.26-2.63 2.26-7.53m13.55-1.87l.38 10.9m9.4-1.5c0-.74 3-7.9-.38-11.28m-20.3-1.5s-2.64 7.14-.76 13.16m19.93-6.76s-4.14 1.13-6.02 3m-11.66-1.88c0-.38 4.52-1.13 6.02 1.5"/><path fill="#c76e2e" fill-rule="evenodd" d="M300.63 301.86c.2.1 3.75-.67 3.75-2.4 1.82-1.15.48-4.42.48-4.42l-3.37-.68-4.62-5.18c-.22-1.6.32-3.1-.67-4.8-3.16.83-4.98 3.5-6.04 6.53.77.97.86 2.03 2.3 2.9 1.5.25 2.53-.65 3.94-.4.74 1.3.5 2.38.77 3.56 1.92 1.35 2.3 3.27 3.46 4.9zm-4.13-22.2v-6.14l-4.42-.2c-.55.94-1.57 1.4-2.2 2.22l-3.08 1.54c1.28 1.54 2.85 2.4 3.84 3.17 2.24.67 4.1.67 5.86-.58zm-13.84 9.14l-2.4-4.04c1.47-.48 3.32-.28 4.7.3 0 0 1.06 2.5.3 3.45-.4.88-2.7.5-2.6.3zm36.5 4.13c1.3-.64 2.47-1.76 2.7-3.36l-4.42-5.1-4.03-.1c-.92-.95-2.43-1.14-3.64-1.14 0 0 1.25 1.92 2.88 2.3 1.15 2.6 6.15 7.4 6.53 7.4zm4.34.57c0-.1 3.94-1.44 6.05-1.25-.2-1.63 2.98-5.38 2.98-5.38l5.57 7.3c-1.02.87-2.82.58-4.23.87 0 0-2.7 2.6-2.98 2.7s-5.2 1.23-7.6-.2c-1.05-2.02.3-4.33.2-4.04zm3.16-12.78c.68-2.33.87-4.67 0-7.6 0 0-6.34-.08-6.34 0s-4.22 1.93-4.22 2.03 1.34 4.13 2.97 3.75c.74 2.14 2.92 1.6 3.94 2.4 1.23-.2 2.45-.4 3.66-.58zm24.9-6.43c-.87 2.65-1.35 5.5-.1 8.06 1.15.2 2.5.96 3.55.77l5.1-9.22c-3.52-1.1-6.37-.98-8.55.4z"/><path fill="#b97700" fill-rule="evenodd" d="M353.1 193.2c-12-3.9 2.82-11.66 5.28 0 3.9.62 4.4 3.5 12.8 2.25 20.3 33.1 5.26 86.52-54.18 141.8 106.46-90.58 63.2-157.6 33.72-155.06-16.04 1.08-7.95 21.08 2.4 11z"/><path fill="#c76e2e" fill-rule="evenodd" d="M354.33 284.67c-.2 0-3.07 2.1-3.07 2.1-1.38.56-2.75 1.1-4.13 1.65l-4.42.1-.95-3.08 3.36-2.98c-2.84-.42-5.7.7-7.96 2.8 0 0 0 3.35 1.92 4.98 1.15 1.44 4.5 4.04 4.5 4.04 2.13.4 4.14.06 5.5-1.06 1.75-2.85 3.5-5.7 5.27-8.55zm-23.25 30.16c1.44.4 11.34-12.77 11.34-12.77-.87-2.47-2.8-4.26-4.9-5.38 0 0-4.8 5.67-4.9 7.6-.77 1.72-2.98 8.35-2.02 9.2-.1.2-.48 2.9.48 1.36z"/><path fill="#006800" fill-rule="evenodd" stroke="#004100" stroke-width="2.369" d="M266.37 317.4c-14.82-12.9-34.8-20-62.72-10.35 7.5 3.25 15.63 4.36 22.53 7.9l40.2 2.45z" stroke-linejoin="round"/><path fill="none" stroke="#00a400" stroke-width="2.22" d="M223.44 308.26c29.23.6 37.75 7.9 36.23 6.7" stroke-linecap="round"/><path fill="#006800" fill-rule="evenodd" stroke="#004100" stroke-width="2.22" d="M266.96 318.92c-8.72 1.72-20.8 10.15-24.35 9.74-9.53-1.1-18.45-4.98-27.7-7.92-3.84-1.22-7.7 0-11.57 0 32.78-15.52 43.95-13.4 63.63-1.82z" stroke-linejoin="round"/><path fill="#006800" fill-rule="evenodd" stroke="#004100" stroke-width="2.369" d="M245.36 296.08s-10.96 1.52-15.83 1.82c-4.87-.3-11.95-4.84-19.8-13.1-4.08-4.47-13.38-3.94-13.38-3.94 20.6-4.37 36.63-.2 49 15.22zm-14.92-21.3c-14.92-.92-33.5-14.3-37.76-30.14 0 .2 5.48 3.45 4.57 4.26 24.46 6.2 26.08 11.16 33.2 25.87zm24.96 25.56c2.13-13.5 2.74-22.42-3.65-30.44-5.28-6.1-6.6-9.74-10.35-18.27-1.1 17.76-4.97 32.48 14 48.7zm-23.45-37.44c11.06-16.14 13-28.3 11.27-47.5-.3 1.53-3.96 10.96-4.27 10.96-16.44 10.35-9.13 26.5-7 36.54zM222.22 184.96c11.06 16.14 9.34 31.36 7.6 50.54-.3-1.52-3.94-10.96-4.24-10.96-16.45-10.35-5.48-29.53-3.35-39.58zM231.35 209.93c26.8-13.5 16.44-30.65 21.3-43.84-18.56 13.8-21 28.5-21.3 43.83z" stroke-linejoin="round"/><path fill="none" stroke="#00a400" stroke-width="2.22" d="M235 206.58c3.35-9.44 10.05-25.57 10.66-25.57m-18.57 45.37c-.62-6.7-3.97-24.66-4.27-26.5" stroke-linecap="round"/><path fill="#006800" fill-rule="evenodd" stroke="#004100" stroke-width="2.369" d="M228.3 256.5c-14.92-.9-31.05-21.3-35.3-37.14 0 .2 5.47 3.45 4.55 4.26 21.42 9.54 23.65 18.17 30.75 32.88zm-4.43-14c-11.06-16.14-13-28.32-11.26-47.5.3 1.52 3.97 10.96 4.27 10.96 16.44 10.35 9.13 26.5 7 36.53zm9.9-28.3c27.72-12.3 19.2-25.17 27.4-38.67-18.56 13.8-27.08 23.34-27.4 38.66z" stroke-linejoin="round"/><path fill="none" stroke="#00a400" stroke-width="2.22" d="M235 211.44c11.27-11.26 15.22-20.7 15.22-20.7" stroke-linecap="round"/><g fill-rule="evenodd"><path fill="#ffe100" stroke="#e9bf00" stroke-width="2.369" d="M333.56 366.36l13.5.27c-44.8-41.94-130.6-60.2-118.68-137.4-12.3 83.7 70.12 91.42 105.18 137.13z"/><path fill="#9d4916" stroke="#68300e" stroke-width="1.111" d="M235.42 212.66a4.3 4.3 0 1 1-8.6 0 4.3 4.3 0 0 1 8.6 0zm-2.63 23.64a4.06 4.06 0 1 1-8.13 0 4.06 4.06 0 0 1 8.12 0zm3.8 33.68a3.58 3.58 0 1 1-7.16 0 3.58 3.58 0 0 1 7.16 0zm31.28 37.24a3.58 3.58 0 1 1-7.17 0 3.58 3.58 0 0 1 7.18 0zm4.53 10.7a3.58 3.58 0 1 1-7.15 0 3.58 3.58 0 0 1 7.16 0z"/></g><g fill="#fff" fill-rule="evenodd"><g stroke="#000" stroke-width="1.111"><path d="M288.2 349.03c-2.35-2.13-3.85-3.5-4.77-5.83l-14.05-1.52c-.06 2.67-.12 5.34-.2 8.02l19.02-.67zM185.3 339.57c8.17 1.5 20.47-.75 24.48 4.52 4.83 5.45-15.1 13.86-12.24 18.6 6.16 6.5 12.5 3.82 19.4.2 1.62-3.5 2.88-9.8 3.76-11.66-2.5-5.77-9.25-8.6-7.53-17.32 11.37-4.25 33.23-3.9 35.6-2.26 1.83 3.63.17 5.28.55 8.16-1.88 3.64-6.73 9.8-6.74 13.08 11.93 4.2 15.08-.65 25.8-.36 12.58.15 20.23 3.53 22.96-1.47-1.87-4.32-13.4-.8-17.78-3.58-2.2-.75-3.6-2.5-5.5-4.45s-7.2-2.04-8-6.82c2.23-10.2 16.97-8.65 19.38-10.2l38.4 2.62c6.96-.2 10.9 12.33 1.5 16.1-9.4 3.76-37.18-5.6-49.23.83-.62-2.62-9.28-6.58-9.9-6.7-3.7 1.1-10.88.7-10.88.7-1.76 3.25-3.77 5.64-5.52 8.9-7.98-3.5-15.52 2.72-24.23.88 0 0-13.17 1.5-13.55 1.5s-8.66-.75-8.66-.75c-4.4 1.27-8.78 2.52-13.18 3.78l9.42-8.3-8.3-6zM184.73 337.95a3.63 3.63 0 1 1-7.26 0 3.63 3.63 0 0 1 7.26 0zm-.95 17.96a3.63 3.63 0 1 1-7.26 0 3.63 3.63 0 0 1 7.26 0z"/></g><g stroke="#000" stroke-width="1.111"><path d="M346.25 349.1c2.36-2.14 3.85-3.5 4.78-5.83l14.04-1.53.2 8.02-19.02-.66zM449.14 339.64c-8.15 1.5-20.45-.76-24.47 4.5-4.82 5.48 15.1 13.9 12.24 18.6-6.15 6.53-12.5 3.84-19.38.24-1.63-3.52-2.88-9.8-3.77-11.67 2.5-5.77 9.25-8.6 7.53-17.3-11.37-4.26-33.23-3.9-35.58-2.27-1.85 3.62-.2 5.27-.57 8.16 1.9 3.63 6.73 9.8 6.74 13.06-11.93 4.2-15.07-.64-25.8-.36-12.58.16-20.23 3.53-22.96-1.47 1.88-4.3 13.4-.8 17.8-3.57 2.18-.74 3.6-2.5 5.5-4.44s7.2-2.04 8-6.82c-2.23-10.2-16.97-8.65-19.38-10.22l-38.4 2.64c-6.96-.2-10.9 12.32-1.5 16.1 9.4 3.75 37.18-5.6 49.23.83.62-2.62 9.28-6.6 9.9-6.7 3.7 1.1 10.9.7 10.9.7 1.75 3.25 3.75 5.64 5.5 8.9 7.98-3.5 15.52 2.72 24.23.88 0 0 13.18 1.5 13.56 1.5s8.65-.75 8.65-.75l13.17 3.76c-3.13-2.76-6.27-5.52-9.4-8.28l8.27-6.02zM449.72 338.02a3.63 3.63 0 1 0 7.26 0 3.63 3.63 0 0 0-7.26 0zm.95 17.96a3.63 3.63 0 1 0 7.26 0 3.63 3.63 0 0 0-7.26 0z"/></g><path d="M317 329.34c-3.25-.6-4.4-.43-6.58-.65-1.72 5.26-3.43 10.53-5.15 15.8 7.94.72 15.3.72 15.3.66-4.82-.98-3.65-15.75-3.58-15.82z"/></g><g font-size="9" font-family="Trebuchet MS" font-weight="bold"><text x="448.605" y="344.274" transform="translate(-464.91 -233.28) scale(1.666)"><tspan x="448.605" y="344.274">L</tspan></text><text x="453.64" y="344.622" transform="translate(-464.91 -233.28) scale(1.666)"><tspan x="453.64" y="344.622">I</tspan></text><text x="456.678" y="345.056" transform="translate(-464.91 -233.28) scale(1.666)"><tspan x="456.678" y="345.056">B</tspan></text><text x="462.58" y="345.49" transform="translate(-464.91 -233.28) scale(1.666)"><tspan x="462.58" y="345.49">E</tspan></text><text x="468.309" y="345.576" transform="translate(-464.91 -233.28) scale(1.666)"><tspan x="468.309" y="345.576">R</tspan></text><text x="473.952" y="345.403" transform="translate(-464.91 -233.28) scale(1.666)"><tspan x="473.952" y="345.403">T</tspan></text><text x="479.247" y="344.535" transform="translate(-464.91 -233.28) scale(1.666)"><tspan x="479.247" y="344.535">A</tspan></text><text x="485.497" y="344.274" transform="translate(-464.91 -233.28) scale(1.666)"><tspan x="485.497" y="344.274">S</tspan></text></g><path fill="none" stroke="#00a400" stroke-width="2.22" d="M231.35 318.62c10.05 1.2 24.06.3 30.14 0m-45.37-34.42c8.52 6.7 27.1 10.66 26.8 10.66m10.64 1.84c-2.74-14-5.78-17.36-8.22-26.2m-43.53-15.83c14.3 6.4 16.44 10.65 25.57 17.05m5.17-14c1.22-17.36 3.65-21.92 7.92-25.88m-38.68-2.12c5.18 5.78 22.23 23.74 22.23 23.74m-7-39.58c6.4 4.56 6.4 21 6.4 21" stroke-linecap="round"/></svg>