<svg xmlns="http://www.w3.org/2000/svg" width="557pt" height="333pt" viewBox="0 0 557 333" version="1.1">
<path fill="#ffffff" d=" M 0.00 0.00 L 557.00 0.00 L 557.00 22.66 C 434.02 22.68 311.04 22.69 188.06 22.66 C 187.96 28.99 188.00 35.33 188.01 41.67 C 311.01 41.57 434.00 41.69 557.00 41.61 L 557.00 59.19 C 434.00 59.20 311.00 59.22 188.00 59.18 C 188.02 65.55 187.90 71.91 188.13 78.27 C 311.08 78.20 434.04 78.31 557.00 78.22 L 557.00 95.60 C 434.01 95.63 311.02 95.60 188.03 95.61 C 187.98 101.96 188.01 108.30 188.00 114.64 C 311.00 114.63 434.00 114.69 557.00 114.61 L 557.00 132.36 C 434.00 132.37 311.01 132.41 188.01 132.35 C 188.00 138.68 187.97 145.02 188.04 151.36 C 283.37 151.32 378.70 151.35 474.03 151.34 C 501.68 151.26 529.35 151.51 557.00 151.22 L 557.00 168.75 C 434.02 168.75 311.03 168.78 188.05 168.73 C 187.96 175.03 188.00 181.32 188.01 187.62 C 311.01 187.59 434.00 187.65 557.00 187.59 L 557.00 205.23 C 434.00 205.27 311.01 205.22 188.01 205.25 C 188.01 211.60 187.95 217.94 188.07 224.28 C 311.05 224.21 434.02 224.33 557.00 224.23 L 557.00 241.67 C 434.02 241.69 311.03 241.69 188.05 241.67 C 187.97 247.90 187.98 254.13 188.04 260.36 C 272.37 260.34 356.69 260.35 441.02 260.35 C 479.68 260.27 518.34 260.51 557.00 260.23 L 557.00 277.73 C 434.03 277.74 311.05 277.76 188.08 277.72 C 187.96 284.20 187.93 290.68 188.11 297.16 C 190.40 296.95 192.69 296.77 195.00 296.76 C 315.67 296.80 436.33 296.81 557.00 296.75 L 557.00 314.37 C 434.00 314.38 311.00 314.41 188.01 314.36 C 188.00 320.57 187.96 326.79 188.06 333.00 L 0.00 333.00 L 0.00 0.00 Z"/>
<path fill="#8ba2c0" d=" M 88.59 20.72 C 91.11 20.75 93.64 20.56 96.15 20.86 C 98.25 23.08 97.07 26.45 97.22 29.18 C 99.55 29.36 101.91 29.39 104.21 29.84 C 105.44 32.59 104.60 35.72 104.56 38.62 C 101.92 38.97 99.25 39.19 96.60 38.73 C 98.42 36.96 101.18 37.75 103.47 37.48 C 103.47 35.15 103.48 32.81 103.47 30.48 C 101.16 30.42 98.86 30.37 96.55 30.32 C 96.44 27.61 96.37 24.90 96.27 22.19 C 93.75 22.24 91.23 22.28 88.71 22.30 C 88.59 24.96 88.49 27.63 88.36 30.29 C 86.02 30.38 83.67 30.46 81.33 30.55 C 81.36 32.89 81.39 35.23 81.44 37.57 C 83.63 37.56 85.82 37.54 88.01 37.52 C 88.28 40.00 89.58 43.14 87.26 45.03 C 87.44 43.12 87.60 41.20 87.76 39.29 C 85.60 39.29 83.45 39.30 81.30 39.35 C 79.96 36.41 79.54 32.86 80.78 29.84 C 83.08 29.39 85.43 29.36 87.75 29.16 C 87.57 26.32 87.34 23.38 88.59 20.72 Z"/>
<path fill="#090806" d=" M 88.71 22.30 C 91.23 22.28 93.75 22.24 96.27 22.19 C 96.37 24.90 96.44 27.61 96.55 30.32 C 98.86 30.37 101.16 30.42 103.47 30.48 C 103.48 32.81 103.47 35.15 103.47 37.48 C 101.18 37.75 98.42 36.96 96.60 38.73 C 96.57 40.26 96.56 41.79 96.56 43.32 C 97.31 44.38 98.06 45.46 98.78 46.55 L 99.56 46.38 C 100.43 48.41 100.65 50.58 100.43 52.77 C 101.08 52.63 102.38 52.35 103.04 52.21 C 102.65 52.01 101.88 51.59 101.50 51.38 C 100.91 49.62 100.30 47.83 100.45 45.95 C 100.82 45.42 101.56 44.37 101.93 43.84 C 103.76 42.85 105.60 42.24 107.38 43.70 C 107.67 44.46 107.96 45.23 108.25 46.00 C 108.88 43.13 109.22 39.49 112.43 38.31 C 114.46 36.70 116.53 39.02 117.88 40.43 L 118.50 40.61 C 118.54 42.76 118.61 44.91 118.83 47.05 C 119.01 46.61 119.35 45.73 119.53 45.29 L 120.30 45.54 C 120.59 43.39 121.96 41.78 123.61 40.47 C 124.52 40.50 126.35 40.56 127.26 40.59 C 130.31 42.94 129.84 46.77 129.44 50.13 C 129.74 49.68 130.33 48.78 130.63 48.32 C 132.26 48.32 133.89 48.32 135.52 48.35 C 136.50 49.56 137.47 50.82 137.87 52.36 L 138.55 52.53 L 138.32 53.84 C 139.17 53.75 140.89 53.58 141.75 53.49 C 141.68 51.84 141.60 50.20 141.52 48.55 L 142.17 48.38 C 142.48 46.68 144.06 45.91 145.39 45.13 L 145.47 44.47 C 146.47 44.49 147.48 44.50 148.48 44.52 L 148.53 45.11 C 152.70 46.60 151.31 51.24 151.42 54.64 C 152.01 53.79 152.50 52.88 152.86 51.91 C 154.59 49.99 156.85 49.03 159.44 49.43 L 159.36 50.54 L 160.23 50.53 C 160.60 50.85 161.32 51.50 161.68 51.82 C 161.61 52.22 161.46 53.02 161.38 53.42 L 162.45 53.53 C 162.44 54.25 162.43 55.69 162.43 56.41 L 161.47 56.58 L 161.63 58.32 C 163.69 58.31 165.88 58.15 167.63 59.47 L 167.44 60.58 L 168.56 60.58 C 168.79 63.47 169.03 66.65 166.40 68.56 L 165.81 68.47 L 165.23 69.42 C 164.70 69.43 163.64 69.46 163.11 69.47 C 163.13 69.73 163.16 70.25 163.18 70.51 C 165.09 70.43 167.00 70.47 168.89 70.84 C 169.18 71.19 169.76 71.89 170.05 72.23 C 170.86 74.42 170.56 76.71 170.16 78.95 C 169.60 79.20 168.48 79.71 167.92 79.96 C 167.38 80.12 166.30 80.44 165.76 80.59 C 166.06 79.88 166.66 78.47 166.96 77.76 C 167.23 77.54 167.77 77.10 168.03 76.88 C 168.27 76.00 168.49 75.12 168.69 74.23 C 167.07 72.68 165.14 72.30 163.19 73.59 C 162.88 76.08 163.95 78.16 165.98 79.67 C 164.90 79.68 162.75 79.70 161.67 79.72 C 162.92 80.82 164.20 81.90 165.47 82.99 C 166.00 83.45 167.07 84.38 167.60 84.84 C 167.44 86.89 166.59 88.84 165.07 90.26 C 163.52 90.87 161.79 90.43 160.18 90.49 C 160.32 91.75 160.45 93.01 160.60 94.26 C 159.74 95.62 158.77 96.89 157.51 97.88 L 157.35 98.37 C 156.42 98.39 155.48 98.42 154.56 98.44 L 154.65 97.44 L 153.73 97.52 C 153.42 97.20 152.79 96.57 152.48 96.26 C 152.35 95.63 152.10 94.36 151.97 93.72 C 151.59 95.10 151.22 96.49 150.81 97.86 C 150.27 98.77 149.73 99.68 149.20 100.60 L 149.09 100.59 C 147.70 100.58 146.30 100.56 144.91 100.55 C 144.58 100.20 143.91 99.49 143.58 99.13 C 143.40 101.03 143.38 102.96 142.89 104.82 C 141.62 106.11 139.99 107.02 138.85 108.44 C 137.32 113.35 136.61 118.48 135.28 123.45 C 129.16 125.16 122.82 125.58 116.51 125.92 C 113.58 125.91 110.58 125.87 107.84 124.69 C 113.86 124.70 119.82 123.86 125.80 123.33 C 125.81 123.15 125.81 122.79 125.82 122.61 C 125.25 122.51 124.12 122.32 123.55 122.23 C 117.89 120.20 111.82 120.69 105.97 119.69 C 97.40 118.18 88.57 118.24 79.98 119.60 C 72.59 120.77 64.87 120.30 57.79 123.08 C 61.59 123.78 65.42 124.27 69.28 124.55 L 70.04 126.15 C 62.89 125.51 55.68 125.22 48.72 123.29 C 47.92 117.72 46.55 112.23 45.13 106.78 C 43.98 106.64 42.83 106.50 41.68 106.36 C 41.59 104.38 41.47 102.40 41.40 100.42 C 39.73 100.42 38.05 100.60 36.39 100.32 C 33.61 98.89 34.40 95.36 34.10 92.83 C 32.57 94.83 30.92 99.10 27.67 97.21 L 25.66 96.06 C 26.48 95.94 28.12 95.72 28.94 95.61 C 29.32 95.55 30.09 95.44 30.48 95.39 C 30.59 94.20 30.66 93.00 30.72 91.81 C 30.25 91.43 29.29 90.66 28.82 90.28 C 28.29 90.98 27.76 91.68 27.24 92.39 C 26.40 93.56 25.57 94.74 24.65 95.85 C 24.65 93.39 25.33 91.02 26.49 88.88 C 24.42 89.60 22.30 90.25 20.12 90.55 C 19.74 90.26 18.98 89.69 18.61 89.40 C 18.33 88.81 17.79 87.63 17.51 87.05 C 17.63 84.65 19.09 82.69 20.28 80.72 C 18.86 80.49 17.44 80.30 16.01 80.19 C 13.97 78.14 14.30 75.23 14.46 72.60 C 15.21 71.88 15.95 71.16 16.70 70.45 C 18.53 70.49 20.36 70.51 22.19 70.42 C 21.24 69.68 20.07 69.38 19.11 68.69 C 18.18 68.01 17.28 67.29 16.44 66.50 C 16.35 64.61 16.34 62.73 16.40 60.84 C 17.23 60.04 18.06 59.23 18.87 58.41 C 20.47 58.38 22.07 58.37 23.67 58.38 C 21.69 55.63 22.19 51.58 25.47 50.14 L 25.52 49.47 C 26.85 49.48 28.19 49.49 29.52 49.49 C 29.95 50.07 30.82 51.23 31.26 51.81 C 31.41 52.37 31.73 53.47 31.88 54.03 C 31.27 53.76 30.04 53.23 29.43 52.96 C 28.19 52.34 26.77 52.40 25.44 52.22 C 25.10 54.48 25.41 56.71 26.63 58.67 C 27.33 58.54 28.03 58.38 28.71 58.20 C 29.72 57.05 30.48 55.71 31.20 54.37 C 32.28 54.44 33.35 54.50 34.42 54.56 C 33.86 52.30 33.44 49.99 33.44 47.64 L 33.41 46.95 C 34.45 46.38 35.49 45.82 36.53 45.27 L 36.48 44.50 C 37.49 44.50 38.49 44.50 39.50 44.49 L 39.55 45.24 C 40.51 45.76 41.47 46.29 42.43 46.82 C 42.59 48.96 42.64 51.10 42.63 53.25 C 43.87 53.48 45.12 53.72 46.36 53.96 C 46.96 51.81 47.90 49.78 49.60 48.28 C 51.37 48.34 53.29 48.04 54.84 49.12 C 55.09 49.50 55.58 50.26 55.83 50.64 C 56.07 50.56 56.56 50.41 56.80 50.34 C 56.12 49.22 55.45 48.10 54.67 47.05 C 54.94 45.55 55.24 44.06 55.52 42.57 L 56.52 42.63 L 56.47 41.50 L 57.58 41.51 L 57.53 40.55 C 58.93 40.55 60.33 40.55 61.74 40.55 C 62.62 41.73 63.50 42.94 63.93 44.37 L 64.63 44.58 L 64.35 45.94 C 64.72 45.92 65.44 45.89 65.80 45.88 C 65.77 45.12 65.71 43.62 65.67 42.87 C 66.09 41.91 66.51 40.96 66.92 40.00 C 67.40 39.60 68.36 38.80 68.84 38.41 C 70.86 38.19 72.85 38.42 74.63 39.43 L 74.70 40.12 C 75.49 41.75 76.15 43.45 76.79 45.15 C 77.26 44.68 78.20 43.72 78.66 43.25 L 78.61 42.62 C 79.57 42.60 80.53 42.56 81.48 42.53 L 81.49 43.15 C 83.35 44.07 84.13 45.92 84.73 47.80 C 85.57 46.87 86.42 45.96 87.26 45.03 C 89.58 43.14 88.28 40.00 88.01 37.52 C 85.82 37.54 83.63 37.56 81.44 37.57 C 81.39 35.23 81.36 32.89 81.33 30.55 C 83.67 30.46 86.02 30.38 88.36 30.29 C 88.49 27.63 88.59 24.96 88.71 22.30 Z"/>
<path fill="#0062f3" d=" M 188.06 22.66 C 311.04 22.69 434.02 22.68 557.00 22.66 L 557.00 41.61 C 434.00 41.69 311.01 41.57 188.01 41.67 C 188.00 35.33 187.96 28.99 188.06 22.66 Z"/>
<path fill="#fecd25" d=" M 90.47 24.35 C 91.48 24.35 93.49 24.37 94.49 24.37 C 94.51 27.04 94.55 29.70 94.64 32.37 C 96.95 32.45 99.26 32.51 101.58 32.56 C 101.56 33.31 101.52 34.79 101.50 35.54 C 99.22 35.58 96.94 35.62 94.66 35.67 C 94.58 38.00 94.53 40.32 94.50 42.64 C 93.48 42.63 91.46 42.59 90.45 42.58 C 90.41 40.27 90.38 37.97 90.32 35.67 C 88.02 35.61 85.72 35.56 83.42 35.52 C 83.41 34.78 83.39 33.30 83.38 32.56 C 85.69 32.51 88.01 32.47 90.33 32.40 C 90.40 29.72 90.43 27.03 90.47 24.35 Z"/>
<path fill="#ffffff" d=" M 68.29 45.23 C 67.96 42.87 68.84 41.14 71.07 40.32 C 71.66 40.74 72.84 41.56 73.43 41.97 C 73.48 43.06 73.52 44.16 73.56 45.26 C 72.70 45.64 71.84 46.03 70.99 46.43 C 70.32 46.13 68.97 45.53 68.29 45.23 Z"/>
<path fill="#ffffff" d=" M 111.47 41.82 C 112.14 41.44 113.48 40.69 114.15 40.31 C 116.15 41.23 116.72 43.06 116.57 45.12 C 115.93 45.46 114.65 46.13 114.01 46.47 C 113.33 46.19 111.98 45.62 111.30 45.34 C 111.35 44.17 111.41 42.99 111.47 41.82 Z"/>
<path fill="#ffffff" d=" M 57.50 43.53 C 58.69 43.45 59.87 43.37 61.06 43.31 C 61.48 44.03 62.31 45.49 62.73 46.22 C 61.51 47.95 59.61 48.76 57.50 48.60 C 57.45 46.91 57.45 45.22 57.50 43.53 Z"/>
<path fill="#ffffff" d=" M 122.42 44.63 C 123.70 43.08 125.62 43.25 127.40 43.55 C 127.58 45.31 127.81 47.18 126.50 48.61 C 126.07 48.57 125.21 48.47 124.78 48.42 C 124.22 48.10 123.08 47.46 122.52 47.15 C 122.48 46.31 122.45 45.47 122.42 44.63 Z"/>
<path fill="#ffffff" d=" M 78.45 45.57 C 79.49 45.55 80.53 45.54 81.58 45.53 C 81.67 46.89 81.75 48.26 81.79 49.64 C 80.62 49.62 79.44 49.60 78.26 49.58 C 78.30 48.24 78.37 46.91 78.45 45.57 Z"/>
<path fill="#ffffff" d=" M 103.72 45.50 C 104.63 45.55 105.54 45.60 106.45 45.65 C 106.53 46.97 106.59 48.30 106.64 49.62 C 105.13 49.44 102.88 50.24 102.54 48.11 C 102.83 47.46 103.42 46.15 103.72 45.50 Z"/>
<path fill="#fecd25" d=" M 88.06 47.11 C 91.09 45.46 95.70 45.43 97.79 48.61 C 97.80 51.07 97.75 53.52 97.56 55.97 C 95.71 55.97 94.57 55.15 94.14 53.50 C 92.98 53.49 91.81 53.48 90.65 53.49 C 89.76 54.63 88.66 55.50 87.36 56.10 C 87.34 53.15 86.47 49.81 88.06 47.11 Z"/>
<path fill="#ffffff" d=" M 36.67 47.25 C 37.83 47.44 39.00 47.62 40.15 47.88 C 40.58 49.25 40.47 50.70 40.49 52.12 C 39.67 52.59 38.85 53.08 38.03 53.56 C 37.18 53.07 36.33 52.59 35.48 52.11 C 35.33 50.37 35.58 48.68 36.67 47.25 Z"/>
<path fill="#ffffff" d=" M 145.59 47.38 C 146.54 47.42 147.49 47.45 148.45 47.47 C 149.80 49.32 149.45 51.49 148.27 53.31 C 147.40 53.33 146.54 53.35 145.67 53.38 C 144.02 51.68 143.82 49.09 145.59 47.38 Z"/>
<path fill="#8ba2c0" d=" M 31.26 51.81 C 31.52 50.21 32.53 48.93 33.44 47.64 C 33.44 49.99 33.86 52.30 34.42 54.56 C 33.35 54.50 32.28 54.44 31.20 54.37 C 30.48 55.71 29.72 57.05 28.71 58.20 C 28.97 56.45 29.24 54.71 29.43 52.96 C 30.04 53.23 31.27 53.76 31.88 54.03 C 31.73 53.47 31.41 52.37 31.26 51.81 Z"/>
<path fill="#fecd25" d=" M 64.91 48.97 C 68.73 47.47 72.91 48.74 76.15 50.99 C 79.24 53.15 82.65 54.90 85.42 57.49 C 85.44 58.34 84.73 58.96 84.40 59.70 C 82.40 58.63 80.34 57.69 78.28 56.73 C 73.42 55.80 68.48 55.01 63.64 56.59 C 62.26 58.16 60.97 59.81 59.74 61.50 C 59.61 63.39 59.42 65.29 58.68 67.06 C 59.21 72.15 62.13 76.22 65.33 79.97 C 60.23 79.97 56.95 75.26 54.96 71.13 C 52.06 65.42 54.40 58.81 57.54 53.74 C 59.09 51.02 62.18 50.04 64.91 48.97 Z"/>
<path fill="#fecd25" d=" M 112.05 49.01 C 115.45 47.70 119.01 48.77 122.33 49.73 C 123.57 50.49 124.80 51.26 126.05 52.00 C 130.17 57.29 132.02 64.36 130.02 70.86 C 128.03 75.53 124.25 79.21 119.47 80.97 C 119.45 80.39 119.41 79.25 119.39 78.68 C 127.27 74.38 127.79 62.27 121.29 56.53 L 120.33 56.28 C 115.72 54.77 110.75 55.33 106.24 56.90 C 104.14 57.91 101.99 58.81 99.81 59.63 C 99.73 59.03 99.57 57.84 99.49 57.24 C 103.59 54.37 107.69 51.48 112.05 49.01 Z"/>
<path fill="#ffffff" d=" M 50.54 50.47 C 51.04 50.48 52.06 50.52 52.57 50.54 C 53.31 51.27 54.06 51.99 54.81 52.71 C 54.34 53.97 53.83 55.22 53.32 56.47 C 52.41 56.50 51.51 56.54 50.60 56.58 C 49.46 55.13 49.24 53.33 49.19 51.54 L 50.57 51.62 L 50.54 50.47 Z"/>
<path fill="#ffffff" d=" M 131.58 50.51 C 132.48 50.53 133.38 50.54 134.28 50.55 C 135.69 52.35 136.04 54.73 134.46 56.56 C 133.52 56.53 132.57 56.50 131.63 56.48 C 130.79 54.96 130.34 53.30 130.19 51.57 L 131.56 51.67 L 131.58 50.51 Z"/>
<path fill="#8ba2c0" d=" M 82.52 51.19 C 84.12 50.58 84.67 51.11 84.15 52.79 C 82.55 53.40 82.01 52.87 82.52 51.19 Z"/>
<path fill="#ffffff" d=" M 25.44 52.22 C 26.77 52.40 28.19 52.34 29.43 52.96 C 29.24 54.71 28.97 56.45 28.71 58.20 C 28.03 58.38 27.33 58.54 26.63 58.67 C 25.41 56.71 25.10 54.48 25.44 52.22 Z"/>
<path fill="#ffffff" d=" M 155.56 52.24 C 156.85 52.34 158.14 52.47 159.42 52.61 C 159.79 54.67 159.56 56.69 158.29 58.42 C 157.92 58.40 157.19 58.36 156.82 58.35 C 155.97 57.59 155.11 56.84 154.26 56.10 C 154.53 55.07 154.94 54.08 155.32 53.08 L 155.56 52.24 Z"/>
<path fill="#dd2618" d=" M 106.24 56.90 C 110.75 55.33 115.72 54.77 120.33 56.28 C 118.50 56.30 116.68 56.31 114.86 56.31 C 114.87 59.28 118.01 57.92 119.78 58.55 L 119.58 58.74 C 114.49 58.92 109.08 58.31 104.48 61.01 C 108.17 63.56 112.71 63.14 116.94 63.50 C 118.55 63.47 120.39 63.84 121.73 62.69 C 121.84 62.40 122.06 61.81 122.17 61.51 L 122.55 61.31 C 122.58 61.90 122.66 63.07 122.70 63.65 C 121.25 64.47 119.53 64.26 117.95 64.27 C 113.08 64.03 108.03 63.89 103.64 61.52 C 106.38 58.12 111.36 58.62 115.23 57.63 C 112.85 55.13 109.20 56.79 106.24 56.90 Z"/>
<path fill="#fecd25" d=" M 25.91 65.12 C 28.37 60.85 32.24 57.37 36.86 55.60 C 38.87 55.54 40.89 55.48 42.90 55.58 C 44.31 56.25 45.80 56.65 47.33 56.90 C 48.66 57.68 50.04 58.38 51.48 58.94 C 51.50 59.76 51.52 60.59 51.54 61.42 C 46.62 61.36 41.07 60.50 36.87 63.70 C 31.41 67.13 28.83 73.79 29.63 80.08 C 30.56 82.68 31.09 85.81 33.66 87.37 C 35.34 88.20 37.07 88.92 38.85 89.51 C 40.48 89.58 42.11 89.67 43.74 89.74 C 43.34 90.35 42.94 90.96 42.55 91.58 C 39.71 91.67 36.83 91.70 34.06 90.96 C 29.27 88.31 24.27 83.99 24.36 78.04 C 24.38 73.74 23.49 68.97 25.91 65.12 Z"/>
<path fill="#fecd25" d=" M 137.65 56.87 C 139.17 56.61 140.74 56.38 142.10 55.57 C 146.29 55.13 150.74 56.11 153.89 59.03 C 156.89 61.32 158.54 64.77 160.41 67.95 C 160.67 73.64 161.70 80.06 158.07 84.95 C 154.56 90.38 147.81 92.48 141.62 91.55 C 141.60 91.08 141.54 90.14 141.51 89.67 C 143.36 89.61 145.21 89.53 147.06 89.46 C 149.09 88.38 151.58 87.80 152.93 85.80 C 155.28 83.08 154.49 79.27 154.66 75.98 C 155.31 68.05 147.64 61.19 139.97 61.14 C 137.24 60.31 134.31 62.19 131.84 60.11 C 133.76 59.01 135.72 57.97 137.65 56.87 Z"/>
<path fill="#8ba2c0" d=" M 90.31 58.50 C 91.44 58.44 92.57 58.38 93.70 58.33 C 93.61 59.45 93.52 60.58 93.42 61.71 C 91.15 61.89 90.34 60.49 90.31 58.50 Z"/>
<path fill="#fecd25" d=" M 61.99 63.50 C 62.65 61.52 63.74 59.38 65.83 58.62 C 70.58 58.09 75.59 58.23 80.05 60.15 C 82.19 61.90 78.14 62.32 77.14 63.33 C 72.10 63.59 67.04 63.86 61.99 63.50 Z"/>
<path fill="#fecd25" d=" M 87.60 58.77 C 88.72 60.31 88.33 62.30 88.37 64.08 C 88.24 68.08 88.83 72.12 87.92 76.06 C 87.51 74.70 87.12 73.34 86.74 71.97 C 86.59 69.82 86.51 67.67 86.47 65.53 L 87.70 65.80 C 87.44 63.46 87.32 61.11 87.60 58.77 Z"/>
<path fill="#fecd25" d=" M 96.54 59.39 C 96.98 59.51 97.85 59.74 98.28 59.85 C 98.32 64.60 98.17 69.35 98.79 74.07 L 98.72 74.63 C 98.18 74.91 97.11 75.46 96.58 75.73 C 96.28 76.82 95.99 77.92 95.67 79.01 C 95.63 78.02 95.59 77.04 95.57 76.05 C 97.12 74.76 96.24 72.68 96.40 71.00 C 96.31 67.13 96.45 63.26 96.54 59.39 Z"/>
<path fill="#fecd25" d=" M 104.48 61.01 C 109.08 58.31 114.49 58.92 119.58 58.74 C 120.46 59.64 121.33 60.56 122.17 61.51 C 122.06 61.81 121.84 62.40 121.73 62.69 C 120.39 63.84 118.55 63.47 116.94 63.50 C 112.71 63.14 108.17 63.56 104.48 61.01 Z"/>
<path fill="#0062f3" d=" M 188.00 59.18 C 311.00 59.22 434.00 59.20 557.00 59.19 L 557.00 78.22 C 434.04 78.31 311.08 78.20 188.13 78.27 C 187.90 71.91 188.02 65.55 188.00 59.18 Z"/>
<path fill="#ffffff" d=" M 19.67 60.64 C 20.61 60.60 21.56 60.56 22.50 60.52 L 22.33 61.56 L 23.64 61.59 C 23.44 63.06 23.91 64.87 22.53 65.93 L 22.46 66.62 C 21.53 66.59 20.60 66.56 19.67 66.53 C 18.13 64.71 18.22 62.47 19.67 60.64 Z"/>
<path fill="#ffffff" d=" M 161.40 61.48 L 162.52 61.57 L 162.76 60.07 C 164.29 60.68 165.64 61.64 166.88 62.72 C 166.22 64.81 165.27 67.14 162.62 66.87 L 162.58 65.84 C 162.14 65.47 161.68 65.11 161.22 64.77 C 160.95 64.05 160.69 63.33 160.43 62.61 L 161.62 62.66 L 161.40 61.48 Z"/>
<path fill="#8ba2c0" d=" M 81.85 62.79 C 82.59 62.65 84.07 62.37 84.81 62.23 C 84.72 64.49 84.60 66.74 84.49 69.00 C 82.98 68.66 81.49 68.23 80.08 67.59 C 77.38 67.39 74.63 67.06 71.94 67.56 C 69.02 68.78 66.18 70.38 64.05 72.77 C 63.13 72.43 62.24 71.99 61.41 71.48 C 61.98 71.44 63.12 71.36 63.69 71.32 C 65.56 69.97 67.45 68.63 69.34 67.31 C 66.83 67.20 64.32 67.09 61.82 66.93 C 61.75 67.75 61.60 69.40 61.52 70.22 C 61.40 68.63 61.32 67.04 61.26 65.45 C 62.83 65.55 64.40 65.64 65.97 65.73 C 70.22 65.80 74.58 64.99 78.77 65.76 C 80.27 66.51 81.80 67.22 83.33 67.92 C 83.43 66.49 83.54 65.06 83.64 63.64 C 83.47 63.56 83.12 63.40 82.95 63.32 L 81.85 62.79 Z"/>
<path fill="#8ba2c0" d=" M 37.81 66.20 C 39.37 64.17 41.87 63.52 44.29 63.22 C 44.65 65.15 45.70 65.98 47.45 65.71 C 47.45 66.11 47.45 66.90 47.45 67.30 L 45.65 67.09 C 45.89 69.39 43.93 70.47 41.99 70.65 C 38.28 71.07 35.60 73.85 32.24 75.15 C 32.30 74.28 32.36 73.41 32.42 72.55 C 33.65 73.59 34.86 72.51 36.00 72.01 C 38.45 70.61 41.14 69.73 43.68 68.53 C 43.92 67.09 44.13 65.66 44.29 64.22 C 42.12 64.85 39.95 65.49 37.81 66.20 Z"/>
<path fill="#ffffff" d=" M 47.47 63.56 C 48.77 63.57 50.07 63.59 51.37 63.62 C 51.46 65.29 51.51 66.96 51.54 68.63 C 50.18 68.63 48.82 68.62 47.46 68.60 L 47.45 67.30 C 47.45 66.90 47.45 66.11 47.45 65.71 C 47.45 65.17 47.46 64.10 47.47 63.56 Z"/>
<path fill="#ffffff" d=" M 78.07 64.92 C 79.68 64.32 81.30 63.79 82.95 63.32 C 83.12 63.40 83.47 63.56 83.64 63.64 C 83.54 65.06 83.43 66.49 83.33 67.92 C 81.80 67.22 80.27 66.51 78.77 65.76 L 78.07 64.92 Z"/>
<path fill="#8ba2c0" d=" M 89.83 65.57 C 90.53 64.60 90.33 62.52 91.94 62.59 C 93.91 61.64 94.33 64.36 95.01 65.54 C 93.29 65.58 91.56 65.59 89.83 65.57 Z"/>
<path fill="#ffffff" d=" M 100.40 63.01 C 101.62 63.31 102.84 63.58 104.05 63.94 C 104.96 64.38 105.85 64.87 106.70 65.42 C 107.30 65.83 107.94 66.17 108.61 66.43 C 106.76 66.82 104.71 66.46 103.02 67.62 L 102.10 68.49 C 101.66 68.56 100.79 68.72 100.36 68.79 C 100.38 66.86 100.40 64.93 100.40 63.01 Z"/>
<path fill="#ffffff" d=" M 133.52 63.53 C 134.83 63.54 136.14 63.56 137.45 63.60 C 137.52 65.24 137.54 66.88 137.53 68.52 C 136.15 68.59 134.77 68.64 133.40 68.69 C 133.41 66.97 133.45 65.25 133.52 63.53 Z"/>
<path fill="#8ba2c0" d=" M 139.60 63.39 C 141.48 63.66 144.10 62.99 145.04 65.16 C 143.59 64.87 142.13 64.63 140.67 64.39 C 140.64 65.40 140.56 67.41 140.52 68.42 C 144.41 69.72 148.15 71.40 151.63 73.58 C 151.53 72.86 151.35 71.43 151.26 70.71 C 152.54 72.16 152.70 74.03 152.45 75.87 C 148.82 72.69 144.56 70.22 139.60 70.16 C 139.56 67.90 139.57 65.64 139.60 63.39 Z"/>
<path fill="#ffffff" d=" M 140.67 64.39 C 142.13 64.63 143.59 64.87 145.04 65.16 C 147.83 65.91 149.64 68.49 151.26 70.71 C 151.35 71.43 151.53 72.86 151.63 73.58 C 148.15 71.40 144.41 69.72 140.52 68.42 C 140.56 67.41 140.64 65.40 140.67 64.39 Z"/>
<path fill="#ffffff" d=" M 37.81 66.20 C 39.95 65.49 42.12 64.85 44.29 64.22 C 44.13 65.66 43.92 67.09 43.68 68.53 C 41.14 69.73 38.45 70.61 36.00 72.01 C 34.86 72.51 33.65 73.59 32.42 72.55 C 33.74 70.09 35.45 67.76 37.81 66.20 Z"/>
<path fill="#8ba2c0" d=" M 106.70 65.42 C 112.31 65.62 117.93 65.67 123.55 65.61 C 123.60 67.99 123.89 70.60 122.35 72.63 C 120.99 73.07 120.24 72.22 119.86 70.99 C 120.31 71.17 121.20 71.54 121.65 71.73 C 122.22 70.28 122.71 68.79 123.22 67.32 C 120.76 67.29 118.31 67.26 115.85 67.22 C 116.63 68.12 117.40 69.01 118.18 69.91 C 116.30 69.48 114.58 68.64 113.12 67.39 C 109.75 67.28 106.38 67.42 103.02 67.62 C 104.71 66.46 106.76 66.82 108.61 66.43 C 107.94 66.17 107.30 65.83 106.70 65.42 Z"/>
<path fill="#ffffff" d=" M 61.82 66.93 C 64.32 67.09 66.83 67.20 69.34 67.31 C 67.45 68.63 65.56 69.97 63.69 71.32 C 63.12 71.36 61.98 71.44 61.41 71.48 L 61.52 70.22 C 61.60 69.40 61.75 67.75 61.82 66.93 Z"/>
<path fill="#ffffff" d=" M 90.68 67.67 C 91.64 67.58 92.60 67.50 93.56 67.42 C 93.53 68.40 93.49 69.38 93.46 70.37 C 92.51 70.34 91.57 70.33 90.62 70.31 C 90.64 69.43 90.66 68.55 90.68 67.67 Z"/>
<path fill="#ffffff" d=" M 115.85 67.22 C 118.31 67.26 120.76 67.29 123.22 67.32 C 122.71 68.79 122.22 70.28 121.65 71.73 C 121.20 71.54 120.31 71.17 119.86 70.99 C 119.56 70.86 118.95 70.59 118.65 70.46 L 118.18 69.91 C 117.40 69.01 116.63 68.12 115.85 67.22 Z"/>
<path fill="#dd2618" d=" M 65.12 73.61 C 68.59 71.82 71.90 68.97 76.04 69.25 C 83.80 68.48 88.99 78.41 85.73 84.83 C 83.29 86.13 80.78 87.43 79.33 89.92 C 78.11 89.47 77.00 88.78 75.96 88.03 C 73.82 87.37 72.53 85.76 72.28 83.54 C 71.62 82.69 70.97 81.84 70.31 80.99 C 71.59 79.70 72.88 78.42 74.17 77.14 C 74.24 76.19 74.31 75.24 74.38 74.30 C 74.13 74.65 73.64 75.37 73.39 75.73 C 70.93 76.40 68.37 77.00 65.82 76.53 C 65.43 75.60 65.20 74.62 65.12 73.61 Z"/>
<path fill="#dd2618" d=" M 105.42 69.66 C 110.55 68.18 115.75 70.64 119.61 73.91 C 119.97 78.61 113.54 75.91 110.82 76.20 C 111.83 77.81 112.96 79.37 113.79 81.09 C 113.22 83.20 112.06 85.08 111.13 87.05 C 109.03 87.97 106.93 88.90 104.85 89.88 C 104.34 88.82 103.82 87.77 103.31 86.72 C 101.72 86.22 100.13 85.72 98.53 85.25 C 98.29 81.71 98.35 78.16 98.72 74.63 L 98.79 74.07 L 98.84 73.65 C 101.04 72.33 103.03 70.63 105.42 69.66 Z"/>
<path fill="#dd2618" d=" M 32.73 78.80 C 37.53 72.91 45.58 71.04 52.87 71.39 C 53.29 74.63 49.60 76.66 50.44 79.93 C 51.00 82.44 53.64 83.64 56.02 83.63 C 57.45 81.74 59.49 80.98 61.83 81.36 C 61.57 83.62 61.22 85.87 60.69 88.08 C 57.93 89.35 55.61 91.83 55.47 95.00 C 55.02 97.47 57.32 99.04 58.61 100.79 C 59.96 100.73 61.32 100.67 62.67 100.62 C 62.67 101.08 62.68 102.00 62.69 102.46 C 59.61 103.16 56.47 103.54 53.32 103.77 C 54.75 102.03 55.27 99.82 55.68 97.66 C 54.26 96.23 52.67 94.99 50.91 94.01 C 50.05 92.65 49.00 91.35 48.49 89.80 C 48.79 87.80 49.40 85.86 49.86 83.90 C 47.61 85.15 45.48 86.71 42.98 87.46 C 40.54 87.15 38.15 86.57 35.71 86.25 C 33.98 84.24 31.43 81.68 32.73 78.80 Z"/>
<path fill="#dd2618" d=" M 131.66 71.57 C 138.72 71.02 146.93 72.54 151.51 78.44 C 153.42 80.32 151.90 82.90 150.49 84.54 C 148.94 86.49 146.26 86.76 144.00 87.24 C 140.63 88.05 137.79 85.61 135.14 83.97 C 135.16 85.85 135.64 87.60 136.58 89.21 C 135.77 90.81 134.93 92.40 134.06 93.97 C 132.27 94.95 130.37 95.97 129.39 97.86 C 129.28 99.92 130.24 101.82 130.82 103.75 C 127.88 103.52 124.96 103.02 122.09 102.36 C 122.22 101.98 122.49 101.22 122.62 100.85 C 124.75 100.84 126.80 100.29 128.66 99.24 C 128.66 96.80 128.83 94.35 128.50 91.93 C 127.69 89.67 125.09 88.97 123.74 87.18 C 123.40 85.22 123.30 83.24 123.19 81.27 C 125.16 81.19 127.11 81.44 128.19 83.31 C 131.06 84.26 133.01 82.10 134.79 80.22 C 134.74 77.52 133.39 75.24 131.52 73.39 C 131.55 72.94 131.62 72.03 131.66 71.57 Z"/>
<path fill="#ffffff" d=" M 18.64 72.39 C 19.60 72.81 20.55 73.25 21.51 73.69 C 21.46 74.98 21.41 76.28 21.34 77.57 C 19.74 77.61 18.13 77.60 16.53 77.55 C 16.54 76.35 16.56 75.15 16.59 73.95 C 17.10 73.56 18.12 72.78 18.64 72.39 Z"/>
<path fill="#ffffff" d=" M 163.19 73.59 C 165.14 72.30 167.07 72.68 168.69 74.23 C 168.49 75.12 168.27 76.00 168.03 76.88 C 167.77 77.10 167.23 77.54 166.96 77.76 C 166.00 77.51 165.04 77.24 164.09 76.97 C 163.87 76.12 163.42 74.43 163.19 73.59 Z"/>
<path fill="#ffffff" d=" M 90.38 75.82 C 90.43 74.75 90.48 73.69 90.53 72.62 C 91.19 72.58 92.51 72.49 93.17 72.45 C 93.54 72.81 94.30 73.52 94.68 73.88 C 94.68 76.44 91.91 75.44 90.38 75.82 Z"/>
<path fill="#8ba2c0" d=" M 165.98 79.67 C 163.95 78.16 162.88 76.08 163.19 73.59 C 163.42 74.43 163.87 76.12 164.09 76.97 C 165.04 77.24 166.00 77.51 166.96 77.76 C 166.66 78.47 166.06 79.88 165.76 80.59 C 166.30 80.44 167.38 80.12 167.92 79.96 C 167.13 80.98 166.30 81.99 165.47 82.99 C 164.20 81.90 162.92 80.82 161.67 79.72 C 162.75 79.70 164.90 79.68 165.98 79.67 Z"/>
<path fill="#ffffff" d=" M 52.87 76.54 C 55.49 75.77 57.08 77.70 56.72 80.26 C 55.66 80.60 54.60 80.96 53.55 81.33 C 53.56 80.89 53.59 80.00 53.61 79.55 L 52.43 79.51 C 52.58 78.52 52.72 77.53 52.87 76.54 Z"/>
<path fill="#ffffff" d=" M 129.00 76.65 C 129.82 76.52 130.64 76.39 131.46 76.27 L 131.54 77.19 C 131.97 77.90 132.36 78.62 132.73 79.36 L 131.42 79.43 L 131.56 80.27 C 131.17 80.59 130.38 81.23 129.99 81.55 C 129.58 81.23 128.76 80.59 128.36 80.27 L 128.64 79.37 C 128.30 79.36 127.63 79.33 127.29 79.32 C 127.95 78.49 128.52 77.60 129.00 76.65 Z"/>
<path fill="#fecd25" d=" M 88.31 82.74 C 89.42 81.61 90.50 80.43 91.78 79.49 C 96.01 79.15 98.60 86.92 93.88 88.23 C 93.91 86.86 93.95 85.49 93.98 84.12 C 93.28 83.88 91.88 83.39 91.18 83.15 C 91.17 84.34 91.03 85.51 90.75 86.66 C 90.45 86.90 89.87 87.37 89.58 87.60 C 88.70 86.13 88.28 84.51 88.31 82.74 Z"/>
<path fill="#ffffff" d=" M 20.52 83.65 C 21.04 83.63 22.08 83.59 22.60 83.57 C 23.19 84.22 23.79 84.87 24.40 85.52 C 24.39 85.94 24.39 86.78 24.39 87.21 C 23.86 87.49 22.82 88.07 22.29 88.36 C 21.83 88.34 20.90 88.30 20.44 88.28 C 20.38 86.74 20.42 85.19 20.52 83.65 Z"/>
<path fill="#fecd25" d=" M 63.31 86.09 C 63.26 84.02 65.69 83.43 66.93 82.21 C 68.09 83.06 69.50 83.68 70.36 84.88 C 70.69 86.53 70.37 88.22 70.35 89.89 C 71.78 89.78 73.22 89.67 74.66 89.57 C 75.62 90.59 76.60 91.61 77.42 92.76 C 77.85 94.94 75.72 96.47 74.17 97.57 C 72.51 97.40 70.89 97.00 69.32 96.37 C 69.36 98.13 69.39 99.90 69.42 101.67 C 67.95 101.64 66.49 101.59 65.03 101.52 C 66.03 99.95 67.13 98.44 68.32 97.00 C 68.96 93.17 68.59 89.29 67.05 85.70 C 65.93 87.20 65.56 89.00 65.31 90.80 C 64.44 89.34 62.92 87.97 63.31 86.09 Z"/>
<path fill="#fecd25" d=" M 114.65 84.64 C 115.63 83.64 116.86 82.95 118.01 82.17 C 119.26 83.26 120.50 84.36 121.72 85.49 C 121.44 86.91 121.14 88.33 120.81 89.74 C 120.30 89.72 119.27 89.67 118.75 89.65 C 118.58 88.66 118.25 86.68 118.09 85.69 C 117.46 86.98 116.89 88.28 116.36 89.61 L 114.38 89.69 C 114.41 88.00 114.30 86.30 114.65 84.64 Z"/>
<path fill="#dd2618" d=" M 90.75 86.66 C 91.03 85.51 91.17 84.34 91.18 83.15 C 91.88 83.39 93.28 83.88 93.98 84.12 C 93.95 85.49 93.91 86.86 93.88 88.23 C 93.47 87.20 93.05 86.17 92.63 85.15 C 92.16 85.87 91.82 86.65 91.61 87.49 C 90.99 87.62 89.76 87.90 89.15 88.03 L 89.58 87.60 C 89.87 87.37 90.45 86.90 90.75 86.66 Z"/>
<path fill="#ffffff" d=" M 160.47 85.38 C 161.62 84.09 163.18 82.76 164.52 84.69 C 164.57 85.64 164.61 86.59 164.67 87.55 C 163.20 88.02 161.73 88.70 160.45 87.42 C 160.46 86.91 160.47 85.89 160.47 85.38 Z"/>
<path fill="#fecd25" d=" M 83.29 88.42 C 84.85 88.41 86.42 88.39 87.98 88.37 L 88.62 89.34 C 89.58 90.81 90.29 92.43 91.24 93.91 C 89.98 94.48 88.73 95.05 87.51 95.69 C 84.89 98.34 80.71 95.18 81.30 91.96 C 81.37 90.53 82.59 89.57 83.29 88.42 Z"/>
<path fill="#fecd25" d=" M 96.87 88.45 C 98.34 88.41 99.80 88.40 101.27 88.41 C 101.98 89.25 102.69 90.09 103.41 90.93 C 103.43 91.77 103.49 93.45 103.51 94.29 C 102.16 96.36 99.43 97.86 97.38 95.64 C 96.28 95.04 95.12 94.54 93.98 94.02 C 93.87 93.34 93.66 91.97 93.56 91.29 L 93.50 90.92 C 95.29 90.89 96.42 90.06 96.87 88.45 Z"/>
<path fill="#8ba2c0" d=" M 20.12 90.55 C 22.30 90.25 24.42 89.60 26.49 88.88 C 25.33 91.02 24.65 93.39 24.65 95.85 C 25.57 94.74 26.40 93.56 27.24 92.39 C 27.79 93.47 28.35 94.54 28.94 95.61 C 28.12 95.72 26.48 95.94 25.66 96.06 L 27.67 97.21 C 30.92 99.10 32.57 94.83 34.10 92.83 C 34.40 95.36 33.61 98.89 36.39 100.32 C 38.05 100.60 39.73 100.42 41.40 100.42 C 41.47 102.40 41.59 104.38 41.68 106.36 C 40.88 104.77 40.31 103.08 39.83 101.37 C 38.38 101.35 36.94 101.33 35.50 101.32 C 34.65 99.91 33.81 98.50 32.98 97.09 C 31.62 97.88 30.26 98.67 28.90 99.48 C 27.59 98.67 26.24 97.91 25.07 96.90 C 24.18 95.17 24.22 93.16 23.92 91.28 C 22.65 91.04 21.39 90.80 20.12 90.55 Z"/>
<path fill="#dd2618" d=" M 88.62 89.34 C 89.50 89.92 90.38 90.48 91.27 91.05 C 91.64 93.02 90.77 95.87 93.51 96.48 C 93.55 94.75 93.19 92.99 93.56 91.29 C 93.66 91.97 93.87 93.34 93.98 94.02 C 95.12 94.54 96.28 95.04 97.38 95.64 C 96.66 95.58 95.23 95.46 94.51 95.39 C 94.41 96.73 96.27 99.46 94.06 99.76 C 94.10 99.04 94.17 97.60 94.21 96.88 C 93.46 96.71 91.95 96.38 91.19 96.21 C 90.94 97.33 90.77 98.46 90.68 99.60 L 90.67 99.73 C 89.75 98.13 90.44 94.19 87.51 95.69 C 88.73 95.05 89.98 94.48 91.24 93.91 C 90.29 92.43 89.58 90.81 88.62 89.34 Z"/>
<path fill="#ffffff" d=" M 27.24 92.39 C 27.76 91.68 28.29 90.98 28.82 90.28 C 29.29 90.66 30.25 91.43 30.72 91.81 C 30.66 93.00 30.59 94.20 30.48 95.39 C 30.09 95.44 29.32 95.55 28.94 95.61 C 28.35 94.54 27.79 93.47 27.24 92.39 Z"/>
<path fill="#fecd25" d=" M 58.42 92.38 C 59.29 91.66 60.16 90.93 61.02 90.20 C 62.96 91.78 64.93 93.33 66.84 94.94 C 65.74 96.17 64.60 97.37 63.43 98.54 C 61.81 98.49 60.19 98.45 58.57 98.40 C 58.46 96.39 58.41 94.39 58.42 92.38 Z"/>
<path fill="#fecd25" d=" M 107.31 94.46 C 107.74 93.09 108.19 91.71 108.63 90.34 C 110.51 90.28 112.39 90.24 114.27 90.23 C 114.50 91.78 114.71 93.47 116.52 93.87 C 116.42 95.41 116.32 96.94 116.22 98.48 C 119.71 97.19 118.50 100.58 118.51 102.59 C 117.73 102.32 116.17 101.77 115.39 101.50 C 115.55 100.07 115.71 98.65 115.87 97.23 C 114.07 97.31 112.27 97.40 110.47 97.49 C 109.41 96.48 108.36 95.47 107.31 94.46 Z"/>
<path fill="#fecd25" d=" M 118.09 96.18 C 119.53 93.78 121.11 91.28 123.88 90.29 C 124.75 91.17 125.63 92.05 126.52 92.91 C 126.43 94.61 126.89 96.48 125.98 98.02 C 123.26 99.68 120.51 97.19 118.09 96.18 Z"/>
<path fill="#ffffff" d=" M 154.83 91.23 C 155.78 91.33 156.73 91.42 157.68 91.52 C 157.58 93.48 157.98 96.21 155.06 95.56 C 154.62 94.90 153.73 93.57 153.29 92.91 C 153.67 92.49 154.44 91.65 154.83 91.23 Z"/>
<path fill="#fecd25" d=" M 44.70 92.53 C 45.60 92.42 46.49 92.31 47.38 92.21 C 47.98 94.10 48.50 96.01 48.97 97.94 C 47.15 97.24 45.28 96.67 43.37 96.28 C 43.83 95.04 44.27 93.79 44.70 92.53 Z"/>
<path fill="#fecd25" d=" M 136.72 92.64 C 137.94 92.53 139.15 92.45 140.37 92.37 C 140.51 93.74 140.65 95.12 140.78 96.50 C 138.93 96.99 137.06 97.44 135.19 97.83 C 135.57 99.38 136.02 100.91 136.45 102.45 C 135.64 102.38 134.83 102.32 134.02 102.26 C 133.25 101.50 132.48 100.76 131.71 100.02 C 131.69 99.17 131.67 98.33 131.66 97.49 C 133.25 97.45 134.83 97.42 136.43 97.40 C 136.51 95.81 136.62 94.23 136.72 92.64 Z"/>
<path fill="#ffffff" d=" M 37.64 93.59 C 39.02 93.51 39.78 94.88 40.57 95.76 C 40.24 96.50 39.58 97.97 39.25 98.71 C 36.04 99.46 35.13 94.92 37.64 93.59 Z"/>
<path fill="#ffffff" d=" M 145.93 93.78 C 146.22 93.75 146.79 93.71 147.07 93.68 C 147.45 93.98 148.21 94.57 148.58 94.86 C 148.52 96.04 148.46 97.22 148.38 98.40 C 147.18 98.39 145.98 98.39 144.79 98.37 C 144.68 97.46 144.57 96.56 144.46 95.65 C 144.83 95.18 145.57 94.24 145.93 93.78 Z"/>
<path fill="#dd2618" d=" M 97.15 99.70 C 100.37 100.05 102.99 98.47 105.06 96.16 C 107.17 97.56 109.14 99.18 111.20 100.66 C 106.56 100.69 101.92 100.62 97.28 100.38 C 97.25 100.21 97.18 99.87 97.15 99.70 Z"/>
<path fill="#0062f3" d=" M 188.03 95.61 C 311.02 95.60 434.01 95.63 557.00 95.60 L 557.00 114.61 C 434.00 114.69 311.00 114.63 188.00 114.64 C 188.01 108.30 187.98 101.96 188.03 95.61 Z"/>
<path fill="#dd2618" d=" M 74.29 99.90 C 76.18 98.68 78.13 97.54 79.86 96.09 C 81.96 98.49 84.76 100.01 88.00 100.00 C 83.80 100.67 79.54 100.69 75.30 100.67 L 75.20 102.83 C 78.52 102.68 81.86 102.63 85.19 102.79 C 74.55 104.50 63.75 104.93 53.13 106.79 C 51.59 107.34 48.73 107.73 49.00 109.94 C 49.60 111.73 51.70 110.10 52.84 109.90 C 54.07 110.95 55.27 112.01 56.48 113.08 C 56.74 112.66 57.26 111.83 57.53 111.41 C 57.28 111.83 56.78 112.65 56.53 113.06 C 55.70 114.02 54.87 114.99 54.03 115.95 C 52.59 116.69 50.28 117.58 51.16 119.67 C 52.80 121.13 55.10 120.14 57.06 120.14 C 55.27 121.28 52.96 121.37 50.89 121.24 C 49.60 120.08 50.28 117.95 50.03 116.39 C 51.82 115.84 55.50 116.50 54.77 113.35 C 53.38 111.12 50.47 112.09 48.30 111.87 C 48.21 110.33 48.11 108.80 48.04 107.26 C 51.73 106.63 55.45 106.10 59.11 105.25 C 64.35 103.94 69.88 104.40 75.07 102.80 C 74.87 102.07 74.49 100.62 74.29 99.90 Z"/>
<path fill="#fecd25" d=" M 90.68 99.60 C 90.77 98.46 90.94 97.33 91.19 96.21 C 91.95 96.38 93.46 96.71 94.21 96.88 C 94.17 97.60 94.10 99.04 94.06 99.76 L 93.75 100.52 L 91.99 100.09 L 90.68 99.60 Z"/>
<path fill="#fecd25" d=" M 49.33 97.18 C 50.15 97.28 51.77 97.47 52.59 97.57 C 53.62 100.15 51.63 102.02 49.47 103.04 C 49.41 101.08 49.36 99.13 49.33 97.18 Z"/>
<path fill="#8ba2c0" d=" M 143.58 99.13 C 143.91 99.49 144.58 100.20 144.91 100.55 C 146.30 100.56 147.70 100.58 149.09 100.59 C 147.61 100.94 146.12 101.27 144.64 101.60 C 144.64 105.01 142.47 107.34 139.71 109.00 C 138.82 113.36 137.88 117.71 136.83 122.04 C 136.60 124.40 133.98 125.25 131.98 125.55 C 127.92 125.99 123.84 126.34 119.83 127.17 C 109.25 128.38 98.58 128.08 87.96 128.10 C 78.79 127.99 69.53 128.18 60.49 126.35 C 56.55 125.57 51.66 126.67 48.72 123.29 C 55.68 125.22 62.89 125.51 70.04 126.15 C 71.20 126.26 72.36 126.23 73.52 126.25 C 73.76 126.21 74.23 126.13 74.47 126.09 C 78.88 127.41 83.50 126.83 88.03 126.86 C 95.45 126.71 102.88 127.16 110.29 126.51 C 112.37 126.41 114.44 126.16 116.51 125.92 C 122.82 125.58 129.16 125.16 135.28 123.45 C 136.61 118.48 137.32 113.35 138.85 108.44 C 139.99 107.02 141.62 106.11 142.89 104.82 C 143.38 102.96 143.40 101.03 143.58 99.13 Z"/>
<path fill="#fecd25" d=" M 43.16 101.15 C 44.22 101.29 45.27 101.47 46.31 101.69 C 46.38 102.40 46.53 103.82 46.60 104.53 C 43.93 105.10 43.14 103.47 43.16 101.15 Z"/>
<path fill="#fecd25" d=" M 138.15 103.22 C 138.65 101.62 140.10 101.17 141.60 101.01 C 141.49 102.13 141.38 103.24 141.27 104.36 C 140.05 104.34 138.84 104.32 137.63 104.30 C 137.18 104.67 136.29 105.41 135.84 105.78 C 136.61 104.93 137.39 104.08 138.15 103.22 Z"/>
<path fill="#dd2618" d=" M 99.69 102.85 C 103.77 102.80 107.96 102.19 111.96 103.26 C 120.19 104.48 128.54 105.29 136.54 107.65 C 124.35 105.39 112.01 104.20 99.69 102.85 Z"/>
<path fill="#fecd25" d=" M 85.19 102.79 C 90.01 102.43 94.88 102.38 99.69 102.85 C 112.01 104.20 124.35 105.39 136.54 107.65 C 136.49 108.91 136.43 110.17 136.38 111.44 C 134.37 111.41 132.36 111.38 130.35 111.40 C 130.38 113.05 130.43 114.70 130.51 116.35 C 131.83 116.46 133.15 116.57 134.48 116.68 C 134.48 118.00 134.48 119.32 134.48 120.64 C 130.02 120.92 125.71 119.52 121.27 119.35 L 121.23 118.63 C 122.19 118.61 123.15 118.59 124.11 118.56 C 111.05 118.03 98.06 115.15 84.94 116.37 C 77.93 116.67 71.05 118.20 64.05 118.62 C 61.99 118.84 59.86 118.99 57.92 119.81 L 57.06 120.14 C 55.10 120.14 52.80 121.13 51.16 119.67 C 50.28 117.58 52.59 116.69 54.03 115.95 C 54.87 114.99 55.70 114.02 56.53 113.06 C 57.90 114.27 59.44 115.27 61.17 115.89 C 62.25 113.67 62.71 111.32 60.78 109.41 C 60.27 109.42 59.25 109.44 58.74 109.45 C 58.44 109.94 57.83 110.92 57.53 111.41 C 57.26 111.83 56.74 112.66 56.48 113.08 C 55.27 112.01 54.07 110.95 52.84 109.90 C 51.70 110.10 49.60 111.73 49.00 109.94 C 48.73 107.73 51.59 107.34 53.13 106.79 C 63.75 104.93 74.55 104.50 85.19 102.79 Z"/>
<path fill="#dd2618" d=" M 87.08 106.09 C 90.53 105.70 94.04 105.53 97.46 106.26 C 97.74 107.90 98.66 108.85 100.21 109.12 C 100.32 109.41 100.55 110.00 100.67 110.29 C 98.60 107.80 97.05 110.48 96.17 112.35 C 93.14 112.41 90.11 112.32 87.09 111.98 C 87.03 110.01 87.03 108.05 87.08 106.09 Z"/>
<path fill="#090806" d=" M 81.34 106.06 C 82.52 106.80 83.67 107.56 84.83 108.34 C 84.34 109.73 83.84 111.12 83.36 112.51 C 82.55 112.49 81.75 112.47 80.95 112.46 C 80.54 111.92 79.71 110.84 79.30 110.30 C 79.62 108.73 80.46 107.36 81.34 106.06 Z"/>
<path fill="#090806" d=" M 100.21 109.12 C 100.18 107.29 102.06 106.84 103.38 106.28 C 104.03 107.09 104.69 107.90 105.35 108.70 C 105.38 109.15 105.43 110.05 105.45 110.50 C 104.80 111.14 104.14 111.77 103.48 112.41 C 103.02 112.47 102.10 112.60 101.63 112.66 C 101.39 112.07 100.91 110.88 100.67 110.29 C 100.55 110.00 100.32 109.41 100.21 109.12 Z"/>
<path fill="#090806" d=" M 89.37 107.19 C 92.23 107.07 96.25 106.14 97.65 109.52 C 95.92 113.22 91.06 110.87 87.89 111.67 C 87.92 110.06 87.72 108.10 89.37 107.19 Z"/>
<path fill="#090806" d=" M 65.95 108.68 C 69.13 108.31 72.29 107.79 75.46 107.35 C 76.68 108.99 77.34 111.27 75.98 113.06 C 72.60 113.55 69.17 113.50 65.76 113.70 C 65.44 113.02 64.79 111.67 64.47 110.99 C 64.84 110.42 65.58 109.26 65.95 108.68 Z"/>
<path fill="#090806" d=" M 107.52 111.19 C 107.91 109.96 108.33 108.74 108.77 107.52 C 112.37 107.67 115.93 108.26 119.50 108.73 C 119.55 110.35 119.58 111.97 119.59 113.59 C 115.66 112.99 110.21 114.95 107.52 111.19 Z"/>
<path fill="#090806" d=" M 58.74 109.45 C 59.25 109.44 60.27 109.42 60.78 109.41 C 62.71 111.32 62.25 113.67 61.17 115.89 C 59.44 115.27 57.90 114.27 56.53 113.06 C 56.78 112.65 57.28 111.83 57.53 111.41 C 57.83 110.92 58.44 109.94 58.74 109.45 Z"/>
<path fill="#090806" d=" M 124.42 109.17 C 125.40 109.74 127.34 109.37 127.37 110.98 C 128.33 112.83 126.87 114.21 125.81 115.55 C 125.36 115.51 124.46 115.44 124.01 115.41 C 123.56 114.84 122.66 113.69 122.21 113.12 C 122.67 111.66 123.55 110.40 124.42 109.17 Z"/>
<path fill="#dd2618" d=" M 64.05 118.62 C 71.05 118.20 77.93 116.67 84.94 116.37 C 98.06 115.15 111.05 118.03 124.11 118.56 C 123.15 118.59 122.19 118.61 121.23 118.63 C 111.13 118.39 101.10 116.79 90.97 116.87 C 84.34 117.40 77.69 117.57 71.07 118.32 C 66.61 118.21 62.38 120.11 57.92 119.81 C 59.86 118.99 61.99 118.84 64.05 118.62 Z"/>
<path fill="#dd2618" d=" M 79.98 119.60 C 88.57 118.24 97.40 118.18 105.97 119.69 C 111.82 120.69 117.89 120.20 123.55 122.23 C 117.69 121.65 111.92 120.19 106.00 120.36 C 99.84 120.64 93.74 118.72 87.61 119.87 C 80.40 120.97 72.80 119.48 65.86 122.08 L 64.40 123.33 C 71.60 123.50 78.72 124.88 85.93 124.62 C 93.23 124.58 100.54 124.53 107.84 124.69 C 110.58 125.87 113.58 125.91 116.51 125.92 C 114.44 126.16 112.37 126.41 110.29 126.51 C 108.26 125.72 106.15 125.11 103.96 125.19 C 97.64 125.21 91.31 125.29 84.99 125.21 C 81.47 125.21 77.86 124.92 74.47 126.09 C 74.23 126.13 73.76 126.21 73.52 126.25 C 72.36 126.23 71.20 126.26 70.04 126.15 L 69.28 124.55 C 65.42 124.27 61.59 123.78 57.79 123.08 C 64.87 120.30 72.59 120.77 79.98 119.60 Z"/>
<path fill="#fecd25" d=" M 87.61 119.87 C 93.74 118.72 99.84 120.64 106.00 120.36 C 111.92 120.19 117.69 121.65 123.55 122.23 C 124.12 122.32 125.25 122.51 125.82 122.61 C 125.81 122.79 125.81 123.15 125.80 123.33 C 119.82 123.86 113.86 124.70 107.84 124.69 C 100.54 124.53 93.23 124.58 85.93 124.62 C 78.72 124.88 71.60 123.50 64.40 123.33 L 65.86 122.08 C 72.80 119.48 80.40 120.97 87.61 119.87 Z"/>
<path fill="#090806" d=" M 74.47 126.09 C 77.86 124.92 81.47 125.21 84.99 125.21 C 91.31 125.29 97.64 125.21 103.96 125.19 C 106.15 125.11 108.26 125.72 110.29 126.51 C 102.88 127.16 95.45 126.71 88.03 126.86 C 83.50 126.83 78.88 127.41 74.47 126.09 Z"/>
<path fill="#0062f3" d=" M 188.01 132.35 C 311.01 132.41 434.00 132.37 557.00 132.36 L 557.00 151.22 C 529.35 151.51 501.68 151.26 474.03 151.34 C 378.70 151.35 283.37 151.32 188.04 151.36 C 187.97 145.02 188.00 138.68 188.01 132.35 Z"/>
<path fill="#090806" d=" M 28.50 160.56 L 28.53 159.61 C 71.11 159.75 113.69 159.74 156.27 159.61 C 156.58 159.88 157.21 160.42 157.52 160.68 C 157.35 200.49 157.73 240.31 157.33 280.12 C 156.48 282.43 155.80 284.81 154.65 287.01 C 154.61 287.29 154.51 287.84 154.47 288.12 C 153.23 289.67 151.99 291.22 150.72 292.73 C 148.86 294.22 146.93 295.62 144.94 296.93 C 143.80 297.20 142.66 297.46 141.53 297.73 L 141.50 298.38 C 138.99 298.70 136.49 299.25 133.95 299.24 C 124.11 299.16 114.28 299.59 104.44 299.47 L 104.48 300.60 C 104.06 300.56 103.23 300.49 102.81 300.45 C 101.38 301.81 99.98 303.20 98.66 304.68 C 97.86 305.92 97.04 307.14 96.24 308.38 C 94.65 311.16 93.24 314.11 93.21 317.38 C 92.36 317.44 91.51 317.50 90.65 317.57 C 90.53 315.72 90.35 313.87 89.90 312.08 C 89.18 310.46 88.50 308.84 87.79 307.23 C 86.95 306.06 86.10 304.92 85.25 303.77 C 84.98 303.53 84.44 303.05 84.17 302.82 C 83.43 302.13 82.68 301.44 81.95 300.74 C 80.81 300.60 79.67 300.47 78.54 300.35 L 78.52 299.56 C 74.63 299.80 70.74 299.49 66.86 299.77 L 65.69 301.02 L 65.54 299.58 C 62.55 299.69 59.55 299.69 56.56 299.59 L 55.98 301.28 L 55.49 299.58 C 50.81 299.65 45.95 300.20 41.50 298.40 L 41.47 297.79 C 39.74 297.25 38.21 296.28 36.69 295.32 C 34.93 293.74 33.23 292.09 31.67 290.31 C 30.66 288.25 29.62 286.21 28.58 284.18 C 26.97 279.63 27.61 274.77 27.50 270.05 C 27.46 233.51 27.57 196.96 27.45 160.42 L 28.50 160.56 Z"/>
<path fill="#8ba2c0" d=" M 31.28 164.38 C 69.85 164.14 108.43 164.39 147.00 164.26 C 149.42 164.23 151.84 164.36 154.24 164.60 C 154.16 200.75 154.23 236.89 154.21 273.04 C 153.98 277.54 153.13 282.14 150.80 286.07 L 150.80 284.95 C 151.56 281.31 152.59 277.68 152.61 273.94 C 152.62 237.75 152.59 201.57 152.63 165.38 C 112.45 165.38 72.27 165.26 32.10 165.44 C 32.41 202.63 32.08 239.83 32.26 277.01 C 32.49 287.86 43.61 296.15 53.99 295.41 C 62.32 295.28 70.65 295.48 78.97 295.19 C 84.00 294.68 87.38 298.99 90.88 301.84 C 90.02 299.05 89.97 295.50 87.37 293.63 C 84.28 291.72 80.51 291.56 76.98 291.40 C 67.63 291.33 58.28 291.46 48.93 291.42 C 44.07 291.69 40.37 287.72 37.96 283.96 C 34.91 279.21 35.78 273.35 35.71 268.01 C 35.72 239.02 35.72 210.03 35.70 181.05 C 35.78 177.69 35.34 174.26 36.04 170.95 C 36.77 169.45 38.61 169.84 39.96 169.68 C 72.31 169.75 104.66 169.71 137.02 169.71 C 140.71 169.76 144.43 169.40 148.10 169.94 C 149.22 171.38 149.10 173.31 149.21 175.04 C 149.12 208.35 149.24 241.67 149.15 274.99 C 149.64 283.16 142.43 291.62 133.95 290.67 C 125.31 290.38 116.66 290.64 108.02 290.48 C 104.54 290.36 100.91 290.90 98.07 293.04 C 95.32 294.77 94.47 298.08 93.30 300.89 C 92.24 301.56 91.17 302.22 90.13 302.94 C 86.91 299.42 83.06 295.98 78.05 295.67 C 67.69 295.35 57.31 295.60 46.95 295.59 C 40.21 293.87 34.30 288.76 32.05 282.09 C 30.41 278.26 30.82 274.03 30.80 269.98 C 30.82 238.64 30.80 207.30 30.81 175.96 C 30.83 172.10 30.55 168.20 31.28 164.38 Z"/>
<path fill="#ffffff" d=" M 32.10 165.44 C 72.27 165.26 112.45 165.38 152.63 165.38 C 152.59 201.57 152.62 237.75 152.61 273.94 C 152.59 277.68 151.56 281.31 150.80 284.95 L 150.52 286.28 C 148.87 288.08 147.19 289.85 145.29 291.38 C 144.76 291.62 143.71 292.11 143.18 292.36 C 136.15 296.52 127.75 293.27 120.18 295.07 C 113.82 296.34 106.67 293.62 100.79 296.81 C 97.59 299.04 94.78 301.91 93.17 305.51 L 91.58 305.66 C 91.07 304.77 90.58 303.86 90.13 302.94 C 91.17 302.22 92.24 301.56 93.30 300.89 C 94.47 298.08 95.32 294.77 98.07 293.04 C 100.91 290.90 104.54 290.36 108.02 290.48 C 116.66 290.64 125.31 290.38 133.95 290.67 C 142.43 291.62 149.64 283.16 149.15 274.99 C 149.24 241.67 149.12 208.35 149.21 175.04 C 149.10 173.31 149.22 171.38 148.10 169.94 C 144.43 169.40 140.71 169.76 137.02 169.71 C 104.66 169.71 72.31 169.75 39.96 169.68 C 38.61 169.84 36.77 169.45 36.04 170.95 C 35.34 174.26 35.78 177.69 35.70 181.05 C 35.72 210.03 35.72 239.02 35.71 268.01 C 35.78 273.35 34.91 279.21 37.96 283.96 C 40.37 287.72 44.07 291.69 48.93 291.42 C 58.28 291.46 67.63 291.33 76.98 291.40 C 80.51 291.56 84.28 291.72 87.37 293.63 C 89.97 295.50 90.02 299.05 90.88 301.84 C 87.38 298.99 84.00 294.68 78.97 295.19 C 70.65 295.48 62.32 295.28 53.99 295.41 C 43.61 296.15 32.49 287.86 32.26 277.01 C 32.08 239.83 32.41 202.63 32.10 165.44 Z"/>
<path fill="#0062f3" d=" M 188.05 168.73 C 311.03 168.78 434.02 168.75 557.00 168.75 L 557.00 187.59 C 434.00 187.65 311.01 187.59 188.01 187.62 C 188.00 181.32 187.96 175.03 188.05 168.73 Z"/>
<path fill="#090806" d=" M 37.27 174.00 C 37.41 172.83 36.87 170.36 38.91 170.78 C 75.13 170.69 111.36 170.84 147.59 170.71 C 147.94 205.13 147.60 239.56 147.75 273.98 C 147.69 276.29 147.86 278.70 147.04 280.90 C 145.00 286.58 138.93 290.30 133.00 290.20 C 122.63 290.30 112.25 290.12 101.88 290.26 C 96.49 290.75 94.05 296.08 91.94 300.31 C 90.89 298.00 90.58 295.19 88.58 293.42 C 86.16 290.82 82.43 290.29 79.07 290.29 C 68.70 290.21 58.34 290.34 47.97 290.25 C 44.49 290.34 42.04 287.40 39.95 285.02 C 38.00 282.86 37.11 280.00 37.28 277.12 C 37.28 242.74 37.30 208.37 37.27 174.00 Z"/>
<path fill="#0062f3" d=" M 41.00 175.22 C 42.89 174.39 45.03 175.00 47.02 174.99 C 57.91 175.30 68.89 174.04 79.73 175.38 C 80.39 188.29 79.59 201.23 80.14 214.14 C 80.03 216.27 77.56 216.20 76.00 216.21 C 64.23 216.16 52.45 216.18 40.68 216.19 C 40.54 204.12 40.71 192.05 40.59 179.98 C 40.68 178.40 40.40 176.72 41.00 175.22 Z"/>
<path fill="#ffffff" d=" M 83.64 175.47 C 89.29 175.27 94.95 175.36 100.60 175.39 C 100.47 190.11 100.71 204.84 100.48 219.56 L 101.56 219.46 L 101.39 220.57 C 115.72 220.43 130.06 220.49 144.40 220.55 C 144.48 226.58 144.34 232.61 144.49 238.64 C 134.65 238.87 124.81 238.61 114.97 238.77 C 114.48 238.88 113.49 239.10 113.00 239.21 C 111.37 238.55 109.68 238.62 108.01 239.12 C 106.31 238.88 104.61 238.59 102.88 238.67 C 102.28 238.91 101.09 239.41 100.49 239.66 C 100.63 255.15 100.61 270.66 100.50 286.15 C 99.19 286.62 97.89 287.10 96.58 287.56 C 95.43 288.61 94.31 289.70 93.10 290.69 C 90.88 290.60 89.38 288.45 87.41 287.56 C 86.15 287.09 84.90 286.61 83.64 286.16 C 83.62 270.33 83.84 254.50 83.53 238.68 C 69.21 238.75 54.89 238.76 40.57 238.67 C 40.66 232.62 40.55 226.56 40.65 220.51 C 54.96 220.54 69.28 220.41 83.59 220.58 C 83.76 205.54 83.67 190.50 83.64 175.47 Z"/>
<path fill="#0062f3" d=" M 104.46 175.47 C 106.28 175.10 108.12 174.75 109.99 174.79 C 119.64 174.84 129.30 174.85 138.95 174.79 C 140.83 174.75 142.69 175.05 144.54 175.36 C 144.45 188.28 144.53 201.21 144.51 214.13 C 144.96 215.64 143.29 216.38 142.04 216.18 C 129.58 216.22 117.12 216.16 104.67 216.20 C 104.26 202.62 104.65 189.04 104.46 175.47 Z"/>
<path fill="#0062f3" d=" M 188.01 205.25 C 311.01 205.22 434.00 205.27 557.00 205.23 L 557.00 224.23 C 434.02 224.33 311.05 224.21 188.07 224.28 C 187.95 217.94 188.01 211.60 188.01 205.25 Z"/>
<path fill="#0062f3" d=" M 188.05 241.67 C 311.03 241.69 434.02 241.69 557.00 241.67 L 557.00 260.23 C 518.34 260.51 479.68 260.27 441.02 260.35 C 356.69 260.35 272.37 260.34 188.04 260.36 C 187.98 254.13 187.97 247.90 188.05 241.67 Z"/>
<path fill="#0062f3" d=" M 40.58 243.43 C 53.60 243.22 66.62 243.48 79.64 243.29 C 80.83 252.79 79.91 262.41 80.19 271.96 C 80.06 276.82 80.72 281.78 79.46 286.55 C 68.91 286.33 58.35 286.15 47.80 286.58 C 44.34 284.06 40.14 280.81 40.49 276.03 C 40.54 265.16 40.41 254.30 40.58 243.43 Z"/>
<path fill="#0062f3" d=" M 104.62 243.62 C 106.38 243.10 108.23 243.28 110.03 243.25 C 121.52 243.43 133.02 243.09 144.50 243.41 C 144.82 252.61 144.54 261.82 144.67 271.02 C 144.64 274.81 144.72 279.11 142.15 282.20 C 139.75 284.57 136.42 286.23 133.00 286.11 C 127.98 286.14 122.96 286.03 117.94 285.84 C 113.44 285.59 108.89 286.80 104.47 285.57 C 104.40 271.59 104.06 257.57 104.62 243.62 Z"/>
<path fill="#0062f3" d=" M 188.08 277.72 C 311.05 277.76 434.03 277.74 557.00 277.73 L 557.00 296.75 C 436.33 296.81 315.67 296.80 195.00 296.76 C 192.69 296.77 190.40 296.95 188.11 297.16 C 187.93 290.68 187.96 284.20 188.08 277.72 Z"/>
<path fill="#0062f3" d=" M 188.01 314.36 C 311.00 314.41 434.00 314.38 557.00 314.37 L 557.00 333.00 L 188.06 333.00 C 187.96 326.79 188.00 320.57 188.01 314.36 Z"/>
</svg>