<svg xmlns="http://www.w3.org/2000/svg" width="640" height="480"><defs><clipPath id="a"><path fill-opacity=".67" d="M0 0h682.67v512H0z"/></clipPath></defs><g clip-path="url(#a)" transform="scale(.938)"><path fill="#ed2939" fill-rule="evenodd" d="M0 0h768v256H341.33L0 0z"/><path fill="#002395" fill-rule="evenodd" d="M0 512h768V256H341.33L0 512z"/><path fill="#fff" fill-rule="evenodd" d="M0 0l341.33 256L0 512V0z"/><path fill="#ff0" d="M172.32 193.17l.1-3.96s-2.13-3.38.34-7.03c0 0-5.24-2.77-4.02-7.12 0 0-4.75-1.2-4.4-6.43 0 0-5.12-.36-5.65-4.72 0 0-5.13.85-7.4-3.4 0 0-4.98.97-6.4-2.53 0 0-4.85 1.68-7.73-2.43 0 0-5.13 2.07-7.28-1.82-2.13 3.87-7.26 1.82-7.26 1.82-2.85 4.1-7.74 2.4-7.74 2.4-1.36 3.5-6.34 2.5-6.34 2.5-2.25 4.26-7.37 3.42-7.37 3.42-.5 4.35-5.62 4.7-5.62 4.7.4 5.23-4.34 6.42-4.34 6.42 1.25 4.35-4 7.12-4 7.12 2.54 3.66.44 7.02.44 7.02l-.12 3.66 84.77.4"/><path fill="none" stroke="#000" stroke-width=".3323499999999999" d="M172.32 193.17l.1-3.96s-2.13-3.4.34-7.03c0 0-5.24-2.77-4.02-7.12 0 0-4.75-1.2-4.4-6.43 0 0-5.12-.36-5.65-4.72 0 0-5.13.85-7.4-3.4 0 0-4.98.97-6.4-2.53 0 0-4.85 1.68-7.73-2.43 0 0-5.13 2.07-7.28-1.82-2.13 3.87-7.26 1.82-7.26 1.82-2.85 4.1-7.74 2.4-7.74 2.4-1.36 3.5-6.35 2.5-6.35 2.5-2.24 4.26-7.36 3.42-7.36 3.42-.5 4.35-5.62 4.7-5.62 4.7.4 5.23-4.34 6.42-4.34 6.42 1.25 4.35-4 7.12-4 7.12 2.54 3.66.44 7.02.44 7.02l-.12 3.66 84.77.4z"/><path fill="#f00" d="M170.35 188.22c-13.32-1.33-28.65-4.5-40.5 2.17-7.92-4.7-18.97-4.4-28.37-3.5-5.1.93-11.12.93-16.46 1.8l-.84.12c-9.68.64-18.47-2.22-26.9-5.98 2.7 15.17 5.65 30.7 7.1 46.6 3.2 23.5-11.12 43.25-5.25 66.5 3.5 11.13 15.76 17.62 26.98 18.9 10.88.64 22.12 2.42 32.18 4.6 1.9.4 4.18 1.3 5.5 1.86 2.77 1.16 4.8 2.86 6.58 4.68 6.07-6.32 14.97-8.08 23.75-9 15.83-1.86 35.33-.85 45.02-15.18v-.8c5.26-7.93 4.56-20.02 2.28-29-.15-3.14-1-5.9-1.45-8.88-9.66-25.53-1.38-54.23 2.77-79.95-5.08 2.77-10.74 4.1-16.4 5.47-4.5.6-9.53.33-14.1.1l-1.88-.52"/><path fill="#80cfe1" d="M190.22 261.46c-.06 1.7.85 3 1.18 4.56 1.85 11.15 3.63 25.93-7.85 32.85-12.7 8.08-29.38 4.62-44.08 8.9-2.94.8-7 3.5-9.05 5.43-1.33-.88-2.66-2.22-4.37-3-12.1-6.44-27.83-4.28-41.5-7.76-6.85-2.17-14-7.5-15.74-14.53-4.45-18.4 6.24-34.1 4.98-52.38-.82-13.95-3.16-27.34-6.38-40.43 10.67 4.97 23.03 5.8 35.04 3.4 8.9-1.23 19.24-1.26 27.57 2.5 4.6-1.97 9.97-2.86 14.92-3.4 9.4.9 19.52 2.62 29.2 2.55 6.48-.34 12.35-2.2 17.98-4.7-3.34 21.62-9.75 44.27-1.88 66"/><path fill="#fff" d="M171.02 265.77l-.1-20.33h2.5l-31.08-20.07-.06-10.43h3l-15.54-11.13-15.46 11.13h3l.05 10.43L86.4 245.4h2.48l.1 20.33 82.03.06"/><path fill="none" stroke="#000" stroke-width="1.15.242" d="M171.02 265.77l-.1-20.33h2.5l-31.08-20.07-.06-10.43h3l-15.54-11.13-15.46 11.14h3l.05 10.42L86.4 245.4l2.48.02.1 20.3 82.03.07.02-.03z"/><path fill="#fff" d="M180.58 292.48v6.36l-100.12-.1-.05-6.35 100.2.08"/><path fill="none" stroke="#000" stroke-width="1.15.242" d="M180.58 292.48v6.36l-100.12-.1-.05-6.35 100.2.08h-.02z"/><path fill="#fff" d="M87.1 292.1l-.08-21.53h4.06l-.23 21.77.25-21.6-5.84-.17v-4.62l89.5.1.03 4.58h-5.53l.1 21.8-.2-21.8h4.12l.08 21.55"/><path fill="none" stroke="#000" stroke-width="1.15.242" d="M87.1 292.1l-.08-21.53h4.06l-.23 21.77.25-21.6-5.84-.17v-4.62l89.5.1.03 4.58h-5.53l.1 21.8-.2-21.8h4.12l.08 21.55M106.34 286.8l-.06-15.02H94.26l.07 15h12M97.54 274.9l.03 8.73h5.5l-.03-8.72h-5.5m67.54 11.94l-.06-15h-11.98l.05 15h11.98"/><path fill="none" stroke="#000" stroke-width="1.15.242" d="M156.28 274.97l.06 8.7h5.5l-.05-8.7h-5.52m8.7-12.58l-.06-15.02h-12l.05 15H165zM156.2 250.53l.02 8.7h5.5v-8.7h-5.53m-49.96 11.8l-.08-14.98-12-.02.06 15h12.02zM97.43 250.47l.03 8.7h5.5l-.03-8.7h-5.5m30.56 11.9l-.07-15h-12l.05 15h12M119.2 250.5l.02 8.7 5.5.02-.03-8.72h-5.5m25.55 11.9l-.1-15.02-11.98-.02.05 15 12.03.03M135.94 250.5l.04 8.73h5.5l-.02-8.72h-5.52"/><path fill="#fff" d="M147.73 257.8l.13 34.6-34.77-.06-.14-34.58 34.76.03"/><path fill="none" stroke="#000" stroke-width="1.15.242" d="M147.73 257.8l.13 34.6-34.77-.06-.14-34.58 34.76.03zm-34.98 9.86l35 .03m-30.63 24.7l-.12-24.47m26.62 24.47l-.1-24.45m16.9-24.9l-19.58-14.3-22-.03L99.4 243l61.02.05m-39.9-26.17l.04 8.72 18.5.02-.03-8.73-18.5-.02M125.54 219.05l.03 4.34h8.5l-.03-4.35h-8.5m4.2-12.1l10.3 7.28-20.5-.02 10.2-7.24"/><path fill="#fff" d="M171.37 202.03c2.92-.07 3.67 12.04 3.68 18.04 2.5.7 8.08 4.2 10.55 7.37l-28.25-.04c2.43-3.12 7.95-6.64 10.44-7.34 0-6 .6-18.12 3.57-18.05"/><path fill="none" stroke="#000" stroke-width="1.15.242" d="M171.37 202.03c2.92-.07 3.67 12.04 3.68 18.04 2.5.7 8.08 4.2 10.55 7.37l-28.25-.04c2.42-3.12 7.95-6.64 10.44-7.34 0-6 .6-18.12 3.57-18.05m-56.8 56.75h2.55l-.74 1.36s1.22 1.58.02 3.38l.66 1.25h-2.44l.66-1.2s-1.25-2.08.06-3.42l-.76-1.35m5.16 0h2.54l-.74 1.36s1.23 1.54 0 3.38l.67 1.25h-2.43l.66-1.2s-1.22-2.08.06-3.42l-.76-1.35m5.64 0h2.53l-.74 1.36s1.23 1.58.02 3.38l.66 1.27-2.42-.02.65-1.2s-1.24-2.06.05-3.42l-.74-1.35zm6.36.02h2.54l-.74 1.38s1.22 1.54 0 3.34l.7 1.26h-2.47l.66-1.18s-1.23-2.1.08-3.43l-.76-1.38zm5.65 0h2.5l-.73 1.38s1.23 1.54 0 3.34l.68 1.26h-2.44l.65-1.18s-1.23-2.1.1-3.43l-.76-1.38m5.6 0h2.53l-.75 1.37s1.25 1.55.04 3.35l.63 1.26H143l.67-1.18s-1.22-2.1.08-3.44l-.75-1.36"/><path fill="#ff0" d="M130.5 336.76c13.03.04 29.05-2.6 36.55-6.5l16.47-1.45.33 20.1c-13.96 7.7-46.18 9.36-53.27 9.3-7.1.06-39.72-1.62-53.75-9.35l.2-20.1 16.5 1.48c7.5 3.85 24 6.53 37 6.53h-.02"/><path fill="none" stroke="#000" stroke-width=".3323499999999999" d="M130.5 336.76c13.03.04 29.05-2.6 36.55-6.5l16.47-1.45.33 20.1c-13.96 7.7-46.18 9.36-53.27 9.3-7.1.06-39.72-1.62-53.74-9.35l.18-20.1 16.5 1.48c7.5 3.85 24 6.53 37.02 6.53h-.03"/><path fill="#ff0" d="M34.42 251.02l14.5 4.62-4.38 23.5-13.74 2.14s-2.3-12.36 3.62-30.27"/><path fill="none" stroke="#000" stroke-width=".3323499999999999" d="M34.42 251.02l14.5 4.62-4.38 23.5-13.74 2.13s-2.3-12.35 3.62-30.26v.02z"/><path fill="#7e7e7e" d="M44.54 278.9l-13.73 2.38 8.7-12.36 5.04 9.96"/><path fill="none" stroke="#000" stroke-width=".3323499999999999" d="M44.54 278.9l-13.73 2.38 8.7-12.36 5.04 9.97"/><path fill="#ff0" d="M25.74 267.95l14 1c.3 11.87 1.74 57.1 55.77 59.56l-1.67 16.47c-65.77.68-70.76-55.5-68.1-77.02"/><path fill="none" stroke="#000" stroke-width=".3323499999999999" d="M25.74 267.95l14 1c.3 11.87 1.74 57.1 55.77 59.56l-1.67 16.47c-65.77.68-70.76-55.5-68.1-77.02zm51.36 80.4l16.5-3.6"/><path fill="#ff0" d="M225.45 251.2L211 255.76l4.58 23.46 13.77 2.22s2.2-12.35-3.9-30.27"/><path fill="none" stroke="#000" stroke-width=".3323499999999999" d="M225.45 251.2L211 255.77l4.58 23.46 13.77 2.22s2.2-12.35-3.9-30.27v.02z"/><path fill="#7e7e7e" d="M215.57 279l13.77 2.46-8.8-12.36-4.97 9.9"/><path fill="none" stroke="#000" stroke-width=".3323499999999999" d="M215.57 279l13.77 2.46-8.8-12.36-4.97 9.9"/><path fill="#ff0" d="M234.3 268.13l-14.02.96c-.2 11.83-1.24 57.1-55.26 59.5l1.83 16.43c65.75.76 70.28-55.38 67.44-76.9"/><path fill="none" stroke="#000" stroke-width=".3323499999999999" d="M234.3 268.13l-14.02.96c-.2 11.83-1.24 57.1-55.26 59.5l1.83 16.43c65.75.76 70.28-55.38 67.44-76.9zm-50.67 80.3l-16.53-3.62"/><path fill="#009fc5" d="M121.76 346.67c-.37.23-.87.3-1.45.27l-2.6-.14.22-3.25 2.6.14c.5.02.9.12 1.16.27.52.27.75.78.7 1.47-.03.6-.24 1-.63 1.22m-4.38 5.13l.26-3.98 3.04.2c1 .1 1.72-.17 2.22-.67.5-.5.77-1.13.8-1.86.06-.85-.15-1.54-.65-2.05-.5-.5-1.17-.75-2.03-.83l-4.35-.27-.6 9.35 1.3.08m9.47-7.8l3.18.03c.46.05.83.1 1.1.23.48.23.7.7.7 1.36 0 .62-.17 1.04-.53 1.3-.35.22-.85.32-1.44.32l-3.06-.03.03-3.23m-.05 8.28l.03-4 3 .05c.53 0 .92.05 1.2.18.43.2.65.63.67 1.2l.08 1.58c.02.38.02.6.04.76.04.1.06.23.1.32h1.62l-.03-.2c-.2-.1-.34-.3-.4-.58-.06-.18-.08-.45-.1-.8l-.03-1.24c-.02-.57-.12-.96-.33-1.17a1.67 1.67 0 0 0-.85-.6c.44-.24.78-.5 1.02-.85.23-.37.35-.84.35-1.4 0-1.08-.44-1.8-1.33-2.2-.5-.23-1.1-.34-1.83-.35l-4.47-.05-.04 9.38h1.28m9.96-1.98c-.57-.7-.88-1.57-.95-2.6-.07-1.3.2-2.3.78-2.96.6-.73 1.37-1.08 2.38-1.13 1.02-.05 1.86.28 2.48.92.64.63 1 1.5 1.06 2.6.04 1.04-.14 1.96-.63 2.78-.47.83-1.26 1.3-2.42 1.33-1.22.06-2.13-.23-2.7-.93m-1.54-5.9c-.6.92-.83 2-.77 3.3.1 1.4.52 2.56 1.34 3.43.9.87 2.1 1.3 3.6 1.23 1.57-.07 2.76-.67 3.57-1.78.66-1 .97-2.15.9-3.58-.1-1.28-.46-2.32-1.15-3.1-.88-1.03-2.16-1.5-3.9-1.42-1.62.1-2.82.7-3.6 1.92m44.08-13.5c.9-.15 1.68-.1 2.4.14 1.04.33 1.74 1.1 2.18 2.3l-1.3.17c-.27-.63-.67-1.07-1.2-1.32-.53-.23-1.18-.28-1.94-.17a3 3 0 0 0-2.08 1.3c-.48.74-.63 1.74-.4 3.03.17 1.06.56 1.96 1.2 2.56.6.6 1.46.82 2.6.66.85-.14 1.54-.48 2.02-1.07.5-.57.65-1.4.48-2.5l-3 .46-.16-1.03 4.2-.64.8 4.95-.83.12-.5-1.14c-.36.5-.7.9-1.02 1.14-.52.4-1.2.66-2.1.8-1.12.16-2.15-.04-3.08-.64-1.03-.76-1.7-1.9-1.94-3.46-.27-1.54-.02-2.86.7-3.9.67-1 1.65-1.6 2.98-1.78m9.47-.72l3-1.08c.4-.16.76-.2 1.07-.17.55.04.96.37 1.2 1.02.2.56.2 1.05-.04 1.4-.26.35-.66.6-1.25.82l-2.82 1-1.15-3m3 7.77l-1.47-3.76 2.8-1c.52-.18.88-.27 1.15-.24.5.06.87.36 1.12.93l.64 1.44c.13.36.24.58.33.68.04.12.13.2.2.28l1.52-.56-.1-.2c-.2 0-.43-.12-.6-.37-.1-.17-.22-.42-.38-.72l-.5-1.16c-.2-.5-.45-.82-.7-1a2.4 2.4 0 0 0-1-.28c.3-.36.52-.72.6-1.13.1-.43.06-.9-.15-1.43-.38-1-1.1-1.55-2.08-1.62-.52-.04-1.12.07-1.8.32l-4.23 1.5 3.42 8.82 1.23-.46m10.97-4.67l-5.35-7.82 5.87-3.74.65.94-4.82 3.07 1.64 2.4 4.45-2.87.6.9-4.44 2.87 1.82 2.63 4.9-3.13.64.92-6 3.82m4.7-13.82l1.54-1.7c.72-.74 1.47-1.08 2.3-1 .82.08 1.65.52 2.55 1.3.23.2.45.43.67.7.4.5.62.96.77 1.4.12.56.1 1.07-.1 1.56-.12.24-.33.53-.64.87l-1.54 1.7-5.55-4.83m8.12 3.67c1.1-1.2 1.32-2.5.7-3.95a6.67 6.67 0 0 0-1.73-2.23c-1-.87-2.02-1.32-3.1-1.4-1.2-.1-2.22.34-3.1 1.3l-2.62 2.8 7.2 6.3 2.63-2.8m5.6-7.3l-8.3-4.88.68-1.08 8.32 4.85-.68 1.1m3.24-5.66l-8.96-3.58 2.64-6.3 1.1.4-2.17 5.2 2.7 1.07 2.02-4.8 1.02.43-2 4.78 3.03 1.24 2.2-5.26 1.1.4-2.7 6.43m4.13-11l-9.44-2.1.32-1.45 8.7-2.94-7.64-1.68.28-1.15 9.43 2.03-.3 1.42-8.73 3 7.66 1.66-.27 1.2m-.77-11.96l.12-1.2c.55.03 1-.06 1.36-.25.7-.37 1.1-1.07 1.2-2.1.03-.5 0-.93-.1-1.33-.2-.78-.64-1.2-1.34-1.28-.53-.06-.9.07-1.18.35-.24.34-.5.8-.7 1.48l-.43 1.24c-.28.8-.53 1.37-.8 1.68-.46.6-1.1.8-1.9.73-.85-.1-1.55-.43-2.04-1.08-.5-.6-.7-1.46-.6-2.52.1-.97.42-1.8 1-2.44.52-.6 1.34-.9 2.4-.8l-.1 1.2c-.52 0-.93.1-1.23.3-.54.3-.84.93-.93 1.86-.08.77.03 1.28.32 1.67.3.33.66.54 1.1.58.45.05.82-.1 1.07-.45.18-.25.4-.78.7-1.64l.42-1.3c.2-.6.46-1.05.75-1.37.52-.55 1.2-.78 2.06-.7 1.05.1 1.8.53 2.18 1.33.38.8.53 1.68.43 2.7-.1 1.12-.48 2.02-1.17 2.62-.68.6-1.53.82-2.57.74m-195.58-.58l.2 1.18c-.5.1-.93.3-1.24.58-.54.52-.73 1.3-.54 2.35a4 4 0 0 0 .45 1.23c.43.7.97 1 1.66.9.5-.1.85-.3 1-.66.16-.36.27-.9.3-1.6l.07-1.32c.04-.8.13-1.46.32-1.8.28-.65.82-1.05 1.62-1.18.86-.16 1.6.04 2.26.53.66.45 1.1 1.24 1.25 2.28.2.96.1 1.82-.26 2.6-.37.75-1.06 1.2-2.13 1.4l-.22-1.18c.5-.2.86-.36 1.1-.6.43-.47.55-1.15.4-2.08-.13-.75-.4-1.24-.78-1.48-.4-.3-.77-.4-1.2-.34-.46.07-.76.33-.9.75-.1.3-.17.86-.23 1.75l-.07 1.37c-.03.64-.13 1.17-.35 1.53-.34.67-.92 1.08-1.76 1.22-1.08.18-1.9-.07-2.5-.75-.6-.67-.96-1.47-1.15-2.47-.2-1.2-.05-2.1.42-2.85.48-.76 1.24-1.2 2.28-1.34m-.6 12.35l9.23-2.77 2.15 6.5-1.13.35-1.76-5.33-2.8.84 1.62 4.92-1.07.35-1.62-4.95-3.13.93 1.8 5.46-1.1.32-2.2-6.6m4.1 11.26l8.48-4.5.9 1.58-5.83 6.17 8.52-1.46.88 1.57-8.46 4.47-.6-1.03 5-2.63c.18-.1.45-.26.86-.47.4-.18.84-.43 1.3-.66l-8.5 1.46-.62-1.1 5.8-6.15-.28.15c-.18.1-.5.25-.92.5a6.98 6.98 0 0 1-.94.5l-4.98 2.67-.62-1.06m15.8 12.5c-.4-.1-.83-.33-1.24-.76l-1.8-1.85 2.42-2.2 1.8 1.83c.35.35.58.68.7.97.16.55 0 1.05-.5 1.52-.47.43-.93.6-1.37.5m-6.82.86l2.96-2.72 2.1 2.14c.67.7 1.36 1 2.1 1a2.95 2.95 0 0 0 1.92-.85c.63-.57.93-1.23.93-1.93 0-.68-.32-1.33-.9-1.93l-3.02-3.07-7.02 6.44.92.93m8.48 7.53l5.1-7.98 6 3.66-.62.95-4.94-2.97-1.53 2.42 4.55 2.75-.58.9-4.55-2.73-1.73 2.7 5 3-.6.95-6.1-3.66m15.06-1.54l3.05.97c.45.12.76.3.97.48.4.37.5.9.26 1.54-.18.56-.47.92-.92 1.08-.38.07-.9.07-1.47-.1l-2.9-.93 1.03-3.05m-2.64 7.84l1.27-3.8 2.83.92c.5.14.88.32 1.07.5.34.32.45.8.28 1.37l-.43 1.5c-.1.38-.15.62-.2.74 0 .1 0 .23.03.3l1.5.5.1-.2c-.17-.14-.26-.37-.25-.66.03-.17.08-.45.18-.77l.37-1.22c.15-.53.2-.92.07-1.2-.1-.3-.3-.58-.6-.84.46-.07.87-.22 1.22-.48.33-.28.6-.68.78-1.24.34-1 .15-1.86-.6-2.5-.38-.33-.92-.62-1.62-.88l-4.27-1.32-3 8.9 1.26.38"/><path fill="#bc715f" d="M78.48 175.58c1.1-2.66 11.32-9.9 44.85-6.74 0 0 5.67 3.46 9 3.02 1.9-.25-1.12.1-3.6-1.94-2.53-2.06-3.06-6.28 2.7-6.17 5.75.15 27.25 1.36 27.66 3.3.36 1.95-11.38 2.76-15.75 2.65-4.4-.12-3.88 2.1.5 1.93 13.64-.5 28.54-5.3 44.27 5.84 1.88 1.35-4.74 1.57-9.86-.6 0 0-13.88.7-19.9-.28 0 0-4.6 3.75-10.6 3.38.77 1.94-2.23 9.2-21.12 3.74-3.12.96-14.48 2.86-13.24-.5-3 0-8.24.95-9.03-.75-.75-1.68 9.24-4.2 11-6.02 0 0-21.14.2-25.15-1.26 0 0-12.47 2.8-11.74.36"/><path fill="#008737" d="M85.26 205.17c.45-.6.64-1.72 1.6-1.7 2.1.57 3.52 4.4 6.1 1.9.9-.2 1.25 1.05 2 1.2.5 2.13 2.2-.43 3.48-.3 2.73-1.2 6.1-1.5 9.33-.9.1 2.1-1.53 4.4-3.58 5.6.03 2.1 1.93 3.44 1.9 5.55-.33.8-.06 2.03-1.25 2.3-1.52-.28-3-.44-4.26-1.3-.17-.14-.3-.44-.62-.35-.15.7.95 1.4 1.4 2.13-.77 1.3-2.04.1-3.1.12-.3.75 0 1.7-.78 2.17-1.34-.05-1.6-1.5-2.44-2.23-.84.9.6 1.45.8 2.18-.52 2.75-.45 5.43-3.2 7.23l-1.84.92c-.5-1.38-.2-3.48-.52-4.92-1.1 1.77-1.94 3.32-3.54 4.82-1.87-.6-2.96-2.82-3.37-4.65-.8-2.12-.35-4.67 1.34-6.2-.58-1.13-2.54-.87-2.82-2.46-2.93-1.92-4.56 3.34-6.46.6-.6-2.55.12-5.72 1.97-7.63-.4-1.05-1.78-.77-2.6-1.37-1.84-1.57-4.5-3.23-4.37-6.07 5.06-1.9 11.1-.5 14.8 3.34"/><path fill="#ff0" d="M87.89 204.88c-.13 2.32 1.55.63 2.8 2.03-.98-.37-1.7 1.7-2.65.5l-.6.6c.35.78 1.03.9.32 1.76-1.04.4-1.25-.92-1.74-1.43-.08-.23.16-.67-.22-.82-.6.5-1.2.7-2.02.6-.23-.44-.66-1.02-.22-1.36.8-1.1 2.04.4 2.65-.37.1-.67-.48-1.5.28-1.95.53.1 1.2-.2 1.4.46m6.27 1.9c.06.45-.23 1.08.35 1.4.76-.42 1.57-.1 2 .65 0 .4.13.93-.4 1.13l-1.2-.22c.1-.24-.28-.38-.43-.6-.52-.16-.83.26-1.22.52.3.44.97.7.8 1.26-.7.7-1.03-.6-1.8-.27-.52-.2.2-1.3-.63-1.62-.98 0-.33 1.6-1.58.98-.45-.5-.9-1.17-.4-1.74.52-.35 1.4-.26 1.85.2.75-.85.83-4.1 2.65-1.68m-7.8 3.36c.5.73-.1 1.73.54 2.55 1-1.92 2 .4 3.2.22.37.45.13 1.08.2 1.6-1.5.4-3.3.87-4.64-.33l-.37.4c.78.75 1.53 1.58.9 2.8-1.12.25-2.86.28-3.42-.88-.3-.96.68-1.65-.35-2.42-.75.93-.72 2.17-2.27 1.33-.96-.53-1.25-1.62-.77-2.55 1-1.58 2.75.05 3.84-.72.16-1.36-.35-2.55.9-3.3 1.07-.2 1.57.6 2.22 1.28"/><path fill="#fff" d="M90.6 210.98c-.5 2.32-2.24-.12-3.06-.22 1.1-1.93 1.77.63 3.06.22m5.44 2.52c-1.22.34-1.03-1.17-1.63-1.77l.48-.42c.44.54.77 1.5 1.16 2.2"/><path fill="#ff0" d="M94.4 213.03c.35.8-.8 1.45.18 2.03.3-.26.68-.6.84-.76.83.24 1.8.4 2.38 1.2.62 1.72-1.1 1.67-2.08 2.15l-.97-.04c.23-.47-.42-.67-.58-1-.45-.1-.82.03-1.07.4.22 1.1 1.53 1.93.17 2.9-1.15-.08-2.93.37-2.83-1.22-.43-.9 1.17-2.3-.54-2.35-.57 1.22-1.2 2.4-2.66 1.24l.18-1.73c1.4.04 3.08.28 3.7-1.3.42-1.14-.7-2.2.3-3.1 1.44-.33 2.24.64 2.98 1.6"/><path d="M93.36 215.63c.37.86-.6.92-1.07 1.34-.63.05-1.06-.2-1.44-.6-.28-1.05.5-1.16 1.1-1.57.68-.28.96.52 1.4.83"/><path fill="#fff" d="M92.52 216.2c-.16.2-.37.13-.6.2l-.22-1.05c.46.04 1.06.2.82.84"/></g></svg>