<svg xmlns="http://www.w3.org/2000/svg" width="640" height="480"><rect width="640" height="160" y="160" fill="#fff" fill-rule="evenodd" ry="0" rx="0"/><rect width="640" height="160" y="320" fill-rule="evenodd" ry="0" rx="0"/><path fill="#f00" fill-rule="evenodd" d="M0 0h640v160H0z"/><path fill="#090" fill-rule="evenodd" d="M201.9 281l-28.82-20.87-28.68 21.07 10.66-34.24-28.62-21.14 35.41-.3 11-34.14 11.2 34.06 35.43.05L191 246.82 201.9 281zm307.64 0l-28.82-20.87-28.68 21.07 10.66-34.24-28.62-21.14 35.4-.3 11-34.14 11.22 34.06 35.42.05-28.48 21.33 10.9 34.17z"/></svg>