<svg xmlns="http://www.w3.org/2000/svg" width="640" height="480"><defs><clipPath id="a"><path fill-opacity=".67" d="M-85.33 0h682.67v512H-85.33z"/></clipPath></defs><g clip-path="url(#a)" transform="translate(80) scale(.938)"><path fill="#3e5eb9" fill-rule="evenodd" d="M-128 0h768v512h-768z"/><path fill="#ffd900" fill-rule="evenodd" d="M-128 91.43h768v329.14h-768z"/><path fill="#b10c0c" fill-rule="evenodd" d="M-128 128h768v256h-768z"/><rect width="621.71" height="10.971" x="-51.439" y="250.51" fill="#ffd900" fill-rule="evenodd" stroke="#000" stroke-width="1.474" rx="5.767" ry="5.851"/><g stroke="#000" transform="translate(-757.03 -25.6) scale(1.032)"><path fill="#fff" fill-rule="evenodd" d="M1220.66 216.14l-30.12 10.63 30.12 10.63 30.12-10.63-30.12-10.63z"/><rect width="442.91" height="7.087" x="761.81" y="223.23" fill="#ffd900" fill-rule="evenodd" rx="4.108" ry="3.78"/><path fill="none" d="M1194.1 230.3c1.76 0 3.53-1.76 3.53-3.53s-1.77-3.54-3.54-3.54M1190.6 230.3c1.76 0 3.53-1.76 3.53-3.53s-1.77-3.54-3.54-3.54M1187 230.3c1.76 0 3.53-1.76 3.53-3.53s-1.77-3.54-3.54-3.54"/></g><g stroke="#000" transform="translate(-786.29 -3.657) scale(1.032)"><path fill="#fff" fill-rule="evenodd" d="M1220.66 216.14l-30.12 10.63 30.12 10.63 30.12-10.63-30.12-10.63z"/><rect width="442.91" height="7.087" x="761.81" y="223.23" fill="#ffd900" fill-rule="evenodd" rx="4.108" ry="3.78"/><path fill="none" d="M1194.1 230.3c1.76 0 3.53-1.76 3.53-3.53s-1.77-3.54-3.54-3.54M1190.6 230.3c1.76 0 3.53-1.76 3.53-3.53s-1.77-3.54-3.54-3.54M1187 230.3c1.76 0 3.53-1.76 3.53-3.53s-1.77-3.54-3.54-3.54"/></g><g fill-rule="evenodd"><path fill="#3d5da7" stroke="#000" stroke-width="1.422" d="M338.07-.42c-5.57 12.45 4.28-4.13 28.3 16.7 4.45 3.86 8.34 14.08 8.34 21.17-1.12-.97-1.96-3.14-3.2-4.55-1.75 2.25 1.66 12.58 2.16 17.46-3.76-2.7-3.4-4-4.64-7.33.25 4.03-.65 15.12.85 19.4-2.96-1.1-2.77-4.17-4.3-4.8 1.04 4.84-.93 10.1-.4 15.54-1.74-2.2-3.58-3.94-4.38-4.83-.15 2.6-3.34 9.4-3.4 11.83-1.48-1.14-1.88-2.92-2.13-4.12-1.82 2.95-8.3 13.87-8.72 17.2-5-5.7-17.8-19.55-19.46-26.9-1.48 4.17-3.6 5.58-7.83 8.63-1.66-11.66-7.9-24.76-4.56-34.75-2.34 1.8-4.3 3.6-6.65 5.83C310.3 29.18 321.68 9.4 338.07-.42z" transform="matrix(.994 0 0 .771 190.368 251.963)"/><path fill="#a70000" d="M505.88 299.16c2.3-4.6 4.42-6.05 5.9-9 2.63-5.22 3-9.36 5.3-8.75 2.28.62 2.28 2.75-.7 7.87-2.95 5.1-4.36 6.2-10.5 9.9zm15.56 10.95c-.3-3.5.72-4.95.53-7.2-.3-3.97-1.94-6.7.17-6.88 2.1-.2 3.1 1.15 3.1 5.15s-.6 5.05-3.8 8.95zm11.8 6.88c-.92-4.9-.23-7.06-.82-10.2-1.03-5.54-3.06-9.2-1.1-9.7 1.95-.5 3.13 1.3 3.87 6.9.73 5.62.34 7.17-1.96 13zm12.27-34.25c-2.87-2.18-4.55-2.33-6.4-3.74-3.28-2.47-4.94-5.1-6-3.8-1.05 1.3-.3 2.74 3.13 5.02 3.43 2.27 4.6 2.45 9.28 2.5zm-2.02 16.23c-1.52-3.15-3.1-3.95-4.1-5.98-1.73-3.57-1.74-6.66-3.62-5.87-1.9.8-2.04 2.42-.02 5.87 2 3.46 3.07 4.08 7.74 6z"/></g><g fill-rule="evenodd"><path fill="#3d5da7" stroke="#000" stroke-width="1.422" d="M329.6 20.7c-.27-2.66.25-2.98-1.26-5 2.2 1 2.3 3.66 4.96 1.78.98-.55 1.4-.57.22-3.53 2.8.14 11.93 3.54 13.4 3.62 3.83.2 10.84-4.37 15.7 1.24 4.68 5.13 3.12 10.44 3.12 17.52-1.87-.97-.97-1.45-2.96-4 1.5 6.2-.08 17.38-.08 23.95-.77-1.58-.66-.9-1.4-2.54-2 6-4.4 7.23-4.4 14.32-.7-2.78 0-2.2-.8-3.65-1.95 4.55-14.94 8.44-9.93 13.03-4.52-2.87-6.5-2.57-8.55-5.15-.88.62-1.58 1.78-2.4 3.4-7.95-3.97-5.1-12.5-11.33-18.22-1.1 2.4-.6 2.04-1.76 5.94-1.26-5.4-1.6-8.85-3.02-12.82-1.22 2.2-1.1 1.36-3.33 4.7-.93-6.6-2.43-8.15-1.83-12.5-2.36 1.8-.82 1.06-3.18 3.28 2.23-16.88 11.88-29.35 18.8-25.36z" transform="matrix(1.137 0 0 1.05 -399.418 239.16)"/><path fill="#a70000" d="M-35.7 289.8c2.32-5.7 4.42-7.5 5.92-11.16 2.66-6.46 3.1-11.62 5.32-10.83 2.23.8 2.2 3.45-.8 9.8-2.97 6.34-4.37 7.68-10.45 12.2zm8.8 14.27c.94-5.1 2.4-6.97 3.02-10.27 1.07-5.8.47-10.1 2.55-9.87 2.07.22 2.54 2.4 1.16 8.17-1.38 5.76-2.33 7.13-6.72 11.97zm10.55 9.92c.26-4.96 1.42-6.9 1.6-10.1.3-5.6-.77-9.63 1.2-9.65 1.98-.03 2.7 2 2.08 7.62-.6 5.62-1.34 7.02-4.88 12.12zm22.63-32.43c-4.33-4.3-6.94-5.1-9.74-7.9-4.9-4.86-7.3-9.43-9.04-7.8-1.75 1.6-.7 4.04 4.48 8.68 5.18 4.63 6.98 5.3 14.3 7.02zm-2.63 16.67c-2.82-4.33-4.9-5.45-6.7-8.24-3.22-4.9-4.32-9.1-6.14-8.06-1.8 1.04-1.4 3.24 2.07 8 3.48 4.73 4.88 5.6 10.78 8.3z"/></g><g fill-rule="evenodd"><path fill="#fff" stroke="#000" stroke-width="2.108" d="M637.8 230.32c-53.15 59.05-124.02 177.16-265.75 177.16-124.02 0-212.6-118.1-265.75-177.16 53.15-59.06 141.73-177.17 265.75-177.17 141.73 0 212.6 118.1 265.75 177.17z" transform="matrix(.688 0 0 .619 .001 113.366)"/><path d="M243.23 184.44c9.73 10.95 1.6 15.36 11.9 16.08 10.87.8 4.7 11.56 13.85 11.93 6.38.28-.64 25.8 5.5 34.22 6.27 8.77 11.52 2.57 11.63 8.9.1 6.57-17.04 5.9-17.34 26.1-.5 11.65-14.48 12.4-15.14 19.9-.83 7.03 27.52 11 27.15 17.3-.4 6.3-30.62 5.3-31.94 12.47-.67 6.45 41.53 11.72 44.93 30.36-6.3 2.06-24.22 4-37.76 4-85.33.07-146.3-73.14-182.86-109.7C109.7 219.42 170.66 146.28 256 146.28c0 0-25.33 23.15-12.77 38.17z"/><path fill="#fff" d="M141.4 217h8.87v29.25h-8.86zm0 48.75h8.87V295h-8.86zM159.15 217H168v29.25h-8.86zm0 48.75H168V295h-8.86zM176.87 217h8.86v29.25h-8.86zm0 48.75h8.86V295h-8.86zM194.6 217h8.87v29.25h-8.87zm0 48.75h8.87V295h-8.87zM212.33 217h8.87v29.25h-8.87zm0 48.75h8.87V295h-8.87zM230.06 217h8.87v29.25h-8.87zm0 48.75h8.87V295h-8.87z"/><path d="M275.5 217h8.87v29.25h-8.87zm0 48.75h8.87V295h-8.87zM293.23 217h8.86v29.25h-8.87zm0 48.75h8.86V295h-8.87zM310.96 217h8.86v29.25h-8.86zm0 48.75h8.86V295h-8.86zM328.7 217h8.86v29.25h-8.87zm0 48.75h8.86V295h-8.87zM346.4 217h8.87v29.25h-8.88zm0 48.75h8.87V295h-8.88zM364.15 217h8.87v29.25h-8.87zm0 48.75h8.87V295h-8.87z"/></g><g fill-rule="evenodd"><path fill="#3d5da7" stroke="#000" stroke-width="1.422" d="M338.07-.42c-5.57 12.45 9.75-4.13 33.78 16.7 4.45 3.86 10.83 19.15 10.83 26.24-5.1-1.26-14.17-7.1-14.17-7.1s10.64 12.3 10.64 26.48c-3.76-2.7-5.64-2.3-6.88-5.63 0 4.58 3.34 7.5 3.34 14.6-2.72-2.5-5-4.17-7.3-5.63 3.54 7.1-6.46 20.84-1.46 25.42-8.75-1.46-17.7-7.92-21.25-15-1.9 1.46-2.1 3.75-2.16 6.2.27.27-13.32-11.65-12.07-16.23-1.83 2.95-2.1 4.58-2.5 7.9-5-5.68-9.58-11.37-11.24-18.73-2.22 3.33-2.36 3.33-4.58 6.66-1.67-11.65-1.67-11.24 1.66-21.23-2.34 1.8-4.3 3.6-6.65 5.83C310.3 29.18 321.68 9.4 338.07-.42z" transform="matrix(.909 0 0 .787 -110.58 166.096)"/><path fill="#a70000" d="M184.38 213.64c.8-6.75 2.57-9.3 3.1-13.64.94-7.65-.18-13.24 2.53-13.1 2.72.15 3.5 2.97 2.16 10.6-1.34 7.63-2.46 9.48-7.78 16.14zM198.5 226c-.55-5.7.5-8.1.15-11.78-.6-6.46-2.6-10.83-.23-11.24 2.36-.4 3.56 1.77 3.8 8.3.27 6.5-.37 8.24-3.72 14.73zm22.08 10.1c-2.4-4.94-4.46-6.4-6-9.58-2.75-5.58-3.32-10.13-5.43-9.3-2.12.82-2 3.18 1.05 8.64 3.05 5.45 4.43 6.57 10.38 10.23zm7.64-44.15c-6.12-3.22-9.26-3.26-13.2-5.33-6.94-3.63-10.98-7.73-12.42-5.47-1.43 2.25.48 4.5 7.64 7.8 7.15 3.3 9.35 3.45 17.98 3zm2.24 18.43c-4.45-3.7-7.1-4.25-9.96-6.63-5.06-4.18-7.58-8.3-9.27-6.62-1.7 1.66-.56 3.86 4.75 7.8 5.3 3.94 7.13 4.43 14.48 5.45z"/></g></g></svg>