<svg xmlns="http://www.w3.org/2000/svg" width="640" height="480"><path fill="#006" d="M640 480V0H0v480h640z"/><path fill="#006" fill-rule="evenodd" d="M0 0h373.68v232.17H0z"/><path fill="#fff" d="M0 0v25.96l331.9 206.2h41.78v-25.95L41.78 0H0zm373.68 0v25.96l-331.9 206.2H0v-25.95L331.9 0h41.78zM155.7 0v232.17h62.28V0H155.7zM0 77.4v77.38h373.68v-77.4H0z"/><path fill="#c00" d="M0 92.87v46.43h373.68V92.87H0zM168.16 0v232.17h37.36V0h-37.37zM0 232.17l124.56-77.4h27.85l-124.55 77.4H0zM0 0l124.56 77.4H96.7L0 17.3V0zm221.27 77.4L345.83 0h27.85L249.12 77.4h-27.85zm152.4 154.77l-124.55-77.4h27.85l96.7 60.1v17.3z"/><path fill="#fff" fill-opacity=".996" d="M612.54 212.44v79.9c0 65.62-25.77 125.67-102.22 162.18-76.4-36.5-102.2-96.56-102.2-162.17v-79.9H612.6z"/><path fill="#fdc300" fill-opacity=".996" d="M605.7 220.6v74.52c0 61.2-24.05 117.2-95.35 151.26C439.05 412.33 415 356.3 415 295.12V220.6h190.7z"/><g stroke="#000" stroke-width=".091"><path fill="#ff9e3d" d="M465.97 253.25a8.15 8.15 0 0 0-4.95-1.72c.46-5.06-3.22-7.25-5.87-8.17-2.64-.92-3.56-1.96-4.02-4.03-.46-2.07-1.84-3.33-4.26-4.02-2.4-.68-4.48-3.1-5.4-4.24-.92-1.16-1.27-.93-1.96 1.03-.68 1.94-3.44 5.62-.9 5.74-1.85 1.5-2.88 3.22-1.73 5.52-1.27 1.04-2.2 2.53-.46 3.1 1.73.58 2.2 1.04 2.3 1.5-1.54 0-1.95 3.1 1.73 3.8-.8.1-1.15 2.64.35 2.64-2.07 0-3.8 3.1-6.44 3.1-2.65 0-4.03.6-4.14 1.73-.12 1.15-1.5 2.53-2.2 3.1 1.97.24 3.23 0 4.27-.8s2.76-1.03 3.9-.1c1.16.9 3.57 1.37 4.72 1.14-2.54 1.73-4.38 4.03-4.6 6.2-.24 2.2-1.73 4.73-3.46 5.42-1.72.68-4.02 2.52-4.83 4.7 2.2 5.4 5.3 6.75 8.4 8.17 5.53 2.53 8.98 4.37 11.28 6.9 2.3 2.53 3.22.7 6.67 5.06 3.45 4.37 6.67 12.65 10.12 14.04 3.45 1.38 7.82.45 10.35-3.9 2.53-4.4 4.14-48.56-8.85-55.92z"/><path fill="#ff927f" d="M471.83 234.85c-3.22 3.45-7.37 6.9-6.67 13.1s1.38 16.34-4.37 19.8c-5.76 3.45-8.52 12.2-1.62 17.25 6.9 5.06 7.13 11.27 8.27 17.02 1.16 5.75 4.15 10.35 8.75 6.44 4.6.7 7.13-1.15 7.13-4.83s.23-5.75 3.68-6.9c3.46-1.15 4.38-2.3 6-5.4 1.6-3.1 2.52-4.5 1.6-6.33-.92-1.84-1.27-5.64-.58-8.4.7-2.76-.9-4.25-1.84-5.98-.92-1.72-1.26-3.22-.8-5.52.46-2.3-.7-3.8-2.3-4.95-1.6-1.15-2.3-2.3-1.95-4.14.34-1.83-1.16-2.98-2.88-4.36s-3-3.22-3-5.98c0-2.76-5.28-9.2-9.42-10.8z"/><path fill="#ff9ee1" d="M473.12 309.96c7.7-1.96 7.02-14.6 5.87-19.9-1.17-5.3-4.12-12.87-1.85-18.86 3.22-8.5-3.92-16.57-2.08-19.78 1.84-3.23 1.6-4.95 1.38-6-.22-1.03-1.95-1.83-2.06.35-.13 2.2-.7 3-2.1 4.38s-1.02 4.37 0 7.7c1.05 3.34 3.23 8.4-.22 15.07-3.44 6.67-2.03 9.65-.68 12.77 2.06 4.82 7 21.6 1.72 24.26z"/><path fill="none" d="M438.6 237.84c.87 0 2.54-.35 2.54.8m-4.26 4.72c1.04-.75 2.88.12 4.72-.98m-2.88 5.58c1.38 0 3.22-.06 4.94-1.44m-3.22 5.24c1.27 0 3.62-.8 4.2-2.47m-3.85 5.1c2.46-.1 5.74.8 6.2-.06m-6.1 8.23c1.73-1.6 5.82-2.7 6.74-4.37m-2.35-21.28c2.86.92 1.67 2.7 3.1 3.8 2.52 1.95.22 4.14 2.3 4.7 2.06.6 2.03.94 1.5 3.23-.65 2.7 1.94 2.82 1.02 4.6m7.82-1.72c-1.15 0-4.54.12-5.98 3.17m-18.57 30c1.32.24 1.98-.5 2.35-1.25.4-.8.57-1.38 1.78-1.44 1.2-.05 3.05-.4 3.45-1.3.4-.93 1.84-.07 3.05-2.5 1.2-2.4 2.02-5.28 5.23-6.3"/></g><g stroke="#000" stroke-width=".091"><path fill="#00a728" d="M527.73 334.97c1.3 1.9-.05 3.94 2.16 4.76 2.58.95.32 4.36 3.37 5.55 2.7 1.07.02 4.32 2.94 5.8 2.63 1.3-.42 4.35 3.07 6.1 3.48 1.74-.66 5.66 1.96 7.2 2.6 1.5-.87 5.44 2.18 6.97 3.06 1.52-1.3 4.58 1.54 6.76 2.83 2.2-.66 5.46 2.18 7.42s-1.74 4.6 1.1 7.42c2.17 2.18-.8 4.3.86 7.63 1.1 2.18-1.1 10.9-7.2 10.03-2.18 3.7-10.68 6.98-13.73 5.9-3.06 2.17-12.87 5.22-17.9.42-5 4.8-14.8 1.75-17.87-.43-3.05 1.08-11.55-2.2-13.73-5.9-6.1.87-8.3-7.85-7.2-10.03 1.66-3.32-1.3-5.45.87-7.63 2.83-2.83-1.74-5.45 1.1-7.42s-.66-5.23 2.17-7.4c2.83-2.2-1.53-5.25 1.52-6.78 3.05-1.52-.44-5.45 2.18-6.97 2.62-1.53-1.53-5.45 1.96-7.2 3.5-1.74.44-4.8 3.05-6.1 2.94-1.47.25-4.72 2.96-5.8 3.05-1.18.8-4.6 3.38-5.54 2.24-.83.8-2.93 2.23-4.85 6.5 2.55 26.6 4.4 34.86.1z"/><path fill="#fdc300" fill-opacity=".996" d="M495.48 346.38c0 .98-.02 1.95-.93 3.16-1.96 2.62.87 3.93-1.3 6.76-2.18 2.84.43 4.58-1.97 6.98-2.4 2.4.44 4.58-1.96 7.2s.44 4.36-1.96 6.76c-2.4 2.4.43 5.02-1.97 7.4-2.4 2.4.43 5.47-2.2 8.3-2.6 2.83.45 5.02-1.73 7.2-2.18 2.18-.22 4.36-1.74 5.88 2.6-1.96 2.6-5 4.57-6.54 1.97-1.52-.65-3.7.44-4.8s.22-5.67 2.18-7.85.22-6.54 1.96-8.07.44-6.1 2.62-7.63 0-5.24 1.74-7.2c1.75-1.96 0-5 1.75-7.4 1.73-2.4.07-4.58 1.3-6.55.54-.88.54-7.2-.82-3.6zm6.3 2.72c-1.53 2.84 1.08 3.5-.88 6.33s1.1 5-1.1 7.85 1.1 4.36-.86 7.2c-1.96 2.83.87 4.36-.87 6.54-1.75 2.18 1.3 4.36-.88 6.98-2.2 2.6.87 4.58-.88 6.97-1.74 2.4.66 5.02-.87 6.98-1.53 1.96 1.1 4.8-1.1 7.42s.44 4.36-.87 6.1c2.62-.87 1.64-4.47 2.62-5.23 1-.76-.32-5.78 1.2-7.1 1.53-1.3-.98-5.33.44-7.08 2.4-2.94.33-4.9 1.74-7.2 1.42-2.28-.54-5.22.55-6.75 1.85-2.6-.82-4.97.54-6.86 1.96-2.73-.38-4.97.98-6.76 2.07-2.73-.22-5.45.66-6.87.88-1.4 2.3-7.52-.43-8.5zm8.47 2.38c-1.52 3.8 1.1 5.32.22 8.36-.87 3.04 1.1 5.32-.22 8.62-1.3 3.3 1.75 5.82 0 10.13-1.74 4.3 1.13 5.37 0 9.62-1.3 4.93 2.2 7.55 0 11.04-2.17 3.5 2.5 4.65.22 8.3-1.1 1.73.1 6.2 1.86.86 1.74-5.34-1.3-6 .22-8.18 1.52-2.18-.55-7.96.1-11 .66-3.06-1.52-7.2-.1-10.48 1.4-3.27-2.2-6.76-.77-9.6 1.42-2.83-.65-6.32.66-8.6 1.3-2.3-1-5.35-.44-6.66.55-1.3-.55-6.14-1.75-2.42z"/><path fill="#ef072d" d="M526.6 337.54c0-24.64-3.5-33.14-16.36-33.14-12.87 0-16.35 8.5-16.35 33.14h32.7z"/><path fill="none" d="M498.68 335.58c-2.4 2.4.44 4.15-1.96 6.98s-.22 4.36-2.18 6.98.87 3.92-1.3 6.76c-2.2 2.84.43 4.57-1.97 6.98-2.4 2.4.44 4.58-1.96 7.2-2.4 2.6.44 4.36-1.96 6.76-2.4 2.4.44 5-1.96 7.4-2.4 2.4.44 5.46-2.18 8.3-2.6 2.83.44 5-1.74 7.2-2.18 2.17-.22 4.36-1.75 5.88-1.5 1.53-1.73 3.66-1.08 4.58m24.64-74.15c-2.18 2.84 1.1 4.15-.87 6.54-1.98 2.4.86 3.27-.67 6.1s1.1 3.5-.87 6.33 1.1 5-1.1 7.85 1.1 4.36-.86 7.2c-1.96 2.83.87 4.36-.87 6.54-1.75 2.18 1.3 4.36-.87 6.98-2.2 2.6.87 4.57-.88 6.97-1.74 2.4.66 5.02-.87 6.98-1.52 1.96 1.1 4.8-1.08 7.42s.44 4.36-.87 6.1c-1.3 1.75-2.35 4.3-1.1 5.02m17.9-77.43c-1.08 4.56 1.53 8.6 0 12.4-1.52 3.8 1.1 5.33.22 8.37-.87 3.04 1.1 5.32-.22 8.62-1.3 3.3 1.75 5.82 0 10.13-1.74 4.3 1.13 5.37 0 9.62-1.3 4.93 2.2 7.55 0 11.04-2.17 3.5 1.97 4.36.22 8.3-1.74 3.9 1.1 5.44-.22 9.37m11.58-81.35c2.4 2.4-.44 4.15 1.96 6.98s.2 4.36 2.17 6.98-.87 3.92 1.3 6.76c2.2 2.84-.43 4.57 1.97 6.98 2.4 2.4-.44 4.58 1.96 7.2 2.4 2.6-.43 4.36 1.97 6.76 2.4 2.4-.44 5 1.96 7.4 2.4 2.4-.44 5.46 2.18 8.3 2.62 2.83-.43 5 1.75 7.2 2.18 2.17.22 4.36 1.75 5.88 1.52 1.53 1.74 3.66 1.1 4.58m-24.65-74.15c2.18 2.84-1.1 4.15.87 6.54 1.97 2.4-.87 3.27.66 6.1 1.52 2.84-1.1 3.5.87 6.33s-1.1 5 1.1 7.85-1.1 4.36.86 7.2c1.97 2.83-.86 4.36.88 6.54 1.75 2.18-1.3 4.36.88 6.98 2.17 2.6-.88 4.57.87 6.97 1.74 2.4-.66 5.02.87 6.98 1.53 1.96-1.1 4.8 1.1 7.42s-.45 4.36.86 6.1c1.3 1.75 2.35 4.3 1.1 5.02"/><path d="M493.9 337.54c0-24.64 3.5-33.14 16.37-33.14-5.9 0-9.5 4.57-10.47 7.63s-.44 2.83.87 1.64.66 1.4-.43 2.83c-1.1 1.4-2.18 5.45-.66 4.14 1.53-1.3 2.73.22 1.1 2.5s-3.06 7.64-1.43 5.8c1.64-1.87 1.97 1.2 1 2.72-1 1.52-.9 2.83 0 2.18.86-.66.75 2.5-.12 3.7h-6.22zm30.2-1.4c0-19.3-2.4-25.1-7.2-27.05-2.72-1.13-2.8-.88-1.5.86s1.1 4.25-.1 2.5c-1.2-1.74-1.6-2.07-2.1-1.3-.5.76 1.4 4.36 2.8 7.63 1.13 2.62.4 3.92-1.3 1.3s-1.7-.25-.2 1.96c1.9 2.84 1.85 11.45 1.85 15.05l7.74-.97z"/><path fill="#ef072d" d="M510.25 341.14c5.13 0 10.74-.9 14.5-2.37 4.48-1.74 4.72-3.26 3.17-5.2-1.1-1.38-3.5-.56-5.78.45-2.3 1-8.6 1.64-11.9 1.64-3.25 0-9.58-.64-11.87-1.64-2.3-1-4.7-1.83-5.78-.46-1.55 1.95-1.32 3.47 3.16 5.2 3.76 1.47 9.37 2.38 14.5 2.38z"/></g><g fill="#b95a1e" fill-rule="evenodd"><path stroke="#000" stroke-width=".36.377" d="M559.95 308.52s3.36 5.8 5.82 10.02c2.46 4.22 4.46 5.2 6.24 3.93 1.8-1.25.28-4.7-1.15-6.33s-9.28-9.3-9.28-9.3l-1.62 1.68z"/><path stroke="#000" stroke-width="6.377" d="M779.4 912.6s-.1 103.6 0 179.24c.13 75.63 19.83 104.9 54.27 103.6 34.44-1.34 41.1-58.84 34.53-92.1-6.57-33.25-53.24-198.96-53.24-198.96l-35.55 8.22z" transform="matrix(.061 -.014 .013 .064 499.988 261.06)"/><path stroke="#000" stroke-width="6.377" d="M779.4 912.6s-.1 103.6 0 179.24c.13 75.63 19.83 104.9 54.27 103.6 34.44-1.34 41.1-58.84 34.53-92.1-6.57-33.25-53.24-198.96-53.24-198.96l-35.55 8.22z" transform="matrix(.062 0 0 .066 509.298 249.353)"/><path stroke="#000" stroke-width="8.095" d="M779.53 255.12c159.57-1.4 177.16-35.43 177.16-35.43s35.42-70.88 17.7-88.6c-17.7-17.7-194.87-17.7-194.87-17.7V255.1z" transform="matrix(.039 0 0 .066 527.683 292.32)"/><path stroke="#000" stroke-width="6.377" d="M779.53 255.12c106.3 0 124.02-35.43 124.02-35.43s35.43-70.88 17.72-88.6c-17.72-17.7-141.73-17.7-141.73-17.7V255.1z" transform="matrix(.062 0 0 .066 509.298 287.673)"/><path stroke="#000" stroke-width="6.377" d="M779.53 255.12c88.58 0 141.73-35.43 141.73-35.43s35.43-70.88 17.72-88.6c-17.72-17.72-159.45-17.7-159.45-17.7V255.1z" transform="matrix(.062 0 0 .066 509.298 283.026)"/><path stroke="#000" stroke-width="5.724" d="M832.68 113.4s70.87-88.6 194.88-177.18c124-88.58 213.73-156.72 230.3-141.73 0 17.7-106.3 106.3-194.87 177.16-88.6 70.86-194.9 177.16-194.9 177.16l-35.43-35.43z" transform="matrix(.077 0 0 .066 497.232 249.488)"/><path stroke="#000" stroke-width="5.724" d="M832.68 113.4s70.05-52.04 204.38-124.03c132.23-63.92 318.9-53.15 318.9-35.43-17.72 17.7-177.17 17.7-283.47 70.86-101.5 50.73-204.4 124-204.4 124l-35.43-35.42z" transform="matrix(.077 0 0 .066 497.87 254.135)"/><path stroke="#000" stroke-width="5.724" d="M832.68 113.4s61.67-35.08 204.38-88.6c141.72-53.14 329.87-17.7 329.87 0-17.7 17.72-170.4 6.95-276.7 35.44-110 27.75-222.1 88.58-222.1 88.58l-35.42-35.43z" transform="matrix(.077 0 0 .066 497.93 262.135)"/><path stroke="#000" stroke-width="5.724" d="M832.68 113.4s71.08-71 222.47-88.6c152.3-17.7 276.3 88.6 276.3 106.3-17.7 17.72-159.5-77.97-265.7-64.3-112.67 13.67-197.7 82.02-197.7 82.02l-35.42-35.44z" transform="matrix(.077 0 0 .066 498.45 270.253)"/><path stroke="#000" stroke-width="6.377" d="M779.53 255.12c159.57-1.4 159.45-45.5 159.45-45.5s35.43-70.87 17.72-88.6c-17.72-17.7-177.16-7.63-177.16-7.63V255.1z" transform="matrix(.062 0 0 .066 509.298 277.227)"/><path stroke="#000" stroke-width="6.377" d="M779.53 255.12c159.57-1.4 177.16-35.43 177.16-35.43s35.42-70.88 17.7-88.6c-17.7-17.7-194.87-17.7-194.87-17.7V255.1z" transform="matrix(.062 0 0 .066 509.298 272.58)"/><path stroke="#000" stroke-width="6.377" d="M779.53 255.12c159.57-1.4 194.88-35.43 194.88-35.43s35.44-70.88 17.73-88.6c-17.72-17.7-212.6-17.7-212.6-17.7V255.1z" transform="matrix(.062 0 0 .066 509.298 266.774)"/><path stroke="#000" stroke-width="6.377" d="M779.53 255.12c159.57-1.4 212.6-35.43 212.6-35.43s17.7-70.88 0-88.6c-17.72-17.7-212.6-17.7-212.6-17.7V255.1z" transform="matrix(.062 0 0 .066 509.298 260.967)"/><path stroke="#000" stroke-width="5.724" d="M832.68 113.4s114.2-88.6 114.2-159.46c0-70.87-50.34-141.73-64.62-177.17 28.56 0 93.18 106.3 93.18 177.17 0 77.44-107.32 194.88-107.32 194.88L832.7 113.4zM832.68 113.4S818.4 60.23 818.4-46.07c0-124.02 63-202.9 85.66-230.32 5.9 27.42-57.1 124.02-57.1 230.32 0 77.44 21.15 194.88 21.15 194.88L832.7 113.4z" transform="matrix(.077 0 0 .066 495.728 244.706)"/><path stroke="#000" stroke-width="6.377" d="M779.53 255.12c159.57-1.4 212.6-35.43 212.6-35.43s0-70.88-17.72-88.6c-17.7-17.7-194.87-17.7-194.87-17.7V255.1z" transform="matrix(.062 0 0 .066 509.298 255.16)"/><path stroke="#000" stroke-width="6.377" d="M779.53 255.12c159.57-1.4 194.88-35.43 194.88-35.43s0-70.88-17.7-88.6c-17.72-17.7-177.17-17.7-177.17-17.7V255.1z" transform="matrix(.062 0 0 .066 509.298 249.353)"/><path stroke="#fdc301" stroke-width="16.071" d="M318.9 1318.1c55.06-122.32 70.87-336.6 70.87-372.05 0-99.78-32.95-585.1-35.44-779.53s124.02-301.18 248.03-301.18c106.3 0 177.17 70.87 177.17 177.17h-53.15c0-70.86-53.15-124-124.02-124-106.3 0-188 83.73-194.88 248.02-7.6 189.9 21.32 682.94 17.72 814.96s-51.23 249.72-106.3 336.6z" transform="matrix(-.062 0 0 .066 606.204 249.353)"/><path stroke="#000" stroke-width=".36.377" d="M555.55 308.52s-3.36 5.8-5.82 10.02c-2.46 4.22-4.46 5.2-6.24 3.93-1.8-1.25-.28-4.7 1.15-6.33s9.28-9.3 9.28-9.3l1.62 1.68z"/><path stroke="#000" stroke-width="6.377" d="M779.53 32.88c124.13.14 177.77 102.4 177.46 100.3l-35.74 33.36c-19 17.72-141.73 17.72-140.2 17.63l-1.53-151.3z" transform="matrix(.062 0 0 .066 509.298 249.353)"/><path stroke="#000" stroke-width="6.377" d="M779.4 912.6s-.1 103.6 0 179.24c.13 75.63 19.83 104.9 54.27 103.6 34.44-1.34 41.1-58.84 34.53-92.1-6.57-33.25-53.24-198.96-53.24-198.96l-35.55 8.22z" transform="matrix(-.061 -.014 -.013 .064 615.506 261.06)"/><path stroke="#000" stroke-width="6.377" d="M779.4 912.6s-.1 103.6 0 179.24c.13 75.63 19.83 104.9 54.27 103.6 34.44-1.34 41.1-58.84 34.53-92.1-6.57-33.25-53.24-198.96-53.24-198.96l-35.55 8.22z" transform="matrix(-.062 0 0 .066 606.196 249.353)"/><path stroke="#000" stroke-width="8.095" d="M779.53 255.12c159.57-1.4 177.16-35.43 177.16-35.43s35.42-70.88 17.7-88.6c-17.7-17.7-194.87-17.7-194.87-17.7V255.1z" transform="matrix(-.039 0 0 .066 587.811 292.32)"/><path stroke="#000" stroke-width="6.377" d="M779.53 255.12c106.3 0 124.02-35.43 124.02-35.43s35.43-70.88 17.72-88.6c-17.72-17.7-141.73-17.7-141.73-17.7V255.1z" transform="matrix(-.062 0 0 .066 606.196 287.673)"/><path stroke="#000" stroke-width="6.377" d="M779.53 255.12c88.58 0 141.73-35.43 141.73-35.43s35.43-70.88 17.72-88.6c-17.72-17.72-159.45-17.7-159.45-17.7V255.1z" transform="matrix(-.062 0 0 .066 606.196 283.026)"/><path stroke="#000" stroke-width="5.724" d="M832.68 113.4s70.87-88.6 194.88-177.18c124-88.58 213.73-156.72 230.3-141.73 0 17.7-106.3 106.3-194.87 177.16-88.6 70.86-194.9 177.16-194.9 177.16l-35.43-35.43z" transform="matrix(-.077 0 0 .066 618.262 249.488)"/><path stroke="#000" stroke-width="5.724" d="M832.68 113.4s70.05-52.04 204.38-124.03c132.23-63.92 318.9-53.15 318.9-35.43-17.72 17.7-177.17 17.7-283.47 70.86-101.5 50.73-204.4 124-204.4 124l-35.43-35.42z" transform="matrix(-.077 0 0 .066 617.632 254.135)"/><path stroke="#000" stroke-width="5.724" d="M832.68 113.4s61.67-35.08 204.38-88.6c141.72-53.14 329.87-17.7 329.87 0-17.7 17.72-170.4 6.95-276.7 35.44-110 27.75-222.1 88.58-222.1 88.58l-35.42-35.43z" transform="matrix(-.077 0 0 .066 617.573 262.135)"/><path stroke="#000" stroke-width="5.724" d="M832.68 113.4s71.08-71 222.47-88.6c152.3-17.7 276.3 88.6 276.3 106.3-17.7 17.72-159.5-77.97-265.7-64.3-112.67 13.67-197.7 82.02-197.7 82.02l-35.42-35.44z" transform="matrix(-.077 0 0 .066 617.052 270.253)"/><path stroke="#000" stroke-width="6.377" d="M779.53 255.12c159.57-1.4 159.45-45.5 159.45-45.5s35.43-70.87 17.72-88.6c-17.72-17.7-177.16-7.63-177.16-7.63V255.1z" transform="matrix(-.062 0 0 .066 606.196 277.227)"/><path stroke="#000" stroke-width="6.377" d="M779.53 255.12c159.57-1.4 177.16-35.43 177.16-35.43s35.42-70.88 17.7-88.6c-17.7-17.7-194.87-17.7-194.87-17.7V255.1z" transform="matrix(-.062 0 0 .066 606.196 272.58)"/><path stroke="#000" stroke-width="6.377" d="M779.53 255.12c159.57-1.4 194.88-35.43 194.88-35.43s35.44-70.88 17.73-88.6c-17.72-17.7-212.6-17.7-212.6-17.7V255.1z" transform="matrix(-.062 0 0 .066 606.196 266.774)"/><path stroke="#000" stroke-width="6.377" d="M779.53 255.12c159.57-1.4 212.6-35.43 212.6-35.43s17.7-70.88 0-88.6c-17.72-17.7-212.6-17.7-212.6-17.7V255.1z" transform="matrix(-.062 0 0 .066 606.196 260.967)"/><path stroke="#000" stroke-width="5.724" d="M832.68 113.4s114.2-88.6 114.2-159.46c0-70.87-50.34-141.73-64.62-177.17 28.56 0 93.18 106.3 93.18 177.17 0 77.44-107.32 194.88-107.32 194.88L832.7 113.4zM832.68 113.4S818.4 60.23 818.4-46.07c0-124.02 63-202.9 85.66-230.32 5.9 27.42-57.1 124.02-57.1 230.32 0 77.44 21.15 194.88 21.15 194.88L832.7 113.4z" transform="matrix(-.077 0 0 .066 619.775 244.706)"/><path stroke="#000" stroke-width="6.377" d="M779.53 255.12c159.57-1.4 212.6-35.43 212.6-35.43s0-70.88-17.72-88.6c-17.7-17.7-194.87-17.7-194.87-17.7V255.1z" transform="matrix(-.062 0 0 .066 606.196 255.16)"/><path stroke="#000" stroke-width="6.377" d="M779.53 255.12c159.57-1.4 194.88-35.43 194.88-35.43s0-70.88-17.7-88.6c-17.72-17.7-177.17-17.7-177.17-17.7V255.1z" transform="matrix(-.062 0 0 .066 606.196 249.353)"/><path stroke="#fdc301" stroke-width="16.071" d="M318.9 1318.1c55.06-122.32 70.87-336.6 70.87-372.05 0-99.78-32.95-585.1-35.44-779.53s124.02-301.18 248.03-301.18c106.3 0 177.17 70.87 177.17 177.17h-53.15c0-70.86-53.15-124-124.02-124-106.3 0-188 83.73-194.88 248.02-7.6 189.9 21.32 682.94 17.72 814.96s-51.23 249.72-106.3 336.6z" transform="matrix(.062 0 0 .066 509.29 249.353)"/><path stroke="#000" stroke-width="6.377" d="M779.53 32.88c124.13.14 177.77 102.4 177.46 100.3l-35.74 33.36c-19 17.72-141.73 17.72-140.2 17.63l-1.53-151.3z" transform="matrix(-.062 0 0 .066 606.196 249.353)"/></g></svg>