<svg xmlns="http://www.w3.org/2000/svg" width="640" height="480"><defs><clipPath id="a"><path fill-opacity=".67" d="M0 0h682.67v512H0z"/></clipPath></defs><g fill-rule="evenodd" clip-path="url(#a)" transform="scale(.938)"><path fill="#ffe300" d="M0 0h767.63v512H0z"/><path fill="#118600" d="M0 208.14h767.63v102.8H0zM0 .24h767.63v102.82H0z"/><path fill="#d80000" d="M0 .25h306.5v310.7H0z"/><path fill="#fff" d="M134.42 128.43c0-.86 18.84-53.08 18.84-53.08l17.12 52.22s57.36 1.72 57.36.86-45.37 34.25-45.37 34.25 21.4 59.93 20.55 58.22c-.86-1.7-49.66-35.96-49.66-35.96s-49.66 34.25-48.8 34.25c.85 0 18.83-56.52 18.83-56.52l-44.53-33.4 55.65-.85z"/><path fill="#118600" d="M0 409.2h767.63V512H0z"/></g></svg>