<svg xmlns="http://www.w3.org/2000/svg" width="640" height="480" xmlns:xlink="http://www.w3.org/1999/xlink"><path fill="#060" d="M0 0h640v480H0z"/><path fill="#fff" d="M0 0h640v342.86H0z"/><path fill="#c00" d="M0 0h640v137.14H0z"/><path fill="#f8c300" d="M300.8 233.62a8.57 8.57 0 0 1 15.98 4.05v34.28h6.44v-34.28a8.57 8.57 0 0 1 15.98-4.05 20.23 20.23 0 1 0-38.4 0"/><path fill="#fff" d="M305.4 224.67a13.7 13.7 0 0 1 14.6 6.55 13.7 13.7 0 0 1 14.6-6.55 14.74 14.74 0 0 0-29.2 0"/><path id="a" fill="#f8c300" d="M316.78 258.26A26.06 26.06 0 0 1 273 274.93a27.1 27.1 0 0 1-40.96 11.98c2.5 25 39.94 19.9 42.73-4.4 11.76 20.65 37.63 14.74 45.2-10.56z"/><use width="100%" height="100%" fill="#f8c300" transform="matrix(-1 0 0 1 640 0)" xlink:href="#a"/><path id="b" fill="#f8c300" d="M291.78 302.6c-5.23 11.3-15.67 13.23-24.8 4.12 0 0 3.67-2.6 7.6-3.3-.74-3.14.77-7.48 2.9-9.83 2.24 1.52 5.35 4.58 6.15 8.13 5.5-.7 8.15.88 8.15.88z"/><use width="100%" height="100%" fill="#f8c300" transform="rotate(9.37 320 551.314)" xlink:href="#b"/><use width="100%" height="100%" fill="#f8c300" transform="rotate(18.74 320 551.314)" xlink:href="#b"/><path fill="none" stroke="#f8c300" stroke-width="10.971" d="M253.5 327.77a233.14 233.14 0 0 1 133 0"/><g fill="#f8c300"><path id="c" d="M320 164.57z"/></g><g id="d" fill="#f8c300" transform="translate(320 260.571) scale(.686)"><use width="100%" height="100%" xlink:href="#c" transform="translate(-70 -121.244)"/><use width="100%" height="100%" xlink:href="#c" transform="translate(-121.244 -70)"/><use width="100%" height="100%" xlink:href="#c" transform="translate(-140)"/></g><use width="100%" height="100%" fill="#f8c300" xlink:href="#d" transform="matrix(-1 0 0 1 640 0)"/></svg>