<svg xmlns="http://www.w3.org/2000/svg" width="640" height="480"><defs><clipPath id="a"><path fill-opacity=".67" d="M42.67 0h682.67v512H42.67z"/></clipPath></defs><g fill-rule="evenodd" clip-path="url(#a)" transform="translate(-40) scale(.938)"><path fill="#28ae66" d="M0 0h768v512H0z"/><g fill="#fff"><path d="M263.3 137.5c27.9 13.45 61.13-.07 73.14-18.64 12.33-17.34 13.84-46.44-7.46-73.14 33.07 27.42 40.38 58.5 23.92 84.1-21.94 29.26-70.62 28.42-89.6 7.67zM312.83 69.43l5.62.07-4.44 3.53 1.67 5.52-4.63-3.26-4.6 3.33 1.6-5.55-4.5-3.45 5.6-.17 1.8-5.47zm-27.7 34.74l5.6.07-4.44 3.53 1.66 5.52-4.63-3.27-4.6 3.34 1.6-5.55-4.5-3.45 5.6-.16 1.8-5.47zm1.82-27.42l5.6.07-4.43 3.53 1.67 5.52-4.65-3.26-4.58 3.35 1.58-5.55-4.5-3.45 5.6-.16 1.8-5.5zm0-27.43l5.6.07-4.43 3.52 1.67 5.52-4.65-3.27-4.58 3.34 1.58-5.53-4.5-3.45 5.6-.17 1.8-5.47zm-30.8 34.75l5.62.07-4.45 3.53L259 93.2l-4.64-3.28-4.6 3.34 1.6-5.54-4.5-3.45 5.6-.17 1.8-5.47z"/></g><path fill="#ca3745" d="M47.54 0H212.1v511.98H47.55z"/><g fill="#faae29"><path d="M47.54 133.48v-3.66l6.8-9.14-1.37-1.83 4.12-5.48-1.38-1.83-2.75 3.66-1.37-1.83 9.6-12.8 1.37 1.83-1.37 1.82 2.83 3.7 6.77-9.18-6.9-8.9-2.7 3.4 1.37 1.84-1.37 1.83-9.6-12.8 1.37-1.82 2.75 3.66 1.37-1.83-4.13-5.48 1.37-1.82-6.8-9.15V64l9.55 12.8-1.38 1.82 4.1 5.5-2.73 3.65 2.73 3.65 4.1-5.48 9.67 13.02-9.66 12.58-4.1-5.5-2.75 3.67 2.73 3.67-4.1 5.48 1.36 1.83-9.56 12.8zM47.54 87.77l1.37 3.66v5.48h4.13l2.74 1.84-2.74 1.83H48.9v5.48l-1.36 3.66V87.78z"/></g><g fill="#faae29"><path d="M47.54 221.25v-3.66l6.8-9.15-1.37-1.83 4.12-5.48-1.38-1.83-2.75 3.66-1.37-1.82 9.6-12.8 1.37 1.82L61.2 192l2.83 3.7 6.77-9.2-6.9-8.9-2.7 3.42 1.37 1.83-1.37 1.83-9.6-12.8 1.37-1.83 2.75 3.66 1.37-1.82-4.13-5.5 1.37-1.8-6.8-9.16v-3.65l9.55 12.8-1.38 1.82 4.1 5.48-2.73 3.66 2.73 3.65 4.1-5.5 9.67 13.03-9.66 12.58-4.1-5.48-2.75 3.66 2.73 3.66-4.1 5.48 1.36 1.83-9.56 12.8zM47.54 175.54l1.37 3.66v5.48h4.13l2.74 1.83-2.74 1.84H48.9v5.48l-1.36 3.66v-21.94z"/></g><g fill="#faae29"><path d="M47.54 309.02v-3.66l6.8-9.14-1.37-1.83 4.12-5.5-1.38-1.82-2.75 3.65-1.37-1.82 9.6-12.8 1.37 1.84-1.37 1.82 2.83 3.7 6.77-9.18-6.88-8.9-2.72 3.4 1.37 1.84-1.37 1.83-9.6-12.8 1.37-1.83 2.75 3.66 1.37-1.83-4.13-5.5 1.38-1.8-6.8-9.16v-3.66l9.54 12.8-1.38 1.82 4.1 5.5-2.73 3.65 2.73 3.66 4.12-5.48 9.65 13.02-9.65 12.58-4.12-5.5-2.74 3.67 2.73 3.66-4.1 5.5 1.36 1.82-9.56 12.8zM47.54 263.3l1.37 3.66v5.5h4.13l2.74 1.82-2.74 1.83H48.9v5.5l-1.36 3.65V263.3z"/></g><g fill="#faae29"><path d="M47.54 391.3v-3.66l6.8-9.14-1.37-1.83 4.12-5.48-1.38-1.84-2.75 3.65-1.37-1.8 9.6-12.8 1.37 1.82-1.37 1.82 2.83 3.7 6.77-9.18-6.88-8.9-2.72 3.4 1.37 1.84-1.37 1.83-9.6-12.8 1.37-1.83 2.75 3.66 1.37-1.83-4.13-5.5 1.38-1.8-6.8-9.16v-3.65l9.54 12.8-1.38 1.82 4.1 5.5-2.73 3.65 2.73 3.64 4.12-5.48 9.65 13.02-9.65 12.58-4.12-5.5-2.74 3.67 2.73 3.66-4.1 5.47 1.36 1.83-9.56 12.8zM47.54 345.6l1.37 3.64v5.5h4.13l2.74 1.82-2.74 1.83H48.9v5.47l-1.36 3.66V345.6z"/></g><g fill="#faae29"><path d="M212.1 133.48v-3.66l-6.8-9.14 1.37-1.83-4.1-5.48 1.36-1.83 2.75 3.66 1.37-1.83-9.6-12.8-1.37 1.83 1.37 1.82-2.83 3.7-6.77-9.18 6.88-8.9 2.72 3.4-1.37 1.84 1.37 1.83 9.6-12.8-1.37-1.82-2.75 3.66-1.37-1.83 4.12-5.48-1.38-1.82 6.8-9.15V64l-9.54 12.8 1.37 1.82-4.1 5.5 2.73 3.65-2.74 3.65-4.12-5.48-9.65 13.02 9.65 12.58 4.12-5.5 2.74 3.67-2.74 3.67 4.1 5.48-1.36 1.83 9.55 12.8zM212.1 87.77l-1.36 3.66v5.48h-4.12l-2.74 1.84 2.74 1.83h4.12v5.48l1.37 3.66V87.78z"/></g><g fill="#faae29"><path d="M212.56 221.25v-3.66l-6.8-9.15 1.37-1.83-4.1-5.48 1.36-1.83 2.73 3.67 1.37-1.83-9.6-12.8-1.37 1.83 1.37 1.83-2.83 3.7-6.77-9.2 6.9-8.9 2.7 3.42-1.37 1.83 1.37 1.83 9.6-12.8-1.37-1.83-2.74 3.66-1.38-1.82 4.1-5.5-1.36-1.8 6.8-9.16v-3.65l-9.54 12.8 1.37 1.82-4.13 5.48 2.75 3.66-2.75 3.65-4.1-5.5-9.67 13.03 9.66 12.58 4.1-5.48 2.76 3.66-2.75 3.66 4.12 5.48-1.38 1.83 9.54 12.8zM212.56 175.54l-1.37 3.66v5.48h-4.12l-2.75 1.83 2.75 1.84h4.1v5.48l1.38 3.66v-21.94z"/></g><g fill="#faae29"><path d="M212.1 309.02v-3.66l-6.8-9.14 1.37-1.83-4.1-5.5 1.36-1.82 2.75 3.65 1.37-1.82-9.6-12.8-1.37 1.84 1.37 1.82-2.83 3.7-6.77-9.18 6.88-8.9 2.72 3.4-1.37 1.84 1.37 1.83 9.6-12.8-1.37-1.83-2.75 3.66-1.37-1.83 4.12-5.5-1.38-1.8 6.8-9.16v-3.66l-9.54 12.8 1.37 1.82-4.1 5.5 2.73 3.65-2.74 3.66-4.12-5.48-9.65 13.02 9.65 12.58 4.12-5.5 2.74 3.67-2.74 3.66 4.1 5.5-1.36 1.82 9.55 12.8zM212.1 263.3l-1.36 3.66v5.5h-4.12l-2.74 1.82 2.74 1.83h4.12v5.5l1.37 3.65V263.3z"/></g><g fill="#faae29"><path d="M212.1 391.3v-3.66l-6.8-9.14 1.37-1.83-4.1-5.48 1.36-1.84 2.75 3.65 1.37-1.8-9.6-12.8-1.37 1.82 1.37 1.82-2.83 3.7-6.77-9.18 6.88-8.9 2.72 3.4-1.37 1.84 1.37 1.83 9.6-12.8-1.37-1.83-2.75 3.66-1.37-1.83 4.12-5.5-1.38-1.8 6.8-9.16v-3.65l-9.54 12.8 1.37 1.82-4.1 5.5 2.73 3.65-2.74 3.64-4.12-5.48-9.65 13.02 9.65 12.58 4.12-5.5 2.74 3.67-2.74 3.66 4.1 5.47-1.36 1.83 9.55 12.8zM212.1 345.6l-1.36 3.64v5.5h-4.12l-2.74 1.82 2.74 1.83h4.12v5.47l1.37 3.66V345.6z"/></g><path fill="#faae29" d="M47.55 34.74v-3.66l6.8-9.14-1.37-1.83 4.1-5.47-1.36-1.83-2.74 3.66-1.37-1.83 9.6-12.8 1.38 1.83L61.2 5.5l2.83 3.68L70.8 0h2.8l-9.65 12.8-4.12-5.5-2.74 3.67 2.73 3.66-4.1 5.48 1.36 1.84-9.55 12.8zm0-34.74h8.22l-2.74 1.83h-4.1v5.5l-1.4 3.64V0zM212.1 34.74v-3.66l-6.8-9.14 1.37-1.83-4.1-5.47 1.36-1.83 2.74 3.66 1.37-1.83-9.6-12.8-1.37 1.83 1.37 1.83-2.82 3.68L188.84 0h-2.8l9.66 12.8 4.12-5.5 2.74 3.67-2.75 3.66 4.13 5.48-1.37 1.84 9.54 12.8zm0-34.74h-8.22l2.74 1.83h4.1V7.3l1.38 3.67V0zM116.12 504.7s5.9-10.37 20.78-13.5c14.88-3.16 17.48 6.9 25.98 6.9s21.97-6.9 21.97-6.9-13.47 13.18-23.86 12.86c-10.4-.3-13.94-6.9-24.57-5.96-10.63.94-20.3 6.9-20.3 6.6zM144.84 504.7s-5.9-10.37-20.78-13.5c-14.88-3.16-17.47 6.9-25.98 6.9-8.5 0-21.96-6.9-21.96-6.9s13.46 13.18 23.85 12.86c10.4-.3 13.94-6.9 24.56-5.96 10.63.94 20.3 6.9 20.3 6.6z"/><g fill="#faae29"><path d="M96.2 487.54c-1.32-2.74-4.6-14.7-2.85-16.2 2.62-1 9.6 11.22 8.96 22.2-4.58 2.48-20.08-1-19.86-4.25 1.1-4.5 9.82-3 13.75-1.76zM86.82 477.08c-.85-3.04-2.2-15.65-.26-16.63 2.7-.26 7.66 13.62 5.32 24.17-4.87 1.18-19.5-6.5-18.78-9.6 1.76-4.1 10.07-.24 13.72 2.07zM79.2 465.38c-.57-3.16-.8-15.9 1.23-16.56 2.72.18 6.4 14.74 3.13 24.85-4.94.4-18.78-9.55-17.8-12.52 2.12-3.8 10.03 1.37 13.45 4.23zM73.2 452.92c-.2-3.24 1.07-15.86 3.13-16.1 2.67.73 4.6 15.87.2 25.2-4.92-.64-17.43-13.32-16.1-16.06 2.52-3.3 9.73 3.43 12.78 6.96zM69.04 439.87c.14-3.25 2.75-15.5 4.82-15.35 2.56 1.24 2.85 16.6-2.5 24.98-4.8-1.57-15.84-16.52-14.23-18.97 2.85-2.78 9.27 5.26 11.9 9.34zM70.2 425c-.35 13-2.72 13.16-7.03 3.56-1.9-3.63-2.14-18.7-.42-19.27 2.48-.06 7.38 10.7 7.45 15.7z"/></g><g fill="#faae29"><path d="M164.03 488.9c1.3-2.73 4.6-14.7 2.84-16.2-2.62-1-9.6 11.23-8.95 22.2 4.6 2.5 20.1-1 19.87-4.24-1.1-4.5-9.84-3-13.77-1.75zM173.4 478.45c.86-3.04 2.2-15.65.27-16.63-2.72-.26-7.66 13.62-5.32 24.17 4.87 1.17 19.5-6.5 18.78-9.63-1.76-4.1-10.08-.22-13.73 2.08zM181 466.75c.6-3.16.8-15.9-1.2-16.56-2.72.17-6.4 14.73-3.13 24.84 4.94.4 18.78-9.55 17.8-12.52-2.12-3.8-10.03 1.37-13.46 4.23zM187.02 454.3c.2-3.25-1.06-15.88-3.13-16.12-2.68.74-4.6 15.88-.22 25.2 4.93-.63 17.45-13.32 16.13-16.05-2.52-3.3-9.74 3.43-12.78 6.96zM191.2 441.24c-.15-3.25-2.76-15.5-4.84-15.35-2.56 1.23-2.84 16.6 2.5 24.96 4.82-1.56 15.84-16.5 14.24-18.96-2.86-2.8-9.27 5.25-11.9 9.34zM190.03 426.38c.35 13 2.7 13.15 7.03 3.54 1.9-3.63 2.14-18.7.42-19.26-2.5-.05-7.4 10.7-7.45 15.72z"/></g><g transform="matrix(1 0 0 1.265 188.276 -77.035)"><path fill="#ca3745" stroke="#000" stroke-width=".133" d="M-3.54 290.55h-5.32v3.54h-5.3v3.54h-21.27l-3.55 3.54 1.77 1.77h8.85l1.77-1.77h-8.85l1.77-1.77h12.4l-5.3 5.32H-39l-3.54-1.77-3.54 1.77h-12.4l-5.32-5.3h12.4l1.77 1.76h-8.86l1.77 1.77h8.86l1.78-1.77-3.55-3.54h-19.5v-3.55h-5.3v-3.55h-5.32V274.6h5.3v-3.54h5.33v-3.54h19.5l3.54-3.54-1.78-1.78h-8.85l-1.76 1.78h8.85l-1.78 1.77h-12.4l5.32-5.32h12.4l3.54 1.77 3.54-1.77h12.4l5.32 5.32h-12.4l-1.77-1.77h8.86l-1.78-1.78h-8.85l-1.78 1.78 3.55 3.54h21.26v3.54h5.3v3.55h5.33v15.95z" transform="matrix(1.488 0 0 1.24 3.502 -39.474)"/><path fill="#28ae66" stroke="#faae29" stroke-width="1.422" d="M375.6 499.67v24.8h10.62v7.02h10.63v7.08h35.43l14.18 10.63 14.17-10.62h38.97v-7.02l10.63-.07v-7.1h10.63v-24.8h-10.63v-7.08l-10.63.06v-7.15h-38.97l-14.17-10.63-14.18 10.63h-35.43v7.15h-10.63v7.1H375.6z" transform="matrix(.744 0 0 .62 -392.03 -6.521)"/><path fill="#ca3745" d="M-75.6 296.64l-15.82 11v-11h15.82zm31.63 0l15.82 11v-11h-15.82zM-75.6 325.2l-15.82-10.98v11h15.82zm31.64 0l15.82-10.98v11h-15.82zm5.27-21.97l-5.26 4.4h10.55l-5.3-4.4zm-42.18 0l-5.27 4.4h10.55l-5.28-4.4zm0 15.4l-5.27-4.4h10.55l-5.28 4.4zm42.2 0l-5.28-4.4h10.55l-5.3 4.4z"/><path fill="#faae29" d="M-59.8 329.6l-5.26-4.4h10.55l-5.3 4.4zm0-21.97l-5.26-4.4h10.55l-5.3 4.4zm0-15.38l-5.26 4.4h10.55l-5.3-4.4zm0 21.97l-5.26 4.4h10.55l-5.3-4.4z"/><path fill="#faae29" stroke="#000" stroke-width=".133" d="M467.72 506.7h14.17v3.53H467.7z" transform="matrix(.744 0 0 .62 -392.03 -6.521)"/><path fill="#c00" stroke="#000" stroke-width=".133" d="M414.57 510.24h7.1v3.54h-7.1zm56.7 0h7.08v3.54h-7.1z" transform="matrix(.744 0 0 .62 -392.03 -6.521)"/><path fill="#900" stroke="#000" stroke-width=".133" d="M439.37 488.98h14.17v3.54h-14.17zm0 7.08h14.17v3.54h-14.17zM435.83 492.52h21.26v3.54h-21.27zm3.54 31.9h14.17v3.53h-14.17zm0 7.08h14.17v3.54h-14.17zM435.83 527.95h21.26v3.54h-21.27z" transform="matrix(.744 0 0 .62 -392.03 -6.521)"/><path fill="#faae29" stroke="#000" stroke-width=".133" d="M467.72 513.78h14.17v3.54H467.7zm-56.7-7.1h14.17v3.55H411zm0 7.1h14.17v3.54H411zM407.48 510.24h7.1v3.54h-7.1zm14.17 0h7.1v3.54h-7.1zm42.52 0h7.1v3.54h-7.1zm14.18 0h7.1v3.54h-7.1z" transform="matrix(.744 0 0 .62 -392.03 -6.521)"/><ellipse cx="413.68" cy="581.99" fill="#fff" transform="matrix(.744 0 0 .62 -374.14 -38.912)" rx=".886" ry=".886"/><ellipse cx="413.68" cy="581.99" fill="#fff" transform="matrix(.744 0 0 .62 -367.57 -38.912)" rx=".886" ry=".886"/><ellipse cx="413.68" cy="581.99" fill="#fff" transform="matrix(.744 0 0 .62 -361 -38.958)" rx=".886" ry=".886"/><ellipse cx="413.68" cy="581.99" fill="#fff" transform="matrix(.744 0 0 .62 -371.51 -41.102)" rx=".886" ry=".886"/><ellipse cx="413.68" cy="581.99" fill="#fff" transform="matrix(.744 0 0 .62 -363.68 -41.148)" rx=".886" ry=".886"/><ellipse cx="413.68" cy="581.99" fill="#fff" transform="matrix(.744 0 0 .62 -371.57 -36.768)" rx=".886" ry=".886"/><ellipse cx="413.68" cy="581.99" fill="#fff" transform="matrix(.744 0 0 .62 -363.68 -36.677)" rx=".886" ry=".886"/><ellipse cx="413.68" cy="581.99" fill="#fff" transform="matrix(.744 0 0 .62 -353.17 -49.999)" rx=".886" ry=".886"/><ellipse cx="413.68" cy="581.99" fill="#fff" transform="matrix(.744 0 0 .62 -346.59 -49.999)" rx=".886" ry=".886"/><ellipse cx="413.68" cy="581.99" fill="#fff" transform="matrix(.744 0 0 .62 -340.02 -50.045)" rx=".886" ry=".886"/><ellipse cx="413.68" cy="581.99" fill="#fff" transform="matrix(.744 0 0 .62 -350.54 -52.189)" rx=".886" ry=".886"/><ellipse cx="413.68" cy="581.99" fill="#fff" transform="matrix(.744 0 0 .62 -342.71 -52.235)" rx=".886" ry=".886"/><ellipse cx="413.68" cy="581.99" fill="#fff" transform="matrix(.744 0 0 .62 -350.59 -47.855)" rx=".886" ry=".886"/><ellipse cx="413.68" cy="581.99" fill="#fff" transform="matrix(.744 0 0 .62 -342.71 -47.764)" rx=".886" ry=".886"/><ellipse cx="413.68" cy="581.99" fill="#fff" transform="matrix(.744 0 0 .62 -374.2 -60.904)" rx=".886" ry=".886"/><ellipse cx="413.68" cy="581.99" fill="#fff" transform="matrix(.744 0 0 .62 -367.62 -60.904)" rx=".886" ry=".886"/><ellipse cx="413.68" cy="581.99" fill="#fff" transform="matrix(.744 0 0 .62 -361.05 -60.949)" rx=".886" ry=".886"/><ellipse cx="413.68" cy="581.99" fill="#fff" transform="matrix(.744 0 0 .62 -371.57 -63.094)" rx=".886" ry=".886"/><ellipse cx="413.68" cy="581.99" fill="#fff" transform="matrix(.744 0 0 .62 -363.74 -63.139)" rx=".886" ry=".886"/><ellipse cx="413.68" cy="581.99" fill="#fff" transform="matrix(.744 0 0 .62 -371.62 -58.759)" rx=".886" ry=".886"/><ellipse cx="413.68" cy="581.99" fill="#fff" transform="matrix(.744 0 0 .62 -363.74 -58.668)" rx=".886" ry=".886"/><ellipse cx="413.68" cy="581.99" fill="#fff" transform="matrix(.744 0 0 .62 -395.28 -49.817)" rx=".886" ry=".886"/><ellipse cx="413.68" cy="581.99" fill="#fff" transform="matrix(.744 0 0 .62 -388.71 -49.817)" rx=".886" ry=".886"/><ellipse cx="413.68" cy="581.99" fill="#fff" transform="matrix(.744 0 0 .62 -382.14 -49.862)" rx=".886" ry=".886"/><ellipse cx="413.68" cy="581.99" fill="#fff" transform="matrix(.744 0 0 .62 -392.65 -52.007)" rx=".886" ry=".886"/><ellipse cx="413.68" cy="581.99" fill="#fff" transform="matrix(.744 0 0 .62 -384.82 -52.052)" rx=".886" ry=".886"/><ellipse cx="413.68" cy="581.99" fill="#fff" transform="matrix(.744 0 0 .62 -392.71 -47.672)" rx=".886" ry=".886"/><ellipse cx="413.68" cy="581.99" fill="#fff" transform="matrix(.744 0 0 .62 -384.82 -47.581)" rx=".886" ry=".886"/></g><path fill="#fff" d="M138.9 255.75l4.53-2.12 4.54 2.13h-9.07zm-13.6 0l4.53-2.12 4.53 2.13h-9.07zm-13.6 0l4.52-2.12 4.54 2.13h-9.07zm27.2-48.87l4.53 2.13 4.54-2.12h-9.07zm-13.6 0l4.53 2.13 4.53-2.12h-9.07zm-13.6 0l4.52 2.13 4.54-2.12h-9.07z"/><path fill="#28ae66" d="M135.12 262.13l-5.3 4.25-5.3-4.25-5.28 4.25-5.3-4.25v2.13l3.54 2.12-1.76 2.13v2.13h1.76l1.76-2.12 1.77 2.13h1.77v-2.12L121 266.4l3.53-2.12 3.53 2.12-1.76 2.13v2.13h1.76l1.76-2.12 1.77 2.13h1.75v-2.12l-1.76-2.12 3.52-2.12 3.52 2.12-1.76 2.13v2.13h1.76l1.77-2.12 1.77 2.13h1.76v-2.12l-1.76-2.12 3.53-2.12v-2.13l-5.3 4.25-5.3-4.25zm0-61.63l-5.3-4.25-5.3 4.25-5.28-4.25-5.3 4.25v-2.13l3.54-2.12-1.76-2.13V192h1.76l1.76 2.12L121 192h1.77v2.12l-1.76 2.13 3.53 2.12 3.53-2.12-1.76-2.13V192h1.76l1.77 2.12 1.76-2.12h1.75v2.12l-1.76 2.13 3.52 2.12 3.52-2.12-1.76-2.13V192h1.76l1.77 2.12 1.77-2.12h1.76v2.12l-1.76 2.13 3.53 2.12v2.13l-5.3-4.25-5.28 4.25zm40.07 35.42l5.66-4.6-5.67-4.6 5.66-4.6-5.67-4.62H178l2.84 3.07 2.83-1.53h2.82v1.53l-2.83 1.54 2.82 1.54v1.54h-2.83l-2.84-1.54-2.84 3.07 2.84 3.08 2.83-1.53h2.82v1.53l-2.83 1.54 2.82 1.53v1.54h-2.83l-2.84-1.55-2.84 3.07 2.83 3.07 2.84-1.55h2.82V239l-2.83 1.52 2.82 1.54v1.53h-2.83l-2.85-1.54-2.83 3.07h-2.83l5.65-4.6-5.66-4.6zm-90.73 0l-5.67-4.6 5.67-4.6-5.67-4.6 5.67-4.62h-2.83l-2.84 3.07-2.83-1.53h-2.84v1.53l2.84 1.54-2.84 1.54v1.54h2.84l2.83-1.54 2.84 3.07-2.84 3.08-2.83-1.53h-2.84v1.53l2.84 1.54-2.84 1.53v1.54h2.84l2.83-1.55 2.84 3.07L78.8 239l-2.83-1.55h-2.84V239l2.84 1.52-2.84 1.54v1.53h2.84l2.83-1.54 2.84 3.07h2.83l-5.67-4.6 5.67-4.6z"/><path fill="#28ae66" stroke="#000" stroke-width=".267" d="M-26.57 214.37h1.77v1.77h-1.78zM-28.35 216.14h1.78v1.77h-1.78zM-37.2 225h1.77v1.77h-1.78zm1.77-1.77h1.77V225h-1.77zm-58.47 0h1.77V225h-1.77zm-8.86-8.86h1.77v1.77h-1.76zm1.78 1.77h1.77v1.77H-101zm0-38.97h1.77v1.77H-101zm-1.78 1.77h1.77v1.77h-1.76zm10.63-10.63h1.78v1.78h-1.78zm-1.77 1.78h1.77v1.77h-1.77zm56.7-1.77h1.77v1.78h-1.78zm1.77 1.78h1.77v1.77h-1.77zm7.08 7.1h1.78v1.76h-1.78zM-26.57 178.94h1.77v1.77h-1.78zM-92.14 225h1.78v1.77h-1.78z" transform="matrix(1.28 0 0 1.2 211.45 -5.633)"/><path fill="#fff" d="M122.9 231.3h-6.68v-4.16h4.46v-3.92h4.46v-3.6h4.45v4.5c-3.7 0-6.7 3.05-6.7 7.2z"/><path fill="#faae29" d="M136.27 231.3h6.7v-4.16h-4.47v-3.92h-4.45v-3.6h-4.46v4.5c3.68 0 6.67 3.05 6.67 7.2z"/><path fill="#fff" d="M136.27 231.3h6.7v4.2h-4.47v3.9h-4.45v3.6h-4.46v-4.5c3.68 0 6.67-3.04 6.67-7.2z"/><path fill="#faae29" d="M122.9 231.3h-6.68v4.2h4.46v3.9h4.46v3.6h4.45v-4.5c-3.7 0-6.7-3.04-6.7-7.2z"/><path fill="#28ae66" d="M136.27 231.32h-6.68v-7.2c3.68 0 6.67 3.23 6.67 7.2z"/><path fill="#ca3745" d="M136.27 231.3h-6.68v7.2c3.68 0 6.67-3.22 6.67-7.2z"/><path fill="#28ae66" d="M122.9 231.3h6.7v7.2c-3.7 0-6.7-3.22-6.7-7.2z"/><path fill="#ca3745" d="M122.9 231.32h6.7v-7.2c-3.7 0-6.7 3.23-6.7 7.2z"/><path fill="#28ae66" d="M136.63 257.88l-6.8-4.26-6.8 4.25-6.8-4.25-6.8 4.25v-2.12l4.52-2.12-2.26-2.13v-2.13h2.25l2.27 2.13 2.27-2.13h2.26v2.13l-2.27 2.13 4.52 2.12 4.54-2.13-2.27-2.12v-2.13h2.26l2.27 2.13 2.26-2.13h2.26v2.13l-2.27 2.13 4.53 2.12 4.53-2.12-2.26-2.13v-2.13h2.26l2.27 2.13 2.27-2.13h2.26v2.13l-2.26 2.13 4.53 2.12v2.13l-6.8-4.25-6.8 4.25zm0-53.12l-6.8 4.25-6.8-4.24-6.8 4.25-6.8-4.24v2.12l4.52 2.13-2.26 2.13v2.13h2.25l2.27-2.13 2.27 2.13h2.26v-2.13L118.5 209l4.52-2.12 4.54 2.13-2.27 2.13v2.13h2.26l2.27-2.13 2.26 2.13h2.26v-2.13L132.1 209l4.53-2.12 4.53 2.13-2.26 2.13v2.13h2.26l2.27-2.13 2.27 2.13h2.26v-2.13L145.7 209l4.53-2.12v-2.12l-6.8 4.25-6.8-4.24zm24.93 31.87l-3.4-5.32 3.4-5.3-3.4-5.3 3.4-5.32h-1.7l-1.7 3.54-1.7-1.77h-1.7v1.77l1.7 1.77-1.7 1.76v1.77h1.7l1.7-1.77 1.7 3.54-1.7 3.54-1.7-1.77h-1.7v1.77l1.7 1.77-1.7 1.78v1.77h1.7l1.7-1.77 1.7 3.55-1.7 3.54-1.7-1.77h-1.7v1.77l1.7 1.77-1.7 1.77v1.78h1.7l1.7-1.77 1.7 3.55h1.7l-3.4-5.3 3.4-5.32z"/><path fill="#28ae66" stroke="#000" stroke-width=".427" d="M-100.98 177.17l-7.1 7.1v26.56l7.1 7.1h31.9l7.08-7.1v-26.57l-7.1-7.1h-31.88zm-1.77-5.32l-17.72 17.72v15.95l17.72 17.7h35.43l17.72-17.7v-15.95l-17.72-17.72h-35.43z" transform="matrix(1.28 0 0 1.2 238.66 -5.632)"/><path fill="#faae29" stroke="#000" stroke-width=".267" d="M-93.9 147.05l3.55 5.32 3.54-5.32h-7.1z" transform="matrix(1.024 0 0 .8 215.078 140.295)"/><path fill="#faae29" stroke="#000" stroke-width=".267" d="M-93.9 147.05l3.55 5.32 3.54-5.32h-7.1z" transform="matrix(1.024 0 0 -.8 215.078 322.344)"/><path fill="#faae29" stroke="#000" stroke-width=".267" d="M-93.9 147.05l3.55 5.32 3.54-5.32h-7.1z" transform="matrix(1.024 0 0 -.8 229.59 322.344)"/><path fill="#faae29" stroke="#000" stroke-width=".267" d="M-93.9 147.05l3.55 5.32 3.54-5.32h-7.1z" transform="matrix(1.024 0 0 .8 229.59 140.295)"/><path fill="#ca3745" stroke="#000" stroke-width=".267" d="M-93.9 147.05l3.55 5.32 3.54-5.32h-7.1z" transform="matrix(1.024 0 0 -.8 207.823 322.344)"/><path fill="#ca3745" stroke="#000" stroke-width=".267" d="M-93.9 147.05l3.55 5.32 3.54-5.32h-7.1z" transform="matrix(1.024 0 0 -.8 222.334 322.344)"/><path fill="#ca3745" stroke="#000" stroke-width=".267" d="M-93.9 147.05l3.55 5.32 3.54-5.32h-7.1z" transform="matrix(1.024 0 0 -.8 236.845 322.344)"/><path fill="#ca3745" stroke="#000" stroke-width=".267" d="M-104.53 180.7l3.54-3.53h-3.53v3.54z" transform="matrix(1.92 0 0 -1.799 303.262 576.628)"/><path fill="#28ae66" d="M98.08 236.63l3.4-5.32-3.4-5.3 3.4-5.3-3.4-5.32h1.7l1.7 3.54 1.7-1.77h1.7v1.77l-1.7 1.77 1.7 1.76v1.77h-1.7l-1.7-1.77-1.7 3.54 1.7 3.54 1.7-1.77h1.7v1.77l-1.7 1.77 1.7 1.78v1.77h-1.7l-1.7-1.77-1.7 3.55 1.7 3.54 1.7-1.77h1.7v1.77l-1.7 1.77 1.7 1.77v1.78h-1.7l-1.7-1.77-1.7 3.55h-1.7l3.4-5.3-3.4-5.32z"/><path fill="#ca3745" stroke="#000" stroke-width=".267" d="M-76.18 154.13h7.1l1.76 1.77-1.77 1.77h-7.08v-3.54z" transform="matrix(1.28 0 0 1.08 261.333 59.18)"/><path fill="#ca3745" stroke="#000" stroke-width=".4" d="M-99.2 180.7l-3.56 3.55v26.58l3.55 3.54h-5.33V180.7h5.32z" transform="matrix(1.28 0 0 1.2 229.59 -5.632)"/><path fill="#ca3745" stroke="#000" stroke-width=".267" d="M-93.9 147.05l3.55 5.32 3.54-5.32h-7.1z" transform="matrix(1.024 0 0 .8 207.823 140.295)"/><path fill="#ca3745" stroke="#000" stroke-width=".267" d="M-93.9 147.05l3.55 5.32 3.54-5.32h-7.1z" transform="matrix(1.024 0 0 .8 222.334 140.295)"/><path fill="#ca3745" stroke="#000" stroke-width=".267" d="M-93.9 147.05l3.55 5.32 3.54-5.32h-7.1z" transform="matrix(1.024 0 0 .8 236.845 140.295)"/><path fill="#ca3745" stroke="#000" stroke-width=".4" d="M-99.2 180.7l-3.56 3.55v26.58l3.55 3.54h-5.33V180.7h5.32z" transform="matrix(-1.28 0 0 1.2 30.065 -5.632)"/><path fill="#ca3745" stroke="#000" stroke-width=".267" d="M-104.53 180.7l3.54-3.53h-3.53v3.54z" transform="matrix(-1.92 0 0 -1.799 -43.617 576.628)"/><path fill="#ca3745" stroke="#000" stroke-width=".267" d="M-104.53 180.7l3.54-3.53h-3.53v3.54z" transform="matrix(-1.92 0 0 1.799 -43.617 -113.993)"/><path fill="#ca3745" stroke="#000" stroke-width=".267" d="M-104.53 180.7l3.54-3.53h-3.53v3.54z" transform="matrix(1.92 0 0 1.799 303.262 -113.993)"/><path fill="#28ae66" stroke="#000" stroke-width=".427" d="M-100.98 177.17l-7.1 7.1v26.56l7.1 7.1h31.9l7.08-7.1v-26.57l-7.1-7.1h-31.88zm0-1.77l-8.86 8.85v26.58l8.86 8.86h31.9l8.85-8.87v-26.58l-8.86-8.85h-31.88z" transform="matrix(1.28 0 0 1.2 238.66 -5.632)"/><path fill="#faae29" stroke="#000" stroke-width=".267" d="M-76.18 154.13h7.1l1.76 1.77-1.77 1.77h-7.08v-3.54z" transform="matrix(1.28 0 0 1.08 261.332 62.992)"/><path fill="#ca3745" stroke="#000" stroke-width=".267" d="M-76.18 154.13h7.1l1.76 1.77-1.77 1.77h-7.08v-3.54z" transform="matrix(1.28 0 0 1.08 261.333 66.83)"/><path fill="#faae29" stroke="#000" stroke-width=".267" d="M-76.18 154.13h7.1l1.76 1.77-1.77 1.77h-7.08v-3.54z" transform="matrix(1.28 0 0 1.08 261.333 70.642)"/><path fill="#faae29" stroke="#000" stroke-width=".267" d="M-76.18 154.13h7.1l1.76 1.77-1.77 1.77h-7.08v-3.54z" transform="matrix(1.28 0 0 1.08 261.333 55.341)"/><path fill="#ca3745" stroke="#000" stroke-width=".267" d="M-76.18 154.13h7.1l1.76 1.77-1.77 1.77h-7.08v-3.54z" transform="matrix(-1.28 0 0 1.08 -1.682 59.18)"/><path fill="#faae29" stroke="#000" stroke-width=".267" d="M-76.18 154.13h7.1l1.76 1.77-1.77 1.77h-7.08v-3.54z" transform="matrix(-1.28 0 0 1.08 -1.682 62.993)"/><path fill="#ca3745" stroke="#000" stroke-width=".267" d="M-76.18 154.13h7.1l1.76 1.77-1.77 1.77h-7.08v-3.54z" transform="matrix(-1.28 0 0 1.08 -1.682 66.83)"/><path fill="#faae29" stroke="#000" stroke-width=".267" d="M-76.18 154.13h7.1l1.76 1.77-1.77 1.77h-7.08v-3.54z" transform="matrix(-1.28 0 0 1.08 -1.682 70.643)"/><path fill="#faae29" stroke="#000" stroke-width=".267" d="M-76.18 154.13h7.1l1.76 1.77-1.77 1.77h-7.08v-3.54z" transform="matrix(-1.28 0 0 1.08 -1.682 55.343)"/><path fill="#970000" stroke="#000" stroke-width=".267" d="M-100.98 178.94v37.2h8.86V225h56.7v-8.86h8.85v-37.2h-8.86v-8.86h-56.7v8.86h-8.85zm1.77 1.77v33.67h8.85v8.86h53.15v-8.86h8.86V180.7h-8.86v-8.85h-53.15v8.86h-8.86z" transform="matrix(1.28 0 0 1.2 211.45 -5.633)"/><path fill="#ca3745" stroke="#000" stroke-width=".267" d="M-28.35 69.1l-5.3-7.1v-5.3L-39 51.37H-49.6l-8.86-5.32h-28.35l-8.87 5.32h-10.63l-5.32 5.3v5.33l-5.3 7.1v14.17l5.3 7.08v5.32l5.32 5.3h10.63l8.86 5.33h28.33l8.86-5.32H-39l5.32-5.3v-5.33l5.3-7.08V69.1z" transform="matrix(1.28 0 0 1.153 222.785 -36.677)"/><path fill="#faae29" d="M75.43 51.2v6.13l6.8 8.17v6.13l6.8 6.13h13.6l11.34 6.13h15.87V51.2h-54.4z"/><path fill="#ca3745" d="M110.7 65.5l-8.3 5.25h-4.94l1.65 1.75-3.3 3.5 1.66 1.76L102.4 76l1.66 1.76.76-4.68 9.13-5.54-3.26-2.04zM101.63 61.4l-8.3 5.27H88.4l1.65 1.75-3.3 3.5 1.65 1.75 4.94-1.75L95 73.67l.75-4.68 9.14-5.55-3.28-2.04zm-4.54-8.16l-8.3 5.26h-4.94l1.65 1.75-3.3 3.5 1.66 1.75 4.95-1.75 1.66 1.75.76-4.68 9.13-5.54-3.26-2.04z"/><path fill="#faae29" d="M184.22 51.2v-6.13l-6.8-8.18v-6.14l-6.8-6.13h-13.6l-11.34-6.13H129.8v32.7h54.42z"/><path fill="#ca3745" d="M129.83 83.9h-4.2l-4.87-4.1h-7.72l-4.2-2.04 2.1-2.04 4.2 2.04h4.2l4.2-6.13 6.3 2.05v4.08h-6.3l6.3 6.13z"/><path fill="#fff" d="M75.43 51.2v-6.13l6.8-8.18v-6.14l6.8-6.13h13.6l11.34-6.13h15.87v32.7h-54.4z"/><path fill="#ca3745" d="M129.83 18.5h-4.2l-4.87 4.1h-7.72l-4.2 2.03 2.1 2.04 4.2-2.04h4.2l4.2 6.13 6.3-2.04v-4.1h-6.3l6.3-6.12zM129.83 18.5h4.2l4.87 4.1h7.72l4.2 2.03-2.1 2.04-4.2-2.04h-4.2l-4.2 6.13-6.3-2.04v-4.1h6.3l-6.3-6.12z"/><path fill="#fff" d="M184.22 51.2v6.13l-6.8 8.17v6.13l-6.8 6.13h-13.6l-11.34 6.13H129.8V51.2h54.42z"/><path fill="#ca3745" d="M129.83 83.9h4.2l4.87-4.1h7.72l4.2-2.04-2.1-2.04-4.2 2.04h-4.2l-4.2-6.13-6.3 2.05v4.08h6.3l-6.3 6.13zm-28.2-42.92l-8.3-5.26H88.4l1.65-1.75-3.3-3.5 1.65-1.75 4.94 1.75L95 28.72l.75 4.68 9.14 5.54-3.28 2.04zm47.33-4.08l8.28-5.26h4.95l-1.66-1.75 3.3-3.5-1.65-1.77-4.96 1.76-1.65-1.77-.77 4.68-9.13 5.55 3.26 2.05zM110.7 36.9l-8.3-5.26h-4.94l1.65-1.75-3.3-3.5 1.66-1.77 4.95 1.76 1.66-1.77.76 4.68 9.13 5.55-3.26 2.04zM97.1 49.16l-8.3-5.26h-4.94l1.65-1.75-3.3-3.5 1.66-1.76 4.95 1.75 1.66-1.76.76 4.67 9.13 5.54-3.26 2.06z"/><path fill="#fff" d="M79.45 51.2h2.1l2.1 2.05 2.1-2.04h44.1v28.62h-2.1l2.1 2.04v2.05l-6.3-6.12v-2.05h2.1v2.05h2.1v-2.05l-17.06-9.02H96.32v-8.85l-6.38-4.6h-4.2l-2.1 2.05 2.1 2.04h-2.1l-4.2-6.13z"/><path fill="#faae29" d="M79.45 51.2h2.1l2.1-2.06 2.1 2.05h44.1V22.57h-2.1l2.1-2.05V18.5l-6.3 6.12v2.04h2.1v-2.04h2.1v2.04l-17.06 9.03H96.32v8.85l-6.38 4.6h-4.2l-2.1-2.05 2.1-2.04h-2.1l-4.2 6.13z"/><path fill="#28ae66" d="M89.03 51.2h40.8v24.5L111.7 65.5H98.1V57.3l-9.07-6.13z"/><path fill="#ca3745" d="M158.03 40.98l8.28-5.26h4.95l-1.65-1.75 3.3-3.5-1.65-1.75-4.94 1.75-1.64-1.75-.76 4.68-9.14 5.54 3.27 2.04zm4.53 8.18l8.3-5.26h4.93l-1.66-1.75 3.3-3.5-1.65-1.76-4.95 1.75-1.65-1.76-.76 4.68-9.14 5.54 3.26 2.04z"/><path fill="#fff" d="M180.2 51.2h-2.1l-2.1-2.06-2.1 2.05h-44.1V22.57h2.1l-2.1-2.05V18.5l6.3 6.12v2.04H134v-2.04h-2.1v2.04l17.06 9.03h14.36v8.85l6.38 4.6h4.2l2.1-2.05-2.1-2.04h2.1l4.2 6.13z"/><path fill="#28ae66" d="M170.63 51.2h-40.8V26.7l18.12 10.2h13.6v8.18l9.08 6.13z"/><path fill="#ca3745" d="M148.96 65.5l8.28 5.25h4.95l-1.66 1.75 3.3 3.5-1.65 1.76-4.96-1.75-1.65 1.76-.77-4.68-9.13-5.54 3.26-2.04zM158.03 61.4l8.28 5.27h4.95l-1.65 1.75 3.3 3.5-1.65 1.75-4.94-1.75-1.64 1.75-.76-4.68-9.14-5.55 3.27-2.04zm4.53-8.16l8.3 5.26h4.93l-1.66 1.75 3.3 3.5-1.65 1.75-4.95-1.75-1.65 1.75-.76-4.68-9.14-5.54 3.26-2.04z"/><path fill="#faae29" d="M180.2 51.2h-2.1l-2.1 2.05-2.1-2.04h-44.1v28.62h2.1l-2.1 2.04v2.05l6.3-6.12v-2.05H134v2.05h-2.1v-2.05l17.06-9.02h14.36v-8.85l6.38-4.6h4.2l2.1 2.05-2.1 2.04h2.1l4.2-6.13z"/><path fill="#ca3745" d="M170.63 51.2h-40.8v24.5l18.12-10.2h13.6V57.3l9.08-6.13zM89.03 51.2h40.8V26.7L111.7 36.9H98.1v8.18l-9.07 6.13zM134.3 51.2l11.4-6.13h6.8l-2.27-2.05 4.53-4.08-2.26-2.05-6.8 2.04-2.27-2.05-1.05 5.45-12.56 6.47 4.5 2.38zm-8.95 0l-11.4 6.12h-6.8l2.27 2.04-4.53 4.1 2.26 2.03 6.8-2.05 2.27 2.04 1.04-5.47 12.56-6.46-4.48-2.38z"/><path fill="#28ae66" d="M125.35 51.2l-11.4-6.13h-6.8l2.27-2.05-4.53-4.08 2.26-2.05 6.8 2.04 2.27-2.05 1.04 5.45 12.56 6.47-4.48 2.38zm8.96 0l11.4 6.12h6.8l-2.27 2.04 4.53 4.1-2.26 2.03-6.8-2.05-2.27 2.04-1.05-5.47-12.56-6.46 4.5-2.38z"/><path fill="#fff" d="M116.22 51.2l13.6-10.22 13.6 10.22-13.6 10.22-13.6-10.22z"/><path fill="#ca3745" d="M85.74 55.28l2.1 2.04-2.1 2.05h-2.1l-6.3-8.18h2.1l4.2 6.12h2.1l-2.1-2.04 2.1-2.04h4.2v2.04h-4.2zM85.74 47.1l2.1-2.03-2.1-2.05h-2.1l-6.3 8.18h2.1l4.2-6.13h2.1l-2.1 2.04 2.1 2.05h4.2V47.1h-4.2zm88.17 8.18l-2.1 2.05 2.1 2.04h2.1l6.3-8.17h-2.1l-4.2 6.12h-2.1l2.1-2.04-2.1-2.04h-4.2v2.04h4.2zM173.9 47.1l-2.1-2.03 2.1-2.05h2.1l6.3 8.18h-2.1l-4.2-6.13h-2.1l2.1 2.04-2.1 2.05h-4.2V47.1h4.2zm-46.17-4.08h4.2v16.35h-4.2zM121.43 47.1h16.8v8.18h-16.8z"/><path fill="#28ae66" stroke="#000" stroke-width=".07" d="M333.07 170.08l-10.63 5.32v8.85l10.63 5.32h10.63l10.63-5.32v-8.85l-10.63-5.32h-10.63z" transform="matrix(3.555 0 0 3.847 -1073.157 -292.234)"/><path fill="#c00" d="M87.17 396.27h2.28v-4.2h4.58v4.2h2.28v-9.78h-2.27v4.18h-4.58v-4.2h-2.28v9.8zm57.9 32.6h2.3v-4.2h4.56v4.2h2.28v-9.78h-2.27v4.18h-4.58v-4.2h-2.28v9.8zm-36.57-48.9h2.3v-4.2h4.56v4.2h2.28v-9.77h-2.28v4.2h-4.57v-4.2h-2.3v9.77zm33.52 0h2.3v-4.2h4.56v4.2h2.3v-9.77h-2.3v4.2h-4.57v-4.2h-2.28v9.77zm21.33 16.3h2.28v-4.2h4.58v4.2h2.3v-9.78h-2.3v4.18h-4.57v-4.2h-2.28v9.8zm0 16.3h2.28v-4.2h4.58v4.2h2.3v-9.78h-2.3v4.18h-4.57v-4.2h-2.28v9.8z"/><path fill="#faae29" d="M129.83 435.4v-35.87h54.85v16.3L148.1 435.4h-18.27zm0-71.73v35.86H74.97v-16.3l36.57-19.56h18.3z"/><path fill="#fff" d="M129.83 363.67v35.86h54.85v-16.3l-36.57-19.56h-18.27zm0 71.72v-35.86H74.97v16.3l36.57 19.55h18.3z"/><path fill="#faae29" stroke="#000" stroke-width=".133" d="M-177.16 368.5h21.26l-21.26-10.63v10.63zm24.8-1.77v17.7h-33.66v-14.16h-7.08l-8.86-5.3v-12.42l5.3-5.3h-7.08v17.7h-1.77v-19.48h17.7l35.44 21.26z" transform="matrix(1.032 0 0 .92 341.934 45.873)"/><path fill="#ca3745" d="M111.5 388.12v22.8h5.5l12.8 6.53 12.8-6.52h5.48v-22.8h-5.48l-12.8-6.53-12.8 6.52h-5.5z"/><path fill="#faae29" stroke="#000" stroke-width=".133" d="M-177.16 368.5h21.26l-21.26-10.63v10.63zm24.8-1.77v17.7h-33.66v-14.16h-7.08l-8.86-5.3v-12.42l5.3-5.3h-7.08v17.7h-1.77v-19.48h17.7l35.44 21.26z" transform="matrix(-1.032 0 0 -.92 -82.279 753.19)"/><path fill="#fff" stroke="#000" stroke-width=".133" d="M-177.16 368.5h21.26l-21.26-10.63v10.63zm24.8-1.77v17.7h-33.66v-14.16h-7.08l-8.86-5.3v-12.42l5.3-5.3h-7.08v17.7h-1.77v-19.48h17.7l35.44 21.26z" transform="matrix(-1.032 0 0 .92 -82.279 45.873)"/><path fill="#fff" stroke="#000" stroke-width=".133" d="M-177.16 368.5h21.26l-21.26-10.63v10.63zm24.8-1.77v17.7h-33.66v-14.16h-7.08l-8.86-5.3v-12.42l5.3-5.3h-7.08v17.7h-1.77v-19.48h17.7l35.44 21.26z" transform="matrix(1.032 0 0 -.92 341.935 753.19)"/><path fill="#ca3745" d="M85.95 412.58h2.3v-4.9h4.56v4.9h2.3v-11.4h-2.3v4.88h-4.56v-4.9h-2.3v11.42zm21.93 16.3h2.3v-4.9h4.56v4.9h2.3v-11.4h-2.3v4.88h-4.57v-4.9h-2.3v11.42zM85.95 386.5h2.3v4.9h4.56v-4.9h2.3v11.4h-2.3v-4.88h-4.56v4.9h-2.3V386.5zm21.93-16.3h2.3v4.9h4.56v-4.9h2.3v11.4h-2.3v-4.88h-4.57v4.9h-2.3V370.2zm34.75 58.68h2.3v-4.9h4.56v4.9h2.28v-11.4h-2.3v4.88h-4.56v-4.9h-2.3v11.42zm21.95-30.98h2.28V393h4.57v4.9h2.3v-11.4h-2.3v4.88h-4.57v-4.9h-2.28v11.42zM142.63 428.88h2.3v-4.9h4.56v4.9h2.28v-11.4h-2.3v4.88h-4.56v-4.9h-2.3v11.42zM142.63 428.88h2.3v-4.9h4.56v4.9h2.28v-11.4h-2.3v4.88h-4.56v-4.9h-2.3v11.42zm21.95-16.3h2.28v-4.9h4.57v4.9h2.3v-11.42h-2.3v4.9h-4.57v-4.9h-2.28v11.4zm-21.95-30.98h2.3v-4.9h4.56v4.9h2.28v-11.4h-2.3v4.9h-4.56v-4.9h-2.3v11.4z"/><path fill="#fff" d="M131.66 399.53l7.3-5.94h3.67v2.96h-3.66v1.48h5.5v-5.94h-5.5v-4.45h-7.3v4.45h1.82v-2.97h3.64v2.97l-7.3 5.94-7.32-5.94v-2.97h3.65v2.97H128v-4.45h-7.3v4.45h-5.5v5.95h5.5v-1.5h-3.67v-2.96h3.66l7.3 5.93-7.3 5.94h-3.67v-2.97h3.66v-1.48h-5.5v5.94h5.5v4.45l7.3.02v-4.46h-1.83v2.97h-3.66v-2.97l7.33-5.94 7.3 5.94v2.97h-3.64v-2.97h-1.84v4.46h7.3v-4.46h5.5v-5.94h-5.5v1.48h3.67v2.97h-3.66l-7.3-5.94z"/><g transform="matrix(1.032 0 0 .958 204.8 18.155)"><path fill="#ca3745" d="M-122.35 134.28l3.43-3.73h20.57l15.43-16.78h20.58l15.43 16.8h20.56l3.43 3.7-3.44 3.74H-46.9l-15.44 16.8h-20.58L-98.35 138h-20.57l-3.43-3.7z"/><path fill="#ca3745" stroke="#000" stroke-width=".29" d="M372.05 391.54l1.9-1.95h22.84l17.1-19.5h19.04l17.13 19.5h22.83l1.9 1.94-1.9 1.95h-22.83l-15.23 17.53H412l-15.2-17.54h-22.85l-1.9-1.96z" transform="matrix(.931 0 0 .909 -466.86 -221.29)"/><path fill="#faae29" d="M-64.07 136.15l6.86 7.46-3.44 3.74-1.72-1.87h-1.7v1.87l1.7 1.86h3.43l3.43-3.73v-3.73l-6.86-7.46 6.86-7.46v-3.73l-3.43-3.74h-3.43l-1.7 1.87v1.86h1.7l1.72-1.87 3.43 3.73-6.87 7.46-6.86-7.46 6.86-7.46v-1.86h-1.72l-6.84 7.45-6.86-7.47h-1.72v1.87l6.86 7.46-6.86 7.46-6.85-7.46 3.42-3.73 1.72 1.86h1.7v-1.87l-1.7-1.87h-3.43l-3.43 3.73v3.72l6.87 7.46-6.86 7.46v3.73l3.44 3.73h3.43l1.7-1.86v-1.87h-1.7l-1.72 1.87-3.42-3.73 6.85-7.45 6.86 7.46-6.86 7.47v1.86h1.72l6.86-7.46 6.85 7.46h1.73v-1.86l-6.86-7.46 6.86-7.45zm-8.57-9.33l-6.86 7.46 6.86 7.46 6.85-7.46-6.84-7.46zm-10.28 27.97v14.9l1.72-1.86 1.7 1.87 1.73-1.86 1.7 1.87 1.73-1.86 1.7 1.87 1.73-1.86 1.7 1.87 1.7-1.86 1.73 1.87 1.7-1.86 1.73 1.87v-14.9h-20.58zm20.57-41V98.86l-1.72 1.87-1.7-1.87-1.73 1.87-1.7-1.87-1.73 1.87-1.7-1.87-1.73 1.87-1.7-1.87-1.72 1.87-1.72-1.87-1.7 1.87-1.73-1.87v14.92h20.58zm29.14 16.78v-14.92l-1.72 1.87-1.7-1.87-1.73 1.87-1.7-1.87-1.73 1.87-1.7-1.87-1.73 1.87-1.72-1.87v14.92h13.7zm-65.16 0v-14.92l-1.7 1.87-1.72-1.87-1.72 1.87-1.7-1.87-1.73 1.87-1.7-1.87-1.73 1.87-1.7-1.87v14.92h13.7zM-33.2 138v14.93l-1.72-1.87-1.7 1.87-1.73-1.87-1.7 1.87-1.73-1.87-1.7 1.87-1.73-1.87-1.72 1.87V138h13.7zm-65.16 0v14.93l-1.7-1.87-1.72 1.87-1.72-1.87-1.7 1.87-1.73-1.87-1.7 1.87-1.73-1.87-1.7 1.87V138h13.7z"/><path fill="#28ae66" d="M-62.35 154.8v9.3l1.72-1.85 1.7 1.86 1.73-1.85 1.7 1.86 1.72-1.85 1.72 1.86 1.7-1.85 1.73 1.86 1.7-1.85V138l-15.42 16.8zm-20.58 0v9.3l-1.72-1.85-1.7 1.86-1.73-1.85-1.7 1.86-1.73-1.85-1.72 1.86-1.72-1.85-1.7 1.86-1.72-1.85V138l15.43 16.8zm0-41v-9.33l-1.72 1.86-1.7-1.86-1.73 1.86-1.7-1.86-1.72 1.86-1.72-1.86-1.7 1.86-1.73-1.86-1.7 1.86v24.24l15.42-16.78zm20.58 0v-9.33l1.72 1.86 1.7-1.86 1.73 1.86 1.7-1.86 1.73 1.86 1.7-1.86 1.72 1.86 1.72-1.86 1.7 1.86v24.24l-15.42-16.78zm-49.73 35.4l-1.7-1.86-1.73 1.87-1.72-1.86-1.72 1.87-1.7-1.86-1.73 1.87-1.7-1.86-1.72 1.87v-29.83l1.72 1.86 1.7-1.86 1.73 1.86 1.7-1.86 1.73 1.86 1.7-1.86 1.73 1.86 1.72-1.86v11.2h-6.86l-3.43 3.72 3.43 3.72h6.86v11.2zm78.88 0l1.7-1.86 1.73 1.87 1.7-1.86 1.73 1.87 1.7-1.86 1.73 1.87 1.7-1.86 1.7 1.87v-29.83l-1.7 1.86-1.7-1.86-1.73 1.86-1.7-1.86-1.73 1.86-1.7-1.86-1.73 1.86-1.7-1.86v11.2h6.86l3.43 3.72-3.44 3.72h-6.86v11.2z"/><path fill="#fff" d="M-91.36 155.98s-1.43 1.47-1.43 2.2c-.02.7 1.54 2.24 2.16 2.22.8.02 2.14-1.47 2.14-2.2 0-.75-1.43-2.22-1.43-2.22v-2.95s3.1 5.07 3.1 2.86c0-1.6-3.1-4.34-3.1-4.34h-1.43s-3.1 3.2-3.1 4.33c0 2.2 3.1-2.87 3.1-2.87v2.95z"/><path fill="#ca3745" d="M-73.5 161.67s-1.7 2.06-1.7 3.1c-.05.96 1.82 3.1 2.56 3.1.97 0 2.57-2.07 2.57-3.1s-1.7-3.1-1.7-3.1v-4.13s3.02 6.75 3.02 3.66c0-2-3.03-5.72-3.03-5.72h-1.72s-3.5 4.65-3.03 5.72c0 3.1 3.03-3.66 3.03-3.66v4.13z"/><ellipse cx="403.94" cy="391.54" fill="#28ae66" transform="matrix(.968 0 0 1.053 -482.4 -277.85)" rx="3.543" ry="1.772"/><ellipse cx="403.94" cy="391.54" fill="#28ae66" transform="matrix(.968 0 0 1.053 -463.54 -277.85)" rx="3.543" ry="1.772"/><ellipse cx="403.94" cy="391.54" fill="#28ae66" transform="matrix(.968 0 0 1.053 -444.69 -277.85)" rx="3.543" ry="1.772"/><path fill="#fff" d="M-91.72 112.76s-1.43-1.47-1.43-2.2c-.03-.7 1.53-2.24 2.15-2.22.8-.02 2.14 1.47 2.14 2.2 0 .75-1.43 2.22-1.43 2.22v2.95s3.1-5.06 3.1-2.85c0 1.6-3.1 4.33-3.1 4.33h-1.42s-3.1-3.2-3.1-4.33c0-2.2 3.1 2.86 3.1 2.86v-2.94z"/><path fill="#ca3745" d="M-73.86 107.06s-1.7-2.06-1.7-3.1c-.05-.95 1.82-3.1 2.56-3.1.97 0 2.57 2.08 2.57 3.1s-1.7 3.1-1.7 3.1v4.13s3.02-6.76 3.02-3.67c0 2-3.04 5.72-3.04 5.72h-1.72s-3.5-4.65-3.03-5.72c0-3.1 3.04 3.66 3.04 3.66v-4.14z"/><path fill="#fff" d="M-54.86 155.98s-1.43 1.47-1.43 2.2c-.02.7 1.54 2.24 2.16 2.22.8.02 2.14-1.47 2.14-2.2 0-.75-1.43-2.22-1.43-2.22v-2.95s3.1 5.07 3.1 2.86c0-1.6-3.1-4.34-3.1-4.34h-1.43s-3.1 3.2-3.1 4.33c0 2.2 3.1-2.87 3.1-2.87v2.95zm-.36-43.22s-1.43-1.47-1.43-2.2c-.03-.7 1.53-2.24 2.15-2.22.8-.02 2.14 1.47 2.14 2.2 0 .75-1.43 2.22-1.43 2.22v2.95s3.1-5.06 3.1-2.85c0 1.6-3.1 4.33-3.1 4.33h-1.42s-3.1-3.2-3.1-4.33c0-2.2 3.1 2.86 3.1 2.86v-2.94z"/><path fill="#ca3745" d="M-106.27 145.6s-1.9 1.38-1.9 2.07c-.04.64 2.02 2.1 2.85 2.07 1.07.02 2.85-1.38 2.85-2.07 0-.7-1.9-2.08-1.9-2.08v-2.77s3.36 4.52 3.36 2.45c0-1.34-3.37-3.84-3.37-3.84h-1.9s-3.9 3.12-3.37 3.84c0 2.07 3.37-2.45 3.37-2.45v2.76zm-.4-21.13s-1.9-1.38-1.9-2.07c-.04-.65 2.02-2.1 2.85-2.08 1.07 0 2.85 1.4 2.85 2.08 0 .7-1.9 2.07-1.9 2.07v2.77s3.36-4.53 3.36-2.45c0 1.33-3.37 3.82-3.37 3.82h-1.9s-3.9-3.12-3.37-3.83c0-2.1 3.37 2.44 3.37 2.44v-2.77zm66.25 20.68s-1.9 1.38-1.9 2.07c-.04.65 2.02 2.1 2.85 2.08 1.07 0 2.85-1.38 2.85-2.08 0-.7-1.9-2.07-1.9-2.07v-2.76s3.36 4.5 3.36 2.44c0-1.35-3.36-3.84-3.36-3.84h-1.9s-3.9 3.12-3.37 3.83c0 2.08 3.38-2.45 3.38-2.45v2.77zm-.4-21.12s-1.9-1.38-1.9-2.07c-.04-.65 2.02-2.1 2.85-2.08 1.07 0 2.85 1.4 2.85 2.08 0 .7-1.9 2.07-1.9 2.07v2.77s3.36-4.53 3.36-2.45c0 1.34-3.36 3.83-3.36 3.83h-1.9s-3.9-3.12-3.37-3.83c0-2.08 3.38 2.45 3.38 2.45v-2.77z"/><path fill="#fff" d="M-120.28 145.36c-.62-1.27-.46-1.86-.46-2.6-.03-.68 1.72-2.02 2.34-2 .8-.02 2.14 1.47 2.14 2.2 0 .74.04 1.38-.3 2.65l-.9-2.14c-1.07 3.05-1.13 3.12-1.78-.08l-1.05 1.98zm.06-21.43c-.62 1.28-.46 1.86-.46 2.6-.03.7 1.72 2.02 2.34 2 .8.02 2.14-1.47 2.14-2.2 0-.74.04-1.38-.3-2.65l-.9 2.16c-1.07-3.06-1.13-3.13-1.78.07l-1.04-1.97zm92.42 21.16c-.62-1.28-.46-1.87-.46-2.6-.03-.7 1.72-2.03 2.34-2 .8-.03 2.14 1.46 2.14 2.2 0 .73.04 1.37-.3 2.64l-.9-2.15c-1.07 3.04-1.13 3.1-1.78-.1l-1.04 2zm.05-21.44c-.62 1.27-.46 1.86-.46 2.6-.04.68 1.7 2.02 2.33 2 .8.02 2.14-1.47 2.14-2.2 0-.75.04-1.38-.3-2.65l-.9 2.16c-1.07-3.06-1.13-3.13-1.78.07l-1.05-1.98z"/><path fill="#ca3745" stroke="#000" stroke-width=".133" d="M-83.27 170.07v-5.3H-99.2v-10.64h-14.2v-3.54h-12.4v-31.9h12.4v-3.55h14.2v-10.63h15.93v-5.3H-62v5.3h15.94v10.63h14.17v3.55h12.4v31.9h-12.4v3.53h-14.16v10.63H-62v5.3h-21.27zm-1.77 1.78v-5.32H-101V155.9h-14.16v-3.54h-12.4v-35.44h12.4v-3.54H-101v-10.63h15.96v-5.3h24.8v5.3h15.95v10.63h14.18v3.54h12.4v35.44h-12.4v3.54H-44.3v10.63h-15.94v5.32h-24.8z"/></g></g></svg>