<svg xmlns="http://www.w3.org/2000/svg" width="640" height="480"><defs><clipPath id="a"><path fill-opacity=".67" d="M0 0h640v480H0z"/></clipPath></defs><g clip-path="url(#a)"><g fill="#009fca" fill-rule="evenodd" transform="matrix(.645 0 0 .921 0 23.331)"><path d="M505.97-19.8h486.16v515.86H505.97z"/><rect width="523.49" height="521.41" y="-25.343" ry="0"/></g><path fill="#fff" fill-rule="evenodd" d="M.02 0h395.85v196.6H.02z"/><path fill="#c00" d="M.02 0L0 14.76 94.47 63.3 130 64.33.03 0z"/><path fill="#006" d="M40.46 0L155 59.82V0H40.45z"/><path fill="#c00" d="M170.26 0v76.37H.02V120h170.24v76.37h52.38V120H392.9V76.38H222.64V0h-52.4z"/><path fill="#006" d="M237.92 0v56.37L349.97.44 237.92 0z"/><path fill="#c00" d="M241.46 62.5l31.52-.24L395.38.44 362.9.97 241.46 62.5z"/><path fill="#006" d="M.02 132.74v41.82l78.57-41.4L0 132.74z"/><path fill="#c00" d="M302.6 134.46l-32.77-.25L393.3 195.7l-.8-14.06-89.9-47.16zM30.7 196.7l115.78-60.77-30.4.2L0 196.63"/><path fill="#006" d="M394.55 17.27l-93.5 46.37 92.25.34v69.1h-78.57l77.85 42.18 1.14 21.46-41.58-.5-113.8-55.87v56.37H155.4v-56.37L48.65 196.57l-48.2.15V393.1h785.74V.34L395.36 0M.42 22.18L0 62.95 82.72 64 .42 22.16z"/><g fill="#009fca" fill-rule="evenodd" transform="matrix(.792 0 0 .8 .006 0)"><path d="M496.06 0h496.06v496.06H496.06z"/><rect width="525.79" height="251.45" x="-2.303" y="244.61" rx="0" ry="0"/></g><path fill="#fff40d" fill-rule="evenodd" d="M593.34 122.7l27.57-.03-22.3 15.24 8.53 24.68-22.3-15.27-22.28 15.28 8.54-24.67-22.33-15.23 27.57.02 8.5-24.7zm-69.2 196.77l27.57-.02-22.3 15.24 8.53 24.66-22.3-15.27-22.3 15.26 8.56-24.67-22.33-15.25 27.57.02 8.5-24.68zm69.2-44.54l27.57-.02-22.3 15.24 8.53 24.67-22.3-15.26-22.28 15.27 8.54-24.66-22.33-15.24 27.57.03 8.5-24.7zM295.8 417.65l27.56-.02-22.32 15.23 8.54 24.67-22.3-15.27-22.3 15.27 8.56-24.67-22.32-15.24 27.57.03 8.5-24.7zm62.56-76.5l-27.57.03 22.3-15.23-8.53-24.68 22.3 15.27 22.3-15.26-8.56 24.67 22.33 15.24-27.57-.04-8.5 24.68zm81.3-112.43H412.1l22.32-15.22-8.54-24.67 22.3 15.27 22.28-15.27-8.54 24.67 22.3 15.24-27.56-.02-8.5 24.68zM508 205.36h-27.57l22.32-15.22-8.54-24.67 22.3 15.27 22.3-15.27-8.55 24.67 22.32 15.24-27.57-.02-8.5 24.68zm-68.33 194.6l-27.57.03 22.32-15.24-8.54-24.68 22.3 15.27 22.28-15.26-8.54 24.66 22.3 15.24-27.56-.03-8.5 24.7zm-81.3 19.9l-27.58.03 22.3-15.25-8.53-24.67 22.3 15.27 22.3-15.27-8.56 24.67 22.33 15.24-27.57-.03-8.5 24.68z"/></g></svg>