<svg xmlns="http://www.w3.org/2000/svg" width="640" height="480"><defs><clipPath id="a"><path fill-opacity=".67" d="M0 0h682.67v512H0z"/></clipPath></defs><g fill-rule="evenodd" clip-path="url(#a)" transform="scale(.938)"><path fill="#de2110" d="M0 0h768v512H0z"/><path fill="#08399c" d="M0 0h385.7v256H0z"/><path fill="#fff" d="M282.1 178.56l-47.33-9.74 10.08 47.26-36.13-32.1-14.9 45.98-15.25-45.86-35.9 32.36 9.75-47.33-47.26 10.08 32.08-36.12-45.97-14.9 45.86-15.25-32.36-35.9 47.34 9.74-10.07-47.26 36.13 32.1 14.9-45.96L208.3 71.5l35.9-32.37-9.74 47.34 47.26-10.08-32.1 36.12 45.98 14.9-45.86 15.24z"/><path fill="#005387" d="M238.47 174.92l-14.94 7.94-14.57 8.6-16.9-.58-16.93.2-14.36-8.94-14.76-8.28-7.94-14.9-8.64-14.52.58-16.88-.2-16.88 8.98-14.32 8.3-14.72L162 73.7l14.58-8.6 16.92.58 16.93-.2 14.36 8.95 14.73 8.27 7.96 14.9 8.62 14.53-.57 16.87.18 16.88-8.96 14.33z"/><path fill="#fff" d="M244.64 128.28c0 28.65-23.22 51.87-51.87 51.87s-51.87-23.22-51.87-51.87 23.23-51.86 51.87-51.86 51.87 23.22 51.87 51.86z"/></g></svg>