<svg xmlns="http://www.w3.org/2000/svg" width="640" height="480"><defs><clipPath id="a"><path fill-opacity=".67" d="M0 0h682.67v512H0z"/></clipPath></defs><g fill-rule="evenodd" clip-path="url(#a)" transform="scale(.938)"><path fill="#bd3d44" d="M0 0h972.8v39.38H0zm0 78.77h972.8v39.38H0zm0 78.77h972.8v39.38H0zm0 78.77h972.8v39.4H0zm0 78.78h972.8v39.38H0zm0 78.77h972.8v39.38H0zm0 78.77h972.8V512H0z"/><path fill="#fff" d="M0 39.38h972.8v39.4H0zm0 78.77h972.8v39.4H0zm0 78.77h972.8v39.4H0zm0 78.78h972.8v39.38H0zm0 78.77h972.8v39.38H0zm0 78.76h972.8v39.4H0z"/><path fill="#192f5d" d="M0 0h389.12v275.7H0z"/><g fill="#fff"><path d="M32.43 11.8l3.54 10.9h11.46l-9.28 6.73 3.55 10.9-9.27-6.74-9.27 6.73 3.54-10.9-9.27-6.73H28.9zm64.85 0l3.54 10.9h11.46L103 29.43l3.55 10.9-9.27-6.74L88 40.32l3.55-10.9-9.27-6.73h11.46zm64.86 0l3.54 10.9h11.45l-9.27 6.73 3.54 10.9-9.26-6.74-9.27 6.73 3.54-10.9-9.26-6.73h11.46zm64.85 0l3.53 10.9h11.45l-9.26 6.73 3.54 10.9L227 33.6l-9.28 6.73 3.54-10.9L212 22.7h11.45zm64.84 0l3.54 10.9h11.46l-9.27 6.73 3.54 10.9-9.26-6.74-9.27 6.73 3.54-10.9-9.25-6.73h11.45zm64.86 0l3.54 10.9h11.46l-9.27 6.73 3.54 10.9-9.27-6.74-9.27 6.73 3.54-10.9-9.27-6.73h11.46zM64.86 39.37l3.54 10.9h11.45L70.58 57l3.54 10.9-9.27-6.74-9.26 6.74L59.12 57l-9.27-6.73h11.46zm64.85 0l3.55 10.9h11.45L135.44 57l3.54 10.9-9.27-6.74-9.26 6.74 3.54-10.9-9.27-6.73h11.47zm64.86 0l3.54 10.9h11.46L200.3 57l3.53 10.9-9.27-6.74-9.27 6.74 3.53-10.9-9.27-6.73h11.46zm64.86 0l3.54 10.9h11.46L265.14 57l3.55 10.9-9.28-6.74-9.27 6.74L253.7 57l-9.28-6.73h11.46zm64.85 0l3.54 10.9h11.47L330 57l3.54 10.9-9.27-6.74L315 67.9l3.54-10.9-9.27-6.73h11.46zM32.43 66.94l3.54 10.9h11.46l-9.27 6.73 3.54 10.9-9.27-6.74-9.27 6.74 3.54-10.9-9.27-6.74H28.9zm64.85 0l3.54 10.9h11.46L103 84.56l3.55 10.9-9.27-6.74L88 95.47l3.55-10.9-9.27-6.74h11.46zm64.86 0l3.54 10.9h11.45l-9.27 6.73 3.54 10.9-9.26-6.74-9.27 6.74 3.54-10.9-9.26-6.74h11.46zm64.85 0l3.53 10.9H242l-9.28 6.73 3.54 10.9-9.27-6.74-9.28 6.74 3.54-10.9-9.27-6.74h11.45zm64.84 0l3.54 10.9h11.46l-9.27 6.73 3.54 10.9-9.26-6.74-9.27 6.74 3.54-10.9-9.25-6.74h11.45zm64.86 0l3.54 10.9h11.46l-9.27 6.73 3.54 10.9-9.27-6.74-9.27 6.74 3.54-10.9-9.27-6.74h11.46zM64.86 94.5l3.54 10.9h11.45l-9.27 6.74 3.55 10.9-9.27-6.74-9.27 6.74 3.53-10.9-9.27-6.74h11.46zm64.85 0l3.55 10.9h11.45l-9.26 6.74 3.54 10.9-9.27-6.74-9.26 6.74 3.54-10.9-9.27-6.74h11.47zm64.86 0l3.54 10.9h11.46l-9.27 6.74 3.53 10.9-9.27-6.74-9.27 6.74 3.53-10.9-9.27-6.74h11.46zm64.86 0l3.54 10.9h11.46l-9.27 6.74 3.54 10.9-9.28-6.74-9.27 6.74 3.54-10.9-9.28-6.74h11.46zm64.85 0l3.54 10.9h11.47l-9.27 6.74 3.54 10.9-9.27-6.74-9.27 6.74 3.54-10.9-9.27-6.74h11.46zM32.43 122.1l3.54 10.9h11.46l-9.27 6.73 3.54 10.9-9.27-6.73-9.27 6.74 3.54-10.9-9.27-6.73H28.9zm64.85 0l3.54 10.9h11.46L103 139.7l3.55 10.9-9.27-6.73L88 150.6l3.55-10.9-9.27-6.73h11.46zm64.86 0l3.54 10.9h11.45l-9.27 6.73 3.54 10.9-9.26-6.73-9.27 6.74 3.54-10.9-9.26-6.73h11.46zm64.85 0l3.53 10.9H242l-9.28 6.73 3.54 10.9-9.27-6.73-9.28 6.74 3.54-10.9-9.27-6.73h11.45zm64.84 0l3.54 10.9h11.46l-9.27 6.73 3.54 10.9-9.26-6.73-9.27 6.74 3.54-10.9-9.25-6.73h11.45zm64.86 0l3.54 10.9h11.46l-9.27 6.73 3.54 10.9-9.27-6.73-9.27 6.74 3.54-10.9-9.27-6.73h11.46zM64.86 149.65l3.54 10.9h11.45l-9.27 6.73 3.55 10.9-9.27-6.74-9.27 6.73 3.53-10.9-9.27-6.73h11.46zm64.85 0l3.55 10.9h11.45l-9.26 6.73 3.54 10.9-9.27-6.74-9.26 6.73 3.54-10.9-9.27-6.73h11.47zm64.86 0l3.54 10.9h11.46l-9.27 6.73 3.53 10.9-9.27-6.74-9.27 6.73 3.53-10.9-9.27-6.73h11.46zm64.86 0l3.54 10.9h11.46l-9.27 6.73 3.54 10.9-9.28-6.74-9.27 6.73 3.54-10.9-9.28-6.73h11.46zm64.85 0l3.54 10.9h11.47l-9.27 6.73 3.54 10.9-9.27-6.74-9.27 6.73 3.54-10.9-9.27-6.73h11.46zM32.43 177.22l3.54 10.9h11.46l-9.28 6.73 3.55 10.9-9.27-6.74-9.27 6.74 3.54-10.9-9.27-6.73H28.9zm64.85 0l3.54 10.9h11.46l-9.27 6.73 3.55 10.9-9.27-6.74-9.27 6.74 3.55-10.9-9.27-6.73h11.46zm64.86 0l3.54 10.9h11.45l-9.27 6.73 3.54 10.9-9.26-6.74-9.27 6.74 3.54-10.9-9.26-6.73h11.46zm64.85 0l3.53 10.9h11.45l-9.26 6.73 3.54 10.9L227 199l-9.28 6.74 3.54-10.9-9.27-6.73h11.45zm64.84 0l3.54 10.9h11.46l-9.27 6.73 3.54 10.9-9.26-6.74-9.27 6.74 3.54-10.9-9.25-6.73h11.45zm64.86 0l3.54 10.9h11.46l-9.27 6.73 3.54 10.9-9.27-6.74-9.27 6.74 3.54-10.9-9.27-6.73h11.46zM64.86 204.8l3.54 10.88h11.45l-9.27 6.74 3.55 10.9-9.27-6.74-9.27 6.73 3.53-10.88-9.27-6.74h11.46zm64.85 0l3.55 10.88h11.45l-9.26 6.74 3.54 10.9-9.27-6.74-9.26 6.73 3.54-10.88-9.27-6.74h11.47zm64.86 0l3.54 10.88h11.46l-9.27 6.74 3.53 10.9-9.27-6.74-9.27 6.73 3.53-10.88-9.27-6.74h11.46zm64.86 0l3.54 10.88h11.46l-9.27 6.74 3.54 10.9-9.28-6.74-9.27 6.73 3.54-10.88-9.28-6.74h11.46zm64.85 0l3.54 10.88h11.47l-9.27 6.74 3.54 10.9-9.27-6.74-9.27 6.73 3.54-10.88-9.27-6.74h11.46zM32.43 232.36l3.54 10.9h11.46l-9.28 6.73 3.55 10.88-9.27-6.73-9.27 6.73 3.54-10.9-9.27-6.73H28.9zm64.85 0l3.54 10.9h11.46l-9.27 6.73 3.55 10.88-9.27-6.73-9.27 6.73 3.55-10.9-9.27-6.73h11.46zm64.86 0l3.54 10.9h11.45l-9.27 6.73 3.54 10.88-9.26-6.73-9.27 6.73 3.54-10.9-9.26-6.73h11.46zm64.85 0l3.53 10.9h11.45l-9.26 6.73 3.54 10.88-9.27-6.73-9.28 6.73 3.54-10.9-9.27-6.73h11.45zm64.84 0l3.54 10.9h11.46l-9.27 6.73 3.54 10.88-9.26-6.73-9.27 6.73 3.54-10.9-9.25-6.73h11.45zm64.86 0l3.54 10.9h11.46l-9.27 6.73 3.54 10.88-9.27-6.73-9.27 6.73 3.54-10.9-9.27-6.73h11.46z"/></g></g></svg>