<svg xmlns="http://www.w3.org/2000/svg" width="640" height="480" xmlns:xlink="http://www.w3.org/1999/xlink"><path fill="#4b92db" fill-rule="evenodd" d="M0 0h640v480H0z"/><g transform="matrix(.6 0 0 .6 -40.65 0)"><path id="a" fill="#fff" d="M663.85 587.03c-2.7 3.08-6.18 5.96-9.46 8.6-21.25-21.94-46.17-46.25-69.87-46.25-14.7 0-25.27 11.18-37.6 19.07-17.14 10.95-40.64 17.1-60.77 9.08-10.83-4.1-21.32-10.17-29.17-20 15.84 10.92 39.57 12.4 57.47 4.97 19.77-8.2 39.9-19.1 62.44-19.1 33.23 0 64.8 22.47 86.95 43.63zm-245.54-69c22 25.03 57.88 16.97 87.24 23.22 4.1.87 7.93 2.23 12.32 1.56-3.5-2.2-8.12-2.45-12.15-3.97-22.77-8.6-26.33-32.97-38.8-49.75 15.93 10.6 29.12 25.08 44.02 38.7 10.36 9.48 23.27 13.54 36.67 16.26-3.23 1.18-7.44.9-10.9 1.76-24.06 5.97-50.73 15.4-76.33 6.94-16.52-5.45-33.7-18.36-42.06-34.72zm-35.25-57.96c13.72 31.06 48.2 33.5 71.1 52.55 4.37 3.62 8.7 6.96 13.48 9.2l.25-.26c-5.3-4.78-11-10.5-15.1-16.44-13.1-19.03-8.75-45.05-18.85-65.23 9.17 10.98 17.78 22.3 23.07 34.87 8.5 20.25 11.4 43.34 30.46 58.73-20.64-6.8-44.45-5.46-63.04-17.63-19.54-12.8-37.65-33-41.37-55.8zm-14.7-62.85c2 27.37 31.13 42 45.02 64.5 2.97 4.8 6.02 9.75 10.33 13.63-.67-2.9-3.07-5.5-4.4-8.36-4.45-9.66-6.46-20.83-5.35-32.31 1.35-14 7.18-26.97 4.94-41.67 11.97 25.85 8.1 58.16 15.03 86.1 1.53 6.2 5.3 11.6 7.6 17.46-11.75-8.96-27.17-16.9-40.1-27.1-12.48-9.83-23.32-21.37-28.95-36.4-4.06-10.8-5.12-23.7-4.12-35.88zm.82-50.42c1.4-6.1 2.48-12.43 5.14-18.04-5.02 25.82 12.15 44.47 18.02 66.8 2.2 8.42 2.96 17.37 6.37 25.22.3.17.58-.16.77-.4-8.47-23.78 3.95-45.75 16.05-64.5 3.18-4.92 4.7-10.65 6.2-16.45 1.3 10.76-.98 23.22-2.97 34.32-2.57 14.3-7.45 27.7-11.33 41.5-2.56 8.6-1.9 18.33-.57 27.36l-1.24-.97c-9-16.64-26.77-29.63-32.14-47.78-4.3-14.5-7.26-31.27-4.3-47.06zm9.5-27.77c0-19.54 7.6-35.48 19.02-50.03.32-.17.56-.5.98-.42-12.56 19.1-1.12 43.23-2.74 64.9l-1.65 22.25c.23.16.23.83.82.57.74-2.48.96-5.12 1.4-7.68 3.02-17.93 18.77-30.4 32.12-43.07a28.53 28.53 0 0 0 6.96-10.35c-1.1 8.94-3.6 18.1-7.6 26.2-10.3 20.82-30.14 37.62-33.72 61.27-1.73-22.67-15.6-39.52-15.6-63.65zm33.1-65.9c6.33-7 13.4-12.47 21.84-14.63-16.36 11.26-15.47 31.37-20.48 48.2-1.83 6.14-4.52 11.9-5.96 18.25l.42.33c2.72-7.18 7.4-14.1 13.48-19.83 11.5-10.86 28.82-17.43 34.5-33.32-.25 22.08-19.07 38.86-36.25 51.84-7.7 5.82-14.25 13.64-18.25 21.84.67-6.1.97-11.17.43-17.12-1.77-19.3-2.9-40.9 10.3-55.56zM478.22 216c-12.13 10.66-20.24 24.38-29.57 36.7-7.76 10.27-18.4 16.62-27.57 25.23 4.95-10.25 5.86-22 12.14-31.93 10.73-16.96 28.48-23.55 45-30z"/><use width="100%" height="100%" xlink:href="#a" transform="matrix(-1 0 0 1 1202.2 0)"/></g><path fill="#fff" d="M409 262l-2.14-1.17a96.9 96.9 0 0 1-17.84 25.4l-12.57-12.6c6.16-6.34 11.13-13.54 14.8-21.33l-2.16-1.17a76.54 76.54 0 0 1-14.36 20.8l-11.4-11.4a60.04 60.04 0 0 0 11.58-17.14l-2.13-1.17a57.92 57.92 0 0 1-11.16 16.6l-12.6-12.58a39.75 39.75 0 0 0 8.06-12.6l-2.13-1.16a37.62 37.62 0 0 1-7.6 12.05l-11.44-11.42a21.2 21.2 0 0 0 5.4-13.06h16.2a37.28 37.28 0 0 1-2.56 12.42l2.13 1.15a39.82 39.82 0 0 0 2.8-13.58h17.83a57.37 57.37 0 0 1-4.94 22.16l2.12 1.16a59.92 59.92 0 0 0 5.2-23.33h16.13a75.77 75.77 0 0 1-7.16 31.06l2.13 1.17c4.7-9.97 7.24-20.9 7.4-32.23h17.84a95.87 95.87 0 0 1-9.6 40.76L409 262c6.46-13.27 9.88-27.93 9.88-43.12 0-12.92-2.48-25.46-7.18-37.08l-2.2.95c4.42 10.97 6.82 22.77 6.97 34.94h-17.83a78.5 78.5 0 0 0-5.54-27.9l-2.2.93a76.07 76.07 0 0 1 5.35 26.96H380.1a60 60 0 0 0-4.04-20.6l-2.2.95a57.65 57.65 0 0 1 3.87 19.64H359.9a39.87 39.87 0 0 0-2.42-12.6l-2.2.94a37.46 37.46 0 0 1 2.24 11.65h-16.17a21.2 21.2 0 0 0-5.4-13.07l11.42-11.44a37.3 37.3 0 0 1 7.92 12.84l2.18-.94a39.73 39.73 0 0 0-8.42-13.6l12.6-12.6c5.38 5.6 9.5 12.1 12.2 19.15l2.2-.94a59.88 59.88 0 0 0-12.7-19.88l11.4-11.42c7.07 7.3 12.5 15.75 16.15 24.93l2.2-.94c-3.76-9.46-9.37-18.18-16.65-25.68l12.6-12.6c8.92 9.12 15.8 19.72 20.44 31.23l2.2-.95c-4.9-12.15-12.24-23.3-21.78-32.84-9.58-9.58-20.78-16.93-32.98-21.84l-.88 2.24c11.54 4.64 22.16 11.53 31.3 20.46l-12.6 12.6c-7.38-7.14-15.93-12.7-25.2-16.44l-.88 2.2c8.98 3.65 17.25 9.02 24.4 15.95l-11.42 11.42a59.96 59.96 0 0 0-18.88-12.32l-.87 2.2a57.58 57.58 0 0 1 18.08 11.8l-12.6 12.6a39.84 39.84 0 0 0-12-7.8l-.86 2.23a37.42 37.42 0 0 1 11.17 7.26l-11.45 11.44a21.2 21.2 0 0 0-13.06-5.4v-16.18a37.37 37.37 0 0 1 13.32 2.9l.87-2.23a39.8 39.8 0 0 0-14.2-3.05v-17.83a57.58 57.58 0 0 1 20.7 4.27l.88-2.2a59.96 59.96 0 0 0-21.6-4.45v-16.17c9.58.15 18.87 2.06 27.5 5.56l.87-2.23c-8.9-3.6-18.48-5.57-28.36-5.72v-17.83c12.13.15 23.9 2.54 34.86 6.95l.88-2.24c-11.6-4.66-24.07-7.12-36.94-7.12a98.25 98.25 0 0 0-44.24 10.5l1.1 2.08c12.88-6.46 27.14-9.98 41.95-10.16v17.83a78.12 78.12 0 0 0-33.66 8.17l1.08 2.07c10.03-4.97 21.1-7.7 32.6-7.87v16.15a59.74 59.74 0 0 0-25.1 6.05l1.1 2.08a57.47 57.47 0 0 1 24-5.74V179a39.68 39.68 0 0 0-15.73 3.74l1.1 2.1a37.36 37.36 0 0 1 14.6-3.47v16.18a21.32 21.32 0 0 0-7.1 1.64l1.1 2.08a18.98 18.98 0 0 1 7.2-1.4c5.08 0 9.86 1.97 13.45 5.56a18.9 18.9 0 0 1 5.57 13.45c0 10.48-8.53 19-19.02 19a18.9 18.9 0 0 1-13.45-5.56 18.9 18.9 0 0 1-5.57-13.45c0-5.1 1.98-9.87 5.57-13.46a19 19 0 0 1 6.24-4.16l-1.1-2.1a21.38 21.38 0 0 0-5.94 3.78l-11.45-11.44a37.47 37.47 0 0 1 9.9-6.7l-1.1-2.1a40.05 40.05 0 0 0-10.46 7.13l-12.62-12.62a57.76 57.76 0 0 1 14.8-10.32l-1.1-2.08a60.38 60.38 0 0 0-15.36 10.74l-11.44-11.44a76.25 76.25 0 0 1 19.3-13.63l-1.08-2.08a79.02 79.02 0 0 0-19.88 14.05l-12.63-12.64a96.57 96.57 0 0 1 24.22-17.26l-1.1-2.08c-19.24 9.67-34.9 25.44-44.46 44.76l2.06 1.12a96.57 96.57 0 0 1 17.58-24.86l12.64 12.63a78.92 78.92 0 0 0-14.5 20.73l2.08 1.12a76.3 76.3 0 0 1 14.07-20.2l11.44 11.44a60.34 60.34 0 0 0-11.25 16.47l2.07 1.12a57.63 57.63 0 0 1 10.84-15.9l12.62 12.6a40.04 40.04 0 0 0-7.72 11.8l2.08 1.14a37.4 37.4 0 0 1 7.3-11.26l11.45 11.44a21.3 21.3 0 0 0-5.4 13.06h-16.2a37.45 37.45 0 0 1 2.85-13.24l-2.08-1.13a39.7 39.7 0 0 0-3.14 14.37h-17.83a57.47 57.47 0 0 1 5.22-22.88l-2.08-1.1a59.72 59.72 0 0 0-5.53 23.98h-16.16c.17-11.15 2.73-21.9 7.42-31.7l-2.07-1.12a78.13 78.13 0 0 0-7.74 32.82h-17.83c.18-14.57 3.58-28.6 9.83-41.32l-2.07-1.1a98.26 98.26 0 0 0-10.18 43.6 99.2 99.2 0 0 0 3.98 27.88l2.34-.6a96.78 96.78 0 0 1-3.9-26.08h17.82a78.82 78.82 0 0 0 3.38 21.73l2.3-.57a76.43 76.43 0 0 1-3.3-21.15h16.15a60.3 60.3 0 0 0 2.84 17.2l2.32-.6a57.8 57.8 0 0 1-2.8-16.6h17.84a39.94 39.94 0 0 0 2.3 12.25l2.3-.6a37.56 37.56 0 0 1-2.22-11.65h16.18a21.2 21.2 0 0 0 5.4 13.06l-11.43 11.44a37.4 37.4 0 0 1-7.92-12.84l-2.3.6a39.72 39.72 0 0 0 8.55 13.92l-12.6 12.6a57.47 57.47 0 0 1-13.3-22.16l-2.3.58c2.75 8.64 7.46 16.58 13.9 23.28l-11.4 11.42c-8.55-8.8-14.7-19.3-18.2-30.74l-2.3.58c3.58 11.84 9.96 22.73 18.8 31.84l-12.6 12.6c-11.16-11.43-19.13-25.15-23.5-40.08l-2.34.58c4.6 15.73 13.08 30.15 25 42.05 8.05 8.08 17.27 14.57 27.26 19.36l1.2-2.1c-9.47-4.5-18.22-10.58-25.93-18.1l12.6-12.6a78.66 78.66 0 0 0 22.1 15.1l1.2-2.08a76.26 76.26 0 0 1-21.6-14.72l11.4-11.4a59.97 59.97 0 0 0 18.16 12l1.16-2.1a57.6 57.6 0 0 1-17.63-11.6l12.6-12.6a39.7 39.7 0 0 0 13.9 8.53l1.18-2.12a37.37 37.37 0 0 1-13.38-8.1l11.44-11.44a21.18 21.18 0 0 0 13.06 5.4v16.18a37.53 37.53 0 0 1-11.1-2.04l-1.2 2.1a39.84 39.84 0 0 0 12.3 2.32v17.83a57.55 57.55 0 0 1-21.15-4.45l-1.18 2.08a59.9 59.9 0 0 0 22.32 4.76v16.14c-10.63-.16-20.9-2.5-30.3-6.77l-1.18 2.08c9.77 4.46 20.44 6.9 31.48 7.07v17.82c-14.16-.17-27.83-3.38-40.27-9.3l-1.18 2.1c13.14 6.3 27.63 9.6 42.64 9.6 15.75 0 30.9-3.66 44.56-10.57l-1.12-2.2a95.84 95.84 0 0 1-42.24 10.37v-17.83c12.03-.18 23.62-3.06 34.1-8.33l-1.13-2.15a75.74 75.74 0 0 1-32.97 8.1v-16.14c9.03-.16 17.72-2.33 25.6-6.26l-1.1-2.14a57.35 57.35 0 0 1-24.5 6.03V258.8a39.68 39.68 0 0 0 16.32-4.02l-1.1-2.13a37.32 37.32 0 0 1-15.22 3.77v-16.18a21.2 21.2 0 0 0 13.06-5.4l11.42 11.42a37.7 37.7 0 0 1-9.26 6.4l1.1 2.12a39.96 39.96 0 0 0 9.86-6.82l12.58 12.58a57.88 57.88 0 0 1-14.28 10.06l1.1 2.14a60.16 60.16 0 0 0 14.9-10.5l11.38 11.4a76.5 76.5 0 0 1-18.9 13.42l1.12 2.15a78.65 78.65 0 0 0 19.5-13.85l12.56 12.58a96.87 96.87 0 0 1-23.9 17.08l1.12 2.2a99.08 99.08 0 0 0 25.36-18.38 98.96 98.96 0 0 0 19.1-26.8zM325.66 196l-.6.02.03.7h.6zm-1.47-.96h.8v.6h-.8zm-1.45-.2l.7.1.1-.6-.7-.1zm-.6-.2l-.7-.1.1-.62.7.1zm-5.74-.82h.8v.6h-.8zm-1.72 1.22l.7.1.08-.6-.7-.1zm.07.9l-.8-.2.14-.58.8.2zm-1.43.76l-.1-.6.6-.1.1.6zm-78.6 61.6v-.5h-.5v1h.8v1.33h.6l-.1-1.52zm7.5 9l-1.1-1-.8-1.1-.4-.92-.7-1.83 1.5.7.5 1.43.68.5.7 1.52zm20.63 27.14l-.1-.9-.8-1.23 1.2.22 1.3 1.1.5 1.33-.7.4-.4-.6zm54.06-91.9h-1.1l-.2-2.24.6-.4v-1.12h-3.48l-.1-1.1.5-.3-.8-.32-.6.8-.2.92-1 .2v.5h-.7v1.33l-2.78 2.34-5.6-.2c-.4.9-1.4-.1-1.4-.1-.18-.6-1.58 0-1.58 0 0 1.1-1.9-.5-1.9-.5l-3.48-2.54c-2-1.83-5 .5-5.1 1 .1 1.43-2.3.3-2.3.3s-1.98-.6-2.28.22c-.3.8-1.6.6-1.6.6l-.2.4-1 .2-.2.62-1.2.2 3-.1c.8-.1-.3 1.72-.8 1.62l-1.4.1-.5.5h-1.3l-.6.8-1.88-.08s-1.1.9-1 1.2c.1.3-.2 1.22-.5 1.22s-.9.9-.7 1.22c.2.3-.6 1.3-.6 1.3l-.2 1.03-.6.2v2.73l-1.2.8v1.23l-1.8 1.93.2 1.62-1.48 1.62.2 1.62-.9.3-.2.7-.4 2.13 1 .1c.5-.2.4 1.3 0 1.52-.4.2-1.5.6-.9 1s-1.6.3-1.6-.3-1.2-1.1-1.5-.9c-.3.2-.8-.92-.8-.92-1.08-1.1-4.47.1-4.47.1l-.5 1.62c-1.1.2-1.8 2.03-1.8 2.03-.9.3-1.6 1.4-1.3 1.72.3.3-.5.4-.5.4v2.23l-.5.7.1 2.44c.6 0 .5 1.1.5 1.1-1 .1-.8 1.43-.8 1.43l-2.1.7-.4.62-2.58-.1-.7.7-.7-.7h-5l-.2-.5-1-.22-.1-1.1-1.48.1-.3.6-1.6.1c.1 1-1.6 2.53-1.8 2.13-.2-.4-1.3-1.52-.8-1.72.5-.2 1.8-.4 1.8-.4v-.7l-3.7-.1-.38.6-1.5.1v1.62l-.7.2c-.5.3.1 1.42.1 1.42.7.7-.1 1.82-.1 1.82-.6.6.5 1.72.5 1.72.8.2-.5.8-.5.8.2 1.02.8 1.33.8 1.33-.6 1.02.4 1.52.4 1.52l.1 1.73.7.4v1.1l.4.72h1.6l-.1-2.53c-1.4-1.62 1.2-2.02 1.3-1.42.1.6 1.18.92 1.18.92.2 1.52 1.9 2.42 2.4.9.5-1.5.9-.6 1.2.1.3.72 2.2 2.44 2.2 2.44h1.48l.2 1.4c1.7-.1 2.2.12 2.9 2.44.7 2.33 2.6 2.94 2.6 2.94l1.4-.1c0-1.22 1.38.2 1.38.8 0 .6 2.7 2.94 2.7 2.94l2.7.6 2.5 2.04 1.88-.2h.8c.5-1.73 2.9.1 3.1.7.2.6 1.8 1.62 1.98 1.1.2-.5 1.3-.2 1.5 1.33.2 1.52.9 1.22.9 1.22l5.68-.1 2-1.74 5.1-.1c2.58-.1.98-3.64.5-3.64-.9-.7.28-3.65.28-3.65l-7.28-6.78c-1.7 0-.2-2.44-.2-2.44 1.3-.8-.3-2.12-.3-2.12.2-1.22-.7-2.64-.7-2.64-1.8-1.2-1.3-3.54-1.3-3.54v-1.62c-1.5-1.4.6-1.62.6-1.62.7-1.2-.5-2.12-.5-2.12l-.1-1.32-1.6-.2-.2-4.76-3.58-5.16c-.7-.2-.2-1.42-.2-1.42.9-.5-.2-1.72-.2-1.72l-.1-2.22 2.1-.2.5-.82h1l-.1-2.63c.5-1.32 1.7-.6 1.7-.6l1.4.1.78-1.53.2-1.2-1.1-.1c-1.2-.72-.6-3.35-.6-3.35 1.9-2.84 4.1-1.22 4.1-1.22l1.4-.1c2.1 1.42.2 4.05.2 4.05-.4.6-.2 2.53-.2 2.53l.5 3.24-1.3 1.12c-1.1.6-1.1 2 .1 2.3.8.1.5 2.04-.7.72-1.8 0 1 1.62.2 1.22 1.8.9 1.4-.8 1.4-.8l2.4-1.94c.88-.7 2.48 1.52 2.48 1.83 0 .3 4 .1 4 .1 1.1.7 1.48 2.53 1.48 2.53 1.1-1.42 3.4-.1 1.7.7 1.6 1.02 1.6 1.93 1.6 1.93 1.3-.42 1.3.6 1.3.9 0 .3.4-1.52.4-1.52-1.5-1.1 2-1.52 1 .5l-.6.92 1 .8.1 2.34c2.18-.2 1.58-2.94 1.58-2.94l1-.2c0-.9.7-.4.7-.4-.7-3.45 1.6-4.06 1.6-4.06 1.3-.3 1.4-3.04 1.4-3.04-.9-.4-.4-1.82.6-.6 1 1.2-.6-2.43-.6-2.43l-.8-.7-1.1-.1-.1-1.12h-1.8l-.3 1.42-.7.2-.2-.4-.3 1.1h-1.8l-.1-1.2 1.1-.3.4-.62.3-1.62h1.3l1.7-.5c.1-1.72 1-1.32 1-1.32l.6.5.9.72.1.6-.6.3-.1.82.3 1.12h.8c.3-1.62 2.4-1.62 2.98-.6l.6-1.43c-1.4-.7-.02-1.82.38-1.32.4.52 1.32-1.3 1.32-1.3s.7.9 0-.3c-.7-1.22.5-1.83.5-1.83-.2-1.2 1.3-1 1.3-1l.1-1.63-1.4-.1c-.3 1.42-1.5.2-.9-.1.6-.3 1.2-.9 1.2-.9V210l.6-.2.1-1.02h1.5l1.3-.6.3-.5 1.38-.1 2-1.84-.2-.8c-1.2 0 0-.92 0-.92l.2-1.5zM276.72 222.57l-1.8-.2.1.7h.5c.8 1.42.1 4.87.1 4.87s-1.2.1-1.4-.5c-.2-.62-.7 1.3-.3 1.6.4.3 1.8 0 1.9 1.12.1 1.12.9-.7.9-.7v-6.9zM276.7 231.18l.6-.1.1-.72-1.5 1.02-.98-.6v2.42l1.6 2.12.6-1.4.2-.92-.7-.3zm.8 6.37v-1l-.68.1-.1.8zm-.9 4.86v-.7l-.83.1v.7zm1.2-3.1c.22 0 .4-.2.4-.43s-.18-.43-.4-.43a.43.43 0 0 0-.43.43c0 .24.2.43.42.43z"/><ellipse cx="278.485" cy="240.996" fill="#fff" rx=".423" ry=".429"/><ellipse cx="278.508" cy="229.431" fill="#fff" rx=".423" ry=".429"/><path fill="#fff" d="M312.42 214.47l-1.1-.1-.2.5h-.5l-.1.82h.6l.1.6-.4.4-.2.5-.8.2-1.8 1.73-.1.8-.48.72-.6 1.5-2.1.1-.4 1.84.3 1.5 1.8.7.2-1 .6-.3.1-1 .4-.72.6-.7.2-.82 1-.6 1.18-.2.5-.62.2-1.2.07-.92.42-.6 1.2-.52v-1.92h-.6zm2.8 6.9v-1.43l-.2-1.3-1.5-.72-1.1 1-.2 1.43v.9l-1 .2-.2 2.74-.8.3.1 1-1.1.3-1.1.3-.2 1.33-.78.5-.4 1.22-.5 2.94s.9 1.7 1.4.9c.5-.8 1.3-.9 1.3-.9l.3-.72 2.68.1c.2-1.1 1.5-.7 1.5-.2s1 .1 1 .1l.7-1.1h1.1l.1-1.23.5-.3v-1.83c1.6-.5 1.38-2.02 1.38-2.02l.4-.5-.2-.7c-.8-.32-.4-1.03.1-.82.5.2-.7-.9-.7-.9-.6.5-1.1-.62-1.1-.62h-1.5zm1.6 12.23c-.1 1.22-1.6 1.62-1.6 1.62l-1.1-.3-.6-.5-.1-1.42.9-.1.2.6 2.3.1zm5.38-6.47c.2.88.2-1.42.6-1.32.4.1.1-1.4.1-1.4l-1.8 1.3c.9.12 1 1.03 1.1 1.43zm5.28-5.27c.4.9.3 2.23 1.8 3.24.5.34-.3 1.02-.8.7-.5-.3-1.9-2.52-1.9-2.52v-1.32c.3-.8.73-.5.9-.1zm.3 31.08l.3.5.7-1.1-.6-.2-.7.5zm-2.8-1.92v1.2m14.43-2.67l.8-.5-.3-.52-.8.5zm28.88 21.1l.9.4.1 1.73c1.2 1.2 5.08.2 5.08-.1 0-.3-.2-3.75-.2-3.75l-.5-.5-.1-2.54c.4-1.32-1.9-3.25-2.1-2.84-.2.4-1.5.1-1.5.5s-.78 2.44-.4 3.15c.4.72-.3.72-.38 1.42-.1.7-1.1 1.93-.9 2.54zm-2.2-4.05c-.2.77-.9 1.22-1.3.9-.4-.3.5.52.7.93.2.4.8.4 1 0 .2-.4.1-1.32.3-1.72.2-.4-.6-.5-.7-.1zm-4.64-18.57h.7v1.93h-.7zm10.33-19.48c-.44-.6 2-1.62 2.4-.4.4 1.2 0 1-.4.9-.4-.1-1.4.3-2-.5zM373.9 215l-.1.58 1.1.2.1-.6zm-4.5 1.55l.8.5.16.1.15-.08.62-.34.07.18.55-.2-.2-.52-.13-.32-.3.17-.74.42-.65-.4zm5.46-24.45h-1.5s.5.2-.9-1.1c-1.4-1.33-2.3.3-2.3.3l-1.58.2v1.6l-.8.32.1 1 1.1-.1s0 1.22.3.72 2.8.1 2.6 1.3c-.1.5 2.48 1.83 2.18 3.45 1.3.2 1 1.5 1 1.5l1.7.22.5-1.02.5.1v-.6l-1.1-.3-.2-3.25-.7-.5.2-.8-.8-.32.4-1.3-.7-1.43zm4.38 10.33l-.8-.1-1.8.3-1 1.93s.5.3.9 1c.4.72.6 4.87-.6 5.58-1.18.7.1.3.1.3l-.2 2.23c.3 1 .8.5 1.1 0 .3-.5.6-.6 1-1.12.4-.5 1-1.4 1.1-2.12.1-.7.6-1.82.3-2.13-.3-.3.3-1.72.3-1.72s.4-.8 0-1.62c-.4-.8.1-1.72.4-2.13l-.8-.4zm1.2 4.13l.1-.8.6.06-.1.8zm-.03 2.8l-.52-.28.3-.6.53.27zm-.86-8.04l-.4-.9s0-.82.2-1.23c.2-.4-.4-.82-.7-.92-.3-.1-.2-.9-.3-1.3-.1-.42-.8-.72-.8-.72s-.2-1.52-.2-1.82c0-.3-.9-.7-.6-1.02.3-.3.5-.7.8-.9.3-.2-.3-1.63.2-1.32.5.3.5.8.7 1.2.2.4-.1 1.83.4 2.14.5.3-.1 1.3.7 1.3.8 0 .3 1.94.3 1.94s-.2 1.4.3 1.52c.5.1.2 2.53.2 2.53l-.8-.5zm-6.48-16.4c.3.4.9.7.9 1.1 0 .4-.2.72.4.82.6.1 1-.1 1.2.4.2.5.2 1.32.1 1.72-.1.4.1 1.02.6 1.02s.6.1.6.4c0 .3.6-1.1.6-1.1-.5-.42-.9-1.33-.9-1.33s-.5-1.42-.5-1.62c0-.2-.7-.4-1-.5-.3-.1-.8-1.02-.8-1.02l-1.2.1zm1-.9c-.3-.42-.6-.72-1-.92-.4-.2-.7-.4-1.1-.4a.66.66 0 0 1-.6-.92c.2-.5-.3-.7-.3-1.1s.3-.42.8-.1c.5.3.4.4.8.9s.6 1 1 .9c.4-.1.7.92 1.1.62.4-.3.3.7.3.7l-1 .3zm-11.67 11.42c.54.56-3 .4-3 0s.3-1.82 1.2-1.52c.9.3 1-1.82 1-1.82s-.8.1-.1-.3c.7-.4 0-1-.3-1.32-.3-.3-.6-.8-.6-.8h1.4c.6-.4.8-2.33.8-2.33 1.2.4 1.78-.4 1.78-.4s.2.6.6 1.1c.4.5-1 .7-.5 1.02.5.3.7 1.2.5 1.5-.2.32-1.3.12-1.3-.3 0-.4-.4.52 0 1.02s-.5 1.2-.7 1.2c-.2 0-1.5.2-.4.82 1.1.6 2.3.3 2.3.3s.9-.1 1.2.4c.3.5-.1.62-.6.62s-2.9-.2-2.9-.2-.7.7-.4 1zm-6.4.92c.5-.1 1.7-.2 1.9.1.2.3-.7.7-.7.7l-1.2.2c-.4-.5-.5-.9 0-1zm12.88-8.5c.8-.4 2.5-.4 2.4-1.02-.1-.6.98-.8.98-.8l.3 1.2.9.6.1 1.13s.3-.2-.8.1c-1.1.3-.4.8-.4.8l-2.4.1-.3-1-.8-1.12zm-3.9-5.47c.6 0-.2 2.32 1.4 2.1 1.6-.2.1.72 1.3.82 1.2.1.9-.9 1.3-1.62.4-.7.2-1.1-.5-1.3-.7-.2-.7-.2-.9-1.03-.2-.8-1-1-1-1l-.3-1.22-1.3.8-1.3 1.73c0 1.3.7.7 1.3.7zm2.64 8.54l.3-.6.54.27-.3.62zm-1.04-.96h.6v.7h-.6zm.5-13.5l.1.92-.6.07-.1-.9zm-1.7 9.45h.6v.5h-.6zm-1.57 0l-.05-.62 1-.1.06.62zm-8.22 9.72l-.55-.24.3-.7.55.25zm-3.13-1.84l-.06-.6 1-.1.05.6zm-17.3-.18l-2.2.1.03.6 2.2-.1zm-3.66.88l-.2-.9.57-.14.2.9zm-.43.63l-.2-.58.3-.1.2.58zm5-1.7l-.1.7 1.08.1s.5.4.5.7c0 .3.7.62 1.1.62.4 0 1.5-.8 1.5-.8s.5-1.43.1-1.33c-.4.1-1.2.7-1.3.1-.1-.6-1.3-.3-1.3-.3l-1.6.2zm4.97-1.12c0 .3-.2.7.4.82.6.1 1.7-.4 1.8.2.1.6.1 1 .9 1.32.8.3 1.3.4 1.9.4.6 0 1.9-.2 1.9-.2s1.4.22 1.68.5c1.1 1.12 1.8 1.42 2.1.9.3-.5-.1-1.6-.2-2-.1-.42-1.5-2.34-2-1.93-.5.4-.6 0-1.5.3s-2.8.1-2.9-.3c-.1-.4-1.48-.6-1.48-1s-1-.92-.9-.3c.1.6-.7.9-.9.7-.2-.2-.8.6-.8.6zM364 179.36l.7-2.23c-1-.2-.8-1.3-.8-1.3-.1-.93-1.5-1.94-2-1.63-.5.3-.3-2.14-.3-2.14s.9-.6 1.3-.3-3.4-5.06-4.2-4.56c-.8.5-2.6-.5-2.5-1.42.1-.9-3.58-3.95-3.58-3.95s-1.2-.8-1.4-.2c-.2.6-.6 1.02 0 1.32.6.3.5-.5 1.2.2s2 1.62 1.5 2.23c-.5.6-1.1.8-1.1.8l.7.82h1.1l.2 1.72s1.2.6 1.5 1.32c.3.7.3 1.1 0 1.52-.3.4-.9 1.1-.8 1.82.1.7.9 1 .9 1l.78.1.6.3v1.33c.8-.2 2.1.92 2 1.63-.1.7.2.3 1.2 1 1 .72.7.82 1.4 1.33.7.5 1.3.2 1.58-.7zM347.53 165.58c-.1-.4-.3-1.82.3-1.72.6.1.2 0 .9.3s.8-.5.8-.5h1.1l1.4 1.1-.2.92-1 .1c-.5-.8-1.5-.5-1.3.2.2.72-.5 2.03-.9 2.13-.4.12-1.7.12-1.6-.5.1-.6.5-2.02.5-2.02zm-.8-2.73v-.8s-.1-.82-.6-.82-1.4-.6-1.2-1c.2-.42-1.7-.82-1.7-.82s-1.7-1.6-1.1-1.4c.6.2.3-.72.3-.72s-1.2.2-1.5.1c-.3-.1-.2-1-.2-1s-1.18-.32-1.18 0c0 .3.4.3.6.9.2.6.1 1.62 1 1.82.9.2 1.1.4 1.2.8.1.42 1.2.52 1.2.52l.78.4 2.4 2.03zm-10.77-10.33l-.3-.8-.8-.2v.9zm-.3-4.25c-1.04-.8 1.4.6 1.4.6.8 0 1.3.62 1.3.92 0 .3 1.1.2 1.1.2l.1-.72-.8-1-.7-.5s-1.1-.1-1.1-.42c0-.3-.9 1.22-1.3.9zm18.35.6c-.28.9-.4 2.13-.9 2.13s-.3 1.32-.3 1.32 1.3 0 1.7.1c.4.1.4 1.12.4 1.12 1.5-.1 2.1 1.92 1.9 2.43-.2.5.6.5.6.5s0 1.62-.2 2.03c-.2.4 1.3.7 1.7 1.3.4.62-.2 2.64-.5 2.74-.3.1.8.4.7.92-.1.5.3 0 .4.8.1.82.3 2.54.3 2.54l1.4.1c.2-1.32 2.76-1.37 3.18-1.22 1.7.6 3 3.24 3 3.85 0 .6-1.1.7-1.1.7l.2 2.94c1.7.5 3.1 2.94 2.9 3.34-.2.42 1.18.32 1.18.32.2-1.82 1.9-1.22 2-.6.1.6.4 1.9.4 1.9l.5.92.7.7 1.1-.1.3.62 1.3.2s1.1 1.22 1.2 1.52c.1.3 1.58.2 1.98.3.4.1 1 .4 1.1.92.1.5.7 1.3.7 1.3s1.2.32 1.3.72c.1.4.6 1.32.6 1.32l1 .8.1.92 1.08.1.3 1.2 1.8-.1 1-.7c1.3-.7 2.2-1.62 2.3-2.02.1-.4.3-1.92 1.3-1.62 1 .3.3-2.23.3-2.23s-1.4-1.02-1.3-1.53c.1-.5-1.4-1.5-1.3-1.92.1-.4-1.3-1.2-1.2-1.62.1-.4-.7-1.52-.7-1.52l-1.5-1.4-.2-.9-1.2-.1-2.4-2.95.1-.8-.7-.1v-1.13l-.68-.4-1.1-.1-2.2-2.43-.2-1.13h-1.1l.2-2.12c.7-.9.3-2.63.3-2.63s-1.4.7-2.1.4c-.7-.3.3-1 .3-1v-.82l-.58-.6s-1.7.2-1.8-.1c-.1-.3-.4-1.63-.4-1.63l-.1-1.72-.7-.3-.1-.6-1.1.1v-1.22l-.6-.2-.6-.3-.1-1.22-2.18-.1-.7-1-.8-1.22-2.5-.2-.6-.6-1-.22-.7-.3-.3.5-1.88.1-.1.6c-1 .52-5 .1-5.1.42zm10.48-2.62c-.15-.8 2-1.52 2.5-.9.5.6 1.9.7 2.1 3.73.06 1.1-1.8-1.1-1.8-1.1l-1.5-.5c-.8-.22-1.2-.72-1.3-1.23zm-29.25 1.24l-.55-.26.4-.9.55.24zm-5.16-9.96l-1.3-1.3v-1.13l-.4-.4-.4-1.4-1.3-.4-1.28.5-1.4.9-1.5.2-.8.92 3.2.3.58 1 2.3.22 1.5 1.5c1.3.42 1.6-.2.8-.9zm-.2-4.96c-.2-.9-1.5 1.1-.2 1.52 1.3.4 2.6 0 2.6 0l.3-.6 4.98.1c.4-.4.6-1.02.6-1.02s1.2-.4 1.7-.2.1-1.42-.4-1.22c-.5.2-1.5.1-1.5.1h-1.8c-.1-.7-1.7-.4-1.8 0-.1.4-.68.5-.68.5l-2.3.2c-.2.62-1.4 1.03-1.5.62zM320 149.66c1.53.5 2.1.13 2.2-.27.1-.42.2-.52.8-.62.6-.1-.1-1.32-.7-1.22-.6.1-1.2-.2-1.3-.7-.1-.5-1.1-1.83-1.2-.82-.1 1.02-.7 1.02-.6 1.73.1.7.4 1.77.8 1.9zm-11.47 1.14c-.07-.35 2-.4 2.3-.1.3.3.1.8 1 .8s.5.62.4.92c-.1.3-1.1.2-1.2-.1-.1-.3-1.6-.4-1.6-.4s-.8-.6-.9-1.12zm33.93-21.7l-.8.64-.5-.5-.43.42.7.7.2.2.2-.17 1-.82zm-5.5-1.84l-.64-.4-.32.5.8.52.16.1.16-.1 1.1-.7-.32-.52zm-3.22 20.83l-.14-.03-1-.1-.06.6.85.1.6.98.52-.33-.7-1.1zm-33 28.2l.1 1.12h1.5c.6 0-.5-.7-.5-.7s-1.2.1-1.1-.4zm1.9.04l.4-.47.6.5-.4.48zM284.5 157.4l.42-.43.6.6-.42.44zm28.97 130.3l-1-.52-.26.55.6.3-.2.22.43.43.5-.5.3-.3zm-7.72-7.3l-.38-.47-.6.5-.3.26.32.22.7.5.34-.5-.37-.27zm74.17-19.2c-.13-.52-.72-.73-.78-.75l-.2.58c.06 0 .12.05.2.1l.12.52c-.05.06-.1.13-.14.17l.44.4c.32-.34.44-.7.36-1.02zm.92-1.9l-.98-.08.08-.92.97.16zm23.1-7.9c.44-.28 1-.77.9.37-.06 1.14-.5.76-.9 1.14-.36.4-.58-1.13 0-1.5zm5.1-4.3a.83.83 0 0 1-.03-.14 1.65 1.65 0 0 0-.16-.64l-.54.27c.07.13.08.27.1.4 0 .2.03.4.2.52.1.08.24.1.4.07l-.1-.6c.03 0 .1.06.1.1zm-1.34.5c.15.6.37 1.22.38 1.24l.56-.2a11.87 11.87 0 0 1-.36-1.2l-.58.16zm-2.18 2.38l-.6-.06c-.04.48.07 1.07.54 1.17l.12-.6c-.04-.05-.08-.3-.06-.52zm-2.62-12.07a.55.55 0 0 0-.33-.42c-.44-.2-1.2.13-1.55.38l.33.5c.38-.26.87-.38 1-.32a.06.06 0 0 1-.04-.04l.58-.1zm-27.63-32.33c-.4.4-1.3.6-1.3.6l-.3 1.12-.5.4s.1.3 0 1-1 1.12-1 1.12l-.4.5s-2.4.13-2.68 0c-.9-.4-.3-1.62.3-1.52.6.1-.1-1.72-.1-1.72l.8-.1s.1-1.82.4-1.82c.3 0-.1-.6-.5-.9-.4-.3-.9-1.32-1.3-1.22-.4.1-2 0-2 0l-.3.6-1.1.2s.1.8-.1 1.02c-.6.7-2.88 2.22-1.9-.3l.3-.6v-.92l-1.78-.1s-.9-.3-.9-.7c0-.42-.1-.92-.1-.92l-2.1-2.33-2.5-.3-.2-.52-1.5-.2c-1.8-.9-3.4-.1-3.1 1.4.3 1.53.8 2.14-.2 2.14-.98 0-1.18-.8-1.18-.8s-.8-.32-.8.1-.3 1.2 0 1.6c.3.4-.4 1.02-.7.72-.3-.3-1.1-1.22-.9-1.52.2-.3-1.4-2.23.2-2.53 1.6-.3-.1-1.23.5-1.43l.8-.4h.8l.5-.4-1.3-.2-.8-.1-1.5-.1c-1.5 1-1.8 2.2-1.8 2.2-.8 1.53-2.68-.6-1.98-1.4.7-.8-2.2-.1-2.7.3s-2 .2-2 .2c-.3.9-1.7-.1-1.3-.7.4-.6.4-1.02.4-1.02l-.5-.1-.58 1.12c-1.4 0-1.8.8-1.5 1.3.3.52-.4-.1-.6.62-.2.7.1.7.7 1 .6.3-.3.3.1.8.4.52 1.6 0 .9.72-.7.7-2.1.4-2.1.4-.1.92-2 .72-2.2.4-.2-.3-1.7-2.12-1.7-2.12l-1.88-.1c-.2-1.4.9-.7 1.3-1.82.4-1.1.6-2.93.6-2.93s-1.6-.1-1.7.4c-.1.5-1.1.8-1.1.8s-.8.3-.5.72c.3.4-.6.6-.6.6s.16.66-.1.9c-.8.83-2.8.12-3.1-.2l-1.2-.5-1.18-.8-1.4.6-.4.4h-1.5l-.1 1.22 2.7.3.2 2.5-1.1-.38h-.7l-.3-.6-.6-.1v2.22l.6.5.5.5 1 .1.2 1.23 2.5.1.3.5 1.5.1 2.88 2.94-.2.92-.5.3c.2.72-1.3.3-1.3.3v.62l.7.1.7.4 1-1.72c1.1-.7 1.6.3 1.7.9.1.62-.5.52-.5.52v1.42l.6.2c1 1.22-.4 1.92-.4 1.92l-.3 1.02c-.3.9-1.4.7-1.4.7l-.4.6-1.2.32 2.38.3c.22-.8.82-1 1.12-.6.3.4.3 1.1.3 1.1l.6.1-.1 1.12.6.2v3.24l.7.8c1.2-.5 1.2.32.6.72-.6.4-.2 2.23-.2 2.23l-.5.5v.8l-.6.42v1.1c-1-.5-2.2-.3-2.5 0-.9-.6-2.8-.4-2.8.1.6.82-.7 1.03-.7 1.03l-.7.8c.5 1.02-.5 1.12-.5 1.12v1.92l-1.18 1.12.1 2.63c0 .7 1.5.8 1.8.4.3-.4 1.5.82 1.5.82h.88l.2-1.84-.6-.3v-2.94l1-1.1c1.2-.42.8 2.62.8 2.92.1 1.12.6 1.02 1.1.8 1-.4.2 1.13-.6 1.02-.8-.1-.3 1.02-.3 1.02l.5.2-.9.7-.8.92-1-.3-1.2-.1-.4-.72-.7-.1-.1 1.42-.5.6-1.18 1.22c1.6 0-.2 1.1-.6 1.1.9.32-.1 1.23-2.4.52v.7l-.8.1.7.82.8.1-.3 1.72c0 1.32-3.3.4-3.6.1l-.1 1.83-.58.1.1 1.22-.1 1.72 1.1-.2v.7l2.7.1 3.88-4.14 2.3-.5c.2-1.02 1.18.2 1.18.2 1-.1 1.2.6 1.2.6l1.3.2c1.1.3.43.42.5.82.1.6.6.4.6.4l.2-1.3.6.1-.6-.72-1.1-.5-1.2-.5c-.8-1.13.2-.92 1-.82h1.3s1.5 2.02 1.5 2.53c0 .52.7.62.7.62l.9-.1.3.7h.88l.3.6h1.8l.1-.9-1.7-.3-.1-1.02-1.2-.3c-.4-1.72.3-2.23.8-1.42l.6.1-.2-1.52.7-.2-.2-2.12-.6-.2v-.7l2.5.1c-.2-1.33.1-1.93.1-1.93h.7l.1.5 3.05.3 2.17-2.48c-.1-.2.2-.3-.03-.54-.3-.3-.7 0-1.2-.3s0-2.03-.1-2.43c-.1-.4 1.7-1.02 1.4-.1-.3.9 0 1.3 0 1.3 1.3-1.2 2.4.1 2.3.42-.1.3.7.6 1.2.3s1.1.9.9 1.52c-.2.6-2 .5-2.1-.1-.1-.62-.4-.42-.6-.1-.2.3-1.1.5-1.6.2a.48.48 0 0 1-.18-.17l-2.15 2.47.15.02c1.2.7.6 1.62.2 1.82-.4.2-1.1.2-1.1.2l-.2.4-2.6.2-.2 1.02c-1.3-.2-1.8 1.22-1.5 1.92.3.7 0 1.32 0 1.32l1.1.5 1.4-.4c.2-1 1.1-1.2 1.9-1.82.8-.6 2.1 1.1 1.7 1.92-.4.8-.4 1.12-.4 1.12l.1.9-1 .4-.8.42-.1.5h-2.7l-.5.5-1.3.1-.4.62-.88.1s-1.5.7-.9 1.52c.6.8-2.5.7-3.2-.4-.2 1-1.3.1-1.3.1l-1.1-.3-.1-1.52c-.2-1.02-2.08-1.02-1.98-.3.1.7-3.6.3-3.6.3l-1.2.58-1.1.63-.1.5-1.8.2-.8.4-.3-.6h-.8l-.8 1.12c-2.08.1-4.07 1.3-3.88 1.8.2.52-.8 1.03-.8 1.03l-.9.3-.6.9-1.18.4-.2 2.14-.6.4v.92l-.7.2v.5l-1 .1.6 1.5.8.42c1.4.2.8 1.92.8 1.92l.8.1.4 1.1.8 1.63c.3 1.22 1.2.9 1.6.8.38-.1.78 1.23.78 1.23l4 .1s-.2.4.5.6c.7.2 5.28.4 5.48.1-.2-.9 2.5-1.1 3.6-.3 1.08.8 2.58.3 2.58.3l1.5 1.83 1 2.23 1.7.5 1.18.3.4 1.73.9.1.3 1.1c1.1.8-.3 2.53-.3 2.53v2.23l.8.4-.1.82 1.3 1.3 1.5.1 3.78 4.06 3 .9.5 1.63.8-.1.6-.5 2.38-.1 1.2-1.12 1.3-.2 11.07-9.42-1-.6v-2.23c1.78-1.32 1.88-3.65.2-3.85-1.3-.15-.7-1.52.5-1.72l.7-.3v-.9l2.28-2.14v-1.63l-5-4.15c-2.18-.8 0-5.67 1.5-5.57 1.5.1-.1-7.5-.1-7.5l-.8-.4.2-2.42h-1.1l-1.78 2.33-.5 1.6c-.2 2.14-6.38 1.73-6.68 1.43-.3-.3-2.4-1.22-2.4-1.22s-1.6-1.32-1.9-.9c-.3.4-1.7-.52-1.7-.22 0 .3-1.28-.7-1.28-.7l-2-.72 1.5-.3-.3-1.2 2.6 1.3c.3.4 1.6.3 1.6.3l.4.5s.78-.1 1.28.52c.5.6 3.1.1 3.1.1l.7.6 1.1.4 3.08.1.1-1.9.6-.62-.1-1.2.7-.62v-1l.6-.2.1-2.24.5-.1v-4.86l-1.5-1.42c-.1.5-1.7.5-1.7.5s-.4.72-.7.72c-.3 0 .4.9.2 1.52-.2.6-1 .6-1 .6l-1.5.4-.4.52h-1.58l-.2-1.32 1.8-.5 1-.5.5-1.02c.1-1 1.3-.9 1.3-.9s2.28-1.94 2.38-2.85c.1-.9.9-3.44 2.3-3.44h2.6c.98-.4.7-1.72.7-1.72l1.28-.2.2.7s1.8.22 2-.1c.2-.3.6-1 1.1-.7.5.3 2.1-.7 2.1-.7.1-.7 2.58-.4 2.58-.4l.3-.92s-1.7-2.33-2-2.33c-.3 0-1.9-1.42-2.1-.9-1.58-.4-1.48-2.64-1.48-2.64l-.6-1.4c0-.82-1.5-2.54-1.8-2.34-1.5-1.1-.4-2.43 0-2.53.4-.1 1.4-1.52 1.4-1.52l.5-1.4 1.7-.5.2-1.32-.9-.1s1-1.83 1.5-1.83 3.8 0 4.1-.2c.28-.2.88-1.82.88-2.13 0-.3.8-.4 1.1-.5.3-.1 1-.9 1.2-1.32.2-.4-.5-2.94-.9-2.53zM320 242.06c.15-.15.3.45.6.38.3-.08.45.53.15.53-.3 0-.3.38-.3.53 0 .15 0 .53-.23.76-.22.23-.45.08-.75-.07-.3-.17-.44-.17-.82-.17-.37 0-.07.6-.07.6s-1.57-.06-1.27-.3c.3-.22.6-.3.38-.45-.22-.15 0-.3 0-.6s.75-.16.52-.38c-.22-.23 0-1.1.38-.6l.22-.54c-.22-.23-.07-.3-.52-.46-.45-.15-.08-1.06-.08-1.06l.08-.6c.15-.77 1.64-.85 1.72-.16.07.68 0 1.14 0 1.14l.45.15s-.08.46-.45.46c-.38 0 0 .22-.23.45l.23.38zm-4.94.76c.23-.46.75-2.43 1.35-1.82.6.6.98 0 .98 0s.3.3.15.9c-.15.62-.3 1.22-.68 1.3-.37.08-.67.3-1.12.38-.44.08-.67-.76-.67-.76z"/></svg>