<svg xmlns="http://www.w3.org/2000/svg" width="640" height="480"><g fill-rule="evenodd"><path fill="#bd3d44" d="M0 0h912v36.92H0zm0 73.85h912v36.92H0zm0 73.84h912v36.92H0zm0 73.84h912v36.92H0zm0 73.85h912v36.9H0zm0 73.83h912v36.93H0zm0 73.85h912V480H0z"/><path fill="#fff" d="M0 36.92h912v36.93H0zm0 73.85h912v36.92H0zm0 73.85h912v36.92H0zm0 73.84h912v36.93H0zm0 73.85h912v36.93H0zm0 73.86h912v36.92H0z"/><path fill="#192f5d" d="M0 0h364.8v258.46H0z"/><path fill="#fff" d="M30.4 11.06l3.32 10.22h10.74l-8.7 6.3 3.33 10.23-8.7-6.3-8.7 6.3 3.33-10.2-8.7-6.32H27.1zm60.8 0l3.32 10.22h10.74l-8.7 6.3 3.33 10.23-8.7-6.3-8.7 6.3 3.33-10.2-8.7-6.32H87.9zm60.8 0l3.32 10.22h10.74l-8.7 6.3 3.33 10.23-8.7-6.3-8.7 6.3 3.33-10.2-8.7-6.32h10.75zm60.8 0l3.32 10.22h10.74l-8.7 6.3 3.33 10.23-8.7-6.3-8.7 6.3 3.33-10.2-8.7-6.32h10.75zm60.8 0l3.32 10.22h10.74l-8.7 6.3 3.33 10.23-8.7-6.3-8.7 6.3 3.33-10.2-8.7-6.32h10.75zm60.8 0l3.32 10.22h10.75l-8.7 6.3 3.32 10.23-8.7-6.3-8.7 6.3 3.33-10.2-8.7-6.32h10.76zM60.8 36.9l3.32 10.22h10.74l-8.7 6.32 3.33 10.2-8.7-6.3-8.7 6.3 3.33-10.2-8.7-6.32H57.5zm60.8 0l3.32 10.22h10.74l-8.7 6.32 3.33 10.2-8.7-6.3-8.7 6.3 3.33-10.2-8.7-6.32h10.75zm60.8 0l3.32 10.22h10.74l-8.7 6.32 3.33 10.2-8.7-6.3-8.7 6.3 3.33-10.2-8.7-6.32h10.75zm60.8 0l3.32 10.22h10.74l-8.7 6.32 3.33 10.2-8.7-6.3-8.7 6.3 3.33-10.2-8.7-6.32h10.76zm60.8 0l3.32 10.22h10.74l-8.7 6.32 3.33 10.2-8.7-6.3-8.7 6.3 3.33-10.2-8.7-6.32h10.75zM30.4 62.77l3.32 10.2h10.74l-8.7 6.32L39.1 89.5l-8.7-6.3-8.7 6.3 3.33-10.22-8.7-6.3H27.1zm60.8 0l3.32 10.2h10.74l-8.7 6.32L99.9 89.5l-8.7-6.3-8.7 6.3 3.33-10.22-8.7-6.3H87.9zm60.8 0l3.32 10.2h10.74l-8.7 6.32 3.33 10.22-8.7-6.3-8.7 6.3 3.33-10.22-8.7-6.3h10.75zm60.8 0l3.32 10.2h10.74l-8.7 6.32 3.33 10.22-8.7-6.3-8.7 6.3 3.33-10.22-8.7-6.3h10.75zm60.8 0l3.32 10.2h10.74l-8.7 6.32 3.33 10.22-8.7-6.3-8.7 6.3 3.33-10.22-8.7-6.3h10.75zm60.8 0l3.32 10.2h10.75l-8.7 6.32 3.32 10.22-8.7-6.3-8.7 6.3 3.33-10.22-8.7-6.3h10.76zM60.8 88.6l3.32 10.22h10.74l-8.7 6.3 3.33 10.23-8.7-6.32-8.7 6.32 3.33-10.22-8.7-6.3H57.5zm60.8 0l3.32 10.22h10.74l-8.7 6.3 3.33 10.23-8.7-6.32-8.7 6.32 3.33-10.22-8.7-6.3h10.75zm60.8 0l3.32 10.22h10.74l-8.7 6.3 3.33 10.23-8.7-6.32-8.7 6.32 3.33-10.22-8.7-6.3h10.75zm60.8 0l3.32 10.22h10.74l-8.7 6.3 3.33 10.23-8.7-6.32-8.7 6.32 3.33-10.22-8.7-6.3h10.75zm60.8 0l3.32 10.22h10.74l-8.7 6.3 3.33 10.23-8.7-6.32-8.7 6.32 3.33-10.22-8.7-6.3h10.75zM30.4 114.45l3.32 10.2h10.74l-8.7 6.33 3.33 10.2-8.7-6.3-8.7 6.3 3.33-10.2-8.7-6.32H27.1zm60.8 0l3.32 10.2h10.74l-8.7 6.33 3.33 10.2-8.7-6.3-8.7 6.3 3.33-10.2-8.7-6.32H87.9zm60.8 0l3.32 10.2h10.74l-8.7 6.33 3.33 10.2-8.7-6.3-8.7 6.3 3.33-10.2-8.7-6.32h10.75zm60.8 0l3.32 10.2h10.74l-8.7 6.33 3.33 10.2-8.7-6.3-8.7 6.3 3.33-10.2-8.7-6.32h10.75zm60.8 0l3.32 10.2h10.74l-8.7 6.33 3.33 10.2-8.7-6.3-8.7 6.3 3.33-10.2-8.7-6.32h10.75zm60.8 0l3.32 10.2h10.75l-8.7 6.33 3.32 10.2-8.7-6.3-8.7 6.3 3.33-10.2-8.7-6.32h10.76zM60.8 140.3l3.32 10.2h10.74l-8.7 6.32 3.33 10.22-8.7-6.3-8.7 6.3 3.33-10.22-8.7-6.3H57.5zm60.8 0l3.32 10.2h10.74l-8.7 6.32 3.33 10.22-8.7-6.3-8.7 6.3 3.33-10.22-8.7-6.3h10.75zm60.8 0l3.32 10.2h10.74l-8.7 6.32 3.33 10.22-8.7-6.3-8.7 6.3 3.33-10.22-8.7-6.3h10.75zm60.8 0l3.32 10.2h10.74l-8.7 6.32 3.33 10.22-8.7-6.3-8.7 6.3 3.33-10.22-8.7-6.3h10.75zm60.8 0l3.32 10.2h10.74l-8.7 6.32 3.33 10.22-8.7-6.3-8.7 6.3 3.33-10.22-8.7-6.3h10.75zM30.4 166.13l3.32 10.22h10.74l-8.7 6.3 3.33 10.23-8.7-6.33-8.7 6.32 3.33-10.23-8.7-6.3H27.1zm60.8 0l3.32 10.22h10.74l-8.7 6.3 3.33 10.23-8.7-6.33-8.7 6.32 3.33-10.23-8.7-6.3H87.9zm60.8 0l3.32 10.22h10.74l-8.7 6.3 3.33 10.23-8.7-6.33-8.7 6.32 3.33-10.23-8.7-6.3h10.75zm60.8 0l3.32 10.22h10.74l-8.7 6.3 3.33 10.23-8.7-6.33-8.7 6.32 3.33-10.23-8.7-6.3h10.75zm60.8 0l3.32 10.22h10.74l-8.7 6.3 3.33 10.23-8.7-6.33-8.7 6.32 3.33-10.23-8.7-6.3h10.75zm60.8 0l3.32 10.22h10.75l-8.7 6.3 3.32 10.23-8.7-6.33-8.7 6.32 3.33-10.23-8.7-6.3h10.76zM60.8 192l3.32 10.2h10.74l-8.7 6.32 3.33 10.2-8.7-6.3-8.7 6.3 3.33-10.2-8.7-6.32H57.5zm60.8 0l3.32 10.2h10.74l-8.7 6.32 3.33 10.2-8.7-6.3-8.7 6.3 3.33-10.2-8.7-6.32h10.75zm60.8 0l3.32 10.2h10.74l-8.7 6.32 3.33 10.2-8.7-6.3-8.7 6.3 3.33-10.2-8.7-6.32h10.75zm60.8 0l3.32 10.2h10.74l-8.7 6.32 3.33 10.2-8.7-6.3-8.7 6.3 3.33-10.2-8.7-6.32h10.75zm60.8 0l3.32 10.2h10.74l-8.7 6.32 3.33 10.2-8.7-6.3-8.7 6.3 3.33-10.2-8.7-6.32h10.75zM30.4 217.82l3.32 10.22h10.74l-8.7 6.3 3.33 10.23-8.7-6.32-8.7 6.32 3.33-10.22-8.7-6.3H27.1zm60.8 0l3.32 10.22h10.74l-8.7 6.3 3.33 10.23-8.7-6.32-8.7 6.32 3.33-10.22-8.7-6.3H87.9zm60.8 0l3.32 10.22h10.74l-8.7 6.3 3.33 10.23-8.7-6.32-8.7 6.32 3.33-10.22-8.7-6.3h10.75zm60.8 0l3.32 10.22h10.74l-8.7 6.3 3.33 10.23-8.7-6.32-8.7 6.32 3.33-10.22-8.7-6.3h10.75zm60.8 0l3.32 10.22h10.74l-8.7 6.3 3.33 10.23-8.7-6.32-8.7 6.32 3.33-10.22-8.7-6.3h10.75zm60.8 0l3.32 10.22h10.75l-8.7 6.3 3.32 10.23-8.7-6.32-8.7 6.32 3.33-10.22-8.7-6.3h10.76z"/></g></svg>