<svg xmlns="http://www.w3.org/2000/svg" width="640" height="480" xmlns:xlink="http://www.w3.org/1999/xlink"><path fill="#1eb53a" d="M0 320h640v160H0z"/><path fill="#0099b5" d="M0 0h640v160H0z"/><path fill="#ce1126" d="M0 153.6h640v172.8H0z"/><path fill="#fff" d="M0 163.2h640v153.6H0z"/><circle cx="134.4" cy="76.8" r="57.6" fill="#fff"/><circle cx="153.6" cy="76.8" r="57.6" fill="#0099b5"/><g fill="#fff" transform="matrix(1.92 0 0 1.92 261.12 122.88)"><g id="e"><g id="d"><g id="c"><g id="b"><path id="a" d="M0-6L-1.85-.3 1 .64"/><use width="100%" height="100%" xlink:href="#a" transform="scale(-1 1)"/></g><use width="100%" height="100%" xlink:href="#b" transform="rotate(72)"/></g><use width="100%" height="100%" xlink:href="#b" transform="rotate(-72)"/><use width="100%" height="100%" xlink:href="#c" transform="rotate(144)"/></g><use width="100%" height="100%" y="-24" xlink:href="#d"/><use width="100%" height="100%" y="-48" xlink:href="#d"/></g><use width="100%" height="100%" x="24" xlink:href="#e"/><use width="100%" height="100%" x="48" xlink:href="#e"/><use width="100%" height="100%" x="-48" xlink:href="#d"/><use width="100%" height="100%" x="-24" xlink:href="#d"/><use width="100%" height="100%" x="-24" y="-24" xlink:href="#d"/></g></svg>