<svg xmlns="http://www.w3.org/2000/svg" width="640" height="480"><g fill-rule="evenodd"><path fill="#fff" d="M320 0h320v480H320z"/><path fill="#fff" stroke="#000" stroke-width="1.197" d="M282.43-735.13c0 .63 55.96 222.85 118.17 300.56 69.38 87.27 113.18 87.33 113.18 87.33l70.87-17.7s-41.5 2.08-123.8-104.22C377.4-576.94 351.43-755.12 352.68-752l-70.25 16.87z" transform="matrix(-.24 0 0 .199 534.09 334.357)"/><path fill="#fff" stroke="#000" stroke-width="1.197" d="M285-727.64C283.47-737 318.9-506.7 425.2-400.4c53.15 53.15 88.58 53.15 88.58 53.15l88.6-17.72s-51.73 3.75-134.03-102.55C384.9-575.3 359.77-730.77 360.4-731.4l-75.4 3.76zM282.43-735.13c0 .63 55.96 222.85 118.17 300.56 69.38 87.27 113.18 87.33 113.18 87.33l70.87-17.7s-41.5 2.08-123.8-104.22C377.4-576.94 351.43-755.12 352.68-752l-70.25 16.87z" transform="matrix(.24 0 0 .199 381.891 336.17)"/><path fill="#fff" stroke="#000" stroke-width="1.197" d="M285-727.64C283.47-737 318.9-506.7 425.2-400.4c53.15 53.15 88.58 53.15 88.58 53.15l88.6-17.72s-51.73 3.75-134.03-102.55C384.9-575.3 359.77-730.77 360.4-731.4l-75.4 3.76z" transform="matrix(-.24 0 0 .199 534.09 334.357)"/><path fill="#fff133" stroke="#000" stroke-width="1.197" d="M344.54-596.3l9.15 22.15s1.45-9.77 8.52-11.53l7.07-1.77s26.85 49.33 32.16 58.17c5.3 8.83-3.54 16.8-1.77 16.8 1.76 0 26.5-11.5 26.5-11.5s-10.6.88-15.02-6.2-34.82-59.92-34.82-59.92 6.2-2.65 11.5-5.3c5.3-2.66 10.6 7.95 10.6 7.95l-13.26-26.52s0 8.84-4.42 10.6c-4.42 1.78-7.96 3.54-7.96 3.54s-3.53-6.18-7.95-13.25c-4.42-7.08 4.42-14.15 4.42-14.15l-23 11.5s7.96 4.4 10.62 8.83l5.3 8.84s-3.22 1.77-8.22 3.48c-3.58 1.88-7.7.06-9.46-1.7z" transform="matrix(.24 .004 -.005 .199 380.013 342.305)"/><g fill="#b00" stroke="#000" stroke-width="12.791"><path d="M410.17 335.5c-.63-.1-.9-.62-.53-1.03s1.34-.73 1.97-.63l3.44.53c.63.1.9.6.53 1.02-.37.42-1.34.72-1.97.62l-3.43-.53zM408.36 336.87c-.62-.1-.86-.63-.5-1.04s1.35-.7 1.96-.6l3.38.6c.6.12.85.64.5 1.05-.4.43-1.36.7-1.97.6l-3.37-.6zM406.43 338.4c-.62-.1-.9-.6-.53-1s1.35-.73 1.97-.64l3.44.54c.63.1.9.6.54 1.02-.38.43-1.35.72-1.97.63l-3.44-.54zM430.48 318.2c-.64.05-1.05-.4-.83-.86s1.08-1 1.72-1.03l3.48-.2c.64-.04 1.05.4.83.87-.24.5-1.08 1-1.72 1.03l-3.48.2zM429.03 319.8c-.63.02-1.02-.44-.78-.9s1.1-.96 1.74-.98l3.44-.07c.63-.02 1 .44.77.9-.24.5-1.1.97-1.72.98l-3.45.08zM427.6 321.7c-.64.02-1.05-.42-.8-.9s1.1-.96 1.73-1l3.5-.15c.62-.03 1.02.4.8.9-.26.48-1.1.96-1.75 1l-3.5.14zM426 322.36c-.62-.02-.97-.5-.7-.95s1.18-.9 1.8-.87l3.46.1c.63.03.98.5.7.97-.3.48-1.18.9-1.8.87l-3.45-.1zM435.6 311.6c-.63.1-1.1-.3-.94-.78s.95-1.08 1.58-1.18l3.44-.52c.62-.1 1.1.3.93.8-.16.5-.94 1.07-1.57 1.17l-3.44.5zM434.5 313.44c-.63.08-1.1-.34-.92-.83s.96-1.06 1.58-1.13l3.4-.44c.63-.08 1.08.34.9.83-.16.5-.94 1.06-1.56 1.14l-3.4.44zM433.35 315.46c-.63.1-1.1-.3-.93-.8s.95-1.07 1.57-1.17l3.43-.53c.63-.1 1.1.3.93.8-.17.5-.95 1.07-1.57 1.17l-3.45.52zM431.9 317.1c-.62.06-1.06-.36-.88-.85s.98-1.05 1.6-1.12l3.42-.38c.62-.07 1.06.35.9.84-.2.5-1 1.04-1.62 1.1l-3.42.4zM417.66 329.86c-.63-.06-.94-.55-.62-.98s1.27-.82 1.9-.76l3.48.3c.63.06.94.55.62.98-.33.45-1.27.8-1.9.76l-3.48-.3zM416 331.35c-.63-.07-.93-.57-.6-1s1.27-.8 1.9-.73l3.4.38c.63.07.93.57.6 1-.34.46-1.27.8-1.9.73l-3.4-.38zM414.22 333.02c-.63-.05-.94-.54-.63-.97s1.26-.82 1.9-.76l3.47.3c.64.04.95.53.63.97-.33.45-1.27.8-1.9.76l-3.48-.3zM412.1 333.95c-.62-.12-.87-.64-.5-1.05s1.35-.7 1.96-.6l3.37.6c.62.12.86.64.5 1.06-.4.42-1.35.7-1.97.6l-3.37-.6zM424.43 324.17c-.63 0-1-.47-.73-.92s1.17-.9 1.8-.9l3.5.02c.64 0 1 .47.74.92-.28.47-1.17.9-1.8.9l-3.5-.03zM422.93 325.8c-.62-.03-.97-.5-.7-.97s1.18-.9 1.8-.87l3.46.1c.6.03.96.5.7.96-.3.48-1.2.9-1.82.88l-3.45-.1zM421.1 326.7c-.63-.07-.94-.56-.62-1s1.27-.8 1.9-.75l3.48.3c.63.06.94.55.62.98-.33.46-1.27.82-1.9.76l-3.48-.3zM419.43 328.18c-.62-.06-.92-.57-.6-1s1.28-.8 1.9-.73l3.42.38c.63.07.92.57.6 1-.35.46-1.28.8-1.9.73l-3.42-.38zM446.64 289.57c-.6.2-1.13-.12-1.1-.63s.7-1.2 1.28-1.4l3.25-1.08c.6-.2 1.14.1 1.1.62-.05.53-.68 1.22-1.28 1.4l-3.26 1.1zM446 290.46c-.6.14-1.12-.23-1.02-.73s.8-1.16 1.4-1.3l3.33-.76c.62-.14 1.12.23 1.03.74-.1.54-.8 1.16-1.4 1.3l-3.34.76zM445.14 292.58c-.6.15-1.12-.2-1.03-.7s.8-1.17 1.4-1.32l3.35-.86c.6-.15 1.12.2 1.03.7-.1.53-.8 1.16-1.4 1.32l-3.34.86zM444.3 294.5c-.6.14-1.1-.23-1.02-.73s.8-1.15 1.4-1.3l3.34-.76c.6-.13 1.1.24 1 .75-.1.53-.8 1.15-1.4 1.3l-3.32.75zM448.6 283.26c-.6.18-1.13-.15-1.08-.66s.7-1.2 1.28-1.38l3.24-1c.6-.17 1.13.17 1.08.68-.05.53-.7 1.2-1.28 1.38l-3.24.98zM447.95 285.43c-.6.2-1.14-.12-1.1-.63s.68-1.2 1.27-1.4l3.25-1.1c.6-.18 1.14.13 1.1.64-.05.53-.68 1.22-1.27 1.4l-3.25 1.1zM447.3 287.4c-.6.18-1.13-.15-1.08-.66s.68-1.2 1.27-1.38l3.24-1c.6-.17 1.13.17 1.08.68-.05.53-.7 1.2-1.28 1.38l-3.24.98zM440 303.98c-.62.1-1.1-.27-.96-.77s.9-1.1 1.52-1.2l3.4-.64c.63-.12 1.1.27.97.76-.14.52-.9 1.1-1.52 1.23l-3.4.63zM438.97 305.84c-.6.1-1.08-.3-.94-.8s.9-1.1 1.53-1.2l3.4-.53c.6-.1 1.07.3.92.8-.15.53-.9 1.1-1.52 1.2l-3.4.54zM437.93 307.9c-.63.1-1.1-.28-.97-.77s.9-1.1 1.52-1.23l3.42-.63c.62-.1 1.1.27.96.77-.15.52-.9 1.1-1.52 1.22l-3.4.63zM436.73 309.6c-.62.07-1.07-.35-.9-.84s.96-1.06 1.58-1.14l3.42-.44c.62-.08 1.07.34.9.83-.18.53-.96 1.08-1.58 1.16l-3.4.43zM443.45 296.62c-.6.15-1.13-.2-1.04-.7s.8-1.17 1.4-1.32l3.35-.86c.6-.15 1.13.2 1.04.7-.1.53-.8 1.17-1.4 1.32l-3.35.86zM443.12 298c-.6.1-1.08-.3-.94-.8s.9-1.08 1.53-1.18l3.4-.54c.6-.1 1.08.3.93.8-.15.52-.9 1.1-1.52 1.2l-3.38.53zM442.07 300.06c-.62.12-1.1-.27-.96-.76s.9-1.1 1.53-1.23l3.42-.62c.62-.12 1.1.26.96.76-.14.53-.9 1.12-1.5 1.23l-3.43.63zM441.05 301.92c-.62.1-1.1-.3-.94-.8s.92-1.1 1.53-1.2l3.4-.53c.6-.1 1.07.3.93.8-.15.5-.9 1.1-1.53 1.2l-3.38.52zM452.83 271.38c-.54.28-1.14.04-1.2-.47s.44-1.28 1-1.55l3-1.5c.53-.27 1.14-.03 1.2.48.05.53-.45 1.28-1 1.56l-3 1.48zM452.02 273.34c-.6.2-1.15-.1-1.1-.6s.64-1.23 1.22-1.43l3.23-1.12c.6-.2 1.14.1 1.1.6-.02.54-.64 1.24-1.23 1.44l-3.22 1.12zM451.4 275.33c-.6.2-1.14-.14-1.1-.65s.67-1.2 1.25-1.4l3.22-1.03c.6-.2 1.14.14 1.1.65-.04.53-.67 1.2-1.25 1.4l-3.22 1.03zM453.56 264.9c-.55.25-1.15 0-1.2-.52s.46-1.27 1-1.53l3.02-1.4c.54-.26 1.14 0 1.2.5.04.54-.46 1.3-1 1.54l-3.02 1.4zM453.33 267.12c-.54.27-1.14.04-1.2-.47s.44-1.3.98-1.56l3.02-1.5c.54-.28 1.14-.04 1.2.46.05.54-.44 1.3-1 1.56l-3 1.5zM453.06 269.16c-.55.25-1.15 0-1.2-.52s.46-1.27 1-1.53l3.02-1.4c.54-.25 1.14 0 1.2.52.04.54-.46 1.28-1 1.53l-3.02 1.4zM450.8 277.5c-.6.2-1.14-.1-1.1-.6s.64-1.23 1.23-1.43l3.23-1.13c.58-.2 1.14.1 1.1.6-.03.54-.64 1.24-1.23 1.44l-3.23 1.12zM449.94 279c-.6.2-1.13-.14-1.08-.65s.7-1.2 1.28-1.38l3.24-.98c.6-.2 1.13.14 1.08.65-.05.53-.7 1.2-1.28 1.38l-3.24.98zM449.3 281.18c-.6.2-1.15-.12-1.1-.63s.67-1.2 1.26-1.4l3.25-1.08c.6-.2 1.15.12 1.1.63-.04.53-.67 1.2-1.26 1.4l-3.25 1.08z"/></g><g fill="#b00" stroke="#000" stroke-width="12.791"><path d="M503.56 329.88c.63-.07.93-.56.6-1s-1.28-.8-1.9-.73l-3.48.35c-.63.06-.94.56-.6 1 .33.44 1.27.8 1.9.72l3.48-.34zM505.26 331.35c.62-.08.9-.58.57-1s-1.3-.8-1.9-.72l-3.42.42c-.6.08-.9.6-.56 1.02.35.45 1.3.78 1.9.7l3.42-.42zM507.05 333c.63-.06.94-.56.6-1s-1.27-.8-1.9-.72l-3.48.34c-.63.07-.93.56-.6 1 .34.44 1.28.8 1.9.73l3.48-.35zM484.64 311.52c.63.07 1.08-.34.9-.83s-1-1.05-1.64-1.13l-3.46-.4c-.63-.08-1.07.33-.9.82.2.5 1 1.04 1.64 1.1l3.46.42zM485.97 313.2c.62.04 1.04-.4.84-.88s-1.02-1-1.65-1.06l-3.43-.26c-.62-.05-1.05.38-.84.87.2.5 1.03 1 1.65 1.06l3.44.27zM487.25 315.15c.63.07 1.07-.35.87-.84s-1.02-1.02-1.65-1.08l-3.47-.35c-.63-.07-1.07.35-.87.84.2.5 1.02 1.04 1.65 1.1l3.47.35zM488.77 315.9c.63.02 1.02-.43.78-.9s-1.1-.96-1.73-.98l-3.45-.08c-.63 0-1.02.44-.78.92.24.5 1.1.95 1.73.97l3.44.08zM480.06 304.65c.6.13 1.1-.24 1-.74s-.87-1.12-1.5-1.25l-3.38-.7c-.62-.14-1.1.23-1 .73.14.52.87 1.13 1.5 1.26l3.38.7zM481.02 306.53c.6.12 1.1-.27.97-.77s-.88-1.12-1.5-1.23l-3.36-.62c-.62-.1-1.1.28-.97.78.14.53.87 1.12 1.48 1.23l3.37.63zM482 308.6c.6.14 1.1-.23 1-.73s-.87-1.13-1.5-1.26l-3.38-.7c-.62-.13-1.1.24-1 .74.14.52.87 1.13 1.5 1.26l3.38.7zM483.3 310.33c.62.1 1.1-.3.96-.8s-.9-1.1-1.5-1.2l-3.4-.57c-.6-.1-1.08.3-.94.8.14.52.9 1.1 1.5 1.2l3.4.57zM496.52 323.85c.63-.02.98-.5.7-.95s-1.2-.88-1.84-.86l-3.5.1c-.63.03-.98.5-.7.95.3.47 1.2.88 1.85.86l3.5-.1zM498.07 325.43c.63-.04.96-.52.67-.97s-1.2-.87-1.83-.84l-3.43.2c-.63.03-.96.52-.67.97.3.46 1.2.85 1.83.82l3.44-.2zM499.7 327.2c.64-.02 1-.5.7-.95s-1.2-.88-1.83-.86l-3.5.1c-.63.02-.98.5-.7.94.3.48 1.2.9 1.84.87l3.5-.1zM501.76 328.23c.62-.08.9-.6.57-1.02s-1.3-.77-1.9-.7l-3.42.43c-.6.08-.9.58-.56 1 .35.46 1.3.8 1.9.72l3.42-.42zM490.2 317.8c.64.03 1.04-.4.8-.9s-1.1-.96-1.72-1l-3.5-.16c-.62-.03-1.03.42-.8.9.25.48 1.1.96 1.74 1l3.5.16zM491.57 319.5c.63 0 1.02-.45.78-.92s-1.1-.96-1.74-.97l-3.44-.07c-.62-.02-1 .44-.77.9.24.5 1.1.97 1.72.98l3.45.1zM493.33 320.5c.64-.02 1-.5.7-.95s-1.2-.88-1.83-.86l-3.5.1c-.63.02-.98.5-.7.94.3.48 1.2.9 1.84.87l3.5-.1zM494.9 322.08c.6-.04.95-.52.66-.97s-1.2-.86-1.84-.83l-3.44.2c-.63.03-.96.52-.67.97.32.47 1.22.86 1.85.83l3.44-.2zM470.76 282.05c.57.22 1.14-.06 1.14-.57s-.58-1.25-1.16-1.47l-3.15-1.25c-.6-.22-1.16.06-1.16.57 0 .53.58 1.25 1.16 1.47l3.16 1.25zM471.34 282.97c.6.18 1.12-.16 1.07-.67s-.7-1.2-1.3-1.37l-3.25-.94c-.6-.18-1.13.15-1.07.66.06.54.7 1.2 1.3 1.37l3.26.94zM472.02 285.13c.6.2 1.14-.13 1.1-.64s-.7-1.2-1.3-1.4l-3.27-1.04c-.6-.2-1.14.13-1.1.64.06.53.7 1.2 1.3 1.4l3.27 1.03zM472.7 287.1c.6.17 1.14-.17 1.08-.68s-.7-1.2-1.3-1.36l-3.26-.95c-.6-.16-1.12.18-1.07.7.06.52.7 1.18 1.3 1.35l3.26.95zM469.3 275.64c.58.22 1.14-.1 1.13-.6s-.6-1.24-1.16-1.45l-3.16-1.17c-.57-.2-1.13.1-1.12.6 0 .54.6 1.24 1.17 1.46l3.15 1.14zM469.78 277.84c.57.23 1.15-.05 1.14-.56s-.58-1.25-1.15-1.48l-3.16-1.25c-.57-.23-1.14.06-1.13.57 0 .53.58 1.24 1.15 1.47l3.16 1.24zM470.28 279.85c.58.2 1.14-.1 1.13-.6s-.58-1.24-1.16-1.45l-3.15-1.16c-.6-.2-1.15.1-1.14.6 0 .54.6 1.24 1.16 1.45l3.16 1.15zM476.26 296.8c.6.14 1.12-.2 1.02-.72s-.8-1.15-1.42-1.3l-3.36-.82c-.6-.15-1.12.2-1.02.7.1.54.8 1.17 1.42 1.32l3.36.8zM477.14 298.7c.6.13 1.1-.24 1-.74s-.83-1.14-1.43-1.28l-3.33-.72c-.6-.13-1.1.24-1 .74.1.53.82 1.15 1.43 1.28l3.34.72zM478.02 300.8c.6.16 1.12-.2 1.02-.7s-.8-1.15-1.42-1.3l-3.36-.82c-.6-.15-1.12.2-1.02.7.1.54.8 1.17 1.42 1.3l3.36.83zM479.08 302.57c.6.1 1.1-.27.97-.78s-.87-1.12-1.5-1.23l-3.35-.63c-.62-.1-1.1.28-.97.78.14.52.87 1.12 1.48 1.23l3.38.62zM473.4 289.26c.6.2 1.13-.13 1.08-.64s-.7-1.2-1.3-1.4l-3.26-1.03c-.6-.2-1.13.12-1.08.63.05.53.7 1.2 1.3 1.4l3.26 1.03zM473.6 290.66c.62.13 1.12-.24 1-.74s-.8-1.14-1.42-1.28l-3.34-.72c-.6-.13-1.1.24-1 .74.12.53.82 1.15 1.43 1.28l3.34.72zM474.5 292.77c.6.15 1.1-.2 1-.7s-.8-1.16-1.4-1.3l-3.36-.83c-.62-.15-1.13.2-1.03.7.12.54.82 1.17 1.44 1.32l3.35.8zM475.37 294.68c.6.13 1.1-.24 1-.74s-.82-1.14-1.43-1.28l-3.33-.72c-.6-.13-1.1.24-1 .74.12.53.83 1.15 1.43 1.28l3.34.72zM466 263.56c.53.3 1.15.1 1.24-.4s-.33-1.3-.86-1.6l-2.88-1.67c-.52-.3-1.14-.1-1.23.4-.1.52.33 1.3.86 1.6l2.88 1.66zM466.67 265.56c.57.24 1.15-.03 1.16-.54s-.56-1.26-1.13-1.5l-3.13-1.3c-.57-.23-1.14.04-1.15.55 0 .54.55 1.26 1.12 1.5l3.13 1.3zM467.13 267.58c.57.22 1.14-.07 1.14-.6s-.56-1.23-1.13-1.45l-3.14-1.2c-.57-.23-1.14.06-1.14.58 0 .54.57 1.25 1.14 1.47l3.13 1.2zM465.8 257.05c.52.3 1.14.06 1.22-.44s-.35-1.3-.87-1.58l-2.9-1.57c-.52-.28-1.14-.06-1.23.45-.1.53.35 1.3.88 1.6l2.9 1.55zM465.84 259.28c.53.3 1.15.1 1.24-.4s-.33-1.3-.86-1.6l-2.88-1.67c-.52-.3-1.14-.1-1.23.42-.1.52.34 1.3.86 1.6l2.88 1.66zM465.96 261.33c.53.3 1.14.06 1.23-.44s-.36-1.32-.9-1.6l-2.88-1.57c-.53-.28-1.14-.06-1.23.45-.1.53.34 1.3.86 1.58l2.9 1.57zM467.56 269.78c.57.24 1.15-.03 1.15-.54s-.54-1.26-1.1-1.5l-3.14-1.3c-.57-.23-1.15.04-1.16.55 0 .52.56 1.25 1.13 1.48l3.13 1.3zM468.3 271.34c.58.2 1.14-.1 1.13-.6s-.6-1.24-1.17-1.46l-3.15-1.15c-.57-.22-1.13.1-1.12.6 0 .53.6 1.24 1.16 1.45l3.16 1.16zM468.78 273.53c.57.23 1.14-.05 1.14-.56s-.58-1.25-1.16-1.48l-3.16-1.26c-.57-.23-1.14.06-1.14.57 0 .54.58 1.26 1.16 1.48l3.16 1.25z"/></g><path fill="#fff133" stroke="#000" stroke-width="1.197" d="M344.54-596.3l9.15 22.15s1.45-9.77 8.52-11.53l7.07-1.77s26.85 49.33 32.16 58.17c5.3 8.83-3.54 16.8-1.77 16.8 1.76 0 26.5-11.5 26.5-11.5s-10.6.88-15.02-6.2-34.82-59.92-34.82-59.92 6.2-2.65 11.5-5.3c5.3-2.66 10.6 7.95 10.6 7.95l-13.26-26.52s0 8.84-4.42 10.6c-4.42 1.78-7.96 3.54-7.96 3.54s-3.53-6.18-7.95-13.25c-4.42-7.08 4.42-14.15 4.42-14.15l-23 11.5s7.96 4.4 10.62 8.83l5.3 8.84s-3.22 1.77-8.22 3.48c-3.58 1.88-7.7.06-9.46-1.7z" transform="matrix(-.24 .004 .005 .199 535.969 340.492)"/><g transform="matrix(.144 0 0 .121 423.643 295.291)"><path fill="#c0c0c0" d="M324.55-255.37l-50.1 50.1L449.8-29.86l50.1-50.1z"/><ellipse cx="354.33" cy="-1428" fill="#fff133" stroke="#000" stroke-width="1.197" rx="35.433" ry="35.433" transform="scale(-1 1) rotate(45 -177.879 -1104.595)"/><path fill="#c0c0c0" stroke="#000" stroke-width="1.197" d="M-402.05-956.9l37.6 37.57-25.07 25.06-37.58-37.6c-12.53-12.5 12.53-37.57 25.05-25.04z"/><path fill="#fff133" stroke="#000" stroke-width="1.197" d="M-346.6-926.53l-50.12 50.1c-13.8 0-25.35-11.54-25.05-25.05 10.88-25.87 25.03-38.43 50.1-50.1 12.5.72 24.23 10.9 25.06 25.05z"/><path fill="#c0c0c0" stroke="#000" stroke-width="1.197" d="M-351.93-931.85l37.6 37.58-50.12 50.1-37.6-37.57c5.04-20.03 30.1-45.08 50.12-50.1z"/><path fill="#fff133" stroke="#000" stroke-width="1.197" d="M-309.03-888.95l-50.1 50.1c-13.8 0-25.36-11.54-25.06-25.05 10.9-25.87 25.04-38.43 50.12-50.1 12.48.72 24.22 10.9 25.05 25.05z"/><path fill="#c0c0c0" stroke="#000" stroke-width="1.197" d="M-314.36-894.28l342.8 342.8-50.1 50.1-342.8-342.8c5.02-20.02 30.08-45.07 50.1-50.1z"/><path fill="#fff133" stroke="#000" stroke-width="1.197" d="M48.93-530.97l-50.1 50.1c-13.8 0-25.36-11.54-25.06-25.05 10.88-25.87 25.03-38.43 50.1-50.1 12.5.72 24.23 10.9 25.06 25.05z"/><path fill="#c0c0c0" stroke="#000" stroke-width="1.197" d="M48.94-530.98l225.5 225.5-50.1 50.1-225.5-225.5c5.02-20 30.08-45.07 50.1-50.1zM186.74-418.23l-75.16 75.17c-13.8 0-25.35-11.56-25.06-25.06 0 0 0-25.05 25.06-50.1s50.1-25.06 50.1-25.06c11.65 1.56 21.42 12.52 25.06 25.05zM186.74-418.23l50.1 75.17-50.1 50.1-75.16-50.1c-2.83-2.45 0-25.06 25.05-50.12s48.98-24.45 50.1-25.05z"/><path fill="#c0c0c0" stroke="#000" stroke-width="1.197" d="M336.6-506.7c0-35.42 0-86.64 17.73-129.97 17.7 43.33 17.7 94.55 17.7 129.98h-35.42z" transform="rotate(135 434.752 18.668) scale(1 -.818)"/><path fill="#c0c0c0" stroke="#000" stroke-width="1.197" d="M318.9-506.7h17.72V-550c0-43.32-35.44-65-35.44-65l17.72 108.33z" transform="rotate(-45 399.396 -194.158) scale(1 .818)"/><path fill="#c0c0c0" stroke="#000" stroke-width="1.197" d="M318.9-506.7h17.72V-550c0-43.32-35.44-65-35.44-65l17.72 108.33z" transform="rotate(135 434.752 18.668) scale(1 -.818)"/><path fill="#fff133" stroke="#000" stroke-width="1.197" d="M-314.36-894.28l37.6 37.58c25.04 25.06 112.73 137.8 112.73 137.8s117.3 92.25 142.36 117.3L15.9-564c-25.05-25.06-179.93-129.84-179.93-129.84S-71.78-551.48-34.2-513.9l-37.58-37.58c-25.06-25.05-117.3-142.36-117.3-142.36S-289.3-769-314.36-794.06l-50.1-50.12c25.05 25.06 175.37 125.3 175.37 125.3s-100.2-150.35-125.26-175.4z"/><path fill="#c0c0c0" stroke="#000" stroke-width="1.197" d="M299.5-230.32c50.1 75.17 100.2 125.28 112.74 137.8 23.77 23.82 50.1 25.06 50.1 25.06s0-25.06-25.05-50.1c-12.54-12.54-62.65-62.65-137.8-112.76zm-62.65-112.75c87.7 87.7 187.92 137.8 250.56 200.44 50.1 50.1 15.42 88.47 1.45 100.6-13.97 12.15-51.97 50.3-101.67-.38-62.63-62.64-112.74-162.86-200.44-250.56 0-25.05 25.06-50.1 50.1-50.1z"/><path fill="#c0c0c0" stroke="#000" stroke-width="1.89.197" d="M543-73.15l-28.64-32.6-99.3 96.24 28.65 32.6z"/><g fill="#c0c0c0" stroke="#000"><path d="M-330.5-843.27l-40.66 39.75 40.65 39.75-20.34 19.88-40.65-39.74-81.3 79.5 40.66 39.75-20.33 19.9-40.65-39.76-40.65 39.75 121.95 119.25 81.3-79.5-40.64-39.76-20.33 19.87-20.32-19.88 81.3-79.52 20.33 19.88-20.3 19.88 40.64 39.75 40.65-39.76-20.33-19.88 20.32-19.88 81.3 79.5-20.33 19.88-20.32-19.87-40.66 39.74 40.65 39.75 20.32-19.88L-167.9-565l-81.3 79.5-20.33-19.88 20.32-19.88-40.66-39.75-81.3 79.5 121.95 119.26 40.65-39.76-40.66-39.75 20.32-19.87 40.65 39.75 81.3-79.5-40.65-39.76 20.33-19.88 40.65 39.75L-45.94-565-330.52-843.3zM-208.56-406v39.75l-101.63 99.38v-79.5l20.33-19.88h40.65l40.66-39.75zM-106.93-504.56l-80.74 78.96-.96 39.48 81.7-79.9v-38.54zM-188.23-386.12l-40.66-39.75v-39.76l40.67 39.76v39.75zM-86.6-485.5l-40.66-39.76V-565l40.66 39.74v39.76zM-127.25-565v39.74l-20.33-19.87 20.33-19.88zM-228.9-465.63v39.75l-20.3-19.87 20.3-19.88zM-45.54-565l-41.06 39.74v39.76l41.06-40.97V-565zM-289.86-604.76l-40.66-39.75v-39.76l40.66 39.75v39.74zM-208.56-525.26L-249.2-565v-39.76l40.64 39.75v39.74zM-188.23-624.64l-60.98-59.63v-39.75l81.3 79.5-20.33 19.88zM-249.2-724.02v39.76l-20.34-19.88 20.33-19.88zM-289.86-604.76l40.65-39.75v-39.76l-40.66 39.75v39.74zM-391.5-624.64l61-59.63v-39.75l-81.32 79.5 20.33 19.88zM-330.5-604.76l-81.3 79.5h-40.67l-20.32 19.88v79.5l142.3-139.53v-39.36zM-249.2-366.24L-371.18-485.5h-40.65l121.95 119.26h40.66zM-310.2-346.37l-121.95-119.26 20.33-19.87 121.96 119.26-20.33 19.87zM-310.2-346.37v79.5l-121.95-119.26v-79.5l121.96 119.26zM-411.82-525.25L-533.78-644.5h-40.65l121.96 119.25h40.65zM-472.8-505.38l-121.96-119.26 20.33-19.87 121.96 119.25-20.33 19.87zM-472.8-505.38v79.5l-121.96-119.25v-79.5L-472.8-505.4zM-452.48-644.5l-20.33-19.88v-39.76l40.65 39.76-20.33 19.87zM-350.85-743.9l-20.33-19.86v-39.75l40.65 39.74-20.32 19.87zM-249.22-485.5v-39.75l-20.32 19.87 20.32 19.88zM-208.56-525.26L-167.9-565l-20.34-19.9-20.32 19.9v39.74zM-330.52-684.27l20.32-19.87-20.32-19.88v39.75z"/></g><path fill="#fff133" stroke="#000" stroke-width="1.89.197" d="M574.3-47.27l-31.52-35.76L433.5 22.53l31.53 35.77z"/><path fill="#c0c0c0" stroke="#000" stroke-width="1.197" d="M336.6 166.54c0 14.67 35.44 35.43 35.44-17.72H336.6v17.72zM242.1 24.8c-147.06 0-113.13 164.24-100.37 124.02 9.36-29.5 35.43-70.86 64.94-80.22 40.22-12.76 26.7 9.36 41.36 9.36 14.67 0 1.14-22.12 41.36-9.36 29.5 9.36 55.57 50.72 64.93 80.22C367.1 189.05 407.48 24.8 242.1 24.8zM389.76 166.54c0 78.24-63.5 141.73-141.73 141.73-78.24 0-141.73-63.5-141.73-141.73v-17.72c0-29.1 35.43 124.02 141.73 124.02s141.73-124.77 141.73-124.02v17.72z" transform="matrix(-1.899 0 0 1.887 1166.1 -102.64)"/><path fill="#c0c0c0" stroke="#000" stroke-width="1.197" d="M336.6 166.54c0 14.67 35.44 35.43 35.44-17.72H336.6v17.72z" transform="matrix(1.899 0 0 1.887 224 -100.51)"/><path fill="#c0c0c0" stroke="#000" stroke-width="1.197" d="M389.76 148.82c0 78.24-63.5 141.73-141.73 141.73-78.24 0-141.73-63.5-141.73-141.73C106.3 70.58 169.8 7.1 248.03 7.1c78.24 0 141.73 63.5 141.73 141.72zm-53.15 0c0 14.67 22.82 3.04 9.37 43.04-9.36 27.83-27.08 45.54-56.58 54.9-40.23 12.76-26.7-9.36-41.37-9.36-14.67 0-1.14 22.12-41.37 9.36-29.5-9.36-47.22-27.07-56.57-56.58-12.77-40.22 9.34-26.7 9.34-41.36 0-14.67-22.1-1.14-9.35-41.36 9.34-29.5 27.06-47.22 56.56-56.58 40.23-12.76 26.7 9.36 41.37 9.36 14.67 0 1.14-22.12 41.36-9.36 29.5 9.36 47.2 27.07 56.57 56.58 12.76 40.22-9.36 26.7-9.36 41.36z" transform="matrix(-1.899 0 0 1.887 1166.1 -102.64)"/><path fill="#c0c0c0" stroke="#000" stroke-width="1.197" d="M126.55 157.68c-20.25 0-1.93 67.6-9.1 51.7s-11.15-33.36-11.15-51.7 3.97-35.8 11.15-51.7c7.17-15.9-11.15 51.7 9.1 51.7z" transform="matrix(-1.662 0 0 1.761 1107.2 -99.519)"/><path fill="#c0c0c0" stroke="#000" stroke-width="1.197" d="M372.05 139.96c0 15.9-2.13 31.63-9.75 44.8-7.97 13.8 9.75-44.8-7.97-44.8 17.72 0 1.7-58.6 7.97-44.8 6.28 13.77 9.75 28.9 9.75 44.8z" transform="matrix(-1.899 0 0 2.032 1166.1 -106.24)"/><path fill="#c0c0c0" stroke="#000" stroke-width="1.197" d="M296.3 263.08c-14.85 6.28-31.15 9.75-48.27 9.75s-33.42-3.47-48.25-9.75c-14.84-6.28 48.25 9.75 48.25-7.97 0 17.73 63.1 1.7 48.26 7.98zM248.02 42.52c0-17.72-63.1-1.7-48.26-7.97s31.15-9.75 48.26-9.75 33.42 3.48 48.26 9.75c14.82 6.28-48.27-9.75-48.27 7.97z" transform="matrix(-1.899 0 0 1.887 1166.1 -102.64)"/><ellipse cx="82.112" cy="160.86" fill="#fff133" stroke="#000" stroke-width="1.197" rx="18.433" ry="20.109" transform="matrix(-1.293 -1.382 -1.391 1.284 1257.6 -120.02)"/><path fill="#fff133" stroke="#000" stroke-width="1.89.197" d="M851.5-39.58c14.56 10.32 28.3 22.24 40.93 35.75s23.6 28 32.9 43.16l11.55-6.96c-9.76-15.94-21.28-31.13-34.56-45.32s-27.7-26.72-42.98-37.56L851.5-39.6zM465.4 317.1c9.3 15.17 20.27 29.64 32.9 43.16S524.7 385.7 539.24 396l-7.83 10.94c-15.3-10.84-29.7-23.36-42.98-37.55s-24.8-29.4-34.56-45.34l11.54-6.96zM447.9 356.13c9.3 15.18 24.8 29.1 37.45 42.6 12.64 13.52 28.57 23.3 43.12 33.62l2.93-25.42c-15.28-10.83-29.7-23.36-42.98-37.55s-24.8-29.4-34.56-45.32l-5.97 32.07zM834.6 407.5c15.26-9.23 29.83-20.12 43.44-32.68s25.6-26.2 36-40.65l11 7.8c-10.92 15.17-23.52 29.5-37.8 42.67s-29.6 24.63-45.64 34.33l-7-11.46z"/><ellipse cx="82.112" cy="160.86" fill="#fff133" stroke="#000" stroke-width="1.197" rx="18.433" ry="20.109" transform="matrix(-1.293 -1.382 -1.391 1.284 789.14 314.38)"/><path fill="#fff133" stroke="#000" stroke-width="1.89.197" d="M842.27 417.42c15.27-9.23 27.6-17.9 41.2-30.45s31.23-30.66 41.62-45.12l3.1 30.14c-10.9 15.17-23.5 29.5-37.8 42.68S860.83 439.3 844.8 449l-2.5-31.58z"/><path fill="#fff133" stroke="#000" stroke-width="1.197" d="M173.94 271.77l-.84 14.84-3.24 4.5.98-15.08 3.1-4.25zm156.6-6.17l3.56 4.2 1.05 13.6-2.93-2.93-1.68-14.87z" transform="matrix(-1.899 0 0 1.887 1166.1 -102.64)"/><ellipse cx="82.112" cy="160.86" fill="#fff133" stroke="#000" stroke-width="1.197" rx="18.433" ry="20.109" transform="matrix(-1.293 -1.382 -1.391 1.284 1237.6 329.88)"/></g><path fill="#fff" stroke="#000" stroke-width="1.197" d="M513.78-790.16l35.43-17.7 35.44 17.7s-73.36 35.43-73.36 159.45c0 88.57 125.26 106.3 125.26 212.6 0 45.64-34.18 88.57-69.62 88.57s-88.58-17.7-141.73-70.86c35.43 17.72 76.07 37.3 106.3 36.06 19.58-.4 55.02-17.7 55.02-53.15 0-70.85-122.77-106.9-122.77-213.2 0-124.02 50.02-159.45 50.02-159.45zM520.25-790.16l46.68-17.72 10 17.72s-70.65 35.43-70.65 159.45c0 88.57 125.9 106.3 125.9 212.6 0 45.64-26.72 87.35-65.25 88.57-73.4 2.36-90.45-23.96-141.73-70.86 43.15 32.3 105 46.76 129.02 34.2 29.36-15.38 35.03-36.07 35.03-53.8 0-70.85-120.9-104.4-120.9-210.7 0-124.02 51.9-159.45 51.9-159.45zM513.34-789.7c7-2.43 35.88-18.18 71.3 17.26 17.73 17.72 17.72 53.15 17.72 70.86l53.15-53.15s-29.05-86.87-107.6-53.6c-11.13 4.9-28.14 14.55-34.55 18.64zM523.8-795.94c8.84-2.87 36.68-6.33 64.6 18.5 17.7 17.72 18.96 42.93 18.96 60.65L648-754.7c3.45-3.2-24.82-81.25-99.23-54.04-4.5 1.8-14.78 6.3-24.97 12.82z" transform="matrix(-.24 0 0 .199 534.09 334.357)"/><path fill="#fff133" stroke="#000" stroke-width="1.197" d="M344.54-596.3l9.15 22.15s1.45-9.77 8.52-11.53l7.07-1.77s26.85 49.33 32.16 58.17c5.3 8.83-3.54 16.8-1.77 16.8 1.76 0 26.5-11.5 26.5-11.5s-10.6.88-15.02-6.2-34.82-59.92-34.82-59.92 6.2-2.65 11.5-5.3c5.3-2.66 10.6 7.95 10.6 7.95l-13.26-26.52s0 8.84-4.42 10.6c-4.42 1.78-7.96 3.54-7.96 3.54s-3.53-6.18-7.95-13.25c-4.42-7.08 4.42-14.15 4.42-14.15l-23 11.5s7.96 4.4 10.62 8.83l5.3 8.84s-3.22 1.77-8.22 3.48c-3.58 1.88-7.7.06-9.46-1.7z" transform="matrix(-.195 -.021 -.067 .173 439.546 337.121)"/><path fill="#fff133" stroke="#000" stroke-width="1.197" d="M344.54-596.3l9.15 22.15s1.45-9.77 8.52-11.53l7.07-1.77s26.85 49.33 32.16 58.17c5.3 8.83-3.54 16.8-1.77 16.8 1.76 0 26.5-11.5 26.5-11.5s-10.6.88-15.02-6.2-34.82-59.92-34.82-59.92 6.2-2.65 11.5-5.3c5.3-2.66 10.6 7.95 10.6 7.95l-13.26-26.52s0 8.84-4.42 10.6c-4.42 1.78-7.96 3.54-7.96 3.54s-3.53-6.18-7.95-13.25c-4.42-7.08 4.42-14.15 4.42-14.15l-23 11.5s7.96 4.4 10.62 8.83l5.3 8.84s-3.22 1.77-8.22 3.48c-3.58 1.88-7.7.06-9.46-1.7z" transform="matrix(.178 .024 .003 -.133 320.605 95.229)"/><g transform="matrix(.144 0 0 .121 423.643 295.291)"><g transform="rotate(45 478.12 -504.573)"><ellipse cx="354.33" cy="-1428" fill="#c0c0c0" stroke="#000" stroke-width="1.197" rx="35.433" ry="35.433" transform="translate(124.01 283.46)"/><path fill="#fff133" stroke="#000" stroke-width="1.197" d="M460.63-1126.77v53.15h35.43v-53.15c0-17.72-35.43-17.72-35.43 0z"/><path fill="#c0c0c0" stroke="#000" stroke-width="1.197" d="M442.9-1066.1h70.88c9.75-9.75 9.75-26.1 0-35.42-26-10.6-44.88-9.48-70.87 0-8.3 9.34-9.4 24.82 0 35.43z"/><path fill="#fff133" stroke="#000" stroke-width="1.197" d="M442.9-1073.62v53.15h70.88v-53.15c-17.72-10.6-53.15-10.6-70.87 0z"/><path fill="#c0c0c0" stroke="#000" stroke-width="1.197" d="M442.9-1012.94h70.88c9.75-9.76 9.75-26.1 0-35.43-26-10.6-44.88-9.48-70.87 0-8.3 9.33-9.4 24.82 0 35.43z"/><path fill="#fff133" d="M442.9-116.93h70.88V131.1H442.9z"/><path fill="#fff133" stroke="#000" stroke-width="1.197" d="M442.9-1020.48l.02 484.8h70.86v-484.8c-17.72-10.6-53.15-10.6-70.87 0z"/><path fill="#c0c0c0" stroke="#000" stroke-width="1.197" d="M442.92-506.7h70.87c9.74-9.75 9.74-26.1 0-35.43-26-10.6-44.9-9.48-70.88 0-8.3 9.34-9.42 24.83 0 35.43z"/><path fill="#fff133" stroke="#000" stroke-width="1.197" d="M442.92-506.7v318.9h70.87v-318.9c-17.73-10.6-53.16-10.6-70.88 0zM425.2-329.53h106.3c9.75-9.76 9.75-26.1 0-35.43 0 0-17.73-17.72-53.16-17.72s-53.15 17.72-53.15 17.72c-7.13 9.34-6.3 24 0 35.43zM425.2-329.53l17.7 88.58h70.87l17.72-88.58c.26-3.73-17.73-17.72-53.16-17.72s-51.93 17.35-53.15 17.72z"/><path fill="#fff133" stroke="#000" stroke-width="1.197" d="M336.6-506.7c0-35.42 0-86.64 17.73-129.97 17.7 43.33 17.7 94.55 17.7 129.98h-35.42z" transform="matrix(1 0 0 .818 124.01 173.44)"/><path fill="#fff133" stroke="#000" stroke-width="1.197" d="M318.9-506.7h17.72V-550c0-43.32-35.44-65-35.44-65l17.72 108.33z" transform="matrix(-1 0 0 .818 832.67 173.44)"/><path fill="#fff133" stroke="#000" stroke-width="1.197" d="M318.9-506.7h17.72V-550c0-43.32-35.44-65-35.44-65l17.72 108.33z" transform="matrix(1 0 0 .818 124.01 173.44)"/><path fill="#fff133" stroke="#000" stroke-width="1.197" d="M478.34-116.93c17.72 88.58 17.72 159.45 17.72 177.16.03 33.65-17.72 53.15-17.72 53.15s-17.72-17.72-17.72-53.15c0-17.72 0-88.58 17.72-177.16zM442.9-240.95c0 124.02-35.43 230.32-35.43 318.9 0 70.87 51.66 73.45 70.12 72.16 18.46-1.28 72.3-1.18 71.6-72.15 0-88.58-35.43-194.88-35.43-318.9-17.7-17.72-53.15-17.72-70.86 0z"/><path fill="#c0c0c0" stroke="#000" stroke-width="1.197" d="M442.9-1020.48v53.15c0 35.44 17.73 177.16 17.73 177.16s-17.7 148.17-17.7 183.6v53.16c0-35.44 35.4-219.05 35.4-219.05s35.45 165.9 35.45 219.04v-53.16c0-35.43-17.7-183.6-17.72-183.6 0 0 17.72-124.03 17.72-159.46v-70.86c0 35.43-35.43 212.6-35.43 212.6s-35.44-177.17-35.44-212.6z"/></g><path fill="#fff133" stroke="#000" stroke-width="1.89.197" d="M-39.35-73.15l28.64-32.6L88.57-9.5 59.94 23.1z"/><path fill="#fff133" stroke="#000" stroke-width="1.197" d="M336.6 166.54c0 14.67 35.44 35.43 35.44-17.72H336.6v17.72zM242.1 24.8c-147.06 0-113.13 164.24-100.37 124.02 9.36-29.5 35.43-70.86 64.94-80.22 40.22-12.76 26.7 9.36 41.36 9.36 14.67 0 1.14-22.12 41.36-9.36 29.5 9.36 55.57 50.72 64.93 80.22C367.1 189.05 407.48 24.8 242.1 24.8zM389.76 166.54c0 78.24-63.5 141.73-141.73 141.73-78.24 0-141.73-63.5-141.73-141.73v-17.72c0-29.1 35.43 124.02 141.73 124.02s141.73-124.77 141.73-124.02v17.72z" transform="matrix(1.899 0 0 1.887 -662.45 -102.64)"/><ellipse cx="82.112" cy="160.86" fill="#c0c0c0" stroke="#000" stroke-width="1.197" rx="18.433" ry="20.109" transform="matrix(1.293 -1.382 1.391 1.284 -753.9 -120.02)"/><path fill="#c0c0c0" stroke="#000" stroke-width="1.89.197" d="M-70.65-47.27l31.52-35.76L70.14 22.53 38.62 58.3z"/><path fill="#fff133" stroke="#000" stroke-width="1.197" d="M336.6 166.54c0 14.67 35.44 35.43 35.44-17.72H336.6v17.72z" transform="matrix(-1.899 0 0 1.887 279.67 -100.51)"/><path fill="#fff133" stroke="#000" stroke-width="1.197" d="M389.76 148.82c0 78.24-63.5 141.73-141.73 141.73-78.24 0-141.73-63.5-141.73-141.73C106.3 70.58 169.8 7.1 248.03 7.1c78.24 0 141.73 63.5 141.73 141.72zm-53.15 0c0 14.67 22.82 3.04 9.37 43.04-9.36 27.83-27.08 45.54-56.58 54.9-40.23 12.76-26.7-9.36-41.37-9.36-14.67 0-1.14 22.12-41.37 9.36-29.5-9.36-47.22-27.07-56.57-56.58-12.77-40.22 9.34-26.7 9.34-41.36 0-14.67-22.1-1.14-9.35-41.36 9.34-29.5 27.06-47.22 56.56-56.58 40.23-12.76 26.7 9.36 41.37 9.36 14.67 0 1.14-22.12 41.36-9.36 29.5 9.36 47.2 27.07 56.57 56.58 12.76 40.22-9.36 26.7-9.36 41.36z" transform="matrix(1.899 0 0 1.887 -662.45 -102.64)"/><path fill="#fff133" stroke="#000" stroke-width="1.197" d="M126.55 157.68c-20.25 0-1.93 67.6-9.1 51.7s-11.15-33.36-11.15-51.7 3.97-35.8 11.15-51.7c7.17-15.9-11.15 51.7 9.1 51.7z" transform="matrix(1.662 0 0 1.761 -603.57 -99.519)"/><path fill="#fff133" stroke="#000" stroke-width="1.197" d="M372.05 139.96c0 15.9-2.13 31.63-9.75 44.8-7.97 13.8 9.75-44.8-7.97-44.8 17.72 0 1.7-58.6 7.97-44.8 6.28 13.77 9.75 28.9 9.75 44.8z" transform="matrix(1.899 0 0 2.032 -662.45 -106.24)"/><path fill="#fff133" stroke="#000" stroke-width="1.197" d="M296.3 263.08c-14.85 6.28-31.15 9.75-48.27 9.75s-33.42-3.47-48.25-9.75c-14.84-6.28 48.25 9.75 48.25-7.97 0 17.73 63.1 1.7 48.26 7.98zM248.02 42.52c0-17.72-63.1-1.7-48.26-7.97s31.15-9.75 48.26-9.75 33.42 3.48 48.26 9.75c14.82 6.28-48.27-9.75-48.27 7.97z" transform="matrix(1.899 0 0 1.887 -662.45 -102.64)"/><path fill="#c0c0c0" stroke="#000" stroke-width="1.89.197" d="M-347.84-39.58c-14.55 10.32-28.28 22.24-40.92 35.75s-23.6 28-32.9 43.16l-11.55-6.96c9.75-15.94 21.27-31.13 34.55-45.32s27.7-26.72 42.98-37.56l7.83 10.92zM38.24 317.1c-9.3 15.17-20.27 29.64-32.9 43.16S-21.05 385.7-35.6 396l7.84 10.94c15.3-10.84 29.7-23.36 42.98-37.55s24.8-29.4 34.56-45.34l-11.54-6.96zM55.75 356.13c-9.3 15.18-24.8 29.1-37.46 42.6-12.65 13.52-28.58 23.3-43.13 33.62l-2.93-25.42c15.28-10.83 29.7-23.36 42.98-37.55s24.8-29.4 34.56-45.32l5.97 32.07zM-330.93 407.5c-15.27-9.23-29.84-20.12-43.45-32.68s-25.6-26.2-36-40.65l-11 7.8c10.92 15.17 23.52 29.5 37.8 42.67s29.6 24.63 45.64 34.33l7-11.46z"/><ellipse cx="82.112" cy="160.86" fill="#c0c0c0" stroke="#000" stroke-width="1.197" rx="18.433" ry="20.109" transform="matrix(1.293 -1.382 1.391 1.284 -285.47 314.38)"/><path fill="#c0c0c0" stroke="#000" stroke-width="1.89.197" d="M-338.6 417.42c-15.27-9.23-27.6-17.9-41.2-30.45s-31.23-30.66-41.62-45.12l-3.12 30.14c10.9 15.17 23.5 29.5 37.8 42.68s29.6 24.63 45.63 34.33l2.5-31.58z"/><path fill="#c0c0c0" stroke="#000" stroke-width="1.197" d="M173.94 271.77l-.84 14.84-3.24 4.5.98-15.08 3.1-4.25zm156.6-6.17l3.56 4.2 1.05 13.6-2.93-2.93-1.68-14.87z" transform="matrix(1.899 0 0 1.887 -662.45 -102.64)"/><ellipse cx="82.112" cy="160.86" fill="#c0c0c0" stroke="#000" stroke-width="1.197" rx="18.433" ry="20.109" transform="matrix(1.293 -1.382 1.391 1.284 -733.89 329.88)"/><g fill="#fff133" stroke="#000"><path d="M834.18-843.27l40.65 39.75-40.65 39.75 20.33 19.88 40.66-39.74 81.3 79.5-40.65 39.75 20.34 19.9 40.65-39.76 40.64 39.75L915.5-525.26l-81.32-79.5 40.65-39.76 20.33 19.87 20.33-19.88-81.32-79.52-20.32 19.88 20.32 19.88-40.65 39.75-40.65-39.76 20.32-19.88-20.32-19.88-81.3 79.5 20.32 19.88 20.32-19.87 40.66 39.74L712.22-565 691.9-584.9 671.57-565l81.3 79.5 20.33-19.88-20.32-19.88L793.53-565l81.3 79.5-121.95 119.26L712.22-406l40.66-39.75-20.33-19.87-40.65 39.75-81.3-79.5 40.65-39.76L630.92-565l-40.65 39.75L549.6-565 834.2-843.3zM712.23-406v39.75l101.63 99.38v-79.5l-20.32-19.88H752.9L712.22-406zM610.6-504.56l80.74 78.96.96 39.48-81.7-79.9v-38.54zM691.9-386.12l40.66-39.75v-39.76l-40.66 39.76v39.75zM590.27-485.5l40.66-39.76V-565l-40.66 39.74v39.76zM630.92-565v39.74l20.33-19.87L630.92-565zM732.56-465.63v39.75l20.32-19.87-20.32-19.88zM549.2-565l41.07 39.74v39.76l-41.06-40.97V-565zM793.53-604.76l40.66-39.75v-39.76l-40.67 39.75v39.74zM712.23-525.26L752.88-565v-39.76L712.23-565v39.74zM691.9-624.64l60.98-59.63v-39.75l-81.3 79.5 20.32 19.88zM752.88-724.02v39.76l20.33-19.88-20.32-19.88zM793.53-604.76l-40.65-39.75v-39.76l40.65 39.75v39.74zM895.16-624.64l-60.98-59.63v-39.75l81.3 79.5-20.32 19.88zM834.18-604.76l81.3 79.5h40.66l20.32 19.88v79.5L834.18-565.4v-39.36zM752.88-366.24L874.84-485.5h40.65L793.53-366.24h-40.66zM813.86-346.37l121.96-119.26-20.33-19.87-121.97 119.26 20.33 19.87zM813.86-346.37v79.5l121.96-119.26v-79.5L813.86-346.37zM915.5-525.25l121.95-119.26h40.65L956.14-525.26H915.5zM976.47-505.38l121.96-119.26-20.33-19.87-121.96 119.25 20.33 19.87zM976.47-505.38v79.5l121.96-119.25v-79.5L976.47-505.4zM956.15-644.5l20.33-19.88v-39.76l-40.66 39.76 20.33 19.87zM854.52-743.9l20.33-19.86v-39.75l-40.65 39.74 20.32 19.87zM752.9-485.5v-39.75l20.3 19.87-20.3 19.88zM712.23-525.26L671.58-565l20.33-19.9 20.33 19.9v39.74zM834.2-684.27l-20.33-19.87 20.32-19.88v39.75z"/></g></g><g fill="#b00" stroke="#000" stroke-width="17.958"><path d="M456.64 274.78c-.5-.32-1.14-.13-1.25.37s.26 1.32.77 1.64l2.8 1.74c.5.32 1.13.14 1.25-.36.12-.53-.27-1.32-.78-1.64l-2.8-1.76zM456.62 272.74c-.5-.3-1.13-.1-1.25.4s.3 1.3.8 1.6l2.82 1.68c.5.3 1.13.1 1.24-.4.12-.53-.3-1.32-.8-1.62l-2.82-1.66zM456.68 270.5c-.5-.32-1.13-.14-1.25.37s.27 1.32.78 1.63l2.8 1.76c.5.32 1.14.14 1.26-.37.12-.53-.27-1.33-.78-1.64l-2.8-1.76zM456.67 268.45c-.52-.3-1.14-.1-1.25.4s.28 1.32.8 1.62l2.8 1.66c.53.3 1.15.1 1.26-.4.12-.53-.28-1.3-.8-1.6l-2.8-1.68zM456.55 283.35c-.5-.32-1.14-.14-1.25.36s.27 1.33.78 1.65l2.8 1.75c.5.32 1.13.14 1.25-.36.12-.52-.27-1.32-.78-1.64l-2.8-1.75zM456.53 281.3c-.5-.3-1.13-.1-1.25.4s.3 1.3.8 1.62l2.82 1.66c.5.3 1.14.1 1.25-.4.12-.53-.3-1.3-.8-1.62l-2.82-1.66zM456.6 279.07c-.5-.32-1.14-.14-1.26.36s.27 1.32.78 1.64l2.8 1.75c.5.32 1.13.14 1.25-.36.13-.52-.27-1.32-.78-1.64l-2.8-1.75zM456.58 277.02c-.5-.3-1.14-.1-1.25.4s.3 1.3.8 1.6l2.82 1.68c.5.3 1.13.1 1.25-.4.1-.53-.3-1.32-.8-1.62l-2.82-1.66zM456.82 257.65c-.5-.3-1.14-.13-1.26.37s.27 1.32.78 1.64l2.8 1.75c.5.33 1.13.15 1.25-.35.12-.53-.28-1.32-.8-1.64l-2.78-1.75zM456.8 255.6c-.5-.3-1.14-.1-1.25.4s.3 1.32.8 1.62l2.82 1.67c.5.3 1.14.1 1.25-.4.12-.54-.3-1.33-.8-1.63l-2.82-1.66zM456.86 253.37c-.5-.3-1.14-.13-1.25.37s.28 1.32.8 1.64l2.78 1.75c.5.32 1.14.14 1.26-.36.12-.53-.27-1.32-.78-1.64l-2.8-1.76zM456.84 251.33c-.5-.3-1.13-.1-1.25.4s.28 1.3.8 1.6l2.8 1.68c.52.3 1.15.1 1.26-.4.12-.52-.3-1.3-.8-1.6l-2.82-1.67zM456.73 266.22c-.5-.32-1.14-.14-1.26.36s.27 1.32.78 1.64l2.8 1.76c.5.32 1.14.13 1.25-.37.13-.5-.27-1.3-.78-1.63l-2.8-1.75zM456.7 264.17c-.5-.3-1.13-.1-1.24.4s.3 1.32.8 1.62l2.82 1.65c.5.3 1.14.1 1.25-.4.12-.53-.3-1.3-.8-1.6l-2.82-1.68zM456.77 261.94c-.5-.32-1.13-.14-1.25.36s.27 1.32.78 1.64l2.8 1.75c.5.3 1.13.13 1.25-.37.12-.52-.27-1.32-.78-1.64l-2.8-1.76zM456.76 259.9c-.52-.3-1.14-.1-1.25.4s.3 1.3.8 1.6l2.82 1.67c.52.3 1.14.1 1.25-.4.12-.53-.28-1.3-.8-1.62l-2.8-1.66zM456.3 309.04c-.52-.32-1.15-.14-1.27.36s.27 1.32.78 1.64l2.8 1.76c.52.32 1.14.13 1.26-.37.13-.52-.27-1.32-.78-1.64l-2.8-1.76zM456.27 307c-.5-.3-1.14-.1-1.25.4s.3 1.3.8 1.6l2.82 1.67c.5.3 1.13.1 1.25-.4.1-.53-.3-1.3-.8-1.6l-2.83-1.68zM456.33 304.76c-.5-.32-1.14-.14-1.25.36s.27 1.32.78 1.64l2.8 1.75c.5.33 1.13.15 1.25-.35.13-.52-.26-1.32-.77-1.64l-2.8-1.74zM456.3 302.7c-.5-.3-1.12-.1-1.24.4s.3 1.32.8 1.63l2.82 1.66c.5.3 1.14.1 1.25-.4.12-.54-.3-1.32-.8-1.63l-2.82-1.66zM456.2 317.6c-.5-.32-1.14-.13-1.26.37s.27 1.32.78 1.64l2.8 1.76c.5.32 1.13.14 1.25-.36.13-.53-.27-1.32-.78-1.64l-2.8-1.76zM456.18 315.56c-.5-.3-1.14-.1-1.25.4s.3 1.3.8 1.6l2.82 1.68c.5.3 1.14.1 1.25-.4.12-.53-.3-1.32-.8-1.62l-2.82-1.66zM456.24 313.32c-.5-.32-1.13-.14-1.25.37s.26 1.3.77 1.62l2.8 1.76c.5.32 1.13.14 1.25-.37.12-.5-.27-1.3-.78-1.62l-2.8-1.76zM456.22 311.27c-.5-.3-1.13-.1-1.25.4s.3 1.32.8 1.62l2.82 1.65c.5.3 1.13.1 1.24-.4.12-.53-.3-1.3-.8-1.6l-2.82-1.68zM456.46 291.9c-.5-.3-1.13-.13-1.25.38s.28 1.32.8 1.63l2.78 1.77c.5.32 1.14.14 1.26-.37.12-.52-.27-1.32-.78-1.63l-2.8-1.76zM456.45 289.86c-.52-.3-1.14-.1-1.25.4s.28 1.32.8 1.62l2.8 1.66c.53.3 1.15.1 1.26-.4.12-.53-.28-1.3-.8-1.6l-2.8-1.68zM456.5 287.63c-.5-.32-1.13-.14-1.25.36s.27 1.3.78 1.63l2.8 1.76c.5.3 1.13.12 1.25-.38.13-.52-.27-1.32-.78-1.64l-2.8-1.75zM456.5 285.58c-.52-.3-1.15-.1-1.26.4s.3 1.32.8 1.62l2.82 1.66c.5.3 1.14.1 1.25-.4.13-.53-.28-1.3-.8-1.6l-2.8-1.68zM456.37 300.47c-.5-.3-1.13-.13-1.25.37s.27 1.32.78 1.64l2.8 1.75c.5.32 1.13.14 1.25-.36.12-.53-.27-1.32-.78-1.64l-2.8-1.76zM456.36 298.43c-.5-.3-1.14-.1-1.25.4s.3 1.3.8 1.6l2.82 1.68c.52.3 1.14.1 1.25-.4.12-.52-.28-1.3-.8-1.6l-2.8-1.67zM456.42 296.2c-.5-.33-1.14-.14-1.26.36s.27 1.32.78 1.64l2.8 1.75c.5.32 1.14.14 1.25-.36.12-.54-.28-1.33-.8-1.65l-2.78-1.76zM456.4 294.15c-.5-.3-1.14-.1-1.25.4s.3 1.3.8 1.6l2.82 1.68c.5.3 1.14.1 1.25-.4.12-.53-.3-1.32-.8-1.62l-2.82-1.65zM455.93 343.3c-.5-.32-1.13-.14-1.25.36s.27 1.32.78 1.64l2.8 1.75c.5.32 1.13.14 1.25-.36.13-.54-.26-1.33-.77-1.65l-2.8-1.76zM455.92 341.25c-.52-.3-1.14-.1-1.25.4s.28 1.3.8 1.6l2.8 1.68c.53.3 1.15.1 1.26-.4.12-.53-.28-1.32-.8-1.62l-2.8-1.65zM455.98 339c-.5-.3-1.14-.12-1.26.38s.27 1.32.78 1.64l2.8 1.75c.5.32 1.13.14 1.25-.36.13-.52-.27-1.3-.78-1.63l-2.8-1.76zM455.96 336.96c-.5-.3-1.14-.1-1.25.4s.3 1.32.8 1.62l2.83 1.67c.5.3 1.13.1 1.25-.4.1-.53-.3-1.32-.8-1.62l-2.82-1.67zM455.83 349.8c-.52-.3-1.14-.1-1.25.4s.28 1.33.8 1.63l2.8 1.66c.53.3 1.15.1 1.26-.4.12-.54-.28-1.32-.8-1.62l-2.8-1.67zM455.9 347.58c-.52-.32-1.15-.14-1.27.36s.27 1.32.78 1.64l2.8 1.75c.52.32 1.14.14 1.26-.36.13-.52-.27-1.32-.78-1.64l-2.8-1.75zM455.87 345.53c-.5-.3-1.14-.1-1.25.4s.3 1.3.8 1.62l2.82 1.66c.5.3 1.14.1 1.25-.4.1-.52-.3-1.3-.8-1.6l-2.83-1.67zM456.1 326.17c-.5-.32-1.13-.14-1.25.36s.27 1.32.78 1.64l2.8 1.75c.5.32 1.14.14 1.25-.36.13-.52-.27-1.32-.78-1.64l-2.8-1.75zM456.1 324.12c-.52-.3-1.14-.1-1.26.4s.3 1.3.8 1.62l2.82 1.66c.5.3 1.14.1 1.25-.4.13-.53-.28-1.3-.8-1.62l-2.8-1.66zM456.15 321.9c-.5-.33-1.13-.15-1.25.35s.27 1.32.78 1.64l2.8 1.74c.5.32 1.13.14 1.25-.36.12-.52-.27-1.32-.78-1.64l-2.8-1.75zM456.14 319.84c-.52-.3-1.14-.1-1.25.4s.27 1.3.8 1.6l2.8 1.68c.52.3 1.14.1 1.25-.4.12-.53-.28-1.32-.8-1.62l-2.8-1.66zM456.02 334.73c-.5-.32-1.14-.14-1.25.37s.27 1.32.78 1.63l2.8 1.76c.5.3 1.13.13 1.25-.38.12-.52-.27-1.32-.78-1.63l-2.8-1.77zM456 332.68c-.5-.3-1.13-.1-1.25.4s.3 1.32.8 1.62l2.82 1.66c.5.3 1.14.1 1.25-.4.12-.53-.3-1.3-.8-1.6l-2.82-1.68zM456.06 330.45c-.5-.32-1.13-.14-1.25.36s.28 1.33.8 1.65l2.8 1.76c.5.33 1.12.14 1.24-.36.12-.52-.27-1.32-.78-1.64l-2.8-1.75zM456.05 328.4c-.5-.3-1.14-.1-1.25.4s.28 1.32.8 1.62l2.8 1.66c.53.3 1.15.1 1.26-.4.12-.53-.28-1.3-.8-1.6l-2.8-1.68zM455.7 364.8c-.5-.3-1.13-.12-1.25.38s.28 1.32.78 1.64l2.8 1.75c.5.32 1.14.14 1.26-.36.1-.52-.3-1.3-.8-1.63l-2.8-1.76zM455.7 362.77c-.52-.3-1.14-.1-1.26.4s.3 1.3.8 1.6l2.82 1.68c.5.3 1.14.1 1.25-.4.13-.53-.28-1.32-.8-1.62l-2.8-1.66zM455.75 360.53c-.5-.32-1.13-.13-1.25.37s.27 1.32.78 1.64l2.8 1.75c.5.3 1.13.13 1.25-.37.12-.53-.27-1.32-.78-1.64l-2.8-1.77zM455.74 358.48c-.52-.3-1.14-.1-1.25.4s.27 1.32.8 1.62l2.8 1.67c.52.3 1.14.1 1.25-.4.12-.53-.28-1.32-.8-1.62l-2.8-1.67zM455.6 371.33c-.5-.3-1.13-.1-1.25.4s.3 1.3.8 1.62l2.82 1.66c.5.3 1.14.1 1.25-.4.12-.52-.3-1.3-.8-1.6l-2.82-1.67zM455.67 369.1c-.5-.32-1.14-.14-1.26.36s.28 1.32.8 1.64l2.8 1.75c.5.32 1.12.14 1.24-.36.13-.53-.27-1.33-.78-1.65l-2.8-1.75zM455.65 367.05c-.5-.3-1.14-.1-1.25.4s.3 1.3.8 1.62l2.82 1.66c.5.3 1.13.1 1.25-.4.1-.53-.3-1.3-.8-1.62l-2.82-1.65zM455.8 356.25c-.5-.32-1.14-.14-1.26.36s.27 1.33.78 1.65l2.8 1.76c.5.33 1.13.14 1.25-.36.13-.52-.27-1.32-.78-1.64l-2.8-1.75zM455.78 354.2c-.5-.3-1.14-.1-1.25.4s.3 1.32.8 1.62l2.82 1.66c.5.3 1.14.1 1.25-.4.12-.53-.3-1.3-.8-1.6l-2.82-1.68zM455.84 351.97c-.5-.32-1.13-.14-1.25.36s.26 1.32.77 1.64l2.8 1.76c.5.3 1.13.13 1.25-.37.12-.52-.27-1.32-.78-1.64l-2.8-1.75z"/></g><g fill="#b00" stroke="#000" stroke-width="17.958"><path d="M459.52 275.02c-.52-.3-1.14-.13-1.25.38s.3 1.3.8 1.63l2.82 1.73c.5.3 1.13.12 1.24-.38.1-.52-.3-1.32-.8-1.63l-2.82-1.73zM459.48 272.97c-.52-.3-1.14-.1-1.25.42s.3 1.3.82 1.6l2.84 1.63c.5.3 1.13.1 1.24-.42.1-.5-.3-1.3-.82-1.6l-2.84-1.63zM459.5 270.74c-.5-.3-1.13-.13-1.25.37s.3 1.33.8 1.65l2.82 1.73c.52.3 1.14.12 1.25-.38.12-.52-.28-1.32-.8-1.63l-2.82-1.73zM459.46 268.7c-.5-.3-1.14-.1-1.24.4s.3 1.3.82 1.6l2.84 1.65c.5.3 1.14.1 1.24-.42.1-.53-.3-1.3-.82-1.6l-2.84-1.64zM459.54 283.6c-.5-.33-1.13-.14-1.25.36s.28 1.32.8 1.63l2.82 1.72c.5.32 1.13.13 1.24-.37.12-.53-.28-1.32-.8-1.64l-2.82-1.7zM459.5 281.54c-.5-.3-1.14-.1-1.24.4s.3 1.32.82 1.62l2.84 1.63c.5.3 1.14.08 1.24-.42.1-.53-.3-1.3-.82-1.6l-2.84-1.64zM459.53 279.3c-.5-.3-1.14-.12-1.25.38s.3 1.32.8 1.63l2.82 1.74c.5.3 1.14.13 1.25-.38.12-.52-.3-1.3-.8-1.63l-2.82-1.73zM459.5 277.25c-.53-.3-1.15-.1-1.25.42s.3 1.3.82 1.6l2.83 1.64c.52.3 1.14.1 1.25-.4.1-.53-.3-1.3-.82-1.6l-2.84-1.65zM459.46 257.9c-.5-.32-1.13-.13-1.25.37s.3 1.32.8 1.63l2.83 1.73c.52.3 1.14.13 1.25-.38.12-.52-.28-1.3-.8-1.63l-2.82-1.73zM459.42 255.84c-.5-.3-1.14-.1-1.24.42s.3 1.3.82 1.6l2.84 1.64c.5.3 1.14.1 1.24-.4.1-.54-.3-1.32-.82-1.62l-2.84-1.64zM459.45 253.6c-.5-.3-1.14-.12-1.25.4s.3 1.3.8 1.62l2.82 1.73c.5.3 1.14.12 1.25-.38.12-.52-.3-1.32-.8-1.63l-2.82-1.73zM459.4 251.56c-.5-.3-1.13-.1-1.24.42s.3 1.3.82 1.6l2.84 1.64c.52.3 1.14.1 1.25-.42.1-.52-.3-1.3-.82-1.6l-2.84-1.64zM459.5 266.46c-.52-.32-1.15-.13-1.26.37s.3 1.32.8 1.63l2.82 1.73c.5.3 1.14.12 1.25-.38.13-.53-.28-1.32-.8-1.63l-2.8-1.74zM459.45 264.4c-.52-.3-1.14-.08-1.25.42s.3 1.3.82 1.6l2.84 1.64c.52.3 1.14.1 1.25-.4.12-.54-.3-1.32-.8-1.62l-2.85-1.63zM459.48 262.17c-.52-.3-1.14-.12-1.25.38s.28 1.32.8 1.63l2.82 1.73c.5.32 1.13.14 1.25-.36.1-.53-.3-1.32-.8-1.64l-2.82-1.73zM459.44 260.13c-.52-.3-1.14-.1-1.25.4s.3 1.32.8 1.62l2.85 1.63c.52.3 1.14.1 1.25-.4.1-.54-.3-1.32-.82-1.62l-2.84-1.63zM459.62 309.28c-.5-.3-1.13-.13-1.24.37s.28 1.32.8 1.64L462 313c.5.3 1.13.12 1.25-.38.1-.52-.3-1.32-.8-1.63l-2.83-1.72zM459.58 307.23c-.5-.3-1.13-.1-1.24.4s.3 1.32.82 1.62l2.84 1.64c.5.28 1.14.08 1.24-.43.1-.53-.3-1.3-.82-1.6l-2.84-1.64zM459.6 305c-.5-.32-1.13-.13-1.24.37s.3 1.32.8 1.63l2.82 1.73c.52.32 1.14.13 1.25-.37.12-.53-.3-1.32-.8-1.63L459.6 305zM459.57 302.95c-.52-.3-1.14-.1-1.24.4s.3 1.32.82 1.62l2.84 1.63c.5.3 1.12.1 1.23-.4.1-.54-.3-1.32-.82-1.62l-2.83-1.63zM459.65 317.84c-.5-.3-1.14-.12-1.25.38s.3 1.32.8 1.63l2.82 1.73c.52.3 1.14.13 1.25-.38.12-.52-.3-1.3-.8-1.63l-2.82-1.73zM459.6 315.8c-.5-.3-1.13-.1-1.23.4s.3 1.32.82 1.6l2.83 1.65c.5.3 1.13.1 1.24-.4.1-.54-.3-1.32-.82-1.62l-2.84-1.64zM459.64 313.56c-.52-.3-1.14-.13-1.25.38s.28 1.3.8 1.63l2.8 1.73c.52.3 1.15.12 1.26-.38.12-.52-.3-1.32-.8-1.63l-2.82-1.74zM459.6 311.5c-.52-.3-1.14-.08-1.25.43s.3 1.3.82 1.6l2.84 1.64c.53.3 1.15.1 1.26-.42.1-.52-.3-1.3-.82-1.6l-2.84-1.64zM459.57 292.15c-.5-.3-1.14-.13-1.25.38s.3 1.3.8 1.63l2.82 1.73c.5.3 1.14.1 1.25-.4.1-.5-.3-1.3-.8-1.62l-2.83-1.73zM459.53 290.1c-.52-.3-1.14-.1-1.24.42s.3 1.3.8 1.6l2.84 1.64c.52.3 1.14.1 1.25-.42.1-.52-.3-1.3-.83-1.6l-2.84-1.64zM459.56 287.87c-.52-.32-1.14-.13-1.25.37s.3 1.32.8 1.64l2.83 1.72c.5.32 1.14.13 1.25-.37.1-.53-.3-1.32-.8-1.63l-2.82-1.73zM459.52 285.82c-.52-.3-1.14-.1-1.25.4s.3 1.32.82 1.62l2.83 1.64c.52.3 1.14.1 1.25-.42.1-.53-.3-1.3-.82-1.6l-2.84-1.64zM459.6 300.7c-.52-.3-1.14-.1-1.25.4s.3 1.3.8 1.62l2.82 1.73c.5.3 1.14.13 1.25-.37.12-.53-.3-1.32-.8-1.64l-2.82-1.73zM459.56 298.66c-.52-.3-1.14-.1-1.25.42s.32 1.3.83 1.6l2.84 1.64c.52.3 1.14.1 1.25-.4.1-.54-.3-1.32-.82-1.62l-2.84-1.64zM459.58 296.43c-.5-.3-1.13-.12-1.25.38s.3 1.33.8 1.64l2.83 1.73c.5.3 1.13.12 1.24-.38.12-.53-.28-1.32-.8-1.64l-2.82-1.73zM459.54 294.38c-.5-.3-1.13-.1-1.24.42s.3 1.3.82 1.6l2.84 1.64c.5.3 1.14.1 1.24-.4.1-.54-.3-1.32-.82-1.62l-2.84-1.64zM459.73 343.54c-.5-.32-1.14-.13-1.25.37s.3 1.33.8 1.64l2.82 1.73c.52.32 1.14.13 1.25-.37.12-.53-.3-1.32-.8-1.64l-2.82-1.72zM459.7 341.5c-.52-.3-1.15-.1-1.25.4s.3 1.3.82 1.6l2.84 1.64c.52.3 1.15.1 1.25-.4.1-.54-.3-1.32-.82-1.62l-2.84-1.63zM459.72 339.25c-.5-.3-1.14-.12-1.25.38s.3 1.32.8 1.63l2.82 1.73c.5.3 1.13.12 1.24-.4.12-.5-.3-1.3-.8-1.62l-2.82-1.73zM459.68 337.2c-.52-.3-1.14-.1-1.25.42s.3 1.3.82 1.6l2.84 1.64c.5.3 1.13.1 1.24-.4.1-.54-.3-1.32-.82-1.62l-2.84-1.64zM459.72 350.05c-.52-.3-1.14-.1-1.25.4s.3 1.32.82 1.62l2.83 1.64c.52.3 1.14.1 1.25-.4.1-.54-.3-1.32-.82-1.6l-2.84-1.65zM459.75 347.82c-.52-.32-1.14-.13-1.25.37s.28 1.3.8 1.62l2.82 1.73c.5.32 1.13.13 1.25-.37.1-.53-.3-1.32-.8-1.63l-2.82-1.73zM459.7 345.77c-.5-.3-1.13-.1-1.24.4s.3 1.32.82 1.62l2.84 1.63c.52.3 1.14.1 1.24-.42.12-.52-.3-1.3-.82-1.6l-2.83-1.63zM459.68 326.4c-.5-.3-1.14-.12-1.25.38s.3 1.32.8 1.63l2.82 1.74c.5.32 1.14.13 1.25-.37.12-.53-.3-1.32-.8-1.63l-2.82-1.73zM459.64 324.36c-.52-.3-1.14-.1-1.25.4s.3 1.32.8 1.62l2.85 1.63c.52.3 1.14.1 1.25-.4.1-.53-.3-1.3-.82-1.6l-2.84-1.64zM459.66 322.13c-.5-.32-1.13-.13-1.24.37s.28 1.32.8 1.63l2.82 1.73c.5.32 1.13.13 1.25-.37.1-.54-.3-1.33-.82-1.65l-2.82-1.72zM459.63 320.07c-.52-.3-1.14-.1-1.25.42s.3 1.3.82 1.6l2.84 1.63c.52.3 1.14.1 1.24-.4.12-.54-.3-1.32-.82-1.62l-2.83-1.63zM459.7 334.97c-.5-.3-1.13-.12-1.24.38s.28 1.32.8 1.63l2.82 1.73c.5.32 1.13.13 1.25-.37.1-.52-.3-1.3-.8-1.63l-2.83-1.73zM459.67 332.92c-.52-.3-1.14-.1-1.25.42s.3 1.3.82 1.6l2.84 1.64c.52.3 1.14.1 1.24-.42.12-.52-.3-1.3-.82-1.6l-2.83-1.64zM459.7 330.7c-.52-.32-1.15-.14-1.26.36s.3 1.32.8 1.64l2.82 1.73c.52.3 1.14.12 1.25-.38.13-.52-.28-1.32-.8-1.63l-2.8-1.73zM459.65 328.64c-.5-.3-1.14-.1-1.24.4s.3 1.32.83 1.62l2.84 1.64c.5.3 1.14.1 1.24-.42.12-.53-.3-1.3-.8-1.6l-2.85-1.64zM459.8 365.06c-.5-.32-1.14-.13-1.25.37s.3 1.32.8 1.63l2.82 1.73c.5.3 1.14.12 1.25-.38.12-.53-.3-1.32-.8-1.64l-2.82-1.72zM459.76 363c-.52-.3-1.14-.08-1.24.42s.3 1.3.82 1.6l2.83 1.64c.52.3 1.14.1 1.25-.4.1-.54-.3-1.32-.82-1.62l-2.84-1.63zM459.8 360.77c-.53-.3-1.15-.12-1.26.38s.3 1.32.8 1.63l2.82 1.73c.5.32 1.14.14 1.25-.37.12-.52-.28-1.3-.8-1.63l-2.8-1.73zM459.75 358.72c-.52-.3-1.14-.1-1.25.42s.3 1.3.82 1.6l2.84 1.64c.52.3 1.14.1 1.25-.4.12-.54-.3-1.32-.8-1.62l-2.85-1.64zM459.8 371.57c-.53-.3-1.15-.1-1.26.4s.3 1.32.82 1.62l2.84 1.63c.52.3 1.14.1 1.25-.42.1-.52-.3-1.3-.82-1.6l-2.84-1.63zM459.8 369.34c-.5-.32-1.12-.13-1.24.37s.3 1.33.8 1.64l2.83 1.73c.5.32 1.12.13 1.23-.37.12-.53-.28-1.32-.8-1.63l-2.82-1.73zM459.77 367.3c-.5-.3-1.14-.1-1.24.4s.3 1.3.82 1.6l2.84 1.65c.5.3 1.13.1 1.23-.42.1-.53-.3-1.3-.82-1.6l-2.83-1.64zM459.77 356.5c-.5-.32-1.13-.14-1.25.37s.3 1.3.8 1.63l2.82 1.73c.52.3 1.14.12 1.25-.38.1-.52-.3-1.32-.8-1.63l-2.83-1.73zM459.73 354.44c-.5-.3-1.14-.1-1.24.42s.3 1.3.8 1.6l2.85 1.64c.5.3 1.14.1 1.24-.42.1-.52-.3-1.3-.83-1.6l-2.84-1.64zM459.76 352.2c-.5-.3-1.14-.12-1.25.38s.3 1.32.8 1.64l2.83 1.73c.5.3 1.14.12 1.25-.38.12-.52-.3-1.32-.8-1.63l-2.82-1.73z"/></g><g fill="#b00" stroke="#000" stroke-width="12.791"><path d="M469.35 260.93c-.64-.16-1.2.2-1.1.7s.82 1.16 1.46 1.32l3.53.88c.64.16 1.18-.2 1.1-.7-.1-.52-.83-1.16-1.47-1.32l-3.5-.87zM470.34 261.5c-.18-.53-.84-.7-1.33-.37s-.78 1.18-.6 1.7l.98 2.82c.18.5.84.7 1.32.36.5-.34.8-1.18.62-1.7l-.98-2.8zM470.08 261.14c-.47-.38-1.16-.3-1.38.2s.02 1.33.48 1.7l2.57 2.1c.47.4 1.15.3 1.38-.18.23-.5-.02-1.34-.5-1.72l-2.55-2.1zM468.47 262.86c.4-.43.15-.95-.48-1.04s-1.67.26-2.06.7l-2.14 2.37c-.4.42-.15.94.48 1.03.67.1 1.66-.25 2.05-.7l2.14-2.37zM471.06 262.8c.37-.43.1-.95-.54-1.04s-1.64.27-2 .7l-2.04 2.4c-.36.44-.1.96.54 1.04.67.1 1.65-.27 2-.7l2.04-2.4zM457.8 262.94c.4-.42.2-.95-.44-1.05s-1.66.2-2.07.62l-2.26 2.32c-.4.42-.2.94.43 1.05.66.1 1.67-.22 2.08-.64l2.25-2.32zM460.38 262.96c.4-.43.15-.95-.5-1.05s-1.64.23-2.03.65l-2.14 2.34c-.38.4-.13.94.5 1.04.66.1 1.66-.22 2.05-.65l2.13-2.34zM463.2 263.04c.4-.42.18-.95-.44-1.05s-1.67.2-2.08.62l-2.25 2.3c-.4.43-.2.96.44 1.07.65.1 1.66-.22 2.07-.64l2.25-2.32zM465.67 262.86c.37-.43.1-.95-.54-1.03s-1.64.27-2 .7l-2.04 2.4c-.38.43-.1.95.53 1.04.66.08 1.64-.27 2-.7l2.04-2.4zM454.34 262.04c.4-.43.2-.95-.44-1.06s-1.67.2-2.08.63l-2.25 2.33c-.4.42-.2.95.44 1.05.67.1 1.68-.2 2.1-.63l2.24-2.3zM455.57 262.87c.45-.4.3-.93-.33-1.1s-1.67.07-2.12.46l-2.47 2.12c-.45.38-.3.93.33 1.1.64.16 1.67-.08 2.12-.46l2.47-2.13zM452.5 262.35c.58-.24.66-.8.14-1.1s-1.62-.37-2.2-.12l-3.28 1.36c-.6.23-.67.8-.16 1.1.54.3 1.63.36 2.22.1l3.27-1.35z"/></g><g fill="#b00" stroke="#000" stroke-width="12.791"><path d="M504.65 351.25c.5.3.5.86-.04 1.1s-1.58.2-2.1-.12l-2.83-1.7c-.52-.32-.5-.88.04-1.12.57-.25 1.6-.17 2.1.14l2.85 1.7zM506.98 350.65c.5.32.46.88-.08 1.12s-1.58.16-2.08-.16l-2.74-1.74c-.5-.32-.46-.88.08-1.12.57-.25 1.58-.16 2.08.16l2.74 1.75zM509.5 349.93c.53.3.5.86-.02 1.1s-1.6.2-2.1-.12l-2.84-1.7c-.52-.3-.5-.86.04-1.1.55-.27 1.58-.2 2.1.12l2.83 1.7zM511.85 349.33c.5.32.46.88-.08 1.12s-1.58.16-2.08-.16l-2.75-1.76c-.5-.32-.46-.88.08-1.12.57-.25 1.58-.16 2.08.16l2.75 1.75zM522.1 341.57c.62-.1 1.1.3.95.8s-.9 1.1-1.52 1.2l-3.4.55c-.6.1-1.07-.3-.93-.8.15-.52.9-1.1 1.52-1.2l3.38-.55zM520.35 337.85c.4-.4 1.07-.36 1.33.1s.1 1.35-.3 1.75l-2.24 2.26c-.4.4-1.07.35-1.33-.1-.25-.5-.1-1.35.32-1.76l2.23-2.25zM523.14 339.5c.62-.1 1.1.27.97.77s-.9 1.1-1.5 1.23l-3.42.64c-.62.12-1.1-.26-.96-.76.14-.52.9-1.1 1.5-1.23l3.42-.64zM495.02 353.55c.48.34.4.9-.15 1.1s-1.6.07-2.08-.28l-2.66-1.9c-.48-.35-.4-.9.15-1.1.57-.23 1.6-.08 2.07.27l2.65 1.9zM497.4 353.12c.47.35.37.9-.2 1.1s-1.58.06-2.04-.3l-2.56-1.94c-.46-.35-.36-.9.2-1.1.6-.22 1.6-.06 2.06.3l2.55 1.94zM500 352.12c.52.3.52.85 0 1.1s-1.58.23-2.1-.06l-2.92-1.62c-.52-.3-.53-.85 0-1.1.54-.3 1.57-.24 2.1.05l2.9 1.62zM502 352.02c.44.37.3.92-.26 1.1s-1.6 0-2.04-.38l-2.44-2.04c-.45-.37-.32-.92.26-1.1.6-.2 1.6 0 2.03.38l2.45 2.04zM514.38 348.6c.52.32.5.88-.04 1.12s-1.58.18-2.1-.13l-2.84-1.72c-.5-.3-.5-.86.04-1.1.56-.26 1.6-.2 2.1.12l2.84 1.7zM516.72 348c.5.33.45.9-.1 1.13s-1.57.16-2.07-.16l-2.74-1.75c-.5-.32-.44-.88.1-1.12.56-.25 1.58-.16 2.08.16l2.74 1.75zM464.03 356.18c.4.42.18.95-.42 1.06s-1.57-.2-1.96-.63l-2.13-2.3c-.38-.43-.17-.96.42-1.06.63-.1 1.6.2 1.97.63l2.13 2.3zM466.47 356.16c.37.42.14.95-.46 1.05s-1.56-.2-1.93-.63l-2.03-2.34c-.37-.42-.13-.95.47-1.05.63-.1 1.58.22 1.95.64l2.02 2.34zM469.14 356.08c.4.42.18.95-.4 1.06s-1.6-.2-1.98-.63l-2.14-2.3c-.4-.43-.18-.96.42-1.06.62-.1 1.58.2 1.97.63l2.14 2.3zM471.6 356.06c.36.43.13.95-.47 1.05s-1.57-.2-1.94-.63l-2.04-2.34c-.37-.42-.14-.95.46-1.05.63-.1 1.57.22 1.94.65l2.03 2.33zM453.8 356.38c.4.42.18.95-.42 1.05s-1.58-.2-1.96-.63l-2.14-2.3c-.4-.43-.18-.96.42-1.07.62-.1 1.58.2 1.97.63l2.13 2.32zM456.25 356.36c.37.42.13.95-.47 1.05s-1.57-.2-1.94-.64l-2.02-2.33c-.37-.43-.14-.95.46-1.05.63-.1 1.57.22 1.94.64l2.03 2.34zM458.9 356.28c.4.42.2.95-.4 1.05s-1.58-.2-1.97-.63l-2.14-2.3c-.4-.43-.2-.96.4-1.07.63-.1 1.6.2 1.98.63l2.13 2.32zM461.36 356.26c.37.42.14.95-.46 1.05s-1.57-.2-1.94-.63l-2.03-2.34c-.37-.42-.14-.95.46-1.05.62-.1 1.56.22 1.93.64l2.03 2.34zM484.7 355.25c.43.38.3.93-.28 1.1s-1.6-.08-2.04-.46l-2.43-2.12c-.44-.38-.3-.92.28-1.08.6-.17 1.6.06 2.04.44l2.42 2.1zM487.24 354.9c.43.37.3.9-.3 1.08s-1.58-.03-2-.4l-2.4-2.08c-.45-.38-.3-.93.27-1.1.6-.18 1.6.04 2.04.4l2.4 2.1zM489.86 354.5c.46.37.34.9-.23 1.1s-1.6-.03-2.06-.4l-2.5-2.05c-.45-.37-.34-.9.24-1.1.6-.17 1.6.03 2.06.4l2.5 2.04zM492.43 354.08c.46.36.36.9-.2 1.1s-1.6.06-2.06-.3l-2.55-1.94c-.46-.35-.37-.9.2-1.1.6-.22 1.6-.05 2.05.3l2.56 1.94zM474.26 355.98c.4.42.18.95-.42 1.06s-1.58-.2-1.97-.63l-2.13-2.3c-.4-.43-.18-.95.4-1.06.63-.1 1.6.2 1.98.63l2.14 2.3zM476.78 355.72c.4.4.2.94-.38 1.08s-1.58-.14-2-.54l-2.2-2.22c-.4-.4-.2-.95.4-1.08.6-.14 1.58.14 1.98.54l2.2 2.22zM479.52 355.4c.45.4.3.93-.27 1.1s-1.6-.06-2.04-.44l-2.42-2.1c-.45-.38-.3-.93.27-1.1.6-.16 1.6.07 2.04.45l2.42 2.1zM481.85 355.36c.4.4.2.94-.4 1.06s-1.6-.15-1.98-.56l-2.15-2.26c-.4-.4-.2-.94.4-1.07.62-.13 1.58.16 1.97.57l2.15 2.26zM422.74 355.14c.3.47-.02.96-.63.97s-1.5-.43-1.8-.9l-1.6-2.6c-.3-.47.03-.96.64-.98.63 0 1.5.45 1.8.92l1.6 2.6zM425.15 355.5c.28.46-.06.94-.68.95s-1.5-.45-1.77-.92l-1.5-2.6c-.27-.48.08-.96.7-.97.63 0 1.5.45 1.76.93l1.5 2.6zM428.02 355.66c.34.45.1.96-.52 1.03s-1.55-.32-1.9-.77l-1.92-2.44c-.35-.46-.1-.97.52-1.04.63-.07 1.55.3 1.9.76l1.92 2.44zM430.46 355.8c.33.45.05.96-.56 1.02s-1.55-.32-1.88-.77l-1.8-2.46c-.33-.45-.05-.96.56-1.02.63-.07 1.54.32 1.87.77l1.8 2.45zM415.05 354.15c.27.47-.07.95-.68.96s-1.5-.44-1.77-.9l-1.5-2.62c-.27-.47.07-.95.68-.96.64 0 1.5.45 1.77.93l1.5 2.6zM417.7 354.47c.28.47-.03.96-.64.97s-1.5-.44-1.8-.9l-1.6-2.6c-.3-.48 0-.97.62-1 .64 0 1.5.45 1.8.93l1.6 2.6zM420.1 354.82c.27.47-.07.95-.68.96s-1.5-.45-1.77-.92l-1.5-2.6c-.27-.48.07-.96.7-.97.63-.02 1.48.44 1.76.92l1.5 2.6zM443.34 356.37c.35.44.1.95-.5 1.02s-1.57-.32-1.92-.77l-1.9-2.44c-.36-.46-.1-.97.5-1.04.63-.07 1.56.3 1.9.76l1.92 2.45zM445.78 356.5c.33.45.05.96-.56 1.02s-1.54-.32-1.87-.76l-1.8-2.46c-.34-.45-.06-.96.55-1.02.64-.07 1.55.32 1.87.77l1.8 2.46zM448.7 356.48c.38.42.17.94-.43 1.05s-1.58-.2-1.97-.63l-2.13-2.3c-.4-.44-.18-.96.4-1.07.63-.1 1.6.2 1.98.63l2.14 2.32zM451.13 356.46c.37.42.14.95-.46 1.05s-1.57-.2-1.94-.64l-2.03-2.33c-.37-.43-.14-.95.46-1.05.63-.1 1.57.22 1.94.64l2.03 2.34zM433.12 355.9c.35.44.1.96-.5 1.02s-1.57-.3-1.9-.75l-1.93-2.45c-.36-.45-.1-.96.5-1.03.63-.08 1.56.3 1.9.75l1.92 2.45zM435.57 356.04c.32.44.05.95-.56 1.02s-1.54-.33-1.87-.77l-1.8-2.47c-.33-.45-.05-.96.56-1.02.62-.06 1.53.33 1.86.78l1.8 2.46zM438.23 356.13c.35.45.1.96-.5 1.03s-1.57-.3-1.92-.76l-1.9-2.45c-.35-.44-.1-.95.5-1.02.64-.07 1.57.3 1.92.75l1.9 2.45zM440.67 356.27c.33.45.05.96-.56 1.02s-1.53-.33-1.86-.78l-1.8-2.46c-.33-.45-.05-.96.55-1.02.63-.06 1.54.32 1.87.77l1.8 2.47zM401.36 344.36c-.63.08-1.08-.33-.9-.82s.98-1.05 1.6-1.13l3.46-.43c.63-.08 1.08.33.9.8-.18.52-.98 1.07-1.6 1.15l-3.46.44zM401.82 347.14c-.5.32-1.13.14-1.27-.36s.24-1.32.74-1.64l2.73-1.74c.5-.32 1.14-.14 1.27.36.14.53-.23 1.32-.73 1.64l-2.75 1.74zM403.17 349.55c-.34.45-1 .47-1.33.04s-.32-1.32.02-1.78l1.84-2.48c.34-.45 1-.47 1.33-.04.34.45.32 1.3 0 1.76l-1.86 2.5zM404.75 351.08c-.13.5-.75.72-1.24.4s-.84-1.12-.7-1.63l.73-2.83c.13-.5.75-.7 1.24-.4.52.32.85 1.12.72 1.64l-.75 2.82zM405.47 338.9c-.62-.04-.96-.52-.67-.98s1.2-.87 1.83-.83l3.45.17c.62.03.96.52.67.97-.3.47-1.2.87-1.84.84l-3.43-.2zM403.85 340.67c-.64-.02-1-.5-.7-.95s1.2-.88 1.83-.86l3.5.1c.63.02.98.5.7.94-.3.47-1.2.9-1.84.87l-3.5-.1zM402.57 342.37c-.63.06-1.06-.36-.88-.85s1-1.04 1.6-1.1l3.43-.36c.62-.06 1.06.37.88.85-.2.53-1 1.06-1.6 1.12l-3.43.35zM406.73 352.77c.04.54-.5.87-1.05.68s-1.16-.92-1.2-1.45l-.2-2.93c-.03-.53.5-.86 1.06-.67.6.2 1.16.92 1.2 1.45l.2 2.92zM409.48 353.48c.15.5-.3.92-.9.83s-1.36-.68-1.5-1.2l-.87-2.78c-.14-.5.3-.93.9-.84.64.1 1.37.7 1.52 1.2l.86 2.8zM412.5 353.78c.3.47-.02.96-.62.97s-1.52-.44-1.8-.9l-1.6-2.6c-.3-.48 0-.97.62-1 .64 0 1.5.46 1.8.93l1.6 2.6zM517.98 345.9c.62.13.85.65.46 1.04s-1.4.66-2 .53l-3.4-.7c-.62-.13-.85-.65-.46-1.04.4-.4 1.4-.66 2-.53l3.4.7zM518.63 346.34c.6.17.78.7.36 1.1s-1.44.57-2.04.4l-3.27-.9c-.6-.18-.78-.72-.37-1.1.44-.38 1.43-.58 2.03-.4l3.27.9zM522.55 343.52c.63.1.9.6.54 1.02s-1.36.73-1.98.63l-3.44-.53c-.62-.1-.9-.6-.53-1.02.37-.43 1.34-.72 1.97-.63l3.43.52zM520.56 345.17c.6.17.75.72.32 1.1s-1.44.54-2.03.37l-3.25-.97c-.6-.18-.75-.72-.33-1.1.45-.37 1.45-.55 2.04-.37l3.26.97zM509.02 335.5c-.58.22-.7.77-.22 1.1s1.5.44 2.1.22l3.17-1.2c.58-.23.7-.78.23-1.1-.5-.35-1.52-.44-2.1-.22l-3.18 1.2zM506.87 334.53c-.57.23-.66.8-.18 1.1s1.5.43 2.06.2l3.1-1.27c.56-.23.65-.78.18-1.1-.5-.35-1.5-.43-2.07-.2l-3.1 1.27zM504.44 333.2c-.6.18-.76.72-.33 1.08s1.48.53 2.08.35l3.28-1c.6-.18.76-.72.33-1.08-.47-.37-1.48-.53-2.08-.35l-3.28 1zM515.8 338.72c-.57.23-.66.78-.2 1.1s1.52.43 2.08.2l3.1-1.27c.57-.23.66-.78.18-1.1-.5-.35-1.5-.43-2.07-.2l-3.1 1.27zM513.48 337.6c-.58.22-.7.77-.22 1.1s1.5.43 2.1.2l3.17-1.2c.58-.22.7-.76.23-1.1-.5-.33-1.5-.43-2.1-.2l-3.18 1.2zM511.33 336.62c-.56.23-.65.8-.18 1.1s1.5.44 2.07.2l3.1-1.26c.56-.23.65-.8.18-1.1-.5-.35-1.5-.43-2.07-.2l-3.1 1.26z"/></g><g transform="matrix(.081 0 0 .096 438.435 288.09)"><path fill="#fff133" stroke="#000" stroke-width="1.197" d="M212.6-1994.9v53.14h-53.15v35.44h53.15v106.3h35.44v-106.3h53.15v-35.44h-53.16v-53.15H212.6z"/><ellipse cx="239.17" cy="-1813.5" fill="#fff133" stroke="#000" stroke-width="1.197" rx="62.008" ry="57.32" transform="matrix(.571 0 0 .618 93.645 -678.94)"/><path fill="#fff" stroke="#000" stroke-width="1.197" d="M602.36-1119.4c0 68.45-10.42 145.68-29.25 205.02-120.07-26.46-268.05-39.68-339.03-39.68-87.6 0-246.15 13.22-345.26 26.45-18.83-59.34-30.53-123.35-30.53-191.8 0-273.8 105.27-390.2 367.5-496.03 233.3 105.82 376.6 222.22 376.6 496.03z" transform="matrix(1.058 0 0 1.339 -5.764 363.72)"/><path fill="#fff133" stroke="#000" stroke-width="1.197" d="M566.93-657.28c0-44-150.8-79.72-336.6-79.72s-336.62 35.7-336.62 79.72v26.57c0-44 150.8-70.87 336.62-70.87S566.92-657 566.92-613v-44.28z" transform="matrix(1.171 0 0 .745 -32.833 -634.89)"/><g fill="#fff133" stroke="#000" stroke-width="1.197"><path d="M237-1381.57L174.66-1342l41.55 26.4-20.77 13.2-41.55-26.4-62.32 39.58 62.32 39.58 41.55-26.4 20.77 13.2v39.58h41.54v-39.58l20.78-13.2 41.54 26.4 62.32-39.58-62.32-39.58-41.54 26.4-20.78-13.2 41.55-26.4-62.3-39.57zM-181.55-1340.02l6.1 39.88 10.4 25.54-14.9 16.07-10.42-25.54-4.5 41.62 35.7 35-10.4-25.53 25.32 9.47 15.6 38.3 20.1-3.3-15.6-38.32 14.92-16.07 10.4 25.55 4.5-41.62-35.7-35 10.4 25.53-25.3-9.46-10.4-25.55-26.22-36.57zM655.28-1339.4l-23.78 37.1-9.47 25.7-24.97 9.83 9.48-25.7-34.44 35.53 6 41.55 9.5-25.68 15.47 15.85-14.2 38.54 20.2 3 14.23-38.52 24.96-9.83-9.48 25.68 34.44-35.52-6-41.53-9.48 25.7-15.5-15.87 9.5-25.7 3.54-40.1zM-30.97-1285.53c-3.32-13.02 9.77-27.73 26.18-29.42 16.4-1.68 36.13 9.66 39.45 22.7s-9.77 27.7-9.77 27.7l78.88 45.37-32.8 3.37-59.17-34.03-39.28 44.13-32.8 3.36 52.35-58.83s-19.72-11.33-23.04-24.36zM438.98-1292.16c3.18-13.04 22.77-24.47 39.2-22.86 16.42 1.6 29.67 16.26 26.5 29.3s-22.77 24.47-22.77 24.47l53 58.6-32.84-3.23-39.75-43.95-58.78 34.28-32.84-3.23 78.38-45.7s-13.25-14.64-10.08-27.68zM631.67-1163.9c0-32.76-176.82-59.36-394.68-59.36s-394.7 26.6-394.7 59.37v19.8c0-32.77 176.83-52.77 394.7-52.77s394.67 33.2 394.67 65.96v-33z"/></g><path fill="#fff133" stroke="#000" stroke-width="1.197" d="M566.93-657.28c0-44-150.8-79.72-336.6-79.72s-336.62 35.7-336.62 79.72v26.57c0-44 150.8-70.87 336.62-70.87S566.92-657 566.92-613v-44.28z" transform="matrix(1.073 0 0 .745 -9.254 -386.86)"/><g fill="#fff133" stroke="#000" stroke-width="1.197"><path d="M241.43-1133.54l-58.7 39.58 39.13 26.38-19.56 13.2-39.12-26.4-58.7 39.6 58.7 39.57 39.12-26.4 19.56 13.2v39.57H261v-39.58l19.55-13.2 39.13 26.4 58.7-39.6-58.7-39.57-39.13 26.4-19.56-13.2 39.12-26.4-58.7-39.57zM-152.72-1092l5.74 39.9 9.8 25.53-14.04 16.08-9.8-25.54-4.25 41.62 33.64 35.02-9.8-25.55 23.84 9.47 14.7 38.32 18.94-3.3-14.7-38.32 14.05-16.08 9.78 25.55 4.25-41.63-33.63-35 9.8 25.53-23.84-9.47-9.8-25.54-24.68-36.6zM635.35-1091.38l-22.4 37.12-8.92 25.68-23.5 9.84 8.92-25.7L557-1008.9l5.67 41.54 8.93-25.7 14.58 15.86-13.38 38.54 19.04 3 13.4-38.53 23.5-9.82-8.93 25.68 32.45-35.52-5.66-41.54-8.93 25.7-14.6-15.87 8.94-25.7 3.35-40.1zM-10.92-1037.5c-3.12-13.02 9.2-27.73 24.65-29.42 15.45-1.68 34.03 9.66 37.15 22.7s-9.2 27.7-9.2 27.7l74.28 45.37-30.9 3.37-55.7-34.02-37 44.13-30.9 3.36 49.32-58.84s-18.57-11.33-21.7-24.36zM431.66-1044.13c3-13.04 21.44-24.47 36.9-22.86 15.48 1.62 27.95 16.27 24.96 29.3s-21.44 24.48-21.44 24.48l49.92 58.6-30.94-3.23-37.43-43.95-55.37 34.28-30.93-3.23 73.82-45.7s-12.48-14.64-9.5-27.68zM613.1-915.86c0-32.77-166.5-59.37-371.67-59.37s-371.7 26.6-371.7 59.37v19.8c0-32.78 166.53-52.78 371.7-52.78s371.68 33.2 371.68 65.96v-32.98z"/></g><path fill="#fff133" stroke="#000" stroke-width="1.197" d="M566.93-657.28c0-44-150.8-79.72-336.6-79.72s-336.62 35.7-336.62 79.72v26.57c0-44 150.8-70.87 336.62-70.87S566.92-657 566.92-613v-44.28z" transform="matrix(1.105 0 0 .745 -16.106 -865.2)"/><g fill="#fff133" stroke="#000" stroke-width="1.197"><path d="M242.55-1611.22l-57.4 37.33 38.27 24.9-19.13 12.44-38.27-24.9-57.4 37.34 57.4 37.33 38.26-24.87 19.12 12.44v37.33h38.27v-37.33l19.12-12.44 38.26 24.88 57.4-37.32-57.4-37.33-38.26 24.9-19.13-12.46 38.25-24.9-57.4-37.32zM-142.93-1572.03l5.6 37.6 9.6 24.1-13.74 15.17-9.58-24.1-4.15 39.26 32.9 33.03-9.6-24.1 23.32 8.94L-94.2-1426l18.52-3.1-14.37-36.15 13.73-15.16 9.58 24.08 4.15-39.25-32.88-33.03 9.58 24.1-23.3-8.94-9.6-24.1-24.13-34.5zM627.82-1571.47l-21.9 35-8.73 24.24-23 9.28 8.72-24.23-31.72 33.5 5.54 39.2 8.73-24.24 14.26 14.95-13.1 36.35 18.63 2.84 13.1-36.35 23-9.28-8.74 24.22 31.72-33.5-5.53-39.2-8.72 24.24-14.27-14.95 8.74-24.22 3.28-37.85zM-4.23-1520.64c-3.06-12.3 9-26.17 24.1-27.75 15.1-1.58 33.28 9.1 36.33 21.4s-9 26.16-9 26.16l72.65 42.78-30.2 3.18-54.5-32.1-36.17 41.63-30.22 3.18 48.22-55.5s-18.16-10.7-21.2-22.97zM428.6-1526.9c2.9-12.3 20.96-23.07 36.1-21.55 15.1 1.52 27.32 15.34 24.4 27.64s-20.98 23.07-20.98 23.07l48.82 55.27-30.25-3.04-36.62-41.46-54.15 32.34-30.25-3.05 72.2-43.1s-12.2-13.82-9.3-26.12zM606.06-1405.9c0-30.9-162.85-56-363.5-56s-363.5 25.1-363.5 56v18.67c0-30.9 162.84-49.78 363.5-49.78s363.5 31.3 363.5 62.2v-31.1z"/></g><ellipse cx="234.13" cy="-822.11" fill="#b90000" rx="375.87" ry="120.53" transform="matrix(.966 0 0 .414 12.936 -517.53)"/></g><path fill="#fff" stroke="#000" stroke-width="1.197" d="M513.78-790.16l35.43-17.7 35.44 17.7s-73.36 35.43-73.36 159.45c0 88.57 125.26 106.3 125.26 212.6 0 45.64-34.18 88.57-69.62 88.57s-88.58-17.7-141.73-70.86c35.43 17.72 76.07 37.3 106.3 36.06 19.58-.4 55.02-17.7 55.02-53.15 0-70.85-122.77-106.9-122.77-213.2 0-124.02 50.02-159.45 50.02-159.45z" transform="matrix(.24 0 0 .199 381.891 336.17)"/><path fill="#b00" stroke="#000" stroke-width=".34.958" d="M454.48 373.54c-.73.05-1.13.9-.8 1.7s1.4 1.52 2.15 1.47l4.03-.28c.73-.05 1.13-.9.8-1.7-.35-.82-1.4-1.53-2.14-1.47l-4.04.3z"/><path fill="#fff" stroke="#000" stroke-width="1.197" d="M520.25-790.16l46.68-17.72 10 17.72s-70.65 35.43-70.65 159.45c0 88.57 125.9 106.3 125.9 212.6 0 45.64-26.72 87.35-65.25 88.57-73.4 2.36-90.45-23.96-141.73-70.86 43.15 32.3 105 46.76 129.02 34.2 29.36-15.38 35.03-36.07 35.03-53.8 0-70.85-120.9-104.4-120.9-210.7 0-124.02 51.9-159.45 51.9-159.45zM513.34-789.7c7-2.43 35.88-18.18 71.3 17.26 17.73 17.72 17.72 53.15 17.72 70.86l53.15-53.15s-29.05-86.87-107.6-53.6c-11.13 4.9-28.14 14.55-34.55 18.64zM523.8-795.94c8.84-2.87 36.68-6.33 64.6 18.5 17.7 17.72 18.96 42.93 18.96 60.65L648-754.7c3.45-3.2-24.82-81.25-99.23-54.04-4.5 1.8-14.78 6.3-24.97 12.82z" transform="matrix(.24 0 0 .199 381.891 336.17)"/><path fill="#fff133" stroke="#000" stroke-width="1.197" d="M344.54-596.3l9.15 22.15s1.45-9.77 8.52-11.53l7.07-1.77s26.85 49.33 32.16 58.17c5.3 8.83-3.54 16.8-1.77 16.8 1.76 0 26.5-11.5 26.5-11.5s-10.6.88-15.02-6.2-34.82-59.92-34.82-59.92 6.2-2.65 11.5-5.3c5.3-2.66 10.6 7.95 10.6 7.95l-13.26-26.52s0 8.84-4.42 10.6c-4.42 1.78-7.96 3.54-7.96 3.54s-3.53-6.18-7.95-13.25c-4.42-7.08 4.42-14.15 4.42-14.15l-23 11.5s7.96 4.4 10.62 8.83l5.3 8.84s-3.22 1.77-8.22 3.48c-3.58 1.88-7.7.06-9.46-1.7z" transform="matrix(.195 -.021 .067 .173 476.436 338.935)"/><path fill="#fff133" stroke="#000" stroke-width="1.197" d="M344.54-596.3l9.15 22.15s1.45-9.77 8.52-11.53l7.07-1.77s26.85 49.33 32.16 58.17c5.3 8.83-3.54 16.8-1.77 16.8 1.76 0 26.5-11.5 26.5-11.5s-10.6.88-15.02-6.2-34.82-59.92-34.82-59.92 6.2-2.65 11.5-5.3c5.3-2.66 10.6 7.95 10.6 7.95l-13.26-26.52s0 8.84-4.42 10.6c-4.42 1.78-7.96 3.54-7.96 3.54s-3.53-6.18-7.95-13.25c-4.42-7.08 4.42-14.15 4.42-14.15l-23 11.5s7.96 4.4 10.62 8.83l5.3 8.84s-3.22 1.77-8.22 3.48c-3.58 1.88-7.7.06-9.46-1.7z" transform="matrix(-.178 .024 -.003 -.133 595.381 97.041)"/><path fill="#b00" stroke="#000" stroke-width=".34.958" d="M457.98 373.32c-.73.06-1.13.9-.8 1.7s1.4 1.53 2.14 1.48l4.04-.3c.73-.05 1.13-.9.8-1.68-.36-.83-1.4-1.54-2.14-1.5l-4.04.3z"/><path fill="#b00" stroke="#000" stroke-width=".51.958" d="M452.85 376.26c-1.24.05-1.9.9-1.34 1.7s2.37 1.53 3.6 1.47l6.8-.28c1.24-.06 1.9-.9 1.35-1.7-.6-.82-2.37-1.53-3.6-1.48l-6.8.3zM456.15 376.05c-1.24.05-1.9.9-1.34 1.7s2.37 1.52 3.6 1.47l6.8-.3c1.24-.04 1.9-.9 1.35-1.68-.6-.83-2.37-1.53-3.6-1.48l-6.8.3z"/><path fill="#b00" stroke="#000" stroke-width="17.958" d="M212.6-453.54c-35.43 0-70.87 35.43-70.87 70.87s35.44 70.86 70.87 70.86h194.88c35.43 0 70.87-35.44 70.87-70.87 0-37.03-35.44-70.87-70.87-70.87H212.6z" transform="matrix(.043 -.001 .02 .022 451.35 389.865)"/><path fill="#b00" stroke="#000" stroke-width="17.958" d="M212.6-453.54c-35.43 0-70.87 35.43-70.87 70.87s35.44 70.86 70.87 70.86h194.88c35.43 0 70.87-35.44 70.87-70.87 0-37.03-35.44-70.87-70.87-70.87H212.6z" transform="matrix(.043 -.001 .02 .022 455.442 389.652)"/><path fill="#ffe000" d="M0 0h320v480H0z"/></g></svg>