<svg xmlns="http://www.w3.org/2000/svg" width="640" height="480" xmlns:xlink="http://www.w3.org/1999/xlink"><defs><linearGradient id="a"><stop stop-color="#f00" offset="0"/><stop stop-color="#ff0" offset="1"/></linearGradient><linearGradient id="c" x1="103.08" x2="92.551" y1="111.28" y2="107.76" xlink:href="#a" gradientUnits="userSpaceOnUse" gradientTransform="matrix(.643 0 0 1.453 -94.683 29.21)"/><linearGradient id="d" x1="103.08" x2="92.551" y1="111.28" y2="107.76" xlink:href="#a" gradientUnits="userSpaceOnUse" gradientTransform="matrix(.643 0 0 1.453 -94.666 30.155)"/><linearGradient id="e" x1="103.08" x2="92.551" y1="111.28" y2="107.76" xlink:href="#a" gradientUnits="userSpaceOnUse" gradientTransform="matrix(.643 0 0 1.453 -97.986 31.014)"/><linearGradient id="f" x1="103.08" x2="92.551" y1="111.28" y2="107.76" xlink:href="#a" gradientUnits="userSpaceOnUse" gradientTransform="matrix(.643 0 0 1.453 -94.743 31.932)"/><linearGradient id="g" x1="103.08" x2="92.551" y1="111.28" y2="107.76" xlink:href="#a" gradientUnits="userSpaceOnUse" gradientTransform="matrix(.643 0 0 1.453 -94.75 32.835)"/><linearGradient id="h" x1="103.08" x2="92.551" y1="111.28" y2="107.76" xlink:href="#a" gradientUnits="userSpaceOnUse" gradientTransform="matrix(.643 0 0 1.453 -94.767 33.751)"/><linearGradient id="i" x1="103.08" x2="92.551" y1="111.28" y2="107.76" xlink:href="#a" gradientUnits="userSpaceOnUse" gradientTransform="matrix(.643 0 0 1.453 -98.011 33.736)"/><linearGradient id="j" x1="103.08" x2="92.551" y1="111.28" y2="107.76" xlink:href="#a" gradientUnits="userSpaceOnUse" gradientTransform="matrix(.643 0 0 1.453 -97.981 32.837)"/><linearGradient id="k" x1="103.08" x2="92.551" y1="111.28" y2="107.76" xlink:href="#a" gradientUnits="userSpaceOnUse" gradientTransform="matrix(.643 0 0 1.453 -97.942 31.918)"/><linearGradient id="l" x1="103.08" x2="92.551" y1="111.28" y2="107.76" xlink:href="#a" gradientUnits="userSpaceOnUse" gradientTransform="matrix(.828 0 0 1.873 602.82 148.17)"/><linearGradient id="m" x1="103.08" x2="92.551" y1="111.28" y2="107.76" xlink:href="#a" gradientUnits="userSpaceOnUse" gradientTransform="matrix(.643 0 0 1.453 -97.976 30.11)"/><linearGradient id="n" x1="103.08" x2="92.551" y1="111.28" y2="107.76" xlink:href="#a" gradientUnits="userSpaceOnUse" gradientTransform="matrix(.643 0 0 1.453 -95.336 30.955)"/><clipPath id="b"><path fill-opacity=".67" d="M0 0h640v480H0z"/></clipPath></defs><g clip-path="url(#b)"><path fill="#006" d="M0 0h960v480H0z"/><path fill="#006" fill-rule="evenodd" d="M0 0h350v175H0z"/><path fill="#fff" d="M0 0v19.57L310.87 175H350v-19.57L39.13 0H0zm350 0v19.57L39.13 175H0v-19.56L310.87 0H350zM145.83 0v175h58.34V0h-58.34zM0 58.33v58.34h350V58.33H0z"/><path fill="#c00" d="M0 70v35h350V70H0zM157.5 0v175h35V0h-35zM0 175l116.67-58.33h26.08L26.1 175H0zM0 0l116.67 58.33h-26.1L0 13.03V0zm207.25 58.33L323.92 0H350L233.33 58.33h-26.08zM350 175l-116.67-58.33h26.1l90.57 45.3V175z"/><path fill="#fff" fill-rule="evenodd" d="M378.47 154.46l219.35-.82-.4 195.34s7.72 29.7-91.98 74.87c35.8-3.66 74.88-41.9 74.88-41.9s15.87-20.36 23.6-8.96c7.73 11.38 15.06 17.08 20.75 21.55 5.7 4.48 10.18 16.7 1.63 25.64-8.54 8.94-21.97 10.16-25.63-.82-5.7 2.84-40.7 45.17-112.31 47.2-72.85-1.22-112.73-47.6-112.73-47.6s-9.76 15.45-23.6 3.24c-13.42-15.87-3.25-26.04-3.25-26.04s11.4-6.5 14.65-11c5.3-6.1 6.9-14.23 15.87-14.23 10.58.8 14.65 9.36 14.65 9.36s36.62 38.67 76.1 43.55c-89.13-42.73-92.38-69.18-91.97-75.7l.4-193.7z"/><path fill="#006129" fill-rule="evenodd" stroke="#000" stroke-width="1.717" d="M383.76 159.74l209.16-1.22v188c.4 24.42-40.7 49.25-105 81-66.3-34.2-104.56-54.95-104.97-81.4l.8-186.37z"/><path fill="none" stroke="#f7c600" stroke-width="1.718" d="M408.9 366.9l12.36-18.13 12.4 18.17"/><path fill="#f7c600" fill-rule="evenodd" stroke="#000" stroke-width=".805" d="M423.74 360.1a2.45 2.45 0 1 1-4.9.02 2.45 2.45 0 0 1 4.9 0zM411.23 380.3l19.14.05s.3-2.48-2-4c10.03-1.37 7.43-10.2 15.82-10.7 1.62.24-4.4 3.75-4.4 3.75s-5.06 3.57-2.75 5.38c1.83 1.45 2.63-.87 2.88-2.63.25-1.75 8.15-2.88 7.02-7.9-1.88-4.13-12.9 2.77-12.9 2.77l-7.88-.05c-.5-.88-2.66-4.42-4.9-4.44-2.65.1-4.52 4.5-4.52 4.5h-17.8s-.6 4.55 8.4 5.43c2.05 2.65 3.62 3.4 5.4 4.08-1.2.98-1.52 2.17-1.52 3.76z"/><path fill="none" stroke="#000" stroke-width=".805" d="M412.6 376.4l15.95-.04M405.3 367s1.28 7.47 7.17 9.23"/><path fill="url(#c)" fill-rule="evenodd" stroke="#000" stroke-width=".609" d="M66.32 170.54c.45-2.15 1.26-2.52 2.15-5.27.15-2.67-2.15-2.37-1.48-4.08 1.17-1.86.58-3.64-1.64-5.05.44 2.45-2.9 4.75-2.9 6.75s1.7 1.56 1.5 4.6c.13 1.78-.46 1.33-.6 3.04h2.96z" transform="translate(316.617 141.369) scale(1.323)"/><path fill="#f7c600" fill-rule="evenodd" stroke="#000" stroke-width=".805" d="M423.54 349.23a2.26 2.26 0 1 1-4.5 0 2.26 2.26 0 0 1 4.5 0z"/><path fill="none" stroke="#f7c600" stroke-width="1.718" d="M408.2 329.58l12.36-18.13 12.4 18.17"/><path fill="#f7c600" fill-rule="evenodd" stroke="#000" stroke-width=".805" d="M423.04 322.8a2.45 2.45 0 1 1-4.9 0 2.45 2.45 0 0 1 4.9 0zM410.54 342.98l19.14.05s.3-2.48-2-4c10.02-1.37 7.42-10.2 15.8-10.72 1.64.26-4.37 3.77-4.37 3.77s-5.05 3.58-2.75 5.4c1.83 1.43 2.63-.88 2.88-2.64.25-1.75 8.15-2.88 7.02-7.9-1.88-4.13-12.9 2.76-12.9 2.76l-7.87-.05c-.5-.88-2.66-4.43-4.9-4.44-2.66.1-4.53 4.5-4.53 4.5h-17.8s-.6 4.56 8.42 5.44c2.03 2.65 3.6 3.4 5.37 4.08-1.18.98-1.5 2.17-1.5 3.76z"/><path fill="none" stroke="#000" stroke-width=".805" d="M411.9 339.1l15.96-.07m-23.25-9.34s1.3 7.44 7.17 9.2"/><path fill="url(#d)" fill-rule="evenodd" stroke="#000" stroke-width=".609" d="M66.32 170.54c.45-2.15 1.26-2.52 2.15-5.27.15-2.67-2.15-2.37-1.48-4.08 1.17-1.86.58-3.64-1.64-5.05.44 2.45-2.9 4.75-2.9 6.75s1.7 1.56 1.5 4.6c.13 1.78-.46 1.33-.6 3.04h2.96z" transform="translate(315.919 104.047) scale(1.323)"/><path fill="#f7c600" fill-rule="evenodd" stroke="#000" stroke-width=".805" d="M422.84 311.9a2.26 2.26 0 1 1-4.5 0 2.26 2.26 0 0 1 4.5 0z"/><path fill="none" stroke="#f7c600" stroke-width="1.718" d="M539.38 295.65l12.35-18.13 12.4 18.17"/><path fill="#f7c600" fill-rule="evenodd" stroke="#000" stroke-width=".805" d="M554.2 288.87a2.45 2.45 0 1 1-4.9 0 2.45 2.45 0 0 1 4.9 0zM541.7 309.05l19.14.05s.3-2.48-2-4c10.03-1.37 7.42-10.2 15.82-10.7 1.63.24-4.4 3.75-4.4 3.75s-5.05 3.57-2.74 5.38c1.83 1.45 2.63-.87 2.88-2.63.25-1.75 8.15-2.88 7.02-7.9-1.88-4.13-12.9 2.76-12.9 2.76l-7.88-.04c-.5-.88-2.66-4.42-4.9-4.44-2.65.1-4.52 4.48-4.52 4.48h-17.8s-.6 4.57 8.4 5.45c2.04 2.66 3.62 3.4 5.4 4.1-1.2.97-1.52 2.16-1.52 3.75z"/><path fill="none" stroke="#000" stroke-width=".805" d="M543.08 305.16l15.94-.05m-23.24-9.34s1.27 7.45 7.16 9.22"/><path fill="url(#e)" fill-rule="evenodd" stroke="#000" stroke-width=".609" d="M66.32 170.54c.45-2.15 1.26-2.52 2.15-5.27.15-2.67-2.15-2.37-1.48-4.08 1.17-1.86.58-3.64-1.64-5.05.44 2.45-2.9 4.75-2.9 6.75s1.7 1.56 1.5 4.6c.13 1.78-.46 1.33-.6 3.04h2.96z" transform="translate(447.085 70.119) scale(1.323)"/><path fill="#f7c600" fill-rule="evenodd" stroke="#000" stroke-width=".805" d="M554 277.98a2.26 2.26 0 1 1-4.5 0 2.26 2.26 0 0 1 4.5 0z"/><path fill="none" stroke="#f7c600" stroke-width="1.718" d="M411.27 259.37l12.35-18.13 12.4 18.17"/><path fill="#f7c600" fill-rule="evenodd" stroke="#000" stroke-width=".805" d="M426.1 252.6a2.45 2.45 0 1 1-4.9 0 2.45 2.45 0 0 1 4.9 0zM413.6 272.77l19.13.05s.3-2.48-2-4c10.03-1.37 7.43-10.2 15.82-10.7 1.63.24-4.38 3.75-4.38 3.75s-5.07 3.57-2.76 5.38c1.84 1.45 2.64-.87 2.9-2.63.24-1.75 8.14-2.88 7-7.9-1.87-4.13-12.9 2.76-12.9 2.76l-7.87-.04c-.5-.88-2.66-4.42-4.9-4.44-2.65.1-4.52 4.48-4.52 4.48h-17.8s-.6 4.57 8.43 5.45c2.03 2.65 3.6 3.4 5.37 4.08-1.18 1-1.5 2.18-1.5 3.77z"/><path fill="none" stroke="#000" stroke-width=".805" d="M414.97 268.88l15.94-.05m-23.23-9.35s1.28 7.45 7.16 9.22"/><path fill="url(#f)" fill-rule="evenodd" stroke="#000" stroke-width=".609" d="M66.32 170.54c.45-2.15 1.26-2.52 2.15-5.27.15-2.67-2.15-2.37-1.48-4.08 1.17-1.86.58-3.64-1.64-5.05.44 2.45-2.9 4.75-2.9 6.75s1.7 1.56 1.5 4.6c.13 1.78-.46 1.33-.6 3.04h2.96z" transform="translate(318.978 33.838) scale(1.323)"/><path fill="#f7c600" fill-rule="evenodd" stroke="#000" stroke-width=".805" d="M425.9 241.7a2.26 2.26 0 1 1-4.5 0 2.26 2.26 0 0 1 4.5 0z"/><path fill="none" stroke="#f7c600" stroke-width="1.718" d="M411.55 223.7l12.35-18.12 12.4 18.17"/><path fill="#f7c600" fill-rule="evenodd" stroke="#000" stroke-width=".805" d="M426.38 216.93a2.45 2.45 0 1 1-4.9 0 2.45 2.45 0 0 1 4.9 0zM413.87 237.1l19.14.07s.3-2.5-2-4c10.04-1.38 7.43-10.22 15.83-10.72 1.63.25-4.4 3.76-4.4 3.76s-5.05 3.58-2.74 5.4c1.82 1.44 2.62-.88 2.87-2.64.25-1.75 8.15-2.88 7.02-7.9-1.9-4.13-12.92 2.77-12.92 2.77l-7.87-.05c-.48-.88-2.65-4.42-4.9-4.44-2.64.1-4.5 4.5-4.5 4.5h-17.8s-.62 4.55 8.4 5.43c2.03 2.65 3.6 3.4 5.38 4.08-1.18.98-1.5 2.17-1.5 3.76z"/><path fill="none" stroke="#000" stroke-width=".805" d="M415.25 233.22l15.94-.05m-23.25-9.35s1.27 7.46 7.16 9.22"/><path fill="url(#g)" fill-rule="evenodd" stroke="#000" stroke-width=".609" d="M66.32 170.54c.45-2.15 1.26-2.52 2.15-5.27.15-2.67-2.15-2.37-1.48-4.08 1.17-1.86.58-3.64-1.64-5.05.44 2.45-2.9 4.75-2.9 6.75s1.7 1.56 1.5 4.6c.13 1.78-.46 1.33-.6 3.04h2.96z" transform="translate(319.255 -1.82) scale(1.323)"/><path fill="#f7c600" fill-rule="evenodd" stroke="#000" stroke-width=".805" d="M426.18 206.04a2.26 2.26 0 1 1-4.5 0 2.26 2.26 0 0 1 4.5 0z"/><path fill="none" stroke="#f7c600" stroke-width="1.718" d="M412.23 187.53l12.34-18.13 12.4 18.17"/><path fill="#f7c600" fill-rule="evenodd" stroke="#000" stroke-width=".805" d="M427.05 180.75a2.45 2.45 0 1 1-4.9 0 2.45 2.45 0 0 1 4.9 0zM414.55 200.93l19.14.05s.3-2.48-2-4c10.02-1.37 7.4-10.2 15.8-10.7 1.64.24-4.38 3.75-4.38 3.75s-5.06 3.57-2.76 5.4c1.83 1.43 2.64-.9 2.9-2.65.24-1.75 8.13-2.88 7-7.9-1.88-4.13-12.9 2.77-12.9 2.77l-7.87-.05c-.5-.88-2.67-4.42-4.9-4.44-2.67.1-4.54 4.5-4.54 4.5h-17.8s-.6 4.55 8.42 5.43c2.03 2.64 3.6 3.38 5.37 4.07-1.17.98-1.5 2.17-1.5 3.76z"/><path fill="none" stroke="#000" stroke-width=".805" d="M415.93 197.04l15.94-.05m-23.25-9.36s1.28 7.46 7.17 9.22"/><path fill="url(#h)" fill-rule="evenodd" stroke="#000" stroke-width=".609" d="M66.32 170.54c.45-2.15 1.26-2.52 2.15-5.27.15-2.67-2.15-2.37-1.48-4.08 1.17-1.86.58-3.64-1.64-5.05.44 2.45-2.9 4.75-2.9 6.75s1.7 1.56 1.5 4.6c.13 1.78-.46 1.33-.6 3.04h2.96z" transform="translate(319.933 -38) scale(1.323)"/><path fill="#f7c600" fill-rule="evenodd" stroke="#000" stroke-width=".805" d="M426.86 169.86a2.26 2.26 0 1 1-4.5 0 2.26 2.26 0 0 1 4.5 0z"/><path fill="none" stroke="#f7c600" stroke-width="1.718" d="M540.36 188.12L552.7 170l12.4 18.16"/><path fill="#f7c600" fill-rule="evenodd" stroke="#000" stroke-width=".805" d="M555.18 181.34a2.45 2.45 0 1 1-4.9 0 2.45 2.45 0 0 1 4.9 0zM542.68 201.52l19.14.05s.3-2.48-2-4c10.02-1.37 7.42-10.2 15.82-10.7 1.62.24-4.4 3.75-4.4 3.75s-5.05 3.57-2.75 5.38c1.82 1.45 2.62-.87 2.88-2.63.25-1.75 8.14-2.88 7-7.9-1.87-4.13-12.9 2.76-12.9 2.76l-7.86-.04c-.5-.9-2.66-4.43-4.9-4.45-2.66.1-4.53 4.48-4.53 4.48h-17.8s-.6 4.57 8.4 5.45c2.04 2.65 3.62 3.4 5.38 4.08-1.18.98-1.5 2.17-1.5 3.76z"/><path fill="none" stroke="#000" stroke-width=".805" d="M544.05 197.63l15.95-.05m-23.25-9.35s1.28 7.45 7.16 9.22"/><path fill="url(#i)" fill-rule="evenodd" stroke="#000" stroke-width=".609" d="M66.32 170.54c.45-2.15 1.26-2.52 2.15-5.27.15-2.67-2.15-2.37-1.48-4.08 1.17-1.86.58-3.64-1.64-5.05.44 2.45-2.9 4.75-2.9 6.75s1.7 1.56 1.5 4.6c.13 1.78-.46 1.33-.6 3.04h2.96z" transform="translate(448.06 -37.411) scale(1.323)"/><path fill="#f7c600" fill-rule="evenodd" stroke="#000" stroke-width=".805" d="M555 170.45a2.26 2.26 0 1 1-4.53 0 2.26 2.26 0 0 1 4.52 0z"/><path fill="none" stroke="#f7c600" stroke-width="1.718" d="M539.18 223.64l12.35-18.14 12.4 18.18"/><path fill="#f7c600" fill-rule="evenodd" stroke="#000" stroke-width=".805" d="M554 216.85a2.45 2.45 0 1 1-4.9 0 2.45 2.45 0 0 1 4.9 0zM541.5 237.03l19.15.06s.3-2.5-2-4c10.02-1.38 7.42-10.23 15.82-10.73 1.62.25-4.4 3.76-4.4 3.76s-5.05 3.57-2.75 5.4c1.83 1.43 2.63-.9 2.88-2.64.25-1.77 8.15-2.9 7.02-7.9-1.88-4.14-12.9 2.75-12.9 2.75l-7.87-.04c-.5-.88-2.66-4.42-4.9-4.43-2.66.1-4.53 4.48-4.53 4.48h-17.8s-.6 4.57 8.42 5.44c2.03 2.65 3.6 3.4 5.37 4.08-1.17.98-1.5 2.16-1.5 3.75z"/><path fill="none" stroke="#000" stroke-width=".805" d="M542.88 233.15l15.95-.06m-23.25-9.36s1.28 7.46 7.16 9.23"/><path fill="url(#j)" fill-rule="evenodd" stroke="#000" stroke-width=".609" d="M66.32 170.54c.45-2.15 1.26-2.52 2.15-5.27.15-2.67-2.15-2.37-1.48-4.08 1.17-1.86.58-3.64-1.64-5.05.44 2.45-2.9 4.75-2.9 6.75s1.7 1.56 1.5 4.6c.13 1.78-.46 1.33-.6 3.04h2.96z" transform="translate(446.89 -1.895) scale(1.323)"/><path fill="#f7c600" fill-rule="evenodd" stroke="#000" stroke-width=".805" d="M553.82 205.96a2.26 2.26 0 1 1-4.52 0 2.26 2.26 0 0 1 4.52 0z"/><path fill="none" stroke="#f7c600" stroke-width="1.718" d="M537.6 259.94l12.36-18.13 12.4 18.18"/><path fill="#f7c600" fill-rule="evenodd" stroke="#000" stroke-width=".805" d="M552.44 253.15a2.45 2.45 0 1 1-4.9 0 2.45 2.45 0 0 1 4.9 0zM539.94 273.34l19.14.05s.3-2.5-2-4c10.02-1.38 7.42-10.23 15.8-10.73 1.64.25-4.37 3.76-4.37 3.76s-5.05 3.58-2.75 5.4c1.83 1.43 2.63-.9 2.88-2.64.25-1.76 8.15-2.9 7.02-7.9-1.88-4.14-12.9 2.75-12.9 2.75l-7.87-.04c-.5-.87-2.66-4.42-4.9-4.43-2.66.1-4.53 4.48-4.53 4.48h-17.8s-.6 4.57 8.42 5.45c2.03 2.65 3.6 3.4 5.37 4.08-1.18.98-1.5 2.17-1.5 3.76z"/><path fill="none" stroke="#000" stroke-width=".805" d="M541.3 269.45l15.96-.06M534 260.04s1.3 7.45 7.17 9.22"/><path fill="url(#k)" fill-rule="evenodd" stroke="#000" stroke-width=".609" d="M66.32 170.54c.45-2.15 1.26-2.52 2.15-5.27.15-2.67-2.15-2.37-1.48-4.08 1.17-1.86.58-3.64-1.64-5.05.44 2.45-2.9 4.75-2.9 6.75s1.7 1.56 1.5 4.6c.13 1.78-.46 1.33-.6 3.04h2.96z" transform="translate(445.32 34.406) scale(1.323)"/><path fill="#f7c600" fill-rule="evenodd" stroke="#000" stroke-width=".805" d="M552.24 242.26a2.26 2.26 0 1 1-4.5 0 2.26 2.26 0 0 1 4.5 0z"/><path fill="none" stroke="#f7c600" stroke-width="1.288" d="M539.18 367.27l12.35-18.13 12.4 18.17"/><path fill="#f7c600" fill-rule="evenodd" stroke="#000" stroke-width=".805" d="M554 360.5a2.45 2.45 0 1 1-4.9 0 2.45 2.45 0 0 1 4.9 0zM541.5 380.67l19.14.05s.3-2.48-2-4c10.03-1.37 7.43-10.22 15.82-10.72 1.63.25-4.38 3.76-4.38 3.76s-5.07 3.58-2.76 5.4c1.83 1.43 2.63-.88 2.88-2.64.25-1.75 8.15-2.88 7.02-7.9-1.88-4.13-12.9 2.76-12.9 2.76l-7.88-.04c-.5-.88-2.66-4.43-4.9-4.44-2.65.1-4.52 4.48-4.52 4.48h-17.8s-.6 4.57 8.4 5.45c2.04 2.65 3.62 3.4 5.4 4.08-1.2 1-1.52 2.17-1.52 3.77z"/><path fill="none" stroke="#000" stroke-width=".805" d="M542.88 376.78l15.94-.06m-23.24-9.34s1.27 7.46 7.16 9.23"/><path fill="url(#l)" fill-rule="evenodd" stroke="#000" stroke-width=".784" d="M814.5 330.27c.57-2.77 1.63-3.25 2.77-6.8.2-3.43-2.77-3.05-1.9-5.24 1.52-2.4.76-4.7-2.1-6.5.56 3.15-3.74 6.1-3.74 8.7 0 2.58 2.2 2 1.9 5.92.2 2.3-.56 1.72-.75 3.92h3.82z" transform="translate(-301.49 28.259) scale(1.026)"/><path fill="#f7c600" fill-rule="evenodd" stroke="#000" stroke-width=".805" d="M553.8 349.6a2.26 2.26 0 1 1-4.5 0 2.26 2.26 0 0 1 4.5 0z"/><path fill="none" stroke="#f7c600" stroke-width="1.718" d="M539 331.36l12.34-18.13 12.4 18.17"/><path fill="#f7c600" fill-rule="evenodd" stroke="#000" stroke-width=".805" d="M553.82 324.58a2.45 2.45 0 1 1-4.9 0 2.45 2.45 0 0 1 4.9 0zM541.3 344.76l19.15.06s.3-2.5-2-4c10.03-1.38 7.42-10.22 15.82-10.72 1.63.25-4.4 3.76-4.4 3.76s-5.05 3.57-2.74 5.4c1.83 1.43 2.63-.9 2.88-2.65.26-1.74 8.16-2.87 7.03-7.88-1.88-4.14-12.9 2.76-12.9 2.76l-7.88-.05c-.5-.88-2.66-4.42-4.9-4.44-2.65.1-4.52 4.48-4.52 4.48h-17.8s-.6 4.56 8.4 5.44c2.05 2.65 3.62 3.4 5.4 4.08-1.2.98-1.52 2.17-1.52 3.76z"/><path fill="none" stroke="#000" stroke-width=".805" d="M542.7 340.87l15.93-.05m-23.24-9.35s1.26 7.46 7.15 9.22"/><path fill="url(#m)" fill-rule="evenodd" stroke="#000" stroke-width=".609" d="M66.32 170.54c.45-2.15 1.26-2.52 2.15-5.27.15-2.67-2.15-2.37-1.48-4.08 1.17-1.86.58-3.64-1.64-5.05.44 2.45-2.9 4.75-2.9 6.75s1.7 1.56 1.5 4.6c.13 1.78-.46 1.33-.6 3.04h2.96z" transform="translate(446.695 105.83) scale(1.323)"/><path fill="#f7c600" fill-rule="evenodd" stroke="#000" stroke-width=".805" d="M553.62 313.7a2.26 2.26 0 1 1-4.5 0 2.26 2.26 0 0 1 4.5 0z"/><path fill="none" stroke="#f7c600" stroke-width="1.718" d="M434.68 298l12.34-18.14 12.4 18.17"/><path fill="#f7c600" fill-rule="evenodd" stroke="#000" stroke-width=".805" d="M449.5 291.2a2.45 2.45 0 1 1-4.9 0 2.45 2.45 0 0 1 4.9 0zM437 311.4l19.14.04s.3-2.48-2-4c10.03-1.37 7.42-10.22 15.82-10.72 1.63.25-4.4 3.76-4.4 3.76s-5.05 3.58-2.75 5.4c1.84 1.43 2.65-.9 2.9-2.64.25-1.75 8.14-2.88 7-7.9-1.87-4.13-12.9 2.76-12.9 2.76l-7.86-.04c-.5-.88-2.66-4.43-4.9-4.44-2.66.1-4.53 4.48-4.53 4.48h-17.78s-.6 4.57 8.4 5.45c2.04 2.65 3.62 3.4 5.38 4.08-1.18.98-1.5 2.17-1.5 3.76z"/><path fill="none" stroke="#000" stroke-width=".805" d="M438.38 307.5l15.94-.06m-23.25-9.34s1.28 7.45 7.17 9.22"/><path fill="url(#n)" fill-rule="evenodd" stroke="#000" stroke-width=".609" d="M66.32 170.54c.45-2.15 1.26-2.52 2.15-5.27.15-2.67-2.15-2.37-1.48-4.08 1.17-1.86.58-3.64-1.64-5.05.44 2.45-2.9 4.75-2.9 6.75s1.7 1.56 1.5 4.6c.13 1.78-.46 1.33-.6 3.04h2.96z" transform="translate(342.382 72.456) scale(1.323)"/><path fill="#f7c600" fill-rule="evenodd" stroke="#000" stroke-width=".805" d="M449.3 280.3a2.26 2.26 0 1 1-4.5 0 2.26 2.26 0 0 1 4.5 0z"/><g stroke="#000"><path fill="#f7c600" fill-rule="evenodd" d="M500.74 384.17s5 11.52 10.68 4.44 3.6-10.12 3.6-10.12l-12.75-6.93-3.75 7.9 2.22 4.72z"/><path fill="#ffc6b5" fill-rule="evenodd" d="M511.7 382.65s.84.14 1.53-1.1-1.53-1.8-2.5-3.2l-1.1 2.22 2.07 2.08zm-28.87-3.05l-11.23 6.1s-5.55 1.1-5.97 0c-.42-1.1.14-2.08 3.05-2.22 2.92-.14 10.82-7.35 10.82-7.35l3.33 3.47zm.15-199.67s.28 2.64.42 4.03-2.22 4.3-2.36 4.16-1.25.14-1.1.97 1.8 1.1 1.8 1.1-.7 2.92 0 3.05c.68.14-1.8 3.75 0 4.72 1.8.97 4.85 2.22 6.23 1.94 1.4-.26 0 5.43 0 5.43l-3.88 8.32 21.36-2.22-4.44-7.08s-2.08-1.38-1.53-5.4c.55-4.03-.3-22.2-.3-22.2l-15.25-2.1-.97 5.28zm-3.9 31.64s-6.93 3.2-6.65 11.8c-1.8 8.32-2.77 16.64-2.77 16.64s-8.2 9.3-10.7 12.64c-2.48 3.33-6.23 10.13-7.62 11.93s-6.8 7.77-6.66 10c.14 2.2-1.25 12.06 4.16 13.17 1.4.56 5.83-11.37 5.83-11.37s.28-5.14-1.25-6.1 3.33-4.3 3.33-4.3 9.3-6.8 11.38-8.48 7.77-8.05 7.77-8.05l3.2-37.88z"/><path fill="#fff" fill-rule="evenodd" d="M487 205.05s1.8 4.85 5.83 4.02c4.02-.83 8.74-4.58 8.74-4.58s3.74-.15 4.3.4c.55.56 10.13 9.86 9.85 12.77-.28 2.92-4.44 2.08-5.97 4.03s-4.02 6.8-3.33 10.4 2.78 8.33 2.5 10.13-1.8 2.36-1.8 3.33c0 .97 1.25 2.64 1.25 4.44s-1.67 4.44-1.4 6.25c.3 1.8.43 7.07.43 7.07l-.42 24.42s1.4.84 1.53 2.22c.15 1.4 9.44 41.77 9.44 41.77s-.42 1.25-1.4 1.1 3.76 6.25 3.9 8.05 4.85 15.96 4.72 17.9c-.14 1.95-.84 6.25-1.25 6.4-.4.12 3.06 8.87 2.5 10.25-.55 1.4-6.24 1.25-6.24 1.25l-1.53-.28s.14 1.8-.97 1.95-9.3-.42-9.3-.42-2.35 3.6-3.74 3.47c-1.4-.14-3.2-2.64-3.6-2.22-.42.42 1.24 2.77.83 3.47-.42.7-7.5 2.22-8.88-1.1-1.4-3.34.83-2.5.4-3.2-.4-.7-3.6-2.5-4.57-1.95s2.5 1.4 2.36 2.78c-.14 1.4-3.05 3.47-4.16 3.47s-3.75-5.14-7.63-4.58c-3.9.56-6.38 1.53-6.38 1.53s-4.6 1.94-6.54 1.52c-1.94-.4-2.77-1.94-2.77-2.77 0-.83 1.38-4.44 1.24-5.55s-1.25-2.22-1.25-3.9c0-1.65 3.18-7.34 3.18-7.34l-.14-25.53s-2.9 0-3.05-1.8 4.43-40.38 5.12-42.88c.7-2.5 2.5-11.38 2.5-11.38s-2.08.97-2.22 0 6.24-23.03 6.24-23.03 1.1-10.96 1.1-13.87c0-2.92-.54-6.94-.54-6.94s-5.7-2.4-5.83-6.1c-.52-5.88 5.4-9.16 6.1-11.1l2.78-7.78s3.05-5.27 8.05-6.1z"/><path fill="#f7c600" fill-rule="evenodd" d="M484.92 381.26s-13.45 7.08-15.4 7.64c-1.94.55-3.2-2.36-1.25-2.92 1.95-.55 5-.83 5-.83s-4.58-3.6-4.44-3.75c.14-.14 6.24-2.35 6.38-2.35s1.95 3.6 3.2 3.33 4.86-3.06 4.86-3.06 1.94 2.22 1.66 1.94z"/><path fill="#ffc6b5" fill-rule="evenodd" d="M503.9 385.14c1.26 1.64 1.76 4.5 4.67 2.82s-1.5-4.75-1.5-4.75l-3.18 1.94zm5.3-.28s1.4 1.1 2.64-.14-2.5-3.88-2.5-3.88l-1.8 2.08 1.67 1.94z"/><path fill="none" d="M505.04 210.46s-12.35 7.9-12.07 10.68m14.85-9.3s-2.78 3.06-2.92 3.06m6.66.28s-6.1 5-5.13 8.18m-23.73-13.6s-1.8 3.75-1.4 5c.43 1.25 3.48 5.97 3.9 8.88.42 2.9 0 5 0 5m-5.68-11.94s.55 4.44 1.38 5.27c.84.84 3.06 4.58 3.33 6.1m-5.83 7.08s3.6 1.8 6.94-5.13m5.4-4.85c-.14 0-2.63 6.8 1.8 9.3s7.78 2.2 9.72 1.52c1.94-.7 4.02-1.95 4.02-1.95m-17.47-.56s.3 9.15 13.75 18.17m-13.18-9.58s-.14 8.04 5.13 11.65m-7.9-21.1s-4.03 11.94-7.23 13.2m5.96-4.45s-.13 8.6-1.24 11.65m-1.12 2.1s2.77 3.45 5.83 3.18c3.06-.28 4.3-3.9 6.4-3.33 2.07.55 4 2.22 8.87 1.8m-6.94 3.6s0 7.08 1.25 7.78.7 7.2.7 7.2m-18.88-18.3s-.14 6.66-.97 9.02c-.83 2.36-2.5 6.38-2.22 9.85m-5.26 3.9c.7-.3 3.05-2.37 3.05-2.37m1.24 1.52s-5.97 25.53-4.3 40.8m5.68-39.55s-3.05 19.15-1.66 22.75m.14-23.3c.14 0 11.66.83 11.66.83m1.66-1.53s3.2 1.67 7.63 1.4m-9.02 7.9s-.55 32.75-1.38 39.96m18.46-32.47s3.6 28.7 5.7 31.35m-12.64-27.75s2.22 25.4 3.47 27.6m-34.96 8.9s4.3-1.4 8.2-5.56c4.43 5.96 11.23.28 11.23.28s10.54 7.2 15.26-.84c7.22 4.72 10.82-.7 10.82-.7s2.64 4.03 4.58 3.62m-11.52 2.78s5.4 25.4 13.46 32.6m-41.35-35.25s.7 21.23 1.94 36.22m-2.92-12.2s-.7 13.86-1.53 14.83m-6.66 1.4s1.52 5.96 9.15.4c7.63-5.54 7.77 2.1 8.05 2.93.28.84 1.53 6.8 4.44 1.8m6.1-8.18s-1.25 12.35 9.7 3.33c10.98-9.02 12.78-.14 13.06 2.64"/><path fill="#9c5100" fill-rule="evenodd" d="M482.56 179.1s3.05.42 4.7-.55c1.68-.98 3.62-1.4 5 .55s2.37 1.8 2.37 1.8-2.08 5.14 0 5.7c2.08.55 3.05.55 3.2 1.24.13.7-1.82 2.22-1.26 2.9.55.7 1.53 1.54 1.66 2.1.14.55-1.24 2.9-.83 3.47.42.56 1.67 2.78 2.5 2.78.83 0 .28 3.47 2.77 2.64s2.36-3.06 2.36-3.06 2.64-.4 3.33-2.77c.7-2.37 2.36-2.92 2.36-2.92s3.33-1.8-1.1-4.58c0-19.43-12.77-17.35-12.77-17.35s-1.53-3.47-4.03-3.05c-2.5.42-2.63 3.33-4.44 3.05-1.8-.28-2.22-1.52-2.36-1.38-.13.13-1.66 2.9-1.66 3.6 0 .7-4.86-.97-4.44 2.64s2.77 3.48 2.64 3.2z"/><path fill="none" d="M495.9 174.38s-.98 6.1 5.54 5.55c-.84 3.33 1.66 4.44 1.66 4.44m4.85 3.75c.14 0 2.9 1.8-.14 4.02m-9.28.84s1.4 1.66 2.9 1.25c1.54-.42 4.04 1.52 4.04 1.52s2.08.7 2.36.28m-17.77 2.22s4.72 1.8 7.77-5.7m-16.5-2.2l2.77.13M481.74 193.1h2.5l-2.23 1"/><path fill="none" d="M485.2 185.34c.42 0 1.94-.55 2.22-.13.28.42-1.66.7-2.22.14z"/><path fill="#ffc6b5" fill-rule="evenodd" d="M515.17 218.3c.14 0 4.58 13.75 5.13 17.2.56 3.48 2.36 17.36 1.67 19.3-.7 1.94-7.77 11.24-8.6 13.6-.84 2.36-5.83 11.38-5.83 11.38s-1.25 8.88-1.8 9.3c-.56.4 1.43 2.6 1.24 3.32-.27.83-4.02 4.72-5.68 4.3-1.67-.4-4.3-2.35-4.44-4.16s.13-7.77 1.38-9.3 7.77-16.92 8.2-17.9c.4-.96 5.95-13.04 6.1-15.12.13-2.08-1.73-6.9-3.7-8.66-4.36-12.85-2.65-20.6 6.33-23.25z"/><path fill="none" d="M450.52 277.84l.22 6.08m-5.9-6.53s3.9 6.5 3.56 10M497.08 291s2.9-.3 2.82 4.57c1.86-6.04 5.65-6.18 5.65-6.18"/></g><path fill="#f7c600" fill-rule="evenodd" stroke="#000" stroke-width="1.717" d="M487.12 429.95c58.6-1.63 96.44-43.95 96.04-44.36-.4-.4 7.73-11.8 14.24-10.18 6.5 1.63 15.87 20.75 27.26 24.82 5.7 8.96-1.62 17.1-4.07 18.72-2.45 1.63-13.44 6.1-15.06-.4-1.63-6.52-4.9-5.3-4.9-5.3s-52.07 50.87-112.3 48.84c-62.25.4-113.53-48.83-113.53-48.83l-4.46 4.88s-4.9 5.3-7.33 4.88c-2.43-.4-13-7.32-13.82-14.24-.82-6.93 6.5-11.4 6.5-11.4s17.9-13.84 19.95-21.16c4.07-4.07 11.8 2.84 11.8 2.84s47.2 54.13 99.7 50.87z"/><path fill="none" stroke="#000" stroke-width="1.717" d="M354.46 398.48s4.85-1.3 6.62.72c1.78 2.02 13.96 13.96 13.96 13.96M365.52 404.12l-4.84 3.63s12.18 2.42 9.44 10.4m250.18-20.08s-2.42-1.3-6.22 1.53c-3.8 2.82-13.4 13.56-13.4 13.56M609.4 403.8l5.25 4.04s-10.97.73-8.55 11.14"/><path d="M416.5 411.4l-.36.5c-.73-.38-1.57-.45-2.52-.22-.7.18-2 .83-3.9 1.95l-16.13 9.4-.45-.3 4.06-18.86c.5-2.27.72-3.65.68-4.14-.03-.48-.37-1.02-1.02-1.6l.35-.5 8.7 6.2-.35.5-.3-.2c-.78-.57-1.38-.85-1.8-.86-.3 0-.55.1-.73.37-.12.16-.22.38-.3.65-.1.26-.26 1-.53 2.26l-2.6 11.78 9.33-5.48c1.12-.67 1.85-1.13 2.18-1.4.34-.25.6-.5.76-.73.2-.27.3-.55.3-.86 0-.3-.1-.6-.3-.92-.28-.42-.73-.86-1.37-1.3l.35-.5 5.95 4.24m5.8 28l-.3.54-10.22-5.6.3-.52.64.35c.56.3 1.08.46 1.53.45.33 0 .64-.12.96-.38.24-.17.62-.75 1.16-1.73l7.03-12.84c.53-1 .82-1.65.85-1.96.03-.3-.06-.64-.3-1-.2-.37-.58-.7-1.13-1l-.65-.35.3-.54 10.2 5.6-.28.53-.66-.35c-.57-.3-1.08-.46-1.53-.45-.32 0-.64.12-.96.37-.24.17-.62.75-1.15 1.73l-7.04 12.85c-.55 1-.84 1.66-.87 1.96-.03.32.06.66.28 1.02.22.36.6.7 1.16 1l.65.35m37.3-8.75l-2.62 7.4-.58-.2c.03-2.27-.46-4.18-1.46-5.72-1-1.55-2.34-2.6-3.98-3.2-1.56-.55-3.03-.58-4.38-.06-1.36.5-2.53 1.47-3.53 2.9a19.4 19.4 0 0 0-2.38 4.62c-.7 2-1.1 3.85-1.17 5.54s.3 3.07 1.1 4.15c.8 1.08 1.94 1.9 3.4 2.4a8.6 8.6 0 0 0 1.6.4c.57.08 1.18.1 1.8.1l1.56-4.36c.3-.82.43-1.37.4-1.65-.03-.3-.2-.6-.48-.93-.28-.32-.67-.57-1.18-.75l-.54-.2.2-.57 10.2 3.64-.2.56c-.8-.23-1.37-.3-1.74-.26-.36.05-.68.23-.98.54-.16.17-.38.63-.65 1.4l-1.57 4.36c-1.55.12-3.1.07-4.67-.15a22.75 22.75 0 0 1-4.67-1.14c-2-.7-3.56-1.56-4.7-2.56a13.57 13.57 0 0 1-2.7-3.38c-.7-1.24-1.12-2.52-1.3-3.82-.2-1.68 0-3.4.63-5.17 1.12-3.15 3.18-5.43 6.17-6.8 3-1.4 6.17-1.5 9.53-.3 1.05.38 1.95.8 2.73 1.25.43.25 1.07.75 1.95 1.5.9.74 1.43 1.15 1.6 1.22.3.1.6.1.93-.03.32-.1.7-.44 1.1-.95l.58.2m15.73 25.24l-.1.6-11.5-1.75.1-.6.72.1c.64.1 1.17.07 1.6-.1.3-.1.56-.33.76-.68.17-.24.33-.9.5-2.02l2.2-14.48c.17-1.13.2-1.84.14-2.14-.08-.3-.3-.58-.62-.84-.33-.28-.8-.47-1.42-.56l-.73-.1.1-.6 11.5 1.73-.08.6-.74-.1c-.64-.1-1.17-.07-1.6.1-.3.1-.56.34-.78.68-.16.24-.32.9-.5 2.02l-2.18 14.48c-.17 1.13-.22 1.84-.15 2.14.1.3.3.58.62.85.34.26.82.44 1.43.53l.73.1m29.9-7.25l-.45 7.85-19.75 1-.03-.6.74-.03c.64-.04 1.16-.18 1.54-.43.28-.17.48-.44.62-.82.1-.27.13-.96.07-2.08l-.75-14.63c-.05-1.14-.15-1.85-.3-2.13-.12-.28-.38-.5-.76-.7-.37-.2-.87-.28-1.5-.25l-.73.04-.03-.6 11.86-.62.03.6-.98.06c-.65.03-1.16.17-1.54.42-.28.17-.5.45-.63.83-.1.26-.14.96-.08 2.07l.72 14.17c.05 1.13.15 1.85.3 2.16.15.3.42.52.8.65.3.1.95.1 2 .06l1.85-.1c1.2-.05 2.16-.3 2.92-.77.77-.46 1.42-1.15 1.94-2.08.54-.93 1.02-2.28 1.45-4.05l.67-.04m21.6-3.75l-7.54 2.26-.27 2.34c-.08.78-.06 1.4.08 1.85.18.6.55.97 1.12 1.1.33.1 1.07 0 2.2-.24l.18.57-7.1 2.12-.17-.6c.74-.34 1.27-.84 1.6-1.5.35-.67.64-1.93.87-3.77l2.55-19.3.3-.1 12.92 15.2c1.23 1.44 2.15 2.3 2.75 2.6.44.2 1 .25 1.67.1l.17.6-10.32 3.07-.18-.58.43-.13c.83-.25 1.38-.54 1.64-.87.2-.24.24-.52.14-.83a2 2 0 0 0-.27-.56c-.05-.08-.32-.43-.82-1.03l-1.93-2.3m-.88-1.02l-5.38-6.4-1.07 8.33 6.44-1.92m28.46-29l2.85 5.3-.52.3c-.96-1.07-1.78-1.77-2.44-2.1-.68-.33-1.42-.48-2.25-.45-.46.02-1.15.28-2.06.78l-1.47.8 8.13 15.12c.54 1 .93 1.6 1.17 1.8.25.2.6.3 1 .3.44.02.93-.13 1.5-.43l.64-.36.3.54-10.28 5.52-.3-.54.65-.35c.57-.3.97-.64 1.2-1.03.2-.27.26-.6.23-1-.02-.3-.3-.94-.82-1.92l-8.14-15.13-1.42.76c-1.32.7-2.13 1.5-2.42 2.4-.42 1.22-.35 2.62.2 4.18l-.55.3-2.85-5.3 17.62-9.48m13.36-7.92l5.46 7.24.35-.27c1.13-.85 1.68-1.82 1.65-2.9s-.5-2.4-1.4-3.88l.5-.37 7.03 9.3-.5.38c-.87-.93-1.72-1.6-2.55-1.98-.82-.4-1.53-.54-2.14-.42-.62.1-1.35.48-2.2 1.12l3.78 5c.74 1 1.23 1.56 1.47 1.72.26.15.55.2.9.18.32-.03.74-.24 1.25-.62l1.06-.8c1.67-1.26 2.7-2.65 3.12-4.17.43-1.53.27-3.25-.48-5.15l.48-.37 3.47 6.26-15.38 11.6-.37-.5.6-.44c.5-.4.85-.8 1.03-1.22.13-.3.15-.63.05-1.02-.06-.28-.43-.87-1.1-1.76L565 412.2c-.6-.8-1-1.28-1.18-1.43a1.57 1.57 0 0 0-1.02-.34c-.5 0-1.06.22-1.64.66l-.6.43-.35-.48 14.9-11.23 3.95 5.26-.5.38c-1.22-1.1-2.27-1.75-3.16-1.96-.88-.22-1.84-.14-2.88.23-.6.2-1.58.83-2.93 1.84l-1.84 1.4"/><path fill="none" d="M380.54 413.06c72.78 59.04 144.13 60.12 213.93 0"/></g></svg>