<svg xmlns="http://www.w3.org/2000/svg" width="640" height="480" xmlns:xlink="http://www.w3.org/1999/xlink"><path fill="#fff" d="M0 0h640v480H0z"/><path fill="#369443" stroke="#010002" stroke-width="1.506" stroke-miterlimit="10" d="M204.35 314.93s-.52-3.5 6.14-6.08c6.65-2.57 7.17-12.16 5.84-18.55 0 0-3.48 6.08-7.7 8.1 0 0-6.88 3.6-7.2 10.44 0 0-.05 2.5-.57 4.46-.3 1.06-3.33-8.58 2.44-15.75 5.97-7.4 7.63-13.4 2.9-25.1 0 0-.45 7.1-5.1 11.15-4.67 4.05-5.27 4.36-5.2 14.03 0 0 .08 3.35-1.7 4.44 0 0-3.62-5.3-4.58-8.8-.96-3.52-1.4-5 2.74-9.05 0 0 13.28-8.58 3.7-27.36 0 0-.3 6.47-4.9 10.3-4.58 3.8-4.2 6.38-4.43 13-.22 6.63-.66 6.16-1.18 7.1 0 0-8.44-15.5-1.93-23.78 6.52-8.26 10.14-9.98 2.96-25.33 0 0 .32 7.87-5.43 11.77-5.74 3.9-4.4 13.02-4.4 13.02s.36 3.43-.83 5.92c0 0-8.13-15.86-.37-24.4 6.6-7.25 7.04-12.3 3.48-22.6 0 0-.44 4.75-4.07 7.32-3.62 2.58-6.5 5.15-5.85 15.05 0 0 .3 6.94-.58 8.9 0 0-3.4-6.33-4.37-10.46-.96-4.13-1.33-6.55 1.2-10.68 2.5-4.14 12.5-16 .58-33.06 0 0-.37 5.53-3.4 10.52-3.04 5-1.63 10.92-.97 15.44.67 4.52-1.55 8.88-1.55 8.88s-5.17-9.5-4.06-20.42c1.1-10.9-3.33-19.88-13.4-26.35 0 0-7.33 17 2.67 25.66 0 0 8.52 8.42 10.67 18.63 0 0-6.44-.64-12.3-12.02-5.84-11.38-17.98-9.6-18.8-9.66 0 0 2 17.62 20.66 22.6 0 0 11.92 2.03 14.14 10.76 0 0 2 6 2.8 9.2 0 0-3.77-1.48-7.25-6.63-3.48-5.14-3.03-5.77-14.8-6.93 0 0-4.74-.55-7.25-3.9 0 0 4.96 18.63 17.7 18.47 0 0 11.6-1.25 18.12 14.03 0 0-1.27-.78-2.97-1.95-1.7-1.17-6-3.35-14.5-2.34-8.52 1-10.9-.4-13.03-1.1 0 0 8.58 15.75 20.72 11.08 12.14-4.68 18 12.37 18.14 12.7 0 0-1.63-1.24-3.78-3.35-2.15-2.1-6.6-4.7-15.02-2.03 0 0-6.08 2.34-12.22.47 0 0 5.92 11.47 19.76 9.52 13.85-1.95 17.32 10.2 17.32 10.2s-1.85-1.08-3.1-2.1c-1.26-1-5.93-3.66-15.92-.7-10 2.97-13.62-.46-13.62-.46s5.55 10.13 16.2 11.3c0 0 5.94-.07 8.45-1 2.52-.95 9.18-2.43 13.77 4.2 0 0-1.26.23-3.18-.62 0 0-7.1-2.58-12.5 1.94 0 0-4.82 4.9-11.63 3.98 0 0 8.8 8.58 22.78 1.33 0 0 4.74-3.44 8.22-.8 3.48 2.66 11.55-2.56 11.55-2.56z"/><g fill="#f4c53d" stroke="#010002" stroke-width="1.505" stroke-miterlimit="10"><path d="M282.2 103.68s-1.6-14.5 9.98-15.9c12.1-1.46 18.06 1.08 18.06 1.08l5.43 10.66-1.88 7.17-7.5 3.42s1.27-11.02-8.83-11.25c-2.55-.05-4.06.96-8.1.32-4.08-.66-6.25 3.82-7.16 4.48zM363.78 139.6c-1.73 2.22-8.64 3-8.64 3s7.1 5.46 10.17 13.25c3.07 7.8-82.35.05-82.35.05s3.7-2.65 6.22-7.64c0 0-3.77 1.4-7.55-2.33 0 0 2.8.93 6.5-4.68 0 0 5.5-7.02 9.34-8.9 0 0-1.78 1.1-6.07-1.24 0 0 7.4-.92 10.06-13.55 0 0 .44-2.8 3.25-6.86 2.83-4.06 2.23.77 7.4-5.46 0 0 2.38-4.42.3-7.12-2.06-2.7-4.28-1.72-8.63-4.32-4.34-2.6-6.26-4.05-4.78-8.05 1.47-4 5.32-3.38 5.86-3.38s.84-3.48 5.58-5.87 17.32-1.35 19.2-.32c1.87 1.04 9.47 3.28 13.9 14.5 4.45 11.23-1.18 15.44 10.9 32.38 0 0-4.82 1.04-7.93.1 0 0 6.27 11.12 17.28 16.43z"/><path fill="none" d="M310.93 92.22c-9.85-.47-6.07-9.85-6.07-9.85"/><path d="M328.03 93.5s-1.74-.8-3.2-2.76c-2.08-2.74-6.68-4.06-9.16-1.48 0 0-2.52 2.8-4.74 2.96 0 0 2.52.78 4.26 2.38 1.73 1.6 3.54 2.76 6.13 2.4 2.6-.34 3-1.7 4.22-2.52 1.22-.82 2.48-.98 2.48-.98z"/></g><path fill="#369443" stroke="#010002" stroke-width="1.506" stroke-miterlimit="10" d="M202.8 336.46s-.2-6.32 7.78-6.8l23.54 32.75s-.9 2.12-11.55 1.88c0 0-1.12 0-1.72 1.24-.9 1.92-18.04-29.06-18.04-29.06z"/><g id="a" fill="#f4c53d" stroke="#010002" stroke-width="10" transform="translate(3.597 26.17) scale(.151)"><path d="M1494.92 1807.9s-49.82 85.6-110.13 86.97c0 0-103.75-12.62-133.08 14.5-20.46 18.92-41.3 34.52-49.83 82.85-8.53 48.32 16.38 58.68 22.28 60.75 0 0 4.6 34.52 38.68 25.54 0 0 1.97 35.9 62.27 18.65 60.3-17.26 85.22-11.73 97.02-71.8 11.8-60.06 22.7-59.07 33.43-66.27 14.43-9.67 41.52-18.8 61.62-30.38 18.07-10.4 87.2-45.56 110.8-48.32 23.6-2.76 18.35-82.16 18.35-82.16h-60.97l-29.5-43.5-60.96 53.17zm192-429.42s-60.96 49.7-112.1 0c0 0-20.64 24.85-61.94 17.6s-48.18-29-52.1-41.42c0 0-35.74 20.84-65.9 4.38-30.15-16.46-30.15-41.32-30.15-41.32s-52.44 10.34-79.32-25.2c-26.86-35.55-10.48-70.76 3.95-74.9 0 0-56.7 14.85-72.1-33.83-13.12-41.43 16.38-62.83 16.38-62.83s-119.47-.58-168.48-37.97c0 0-40.64-25.55-16.4-52.47.02 0-107.5-17.26-134.37-60.06 0 0-11.8-11.74-7.86-32.45 0 0 .65-11.74 12.45-12.43 0 0-122.6-18.94-157.98-59.38 0 0-17.06-18.64-8.53-43.5 0 0 1.8-6.55 4.75-10.95 0 0-111.6-23.56-166.67-73.27 0 0-31.8-28.32-15.4-66.3 0 0-186.5-51.06-143.24-133.2 0 0-87.18-28.32-59.64-107.02 0 0-72.1-36.6-40.65-94.58 30.13-55.5 122.6 9.66 232.1 39.96 0 0 296.27 93.28 442.18 118.1l414.57 617.23 241.9 93.2 24.58 172.58zM1689.88 923.87s-38.86-29.17-108.17 5.17c0 0-23.32 16.07-41.67-1.53-15.34-14.7-16.78-41.82 4.32-57.48 51.62-38.32 70.8-153.26-7.87-200.9 0 0-114.06-67.66-532.32-174.1 0 0-35.04-9.7-53.72-5.05-20.58 5.13-34.75 22.78-37.65 37.88 0 0-18.73 53.2 44.2 83.62 0 0 28.4 13 57.68 21.4 0 0-32.16-6.95-45.9 24.86-13.1 30.37 5.9 61.44 64.9 81.46 0 0 15.97 6.2 38.7 11.73 0 0-50.5 14.5-26.23 55.23 0 0 21.63 42.8 98 50.4 0 0-57.03 6.2-16.72 60.4 0 0 17.7 29.7 73.42 40.73 0 0-42.28 1.37-20.97 39.34 21.3 37.98 71.44 59.38 120.77 62.83 0 0 26.72 1.38 45.4-2.76 0 0-46.87 23.48-19.33 62.83 0 0 20.32 27.96 71.12 26.58 0 0-13.2 43.96 24.1 60.6 29 12.94 53.1-7.78 53.1-7.78s-9.84 47.12 32.44 63.7c0 0 21.14 10.86 52.6 0 0 0 24.1 53.84 109.64 16.04 85.55-37.8 20.16-355.2 20.16-355.2zm5.07 489.4s-12.55 67.38-112.1 152.2c0 0-76.8 67.75-74.82 145.76 2 79.44-13.77 88.37-43.92 115.3 0 0 62.28 4.83 92.44-36.6 0 0-1.3 69.04-10.5 75.25 0 0 19.54 1.25 47.86-29.68 0 0 17.05-17.95 32.78-24.85 0 0-18.36 47.63-3.93 91.82 0 0 4.6-17.26 28.84-24.86 0 0 43.9-8.96 60.95-72.48 0 0 11.15-42.1 79.98-79.4 0 0 78-29.4 76.04-67.86-1.97-38.45-173.62-244.6-173.62-244.6zM2056.52 2282.17s-17.87 78.86-79.97 72.5c0 0-43.92-4.15-40.64-77.33 0 0-64.9 34.52-75.38-51.1 0 0-59 13.82-58.34-66.27 0 0-55.07 9.67-48.5-61.44 0 0-59.67 15.88-59.67-51.1 0 0-139.6-23.14 151.44-288.56l259.6 154.64-48.52 368.67zM2085.37 1928.3s-43.27 38.37-74.08-18.93c0 0-41.96-2.07-48.52-33.83 0 0-34.08-3.45-40.64-35.9 0 0-46.54-4.83-45.23-44.18 0 0-84.6-6.53-.02-102.33 84.6-95.8 228.16 158.94 228.16 158.94l-19.67 76.22zm48.27-23.76c41.94 0 89.47 262 77.13 419.84-4.48 57.33-35.2 104.15-77.13 104.15s-72.65-46.82-77.13-104.15c-12.32-157.84 35.2-419.84 77.14-419.84"/><ellipse cx="2133.643" cy="1902.468" ry="85.951" rx="58.032"/><path fill="none" d="M1935.9 2277.34s6.56-138.76 126.83-337.6m-202.2 286.5s-18.7-80.07 150.76-316.87c0 0-19.67-56.6 40.64-92.85m-249.76 343.46s-5.25-86.65 160.6-284.44c0 0-14.65-51.1 45.45-91.82m-254.56 314.8s6.23-87.66 168.47-258.88c0 0-8.12-52.47 50.02-84.9M1694 2047.43s11.8-100.1 182.9-251.98c0 0-5.9-39.35 51.14-79.4M372.26 431.98s134.38 77.8 552.9 155.6M431.9 539S795.64 657.63 965 672.2m-389.85 0s213.37 67 463.24 109.26m-281.18 30.3s241.07 57.9 356.16 67.52m-194.4 46.3s203.9 42.54 255.56 47.65m-125.77 57.3s148.8 22.6 208.03 21.4m-23.17 69.04s60.16-2.83 89.08-7.63m-33.35 104.28s51.13-13.8 81.28-33.14m-5.9 133.24s39.34-15.2 58.35-56.6m37.7 93.54s30.47-27.27 32.44-57.65m81.6 81.48s-11.4-9.85-3.6-52.64M1560.1 1263s-5.9-12.24-3.93-31.58m-211.08-581.3s68.83 27.63 91.77 65.6c22.94 37.97 7.83 74.87 0 96.04-3.94 10.64-52.44 104.16 4.6 171.82m-95.4 73.53s.34-.34 24.6-7.93m-169.8-91.48s41.03 8.25 81.3 8.62m-138-109.77s48.2 4.84 93.42 4.14m-165.2-109.78s69.5 13.8 106.86 14.5m-164.54-132.55s85.7 24.46 149.46 33.14m141.6 50.4s-61.62 57.3 12.45 110.47c0 0-30.82 48.32 30.8 98.72m-16.4 23.8s-9.16 92.16 103.6 92.17c0 0-21.65 82.16 87.17 79.4 0 0 12.46 65.58 91.12 52.46m-173.33 721.44s-17.84 3.97-56.54 0m-108.82 48.33s-54.4-8.3-51.78 109.77m84.57-82.85s-49.18-6.2-45.9 108.4m520.65-384.55s-23.6 4.84-39.98 23.48c-16.4 18.64-47.86 15.2-47.86 15.2s17.05-13.82 22.95-48.34c5.9-34.5 24.9-44.87 24.9-44.87m-56.28-32.68s-23.6 4.83-40 23.47c-16.38 18.64-47.84 15.2-47.84 15.2s17.04-13.82 22.94-48.34c5.9-34.52 24.9-44.87 24.9-44.87m23.77 188.54s-20.6 4.22-34.9 20.5c-14.32 16.27-41.8 13.26-41.8 13.26s14.88-12.06 20.04-42.2c5.15-30.13 21.75-39.17 21.75-39.17"/></g><use width="100%" height="100%" stroke="#010002" stroke-width="10" transform="matrix(-1 0 0 1 647.195 0)" xlink:href="#a"/><path fill="#0081c6" stroke="#010002" stroke-width="1.505" stroke-miterlimit="10" d="M466.05 255.93l-14.32 61.8-5.9-4.23 13.93-59.22-9.72.18 23.07-42.25 1.55 48.72zm36.97 13.05l-42.98 50.78-4.65-5.2 42.8-50.15-8.66-4.64 39.2-25.9-20.35 43.78zM492.6 242.04L454.15 316l-5.92-3.45 38.72-73.8-9.43-2.5 32.68-34.5-10.5 47.46z"/><path fill="#0081c6" stroke="#010002" stroke-width="1.506" stroke-miterlimit="10" d="M444.63 338.57l-2.88 11.78 7.88 7.86-11.15 47.1-9.9-13.32-14.7 6.86 11.14-47.1 10.34-2.87 2.68-11.76s3.13-1.22 6.58 1.47zM447.27 330.8l-5.68 10.6 5.68 9.74-22.35 42.45-6.3-15.58-15.88 2.62 22.34-42.45 10.7.02 5.47-10.63s4 0 6 3.2zM448.23 333.88l-15.1 19.2 3.45 10.83L405.75 400l-2.82-16.67-16.03-1.2 30.84-36.06 10.4 2.56 16.03-20.37s4.3 2.14 4.06 5.65zM65.53 288.9c3.6-1.47 6.2-2.9 6.18-6.73 0-.92-.5-2.95-1.53-6.08L46 202.2c-1.44-4.4-2.52-7-3.02-7.96-1.1-2.08-3.22-2.93-6.1-4.13h30.73c-3.32 1.6-6.37 2.84-6.34 6.38 0 1.35.4 3.26 1.18 5.72l18.52 57.98 18.5-57.98c.8-2.46 1.2-4.37 1.18-5.72-.04-3.64-3.2-4.95-6.32-6.37h29.78c-2.72 1.1-4.94 1.96-6.08 4.14-.5.96-1.6 3.57-3.02 7.96l-24.17 73.9c-1.03 3.13-1.4 5.2-1.54 6.14 0 0-1.12 4.67 6.17 6.66H65.52zm515.23-7.6v-83.66c0-1.45-.24-2.56-.72-3.33-.48-.76-2.55-3-5.52-4.2h27.7c-2.97 1-5.05 3.38-5.53 4.17-.48.8-.72 1.92-.72 3.37v83.66c0 1.5.25 2.64.74 3.44.5.8 2.53 2.74 5.5 4.16h-27.7c2.97-1.35 5.04-3.43 5.52-4.2.48-.77.72-1.9.72-3.4z"/><path fill="#fff" stroke="#010002" stroke-width="1.506" d="M324.82 309.77s74.1-32.84 74.3-108.8H250.53c.18 75.96 74.28 108.8 74.28 108.8z"/><path fill="#a60032" stroke="#010002" stroke-width="1.505" d="M261.96 200.96v48.54s5.67 11.25 11.43 18.3v-66.84h-11.44zm22.86 0v80s7.14 7.02 11.43 10.4v-90.4H284.8zm22.85 0v98.9s8.16 5.26 11.43 7v-105.9h-11.43zm80 0v48.54s-5.67 11.25-11.43 18.3v-66.84h11.43zm-22.85 0v80s-7.15 7.02-11.43 10.4v-90.4h11.42zm-22.86 0v98.9s-8.15 5.26-11.43 7v-105.9h11.43z"/><path fill="#162667" stroke="#010002" stroke-width="1.506" stroke-miterlimit="10" d="M399.1 145.77s-36.35 19.02-74.28-1.56c-37.92 20.6-74.28 1.57-74.28 1.57v55.2H399.1v-55.2z"/></svg>