<svg xmlns="http://www.w3.org/2000/svg" width="640" height="480"><defs><clipPath id="a"><path fill-opacity=".67" d="M0 0h682.67v512H0z"/></clipPath></defs><g clip-path="url(#a)" transform="scale(.938)"><g fill-rule="evenodd"><path d="M0 0l347.42 219.42h420.56v73.15H347.42L0 511.97V0z"/><path fill="#ff0" d="M0 493.7l354.73-226.73h413.25v-21.94H354.73L0 18.3v32.9L332.8 256 0 460.8v32.9z"/><path fill="#40aa40" d="M0 511.98l354.73-226.73h413.25v226.73H0z"/><path fill="#ce0000" d="M0 0l354.73 226.73h413.25V0H0z"/><path fill="#ff0" d="M95.8 266.62c1.23.27 1.56.62 2.77-1.16.26-.9 1.03-2.15 1.7-3.26.88-1.46 1.26-2.04 2.1-.94.54.64 2.7-.53 3.58.08 1.38.92.55.8 1.68-.2.87-1.85.1-1.63-1.12-2.47-.85-.6-3.04.62-3.9.03.3-1.84.9-2.04 1.95-2.4.8.55 3.15-.42 3.87-.4 1.02.2 1.93.32 2.25-1.18.5-1.06.3-.33-.12-1.1-.85-.6-3.05.62-3.9.03-1.12-.84-.94-1.15-.3-2.57.9-.48 1.54-.25 2.6.42 1.12.77 2.87-.7 3.84-.77.87-1 1.9-1.32 1.25-2.54-.37-.93-.64-1.03-1.84-1.27-1.22-.84-2.82.7-3.3-.56 1-1.4 1.35-1.1 2.53-.3.76.25 3.06-1.1 3.8-1.15 1.08-.32.56.9 1.33-1.8-.27-1.2-2.25.72-3.36.4-1.07.15-1.92-.23-2.02-1.38 0-1.55.78-1.66 1.88-1.43.97.2 3.16-1.02 3.98-1 1.15.62 1.52.4 2.43-1.05.68-1.7-.07-1-1.22-1.86-.86-.6-3.05.62-3.9.03.14-.63.4-1.4 1-1.7.84.18 1.57.14 2.64.8 1.03.46 2.76-1.56 3.66-2.24-.17-.98-1.9.4-2.93-.32-.66-.45-1.5-.93-1.7-1.5.6-1.7.3-1.6 1.93-1.06.86-.23 2.33-.2 1.34-1.8-.16-.26-1.02-.17-1.76-.53-.9-.63-1.77-1.25-2.72-1.54-.7-.1-1.7-.33-2.23-.17-.07 1 .18 1.63.12 2.8.45.73 1.3.75 1.48 1-.9.8-1.4.4-2.34.45-1.13-.77-.48-3.18-1.8-2.6.3.7.18 3.37.75 3.92.62.42 1.4.82 1.52 1.38-.96 1.48-1.32 1.4-2.47.68-.97-.66-.66-2.83-1.5-2.72-1 .78-1.02.74-.8 1.82.04 1.42-.53 3.4.6 4.17 1.38.96 1.55.85.47 2.7-.74.9-1.15.73-2 .32-.92-.63-.72-2.94-1.43-3.7-1.35-.8-.57-.77-1.7.2-.33 1.26-.08 1.6.48 2.7.45.7.42 3.06 1.2 3.2 1.25.73 1.3.58-.13 1.96-1.12.05-1.6.35-2.45-.66-1.04-.78-.4-3.2-1.7-3.22-1.24.1-1.5.14-1.35 1.8.2 1.48-.33 3.8.85 4.67 1.1.5 1.78.48 2.17 1.15-.35.3-1 1.24-1.38 1.44-.78.05-1.58-.48-2.46-.67-1.05-.5-.58-1.42-1.4-2-.98.32-1-1.03-1.5.34.2 1.13-.2 2.6.87 3.32.86.6 1.62 1.8 2.48 2.38.98 1.16.6 1.36 0 3.05-.83.02-1.8-.55-2.7-1.17-.85-.6-.7-2.86-1.56-3.45-.74-.73-.52-1.36-1.68.2-.1 1.1.1 1.2.4 1.97.02 1.13-.28 3.2.76 3.93 1.05.2 2.18.76 3 1.04.8.93.1.75-.78 2.18-.56 1.44-.56 1.7-1.44 2.42-.76 1-1.06 1.46-.37 2.8zM120.92 267.85c.73-1.2 1.2-1.4.03-3.4-.72-.64-1.57-1.95-2.32-3.1-1-1.52-1.37-2.17-.02-2.6.8-.33.6-3.08 1.5-3.8 1.4-1.08.95-.25.5-1.85-1.36-1.66-1.47-.76-2.73.2-.88.68-.64 3.5-1.52 4.17-1.57-1.06-1.52-1.76-1.43-3.03.83-.64.87-3.5 1.17-4.27.6-1 1.06-1.93-.2-2.87-.77-.96-.18-.43-1.05-.3-.88.66-.64 3.48-1.52 4.16-1.22.84-1.44.52-2.48-.74-.1-1.1.38-1.7 1.43-2.6 1.14-.86.47-3.3.8-4.36-.55-1.33-.45-2.56-1.82-2.35-1 .03-1.2.28-1.9 1.46-1.25.97-.47 3.28-1.82 3.27-.9-1.6-.47-1.86.72-2.8.54-.7.2-3.68.46-4.48.14-1.28 1.06-.23-1.13-2.13-1.2-.2-.24 2.67-.96 3.73-.3 1.2-.98 1.95-2.08 1.6-1.42-.65-1.2-1.5-.56-2.58.55-.96.3-3.77.65-4.63 1.03-.98.96-1.46 0-3-1.28-1.4-.93-.32-2.18.55-.9.67-.64 3.48-1.53 4.16-.5-.4-1.1-1-1.15-1.75.48-.82.74-1.6 1.77-2.47.84-.93-.33-3.57-.6-4.8-.95-.2-.38 2.17-1.45 3-.68.5-1.44 1.2-2.05 1.2-1.32-1.32-1.35-.98-.2-2.48.13-1 .72-2.56-1.13-2.14-.3.07-.56 1.02-1.2 1.67-.9.7-1.83 1.38-2.47 2.27-.37.7-.97 1.66-1.04 2.3.9.47 1.58.45 2.63.98.85-.18 1.2-1.07 1.52-1.15.36 1.27-.2 1.62-.53 2.65-1.16.9-3.1-.76-3.12.9.77-.06 3.18 1.13 3.92.74.62-.47 1.3-1.13 1.86-1.05 1 1.62.77 1.97-.35 2.9-1 .77-2.86-.42-3.1.5.3 1.4.27 1.4 1.35 1.6 1.32.5 2.9 1.9 4.08 1 1.43-1.06 1.4-1.3 2.66.6.53 1.14.2 1.5-.5 2.25-.94.72-3-.4-3.97.03-1.26 1.1-.93.3-.47 1.87 1 .87 1.42.74 2.66.6.82-.22 2.97.76 3.42 0 1.16-1.05 1.04-1.15 1.74.9-.4 1.2-.3 1.85-1.58 2.35-1.14.8-3.1-.86-3.64.53-.4 1.34-.47 1.64 1.13 2.14 1.43.37 3.34 1.87 4.62.96.9-.97 1.14-1.7 1.9-1.84.15.48.76 1.54.8 2.03-.27.84-1.08 1.48-1.6 2.34-.86.92-1.53.04-2.4.7-.08 1.15-1.33.63-.27 1.72 1.1.23 2.3 1.22 3.4.4.87-.7 2.27-1 3.16-1.68 1.46-.58 1.5-.1 2.8 1.23-.3.88-1.2 1.67-2.13 2.38-.87.67-2.9-.4-3.8.28-.95.5-1.44.03-.47 1.88.98.55 1.13.37 1.96.37 1.04.42 2.84 1.58 3.9.76.62-1.02 1.57-2 2.16-2.77 1.16-.47.72.2 1.7 1.7 1.1 1.17 1.32 1.28 1.63 2.5.62 1.2.9 1.7 2.42 1.52zM98 314.5c0-5.32-.82-10.63 0-10.63 46.82 0 58.52-31.92 58.52-53.2s-16.26-42.55-46.8-42.55c-35.12 0-46.82 20.78-46.82 42.55 0 21.28 17.55 37.24 35.1 37.24 23.4 0 29.26-5.3 46.82-26.6-5.85 26.6-35.1 37.25-46.8 37.25-23.42 0-46.82-15.96-46.82-47.88 0-26.6 17.55-53.2 58.5-53.2 35.12 0 58.52 26.6 58.52 53.2 0 37.24-29.25 63.84-70.2 63.84z"/></g></g></svg>