<svg xmlns="http://www.w3.org/2000/svg" width="640" height="480"><g fill-rule="evenodd"><path fill="#f00" d="M0 0h640v480H0z"/><path fill="#00006b" d="M0 0h314.4v157.2H0z"/><path fill="#fff" d="M162.77 144.4L150.3 136l-11.95 8.54 3.8-15-11.47-9.26 14.8-.85 4.88-14.28 5.35 14.48 14.5.43-11.5 9.8zm-2.14-99.83l-9.97-6.4-9.8 6.36 2.72-11.96-8.78-7.8 11.66-1 4.36-11.18 4.5 11.34 11.47.9-8.9 8zM116.55 80.5l-9.7-6.66-9.93 6.65 3.1-11.68-9.16-7.77 11.6-.55 4.28-11.46 4.1 11.33 11.78.7-9.08 7.54zm88.38-8.03l-9.3-6-9.07 6.07 2.6-11.08-8.35-7.1 10.94-.84 3.9-10.46 4.14 10.56 10.76.62-8.36 7.37zm-26.05 26.25l-6.2-3.87-6.2 3.9 1.62-7.34-5.48-4.9 7.2-.7 2.8-6.94 2.85 6.93 7.2.62-5.44 4.96z"/></g></svg>