<svg xmlns="http://www.w3.org/2000/svg" width="640" height="480"><defs><clipPath id="a"><path fill-opacity=".67" d="M-71.87 0H610.8v512H-71.86z"/></clipPath></defs><g clip-path="url(#a)" transform="translate(67.379 .011) scale(.937)"><g fill-rule="evenodd"><path d="M-71.88 407.84v-303.4l225.83 151.62-225.83 151.8z"/><path fill="#00c" d="M82.22 512.12l253.54-170.64h360.37v170.64H82.23z"/><path fill="#f00" d="M65.92.06l630.2.02v170.67H335.7S69.3-1.63 65.94.05z"/><path fill="#fc0" d="M-71.88 64.08v40.32l225.83 151.63-225.83 151.8v40.32l284.44-192.12L-71.88 64.07z"/><path fill="#093" d="M-71.88 64.08V.06h94.9l301.3 203.88H696.1V308.2H324.33L23 512.05h-94.88v-63.9l284.44-192.12L-71.88 64.07z"/><path fill="#fff" d="M23 .06h59.2l253.55 170.68H696.1v33.2H324.34L23.04.06zm0 512.06h59.2l253.55-170.64H696.1v-33.2H324.34L23.04 512.1z"/></g></g></svg>