<svg xmlns="http://www.w3.org/2000/svg" width="640" height="480"><defs><clipPath id="a"><path fill-opacity=".67" d="M-170.67 0H512v512h-682.67z"/></clipPath></defs><g fill-rule="evenodd" clip-path="url(#a)" transform="translate(160) scale(.938)"><path fill="#198a00" d="M-256 0h768v512h-768z"/><path fill="#ef7d00" d="M421.87 183.94H512v328.03h-90.13z"/><path d="M331.85 183.78h90.03v328.1h-90.03z"/><path fill="#de2010" d="M239.95 183.98h91.94V512h-91.95z"/><g fill="#ef7d00" stroke="#000"><path d="M451.6 65.6s33.93-14.5 37.2-17.5c1.5 1.8-13.58 20.03-42.87 26.75 26.6-6.27 49.3-26 53.94-25.4 1.34.3 1.05 19.28-59.9 35.7 42.12-11.04 66.62-31.36 66.32-29.12.3.45-4.2 15.98-41.1 28.1 10.32-2.4 38.26-19.44 37.96-16.15.9 1.35-27.05 37.2-77.54 25.55 40.34 10.46 66.48-14.8 70.22-14.34.75.14-7.47 22.1-58.27 23.44 24.35-2.54 17.33-.15 17.33-.15s-14.34 11.2-31.68 3.58c13.6 3.74 15.1 3.9 15.4 5.08-.9 1.5-12.1 3.74-22.87-2.1 8.67 3.6 16.44 4.2 16.6 5.54-.16.44-5.7 3.58-10.62 1.34-4.93-2.24-50.35-30.18-50.35-30.18l77.4-21.22 2.83 1.05zm-90.98 75.57c-6.8 0-7 6.05-7 6.05s-.55.44-.18 3.38c1.13-2 1.7-2.63 1.7-2.63.74.13 3.86 1.07 8.8-2.8-4.5 4.68-1.82 6.43-1.82 6.43s-1.06 3.68 2.37 4.43c-1.07-1.5-.44-2.8-.44-2.8s4.8-.5 4.5-6.38c.18 5.3 3.05 6.62 3.05 6.62s0 2.93 3.13 3.18c-1.68-1.5-1.3-3.8-1.3-3.8s4.05-2.94.62-7.94c2.06-1.17 3.74-4.48 3.74-4.48s-2.82-1.2-4.13-2.2c-.62-1.3-.06-8.48-.06-8.48l-1.68-9.3-4.8 14.48c.18-2.06.3 6.25-6.5 6.25zM394.24 120.27c.15.15 5.08 5.68 9.86 5.38 1.8-1.5-3.74-4.78-3.74-5.53 1.95 1.8 10.16 8.82 15.4 6.28 2.08-3-3.74-2.54-10.17-10.6 4.47 2.98 15.68 9.55 20.9 7 2.25-2.38-11.64-9.85-16.28-15.68L398.27 101 382 114.3l12.24 5.97zM375.86 74.85s5.53-3.28 27.64-1.64c2.4.3 15.1-4.32 19.12-5.67 6.43-1.2 26.9-5.68 32.43-9.86 3.88-.45-1.05 7.17-5.98 8.96-5.23 2.4-24.2 8.97-30.93 8.07 8.07.15 3.6 6.73-9.86 3.6 6.42 3.58 4.03 4.17 4.03 4.17s-11.34.6-14.33-1.94c7.62 2.84 4.48 3.9 4.48 3.9s-7.77.73-11.35-.9c5.53 1.63 2.7 2.68 2.7 2.68s-4.5.76-8.23-.6c-3.74-1.33-9.4-10.75-9.7-10.75zM384.72 123.37l.8 14.6s-.42.76-.8 1.2c-.37.44-10.36-1.56-9 6.06 0 3.12.07 3.93 2.2 5.68-.57-2.05-.38-3.5-.38-3.5s2.8 1.7 5.56-2.92c-1.87 4.55-.56 6.18-.13 6.3.44.8-.74 4.5 3 4.43-1.43-1.36-.75-3.36-.75-3.36s3.94-.62 2.56-7.74c1.44-1.44 2-.06 2-.06s.44 4.24 3.87 3.37c1.56.88-.25 3.2-.25 3.2s2.5.06 3.25-2.07c.75-2.12 1.62-5.93-2.5-7.5-.5-1.5 1.63-1.6 1.63-1.6s2.62.86 3.37 2.17c.75 1.3.5-3.43-2.75-3.93-4-.13-4.25-.94-4.25-1.12 0-.2-.68-10.62-1-13.62l-6.43.44zM398.63 135.82c.05-.67-6.82-9.9-5.08-11.1 1.74.35 4.6 4.55 6.9 3.2-.7-1.65-2.76-.73-5.1-4.92-2.35-4.75-2.7-11.87-10.9-19.64 5.3 8.22 17.38 13.04 17.9 10.65s-10.64-11.45-10.07-13.64c2.22 4.5 13.4 14.48 21.64 13.65.57-1.9-6.75-5.8-8.63-9.42-5.27-3.54-19.36-15.68-19.64-18.5-5.13-7.47-8.33-9.73-9.82-10.6-.57-.67-.72-1.32-.83-1.73-3.17-7.5 1.04-9.94 3.5-10.3 2.04-.23 2.63.08 4.1-.63-1.74-.68-3.47-1.3-5.2-2 2.26 1.67 8.02.2 6.77 4.98 2.52-.96 7.9-7.36-6.1-8.8-4.54-5.22-23.26-8.22-27.95 14.57.38.32.57.58 1.76 1.47-5.9-2.86-21.86-5.07-27.6-6-15.53-4.47-31.65-15.27-33.2-13.94-2.07.92 9.38 11.58 8.8 11.8-9.94-5.78-19.02-9.88-27.46-13.6-5.93-2.23-11.88-7.4-12.54-6.42-2.18 4.53 9.52 15.9 11.7 17.25 2.18 1.28 19.3 9.22 19.05 9.32-25.8-11.7-30.12-13.83-31.4-15.18-2.3-.5-7.82-8-9.37-7.5-.84.82.85 12.64 13.16 17.94 2 1.47 26.4 10.22 26.15 10.9-.06.18-27.92-11.5-29-11.9-5.38-2.12-11.97-9.5-13.2-8.67-1.18.75 3.04 8.74 8.46 11.25 2.85 1.26 13.76 6.66 23.6 10.1.62.23-17.68-6.94-26.48-10.62-4-2.2-5.87-4.97-6.47-4.38-.9.6 1.45 12.4 29.72 19.06.75.32 9.96-2.18 9.5-1.85-.1.08-9.14 2.04-10.02 1.97-.78-.12-5.73.6-5.82.85-.3.8 1.8 5.02 16.4 4.14 1.86-.1 12-3.7 11.14-2.92-.43.4-13.8 4.73-14.8 4.82-.9.12-5.6.6-5.77 1.1-.2.7 3.48 3.7 11.32 4.18 6.94.37 20.13-4.24 19.87-3.94-.27.3-12.72 4.57-13.05 4.83-.45.25-5 .5-5.17.85-.37.87 6.58 7.37 27.13.43-2.06 2.8-12.02 4.7-12 5.2-.06.37 2.18 2.54 5.67 3.3 1.74.4 4.12.32 6.3-.02 3.9-.78 8.03-2.33 13.27-7.17.63 1.53-13.08 8.46-12.44 9.13 2.97 2.75 12.85-.36 13.5-.72.64-.35 19-10.7 18.95-11.9.28 1.53-23.68 14.55-23.42 15.08 1.53 2.46 9.72-.13 10.1-.35.4-.23 10.46-5.66 10.74-5.82.27-.15-11.82 7.1-10.75 8.2-.52 4.7 18.9-3.25 20.4-4.24.77-.5-9.3 4.43-9.34 6.77 3.26 5.5 13.66 3.75 15.26 2.55.8-.6-.94 4.07-.38 3.65.2-.1 2.26-2.53 3.06-4.3-.26 1.53-1.4 3.95-2.06 6.72-.67 2.78-.86 5.9-1.77 9.23-.2 1.46 6.42-2.85 5.45-13.17.57 5.38-2.1 15.4-1.4 15.93 1.4 1.04 5.24-5 5.63-9.08 1.14 2.06 3.54 6.37 5.6 7.36-.23-3.1.04-2.97-.9-6.04.55-4.07.62-9.7.75-16.07 5.6 10.72 7.83 15.25 6.27 23.46 1.66.7 4.32-5.73 4.1-9.04 2.15 9.2 11.38 10.57 11.52 10.3zM305.36 67.72s-3.82 2.88-8.56 2.7c1.2 4.75 11 1.1 11 1.1s-4.73 5.26-8.12 6.1c2.03 1.7 10.6 1.1 12.03.26 1.45-.84 4-4.15 4-4.15s-8.82 10.17-10.1 10.08c-.16 1.2 9.24.77 11.2-1 1.94-1.8 6.85-4.4 6.85-4.4s-12.87 8.97-13.47 8.97c4.83 1.27 14.5-1.53 20.67-5.34-9.15 6.1-10 7.2-14.65 9.23 4.15.93 6.27 3.73 20.33-2.37 8.04-3.82 12.6-10.77 12.6-10.77-4.98 6.7-12.86 12.37-21.58 17.96-.5 1 9.3 5.16 21.85-7.9M373.45 96s.85 4 4.24 7.04c3.37 3.04 3.63 6 3.63 6m-9.57-38.95s1.2 3.55 4.66 5.84c3.55 2.28 8.9 9.48 9.3 10.75.42 1.53 2.47 12.6 2.3 13.8m-37.86-24.9c.26 1.35-5 8.2 2.2 16.26-6.52 7.96-6.52 8.97-6.52 8.97s3.64 2.04 10.17-3.55c10.76 13.2 7.18 19.26 7.18 19.26M362.32 107.2s-1-1.4.78-6.7c1.6 1.9 3.36 2.32 4.13 3.1.78.77 8.9 1.94 9.4 7.37"/><path d="M371.86 57.46c0-.4-1.63-3.9-7.73.48 3.27.2 6.5 2.07 7.73-.48zM430.1 73.5c.3.16 18.22 4.04 24.2 2.1-7.62 10.16-22.86 3.3-22.86 3.3 7.47 2.23 7.77 2.08 10.16 4.17.75 1.94-13.75 1.05-18.53-1.64 13.3 4.18 13.6 3.88 14.05 5.52.6 2.25-21.82-.6-23.76-3.58 5.98 4.63 9.26 5.53 12.55 7.62-4.02 1.78-11.5 3.58-25.24-6.14 18.08 16.44 34.36 15.4 36.9 18.38-6.27 9.26-30.63-5.53-41.83-13s24.5 18.08 27.8 17.63c-1.65 2.54-13.46.3-14.2-.9M434.73 90.7c-2.1.3-8.37.3-9.26.14M300.1 65s13.64 7.2 19.4 6.7c-1.52 1.44-3.8 2.03-3.8 2.03 1.43.6 5.4 2.7 11.42 1.36-1.44 1.43-3.3 3.04-3.3 3.04s5.17 1.94 11-1.1c-1.77 2.2-2.8 3.8-2.8 3.8l4.08.26"/></g></g></svg>