<svg xmlns="http://www.w3.org/2000/svg" width="640" height="480" xmlns:xlink="http://www.w3.org/1999/xlink"><defs><clipPath id="a"><rect width="545.96" height="420.1" x="1.928" y=".113" fill="#00f" fill-rule="evenodd" ry="0"/></clipPath></defs><g clip-path="url(#a)" transform="matrix(1.172 0 0 1.143 -2.26 -.129)"><path fill="#006400" d="M0 0h840v420H0z"/><path fill="#ffd200" d="M0 60h840v300H0z"/><path fill="#d40000" d="M0 120h840v180H0z"/><path d="M0 180h840v60H0z"/><path stroke="#000" stroke-width="20" d="M0 0v420l280-210z"/><path fill="#fff" d="M0 0v420l280-210z"/><path fill="#d40000" d="M106.52 104.4l55.46 170.7-145.2-105.5h179.48L51.06 275.1z"/><path fill="#fc0" d="M82.77 253.66l9.8-1.78 18.18-.72 6.68.63 14.97 2.48 1.15-1.5v-10.8l1.7-9.26 3.1-9.44 3.22-7.5 4.2-7.74 6.85 1.7h1.78l.18-1.34-14.34-12.3-15.06-11.5-21.65-16.2-1.96-.54-2.4-16.93-1.7-5.16-2.23-1.96-4.36-1.42-4.8.18-2.15 1.25-4.63 1.08-2.4.35-1.6 1.87-.2 2.4 6.7.2 1.68.7-.17.7-3.83.55-1.78.53 2.13 1.6 2.14.8 2.85 1.08.53 1.87.27 25.92-1.5 4-.55 7.5 2.23 9-5.6 6.32-3.13 5.7-.54 3.57-1.7 3.47-.26 2.24 1.16 2.32L80 241.8l2.24 11.68z"/><path d="M87.96 141.92c-1.72 0-2.54.3-4.24 1.22-1.53.83-3.35 1.4-4.6 1.4-2.52 0-4.55 1.8-4.55 4.06v1.5l3.67-.12c10.54.35.92 1.33.15 1.46-2.62.48.57 2.6 3.65 3.64 3.3 1.1 3.17.47 3.17 14.98 0 11.92-.1 13.6-1 16.35-1.35 4.05-1.35 10.04 0 13.98.53 1.6.97 3.08.98 3.3 0 .22-1.56 2.17-3.5 4.33-3.47 3.92-5.6 8.1-5.6 11.04 0 .67-.47 1.8-1.02 2.55-1.3 1.7-1.33 4.62-.08 5.73 1.3 1.15 6.64 21.8 6.66 25.68 0 1.43.26 1.43 8.38-.2 6.55-1.33 22.06-1.6 29.9-.55 3.63.48 7.85 1.2 9.38 1.6 4.83 1.23 4.56 1.48 4.57-4.34 0-9 1.65-17.57 5.13-26.73 1.58-4.17 5.74-12.63 6.84-13.93.1-.13 1.88.2 3.94.73 4.22 1.1 5.37.9 5.37-.94 0-1.04-4.3-4.62-25.33-21.1-14.17-11.1-25.8-19.83-26.38-19.83-.57 0-1.15-.3-1.27-.66-.14-.36-.8-4.65-1.5-9.54-.72-4.9-1.67-9.72-2.13-10.73-1.34-2.93-4.1-4.48-8.53-4.78a31.2 31.2 0 0 0-2.08-.08zm.15 1.05c.56 0 1.18.02 1.94.06 6.64.35 7.9 2.18 9.63 13.98.68 4.6 1.24 8.83 1.24 9.45.02.8-.9 1.73-3.23 3.3-3.43 2.3-7.86 6.5-10 9.48l-1.3 1.77-.25-4.15c-.14-2.28-.14-7.6 0-11.8.3-8.73.06-9.6-2.8-10.55-2.33-.78-5.37-1.62-4.48-2.15 1-.6 1.9-.17 4.4-.8.88-.2.83-.18.7-.93-.27-1.36-1.6-1.98-5.36-1.78-2.95.16-3.33.08-3.13-.7.4-1.62 2.08-2.68 4.56-2.92 1.34-.13 3.3-.72 4.36-1.3 1.18-.66 2.1-.93 3.75-.95zM103 168.85c.14 0 .27 0 .4 0 1.7.28 50.78 38.66 50.78 39.73 0 .42-.4.75-.88.75-.5 0-12.98-3.55-27.75-7.86-23.6-6.9-27-8-28-9.24-1.46-1.75-1.5-4.42-.14-6.23.55-.74 1-1.64 1-2.02 0-1.17-2.5 1.8-2.98 3.54-.56 2.03.48 5.43 2 6.53.6.43 5.1 1.98 10 3.43 8.35 2.47 8.9 2.74 9.36 4.12 1.06 3.32-2.45 7.17-7.52 8.27-1.64.35-3.72 1.32-5.16 2.4-5.7 4.3-9.7 6.85-13.03 8.3-1.96.83-3.86 1.8-4.2 2.13-.34.33-.84 1.87-1.13 3.4-.6 3.28-.85 3.78-1.8 3.78-.58 0-.63-.3-.24-1.35.7-1.95.64-4.45-.15-4.45-.4 0-.67.7-.67 1.86 0 1-.3 2.13-.66 2.5-.56.54-.63.13-.4-2.37.16-1.67.1-3.04-.14-3.04-.46 0-1.35 2.53-1.67 4.75-.18 1.3-.2 1.3-.6-.25-.34-1.2-.18-2 .66-3.52.6-1.08 1.1-2.66 1.1-3.52 0-1.3.96-2.54 5.63-7.27 3.1-3.13 6.7-7.03 8.02-8.65 2.27-2.8 2.4-3.1 2.3-5.95-.04-1.64-.23-3.12-.4-3.3-.6-.6-1.4 2.56-1.08 4.3.3 1.56 0 2.1-3.28 5.96-1.97 2.33-5.33 5.84-7.44 7.82-3.9 3.64-5.3 5.6-5.3 7.46 0 .56-.42 2.05-.96 3.3s-.84 2.53-.68 2.83c.18.34.05.32-.32-.04-.44-.42-.47-1.2-.1-2.87.26-1.26.38-2.48.23-2.7-.55-.93-1.2.25-1.5 2.74-.2 1.43-.53 2.48-.77 2.33-.74-.47-.5-3.08.4-4.4.45-.7 1.03-2.33 1.26-3.65.66-3.7 2.25-6.64 5.8-10.65 1.77-2.02 3.23-3.74 3.23-3.84 0-.1-.47-1.6-1.05-3.3-1.33-3.97-1.4-10-.2-13.66 1.27-3.86 3.9-7.7 8.06-11.72 4.02-3.9 7.84-6.34 9.94-6.38zm15 32.17a.86.57 0 0 1 1 .56.86.57 0 0 1-1.7 0 .86.57 0 0 1 .7-.56zm2.5.32a.86.57 0 0 1 1.02.58.86.57 0 0 1-1.72 0 .86.57 0 0 1 .7-.58zm2.6.5a.86.57 0 0 1 .1 0 .86.57 0 0 1 .93.57.86.57 0 0 1-1.7 0 .86.57 0 0 1 .7-.57zm2.38.47a.86.57 0 0 1 .1 0 .86.57 0 0 1 .93.6.86.57 0 0 1-1.74 0 .86.57 0 0 1 .7-.6zm-6.3.6a.86.57 0 0 1 .02 0 .86.57 0 0 1 1 .58.86.57 0 0 1-1.72 0 .86.57 0 0 1 .7-.6zm2.47.4a.86.57 0 0 1 1 .57.86.57 0 0 1-1.7 0 .86.57 0 0 1 .7-.56zm5.2.2a.86.57 0 0 1 1 .58.86.57 0 0 1-1.72 0 .86.57 0 0 1 .73-.57zm-2.74.05a.86.57 0 0 1 1 .56.86.57 0 0 1-1.72 0 .86.57 0 0 1 .7-.55zm5.05.58c.08-.1 3.67.8 8 2.05l7.82 2.25-1.5 2.7c-.85 1.48-1.9 3.46-2.36 4.4-.9 1.9-1.23 1.95-5.95.86-5.2-1.2-13.46-2.34-21.84-3.02l-8.06-.66 3.04-1.14c1.67-.64 4.08-1.72 5.35-2.42 1.98-1.1 2.78-1.24 5.83-1.02 4.52.34 7.57-.5 8.7-2.38.47-.78.9-1.52 1-1.63zm-8.85.56a.86.57 0 0 1 .02 0 .86.57 0 0 1 1 .58.86.57 0 0 1-1.7 0 .86.57 0 0 1 .68-.6zm5.64 0a.86.57 0 0 1 .02 0 .86.57 0 0 1 1.02.58.86.57 0 0 1-1.73 0 .86.57 0 0 1 .7-.6zm-8.1.07a.86.57 0 0 1 .12 0 .86.57 0 0 1 .92.58.86.57 0 0 1-1.73 0 .86.57 0 0 1 .7-.58zm5.35.1a.86.57 0 0 1 1 .56.86.57 0 0 1-1.72 0 .86.57 0 0 1 .7-.57zm-6.57 1.17a.86.57 0 0 1 .02 0 .86.57 0 0 1 1 .6.86.57 0 0 1-1.72 0 .86.57 0 0 1 .7-.6zm2.45.04a.86.57 0 0 1 .1 0 .86.57 0 0 1 .92.58.86.57 0 0 1-1.7 0 .86.57 0 0 1 .68-.58zm2.63.1a.86.57 0 0 1 1.02.56.86.57 0 0 1-1.73 0 .86.57 0 0 1 .7-.56zm2.78.07a.86.57 0 0 1 .02 0 .86.57 0 0 1 1 .58.86.57 0 0 1-1.7 0 .86.57 0 0 1 .68-.58zm-20.3 8.08c3.43-.1 15.4.76 21.1 1.6 5 .77 13.76 2.4 14.05 2.62.08.06-.67 2.46-1.7 5.33s-1.92 5.55-2.03 5.94c-.15.54-.77.62-2.47.36-8.33-1.3-32.34-1.18-41.57.2-5.25.8-6.02.73-5.57-.37.2-.5.63-2.1.96-3.54l.6-2.64 5.57-2.9c3.06-1.58 6.47-3.6 7.58-4.5 1.1-.9 2.26-1.8 2.58-1.98.1-.06.4-.1.9-.1zm-26.96 14.22c.25 0 .87.3 1.6.75.93.6 2.13 1.1 2.65 1.1 2.62.04 4.05 3.72 6.27 16.08.3 1.74.68 3.66.8 4.3.2 1-.08 1.22-2.32 1.72-2.84.63-3.53.67-3.53.3 0-1.06-2.83-13.72-4.06-18.2-.84-3.03-1.53-5.7-1.53-5.95 0-.03.02-.07.04-.08a.13.13 0 0 1 .08-.02zm28.6 1.86h2.88l-.96 1.1c-1.7 1.95-2.5 2.13-3.7.82-.6-.66-1.08-1.36-1.08-1.56 0-.2 1.3-.35 2.87-.35zm6.1 0h5.42l-1.2 1.32c-1.47 1.63-1.56 1.63-3.03 0l-1.2-1.3zm8.2 0h1.25c.7 0 1.94.15 2.8.33l1.55.32-1.44 1.25c-.8.7-1.5 1.26-1.6 1.24s-.73-.74-1.38-1.6l-1.18-1.53zm8.45.38l1.26.32c.7.18 2.18.35 3.3.36h2.03l-1.52 1.3c-.84.7-1.65 1.3-1.8 1.3-.16 0-.97-.72-1.78-1.63l-1.5-1.65zm-30.2.16c.14 0 .23 0 .26.04.1.1-.32.83-.96 1.6l-1.16 1.38-1.45-1.2-1.47-1.22 2.44-.37c1-.16 1.9-.24 2.35-.23zm2.3.15c0-.06.73.58 1.6 1.4l1.63 1.5-3 .17-2.96.17 1.36-1.58c.76-.87 1.37-1.62 1.37-1.67zm18.1 0c.23 0 .43.13.7.35.43.38 1 1.14 1.28 1.67.43.83.3.94-.92.9-.77-.03-1.94-.2-2.58-.4l-1.18-.33 1.3-1.27c.67-.67 1.06-.96 1.4-.94zm-8.4 0c.57-.07 1 .35 1.6 1.3.74 1.13.7 1.15-1.98 1.13l-2.73-.02 1.45-1.3c.7-.65 1.23-1.03 1.66-1.1zm16.98.2l1.24 1.22c1.35 1.32 1.6 2.13.6 2-.36-.06-1.62-.18-2.8-.3l-2.16-.2 1.56-1.35 1.55-1.37zm-35.13.67c.23 0 .95.58 1.6 1.28l1.13 1.27-2.45.34c-1.36.18-2.9.43-3.47.55-.76.16-.53-.25.88-1.6 1.05-1 2.08-1.83 2.32-1.83zm-3.75.08c.16 0 .3.02.45.04.83.12.75.33-.6 1.67l-1.56 1.54-.45-1.26c-.37-1.05-.26-1.35.6-1.7a4.85 4.85 0 0 1 1.56-.3zm45.95 1.76c.24 0 .3.2.15.57-.3.84-1.2 1.04-1.2.28 0-.25.35-.58.75-.75.12-.04.22-.08.3-.1zm-21.32 1.6c7.67 0 15.48.18 17.36.42 3.17.4 3.4.53 3.4 1.7 0 1.4-.4 1.48-4.54.74-1.26-.22-6.3-.7-11.2-1.07-8.5-.64-19.07-.3-28.48.9-1.94.26-2.4.16-2.4-.48 0-1.36 10.17-2.23 25.86-2.23zm-10.3 2.88h5.4l-1.2 1.3c-1.46 1.64-1.56 1.64-3.03 0l-1.18-1.3zm6.95 0l1.42 1.4c.78.8 1.43 1.5 1.43 1.6s-1.3.17-2.9.17h-2.88l1.46-1.6 1.46-1.57zm2.15 0h5.44l-1.2 1.3c-1.47 1.64-1.57 1.64-3.04 0l-1.2-1.3zm-12.82.07c.23.02.02.42-.7 1.43-.65.92-1.34 1.67-1.52 1.67-.17 0-.84-.6-1.5-1.33l-1.2-1.32h1.82c1 0 2.22-.16 2.7-.35.18-.07.32-.1.4-.1zm2.04.45l1.3 1.18c.7.66 1.37 1.24 1.46 1.28.1.04-1.1.16-2.63.26l-2.8.2 1.34-1.47 1.32-1.45zm17.36 0l1.46 1.6c1.6 1.73 1.44 1.8-2.2 1.1l-1.7-.32 1.22-1.2 1.22-1.18zm2.05 0h2.36c2.55 0 2.88.4 1.43 1.77-1.2 1.12-1.2 1.1-2.6-.45l-1.2-1.32zm-30.62.55c1.16 0 1.12.1-.37 1.55-1.14 1.12-1.28 1.15-1.6.3-.37-1 .53-1.84 1.98-1.85zm38.8.15c.4 0 1.2.08 2.08.24l2.18.38-1.26 1.22-1.24 1.2-1.08-1.4c-.6-.8-1-1.5-.92-1.6.02-.03.1-.04.24-.04zm-35.96.48c.3-.05.58.2 1.1.7 1 .94 1.02 1.02.15 1.38-.5.2-1.6.4-2.44.4l-1.5.05 1.37-1.42c.67-.7 1-1.05 1.3-1.1zm34.1.28c.34-.02.62.28 1.1.97l.93 1.28h-2.1c-1.37 0-2.02-.2-1.9-.6.12-.35.65-.92 1.2-1.28.3-.22.55-.35.76-.36zm6.4 1.35c.1.03.13.22.13.55 0 1-.82 1.63-1.22.96-.15-.25.06-.76.47-1.12.3-.26.5-.4.62-.37zm-25.93 1.2c8.68 0 18.32.58 23.9 1.62l1.66.32v4.4c0 3.23-.15 4.4-.62 4.36-.34-.04-2.58-.5-4.95-1.03-7.15-1.6-15.24-2.23-24.34-1.86-4.6.2-9.42.54-10.7.78l-2.37.43-.6-3.67c-.3-2-.5-3.73-.4-3.82.08-.08 2.3-.46 4.94-.82 3.4-.45 8.26-.67 13.47-.67z"/><path id="b" d="M124.76 217.76c-2.96 0-5.08 2.2-5.08 5.27 0 4.8 5.4 7.12 8.66 3.73s1.04-9-3.58-9zm-.02 1.24c2.2-.1 4.07 1.62 4.07 4.1 0 2.88-3.34 4.9-5.92 3.55-2.75-1.44-2.55-6.06.32-7.3a4.28 4.28 0 0 1 1.54-.35z"/><use width="100%" height="100%" x="-20.065" y="-.6" xlink:href="#b"/><path d="M88 145.28a1.72 1.76 0 0 0-1.58 1.76 1.73 1.77 0 1 0 3.45 0 1.72 1.76 0 0 0-1.86-1.76zm.13.62a1.16 1.14 0 0 1 1.12 1.14 1.16 1.15 0 1 1-2.33 0 1.16 1.14 0 0 1 1.2-1.14z"/></g></svg>